<svg xmlns="http://www.w3.org/2000/svg" xmlns:xlink="http://www.w3.org/1999/xlink" width="818.56" height="202.56" viewBox="0 0 613.92 151.92"><clipPath id="a"><path transform="scale(.24)" d="M0 0h2558.333v632.835H0z" fill-rule="evenodd"/></clipPath><g clip-path="url(#a)"><path d="M0 0h614v151.88H0z" fill="#fff"/></g><clipPath id="b"><path transform="scale(.24)" d="M0 0h2558.333v623.837H0z" fill-rule="evenodd"/></clipPath><g clip-path="url(#b)"><path d="M38.89 53.338A16.386 16.386 0 0 1 35.17 63.74a16.387 16.387 0 0 1-9.476 5.68 16.385 16.385 0 0 1-10.928-1.622 16.388 16.388 0 0 1-7.961-9.7 16.386 16.386 0 0 1 .542-11.035 16.387 16.387 0 0 1 8.874-8.873 16.389 16.389 0 0 1 14.003.688 16.387 16.387 0 0 1 7.962 9.7 16.385 16.385 0 0 1 .706 4.76z" fill="#fff"/><path fill="none" stroke="#000" d="M38.89 53.338A16.386 16.386 0 0 1 35.17 63.74a16.387 16.387 0 0 1-9.476 5.68 16.385 16.385 0 0 1-10.928-1.622 16.388 16.388 0 0 1-7.961-9.7 16.386 16.386 0 0 1 .542-11.035 16.387 16.387 0 0 1 8.874-8.873 16.389 16.389 0 0 1 14.003.688 16.387 16.387 0 0 1 7.962 9.7 16.385 16.385 0 0 1 .706 4.76z" stroke-width=".71981"/><symbol id="c"><path d="m.416.388.182-.27A.426.426 0 0 1 .663.034.094.094 0 0 1 .708.018V0H.386v.018C.41.02.428.024.436.03a.026.026 0 0 1 .01.021.034.034 0 0 1-.003.016.496.496 0 0 1-.034.055L.313.265.21.14C.181.104.166.078.166.065c0-.01.004-.018.012-.026A.068.068 0 0 1 .212.02.188.188 0 0 1 .254.018V0H0v.018a.162.162 0 0 1 .068.024.53.53 0 0 1 .092.093l.131.16-.168.248-.048.068A.09.09 0 0 1 .05.634a.11.11 0 0 1-.035.01v.018h.329V.644H.326C.307.644.294.641.286.634a.027.027 0 0 1-.01-.022c0-.007 0-.013.003-.018L.312.543.396.418l.07.085C.5.547.517.578.517.596A.042.042 0 0 1 .51.62.048.048 0 0 1 .49.638a.114.114 0 0 1-.044.006v.018h.243V.644A.137.137 0 0 1 .642.637.118.118 0 0 1 .604.612 1.122 1.122 0 0 1 .541.54L.416.388z"/></symbol><use xlink:href="#c" transform="matrix(11.47747 0 0 -11.47747 15.77 55.953)"/><symbol id="d"><path d="M.26.676V.134A.34.34 0 0 1 .265.056.05.05 0 0 1 .288.03a.106.106 0 0 1 .054-.01h.015V0H.01v.018h.017c.029 0 .049.003.06.01a.05.05 0 0 1 .025.027.297.297 0 0 1 .007.08v.343c0 .03-.002.05-.005.057a.04.04 0 0 1-.016.02.046.046 0 0 1-.028.007.157.157 0 0 1-.06-.015L0 .564l.244.112H.26z"/></symbol><use xlink:href="#d" transform="matrix(9.56217 0 0 -9.56217 24.616 58.957)"/><path stroke-miterlimit="10" fill="none" stroke="#000" d="M38.891 53.338h67.634M101.961 53.338h-63.07" stroke-width=".71981"/><path d="m105.726 53.338-5.024 2.512 1.26-2.512-1.26-2.505 5.024 2.505z"/><path stroke-miterlimit="10" fill="none" stroke="#000" d="m105.726 53.338-5.024 2.512 1.26-2.512-1.26-2.505 5.024 2.505z" stroke-width=".71981"/><path d="M65.995 46.627h14.347v13.63H65.995z" fill="#fff"/><symbol id="e"><path d="M.427.345A.597.597 0 0 0 .4.16.249.249 0 0 0 .354.073.225.225 0 0 0 .291.02.159.159 0 0 0 .213 0a.158.158 0 0 0-.086.024.23.23 0 0 0-.068.07.34.34 0 0 0-.038.089.62.62 0 0 0 .01.353c.016.049.041.087.075.113a.17.17 0 0 0 .107.04.17.17 0 0 0 .108-.04.224.224 0 0 0 .074-.105.588.588 0 0 0 .032-.2m-.15.002c0 .116 0 .183-.002.202C.272.594.264.624.25.64.243.65.231.656.211.656A.046.046 0 0 1 .18.644C.167.633.159.612.154.584a3.642 3.642 0 0 1 .004-.49C.163.07.17.055.178.047A.054.054 0 0 1 .216.036C.23.036.243.04.25.05a.155.155 0 0 1 .024.085l.002.21z"/></symbol><symbol id="f"><path d="M.081.163A.078.078 0 0 0 .14.139.079.079 0 0 0 .163.08.079.079 0 0 0 .139.023.08.08 0 0 0 .08 0a.08.08 0 0 0-.058.023A.08.08 0 0 0 0 .081.08.08 0 0 0 .023.14a.079.079 0 0 0 .058.024z"/></symbol><use xlink:href="#e" transform="matrix(11.47747 0 0 -11.47747 66.052 57.544)"/><use xlink:href="#f" transform="matrix(11.47747 0 0 -11.47747 71.88 57.527)"/><use xlink:href="#d" transform="matrix(11.47747 0 0 -11.47747 75.001 57.387)"/><path d="M139.319 53.338a16.383 16.383 0 0 1-2.764 9.11 16.377 16.377 0 0 1-5.903 5.35 16.38 16.38 0 0 1-9.337 1.858 16.385 16.385 0 0 1-9.987-4.724 16.388 16.388 0 0 1-4.802-11.594 16.394 16.394 0 0 1 16.396-16.396 16.387 16.387 0 0 1 11.594 4.802 16.388 16.388 0 0 1 4.803 11.594z" fill="#fff"/><path fill="none" stroke="#000" d="M139.319 53.338a16.383 16.383 0 0 1-2.764 9.11 16.377 16.377 0 0 1-5.903 5.35 16.38 16.38 0 0 1-9.337 1.858 16.385 16.385 0 0 1-9.987-4.724 16.388 16.388 0 0 1-4.802-11.594 16.394 16.394 0 0 1 16.396-16.396 16.387 16.387 0 0 1 11.594 4.802 16.388 16.388 0 0 1 4.803 11.594z" stroke-width=".71981"/><use xlink:href="#c" transform="matrix(11.47747 0 0 -11.47747 116.198 55.953)"/><symbol id="g"><path d="M.39 0H0v.01C.12.154.192.25.217.299a.31.31 0 0 1 .039.144c0 .034-.01.062-.032.085A.102.102 0 0 1 .146.56C.096.561.057.536.03.486L.012.492a.27.27 0 0 0 .08.139c.036.03.077.045.124.045A.183.183 0 0 0 .308.652.17.17 0 0 0 .373.588.153.153 0 0 0 .396.512.276.276 0 0 0 .36.38 1.251 1.251 0 0 0 .145.128h.143c.035 0 .058.001.068.004.01.003.02.008.026.015A.2.2 0 0 1 .41.191h.018L.39 0z"/></symbol><use xlink:href="#g" transform="matrix(9.56217 0 0 -9.56217 124.647 58.957)"/><path d="M89.105 132.244a16.385 16.385 0 0 1-3.722 10.402 16.386 16.386 0 0 1-9.476 5.68 16.382 16.382 0 0 1-9.473-.934 16.384 16.384 0 0 1-7.359-6.039 16.386 16.386 0 0 1-2.684-10.716 16.385 16.385 0 0 1 4.723-9.987 16.393 16.393 0 0 1 19.323-2.866 16.386 16.386 0 0 1 7.42 8.185 16.386 16.386 0 0 1 1.248 6.275z" fill="#fff"/><path fill="none" stroke="#000" d="M89.105 132.244a16.385 16.385 0 0 1-3.722 10.402 16.386 16.386 0 0 1-9.476 5.68 16.382 16.382 0 0 1-9.473-.934 16.384 16.384 0 0 1-7.359-6.039 16.386 16.386 0 0 1-2.684-10.716 16.385 16.385 0 0 1 4.723-9.987 16.393 16.393 0 0 1 19.323-2.866 16.386 16.386 0 0 1 7.42 8.185 16.386 16.386 0 0 1 1.248 6.275z" stroke-width=".71981"/><use xlink:href="#c" transform="matrix(11.47747 0 0 -11.47747 65.984 134.86)"/><symbol id="h"><path d="M.132.346v.017c.037.011.063.021.077.03.014.01.027.024.037.043a.12.12 0 0 1 .016.058c0 .027-.01.05-.03.069a.1.1 0 0 1-.073.03C.113.592.074.567.042.52L.024.526a.294.294 0 0 0 .09.123.2.2 0 0 0 .123.04A.158.158 0 0 0 .35.649.13.13 0 0 0 .374.479a.179.179 0 0 0-.065-.06.228.228 0 0 0 .087-.068.166.166 0 0 0 .03-.102.236.236 0 0 0-.075-.177.276.276 0 0 0-.2-.072C.093 0 .053.01.027.028A.06.06 0 0 0 0 .078c0 .015.005.028.016.038.01.011.023.016.037.016.011 0 .021-.002.03-.007A.61.61 0 0 0 .14.083a.146.146 0 0 1 .089-.04c.024 0 .045.01.062.03.017.018.026.043.026.072a.188.188 0 0 1-.047.123.245.245 0 0 1-.137.078z"/></symbol><use xlink:href="#h" transform="matrix(9.56217 0 0 -9.56217 74.354 138)"/><path stroke-miterlimit="10" fill="none" stroke="#000" d="m122.922 69.735-35.86 47.278" stroke-width=".71981"/><path d="m84.787 120.014 1.036-5.52 1.238 2.519 2.764.518-5.038 2.483z"/><path stroke-miterlimit="10" fill="none" stroke="#000" d="m84.787 120.014 1.036-5.52 1.238 2.519 2.764.518-5.038 2.483z" stroke-width=".71981"/><path d="M104.732 82.494h5.739v13.63h-5.74z" fill="#fff"/><use xlink:href="#d" transform="matrix(11.47747 0 0 -11.47747 105.13 93.254)"/><path stroke-miterlimit="10" fill="none" stroke="#000" d="m22.494 69.735 35.861 47.278" stroke-width=".71981"/><path d="m60.63 120.014-5.032-2.483 2.757-.518 1.238-2.52 1.037 5.521z"/><path stroke-miterlimit="10" fill="none" stroke="#000" d="m60.63 120.014-5.032-2.483 2.757-.518 1.238-2.52 1.037 5.521z" stroke-width=".71981"/><path d="M35.867 83.212h5.739v13.63h-5.739z" fill="#fff"/><use xlink:href="#d" transform="matrix(11.47747 0 0 -11.47747 36.265 93.972)"/><path d="M196.71 53.338a16.38 16.38 0 0 1-2.764 9.11 16.387 16.387 0 0 1-10.434 6.971 16.384 16.384 0 0 1-10.928-1.62 16.39 16.39 0 0 1-8.352-11.262 16.389 16.389 0 0 1 2.448-12.308 16.387 16.387 0 0 1 10.434-6.972 16.387 16.387 0 0 1 10.928 1.62 16.385 16.385 0 0 1 7.42 8.186 16.392 16.392 0 0 1 1.247 6.275z" fill="#fff"/><path fill="none" stroke="#000" d="M196.71 53.338a16.38 16.38 0 0 1-2.764 9.11 16.387 16.387 0 0 1-10.434 6.971 16.384 16.384 0 0 1-10.928-1.62 16.39 16.39 0 0 1-8.352-11.262 16.389 16.389 0 0 1 2.448-12.308 16.387 16.387 0 0 1 10.434-6.972 16.387 16.387 0 0 1 10.928 1.62 16.385 16.385 0 0 1 7.42 8.186 16.392 16.392 0 0 1 1.247 6.275z" stroke-width=".71981"/><use xlink:href="#c" transform="matrix(11.47747 0 0 -11.47747 173.586 55.953)"/><use xlink:href="#d" transform="matrix(9.56217 0 0 -9.56217 182.432 58.957)"/><path stroke-miterlimit="10" fill="none" stroke="#000" d="M196.703 53.338h67.64M264.344 53.338h-67.64" stroke-width=".71981"/><path d="M297.138 53.338a16.37 16.37 0 0 1-1.936 7.73 16.38 16.38 0 0 1-6.732 6.73 16.383 16.383 0 0 1-9.336 1.858 16.386 16.386 0 0 1-9.987-4.724 16.393 16.393 0 0 1-1.08-21.996 16.388 16.388 0 0 1 11.067-5.915 16.388 16.388 0 0 1 12.009 3.643 16.378 16.378 0 0 1 4.746 6.4 16.38 16.38 0 0 1 1.249 6.274z" fill="#fff"/><path fill="none" stroke="#000" d="M297.138 53.338a16.37 16.37 0 0 1-1.936 7.73 16.38 16.38 0 0 1-6.732 6.73 16.383 16.383 0 0 1-9.336 1.858 16.386 16.386 0 0 1-9.987-4.724 16.393 16.393 0 0 1-1.08-21.996 16.388 16.388 0 0 1 11.067-5.915 16.388 16.388 0 0 1 12.009 3.643 16.378 16.378 0 0 1 4.746 6.4 16.38 16.38 0 0 1 1.249 6.274z" stroke-width=".71981"/><use xlink:href="#c" transform="matrix(11.47747 0 0 -11.47747 274.013 55.953)"/><use xlink:href="#g" transform="matrix(9.56217 0 0 -9.56217 282.463 58.957)"/><path d="M246.924 132.244a16.38 16.38 0 0 1-2.764 9.11 16.39 16.39 0 0 1-13.633 7.286 16.384 16.384 0 0 1-9.11-2.763 16.38 16.38 0 0 1-6.038-7.358 16.382 16.382 0 0 1-.933-9.474 16.376 16.376 0 0 1 3.407-7.203 16.404 16.404 0 0 1 11.067-5.915 16.393 16.393 0 0 1 16.755 10.042 16.378 16.378 0 0 1 1.249 6.275z" fill="#fff"/><path fill="none" stroke="#000" d="M246.924 132.244a16.38 16.38 0 0 1-2.764 9.11 16.39 16.39 0 0 1-13.633 7.286 16.384 16.384 0 0 1-9.11-2.763 16.38 16.38 0 0 1-6.038-7.358 16.382 16.382 0 0 1-.933-9.474 16.376 16.376 0 0 1 3.407-7.203 16.404 16.404 0 0 1 11.067-5.915 16.393 16.393 0 0 1 16.755 10.042 16.378 16.378 0 0 1 1.249 6.275z" stroke-width=".71981"/><use xlink:href="#c" transform="matrix(11.47747 0 0 -11.47747 223.8 134.86)"/><use xlink:href="#h" transform="matrix(9.56217 0 0 -9.56217 232.17 138)"/><path stroke-miterlimit="10" fill="none" stroke="#000" d="m280.741 69.735-35.86 47.278" stroke-width=".71981"/><path d="m242.606 120.014 1.029-5.52 1.245 2.519 2.757.518-5.031 2.483z"/><path stroke-miterlimit="10" fill="none" stroke="#000" d="m242.606 120.014 1.029-5.52 1.245 2.519 2.757.518-5.031 2.483zM180.313 69.735l35.854 47.278" stroke-width=".71981"/><path d="m218.449 120.014-5.039-2.483 2.757-.518 1.245-2.52 1.037 5.521z"/><path stroke-miterlimit="10" fill="none" stroke="#000" d="m218.449 120.014-5.039-2.483 2.757-.518 1.245-2.52 1.037 5.521z" stroke-width=".71981"/><path d="M354.521 53.338a16.37 16.37 0 0 1-1.936 7.73 16.39 16.39 0 0 1-11.262 8.351 16.384 16.384 0 0 1-10.928-1.62 16.39 16.39 0 0 1-8.588-12.854 16.387 16.387 0 0 1 3.643-12.009 16.386 16.386 0 0 1 11.068-5.915 16.388 16.388 0 0 1 12.008 3.643 16.382 16.382 0 0 1 5.289 7.914 16.385 16.385 0 0 1 .706 4.76z" fill="#fff"/><path fill="none" stroke="#000" d="M354.521 53.338a16.37 16.37 0 0 1-1.936 7.73 16.39 16.39 0 0 1-11.262 8.351 16.384 16.384 0 0 1-10.928-1.62 16.39 16.39 0 0 1-8.588-12.854 16.387 16.387 0 0 1 3.643-12.009 16.386 16.386 0 0 1 11.068-5.915 16.388 16.388 0 0 1 12.008 3.643 16.382 16.382 0 0 1 5.289 7.914 16.385 16.385 0 0 1 .706 4.76z" stroke-width=".71981"/><use xlink:href="#c" transform="matrix(11.47747 0 0 -11.47747 331.4 55.953)"/><use xlink:href="#d" transform="matrix(9.56217 0 0 -9.56217 340.247 58.957)"/><path d="M454.95 53.338a16.356 16.356 0 0 1-1.249 6.275 16.398 16.398 0 0 1-24.257 7.358 16.39 16.39 0 0 1-7.209-12.026 16.392 16.392 0 0 1 7.209-15.24 16.39 16.39 0 0 1 13.869-2.057 16.383 16.383 0 0 1 7.914 5.288 16.359 16.359 0 0 1 3.016 5.642 16.372 16.372 0 0 1 .706 4.76z" fill="#fff"/><path fill="none" stroke="#000" d="M454.95 53.338a16.356 16.356 0 0 1-1.249 6.275 16.398 16.398 0 0 1-24.257 7.358 16.39 16.39 0 0 1-7.209-12.026 16.392 16.392 0 0 1 7.209-15.24 16.39 16.39 0 0 1 13.869-2.057 16.383 16.383 0 0 1 7.914 5.288 16.359 16.359 0 0 1 3.016 5.642 16.372 16.372 0 0 1 .706 4.76z" stroke-width=".71981"/><use xlink:href="#c" transform="matrix(11.47747 0 0 -11.47747 431.829 55.953)"/><use xlink:href="#g" transform="matrix(9.56217 0 0 -9.56217 440.278 58.957)"/><path d="M404.735 132.244a16.374 16.374 0 0 1-1.936 7.73 16.385 16.385 0 0 1-6.731 6.73 16.372 16.372 0 0 1-7.73 1.936 16.384 16.384 0 0 1-9.109-2.763 16.379 16.379 0 0 1-5.35-5.904 16.383 16.383 0 0 1-1.858-9.336 16.378 16.378 0 0 1 3.643-8.795 16.389 16.389 0 0 1 12.675-5.994 16.391 16.391 0 0 1 13.633 7.287 16.389 16.389 0 0 1 2.763 9.109z" fill="#fff"/><path fill="none" stroke="#000" d="M404.735 132.244a16.374 16.374 0 0 1-1.936 7.73 16.385 16.385 0 0 1-6.731 6.73 16.372 16.372 0 0 1-7.73 1.936 16.384 16.384 0 0 1-9.109-2.763 16.379 16.379 0 0 1-5.35-5.904 16.383 16.383 0 0 1-1.858-9.336 16.378 16.378 0 0 1 3.643-8.795 16.389 16.389 0 0 1 12.675-5.994 16.391 16.391 0 0 1 13.633 7.287 16.389 16.389 0 0 1 2.763 9.109z" stroke-width=".71981"/><use xlink:href="#c" transform="matrix(11.47747 0 0 -11.47747 381.615 134.86)"/><use xlink:href="#h" transform="matrix(9.56217 0 0 -9.56217 389.985 138)"/><path stroke-miterlimit="10" fill="none" stroke="#000" d="m438.553 69.735-35.861 47.278" stroke-width=".71981"/><path d="m400.417 120.014 1.037-5.52 1.238 2.519 2.764.518-5.039 2.483z"/><path stroke-miterlimit="10" fill="none" stroke="#000" d="m400.417 120.014 1.037-5.52 1.238 2.519 2.764.518-5.039 2.483zM338.125 69.735l35.86 47.278" stroke-width=".71981"/><path d="m376.26 120.014-5.031-2.483 2.757-.518 1.238-2.52 1.036 5.521z"/><path stroke-miterlimit="10" fill="none" stroke="#000" d="m376.26 120.014-5.031-2.483 2.757-.518 1.238-2.52 1.036 5.521z" stroke-width=".71981"/><path d="M512.34 53.338a16.41 16.41 0 0 1-2.763 9.11 16.385 16.385 0 0 1-8.874 6.58 16.392 16.392 0 0 1-17.434-5.288 16.402 16.402 0 0 1-2.474-16.677 16.381 16.381 0 0 1 6.04-7.358 16.399 16.399 0 0 1 23.569 5.904 16.383 16.383 0 0 1 1.936 7.73z" fill="#fff"/><path fill="none" stroke="#000" d="M512.34 53.338a16.41 16.41 0 0 1-2.763 9.11 16.385 16.385 0 0 1-8.874 6.58 16.392 16.392 0 0 1-17.434-5.288 16.402 16.402 0 0 1-2.474-16.677 16.381 16.381 0 0 1 6.04-7.358 16.399 16.399 0 0 1 23.569 5.904 16.383 16.383 0 0 1 1.936 7.73z" stroke-width=".71981"/><use xlink:href="#c" transform="matrix(11.47747 0 0 -11.47747 489.216 55.953)"/><use xlink:href="#d" transform="matrix(9.56217 0 0 -9.56217 498.062 58.957)"/><path stroke-miterlimit="10" fill="none" stroke="#000" d="M512.334 53.338h67.64M579.974 53.338h-67.64" stroke-width=".71981"/><path d="M612.768 53.338a16.352 16.352 0 0 1-.706 4.76 16.399 16.399 0 0 1-23.42 9.7 16.395 16.395 0 1 1 24.126-14.46z" fill="#fff"/><path fill="none" stroke="#000" d="M612.768 53.338a16.352 16.352 0 0 1-.706 4.76 16.399 16.399 0 0 1-23.42 9.7 16.395 16.395 0 1 1 24.126-14.46z" stroke-width=".71981"/><use xlink:href="#c" transform="matrix(11.47747 0 0 -11.47747 589.644 55.953)"/><use xlink:href="#g" transform="matrix(9.56217 0 0 -9.56217 598.093 58.957)"/><path d="M562.554 132.244a16.412 16.412 0 0 1-1.936 7.73 16.385 16.385 0 0 1-6.731 6.73 16.38 16.38 0 0 1-9.336 1.857 16.387 16.387 0 0 1-11.068-5.915 16.41 16.41 0 0 1-3.643-8.795 16.428 16.428 0 0 1 .627-6.367 16.385 16.385 0 0 1 6.581-8.873 16.39 16.39 0 0 1 13.87-2.057 16.39 16.39 0 0 1 10.388 9.415 16.367 16.367 0 0 1 1.248 6.275z" fill="#fff"/><path fill="none" stroke="#000" d="M562.554 132.244a16.412 16.412 0 0 1-1.936 7.73 16.385 16.385 0 0 1-6.731 6.73 16.38 16.38 0 0 1-9.336 1.857 16.387 16.387 0 0 1-11.068-5.915 16.41 16.41 0 0 1-3.643-8.795 16.428 16.428 0 0 1 .627-6.367 16.385 16.385 0 0 1 6.581-8.873 16.39 16.39 0 0 1 13.87-2.057 16.39 16.39 0 0 1 10.388 9.415 16.367 16.367 0 0 1 1.248 6.275z" stroke-width=".71981"/><use xlink:href="#c" transform="matrix(11.47747 0 0 -11.47747 539.43 134.86)"/><use xlink:href="#h" transform="matrix(9.56217 0 0 -9.56217 547.8 138)"/><path stroke-miterlimit="10" fill="none" stroke="#000" d="m596.372 69.735-38.625 50.913M495.944 69.735l38.617 50.913" stroke-width=".71981"/><symbol id="i"><path d="M.281.877V.855A.295.295 0 0 1 .207.79.326.326 0 0 1 .155.677.947.947 0 0 1 .13.438c0-.096.007-.17.021-.224A.382.382 0 0 1 .21.084a.225.225 0 0 1 .071-.06V0a.391.391 0 0 0-.2.162.49.49 0 0 0-.081.28.48.48 0 0 0 .082.276c.054.08.12.133.2.16z"/></symbol><symbol id="j"><path d="M.24.074C.186.024.136 0 .09 0A.087.087 0 0 0 0 .09c0 .035.015.066.045.094.03.028.095.065.196.11v.047a.21.21 0 0 1-.006.065.05.05 0 0 1-.021.023.063.063 0 0 1-.035.01.09.09 0 0 1-.053-.014C.118.42.114.413.114.405c0-.007.004-.016.013-.026C.14.365.146.352.146.34A.054.054 0 0 0 .128.298.065.065 0 0 0 .082.28.075.075 0 0 0 .03.3a.057.057 0 0 0-.02.043.1.1 0 0 0 .027.067.175.175 0 0 0 .078.05.317.317 0 0 0 .103.017c.044 0 .078-.01.103-.028a.128.128 0 0 0 .05-.06.388.388 0 0 0 .006-.094V.118c0-.021 0-.034.002-.04A.023.023 0 0 1 .387.066a.017.017 0 0 1 .01-.004c.01 0 .018.007.027.019L.438.069a.18.18 0 0 0-.05-.053A.11.11 0 0 0 .328 0a.093.093 0 0 0-.06.018.084.084 0 0 0-.027.056m0 .035v.153A.285.285 0 0 1 .153.188a.09.09 0 0 1-.02-.053C.134.12.14.107.15.095A.044.044 0 0 1 .184.082C.2.082.22.092.241.109z"/></symbol><symbol id="k"><path d="M0 0v.022a.302.302 0 0 1 .075.066A.34.34 0 0 1 .126.2.953.953 0 0 1 .15.44a.905.905 0 0 1-.022.224.376.376 0 0 1-.057.129.225.225 0 0 1-.071.06v.024A.389.389 0 0 0 .2.716.488.488 0 0 0 .28.436.477.477 0 0 0 .2.16.39.39 0 0 0 0 0z"/></symbol><use xlink:href="#i" transform="matrix(13.6295 0 0 -13.6295 14.837 18.51)"/><use xlink:href="#j" transform="matrix(13.6295 0 0 -13.6295 19.442 15.868)"/><use xlink:href="#k" transform="matrix(13.6295 0 0 -13.6295 25.81 18.51)"/><symbol id="l"><path d="M.19.676V.424c.038.04.08.06.125.06.032 0 .061-.01.089-.028A.182.182 0 0 0 .469.378.277.277 0 0 0 .492.26c0-.05-.01-.095-.03-.136a.225.225 0 0 0-.08-.093.207.207 0 0 0-.179-.02.184.184 0 0 0-.057.038L.071 0H.054v.581A.197.197 0 0 1 .051.63a.036.036 0 0 1-.016.02A.072.072 0 0 1 0 .658v.018h.19m0-.295V.178c0-.042 0-.068.002-.08A.083.083 0 0 1 .216.053.066.066 0 0 1 .263.034c.017 0 .03.005.043.014.012.01.022.028.03.056a.627.627 0 0 1 .012.152C.348.326.338.374.32.4A.059.059 0 0 1 .27.428C.242.428.215.412.19.381z"/></symbol><use xlink:href="#i" transform="matrix(13.6295 0 0 -13.6295 172.26 18.51)"/><use xlink:href="#l" transform="matrix(13.6295 0 0 -13.6295 176.539 15.968)"/><use xlink:href="#k" transform="matrix(13.6295 0 0 -13.6295 183.997 18.51)"/><symbol id="m"><path d="M.368.131.383.12a.229.229 0 0 0-.08-.09A.192.192 0 0 0 .2 0C.14 0 .09.023.055.069A.258.258 0 0 0 0 .234c0 .063.017.117.05.164.04.057.095.086.165.086A.167.167 0 0 0 .328.448C.356.424.37.398.37.368A.06.06 0 0 0 .353.325.06.06 0 0 0 .309.308.065.065 0 0 0 .26.327C.248.339.24.362.238.395.236.415.23.429.224.437A.035.035 0 0 1 .197.45C.182.45.168.44.157.425A.208.208 0 0 1 .132.31c0-.043.007-.085.02-.124A.19.19 0 0 1 .208.099.1.1 0 0 1 .272.078c.016 0 .031.003.045.01a.209.209 0 0 1 .051.043z"/></symbol><use xlink:href="#i" transform="matrix(13.6295 0 0 -13.6295 330.848 18.51)"/><use xlink:href="#m" transform="matrix(13.6295 0 0 -13.6295 335.36 15.968)"/><use xlink:href="#k" transform="matrix(13.6295 0 0 -13.6295 341.059 18.51)"/><symbol id="n"><path d="M.439.676V.15c0-.035 0-.056.003-.063A.04.04 0 0 1 .457.063a.08.08 0 0 1 .038-.01V.039L.302 0v.072A.238.238 0 0 0 .24.015.122.122 0 0 0 .18 0 .157.157 0 0 0 .04.078.281.281 0 0 0 0 .234c0 .049.008.093.025.132.017.039.04.068.07.088.03.02.061.03.095.03A.128.128 0 0 0 .248.47.195.195 0 0 0 .302.427v.137a.246.246 0 0 1-.004.063.042.042 0 0 1-.018.021.097.097 0 0 1-.044.007v.02H.44M.302.367C.278.412.25.436.214.436a.045.045 0 0 1-.03-.01.111.111 0 0 1-.03-.053.445.445 0 0 1-.01-.117c0-.058.003-.1.012-.128A.124.124 0 0 1 .19.068a.047.047 0 0 1 .031-.01c.029 0 .056.023.081.068v.24z"/></symbol><use xlink:href="#i" transform="matrix(13.6295 0 0 -13.6295 487.89 18.51)"/><use xlink:href="#n" transform="matrix(13.6295 0 0 -13.6295 492.409 15.968)"/><use xlink:href="#k" transform="matrix(13.6295 0 0 -13.6295 499.627 18.51)"/></g></svg>