<svg xmlns="http://www.w3.org/2000/svg" xmlns:xlink="http://www.w3.org/1999/xlink" width="809.28" height="374.72" viewBox="0 0 606.96 281.04"><clipPath id="a"><path transform="scale(.24)" d="M0 0h2529.167v1170.077H0z" fill-rule="evenodd"/></clipPath><g clip-path="url(#a)"><path d="M0 0h607v280.818H0z" fill="#fff"/></g><clipPath id="b"><path transform="scale(.24)" d="M0 0h2529.167v1164.077H0z" fill-rule="evenodd"/></clipPath><g clip-path="url(#b)"><path d="M1.476 276.858V152.412h28.752v124.446z" fill="#f5f5f5"/><symbol id="c"><path d="M.982.677V.66a.063.063 0 0 1-.03-.01.075.075 0 0 1-.023-.027A2.706 2.706 0 0 1 .898.546L.69 0H.671L.507.427.327 0H.309L.09.54a.58.58 0 0 1-.047.1C.036.65.021.656 0 .66v.017h.287V.66C.264.66.25.655.241.65A.03.03 0 0 1 .229.624C.23.613.237.586.253.546l.13-.32.104.25-.027.07a.512.512 0 0 1-.035.077.074.074 0 0 1-.028.028.102.102 0 0 1-.046.008v.018h.32V.66A.177.177 0 0 1 .623.654.031.031 0 0 1 .607.642.03.03 0 0 1 .6.624c0-.007.007-.03.022-.069l.12-.313.109.283c.011.03.018.05.02.06.003.011.004.021.004.03a.038.038 0 0 1-.013.031C.853.654.836.66.81.66v.018h.171z"/></symbol><symbol id="d"><path d="M.123.678C.144.678.163.67.177.655A.072.072 0 0 0 .199.602.072.072 0 0 0 .176.55.072.072 0 0 0 .123.527.072.072 0 0 0 .07.549a.072.072 0 0 0-.022.053c0 .02.007.039.022.053a.072.072 0 0 0 .053.023M.191.457V.095c0-.033.004-.053.012-.062C.21.023.225.019.247.018V0H0v.018c.02 0 .035.006.045.017.006.008.01.027.01.06V.36C.055.394.05.414.043.423.036.432.021.437 0 .438v.019h.191z"/></symbol><symbol id="e"><path d="M.196.63V.463h.109V.415H.196V.133C.196.106.197.089.2.082A.04.04 0 0 1 .213.063.03.03 0 0 1 .23.056c.021 0 .041.016.06.048l.015-.01C.278.03.235 0 .176 0a.115.115 0 0 0-.073.024.108.108 0 0 0-.039.054.46.46 0 0 0-.004.09v.247H0v.017A.55.55 0 0 1 .18.63h.016z"/></symbol><symbol id="f"><path d="M.186.662V.398a.274.274 0 0 0 .069.056C.275.464.297.47.32.47A.113.113 0 0 0 .393.446a.114.114 0 0 0 .04-.058.415.415 0 0 0 .01-.11V.098c0-.035.004-.057.01-.065C.46.025.474.02.494.018V0H.262v.018a.053.053 0 0 1 .036.02c.006.008.01.028.01.061v.204a.328.328 0 0 1-.005.07.041.041 0 0 1-.015.023.036.036 0 0 1-.024.008.064.064 0 0 1-.038-.013.17.17 0 0 1-.04-.047V.099A.15.15 0 0 1 .193.04C.2.026.213.02.231.017V0H0v.018C.02.02.033.026.041.036.047.043.049.064.049.1v.464C.05.597.046.619.04.627.034.636.02.641 0 .644v.018h.186z"/></symbol><symbol id="g"><path d="M0 0z"/></symbol><symbol id="h"><path d="M.24.074C.186.024.136 0 .09 0A.087.087 0 0 0 0 .09c0 .035.015.066.045.094.03.028.095.065.196.11v.047a.21.21 0 0 1-.006.065.05.05 0 0 1-.021.023.063.063 0 0 1-.035.01.09.09 0 0 1-.053-.014C.118.42.114.413.114.405c0-.007.004-.016.013-.026C.14.365.146.352.146.34A.054.054 0 0 0 .128.298.065.065 0 0 0 .082.28.075.075 0 0 0 .03.3a.057.057 0 0 0-.02.043.1.1 0 0 0 .027.067.175.175 0 0 0 .078.05.317.317 0 0 0 .103.017c.044 0 .078-.01.103-.028a.128.128 0 0 0 .05-.06.388.388 0 0 0 .006-.094V.118c0-.021 0-.034.002-.04A.023.023 0 0 1 .387.066a.017.017 0 0 1 .01-.004c.01 0 .018.007.027.019L.438.069a.18.18 0 0 0-.05-.053A.11.11 0 0 0 .328 0a.093.093 0 0 0-.06.018.084.084 0 0 0-.027.056m0 .035v.153A.285.285 0 0 1 .153.188a.09.09 0 0 1-.02-.053C.134.12.14.107.15.095A.044.044 0 0 1 .184.082C.2.082.22.092.241.109z"/></symbol><symbol id="i"><path d="M.613.232.588 0H0v.018h.022c.02 0 .035.003.046.01a.044.044 0 0 1 .02.024.201.201 0 0 1 .005.061V.55a.218.218 0 0 1-.005.063.048.048 0 0 1-.022.022.085.085 0 0 1-.044.01H0v.018h.353V.644H.324a.092.092 0 0 1-.046-.01.047.047 0 0 1-.02-.024A.201.201 0 0 1 .252.55V.127c0-.034.002-.056.006-.065a.04.04 0 0 1 .023-.02.232.232 0 0 1 .06-.005h.055C.43.037.46.043.483.056a.162.162 0 0 1 .06.058.468.468 0 0 1 .05.118h.02z"/></symbol><symbol id="j"><path d="M.628.692v-.23h-.02a.244.244 0 0 1-.08.139A.204.204 0 0 1 .208.52.422.422 0 0 1 .176.355c0-.059.007-.113.022-.162a.217.217 0 0 1 .07-.11.197.197 0 0 1 .125-.037c.041 0 .08.009.114.027.035.018.071.05.11.094V.11A.364.364 0 0 0 .5.026.353.353 0 0 0 .36 0 .406.406 0 0 0 .17.042a.302.302 0 0 0-.127.123.352.352 0 0 0 .005.35.364.364 0 0 0 .46.148.227.227 0 0 1 .058-.018c.01 0 .02.003.027.01.008.009.013.02.015.037h.019z"/></symbol><use xlink:href="#c" transform="matrix(0 -14.37668 -14.37668 0 19.964 250.416)" fill="#333"/><use xlink:href="#d" transform="matrix(0 -14.37668 -14.37668 0 19.746 236.131)" fill="#333"/><use xlink:href="#e" transform="matrix(0 -14.37668 -14.37668 0 19.838 232.162)" fill="#333"/><use xlink:href="#f" transform="matrix(0 -14.37668 -14.37668 0 19.746 227.15)" fill="#333"/><use xlink:href="#g" transform="matrix(0 -14.37668 -14.37668 0 19.746 219.648)" fill="#333"/><use xlink:href="#g" transform="scale(14.37668) rotate(-90 8.2 6.827)" fill="#333"/><use xlink:href="#h" transform="matrix(0 -14.37668 -14.37668 0 19.838 211.814)" fill="#333"/><use xlink:href="#g" transform="matrix(0 -14.37668 -14.37668 0 19.746 205.272)" fill="#333"/><use xlink:href="#g" transform="scale(14.37668) rotate(-90 7.7 6.327)" fill="#333"/><use xlink:href="#i" transform="matrix(0 -14.37668 -14.37668 0 19.746 197.816)" fill="#333"/><use xlink:href="#j" transform="matrix(0 -14.37668 -14.37668 0 19.964 187.925)" fill="#333"/><path d="M1.75 150.555V30.422H30.5v120.133z" fill="#f5f5f5"/><symbol id="k"><path d="M.213.484c.04 0 .077-.01.11-.03.035-.021.06-.05.078-.088A.286.286 0 0 0 .428.242a.262.262 0 0 0-.05-.163A.195.195 0 0 0 .215 0a.188.188 0 0 0-.158.072A.267.267 0 0 0 0 .24a.27.27 0 0 0 .057.17c.038.05.09.074.156.074M.215.449A.057.057 0 0 1 .172.43C.16.418.152.393.148.356A1.687 1.687 0 0 1 .143.202C.143.167.145.135.15.104A.094.094 0 0 1 .173.052a.054.054 0 0 1 .04-.018C.228.034.24.038.25.046a.082.082 0 0 1 .025.046 1.127 1.127 0 0 1 0 .302.087.087 0 0 1-.027.045.051.051 0 0 1-.033.01z"/></symbol><symbol id="l"><path d="M.444.47V.113c0-.035.003-.057.01-.066C.46.04.474.034.494.031V.014H.306v.06A.239.239 0 0 0 .242.019.152.152 0 0 0 .168 0 .11.11 0 0 0 .1.023.118.118 0 0 0 .06.08a.409.409 0 0 0-.01.11v.182C.05.406.045.427.04.436.033.444.02.45 0 .452V.47h.186V.158C.186.126.188.105.19.095A.044.044 0 0 1 .205.074.04.04 0 0 1 .23.066C.24.066.25.07.26.076a.202.202 0 0 1 .047.051v.244c0 .035-.003.056-.01.065C.291.444.278.45.257.452V.47h.187z"/></symbol><use xlink:href="#c" transform="matrix(0 -14.37668 -14.37668 0 20.029 136.525)" fill="#333"/><use xlink:href="#d" transform="matrix(0 -14.37668 -14.37668 0 19.811 122.24)" fill="#333"/><use xlink:href="#e" transform="matrix(0 -14.37668 -14.37668 0 19.902 118.27)" fill="#333"/><use xlink:href="#f" transform="matrix(0 -14.37668 -14.37668 0 19.811 113.259)" fill="#333"/><use xlink:href="#k" transform="matrix(0 -14.37668 -14.37668 0 20.008 105.237)" fill="#333"/><use xlink:href="#l" transform="matrix(0 -14.37668 -14.37668 0 20.008 98.126)" fill="#333"/><use xlink:href="#e" transform="matrix(0 -14.37668 -14.37668 0 19.902 90.308)" fill="#333"/><use xlink:href="#g" transform="matrix(0 -14.37668 -14.37668 0 19.811 85.787)" fill="#333"/><use xlink:href="#g" transform="matrix(0 -14.37668 -14.37668 0 19.811 82.193)" fill="#333"/><use xlink:href="#h" transform="matrix(0 -14.37668 -14.37668 0 19.902 77.953)" fill="#333"/><use xlink:href="#g" transform="matrix(0 -14.37668 -14.37668 0 19.811 71.41)" fill="#333"/><use xlink:href="#g" transform="matrix(0 -14.37668 -14.37668 0 19.811 67.817)" fill="#333"/><use xlink:href="#i" transform="matrix(0 -14.37668 -14.37668 0 19.811 63.956)" fill="#333"/><use xlink:href="#j" transform="matrix(0 -14.37668 -14.37668 0 20.029 54.065)" fill="#333"/><path stroke-miterlimit="10" fill="none" stroke="#666" d="M173.596 276.39V2.513M1.08 29.832h603.817M30.235 276.858l-.403-247.026" stroke-width=".72005"/><path d="M317.008 274.237v-2.156h.72v2.156m-.72-4.313v-2.156h.72v2.156m-.72-4.313v-2.156h.72v2.156m-.72-4.313v-2.156h.72v2.156m-.72-4.313v-2.156h.72v2.156m-.72-4.313v-2.156h.72v2.156m-.72-4.313v-2.156h.72v2.156m-.72-4.313v-2.156h.72v2.156m-.72-4.313v-2.156h.72v2.156m-.72-4.313v-2.156h.72v2.156m-.72-4.313v-2.156h.72v2.156m-.72-4.313v-2.156h.72v2.156m-.72-4.313v-2.156h.72v2.156m-.72-4.313v-2.156h.72v2.156m-.72-4.313V211.7h.72v2.156m-.72-4.313v-2.156h.72v2.156m-.72-4.313v-2.156h.72v2.156m-.72-4.313v-2.156h.72v2.156m-.72-4.313v-2.156h.72v2.156m-.72-4.313v-2.156h.72v2.156m-.72-4.313v-2.156h.72v2.156m-.72-4.313v-2.156h.72v2.156m-.72-4.313v-2.156h.72v2.156m-.72-4.313v-2.156h.72v2.156m-.72-4.313v-2.156h.72v2.156m-.72-4.313v-2.156h.72v2.156m-.72-4.313v-2.156h.72v2.156m-.72-4.313v-2.156h.72v2.156m-.72-4.313v-2.156h.72v2.156m-.72-4.313v-2.156h.72v2.156m-.72-4.313v-2.156h.72v2.156m-.72-4.313v-2.156h.72v2.156m-.72-4.313v-2.156h.72v2.156m-.72-4.313v-2.156h.72v2.156m-.72-4.313v-2.156h.72v2.156m-.72-4.313v-2.156h.72v2.156m-.72-4.313v-2.156h.72v2.156m-.72-4.313V112.5h.72v2.156m-.72-4.313v-2.156h.72v2.156m-.72-4.313v-2.156h.72v2.156m-.72-4.313v-2.156h.72v2.156m-.72-4.313v-2.156h.72v2.156m-.72-4.313v-2.156h.72v2.156m-.72-4.313v-2.156h.72v2.156m-.72-4.313V82.31h.72v2.156m-.72-4.313v-2.156h.72v2.156m-.72-4.313v-2.156h.72v2.156m-.72-4.313V69.37h.72v2.156m-.72-4.313v-2.156h.72v2.156m-.72-4.313v-2.156h.72V62.9m-.72-4.313v-2.156h.72v2.156m-.72-4.313v-2.156h.72v2.156m-.72-4.313v-2.156h.72v2.156m-.72-4.313v-2.156h.72v2.156m-.72-4.313V39.18h.72v2.156m-.72-4.313v-2.156h.72v2.156m-.72-4.313v-2.156h.72v2.156m-.72-4.313V26.24h.72v2.156m-.72-4.313v-2.156h.72v2.156m-.72-4.313v-2.156h.72v2.156m-.72-4.313v-2.156h.72v2.156m-.72-4.313V8.988h.72v2.156m-.72-4.313V4.675h.72V6.83m-.72-4.313V1.08h.72v1.438M460.773 274.237v-2.156h.72v2.156m-.72-4.313v-2.156h.72v2.156m-.72-4.313v-2.156h.72v2.156m-.72-4.313v-2.156h.72v2.156m-.72-4.313v-2.156h.72v2.156m-.72-4.313v-2.156h.72v2.156m-.72-4.313v-2.156h.72v2.156m-.72-4.313v-2.156h.72v2.156m-.72-4.313v-2.156h.72v2.156m-.72-4.313v-2.156h.72v2.156m-.72-4.313v-2.156h.72v2.156m-.72-4.313v-2.156h.72v2.156m-.72-4.313v-2.156h.72v2.156m-.72-4.313v-2.156h.72v2.156m-.72-4.313V211.7h.72v2.156m-.72-4.313v-2.156h.72v2.156m-.72-4.313v-2.156h.72v2.156m-.72-4.313v-2.156h.72v2.156m-.72-4.313v-2.156h.72v2.156m-.72-4.313v-2.156h.72v2.156m-.72-4.313v-2.156h.72v2.156m-.72-4.313v-2.156h.72v2.156m-.72-4.313v-2.156h.72v2.156m-.72-4.313v-2.156h.72v2.156m-.72-4.313v-2.156h.72v2.156m-.72-4.313v-2.156h.72v2.156m-.72-4.313v-2.156h.72v2.156m-.72-4.313v-2.156h.72v2.156m-.72-4.313v-2.156h.72v2.156m-.72-4.313v-2.156h.72v2.156m-.72-4.313v-2.156h.72v2.156m-.72-4.313v-2.156h.72v2.156m-.72-4.313v-2.156h.72v2.156m-.72-4.313v-2.156h.72v2.156m-.72-4.313v-2.156h.72v2.156m-.72-4.313v-2.156h.72v2.156m-.72-4.313v-2.156h.72v2.156m-.72-4.313V112.5h.72v2.156m-.72-4.313v-2.156h.72v2.156m-.72-4.313v-2.156h.72v2.156m-.72-4.313v-2.156h.72v2.156m-.72-4.313v-2.156h.72v2.156m-.72-4.313v-2.156h.72v2.156m-.72-4.313v-2.156h.72v2.156m-.72-4.313V82.31h.72v2.156m-.72-4.313v-2.156h.72v2.156m-.72-4.313v-2.156h.72v2.156m-.72-4.313V69.37h.72v2.156m-.72-4.313v-2.156h.72v2.156m-.72-4.313v-2.156h.72V62.9m-.72-4.313v-2.156h.72v2.156m-.72-4.313v-2.156h.72v2.156m-.72-4.313v-2.156h.72v2.156m-.72-4.313v-2.156h.72v2.156m-.72-4.313V39.18h.72v2.156m-.72-4.313v-2.156h.72v2.156m-.72-4.313v-2.156h.72v2.156m-.72-4.313V26.24h.72v2.156m-.72-4.313v-2.156h.72v2.156m-.72-4.313v-2.156h.72v2.156m-.72-4.313v-2.156h.72v2.156m-.72-4.313V8.988h.72v2.156m-.72-4.313V4.675h.72V6.83m-.72-4.313V1.08h.72v1.438" fill="#666"/><path stroke-miterlimit="10" fill="none" stroke="#666" d="M604.897 275.67V1.8M1.08 276.39V29.832" stroke-width=".72005"/><path d="M173.683 1.08h143.764v28.752H173.683z" fill="#f5f5f5"/><path fill="none" stroke="#666" d="M173.683 1.08h143.764v28.752H173.683z" stroke-width=".72005"/><path d="M212.775 6.47h64.695v15.814h-64.695z" fill="#f5f5f5"/><symbol id="m"><path d="M0 0v.018h.022c.02 0 .034.003.044.009.01.006.018.014.023.025a.233.233 0 0 1 .004.061V.55a.218.218 0 0 1-.005.063.048.048 0 0 1-.022.022.085.085 0 0 1-.044.01H0v.018h.296C.376.662.44.652.487.63A.281.281 0 0 0 .621.51.358.358 0 0 0 .667.33.36.36 0 0 0 .645.2.299.299 0 0 0 .586.103.29.29 0 0 0 .504.042.442.442 0 0 0 .296 0H0m.252.625V.108c0-.027.002-.044.004-.05A.028.028 0 0 1 .27.043.08.08 0 0 1 .308.036c.054 0 .095.019.124.056.04.05.059.128.059.233A.44.44 0 0 1 .45.53a.17.17 0 0 1-.082.08.316.316 0 0 1-.117.016z"/></symbol><symbol id="n"><path d="M.245.3V.116C.245.08.247.058.25.048A.05.05 0 0 1 .274.026.158.158 0 0 1 .336.018V0H0v.018c.03 0 .051.003.062.008A.05.05 0 0 1 .085.05C.09.058.092.08.092.116v.43a.195.195 0 0 1-.007.067.047.047 0 0 1-.023.023A.156.156 0 0 1 0 .644v.018h.289c.095 0 .163-.017.204-.05A.158.158 0 0 0 .555.483a.162.162 0 0 0-.04-.11.204.204 0 0 0-.11-.062A.754.754 0 0 0 .245.3m0 .324V.338L.269.337c.04 0 .07.012.092.035.021.024.032.06.032.11S.383.567.361.59C.339.613.307.624.265.624h-.02z"/></symbol><symbol id="o"><path d="M.408.188H.174L.146.124A.143.143 0 0 1 .133.071C.133.052.14.039.155.03A.189.189 0 0 1 .22.018V0H0v.018a.1.1 0 0 1 .059.03c.015.016.034.049.056.1l.237.528h.01L.6.133A.33.33 0 0 1 .656.036.077.077 0 0 1 .703.018V0h-.32v.018h.013c.026 0 .044.004.054.01.007.006.01.014.01.023A.06.06 0 0 1 .459.07a.456.456 0 0 1-.015.037L.408.188M.392.225.293.453.191.225h.2z"/></symbol><symbol id="p"><path d="M.65.693V.459H.63a.297.297 0 0 1-.098.146.231.231 0 0 1-.143.05.184.184 0 0 1-.123-.042.225.225 0 0 1-.07-.116.577.577 0 0 1 .002-.32A.19.19 0 0 1 .27.07a.209.209 0 0 1 .12-.034.253.253 0 0 1 .1.02v.138a.144.144 0 0 1-.006.05.049.049 0 0 1-.022.021.082.082 0 0 1-.04.01H.404v.017h.322V.275a.139.139 0 0 1-.051-.01A.05.05 0 0 1 .654.24.138.138 0 0 1 .649.195V.057A.64.64 0 0 0 .375 0a.419.419 0 0 0-.157.025.403.403 0 0 0-.11.068.323.323 0 0 0-.074.094.329.329 0 0 0-.034.15c0 .1.035.185.105.253.07.069.158.103.264.103A.46.46 0 0 0 .458.686a.44.44 0 0 0 .07-.023.296.296 0 0 1 .056-.018c.01 0 .018.003.026.01s.015.02.021.038H.65z"/></symbol><use xlink:href="#j" transform="matrix(14.37668 0 0 -14.37668 213.68 19.626)" fill="#333"/><use xlink:href="#j" transform="matrix(14.37668 0 0 -14.37668 224.06 19.626)" fill="#333"/><use xlink:href="#m" transform="matrix(14.37668 0 0 -14.37668 234.061 19.409)" fill="#333"/><use xlink:href="#g" transform="matrix(14.37668 0 0 -14.37668 244.252 19.409)" fill="#333"/><use xlink:href="#n" transform="matrix(14.37668 0 0 -14.37668 248.21 19.409)" fill="#333"/><use xlink:href="#o" transform="matrix(14.37668 0 0 -14.37668 255.68 19.409)" fill="#333"/><use xlink:href="#p" transform="matrix(14.37668 0 0 -14.37668 266.53 19.633)" fill="#333"/><path d="M317.454 1.08H461.22v28.752H317.454z" fill="#f5f5f5"/><path fill="none" stroke="#666" d="M317.454 1.08H461.22v28.752H317.454z" stroke-width=".72005"/><path d="M360.136 6.47h57.506v15.814h-57.506z" fill="#f5f5f5"/><symbol id="q"><path d="M.252.624V.352h.02C.3.352.324.356.342.365A.111.111 0 0 1 .39.41a.2.2 0 0 1 .026.084h.017V.162H.416C.409.224.392.266.365.286a.153.153 0 0 1-.094.03H.252V.113C.252.08.254.058.258.05A.053.053 0 0 1 .28.027.091.091 0 0 1 .324.018h.022V0H0v.018h.022c.02 0 .035.003.046.01a.044.044 0 0 1 .02.024.201.201 0 0 1 .005.061V.55a.218.218 0 0 1-.005.063.048.048 0 0 1-.022.022.085.085 0 0 1-.044.01H0v.018h.559v-.19h-.02a.175.175 0 0 1-.036.1.152.152 0 0 1-.08.045.526.526 0 0 1-.109.007H.252z"/></symbol><symbol id="r"><path d="M.346.018V0H0v.018h.022c.02 0 .035.003.046.01a.044.044 0 0 1 .02.024.201.201 0 0 1 .005.061V.55a.218.218 0 0 1-.005.063.048.048 0 0 1-.022.022.085.085 0 0 1-.044.01H0v.018h.346V.644H.324a.092.092 0 0 1-.046-.01.047.047 0 0 1-.02-.024A.201.201 0 0 1 .252.55V.113C.252.08.254.058.258.05A.053.053 0 0 1 .28.027.091.091 0 0 1 .324.018h.022z"/></symbol><use xlink:href="#q" transform="matrix(14.37668 0 0 -14.37668 360.391 19.409)" fill="#333"/><use xlink:href="#j" transform="matrix(14.37668 0 0 -14.37668 369.421 19.626)" fill="#333"/><use xlink:href="#r" transform="matrix(14.37668 0 0 -14.37668 379.52 19.409)" fill="#333"/><use xlink:href="#g" transform="matrix(14.37668 0 0 -14.37668 384.825 19.409)" fill="#333"/><use xlink:href="#n" transform="matrix(14.37668 0 0 -14.37668 388.784 19.409)" fill="#333"/><use xlink:href="#o" transform="matrix(14.37668 0 0 -14.37668 396.249 19.409)" fill="#333"/><use xlink:href="#p" transform="matrix(14.37668 0 0 -14.37668 407.099 19.633)" fill="#333"/><path d="M461.22 1.08h143.764v28.752H461.219z" fill="#f5f5f5"/><path fill="none" stroke="#666" d="M461.22 1.08h143.764v28.752H461.219z" stroke-width=".72005"/><path d="M503.184 6.47h58.944v15.814h-58.944z" fill="#f5f5f5"/><use xlink:href="#j" transform="matrix(14.37668 0 0 -14.37668 503.606 19.626)" fill="#333"/><use xlink:href="#j" transform="matrix(14.37668 0 0 -14.37668 513.986 19.626)" fill="#333"/><use xlink:href="#r" transform="matrix(14.37668 0 0 -14.37668 524.085 19.409)" fill="#333"/><use xlink:href="#g" transform="matrix(14.37668 0 0 -14.37668 529.39 19.409)" fill="#333"/><use xlink:href="#n" transform="matrix(14.37668 0 0 -14.37668 533.35 19.409)" fill="#333"/><use xlink:href="#o" transform="matrix(14.37668 0 0 -14.37668 540.819 19.409)" fill="#333"/><use xlink:href="#p" transform="matrix(14.37668 0 0 -14.37668 551.669 19.633)" fill="#333"/><path d="M29.918 1.08h143.765v28.752H29.918z" fill="#f5f5f5"/><path fill="none" stroke="#666" d="M29.918 1.08h143.765v28.752H29.918z" stroke-width=".72005"/><path d="M69.008 6.47h64.695v15.814H69.008z" fill="#f5f5f5"/><symbol id="s"><path d="M.595.662v-.18H.577a.28.28 0 0 1-.035.09.133.133 0 0 1-.052.043.167.167 0 0 1-.065.009H.376v-.51C.376.078.378.057.381.05A.053.053 0 0 1 .403.027.092.092 0 0 1 .448.018H.47V0H.124v.018h.022c.019 0 .034.003.046.01a.047.047 0 0 1 .02.024.201.201 0 0 1 .005.061v.511H.17C.125.624.092.614.072.596A.187.187 0 0 1 .02.483H0v.18h.595z"/></symbol><symbol id="t"><path d="M.187.457V.353a.33.33 0 0 0 .08.094.117.117 0 0 0 .065.023.057.057 0 0 0 .043-.017C.387.443.392.426.392.406A.074.074 0 0 0 .376.355.049.049 0 0 0 .338.337a.066.066 0 0 0-.045.017.274.274 0 0 1-.022.018.021.021 0 0 1-.012.003.041.041 0 0 1-.027-.01.101.101 0 0 1-.03-.048.332.332 0 0 1-.015-.105V.08C.187.062.188.05.19.044a.04.04 0 0 1 .018-.02.107.107 0 0 1 .039-.006V0H0v.018c.02.001.033.007.04.016.007.01.01.034.01.073V.36a.19.19 0 0 1-.003.05.04.04 0 0 1-.014.02A.075.075 0 0 1 0 .438v.019h.187z"/></symbol><symbol id="u"><path d="M.382.258h-.25A.236.236 0 0 1 .18.115a.102.102 0 0 1 .08-.04C.28.074.299.08.315.09a.21.21 0 0 1 .051.06L.382.138A.279.279 0 0 0 .3.03.178.178 0 0 0 .196 0a.173.173 0 0 0-.154.078A.276.276 0 0 0 0 .234c0 .077.02.137.062.182a.19.19 0 0 0 .145.068.156.156 0 0 0 .12-.057C.36.389.379.333.382.258m-.12.033a.438.438 0 0 1-.01.108.087.087 0 0 1-.025.044.04.04 0 0 1-.028.01C.182.452.17.442.158.426a.214.214 0 0 1-.03-.119V.291h.134z"/></symbol><use xlink:href="#s" transform="matrix(14.37668 0 0 -14.37668 69.46 19.409)" fill="#333"/><use xlink:href="#t" transform="matrix(14.37668 0 0 -14.37668 77.99 19.409)" fill="#333"/><use xlink:href="#l" transform="matrix(14.37668 0 0 -14.37668 84.288 19.605)" fill="#333"/><use xlink:href="#u" transform="matrix(14.37668 0 0 -14.37668 92.394 19.605)" fill="#333"/><use xlink:href="#g" transform="matrix(14.37668 0 0 -14.37668 98.223 19.409)" fill="#333"/><use xlink:href="#m" transform="matrix(14.37668 0 0 -14.37668 102.006 19.409)" fill="#333"/><use xlink:href="#j" transform="matrix(14.37668 0 0 -14.37668 112.765 19.626)" fill="#333"/><use xlink:href="#p" transform="matrix(14.37668 0 0 -14.37668 123.16 19.633)" fill="#333"/><path d="M82.41 56.84a13.318 13.318 0 0 1-1.017 5.11 13.318 13.318 0 0 1-2.894 4.33 13.318 13.318 0 0 1-4.33 2.894 13.319 13.319 0 0 1-5.11 1.016 13.318 13.318 0 0 1-5.108-1.016 13.318 13.318 0 0 1-4.331-2.894 13.318 13.318 0 0 1-2.894-4.33 13.318 13.318 0 0 1-1.016-5.11 13.318 13.318 0 0 1 1.016-5.108A13.319 13.319 0 0 1 59.62 47.4a13.318 13.318 0 0 1 4.331-2.894 13.318 13.318 0 0 1 5.109-1.016 13.318 13.318 0 0 1 5.108 1.016 13.317 13.317 0 0 1 4.331 2.894 13.317 13.317 0 0 1 2.894 4.33 13.318 13.318 0 0 1 1.017 5.11z" fill="#fff"/><path fill="none" stroke="#000" d="M82.41 56.84a13.318 13.318 0 0 1-1.017 5.11 13.318 13.318 0 0 1-2.894 4.33 13.318 13.318 0 0 1-4.33 2.894 13.319 13.319 0 0 1-5.11 1.016 13.318 13.318 0 0 1-5.108-1.016 13.318 13.318 0 0 1-4.331-2.894 13.318 13.318 0 0 1-2.894-4.33 13.318 13.318 0 0 1-1.016-5.11 13.318 13.318 0 0 1 1.016-5.108A13.319 13.319 0 0 1 59.62 47.4a13.318 13.318 0 0 1 4.331-2.894 13.318 13.318 0 0 1 5.109-1.016 13.318 13.318 0 0 1 5.108 1.016 13.317 13.317 0 0 1 4.331 2.894 13.317 13.317 0 0 1 2.894 4.33 13.318 13.318 0 0 1 1.017 5.11z" stroke-width=".72005"/><symbol id="v"><path d="m.416.388.182-.27A.426.426 0 0 1 .663.034.094.094 0 0 1 .708.018V0H.386v.018C.41.02.428.024.436.03a.026.026 0 0 1 .01.021.034.034 0 0 1-.003.016.496.496 0 0 1-.034.055L.313.265.21.14C.181.104.166.078.166.065c0-.01.004-.018.012-.026A.068.068 0 0 1 .212.02.188.188 0 0 1 .254.018V0H0v.018a.162.162 0 0 1 .068.024.53.53 0 0 1 .092.093l.131.16-.168.248-.048.068A.09.09 0 0 1 .05.634a.11.11 0 0 1-.035.01v.018h.329V.644H.326C.307.644.294.641.286.634a.027.027 0 0 1-.01-.022c0-.007 0-.013.003-.018L.312.543.396.418l.07.085C.5.547.517.578.517.596A.042.042 0 0 1 .51.62.048.048 0 0 1 .49.638a.114.114 0 0 1-.044.006v.018h.243V.644A.137.137 0 0 1 .642.637.118.118 0 0 1 .604.612 1.122 1.122 0 0 1 .541.54L.416.388z"/></symbol><use xlink:href="#v" transform="matrix(11.50134 0 0 -11.50134 62.168 59.663)"/><symbol id="w"><path d="M.26.676V.134A.34.34 0 0 1 .265.056.05.05 0 0 1 .288.03a.106.106 0 0 1 .054-.01h.015V0H.01v.018h.017c.029 0 .049.003.06.01a.05.05 0 0 1 .025.027.297.297 0 0 1 .007.08v.343c0 .03-.002.05-.005.057a.04.04 0 0 1-.016.02.046.046 0 0 1-.028.007.157.157 0 0 1-.06-.015L0 .564l.244.112H.26z"/></symbol><use xlink:href="#w" transform="matrix(9.58205 0 0 -9.58205 71.032 62.673)"/><path d="M82.41 123.51a13.318 13.318 0 0 1-1.017 5.108 13.317 13.317 0 0 1-2.894 4.331 13.317 13.317 0 0 1-4.33 2.894 13.318 13.318 0 0 1-5.11 1.017 13.318 13.318 0 0 1-5.108-1.017 13.318 13.318 0 0 1-4.331-2.894 13.318 13.318 0 0 1-2.894-4.33 13.318 13.318 0 0 1-1.016-5.11 13.318 13.318 0 0 1 1.016-5.108 13.318 13.318 0 0 1 2.894-4.331 13.318 13.318 0 0 1 4.331-2.894 13.316 13.316 0 0 1 5.109-1.016 13.317 13.317 0 0 1 5.108 1.016 13.317 13.317 0 0 1 4.331 2.894 13.316 13.316 0 0 1 2.894 4.331 13.317 13.317 0 0 1 1.017 5.109z" fill="#fff"/><path fill="none" stroke="#000" d="M82.41 123.51a13.318 13.318 0 0 1-1.017 5.108 13.317 13.317 0 0 1-2.894 4.331 13.317 13.317 0 0 1-4.33 2.894 13.318 13.318 0 0 1-5.11 1.017 13.318 13.318 0 0 1-5.108-1.017 13.318 13.318 0 0 1-4.331-2.894 13.318 13.318 0 0 1-2.894-4.33 13.318 13.318 0 0 1-1.016-5.11 13.318 13.318 0 0 1 1.016-5.108 13.318 13.318 0 0 1 2.894-4.331 13.318 13.318 0 0 1 4.331-2.894 13.316 13.316 0 0 1 5.109-1.016 13.317 13.317 0 0 1 5.108 1.016 13.317 13.317 0 0 1 4.331 2.894 13.316 13.316 0 0 1 2.894 4.331 13.317 13.317 0 0 1 1.017 5.109z" stroke-width=".72005"/><use xlink:href="#v" transform="matrix(11.50134 0 0 -11.50134 62.168 125.796)"/><symbol id="x"><path d="M.39 0H0v.01C.12.154.192.25.217.299a.31.31 0 0 1 .039.144c0 .034-.01.062-.032.085A.102.102 0 0 1 .146.56C.096.561.057.536.03.486L.012.492a.27.27 0 0 0 .08.139c.036.03.077.045.124.045A.183.183 0 0 0 .308.652.17.17 0 0 0 .373.588.153.153 0 0 0 .396.512.276.276 0 0 0 .36.38 1.251 1.251 0 0 0 .145.128h.143c.035 0 .058.001.068.004.01.003.02.008.026.015A.2.2 0 0 1 .41.191h.018L.39 0z"/></symbol><use xlink:href="#x" transform="matrix(9.58205 0 0 -9.58205 70.635 128.806)"/><path stroke-miterlimit="10" fill="none" stroke="#000" d="M69.06 70.19v35.39" stroke-width=".72005"/><path d="m69.06 109.354-2.513-5.034 2.513 1.26 2.513-1.26-2.513 5.034z"/><path stroke-miterlimit="10" fill="none" stroke="#000" d="m69.06 109.354-2.513-5.034 2.513 1.26 2.513-1.26-2.513 5.034z" stroke-width=".72005"/><path d="M149.158 56.84a13.32 13.32 0 0 1-1.016 5.11 13.318 13.318 0 0 1-2.894 4.33 13.318 13.318 0 0 1-4.331 2.894 13.319 13.319 0 0 1-5.109 1.016 13.318 13.318 0 0 1-5.109-1.016 13.319 13.319 0 0 1-4.33-2.894 13.318 13.318 0 0 1-2.894-4.33 13.318 13.318 0 0 1-1.017-5.11 13.317 13.317 0 0 1 1.017-5.108 13.318 13.318 0 0 1 2.893-4.331 13.319 13.319 0 0 1 4.331-2.894 13.318 13.318 0 0 1 5.11-1.016 13.318 13.318 0 0 1 5.108 1.016 13.318 13.318 0 0 1 4.33 2.894 13.319 13.319 0 0 1 2.895 4.33 13.319 13.319 0 0 1 1.016 5.11z" fill="#fff"/><path fill="none" stroke="#000" d="M149.158 56.84a13.32 13.32 0 0 1-1.016 5.11 13.318 13.318 0 0 1-2.894 4.33 13.318 13.318 0 0 1-4.331 2.894 13.319 13.319 0 0 1-5.109 1.016 13.318 13.318 0 0 1-5.109-1.016 13.319 13.319 0 0 1-4.33-2.894 13.318 13.318 0 0 1-2.894-4.33 13.318 13.318 0 0 1-1.017-5.11 13.317 13.317 0 0 1 1.017-5.108 13.318 13.318 0 0 1 2.893-4.331 13.319 13.319 0 0 1 4.331-2.894 13.318 13.318 0 0 1 5.11-1.016 13.318 13.318 0 0 1 5.108 1.016 13.318 13.318 0 0 1 4.33 2.894 13.319 13.319 0 0 1 2.895 4.33 13.319 13.319 0 0 1 1.016 5.11z" stroke-width=".72005"/><use xlink:href="#v" transform="matrix(11.50134 0 0 -11.50134 129.02 59.663)"/><symbol id="y"><path d="m0 .25.314.426h.06V.25h.06V.148h-.06V0H.24v.148H0V.25m.047 0H.24v.26L.047.25z"/></symbol><use xlink:href="#y" transform="matrix(9.58205 0 0 -9.58205 137.49 62.673)"/><path d="M149.158 123.51a13.32 13.32 0 0 1-1.016 5.108 13.318 13.318 0 0 1-2.894 4.331 13.317 13.317 0 0 1-4.331 2.894 13.318 13.318 0 0 1-5.109 1.017 13.318 13.318 0 0 1-5.109-1.017 13.319 13.319 0 0 1-4.33-2.894 13.318 13.318 0 0 1-2.894-4.33 13.318 13.318 0 0 1-1.017-5.11 13.317 13.317 0 0 1 1.017-5.108 13.317 13.317 0 0 1 2.893-4.331 13.319 13.319 0 0 1 4.331-2.894 13.317 13.317 0 0 1 5.11-1.016 13.317 13.317 0 0 1 5.108 1.016 13.318 13.318 0 0 1 4.33 2.894 13.318 13.318 0 0 1 2.895 4.331 13.319 13.319 0 0 1 1.016 5.109z" fill="#fff"/><path fill="none" stroke="#000" d="M149.158 123.51a13.32 13.32 0 0 1-1.016 5.108 13.318 13.318 0 0 1-2.894 4.331 13.317 13.317 0 0 1-4.331 2.894 13.318 13.318 0 0 1-5.109 1.017 13.318 13.318 0 0 1-5.109-1.017 13.319 13.319 0 0 1-4.33-2.894 13.318 13.318 0 0 1-2.894-4.33 13.318 13.318 0 0 1-1.017-5.11 13.317 13.317 0 0 1 1.017-5.108 13.317 13.317 0 0 1 2.893-4.331 13.319 13.319 0 0 1 4.331-2.894 13.317 13.317 0 0 1 5.11-1.016 13.317 13.317 0 0 1 5.108 1.016 13.318 13.318 0 0 1 4.33 2.894 13.318 13.318 0 0 1 2.895 4.331 13.319 13.319 0 0 1 1.016 5.109z" stroke-width=".72005"/><use xlink:href="#v" transform="matrix(11.50134 0 0 -11.50134 129.02 125.796)"/><symbol id="z"><path d="M.132.346v.017c.037.011.063.021.077.03.014.01.027.024.037.043a.12.12 0 0 1 .016.058c0 .027-.01.05-.03.069a.1.1 0 0 1-.073.03C.113.592.074.567.042.52L.024.526a.294.294 0 0 0 .09.123.2.2 0 0 0 .123.04A.158.158 0 0 0 .35.649.13.13 0 0 0 .374.479a.179.179 0 0 0-.065-.06.228.228 0 0 0 .087-.068.166.166 0 0 0 .03-.102.236.236 0 0 0-.075-.177.276.276 0 0 0-.2-.072C.093 0 .053.01.027.028A.06.06 0 0 0 0 .078c0 .015.005.028.016.038.01.011.023.016.037.016.011 0 .021-.002.03-.007A.61.61 0 0 0 .14.083a.146.146 0 0 1 .089-.04c.024 0 .045.01.062.03.017.018.026.043.026.072a.188.188 0 0 1-.047.123.245.245 0 0 1-.137.078z"/></symbol><use xlink:href="#z" transform="matrix(9.58205 0 0 -9.58205 137.407 128.942)"/><path stroke-miterlimit="10" fill="none" stroke="#000" d="M135.808 70.19v35.39" stroke-width=".72005"/><path d="m135.808 109.354-2.513-5.034 2.513 1.26 2.52-1.26-2.52 5.034z"/><path stroke-miterlimit="10" fill="none" stroke="#000" d="m135.808 109.354-2.513-5.034 2.513 1.26 2.52-1.26-2.52 5.034zM78.5 114.07c15.956-7.546 30.532-8.199 43.728-1.959" stroke-width=".72005"/><path d="m125.641 113.724-5.623.123 2.21-1.736-.058-2.815 3.471 4.428z"/><path stroke-miterlimit="10" fill="none" stroke="#000" d="m125.641 113.724-5.623.123 2.21-1.736-.058-2.815 3.471 4.428zM126.368 132.95c-13.35 7.45-27.89 8.018-43.62 1.706" stroke-width=".72005"/><path d="m79.248 133.245 5.602-.461-2.102 1.872.23 2.801-3.73-4.212z"/><path stroke-miterlimit="10" fill="none" stroke="#000" d="m79.248 133.245 5.602-.461-2.102 1.872.23 2.801-3.73-4.212z" stroke-width=".72005"/><path d="M99.662 178.32a13.318 13.318 0 0 1-1.016 5.108 13.32 13.32 0 0 1-2.894 4.331 13.317 13.317 0 0 1-4.331 2.894 13.319 13.319 0 0 1-5.109 1.017 13.32 13.32 0 0 1-5.109-1.017 13.317 13.317 0 0 1-4.33-2.894 13.317 13.317 0 0 1-2.895-4.33 13.318 13.318 0 0 1-1.016-5.11 13.317 13.317 0 0 1 1.016-5.108 13.318 13.318 0 0 1 2.894-4.331 13.319 13.319 0 0 1 4.331-2.894 13.317 13.317 0 0 1 5.11-1.016 13.317 13.317 0 0 1 5.108 1.016 13.319 13.319 0 0 1 4.33 2.894 13.318 13.318 0 0 1 2.895 4.331 13.318 13.318 0 0 1 1.016 5.109z" fill="#fff"/><path fill="none" stroke="#000" d="M99.662 178.32a13.318 13.318 0 0 1-1.016 5.108 13.32 13.32 0 0 1-2.894 4.331 13.317 13.317 0 0 1-4.331 2.894 13.319 13.319 0 0 1-5.109 1.017 13.32 13.32 0 0 1-5.109-1.017 13.317 13.317 0 0 1-4.33-2.894 13.317 13.317 0 0 1-2.895-4.33 13.318 13.318 0 0 1-1.016-5.11 13.317 13.317 0 0 1 1.016-5.108 13.318 13.318 0 0 1 2.894-4.331 13.319 13.319 0 0 1 4.331-2.894 13.317 13.317 0 0 1 5.11-1.016 13.317 13.317 0 0 1 5.108 1.016 13.319 13.319 0 0 1 4.33 2.894 13.318 13.318 0 0 1 2.895 4.331 13.318 13.318 0 0 1 1.016 5.109z" stroke-width=".72005"/><use xlink:href="#v" transform="matrix(11.50134 0 0 -11.50134 79.42 181.146)"/><use xlink:href="#w" transform="matrix(9.58205 0 0 -9.58205 88.284 184.156)"/><path d="M99.662 244.989a13.317 13.317 0 0 1-1.016 5.109 13.32 13.32 0 0 1-2.894 4.33 13.317 13.317 0 0 1-4.331 2.895 13.32 13.32 0 0 1-5.109 1.016 13.317 13.317 0 0 1-5.109-1.016 13.32 13.32 0 0 1-4.33-2.894 13.32 13.32 0 0 1-2.895-4.331 13.318 13.318 0 0 1-1.016-5.11 13.317 13.317 0 0 1 1.016-5.108 13.316 13.316 0 0 1 2.894-4.33 13.316 13.316 0 0 1 4.331-2.895 13.319 13.319 0 0 1 5.11-1.016 13.317 13.317 0 0 1 5.108 1.016 13.317 13.317 0 0 1 4.33 2.894 13.319 13.319 0 0 1 2.895 4.331 13.318 13.318 0 0 1 1.016 5.109z" fill="#fff"/><path fill="none" stroke="#000" d="M99.662 244.989a13.317 13.317 0 0 1-1.016 5.109 13.32 13.32 0 0 1-2.894 4.33 13.317 13.317 0 0 1-4.331 2.895 13.32 13.32 0 0 1-5.109 1.016 13.317 13.317 0 0 1-5.109-1.016 13.32 13.32 0 0 1-4.33-2.894 13.32 13.32 0 0 1-2.895-4.331 13.318 13.318 0 0 1-1.016-5.11 13.317 13.317 0 0 1 1.016-5.108 13.316 13.316 0 0 1 2.894-4.33 13.316 13.316 0 0 1 4.331-2.895 13.319 13.319 0 0 1 5.11-1.016 13.317 13.317 0 0 1 5.108 1.016 13.317 13.317 0 0 1 4.33 2.894 13.319 13.319 0 0 1 2.895 4.331 13.318 13.318 0 0 1 1.016 5.109z" stroke-width=".72005"/><use xlink:href="#v" transform="matrix(11.50134 0 0 -11.50134 79.42 247.279)"/><use xlink:href="#x" transform="matrix(9.58205 0 0 -9.58205 87.887 250.289)"/><path d="M166.41 178.32a13.318 13.318 0 0 1-1.016 5.108 13.319 13.319 0 0 1-2.894 4.331 13.319 13.319 0 0 1-4.33 2.894 13.319 13.319 0 0 1-5.11 1.017 13.32 13.32 0 0 1-5.108-1.017 13.316 13.316 0 0 1-4.331-2.894 13.317 13.317 0 0 1-2.894-4.33 13.318 13.318 0 0 1-1.016-5.11 13.318 13.318 0 0 1 1.016-5.108 13.316 13.316 0 0 1 2.894-4.331 13.318 13.318 0 0 1 4.33-2.894 13.317 13.317 0 0 1 5.11-1.016 13.317 13.317 0 0 1 5.108 1.016 13.318 13.318 0 0 1 4.331 2.894 13.319 13.319 0 0 1 2.894 4.331 13.317 13.317 0 0 1 1.016 5.109z" fill="#fff"/><path fill="none" stroke="#000" d="M166.41 178.32a13.318 13.318 0 0 1-1.016 5.108 13.319 13.319 0 0 1-2.894 4.331 13.319 13.319 0 0 1-4.33 2.894 13.319 13.319 0 0 1-5.11 1.017 13.32 13.32 0 0 1-5.108-1.017 13.316 13.316 0 0 1-4.331-2.894 13.317 13.317 0 0 1-2.894-4.33 13.318 13.318 0 0 1-1.016-5.11 13.318 13.318 0 0 1 1.016-5.108 13.316 13.316 0 0 1 2.894-4.331 13.318 13.318 0 0 1 4.33-2.894 13.317 13.317 0 0 1 5.11-1.016 13.317 13.317 0 0 1 5.108 1.016 13.318 13.318 0 0 1 4.331 2.894 13.319 13.319 0 0 1 2.894 4.331 13.317 13.317 0 0 1 1.016 5.109z" stroke-width=".72005"/><use xlink:href="#v" transform="matrix(11.50134 0 0 -11.50134 146.271 181.146)"/><use xlink:href="#y" transform="matrix(9.58205 0 0 -9.58205 154.743 184.156)"/><path d="M166.41 244.989a13.317 13.317 0 0 1-1.016 5.109 13.32 13.32 0 0 1-2.894 4.33 13.319 13.319 0 0 1-4.33 2.895 13.32 13.32 0 0 1-5.11 1.016 13.316 13.316 0 0 1-5.108-1.016 13.32 13.32 0 0 1-4.331-2.894 13.32 13.32 0 0 1-2.894-4.331 13.318 13.318 0 0 1-1.016-5.11 13.318 13.318 0 0 1 1.016-5.108 13.314 13.314 0 0 1 2.894-4.33 13.315 13.315 0 0 1 4.33-2.895 13.319 13.319 0 0 1 5.11-1.016 13.317 13.317 0 0 1 5.108 1.016 13.317 13.317 0 0 1 4.331 2.894 13.319 13.319 0 0 1 2.894 4.331 13.317 13.317 0 0 1 1.016 5.109z" fill="#fff"/><path fill="none" stroke="#000" d="M166.41 244.989a13.317 13.317 0 0 1-1.016 5.109 13.32 13.32 0 0 1-2.894 4.33 13.319 13.319 0 0 1-4.33 2.895 13.32 13.32 0 0 1-5.11 1.016 13.316 13.316 0 0 1-5.108-1.016 13.32 13.32 0 0 1-4.331-2.894 13.32 13.32 0 0 1-2.894-4.331 13.318 13.318 0 0 1-1.016-5.11 13.318 13.318 0 0 1 1.016-5.108 13.314 13.314 0 0 1 2.894-4.33 13.315 13.315 0 0 1 4.33-2.895 13.319 13.319 0 0 1 5.11-1.016 13.317 13.317 0 0 1 5.108 1.016 13.317 13.317 0 0 1 4.331 2.894 13.319 13.319 0 0 1 2.894 4.331 13.317 13.317 0 0 1 1.016 5.109z" stroke-width=".72005"/><use xlink:href="#v" transform="matrix(11.50134 0 0 -11.50134 146.271 247.279)"/><use xlink:href="#z" transform="matrix(9.58205 0 0 -9.58205 154.659 250.425)"/><path stroke-miterlimit="10" fill="none" stroke="#000" d="M153.06 191.67v35.39" stroke-width=".72005"/><path d="m153.06 230.84-2.512-5.033 2.512 1.253 2.513-1.253-2.513 5.033z"/><path stroke-miterlimit="10" fill="none" stroke="#000" d="m153.06 230.84-2.512-5.033 2.512 1.253 2.513-1.253-2.513 5.033zM95.752 235.55c15.956-7.547 30.532-8.2 43.728-1.96" stroke-width=".72005"/><path d="m142.893 235.203-5.623.13 2.21-1.742-.057-2.809 3.47 4.421z"/><path stroke-miterlimit="10" fill="none" stroke="#000" d="m142.893 235.203-5.623.13 2.21-1.742-.057-2.809 3.47 4.421zM143.62 254.429c-13.349 7.455-27.89 8.023-43.62 1.706" stroke-width=".72005"/><path d="m96.5 254.731 5.603-.46-2.103 1.864.23 2.801-3.73-4.205z"/><path stroke-miterlimit="10" fill="none" stroke="#000" d="m96.5 254.731 5.603-.46-2.103 1.864.23 2.801-3.73-4.205z" stroke-width=".72005"/><path d="M63.717 212.104a13.317 13.317 0 0 1-1.016 5.11 13.317 13.317 0 0 1-2.894 4.33 13.316 13.316 0 0 1-4.331 2.894 13.32 13.32 0 0 1-5.109 1.016 13.32 13.32 0 0 1-5.108-1.016 13.317 13.317 0 0 1-4.331-2.894 13.319 13.319 0 0 1-2.894-4.33 13.317 13.317 0 0 1-1.016-5.11 13.318 13.318 0 0 1 1.016-5.108 13.317 13.317 0 0 1 2.894-4.331 13.32 13.32 0 0 1 4.33-2.894 13.317 13.317 0 0 1 5.11-1.016 13.316 13.316 0 0 1 5.108 1.016 13.32 13.32 0 0 1 4.331 2.894 13.318 13.318 0 0 1 2.894 4.33 13.318 13.318 0 0 1 1.016 5.11z" fill="#f5f5f5"/><path fill="none" stroke="#000" d="M63.717 212.104a13.317 13.317 0 0 1-1.016 5.11 13.317 13.317 0 0 1-2.894 4.33 13.316 13.316 0 0 1-4.331 2.894 13.32 13.32 0 0 1-5.109 1.016 13.32 13.32 0 0 1-5.108-1.016 13.317 13.317 0 0 1-4.331-2.894 13.319 13.319 0 0 1-2.894-4.33 13.317 13.317 0 0 1-1.016-5.11 13.318 13.318 0 0 1 1.016-5.108 13.317 13.317 0 0 1 2.894-4.331 13.32 13.32 0 0 1 4.33-2.894 13.317 13.317 0 0 1 5.11-1.016 13.316 13.316 0 0 1 5.108 1.016 13.32 13.32 0 0 1 4.331 2.894 13.318 13.318 0 0 1 2.894 4.33 13.318 13.318 0 0 1 1.016 5.11z" stroke-width=".72005"/><use xlink:href="#i" transform="matrix(11.50134 0 0 -11.50134 43.939 214.931)"/><use xlink:href="#w" transform="matrix(9.58205 0 0 -9.58205 52.028 217.941)"/><path d="m59.57 202.401 1.62-1.422.475.54-1.62 1.423m2.766-3.386 1.62-1.422.476.54-1.62 1.423m2.766-3.386 1.62-1.423.475.542-1.62 1.422m2.766-3.386 1.62-1.423.476.542-1.62 1.422m2.766-3.386.34-.299.475.541-.34.299"/><path d="m75.95 188.508-2.124 5.206-.712-2.721-2.607-1.059 5.444-1.426z"/><path stroke-miterlimit="10" fill="none" stroke="#000" d="m75.95 188.508-2.124 5.206-.712-2.721-2.607-1.059 5.444-1.426z" stroke-width=".72005"/><path d="m60.045 221.274 1.617 1.427-.476.54-1.617-1.427m3.71 2.314 1.618 1.426-.477.54-1.617-1.426m3.71 2.313 1.618 1.427-.477.54-1.617-1.427m3.71 2.314 1.618 1.426-.477.54-1.617-1.426m3.71 2.313.155.136-.477.54-.153-.136"/><path d="m75.735 235.592-5.444-1.447 2.607-1.051.727-2.722 2.11 5.22z"/><path stroke-miterlimit="10" fill="none" stroke="#000" d="m75.735 235.592-5.444-1.447 2.607-1.051.727-2.722 2.11 5.22z" stroke-width=".72005"/><path d="M227.053 111.73a17.183 17.183 0 0 1-2.032 8.109 17.198 17.198 0 0 1-15.17 9.093 17.192 17.192 0 0 1-10.913-3.905 17.197 17.197 0 0 1-6.206-14.983 17.2 17.2 0 0 1 23.701-14.207 17.192 17.192 0 0 1 8.588 7.784 17.187 17.187 0 0 1 2.032 8.109z" fill="#fff"/><path fill="none" stroke="#000" d="M227.053 111.73a17.183 17.183 0 0 1-2.032 8.109 17.198 17.198 0 0 1-15.17 9.093 17.192 17.192 0 0 1-10.913-3.905 17.197 17.197 0 0 1-6.206-14.983 17.2 17.2 0 0 1 23.701-14.207 17.192 17.192 0 0 1 8.588 7.784 17.187 17.187 0 0 1 2.032 8.109z" stroke-width=".72005"/><use xlink:href="#v" transform="matrix(12.939 0 0 -12.939 202.62 114.295)"/><use xlink:href="#w" transform="matrix(10.7825 0 0 -10.7825 212.587 117.597)"/><path d="M227.053 183.137a17.182 17.182 0 0 1-2.032 8.109 17.197 17.197 0 0 1-13.484 9.01 17.192 17.192 0 0 1-11.243-2.816 17.192 17.192 0 0 1-7.315-10.947 17.198 17.198 0 0 1 7.315-17.659 17.199 17.199 0 0 1 21.72 2.14 17.195 17.195 0 0 1 5.039 12.163z" fill="#fff"/><path fill="none" stroke="#000" d="M227.053 183.137a17.182 17.182 0 0 1-2.032 8.109 17.197 17.197 0 0 1-13.484 9.01 17.192 17.192 0 0 1-11.243-2.816 17.192 17.192 0 0 1-7.315-10.947 17.198 17.198 0 0 1 7.315-17.659 17.199 17.199 0 0 1 21.72 2.14 17.195 17.195 0 0 1 5.039 12.163z" stroke-width=".72005"/><use xlink:href="#v" transform="matrix(12.939 0 0 -12.939 202.62 185.46)"/><use xlink:href="#x" transform="matrix(10.7825 0 0 -10.7825 212.14 188.761)"/><path d="M302.29 183.137a17.191 17.191 0 0 1-3.904 10.913 17.198 17.198 0 0 1-16.654 5.958 17.2 17.2 0 0 1-8.807-29.035 17.199 17.199 0 0 1 21.72-2.139 17.182 17.182 0 0 1 5.614 6.194 17.192 17.192 0 0 1 2.031 8.109z" fill="#fff"/><path fill="none" stroke="#000" d="M302.29 183.137a17.191 17.191 0 0 1-3.904 10.913 17.198 17.198 0 0 1-16.654 5.958 17.2 17.2 0 0 1-8.807-29.035 17.199 17.199 0 0 1 21.72-2.139 17.182 17.182 0 0 1 5.614 6.194 17.192 17.192 0 0 1 2.031 8.109z" stroke-width=".72005"/><use xlink:href="#v" transform="matrix(12.939 0 0 -12.939 277.379 185.46)"/><use xlink:href="#z" transform="matrix(10.7825 0 0 -10.7825 286.809 188.914)"/><path d="M302.29 111.73a17.192 17.192 0 0 1-3.904 10.913 17.2 17.2 0 0 1-22.855 3.39 17.194 17.194 0 0 1-7.314-10.947 17.194 17.194 0 0 1 1.7-11.465 17.19 17.19 0 0 1 8.588-7.784 17.194 17.194 0 0 1 13.166 0 17.193 17.193 0 0 1 9.31 9.31 17.183 17.183 0 0 1 1.31 6.583z" fill="#fff"/><path fill="none" stroke="#000" d="M302.29 111.73a17.192 17.192 0 0 1-3.904 10.913 17.2 17.2 0 0 1-22.855 3.39 17.194 17.194 0 0 1-7.314-10.947 17.194 17.194 0 0 1 1.7-11.465 17.19 17.19 0 0 1 8.588-7.784 17.194 17.194 0 0 1 13.166 0 17.193 17.193 0 0 1 9.31 9.31 17.183 17.183 0 0 1 1.31 6.583z" stroke-width=".72005"/><use xlink:href="#v" transform="matrix(12.939 0 0 -12.939 277.379 114.295)"/><use xlink:href="#y" transform="matrix(10.7825 0 0 -10.7825 286.904 117.597)"/><path stroke-miterlimit="10" fill="none" stroke="#000" d="M209.85 128.932v32.423" stroke-width=".72005"/><path d="m209.85 165.128-2.512-5.033 2.513 1.26 2.513-1.26-2.513 5.033z"/><path stroke-miterlimit="10" fill="none" stroke="#000" d="m209.85 165.128-2.512-5.033 2.513 1.26 2.513-1.26-2.513 5.033zM285.088 128.932v32.423" stroke-width=".72005"/><path d="m285.088 165.128-2.513-5.033 2.513 1.26 2.513-1.26-2.513 5.033z"/><path stroke-miterlimit="10" fill="none" stroke="#000" d="m285.088 165.128-2.513-5.033 2.513 1.26 2.513-1.26-2.513 5.033zM227.053 183.137h40.833M222.012 123.891l47.552 43.974" stroke-width=".72005"/><path d="m272.336 170.42-5.407-1.562 2.635-.993.785-2.708 1.987 5.264z"/><path stroke-miterlimit="10" fill="none" stroke="#000" d="m272.336 170.42-5.407-1.562 2.635-.993.785-2.708 1.987 5.264zM272.927 123.891l-47.552 43.974" stroke-width=".72005"/><path d="m222.603 170.42 1.987-5.263.785 2.708 2.628.993-5.4 1.563z"/><path stroke-miterlimit="10" fill="none" stroke="#000" d="m222.603 170.42 1.987-5.263.785 2.708 2.628.993-5.4 1.563z" stroke-width=".72005"/><path d="M200.778 191.1h1.078v1.08h-1.078m4.313-1.08h1.078v1.08h-1.078m4.313-1.08h1.078v1.08h-1.078m4.313-1.08h1.078v1.08h-1.078m4.313-1.08h1.078v1.08h-1.078M276.016 191.82h1.078v1.08h-1.078m4.313-1.08h1.078v1.08h-1.078m4.313-1.08h1.078v1.08h-1.078m4.313-1.08h1.078v1.08h-1.078m4.313-1.08h1.078v1.08h-1.078"/><path d="M368.837 112.378a17.185 17.185 0 0 1-2.899 9.557 17.175 17.175 0 0 1-6.194 5.614 17.196 17.196 0 0 1-16.218 0 17.196 17.196 0 0 1-9.01-13.485 17.192 17.192 0 0 1 2.816-11.243 17.19 17.19 0 0 1 7.72-6.336 17.193 17.193 0 0 1 13.166 0 17.196 17.196 0 0 1 10.288 12.537 17.19 17.19 0 0 1 .331 3.356z" fill="#fff"/><path fill="none" stroke="#000" d="M368.837 112.378a17.185 17.185 0 0 1-2.899 9.557 17.175 17.175 0 0 1-6.194 5.614 17.196 17.196 0 0 1-16.218 0 17.196 17.196 0 0 1-9.01-13.485 17.192 17.192 0 0 1 2.816-11.243 17.19 17.19 0 0 1 7.72-6.336 17.193 17.193 0 0 1 13.166 0 17.196 17.196 0 0 1 10.288 12.537 17.19 17.19 0 0 1 .331 3.356z" stroke-width=".72005"/><use xlink:href="#v" transform="matrix(12.939 0 0 -12.939 344.23 115.013)"/><use xlink:href="#w" transform="matrix(10.7825 0 0 -10.7825 354.197 118.316)"/><path d="M368.837 183.778a17.186 17.186 0 0 1-2.899 9.557 17.18 17.18 0 0 1-6.194 5.613 17.184 17.184 0 0 1-9.795 1.949 17.18 17.18 0 0 1-7.87-2.816 17.195 17.195 0 0 1-7.563-12.617 17.192 17.192 0 0 1 2.816-11.243 17.193 17.193 0 0 1 9.31-6.905 17.193 17.193 0 0 1 13.102 1.291 17.195 17.195 0 0 1 8.762 11.815 17.19 17.19 0 0 1 .331 3.356z" fill="#fff"/><path fill="none" stroke="#000" d="M368.837 183.778a17.186 17.186 0 0 1-2.899 9.557 17.18 17.18 0 0 1-6.194 5.613 17.184 17.184 0 0 1-9.795 1.949 17.18 17.18 0 0 1-7.87-2.816 17.195 17.195 0 0 1-7.563-12.617 17.192 17.192 0 0 1 2.816-11.243 17.193 17.193 0 0 1 9.31-6.905 17.193 17.193 0 0 1 13.102 1.291 17.195 17.195 0 0 1 8.762 11.815 17.19 17.19 0 0 1 .331 3.356z" stroke-width=".72005"/><use xlink:href="#v" transform="matrix(12.939 0 0 -12.939 344.23 186.178)"/><use xlink:href="#x" transform="matrix(10.7825 0 0 -10.7825 353.75 189.48)"/><path d="M444.075 183.778a17.157 17.157 0 0 1-.74 4.993 17.204 17.204 0 0 1-28.626 7.17 17.183 17.183 0 0 1-4.707-8.807 17.185 17.185 0 0 1 .41-8.35 17.194 17.194 0 0 1 9.878-10.899 17.2 17.2 0 0 1 23.044 10.9 17.18 17.18 0 0 1 .74 4.993z" fill="#fff"/><path fill="none" stroke="#000" d="M444.075 183.778a17.157 17.157 0 0 1-.74 4.993 17.204 17.204 0 0 1-28.626 7.17 17.183 17.183 0 0 1-4.707-8.807 17.185 17.185 0 0 1 .41-8.35 17.194 17.194 0 0 1 9.878-10.899 17.2 17.2 0 0 1 23.044 10.9 17.18 17.18 0 0 1 .74 4.993z" stroke-width=".72005"/><use xlink:href="#v" transform="matrix(12.939 0 0 -12.939 418.989 186.178)"/><use xlink:href="#z" transform="matrix(10.7825 0 0 -10.7825 428.419 189.633)"/><path d="M444.075 112.378a17.156 17.156 0 0 1-.74 4.993 17.203 17.203 0 1 1 .74-4.993z" fill="#fff"/><path fill="none" stroke="#000" d="M444.075 112.378a17.156 17.156 0 0 1-.74 4.993 17.203 17.203 0 1 1 .74-4.993z" stroke-width=".72005"/><use xlink:href="#v" transform="matrix(12.939 0 0 -12.939 418.989 115.013)"/><use xlink:href="#y" transform="matrix(10.7825 0 0 -10.7825 428.514 118.316)"/><path stroke-miterlimit="10" fill="none" stroke="#000" d="M351.635 135.326v26.677" stroke-width=".72005"/><path d="m351.635 165.777-2.52-5.034 2.52 1.26 2.513-1.26-2.513 5.034z"/><path stroke-miterlimit="10" fill="none" stroke="#000" d="m351.635 165.777-2.52-5.034 2.52 1.26 2.513-1.26-2.513 5.034zM426.873 135.42v26.583" stroke-width=".72005"/><path d="m426.873 165.777-2.52-5.034 2.52 1.26 2.513-1.26-2.513 5.034z"/><path stroke-miterlimit="10" fill="none" stroke="#000" d="m426.873 165.777-2.52-5.034 2.52 1.26 2.513-1.26-2.513 5.034zM368.837 183.778h40.834M368.283 128.19l43.08 40.301" stroke-width=".72005"/><path d="m414.12 171.069-5.392-1.599 2.635-.979.8-2.7 1.958 5.278z"/><path stroke-miterlimit="10" fill="none" stroke="#000" d="m414.12 171.069-5.392-1.599 2.635-.979.8-2.7 1.958 5.278zM410.218 128.19l-43.08 40.301" stroke-width=".72005"/><path d="m364.38 171.069 1.959-5.278.799 2.7 2.635.98-5.393 1.598z"/><path stroke-miterlimit="10" fill="none" stroke="#000" d="m364.38 171.069 1.959-5.278.799 2.7 2.635.98-5.393 1.598z" stroke-width=".72005"/><path d="M516.195 112.378a17.188 17.188 0 0 1-2.9 9.557 17.185 17.185 0 0 1-7.72 6.335 17.187 17.187 0 0 1-9.938.98 17.188 17.188 0 0 1-8.808-4.709 17.193 17.193 0 0 1-5.038-12.163 17.185 17.185 0 0 1 2.031-8.11 17.207 17.207 0 0 1 13.485-9.01 17.198 17.198 0 0 1 16.857 9.01 17.192 17.192 0 0 1 2.03 8.11z" fill="#fff"/><path fill="none" stroke="#000" d="M516.195 112.378a17.188 17.188 0 0 1-2.9 9.557 17.185 17.185 0 0 1-7.72 6.335 17.187 17.187 0 0 1-9.938.98 17.188 17.188 0 0 1-8.808-4.709 17.193 17.193 0 0 1-5.038-12.163 17.185 17.185 0 0 1 2.031-8.11 17.207 17.207 0 0 1 13.485-9.01 17.198 17.198 0 0 1 16.857 9.01 17.192 17.192 0 0 1 2.03 8.11z" stroke-width=".72005"/><use xlink:href="#v" transform="matrix(12.939 0 0 -12.939 491.591 115.013)"/><use xlink:href="#w" transform="matrix(10.7825 0 0 -10.7825 501.558 118.316)"/><path d="M516.195 183.778a17.188 17.188 0 0 1-3.905 10.912 17.171 17.171 0 0 1-5.188 4.258 17.181 17.181 0 0 1-8.11 2.032 17.189 17.189 0 0 1-9.556-2.9 17.195 17.195 0 0 1-7.562-12.616 17.185 17.185 0 0 1 1.948-9.795A17.209 17.209 0 0 1 494 167.316a17.188 17.188 0 0 1 9.987 0 17.19 17.19 0 0 1 9.31 6.905 17.203 17.203 0 0 1 2.899 9.557z" fill="#fff"/><path fill="none" stroke="#000" d="M516.195 183.778a17.188 17.188 0 0 1-3.905 10.912 17.171 17.171 0 0 1-5.188 4.258 17.181 17.181 0 0 1-8.11 2.032 17.189 17.189 0 0 1-9.556-2.9 17.195 17.195 0 0 1-7.562-12.616 17.185 17.185 0 0 1 1.948-9.795A17.209 17.209 0 0 1 494 167.316a17.188 17.188 0 0 1 9.987 0 17.19 17.19 0 0 1 9.31 6.905 17.203 17.203 0 0 1 2.899 9.557z" stroke-width=".72005"/><use xlink:href="#v" transform="matrix(12.939 0 0 -12.939 491.591 186.178)"/><use xlink:href="#x" transform="matrix(10.7825 0 0 -10.7825 501.11 189.48)"/><path d="M591.433 183.778a17.186 17.186 0 0 1-2.9 9.557 17.218 17.218 0 0 1-6.193 5.613 17.171 17.171 0 0 1-6.423 1.949 17.188 17.188 0 0 1-9.795-1.949 17.192 17.192 0 0 1-8.353-10.177 17.185 17.185 0 0 1 0-9.987 17.209 17.209 0 0 1 9.879-10.899 17.205 17.205 0 0 1 20.885 6.336 17.18 17.18 0 0 1 2.817 7.87c.055.561.083 1.123.083 1.687z" fill="#fff"/><path fill="none" stroke="#000" d="M591.433 183.778a17.186 17.186 0 0 1-2.9 9.557 17.218 17.218 0 0 1-6.193 5.613 17.171 17.171 0 0 1-6.423 1.949 17.188 17.188 0 0 1-9.795-1.949 17.192 17.192 0 0 1-8.353-10.177 17.185 17.185 0 0 1 0-9.987 17.209 17.209 0 0 1 9.879-10.899 17.205 17.205 0 0 1 20.885 6.336 17.18 17.18 0 0 1 2.817 7.87c.055.561.083 1.123.083 1.687z" stroke-width=".72005"/><use xlink:href="#v" transform="matrix(12.939 0 0 -12.939 566.35 186.178)"/><use xlink:href="#z" transform="matrix(10.7825 0 0 -10.7825 575.78 189.633)"/><path d="M591.433 112.378a17.185 17.185 0 0 1-2.9 9.557 17.212 17.212 0 0 1-9.309 6.904 17.19 17.19 0 0 1-9.987 0 17.196 17.196 0 0 1-11.468-11.468 17.188 17.188 0 0 1 .57-11.576 17.215 17.215 0 0 1 7.783-8.588 17.207 17.207 0 0 1 17.665.868 17.18 17.18 0 0 1 5.614 6.194 17.183 17.183 0 0 1 2.032 8.109z" fill="#fff"/><path fill="none" stroke="#000" d="M591.433 112.378a17.185 17.185 0 0 1-2.9 9.557 17.212 17.212 0 0 1-9.309 6.904 17.19 17.19 0 0 1-9.987 0 17.196 17.196 0 0 1-11.468-11.468 17.188 17.188 0 0 1 .57-11.576 17.215 17.215 0 0 1 7.783-8.588 17.207 17.207 0 0 1 17.665.868 17.18 17.18 0 0 1 5.614 6.194 17.183 17.183 0 0 1 2.032 8.109z" stroke-width=".72005"/><use xlink:href="#v" transform="matrix(12.939 0 0 -12.939 566.35 115.013)"/><use xlink:href="#y" transform="matrix(10.7825 0 0 -10.7825 575.875 118.316)"/><path stroke-miterlimit="10" fill="none" stroke="#000" d="M498.993 129.58v32.423" stroke-width=".72005"/><path d="m498.993 165.777-2.513-5.034 2.513 1.26 2.52-1.26-2.52 5.034z"/><path stroke-miterlimit="10" fill="none" stroke="#000" d="m498.993 165.777-2.513-5.034 2.513 1.26 2.52-1.26-2.52 5.034zM574.23 135.42v26.583" stroke-width=".72005"/><path d="m574.23 165.777-2.512-5.034 2.513 1.26 2.52-1.26-2.52 5.034z"/><path stroke-miterlimit="10" fill="none" stroke="#000" d="m574.23 165.777-2.512-5.034 2.513 1.26 2.52-1.26-2.52 5.034zM516.195 183.778h40.834M515.352 128.737 558.7 168.52" stroke-width=".72005"/><path d="m561.479 171.076-5.408-1.555 2.628-1.001.77-2.7 2.01 5.256z"/><path stroke-miterlimit="10" fill="none" stroke="#000" d="m561.479 171.076-5.408-1.555 2.628-1.001.77-2.7 2.01 5.256zM557.871 128.737l-43.34 39.783" stroke-width=".72005"/><path d="m511.752 171.076 2.002-5.256.777 2.7 2.629 1-5.408 1.556z"/><path stroke-miterlimit="10" fill="none" stroke="#000" d="m511.752 171.076 2.002-5.256.777 2.7 2.629 1-5.408 1.556z" stroke-width=".72005"/><path d="M374.873 183.662c0 .382-.073.749-.219 1.1a2.85 2.85 0 0 1-.623.934c-.27.27-.58.477-.933.623a2.848 2.848 0 0 1-1.1.219c-.381 0-.748-.073-1.1-.22a2.847 2.847 0 0 1-.933-.622c-.27-.27-.478-.58-.623-.933a2.848 2.848 0 0 1-.22-1.1c0-.382.074-.749.22-1.1.145-.353.353-.664.623-.934s.58-.477.933-.623a2.848 2.848 0 0 1 1.1-.219c.381 0 .748.073 1.1.219.353.146.664.354.933.623.27.27.478.58.623.933.146.352.22.72.22 1.1z" fill="#fff"/><path fill="none" stroke="#000" d="M374.873 183.662c0 .382-.073.749-.219 1.1a2.85 2.85 0 0 1-.623.934c-.27.27-.58.477-.933.623a2.848 2.848 0 0 1-1.1.219c-.381 0-.748-.073-1.1-.22a2.847 2.847 0 0 1-.933-.622c-.27-.27-.478-.58-.623-.933a2.848 2.848 0 0 1-.22-1.1c0-.382.074-.749.22-1.1.145-.353.353-.664.623-.934s.58-.477.933-.623a2.848 2.848 0 0 1 1.1-.219c.381 0 .748.073 1.1.219.353.146.664.354.933.623.27.27.478.58.623.933.146.352.22.72.22 1.1z" stroke-width=".72005"/><path d="M409.378 183.662c0 .382-.073.749-.219 1.1a2.847 2.847 0 0 1-.623.934c-.27.27-.58.477-.933.623a2.848 2.848 0 0 1-1.1.219c-.382 0-.748-.073-1.1-.22a2.848 2.848 0 0 1-.933-.622c-.27-.27-.478-.58-.624-.933a2.849 2.849 0 0 1-.219-1.1c0-.382.073-.749.22-1.1.145-.353.353-.664.623-.934s.58-.477.932-.623c.353-.146.72-.219 1.1-.219.382 0 .749.073 1.101.219.352.146.663.354.933.623.27.27.477.58.623.933.146.352.219.72.22 1.1z" fill="#fff"/><path fill="none" stroke="#000" d="M409.378 183.662c0 .382-.073.749-.219 1.1a2.847 2.847 0 0 1-.623.934c-.27.27-.58.477-.933.623a2.848 2.848 0 0 1-1.1.219c-.382 0-.748-.073-1.1-.22a2.848 2.848 0 0 1-.933-.622c-.27-.27-.478-.58-.624-.933a2.849 2.849 0 0 1-.219-1.1c0-.382.073-.749.22-1.1.145-.353.353-.664.623-.934s.58-.477.932-.623c.353-.146.72-.219 1.1-.219.382 0 .749.073 1.101.219.352.146.663.354.933.623.27.27.477.58.623.933.146.352.219.72.22 1.1z" stroke-width=".72005"/><path d="M369.12 126.16c0 .38-.073.748-.219 1.1a2.849 2.849 0 0 1-.623.933c-.27.27-.58.477-.933.623a2.848 2.848 0 0 1-1.1.219c-.381 0-.748-.073-1.1-.219a2.848 2.848 0 0 1-.933-.623c-.27-.27-.478-.58-.624-.933a2.848 2.848 0 0 1-.218-1.1c0-.382.073-.749.218-1.1.146-.353.354-.664.624-.934s.58-.477.933-.623c.352-.146.719-.219 1.1-.219.381 0 .748.073 1.1.219.353.146.663.354.933.623.27.27.477.58.623.933.146.352.22.72.22 1.1z" fill="#fff"/><path fill="none" stroke="#000" d="M369.12 126.16c0 .38-.073.748-.219 1.1a2.849 2.849 0 0 1-.623.933c-.27.27-.58.477-.933.623a2.848 2.848 0 0 1-1.1.219c-.381 0-.748-.073-1.1-.219a2.848 2.848 0 0 1-.933-.623c-.27-.27-.478-.58-.624-.933a2.848 2.848 0 0 1-.218-1.1c0-.382.073-.749.218-1.1.146-.353.354-.664.624-.934s.58-.477.933-.623c.352-.146.719-.219 1.1-.219.381 0 .748.073 1.1.219.353.146.663.354.933.623.27.27.477.58.623.933.146.352.22.72.22 1.1z" stroke-width=".72005"/><path d="M415.124 126.16c0 .38-.073.748-.219 1.1a2.85 2.85 0 0 1-.623.933c-.27.27-.58.477-.933.623a2.848 2.848 0 0 1-1.1.219c-.382 0-.748-.073-1.1-.219a2.848 2.848 0 0 1-.933-.623c-.27-.27-.478-.58-.624-.933a2.848 2.848 0 0 1-.219-1.1c0-.382.073-.749.22-1.1.145-.353.353-.664.623-.934s.58-.477.932-.623c.353-.146.72-.219 1.1-.219.382 0 .749.073 1.101.219.352.146.663.354.933.623.27.27.477.58.623.933.146.352.219.72.22 1.1z" fill="#fff"/><path fill="none" stroke="#000" d="M415.124 126.16c0 .38-.073.748-.219 1.1a2.85 2.85 0 0 1-.623.933c-.27.27-.58.477-.933.623a2.848 2.848 0 0 1-1.1.219c-.382 0-.748-.073-1.1-.219a2.848 2.848 0 0 1-.933-.623c-.27-.27-.478-.58-.624-.933a2.848 2.848 0 0 1-.219-1.1c0-.382.073-.749.22-1.1.145-.353.353-.664.623-.934s.58-.477.932-.623c.353-.146.72-.219 1.1-.219.382 0 .749.073 1.101.219.352.146.663.354.933.623.27.27.477.58.623.933.146.352.219.72.22 1.1z" stroke-width=".72005"/><path d="M429.748 132.546c0 .382-.073.748-.219 1.1a2.848 2.848 0 0 1-.623.933c-.27.27-.58.478-.933.624-.352.146-.719.219-1.1.219-.381 0-.748-.073-1.1-.22a2.848 2.848 0 0 1-.933-.623 2.85 2.85 0 0 1-.624-.932 2.847 2.847 0 0 1-.218-1.1c0-.382.072-.749.218-1.101.146-.352.354-.663.624-.933s.58-.477.932-.623c.353-.146.72-.219 1.1-.219.382 0 .749.073 1.101.219.352.146.663.354.933.623.27.27.477.58.623.933.146.352.22.719.22 1.1z" fill="#fff"/><path fill="none" stroke="#000" d="M429.748 132.546c0 .382-.073.748-.219 1.1a2.848 2.848 0 0 1-.623.933c-.27.27-.58.478-.933.624-.352.146-.719.219-1.1.219-.381 0-.748-.073-1.1-.22a2.848 2.848 0 0 1-.933-.623 2.85 2.85 0 0 1-.624-.932 2.847 2.847 0 0 1-.218-1.1c0-.382.072-.749.218-1.101.146-.352.354-.663.624-.933s.58-.477.932-.623c.353-.146.72-.219 1.1-.219.382 0 .749.073 1.101.219.352.146.663.354.933.623.27.27.477.58.623.933.146.352.22.719.22 1.1z" stroke-width=".72005"/><path d="M354.51 132.453c0 .381-.072.748-.218 1.1a2.848 2.848 0 0 1-.624.933c-.27.27-.58.477-.933.623a2.848 2.848 0 0 1-1.1.22c-.381-.001-.748-.074-1.1-.22a2.847 2.847 0 0 1-.933-.623c-.27-.27-.477-.58-.623-.933a2.847 2.847 0 0 1-.22-1.1c0-.382.074-.748.22-1.1.146-.353.353-.664.623-.933.27-.27.58-.478.933-.624.352-.146.719-.219 1.1-.219.381 0 .748.073 1.1.22.353.145.664.353.933.623.27.27.478.58.624.932.146.353.218.72.218 1.1z" fill="#fff"/><path fill="none" stroke="#000" d="M354.51 132.453c0 .381-.072.748-.218 1.1a2.848 2.848 0 0 1-.624.933c-.27.27-.58.477-.933.623a2.848 2.848 0 0 1-1.1.22c-.381-.001-.748-.074-1.1-.22a2.847 2.847 0 0 1-.933-.623c-.27-.27-.477-.58-.623-.933a2.847 2.847 0 0 1-.22-1.1c0-.382.074-.748.22-1.1.146-.353.353-.664.623-.933.27-.27.58-.478.933-.624.352-.146.719-.219 1.1-.219.381 0 .748.073 1.1.22.353.145.664.353.933.623.27.27.478.58.624.932.146.353.218.72.218 1.1z" stroke-width=".72005"/><path d="M501.868 133.266c0 .382-.073.748-.219 1.1a2.85 2.85 0 0 1-.623.934c-.27.27-.58.477-.933.623a2.848 2.848 0 0 1-1.1.219c-.381 0-.748-.073-1.1-.22a2.848 2.848 0 0 1-.933-.622c-.27-.27-.478-.581-.624-.933a2.848 2.848 0 0 1-.219-1.1c0-.382.073-.749.22-1.101.145-.352.353-.663.623-.933s.58-.477.932-.623c.353-.146.72-.219 1.1-.219.382 0 .749.073 1.101.219.352.146.663.354.933.623.27.27.477.58.623.933.146.352.22.72.22 1.1z" fill="#fff"/><path fill="none" stroke="#000" d="M501.868 133.266c0 .382-.073.748-.219 1.1a2.85 2.85 0 0 1-.623.934c-.27.27-.58.477-.933.623a2.848 2.848 0 0 1-1.1.219c-.381 0-.748-.073-1.1-.22a2.848 2.848 0 0 1-.933-.622c-.27-.27-.478-.581-.624-.933a2.848 2.848 0 0 1-.219-1.1c0-.382.073-.749.22-1.101.145-.352.353-.663.623-.933s.58-.477.932-.623c.353-.146.72-.219 1.1-.219.382 0 .749.073 1.101.219.352.146.663.354.933.623.27.27.477.58.623.933.146.352.22.72.22 1.1z" stroke-width=".72005"/><path d="M577.106 132.546c0 .382-.073.748-.219 1.1a2.85 2.85 0 0 1-.623.933c-.27.27-.58.478-.933.624a2.848 2.848 0 0 1-1.1.219c-.382 0-.749-.073-1.1-.22a2.848 2.848 0 0 1-.934-.623c-.27-.27-.477-.58-.623-.932a2.848 2.848 0 0 1-.219-1.1c0-.382.073-.749.22-1.101.145-.352.353-.663.622-.933.27-.27.58-.477.933-.623.352-.146.72-.219 1.1-.219.382 0 .749.073 1.1.219.353.146.664.354.934.623.27.27.477.58.623.933.146.352.219.719.219 1.1z" fill="#fff"/><path fill="none" stroke="#000" d="M577.106 132.546c0 .382-.073.748-.219 1.1a2.85 2.85 0 0 1-.623.933c-.27.27-.58.478-.933.624a2.848 2.848 0 0 1-1.1.219c-.382 0-.749-.073-1.1-.22a2.848 2.848 0 0 1-.934-.623c-.27-.27-.477-.58-.623-.932a2.848 2.848 0 0 1-.219-1.1c0-.382.073-.749.22-1.101.145-.352.353-.663.622-.933.27-.27.58-.477.933-.623.352-.146.72-.219 1.1-.219.382 0 .749.073 1.1.219.353.146.664.354.934.623.27.27.477.58.623.933.146.352.219.719.219 1.1z" stroke-width=".72005"/><path d="M562.784 126.7c0 .38-.073.748-.219 1.1a2.849 2.849 0 0 1-.623.933c-.27.27-.58.477-.933.623a2.847 2.847 0 0 1-1.1.219c-.381 0-.748-.073-1.1-.219a2.848 2.848 0 0 1-.933-.623c-.27-.27-.478-.58-.624-.933a2.847 2.847 0 0 1-.219-1.1c0-.382.073-.749.22-1.1.145-.353.353-.664.623-.934s.58-.477.932-.623c.353-.146.72-.219 1.1-.219.382 0 .749.073 1.101.22.352.145.663.353.933.622.27.27.477.58.623.933.146.352.22.72.22 1.1z" fill="#fff"/><path fill="none" stroke="#000" d="M562.784 126.7c0 .38-.073.748-.219 1.1a2.849 2.849 0 0 1-.623.933c-.27.27-.58.477-.933.623a2.847 2.847 0 0 1-1.1.219c-.381 0-.748-.073-1.1-.219a2.848 2.848 0 0 1-.933-.623c-.27-.27-.478-.58-.624-.933a2.847 2.847 0 0 1-.219-1.1c0-.382.073-.749.22-1.1.145-.353.353-.664.623-.934s.58-.477.932-.623c.353-.146.72-.219 1.1-.219.382 0 .749.073 1.101.22.352.145.663.353.933.622.27.27.477.58.623.933.146.352.22.72.22 1.1z" stroke-width=".72005"/><path d="M516.197 126.7c0 .38-.073.748-.219 1.1a2.848 2.848 0 0 1-.623.933c-.27.27-.58.477-.933.623a2.848 2.848 0 0 1-1.1.219c-.382 0-.748-.073-1.1-.219a2.848 2.848 0 0 1-.933-.623c-.27-.27-.478-.58-.624-.933a2.847 2.847 0 0 1-.219-1.1c0-.382.073-.749.22-1.1.145-.353.353-.664.623-.934s.58-.477.932-.623a2.848 2.848 0 0 1 1.1-.219c.382 0 .749.073 1.101.22.352.145.663.353.933.622.27.27.477.58.623.933.146.352.22.72.22 1.1z" fill="#fff"/><path fill="none" stroke="#000" d="M516.197 126.7c0 .38-.073.748-.219 1.1a2.848 2.848 0 0 1-.623.933c-.27.27-.58.477-.933.623a2.848 2.848 0 0 1-1.1.219c-.382 0-.748-.073-1.1-.219a2.848 2.848 0 0 1-.933-.623c-.27-.27-.478-.58-.624-.933a2.847 2.847 0 0 1-.219-1.1c0-.382.073-.749.22-1.1.145-.353.353-.664.623-.934s.58-.477.932-.623a2.848 2.848 0 0 1 1.1-.219c.382 0 .749.073 1.101.22.352.145.663.353.933.622.27.27.477.58.623.933.146.352.22.72.22 1.1z" stroke-width=".72005"/><path stroke-miterlimit="10" fill="none" stroke="#666" d="m1.483 152.412 172.113-.381M1.08 276.39l603.817-.72" stroke-width=".72005"/></g></svg>