<svg xmlns="http://www.w3.org/2000/svg" xmlns:xlink="http://www.w3.org/1999/xlink" width="797.44" height="273.28" viewBox="0 0 598.08 204.96"><clipPath id="a"><path transform="scale(.24)" d="M0 0h2491.667v845.548H0z" fill-rule="evenodd"/></clipPath><g clip-path="url(#a)"><path stroke-miterlimit="10" fill="none" stroke="#000" d="m29.05 70.177.022 20.566-.021 20.495" stroke-width=".71961"/><path d="m29.044 66.413 2.518 5.016-2.511-1.252-2.512 1.26 2.505-5.024z"/><path stroke-miterlimit="10" fill="none" stroke="#000" d="m29.044 66.413 2.518 5.016-2.511-1.252-2.512 1.26 2.505-5.024z" stroke-width=".71961"/><path d="m29.044 115.002-2.505-5.023 2.512 1.26 2.511-1.253-2.518 5.016z"/><path stroke-miterlimit="10" fill="none" stroke="#000" d="m29.044 115.002-2.505-5.023 2.512 1.26 2.511-1.253-2.518 5.016z" stroke-width=".71961"/><path d="M129.43 51.273a14.306 14.306 0 0 1-1.093 5.488 14.307 14.307 0 0 1-3.108 4.652 14.307 14.307 0 0 1-4.653 3.109 14.307 14.307 0 0 1-5.488 1.092 14.306 14.306 0 0 1-5.488-1.092 14.306 14.306 0 0 1-4.653-3.109 14.307 14.307 0 0 1-3.108-4.652 14.306 14.306 0 0 1-1.092-5.488 14.307 14.307 0 0 1 1.092-5.489 14.307 14.307 0 0 1 3.108-4.652 14.307 14.307 0 0 1 4.653-3.109 14.306 14.306 0 0 1 5.488-1.092 14.307 14.307 0 0 1 5.488 1.092 14.307 14.307 0 0 1 4.653 3.109 14.307 14.307 0 0 1 3.108 4.652 14.308 14.308 0 0 1 1.092 5.489z" fill="#fff"/><path fill="none" stroke="#000" d="M129.43 51.273a14.306 14.306 0 0 1-1.093 5.488 14.307 14.307 0 0 1-3.108 4.652 14.307 14.307 0 0 1-4.653 3.109 14.307 14.307 0 0 1-5.488 1.092 14.306 14.306 0 0 1-5.488-1.092 14.306 14.306 0 0 1-4.653-3.109 14.307 14.307 0 0 1-3.108-4.652 14.306 14.306 0 0 1-1.092-5.488 14.307 14.307 0 0 1 1.092-5.489 14.307 14.307 0 0 1 3.108-4.652 14.307 14.307 0 0 1 4.653-3.109 14.306 14.306 0 0 1 5.488-1.092 14.307 14.307 0 0 1 5.488 1.092 14.307 14.307 0 0 1 4.653 3.109 14.307 14.307 0 0 1 3.108 4.652 14.308 14.308 0 0 1 1.092 5.489z" stroke-width=".71961"/><symbol id="b"><path d="m.416.388.182-.27A.426.426 0 0 1 .663.034.094.094 0 0 1 .708.018V0H.386v.018C.41.02.428.024.436.03a.026.026 0 0 1 .01.021.034.034 0 0 1-.003.016.496.496 0 0 1-.034.055L.313.265.21.14C.181.104.166.078.166.065c0-.01.004-.018.012-.026A.068.068 0 0 1 .212.02.188.188 0 0 1 .254.018V0H0v.018a.162.162 0 0 1 .068.024.53.53 0 0 1 .092.093l.131.16-.168.248-.048.068A.09.09 0 0 1 .05.634a.11.11 0 0 1-.035.01v.018h.329V.644H.326C.307.644.294.641.286.634a.027.027 0 0 1-.01-.022c0-.007 0-.013.003-.018L.312.543.396.418l.07.085C.5.547.517.578.517.596A.042.042 0 0 1 .51.62.048.048 0 0 1 .49.638a.114.114 0 0 1-.044.006v.018h.243V.644A.137.137 0 0 1 .642.637.118.118 0 0 1 .604.612 1.122 1.122 0 0 1 .541.54L.416.388z"/></symbol><use xlink:href="#b" transform="matrix(11.47286 0 0 -11.47286 108.264 53.779)"/><symbol id="c"><path d="M.119.676h.31L.379.55H.12L.094.484A.413.413 0 0 0 .353.4.201.201 0 0 0 .428.24C.428.2.416.16.393.122a.233.233 0 0 0-.098-.09A.307.307 0 0 0 .157 0a.216.216 0 0 0-.124.03c-.02.015-.03.03-.03.05 0 .013.005.025.015.036.01.011.023.016.037.016A.103.103 0 0 0 .094.125.41.41 0 0 0 .16.083.24.24 0 0 1 .21.055.094.094 0 0 1 .247.05c.027 0 .05.01.068.03.019.02.028.043.028.07 0 .057-.028.104-.086.14A.402.402 0 0 1 .04.342H0l.119.334z"/></symbol><use xlink:href="#c" transform="matrix(9.55833 0 0 -9.55833 116.798 56.912)"/><path stroke-miterlimit="10" fill="none" stroke="#000" d="M115.088 65.614v45.624" stroke-width=".71961"/><path d="m115.088 115.002-2.511-5.016 2.511 1.252 2.511-1.252-2.511 5.016z"/><path stroke-miterlimit="10" fill="none" stroke="#000" d="m115.088 115.002-2.511-5.016 2.511 1.252 2.511-1.252-2.511 5.016z" stroke-width=".71961"/><path d="M43.385 51.273a14.306 14.306 0 0 1-1.092 5.488 14.307 14.307 0 0 1-3.109 4.652 14.307 14.307 0 0 1-4.652 3.109 14.307 14.307 0 0 1-5.488 1.092 14.306 14.306 0 0 1-5.488-1.092 14.306 14.306 0 0 1-4.653-3.109 14.307 14.307 0 0 1-3.109-4.652 14.307 14.307 0 0 1-1.091-5.488 14.307 14.307 0 0 1 1.091-5.489 14.307 14.307 0 0 1 3.109-4.652 14.307 14.307 0 0 1 4.653-3.109 14.306 14.306 0 0 1 5.488-1.092 14.307 14.307 0 0 1 5.488 1.092 14.307 14.307 0 0 1 4.652 3.109 14.307 14.307 0 0 1 3.11 4.652 14.306 14.306 0 0 1 1.09 5.489z" fill="#fff"/><path fill="none" stroke="#000" d="M43.385 51.273a14.306 14.306 0 0 1-1.092 5.488 14.307 14.307 0 0 1-3.109 4.652 14.307 14.307 0 0 1-4.652 3.109 14.307 14.307 0 0 1-5.488 1.092 14.306 14.306 0 0 1-5.488-1.092 14.306 14.306 0 0 1-4.653-3.109 14.307 14.307 0 0 1-3.109-4.652 14.307 14.307 0 0 1-1.091-5.488 14.307 14.307 0 0 1 1.091-5.489 14.307 14.307 0 0 1 3.109-4.652 14.307 14.307 0 0 1 4.653-3.109 14.306 14.306 0 0 1 5.488-1.092 14.307 14.307 0 0 1 5.488 1.092 14.307 14.307 0 0 1 4.652 3.109 14.307 14.307 0 0 1 3.11 4.652 14.306 14.306 0 0 1 1.09 5.489z" stroke-width=".71961"/><use xlink:href="#b" transform="matrix(11.47286 0 0 -11.47286 22.217 53.779)"/><symbol id="d"><path d="M.26.676V.134A.34.34 0 0 1 .265.056.05.05 0 0 1 .288.03a.106.106 0 0 1 .054-.01h.015V0H.01v.018h.017c.029 0 .049.003.06.01a.05.05 0 0 1 .025.027.297.297 0 0 1 .007.08v.343c0 .03-.002.05-.005.057a.04.04 0 0 1-.016.02.046.046 0 0 1-.028.007.157.157 0 0 1-.06-.015L0 .564l.244.112H.26z"/></symbol><use xlink:href="#d" transform="matrix(9.55833 0 0 -9.55833 31.06 56.782)"/><path d="M43.385 130.15a14.306 14.306 0 0 1-1.092 5.488 14.306 14.306 0 0 1-3.109 4.652 14.306 14.306 0 0 1-4.652 3.109 14.306 14.306 0 0 1-5.488 1.092 14.307 14.307 0 0 1-5.488-1.092 14.306 14.306 0 0 1-4.653-3.109 14.306 14.306 0 0 1-3.109-4.652 14.307 14.307 0 0 1-1.091-5.488 14.307 14.307 0 0 1 1.091-5.489 14.307 14.307 0 0 1 3.109-4.652 14.307 14.307 0 0 1 4.653-3.109 14.306 14.306 0 0 1 5.488-1.092 14.307 14.307 0 0 1 5.488 1.092 14.307 14.307 0 0 1 4.652 3.109 14.307 14.307 0 0 1 3.11 4.652 14.306 14.306 0 0 1 1.09 5.489z" fill="#fff"/><path fill="none" stroke="#000" d="M43.385 130.15a14.306 14.306 0 0 1-1.092 5.488 14.306 14.306 0 0 1-3.109 4.652 14.306 14.306 0 0 1-4.652 3.109 14.306 14.306 0 0 1-5.488 1.092 14.307 14.307 0 0 1-5.488-1.092 14.306 14.306 0 0 1-4.653-3.109 14.306 14.306 0 0 1-3.109-4.652 14.307 14.307 0 0 1-1.091-5.488 14.307 14.307 0 0 1 1.091-5.489 14.307 14.307 0 0 1 3.109-4.652 14.307 14.307 0 0 1 4.653-3.109 14.306 14.306 0 0 1 5.488-1.092 14.307 14.307 0 0 1 5.488 1.092 14.307 14.307 0 0 1 4.652 3.109 14.307 14.307 0 0 1 3.11 4.652 14.306 14.306 0 0 1 1.09 5.489z" stroke-width=".71961"/><use xlink:href="#b" transform="matrix(11.47286 0 0 -11.47286 22.217 132.655)"/><symbol id="e"><path d="M.39 0H0v.01C.12.154.192.25.217.299a.31.31 0 0 1 .039.144c0 .034-.01.062-.032.085A.102.102 0 0 1 .146.56C.096.561.057.536.03.486L.012.492a.27.27 0 0 0 .08.139c.036.03.077.045.124.045A.183.183 0 0 0 .308.652.17.17 0 0 0 .373.588.153.153 0 0 0 .396.512.276.276 0 0 0 .36.38 1.251 1.251 0 0 0 .145.128h.143c.035 0 .058.001.068.004.01.003.02.008.026.015A.2.2 0 0 1 .41.191h.018L.39 0z"/></symbol><use xlink:href="#e" transform="matrix(9.55833 0 0 -9.55833 30.663 135.658)"/><path d="M129.43 130.15a14.306 14.306 0 0 1-1.093 5.488 14.306 14.306 0 0 1-3.108 4.652 14.306 14.306 0 0 1-4.653 3.109 14.306 14.306 0 0 1-5.488 1.092 14.308 14.308 0 0 1-5.488-1.092 14.306 14.306 0 0 1-4.653-3.109 14.306 14.306 0 0 1-3.108-4.652 14.306 14.306 0 0 1-1.092-5.488 14.307 14.307 0 0 1 1.092-5.489 14.307 14.307 0 0 1 3.108-4.652 14.307 14.307 0 0 1 4.653-3.109 14.306 14.306 0 0 1 5.488-1.092 14.307 14.307 0 0 1 5.488 1.092 14.308 14.308 0 0 1 4.653 3.109 14.307 14.307 0 0 1 3.108 4.652 14.308 14.308 0 0 1 1.092 5.489z" fill="#fff"/><path fill="none" stroke="#000" d="M129.43 130.15a14.306 14.306 0 0 1-1.093 5.488 14.306 14.306 0 0 1-3.108 4.652 14.306 14.306 0 0 1-4.653 3.109 14.306 14.306 0 0 1-5.488 1.092 14.308 14.308 0 0 1-5.488-1.092 14.306 14.306 0 0 1-4.653-3.109 14.306 14.306 0 0 1-3.108-4.652 14.306 14.306 0 0 1-1.092-5.488 14.307 14.307 0 0 1 1.092-5.489 14.307 14.307 0 0 1 3.108-4.652 14.307 14.307 0 0 1 4.653-3.109 14.306 14.306 0 0 1 5.488-1.092 14.307 14.307 0 0 1 5.488 1.092 14.308 14.308 0 0 1 4.653 3.109 14.307 14.307 0 0 1 3.108 4.652 14.308 14.308 0 0 1 1.092 5.489z" stroke-width=".71961"/><use xlink:href="#b" transform="matrix(11.47286 0 0 -11.47286 108.264 132.655)"/><symbol id="f"><path d="m0 .25.314.426h.06V.25h.06V.148h-.06V0H.24v.148H0V.25m.047 0H.24v.26L.047.25z"/></symbol><use xlink:href="#f" transform="matrix(9.55833 0 0 -9.55833 116.714 135.658)"/><path d="M86.403 187.51a14.307 14.307 0 0 1-1.091 5.488 14.307 14.307 0 0 1-3.11 4.653 14.307 14.307 0 0 1-4.652 3.108 14.306 14.306 0 0 1-5.488 1.092 14.31 14.31 0 0 1-5.488-1.092 14.307 14.307 0 0 1-4.652-3.108 14.305 14.305 0 0 1-3.11-4.653 14.306 14.306 0 0 1-1.09-5.488 14.307 14.307 0 0 1 1.09-5.488 14.305 14.305 0 0 1 3.11-4.653 14.307 14.307 0 0 1 4.652-3.108 14.305 14.305 0 0 1 5.488-1.092 14.307 14.307 0 0 1 5.488 1.092 14.307 14.307 0 0 1 4.653 3.108 14.307 14.307 0 0 1 3.109 4.653 14.307 14.307 0 0 1 1.091 5.488z" fill="#fff"/><path fill="none" stroke="#000" d="M86.403 187.51a14.307 14.307 0 0 1-1.091 5.488 14.307 14.307 0 0 1-3.11 4.653 14.307 14.307 0 0 1-4.652 3.108 14.306 14.306 0 0 1-5.488 1.092 14.31 14.31 0 0 1-5.488-1.092 14.307 14.307 0 0 1-4.652-3.108 14.305 14.305 0 0 1-3.11-4.653 14.306 14.306 0 0 1-1.09-5.488 14.307 14.307 0 0 1 1.09-5.488 14.305 14.305 0 0 1 3.11-4.653 14.307 14.307 0 0 1 4.652-3.108 14.305 14.305 0 0 1 5.488-1.092 14.307 14.307 0 0 1 5.488 1.092 14.307 14.307 0 0 1 4.653 3.108 14.307 14.307 0 0 1 3.109 4.653 14.307 14.307 0 0 1 1.091 5.488z" stroke-width=".71961"/><use xlink:href="#b" transform="matrix(11.47286 0 0 -11.47286 65.24 190.02)"/><symbol id="g"><path d="M.132.346v.017c.037.011.063.021.077.03.014.01.027.024.037.043a.12.12 0 0 1 .016.058c0 .027-.01.05-.03.069a.1.1 0 0 1-.073.03C.113.592.074.567.042.52L.024.526a.294.294 0 0 0 .09.123.2.2 0 0 0 .123.04A.158.158 0 0 0 .35.649.13.13 0 0 0 .374.479a.179.179 0 0 0-.065-.06.228.228 0 0 0 .087-.068.166.166 0 0 0 .03-.102.236.236 0 0 0-.075-.177.276.276 0 0 0-.2-.072C.093 0 .053.01.027.028A.06.06 0 0 0 0 .078c0 .015.005.028.016.038.01.011.023.016.037.016.011 0 .021-.002.03-.007A.61.61 0 0 0 .14.083a.146.146 0 0 1 .089-.04c.024 0 .045.01.062.03.017.018.026.043.026.072a.188.188 0 0 1-.047.123.245.245 0 0 1-.137.078z"/></symbol><use xlink:href="#g" transform="matrix(9.55833 0 0 -9.55833 73.607 193.157)"/><path stroke-miterlimit="10" fill="none" stroke="#000" d="m82.209 177.37 22.74-37.081M39.183 140.289l24.719 35.434M100.746 130.15h-57.36M104.949 61.412l-62.355 55.554" stroke-width=".71961"/><path d="m39.78 119.47 2.08-5.21.734 2.706 2.605 1.044-5.419 1.46z"/><path stroke-miterlimit="10" fill="none" stroke="#000" d="m39.78 119.47 2.08-5.21.734 2.706 2.605 1.044-5.419 1.46zM53.51 185.754c-54.556-22.73-66.799-62.83-36.729-120.298" stroke-width=".71961"/><path d="m56.986 187.2-5.598.39 2.123-1.836-.195-2.8 3.67 4.247z"/><path stroke-miterlimit="10" fill="none" stroke="#000" d="m56.986 187.2-5.598.39 2.123-1.836-.195-2.8 3.67 4.247z" stroke-width=".71961"/><path d="m18.53 62.124-.1 5.606-1.649-2.274-2.799-.05 4.548-3.282z"/><path stroke-miterlimit="10" fill="none" stroke="#000" d="m18.53 62.124-.1 5.606-1.649-2.274-2.799-.05 4.548-3.282zM337.377 79.95h258.14M366.06 187.51V51.273" stroke-width=".71961"/><symbol id="h"><path d="M0 .478.533.26V.22L0 0v.068L.413.24 0 .41v.068z"/></symbol><use xlink:href="#h" transform="matrix(12.18992 0 0 -12.18992 394.736 67.019)"/><symbol id="i"><path d="M.516 0H0v.06h.516V0z"/></symbol><use xlink:href="#i" transform="matrix(12.18992 0 0 -12.18992 452.18 65.662)"/><symbol id="j"><path d="m.235.677.327-.41V.55c0 .04-.006.067-.018.08C.53.652.503.66.466.66v.018h.219V.66A.164.164 0 0 1 .628.645.056.056 0 0 1 .605.617.193.193 0 0 1 .598.551V0H.58L.133.551v-.42C.133.091.142.066.16.052a.097.097 0 0 1 .06-.02h.016V.015H0v.018c.036 0 .062.008.076.023C.09.07.098.096.098.13v.468L.083.615A.129.129 0 0 1 .046.65.112.112 0 0 1 0 .66v.017h.235z"/></symbol><symbol id="k"><path d="M.444.47V.113c0-.035.003-.057.01-.066C.46.04.474.034.494.031V.014H.306v.06A.239.239 0 0 0 .242.019.152.152 0 0 0 .168 0 .11.11 0 0 0 .1.023.118.118 0 0 0 .06.08a.409.409 0 0 0-.01.11v.182C.05.406.045.427.04.436.033.444.02.45 0 .452V.47h.186V.158C.186.126.188.105.19.095A.044.044 0 0 1 .205.074.04.04 0 0 1 .23.066C.24.066.25.07.26.076a.202.202 0 0 1 .047.051v.244c0 .035-.003.056-.01.065C.291.444.278.45.257.452V.47h.187z"/></symbol><symbol id="l"><path d="M.191.662V.095c0-.033.004-.053.012-.062C.21.023.225.019.247.018V0H0v.018c.02 0 .035.006.045.017.006.008.01.027.01.06v.472C.055.6.05.62.043.628.036.638.021.643 0 .644v.018h.191z"/></symbol><use xlink:href="#j" transform="matrix(12.18992 0 0 -12.18992 498.1 68.305)"/><use xlink:href="#k" transform="matrix(12.18992 0 0 -12.18992 507.103 68.287)"/><use xlink:href="#l" transform="matrix(12.18992 0 0 -12.18992 513.761 68.12)"/><use xlink:href="#l" transform="matrix(12.18992 0 0 -12.18992 517.15 68.12)"/><use xlink:href="#h" transform="matrix(12.18992 0 0 -12.18992 348.127 97.852)"/><symbol id="m"><path d="M0 0z"/></symbol><use xlink:href="#m" transform="matrix(12.18992 0 0 -12.18992 345.261 136.957)"/><use xlink:href="#i" transform="matrix(12.18992 0 0 -12.18992 348.208 134.5)"/><use xlink:href="#m" transform="matrix(12.18992 0 0 -12.18992 354.404 136.957)"/><use xlink:href="#j" transform="matrix(12.18992 0 0 -12.18992 340.347 172.994)"/><use xlink:href="#k" transform="matrix(12.18992 0 0 -12.18992 349.351 172.977)"/><use xlink:href="#l" transform="matrix(12.18992 0 0 -12.18992 356.01 172.81)"/><use xlink:href="#l" transform="matrix(12.18992 0 0 -12.18992 359.398 172.81)"/><symbol id="n"><path d="M.45.244v-.07H.36V0H.28v.175H0v.062l.307.439h.054V.244H.45m-.17 0v.329L.048.244H.28z"/></symbol><use xlink:href="#n" transform="matrix(12.18992 0 0 -12.18992 399.052 104.69)"/><symbol id="o"><path d="M0 .339c0 .075.011.14.034.195a.273.273 0 0 0 .091.122c.03.02.06.031.09.031C.268.688.313.662.354.61A.41.41 0 0 0 .428.35.514.514 0 0 0 .395.152.26.26 0 0 0 .31.036.173.173 0 0 0 .21 0C.149 0 .096.037.054.112A.455.455 0 0 0 0 .339M.096.327c0-.091.01-.166.033-.223C.148.055.176.03.212.03.23.03.248.039.267.054a.152.152 0 0 1 .043.08.965.965 0 0 1 .023.237.648.648 0 0 1-.024.189.168.168 0 0 1-.045.08.077.077 0 0 1-.107-.014.249.249 0 0 1-.049-.128A1.185 1.185 0 0 1 .096.327z"/></symbol><use xlink:href="#o" transform="matrix(12.18992 0 0 -12.18992 453.08 104.833)"/><use xlink:href="#o" transform="matrix(12.18992 0 0 -12.18992 506.86 104.833)"/><symbol id="p"><path d="M.01.548A.268.268 0 0 0 .082.65a.162.162 0 0 0 .107.036.149.149 0 0 0 .123-.051.127.127 0 0 0 .032-.083c0-.048-.03-.098-.091-.15A.197.197 0 0 0 .345.336.177.177 0 0 0 .376.231.22.22 0 0 0 .322.082C.274.027.205 0 .115 0 .071 0 .04.006.024.017.008.027 0 .04 0 .052c0 .01.004.018.011.025a.04.04 0 0 0 .028.01.084.084 0 0 0 .025-.003.285.285 0 0 0 .038-.018.245.245 0 0 1 .04-.018.135.135 0 0 1 .039-.006c.033 0 .062.013.086.04a.127.127 0 0 1 .037.09A.176.176 0 0 1 .26.29a.199.199 0 0 1-.057.035.184.184 0 0 1-.075.016H.111v.015a.2.2 0 0 1 .077.028.147.147 0 0 1 .057.055.145.145 0 0 1 .018.07.108.108 0 0 1-.11.113C.103.621.06.594.026.54L.01.548z"/></symbol><use xlink:href="#p" transform="matrix(12.18992 0 0 -12.18992 399.355 137.1)"/><use xlink:href="#n" transform="matrix(12.18992 0 0 -12.18992 452.83 136.957)"/><use xlink:href="#o" transform="matrix(12.18992 0 0 -12.18992 506.86 137.1)"/><use xlink:href="#o" transform="matrix(12.18992 0 0 -12.18992 399.302 172.953)"/><use xlink:href="#o" transform="matrix(12.18992 0 0 -12.18992 453.08 172.953)"/><symbol id="q"><path d="M.405.688V.668A.32.32 0 0 1 .3.644.295.295 0 0 1 .22.585.38.38 0 0 1 .152.497.53.53 0 0 1 .11.38.248.248 0 0 0 .25.43.154.154 0 0 0 .369.375a.2.2 0 0 0 .05-.14.25.25 0 0 0-.05-.152A.189.189 0 0 0 .207 0a.161.161 0 0 0-.115.045A.297.297 0 0 0 0 .27a.438.438 0 0 0 .264.395c.04.014.078.021.113.021h.028M.102.346a.843.843 0 0 1-.01-.107C.093.208.099.174.11.137A.201.201 0 0 1 .162.05a.086.086 0 0 1 .06-.023c.028 0 .054.014.076.04a.173.173 0 0 1 .034.115.298.298 0 0 1-.034.144C.276.366.245.387.204.387A.118.118 0 0 1 .164.38.395.395 0 0 1 .102.346z"/></symbol><use xlink:href="#q" transform="matrix(12.18992 0 0 -12.18992 506.943 172.953)"/><symbol id="r"><path d="M.413.625.34.37h.023a.27.27 0 0 1 .13.023.18.18 0 0 1 .069.083h.018L.504.217H.487A.262.262 0 0 1 .492.26a.061.061 0 0 1-.016.044.087.087 0 0 1-.041.025.302.302 0 0 1-.07.005H.329L.264.11A.179.179 0 0 1 .256.067c0-.008.003-.014.01-.018.011-.007.03-.01.06-.01a.36.36 0 0 1 .29.143h.02L.565 0H0l.006.018c.033 0 .057.006.073.019.015.012.029.04.041.083l.125.426c.006.024.01.042.01.056A.033.033 0 0 1 .242.63c-.01.007-.03.012-.06.014l.005.018h.528L.672.497H.655A.142.142 0 0 1 .64.565a.118.118 0 0 1-.055.046.298.298 0 0 1-.11.014H.413z"/></symbol><symbol id="s"><path d="M.373.466.35.316H.333a.142.142 0 0 1-.036.092C.276.43.253.44.229.44A.053.053 0 0 1 .19.428.041.041 0 0 1 .177.396c0-.01.002-.02.006-.029A.163.163 0 0 1 .211.33.728.728 0 0 0 .305.216a.147.147 0 0 0-.003-.14A.144.144 0 0 0 .244.02.17.17 0 0 0 .164 0a.276.276 0 0 0-.07.011.166.166 0 0 1-.042.008.039.039 0 0 1-.019-.004A.047.047 0 0 1 .018 0H0l.024.163H.04A.413.413 0 0 1 .07.078a.118.118 0 0 1 .04-.04A.095.095 0 0 1 .16.023C.177.023.192.03.204.04A.055.055 0 0 1 .22.08C.221.097.217.11.21.126a.386.386 0 0 1-.052.067.542.542 0 0 0-.075.096.119.119 0 0 0-.013.055c0 .035.013.065.038.088a.154.154 0 0 0 .108.035c.02 0 .045-.003.074-.01A.156.156 0 0 1 .324.45c.013 0 .023.006.031.016h.018z"/></symbol><symbol id="t"><path d="M.268.585.228.453h.064L.275.396H.212L.131.113a.155.155 0 0 1-.008-.04C.123.07.125.065.127.062a.014.014 0 0 1 .01-.004c.006 0 .011.002.017.006a.274.274 0 0 1 .053.06l.017-.01A.253.253 0 0 0 .149.026.142.142 0 0 0 .07 0a.075.075 0 0 0-.05.017A.057.057 0 0 0 0 .06c0 .018.004.043.013.072L.09.396H.023l.01.037a.443.443 0 0 1 .21.152h.025z"/></symbol><symbol id="u"><path d="M.205.69c.02 0 .037-.006.05-.02A.07.07 0 0 0 .276.62a.07.07 0 0 0-.02-.052.07.07 0 0 0-.051-.02.069.069 0 0 0-.05.02.07.07 0 0 0-.022.051c0 .02.007.037.02.05a.07.07 0 0 0 .052.022m.03-.225L.135.12A.192.192 0 0 1 .126.08c0-.004.002-.007.005-.01A.013.013 0 0 1 .14.065c.005 0 .01.003.016.008a.299.299 0 0 1 .052.065l.017-.01C.176.043.125 0 .07 0a.072.072 0 0 0-.05.018A.06.06 0 0 0 0 .063C0 .075.003.09.008.109l.068.233c.007.023.01.04.01.051a.025.025 0 0 1-.01.02.037.037 0 0 1-.025.007H.034L.04.44l.166.026h.029z"/></symbol><symbol id="v"><path d="M.256.458.193.248c.042.065.073.108.092.13a.296.296 0 0 0 .07.065c.019.01.037.015.056.015.02 0 .036-.006.046-.019A.069.069 0 0 0 .47.397a.283.283 0 0 0-.013-.07L.436.248c.042.065.072.108.09.13a.304.304 0 0 0 .076.067c.014.009.03.013.046.013A.057.057 0 0 0 .691.44.06.06 0 0 0 .71.396.302.302 0 0 0 .694.314L.64.132A.248.248 0 0 1 .628.08c0-.003 0-.005.003-.007A.01.01 0 0 1 .638.069c.004 0 .007.001.01.004a.21.21 0 0 1 .037.041l.013.018.016-.01A.266.266 0 0 0 .64.029.129.129 0 0 0 .566 0a.07.07 0 0 0-.048.016A.051.051 0 0 0 .5.055C.5.069.504.09.512.118l.055.19a.267.267 0 0 1 .012.05C.579.36.577.362.575.364.573.367.571.368.568.368A.03.03 0 0 1 .556.365a.142.142 0 0 1-.03-.026.69.69 0 0 1-.054-.073.668.668 0 0 1-.05-.083.565.565 0 0 1-.028-.077l-.03-.1H.241l.091.318A.16.16 0 0 1 .339.36c0 .002 0 .004-.003.006A.009.009 0 0 1 .33.37C.318.37.299.353.272.322A.866.866 0 0 1 .164.146l-.04-.14H0l.092.313C.1.35.105.372.105.385c0 .005 0 .01-.003.013a.024.024 0 0 1-.013.01.109.109 0 0 1-.034.003L.06.429l.167.029h.029z"/></symbol><symbol id="w"><path d="M.46.46.364.134l-.01-.04a.062.062 0 0 1-.001-.01c0-.004 0-.008.003-.01C.36.07.363.07.367.07c.006 0 .015.005.028.015A.39.39 0 0 1 .43.13L.447.122A.28.28 0 0 0 .373.029.14.14 0 0 0 .288 0C.27 0 .255.005.246.014A.05.05 0 0 0 .23.051c0 .012.005.036.016.07l.011.04A.482.482 0 0 0 .15.023.103.103 0 0 0 .085 0C.055 0 .033.012.02.037A.173.173 0 0 0 0 .12C0 .166.014.22.042.278c.028.06.065.107.11.143.038.03.073.045.106.045A.06.06 0 0 0 .302.45C.312.44.32.42.326.393l.018.06.115.006M.303.367C.303.393.3.412.291.424a.028.028 0 0 1-.024.012C.257.436.247.431.236.421A.368.368 0 0 1 .165.298a.435.435 0 0 1-.038-.16c0-.017.003-.03.009-.037C.142.094.148.09.155.09c.014 0 .03.008.044.025C.221.14.24.17.257.204c.03.06.046.115.046.163z"/></symbol><symbol id="x"><path d="M.134.197A.395.395 0 0 1 .13.145C.13.12.137.1.15.085A.076.076 0 0 1 .209.065c.023 0 .046.005.068.017a.35.35 0 0 1 .08.058L.371.125A.39.39 0 0 0 .261.03.243.243 0 0 0 .145 0C.09 0 .052.013.031.04A.14.14 0 0 0 0 .13c0 .053.015.106.046.16a.36.36 0 0 0 .127.128.312.312 0 0 0 .162.048C.362.466.383.46.397.446A.064.064 0 0 0 .418.398a.132.132 0 0 0-.02-.069.236.236 0 0 0-.072-.074A.343.343 0 0 0 .23.21.543.543 0 0 0 .134.197M.14.222c.028.004.05.01.066.017.016.008.031.02.046.035a.222.222 0 0 1 .057.13C.308.415.305.422.3.427a.025.025 0 0 1-.02.008C.266.434.249.424.229.401a.466.466 0 0 1-.09-.179z"/></symbol><symbol id="y"><path d="M.525.69.367.146A.355.355 0 0 1 .352.083c0-.004 0-.007.003-.01A.012.012 0 0 1 .364.07c.005 0 .012.003.019.009.012.009.027.026.044.051L.444.12C.398.04.348 0 .293 0a.064.064 0 0 0-.045.015.054.054 0 0 0-.016.04c0 .015.004.037.013.065l.014.05A.516.516 0 0 0 .153.026.11.11 0 0 0 .087 0a.079.079 0 0 0-.062.03C.008.05 0 .079 0 .117 0 .165.01.213.032.26a.47.47 0 0 0 .074.118.303.303 0 0 0 .081.068.16.16 0 0 0 .076.02.07.07 0 0 0 .033-.008A.128.128 0 0 0 .331.43l.036.122C.375.58.38.602.38.615a.027.027 0 0 1-.009.02.033.033 0 0 1-.023.009c-.005 0-.01 0-.017-.002l.004.02.161.029h.03M.31.38c0 .02-.004.035-.012.044A.035.035 0 0 1 .27.438C.261.438.25.433.238.422A.358.358 0 0 1 .165.296.445.445 0 0 1 .127.138C.127.122.13.11.136.103.14.096.147.092.154.092c.012 0 .023.005.034.015A.378.378 0 0 1 .27.235c.027.06.04.11.04.146z"/></symbol><use xlink:href="#r" transform="matrix(14.34108 0 0 -14.34108 426.064 46.609)"/><use xlink:href="#s" transform="matrix(14.34108 0 0 -14.34108 436.127 46.805)"/><use xlink:href="#t" transform="matrix(14.34108 0 0 -14.34108 441.986 46.805)"/><use xlink:href="#u" transform="matrix(14.34108 0 0 -14.34108 445.987 46.805)"/><use xlink:href="#v" transform="matrix(14.34108 0 0 -14.34108 449.827 46.686)"/><use xlink:href="#w" transform="matrix(14.34108 0 0 -14.34108 461.124 46.805)"/><use xlink:href="#t" transform="matrix(14.34108 0 0 -14.34108 468.288 46.805)"/><use xlink:href="#x" transform="matrix(14.34108 0 0 -14.34108 472.316 46.805)"/><use xlink:href="#y" transform="matrix(14.34108 0 0 -14.34108 478.656 46.805)"/><symbol id="z"><path d="M.08.662h.533L.563.484H.545l.001.025c0 .034-.01.06-.03.078-.02.02-.053.03-.1.033L.269.12A.245.245 0 0 1 .256.06c0-.013.005-.023.015-.03C.281.023.302.019.333.018L.329 0H0l.006.018c.033 0 .058.006.073.019.015.012.03.04.042.084L.27.62A.26.26 0 0 1 .14.586.285.285 0 0 1 .047.484H.028l.053.178z"/></symbol><symbol id="A"><path d="M.22.453.146.178c.06.134.106.216.137.247C.3.444.319.453.339.453A.041.041 0 0 0 .373.437.062.062 0 0 0 .385.397a.134.134 0 0 0-.023-.08C.352.302.342.296.33.296A.031.031 0 0 0 .3.312a.085.085 0 0 1-.013.021.012.012 0 0 1-.009.004.021.021 0 0 1-.01-.003A.11.11 0 0 1 .24.306 1.26 1.26 0 0 1 .158.14 1.364 1.364 0 0 1 .118 0H0l.08.324a.26.26 0 0 1 .01.048.037.037 0 0 1-.006.02.026.026 0 0 1-.012.01.1.1 0 0 1-.033.004L.043.42.19.453h.03z"/></symbol><symbol id="B"><path d="M.231.466.137.134A.135.135 0 0 1 .13.103C.13.1.13.097.133.096a.013.013 0 0 1 .01-.004c.015 0 .035.013.06.04a.84.84 0 0 1 .112.167l.045.15.123.004L.39.13A.351.351 0 0 1 .378.083L.38.075.39.071a.02.02 0 0 1 .013.006C.414.087.43.106.45.134L.465.123C.42.04.37 0 .315 0a.07.07 0 0 0-.047.015.052.052 0 0 0-.017.04c0 .018.004.04.012.068l.024.082A1.444 1.444 0 0 0 .195.081.308.308 0 0 0 .12.016.12.12 0 0 0 .063 0 .061.061 0 0 0 .02.019.066.066 0 0 0 0 .067c0 .017.004.04.012.067L.067.33c.01.031.014.053.014.064 0 .005-.001.01-.004.013a.024.024 0 0 1-.013.009.106.106 0 0 1-.033.003l.005.019.166.028h.03z"/></symbol><use xlink:href="#z" transform="matrix(0 -14.34108 -14.34108 0 331.996 146.314)"/><use xlink:href="#A" transform="matrix(0 -14.34108 -14.34108 0 331.996 138.982)"/><use xlink:href="#B" transform="matrix(0 -14.34108 -14.34108 0 332.192 133.159)"/><use xlink:href="#x" transform="matrix(0 -14.34108 -14.34108 0 332.192 125.36)"/><path stroke-miterlimit="10" fill="none" stroke="#000" d="m192.173 70.63-.324 40.608" stroke-width=".71961"/><path d="m191.82 115.002-2.468-5.038 2.497 1.274 2.519-1.23-2.547 4.994z"/><path stroke-miterlimit="10" fill="none" stroke="#000" d="m191.82 115.002-2.468-5.038 2.497 1.274 2.519-1.23-2.547 4.994z" stroke-width=".71961"/><path d="M292.199 51.273a14.307 14.307 0 0 1-1.092 5.488 14.308 14.308 0 0 1-3.109 4.652 14.305 14.305 0 0 1-4.652 3.109 14.308 14.308 0 0 1-5.488 1.092 14.307 14.307 0 0 1-5.488-1.092 14.307 14.307 0 0 1-4.653-3.109 14.306 14.306 0 0 1-3.109-4.652 14.307 14.307 0 0 1-1.091-5.488 14.305 14.305 0 0 1 1.091-5.489 14.306 14.306 0 0 1 3.109-4.652 14.306 14.306 0 0 1 4.653-3.109 14.307 14.307 0 0 1 5.488-1.092 14.307 14.307 0 0 1 5.488 1.092 14.306 14.306 0 0 1 4.652 3.109 14.308 14.308 0 0 1 3.11 4.652 14.308 14.308 0 0 1 1.09 5.489z" fill="#fff"/><path fill="none" stroke="#000" d="M292.199 51.273a14.307 14.307 0 0 1-1.092 5.488 14.308 14.308 0 0 1-3.109 4.652 14.305 14.305 0 0 1-4.652 3.109 14.308 14.308 0 0 1-5.488 1.092 14.307 14.307 0 0 1-5.488-1.092 14.307 14.307 0 0 1-4.653-3.109 14.306 14.306 0 0 1-3.109-4.652 14.307 14.307 0 0 1-1.091-5.488 14.305 14.305 0 0 1 1.091-5.489 14.306 14.306 0 0 1 3.109-4.652 14.306 14.306 0 0 1 4.653-3.109 14.307 14.307 0 0 1 5.488-1.092 14.307 14.307 0 0 1 5.488 1.092 14.306 14.306 0 0 1 4.652 3.109 14.308 14.308 0 0 1 3.11 4.652 14.308 14.308 0 0 1 1.09 5.489z" stroke-width=".71961"/><use xlink:href="#b" transform="matrix(11.47286 0 0 -11.47286 271.035 53.779)"/><use xlink:href="#c" transform="matrix(9.55833 0 0 -9.55833 279.57 56.912)"/><path stroke-miterlimit="10" fill="none" stroke="#000" d="M277.858 65.614v45.624" stroke-width=".71961"/><path d="m277.858 115.002-2.505-5.016 2.505 1.252 2.511-1.252-2.511 5.016z"/><path stroke-miterlimit="10" fill="none" stroke="#000" d="m277.858 115.002-2.505-5.016 2.505 1.252 2.511-1.252-2.511 5.016z" stroke-width=".71961"/><path d="M206.154 51.273a14.305 14.305 0 0 1-1.091 5.488 14.308 14.308 0 0 1-3.109 4.652 14.31 14.31 0 0 1-4.653 3.109 14.306 14.306 0 0 1-5.488 1.092 14.306 14.306 0 0 1-5.488-1.092 14.306 14.306 0 0 1-4.652-3.109 14.306 14.306 0 0 1-3.11-4.652 14.307 14.307 0 0 1-1.09-5.488 14.305 14.305 0 0 1 1.09-5.489 14.306 14.306 0 0 1 3.11-4.652 14.306 14.306 0 0 1 4.652-3.109 14.307 14.307 0 0 1 5.488-1.092 14.307 14.307 0 0 1 5.488 1.092 14.308 14.308 0 0 1 4.653 3.109 14.307 14.307 0 0 1 3.109 4.652 14.306 14.306 0 0 1 1.091 5.489z" fill="#fff"/><path fill="none" stroke="#000" d="M206.154 51.273a14.305 14.305 0 0 1-1.091 5.488 14.308 14.308 0 0 1-3.109 4.652 14.31 14.31 0 0 1-4.653 3.109 14.306 14.306 0 0 1-5.488 1.092 14.306 14.306 0 0 1-5.488-1.092 14.306 14.306 0 0 1-4.652-3.109 14.306 14.306 0 0 1-3.11-4.652 14.307 14.307 0 0 1-1.09-5.488 14.305 14.305 0 0 1 1.09-5.489 14.306 14.306 0 0 1 3.11-4.652 14.306 14.306 0 0 1 4.652-3.109 14.307 14.307 0 0 1 5.488-1.092 14.307 14.307 0 0 1 5.488 1.092 14.308 14.308 0 0 1 4.653 3.109 14.307 14.307 0 0 1 3.109 4.652 14.306 14.306 0 0 1 1.091 5.489z" stroke-width=".71961"/><use xlink:href="#b" transform="matrix(11.47286 0 0 -11.47286 184.989 53.779)"/><use xlink:href="#d" transform="matrix(9.55833 0 0 -9.55833 193.831 56.782)"/><path d="M206.154 130.15a14.305 14.305 0 0 1-1.091 5.488 14.308 14.308 0 0 1-3.109 4.652 14.31 14.31 0 0 1-4.653 3.109 14.306 14.306 0 0 1-5.488 1.092 14.308 14.308 0 0 1-5.488-1.092 14.306 14.306 0 0 1-4.652-3.109 14.306 14.306 0 0 1-3.11-4.652 14.307 14.307 0 0 1-1.09-5.488 14.305 14.305 0 0 1 1.09-5.489 14.307 14.307 0 0 1 3.11-4.652 14.306 14.306 0 0 1 4.652-3.109 14.306 14.306 0 0 1 5.488-1.092 14.307 14.307 0 0 1 5.488 1.092 14.308 14.308 0 0 1 4.653 3.109 14.307 14.307 0 0 1 3.109 4.652 14.306 14.306 0 0 1 1.091 5.489z" fill="#fff"/><path fill="none" stroke="#000" d="M206.154 130.15a14.305 14.305 0 0 1-1.091 5.488 14.308 14.308 0 0 1-3.109 4.652 14.31 14.31 0 0 1-4.653 3.109 14.306 14.306 0 0 1-5.488 1.092 14.308 14.308 0 0 1-5.488-1.092 14.306 14.306 0 0 1-4.652-3.109 14.306 14.306 0 0 1-3.11-4.652 14.307 14.307 0 0 1-1.09-5.488 14.305 14.305 0 0 1 1.09-5.489 14.307 14.307 0 0 1 3.11-4.652 14.306 14.306 0 0 1 4.652-3.109 14.306 14.306 0 0 1 5.488-1.092 14.307 14.307 0 0 1 5.488 1.092 14.308 14.308 0 0 1 4.653 3.109 14.307 14.307 0 0 1 3.109 4.652 14.306 14.306 0 0 1 1.091 5.489z" stroke-width=".71961"/><use xlink:href="#b" transform="matrix(11.47286 0 0 -11.47286 184.989 132.655)"/><use xlink:href="#e" transform="matrix(9.55833 0 0 -9.55833 193.435 135.658)"/><path d="M292.199 130.15a14.307 14.307 0 0 1-1.092 5.488 14.307 14.307 0 0 1-3.109 4.652 14.304 14.304 0 0 1-4.652 3.109 14.307 14.307 0 0 1-5.488 1.092 14.308 14.308 0 0 1-5.488-1.092 14.307 14.307 0 0 1-4.653-3.109 14.306 14.306 0 0 1-3.109-4.652 14.307 14.307 0 0 1-1.091-5.488 14.305 14.305 0 0 1 1.091-5.489 14.306 14.306 0 0 1 3.109-4.652 14.306 14.306 0 0 1 4.653-3.109 14.306 14.306 0 0 1 5.488-1.092 14.307 14.307 0 0 1 5.488 1.092 14.306 14.306 0 0 1 4.652 3.109 14.308 14.308 0 0 1 3.11 4.652 14.307 14.307 0 0 1 1.09 5.489z" fill="#fff"/><path fill="none" stroke="#000" d="M292.199 130.15a14.307 14.307 0 0 1-1.092 5.488 14.307 14.307 0 0 1-3.109 4.652 14.304 14.304 0 0 1-4.652 3.109 14.307 14.307 0 0 1-5.488 1.092 14.308 14.308 0 0 1-5.488-1.092 14.307 14.307 0 0 1-4.653-3.109 14.306 14.306 0 0 1-3.109-4.652 14.307 14.307 0 0 1-1.091-5.488 14.305 14.305 0 0 1 1.091-5.489 14.306 14.306 0 0 1 3.109-4.652 14.306 14.306 0 0 1 4.653-3.109 14.306 14.306 0 0 1 5.488-1.092 14.307 14.307 0 0 1 5.488 1.092 14.306 14.306 0 0 1 4.652 3.109 14.308 14.308 0 0 1 3.11 4.652 14.307 14.307 0 0 1 1.09 5.489z" stroke-width=".71961"/><use xlink:href="#b" transform="matrix(11.47286 0 0 -11.47286 271.035 132.655)"/><use xlink:href="#f" transform="matrix(9.55833 0 0 -9.55833 279.486 135.658)"/><path d="M249.18 187.51a14.307 14.307 0 0 1-1.091 5.488 14.305 14.305 0 0 1-3.11 4.653 14.306 14.306 0 0 1-4.652 3.108 14.305 14.305 0 0 1-5.488 1.092 14.31 14.31 0 0 1-5.488-1.092 14.306 14.306 0 0 1-4.653-3.108 14.308 14.308 0 0 1-3.108-4.653 14.308 14.308 0 0 1-1.092-5.488 14.309 14.309 0 0 1 1.092-5.488 14.305 14.305 0 0 1 3.108-4.653 14.306 14.306 0 0 1 4.653-3.108 14.306 14.306 0 0 1 5.488-1.092 14.307 14.307 0 0 1 5.488 1.092 14.306 14.306 0 0 1 4.653 3.108 14.308 14.308 0 0 1 3.109 4.653 14.306 14.306 0 0 1 1.091 5.488z" fill="#fff"/><path fill="none" stroke="#000" d="M249.18 187.51a14.307 14.307 0 0 1-1.091 5.488 14.305 14.305 0 0 1-3.11 4.653 14.306 14.306 0 0 1-4.652 3.108 14.305 14.305 0 0 1-5.488 1.092 14.31 14.31 0 0 1-5.488-1.092 14.306 14.306 0 0 1-4.653-3.108 14.308 14.308 0 0 1-3.108-4.653 14.308 14.308 0 0 1-1.092-5.488 14.309 14.309 0 0 1 1.092-5.488 14.305 14.305 0 0 1 3.108-4.653 14.306 14.306 0 0 1 4.653-3.108 14.306 14.306 0 0 1 5.488-1.092 14.307 14.307 0 0 1 5.488 1.092 14.306 14.306 0 0 1 4.653 3.108 14.308 14.308 0 0 1 3.109 4.653 14.306 14.306 0 0 1 1.091 5.488z" stroke-width=".71961"/><use xlink:href="#b" transform="matrix(11.47286 0 0 -11.47286 228.012 190.02)"/><use xlink:href="#g" transform="matrix(9.55833 0 0 -9.55833 236.378 193.157)"/><path stroke-miterlimit="10" fill="none" stroke="#000" d="m244.978 177.37 20.351-33.188" stroke-width=".71961"/><path d="m267.301 140.973-.482 5.591-1.49-2.382-2.792-.245 4.764-2.964z"/><path stroke-miterlimit="10" fill="none" stroke="#000" d="m267.301 140.973-.482 5.591-1.49-2.382-2.792-.245 4.764-2.964zM201.953 140.289l22.106 31.685" stroke-width=".71961"/><path d="m226.218 175.06-4.936-2.676 2.777-.41 1.339-2.462.82 5.549z"/><path stroke-miterlimit="10" fill="none" stroke="#000" d="m226.218 175.06-4.936-2.676 2.777-.41 1.339-2.462.82 5.549zM258.953 130.15h-52.798" stroke-width=".71961"/><path d="m262.717 130.15-5.023 2.504 1.26-2.504-1.26-2.512 5.023 2.512z"/><path stroke-miterlimit="10" fill="none" stroke="#000" d="m262.717 130.15-5.023 2.504 1.26-2.504-1.26-2.512 5.023 2.512zM216.273 185.776c-53.117-21.79-64.65-63.245-34.599-124.364" stroke-width=".71961"/><path d="m219.756 187.208-5.599.417 2.116-1.85-.209-2.799 3.692 4.232z"/><path stroke-miterlimit="10" fill="none" stroke="#000" d="m219.756 187.208-5.599.417 2.116-1.85-.209-2.799 3.692 4.232z" stroke-width=".71961"/><path d="M182.493 63.823c0 .332-.064.653-.192.96a2.486 2.486 0 0 1-.544.814 2.486 2.486 0 0 1-.814.544 2.486 2.486 0 0 1-.96.191c-.333 0-.653-.063-.96-.19a2.486 2.486 0 0 1-.815-.545 2.486 2.486 0 0 1-.544-.814 2.486 2.486 0 0 1-.19-.96c0-.333.063-.653.19-.96.128-.308.309-.58.544-.815.236-.235.507-.417.814-.544.308-.127.628-.191.96-.191.334 0 .654.064.961.191.308.127.58.309.814.544.236.235.417.507.544.814.128.308.192.628.192.96z" fill="#fff"/><path fill="none" stroke="#000" d="M182.493 63.823c0 .332-.064.653-.192.96a2.486 2.486 0 0 1-.544.814 2.486 2.486 0 0 1-.814.544 2.486 2.486 0 0 1-.96.191c-.333 0-.653-.063-.96-.19a2.486 2.486 0 0 1-.815-.545 2.486 2.486 0 0 1-.544-.814 2.486 2.486 0 0 1-.19-.96c0-.333.063-.653.19-.96.128-.308.309-.58.544-.815.236-.235.507-.417.814-.544.308-.127.628-.191.96-.191.334 0 .654.064.961.191.308.127.58.309.814.544.236.235.417.507.544.814.128.308.192.628.192.96z" stroke-width=".71961"/><path d="M268.537 63.823c0 .332-.064.653-.191.96a2.486 2.486 0 0 1-.544.814 2.486 2.486 0 0 1-.814.544 2.486 2.486 0 0 1-.96.191c-.334 0-.654-.063-.961-.19a2.485 2.485 0 0 1-.814-.545 2.485 2.485 0 0 1-.544-.814 2.485 2.485 0 0 1-.191-.96c0-.333.063-.653.19-.96.128-.308.31-.58.545-.815.235-.235.506-.417.814-.544.307-.127.627-.191.96-.191.333 0 .653.064.96.191.308.127.58.309.815.544.235.235.416.507.544.814.127.308.19.628.19.96z" fill="#fff"/><path fill="none" stroke="#000" d="M268.537 63.823c0 .332-.064.653-.191.96a2.486 2.486 0 0 1-.544.814 2.486 2.486 0 0 1-.814.544 2.486 2.486 0 0 1-.96.191c-.334 0-.654-.063-.961-.19a2.485 2.485 0 0 1-.814-.545 2.485 2.485 0 0 1-.544-.814 2.485 2.485 0 0 1-.191-.96c0-.333.063-.653.19-.96.128-.308.31-.58.545-.815.235-.235.506-.417.814-.544.307-.127.627-.191.96-.191.333 0 .653.064.96.191.308.127.58.309.815.544.235.235.416.507.544.814.127.308.19.628.19.96z" stroke-width=".71961"/><path d="M194.683 68.119c0 .333-.064.653-.191.96a2.486 2.486 0 0 1-.544.814 2.486 2.486 0 0 1-.814.544 2.486 2.486 0 0 1-.96.191c-.334 0-.654-.063-.961-.19a2.486 2.486 0 0 1-.814-.545 2.486 2.486 0 0 1-.545-.814 2.486 2.486 0 0 1-.19-.96c0-.333.063-.653.19-.96.128-.308.31-.58.545-.815.235-.235.506-.417.814-.544.307-.127.627-.19.96-.19.333 0 .653.063.96.19.308.127.58.309.815.544.235.235.416.507.544.814.127.308.19.628.19.96z" fill="#fff"/><path fill="none" stroke="#000" d="M194.683 68.119c0 .333-.064.653-.191.96a2.486 2.486 0 0 1-.544.814 2.486 2.486 0 0 1-.814.544 2.486 2.486 0 0 1-.96.191c-.334 0-.654-.063-.961-.19a2.486 2.486 0 0 1-.814-.545 2.486 2.486 0 0 1-.545-.814 2.486 2.486 0 0 1-.19-.96c0-.333.063-.653.19-.96.128-.308.31-.58.545-.815.235-.235.506-.417.814-.544.307-.127.627-.19.96-.19.333 0 .653.063.96.19.308.127.58.309.815.544.235.235.416.507.544.814.127.308.19.628.19.96z" stroke-width=".71961"/><symbol id="C"><path d="M.281.877V.855A.295.295 0 0 1 .207.79.326.326 0 0 1 .155.677.947.947 0 0 1 .13.438c0-.096.007-.17.021-.224A.382.382 0 0 1 .21.084a.225.225 0 0 1 .071-.06V0a.391.391 0 0 0-.2.162.49.49 0 0 0-.081.28.48.48 0 0 0 .082.276c.054.08.12.133.2.16z"/></symbol><symbol id="D"><path d="M.24.074C.186.024.136 0 .09 0A.087.087 0 0 0 0 .09c0 .035.015.066.045.094.03.028.095.065.196.11v.047a.21.21 0 0 1-.006.065.05.05 0 0 1-.021.023.063.063 0 0 1-.035.01.09.09 0 0 1-.053-.014C.118.42.114.413.114.405c0-.007.004-.016.013-.026C.14.365.146.352.146.34A.054.054 0 0 0 .128.298.065.065 0 0 0 .082.28.075.075 0 0 0 .03.3a.057.057 0 0 0-.02.043.1.1 0 0 0 .027.067.175.175 0 0 0 .078.05.317.317 0 0 0 .103.017c.044 0 .078-.01.103-.028a.128.128 0 0 0 .05-.06.388.388 0 0 0 .006-.094V.118c0-.021 0-.034.002-.04A.023.023 0 0 1 .387.066a.017.017 0 0 1 .01-.004c.01 0 .018.007.027.019L.438.069a.18.18 0 0 0-.05-.053A.11.11 0 0 0 .328 0a.093.093 0 0 0-.06.018.084.084 0 0 0-.027.056m0 .035v.153A.285.285 0 0 1 .153.188a.09.09 0 0 1-.02-.053C.134.12.14.107.15.095A.044.044 0 0 1 .184.082C.2.082.22.092.241.109z"/></symbol><symbol id="E"><path d="M0 0v.022a.302.302 0 0 1 .075.066A.34.34 0 0 1 .126.2.953.953 0 0 1 .15.44a.905.905 0 0 1-.022.224.376.376 0 0 1-.057.129.225.225 0 0 1-.071.06v.024A.389.389 0 0 0 .2.716.488.488 0 0 0 .28.436.477.477 0 0 0 .2.16.39.39 0 0 0 0 0z"/></symbol><use xlink:href="#C" transform="matrix(13.62402 0 0 -13.62402 21.284 18.503)"/><use xlink:href="#D" transform="matrix(13.62402 0 0 -13.62402 25.887 15.862)"/><use xlink:href="#E" transform="matrix(13.62402 0 0 -13.62402 32.254 18.503)"/><symbol id="F"><path d="M.19.676V.424c.038.04.08.06.125.06.032 0 .061-.01.089-.028A.182.182 0 0 0 .469.378.277.277 0 0 0 .492.26c0-.05-.01-.095-.03-.136a.225.225 0 0 0-.08-.093.207.207 0 0 0-.179-.02.184.184 0 0 0-.057.038L.071 0H.054v.581A.197.197 0 0 1 .051.63a.036.036 0 0 1-.016.02A.072.072 0 0 1 0 .658v.018h.19m0-.295V.178c0-.042 0-.068.002-.08A.083.083 0 0 1 .216.053.066.066 0 0 1 .263.034c.017 0 .03.005.043.014.012.01.022.028.03.056a.627.627 0 0 1 .012.152C.348.326.338.374.32.4A.059.059 0 0 1 .27.428C.242.428.215.412.19.381z"/></symbol><use xlink:href="#C" transform="matrix(13.62402 0 0 -13.62402 184.38 18.503)"/><use xlink:href="#F" transform="matrix(13.62402 0 0 -13.62402 188.658 15.961)"/><use xlink:href="#E" transform="matrix(13.62402 0 0 -13.62402 196.113 18.503)"/><symbol id="G"><path d="M.368.131.383.12a.229.229 0 0 0-.08-.09A.192.192 0 0 0 .2 0C.14 0 .09.023.055.069A.258.258 0 0 0 0 .234c0 .063.017.117.05.164.04.057.095.086.165.086A.167.167 0 0 0 .328.448C.356.424.37.398.37.368A.06.06 0 0 0 .353.325.06.06 0 0 0 .309.308.065.065 0 0 0 .26.327C.248.339.24.362.238.395.236.415.23.429.224.437A.035.035 0 0 1 .197.45C.182.45.168.44.157.425A.208.208 0 0 1 .132.31c0-.043.007-.085.02-.124A.19.19 0 0 1 .208.099.1.1 0 0 1 .272.078c.016 0 .031.003.045.01a.209.209 0 0 1 .051.043z"/></symbol><use xlink:href="#C" transform="matrix(13.62402 0 0 -13.62402 344.34 18.503)"/><use xlink:href="#G" transform="matrix(13.62402 0 0 -13.62402 348.85 15.961)"/><use xlink:href="#E" transform="matrix(13.62402 0 0 -13.62402 354.546 18.503)"/><path d="M574.006 66.687c0 .333-.064.653-.19.96a2.487 2.487 0 0 1-.545.814 2.486 2.486 0 0 1-.814.544 2.486 2.486 0 0 1-.96.191c-.333 0-.653-.063-.961-.19a2.485 2.485 0 0 1-.814-.545 2.486 2.486 0 0 1-.544-.814 2.485 2.485 0 0 1-.191-.96c0-.333.063-.653.19-.96.128-.308.31-.58.545-.815.235-.235.507-.417.814-.544.308-.127.628-.191.96-.191.333 0 .653.064.96.191.308.127.58.309.815.544.235.235.417.507.544.814.127.308.191.628.191.96z" fill="#fff"/><path stroke-width="1.0722189" fill="none" stroke="#787878" d="M574.006 66.687c0 .333-.064.653-.19.96a2.487 2.487 0 0 1-.545.814 2.486 2.486 0 0 1-.814.544 2.486 2.486 0 0 1-.96.191c-.333 0-.653-.063-.961-.19a2.485 2.485 0 0 1-.814-.545 2.486 2.486 0 0 1-.544-.814 2.485 2.485 0 0 1-.191-.96c0-.333.063-.653.19-.96.128-.308.31-.58.545-.815.235-.235.507-.417.814-.544.308-.127.628-.191.96-.191.333 0 .653.064.96.191.308.127.58.309.815.544.235.235.417.507.544.814.127.308.191.628.191.96z"/><symbol id="H"><path d="M.437.127.391 0H0v.018c.115.105.196.19.243.257.047.066.07.127.07.182a.144.144 0 0 1-.039.104.123.123 0 0 1-.092.04.144.144 0 0 1-.088-.029A.165.165 0 0 1 .037.49H.02c.008.06.029.106.063.138a.176.176 0 0 0 .126.049.186.186 0 0 0 .134-.052.163.163 0 0 0 .054-.122.236.236 0 0 0-.023-.1.663.663 0 0 0-.117-.168 3.477 3.477 0 0 0-.152-.16h.173c.035 0 .06.001.074.004a.099.099 0 0 1 .038.015c.012.008.021.02.03.034h.018z"/></symbol><use xlink:href="#H" transform="matrix(12.18992 0 0 -12.18992 569.065 104.69)" fill="#787878"/><symbol id="I"><path d="m0 .597.161.079h.016v-.56C.177.08.18.057.182.048a.037.037 0 0 1 .02-.02A.164.164 0 0 1 .26.017V0H.01v.018c.032 0 .052.003.061.008.01.005.016.011.02.019a.262.262 0 0 1 .005.072v.357c0 .048-.002.08-.005.093A.038.038 0 0 1 .079.59a.032.032 0 0 1-.021.007.13.13 0 0 1-.05-.015L0 .597z"/></symbol><use xlink:href="#I" transform="matrix(12.18992 0 0 -12.18992 570.232 136.957)" fill="#787878"/><use xlink:href="#o" transform="matrix(12.18992 0 0 -12.18992 569.243 172.953)" fill="#787878"/><path d="M545.677 187.51v-2.147h.72v2.147h-.72zm0-4.223v-2.099h.72v2.1h-.72zm0-4.372v-2.028h.72v2.028h-.72zm0-4.271v-2.08h.72v2.08h-.72zm0-4.225v-2.254h.72v2.254h-.72zm0-4.301v-2.15h.72v2.15h-.72zm0-4.402v-2.075h.72v2.075h-.72zm0-4.19v-2.19h.72v2.19h-.72zm0-4.414v-2.065h.72v2.065h-.72zm0-4.19v-2.185h.72v2.185h-.72zm0-4.43v-2.07h.72v2.07h-.72zm0-4.178v-2.157h.72v2.157h-.72zm0-4.361v-2.197h.72v2.197h-.72zm0-4.275v-2.118h.72v2.118h-.72zm0-4.276v-2.197h.72v2.197h-.72zm0-4.42v-2.077h.72v2.076h-.72zm0-4.186v-2.142h.72v2.142h-.72zm0-4.317v-2.208h.72v2.208h-.72zm0-4.38v-2.09h.72v2.09h-.72zm0-4.207v-2.145h.72v2.145h-.72zm0-4.318v-2.201h.72v2.2h-.72zm0-4.398v-2.088h.72v2.088h-.72zm0-4.2v-2.135h.72v2.135h-.72zm0-4.295v-2.183h.72v2.183h-.72zm0-4.39v-2.153h.72v2.152h-.72zm0-4.25v-2.12h.72v2.12h-.72zm0-4.258v-2.16h.72v2.16h-.72zm0-4.34V69.24h.72v2.201h-.72zm0-4.376V64.97h.72v2.097h-.72zm0-4.212v-2.133h.72v2.133h-.72zm0-4.284v-2.17h.72v2.17h-.72zm0-4.357V52.01h.72v2.205h-.72z" fill="#787878"/><path stroke-miterlimit="10" fill="none" stroke="#000" d="m264.257 65.593-58.865 51.41" stroke-width=".71961"/><path d="m202.557 119.478 2.13-5.189.705 2.713 2.598 1.065-5.433 1.41z"/><path stroke-miterlimit="10" fill="none" stroke="#000" d="m202.557 119.478 2.13-5.189.705 2.713 2.598 1.065-5.433 1.41z" stroke-width=".71961"/></g></svg>