<svg xmlns="http://www.w3.org/2000/svg" xmlns:xlink="http://www.w3.org/1999/xlink" width="885.44" height="581.44" viewBox="0 0 664.08 436.08"><clipPath id="a"><path transform="scale(.24)" d="M0 0h2766.667v1815.437H0z" fill-rule="evenodd"/></clipPath><g clip-path="url(#a)"><path d="M0 0h664v435.705H0z" fill="#fff"/></g><clipPath id="b"><path transform="scale(.24)" d="M0 0h2766.667v1809.436H0z" fill-rule="evenodd"/></clipPath><g clip-path="url(#b)"><path d="M29.858 29.858H1.08v201.426h28.778" fill="#f5f5f5"/><path stroke-miterlimit="10" fill="none" stroke="#666" d="M29.858 29.858H1.08v201.426h28.778M29.858 29.858H662.92v201.426H29.858M29.858 29.858v201.426" stroke-width=".72017"/><symbol id="c"><path d="M.191.26V.09c0-.023.002-.04.006-.048A.038.038 0 0 1 .214.024.118.118 0 0 1 .26.018V0H0v.018c.02 0 .035.006.045.017.006.008.01.027.01.058v.482C.055.607.05.628.043.637.036.646.021.65 0 .652V.67h.191V.61c.016.024.033.04.05.051A.146.146 0 0 0 .41.652.195.195 0 0 0 .471.564.347.347 0 0 0 .471.317.185.185 0 0 0 .407.23.158.158 0 0 0 .243.217.185.185 0 0 0 .19.26m0 .05C.22.27.25.25.281.25.3.25.313.26.325.278.342.305.35.358.35.434.35.513.34.567.322.596a.057.057 0 0 1-.05.029C.24.625.212.6.192.553V.31z"/></symbol><symbol id="d"><path d="M0 0z"/></symbol><symbol id="e"><path d="M0 .223h.534V.16H0v.063m0-.16h.534V0H0v.063z"/></symbol><symbol id="f"><path d="M.119.676h.31L.379.55H.12L.094.484A.413.413 0 0 0 .353.4.201.201 0 0 0 .428.24C.428.2.416.16.393.122a.233.233 0 0 0-.098-.09A.307.307 0 0 0 .157 0a.216.216 0 0 0-.124.03c-.02.015-.03.03-.03.05 0 .013.005.025.015.036.01.011.023.016.037.016A.103.103 0 0 0 .094.125.41.41 0 0 0 .16.083.24.24 0 0 1 .21.055.094.094 0 0 1 .247.05c.027 0 .05.01.068.03.019.02.028.043.028.07 0 .057-.028.104-.086.14A.402.402 0 0 1 .04.342H0l.119.334z"/></symbol><use xlink:href="#c" transform="matrix(0 -14.38783 -14.38783 0 23.94 145.234)" fill="#333"/><use xlink:href="#d" transform="matrix(0 -14.38783 -14.38783 0 20.862 137.509)" fill="#333"/><use xlink:href="#e" transform="matrix(0 -14.38783 -14.38783 0 17.722 133.63)" fill="#333"/><use xlink:href="#d" transform="matrix(0 -14.38783 -14.38783 0 20.862 125.71)" fill="#333"/><use xlink:href="#f" transform="matrix(0 -14.38783 -14.38783 0 21.06 121.629)" fill="#333"/><path d="M29.858 231.284H1.08v201.432h28.778" fill="#f5f5f5"/><path stroke-miterlimit="10" fill="none" stroke="#666" d="M29.858 231.284H1.08v201.432h28.778M29.858 231.284H662.92v201.432H29.858M29.858 231.284v201.432" stroke-width=".72017"/><symbol id="g"><path d="M.26.676V.134A.34.34 0 0 1 .265.056.05.05 0 0 1 .288.03a.106.106 0 0 1 .054-.01h.015V0H.01v.018h.017c.029 0 .049.003.06.01a.05.05 0 0 1 .025.027.297.297 0 0 1 .007.08v.343c0 .03-.002.05-.005.057a.04.04 0 0 1-.016.02.046.046 0 0 1-.028.007.157.157 0 0 1-.06-.015L0 .564l.244.112H.26z"/></symbol><symbol id="h"><path d="M.427.345A.597.597 0 0 0 .4.16.249.249 0 0 0 .354.073.225.225 0 0 0 .291.02.159.159 0 0 0 .213 0a.158.158 0 0 0-.086.024.23.23 0 0 0-.068.07.34.34 0 0 0-.038.089.62.62 0 0 0 .01.353c.016.049.041.087.075.113a.17.17 0 0 0 .107.04.17.17 0 0 0 .108-.04.224.224 0 0 0 .074-.105.588.588 0 0 0 .032-.2m-.15.002c0 .116 0 .183-.002.202C.272.594.264.624.25.64.243.65.231.656.211.656A.046.046 0 0 1 .18.644C.167.633.159.612.154.584a3.642 3.642 0 0 1 .004-.49C.163.07.17.055.178.047A.054.054 0 0 1 .216.036C.23.036.243.04.25.05a.155.155 0 0 1 .024.085l.002.21z"/></symbol><use xlink:href="#c" transform="matrix(0 -14.38783 -14.38783 0 23.94 350.26)" fill="#333"/><use xlink:href="#d" transform="matrix(0 -14.38783 -14.38783 0 20.862 342.535)" fill="#333"/><use xlink:href="#e" transform="matrix(0 -14.38783 -14.38783 0 17.722 338.657)" fill="#333"/><use xlink:href="#d" transform="matrix(0 -14.38783 -14.38783 0 20.862 330.737)" fill="#333"/><use xlink:href="#g" transform="matrix(0 -14.38783 -14.38783 0 20.862 326.192)" fill="#333"/><use xlink:href="#h" transform="matrix(0 -14.38783 -14.38783 0 21.059 319.426)" fill="#333"/><path d="M29.858 29.858V1.08H346.39v28.778" fill="#f5f5f5"/><path stroke-miterlimit="10" fill="none" stroke="#666" d="M29.858 29.858V1.08H346.39v28.778M29.858 29.858v402.858H346.39V29.858M29.858 29.858H346.39" stroke-width=".72017"/><symbol id="i"><path d="M.283.483.29.327H.273a.243.243 0 0 1-.062.095.102.102 0 0 1-.063.025.047.047 0 0 1-.034-.013A.04.04 0 0 1 .1.403.04.04 0 0 1 .11.377.473.473 0 0 1 .196.31.35.35 0 0 0 .29.226.131.131 0 0 0 .314.15a.16.16 0 0 0-.02-.074A.134.134 0 0 0 .242.02.153.153 0 0 0 .165 0a.266.266 0 0 0-.088.02.073.073 0 0 1-.02.006C.047.026.037.018.03 0H.014L.006.166h.017a.213.213 0 0 1 .06-.097C.109.047.133.037.156.037.17.037.184.04.194.05c.01.01.015.021.015.035a.06.06 0 0 1-.015.04.382.382 0 0 1-.065.052.513.513 0 0 0-.097.08A.138.138 0 0 0 0 .345C0 .38.012.413.036.44c.025.029.06.043.106.043A.153.153 0 0 0 .213.466.048.048 0 0 1 .235.458c.006 0 .01.002.014.004a.1.1 0 0 1 .017.02h.017z"/></symbol><symbol id="j"><path d="M.24.074C.186.024.136 0 .09 0A.087.087 0 0 0 0 .09c0 .035.015.066.045.094.03.028.095.065.196.11v.047a.21.21 0 0 1-.006.065.05.05 0 0 1-.021.023.063.063 0 0 1-.035.01.09.09 0 0 1-.053-.014C.118.42.114.413.114.405c0-.007.004-.016.013-.026C.14.365.146.352.146.34A.054.054 0 0 0 .128.298.065.065 0 0 0 .082.28.075.075 0 0 0 .03.3a.057.057 0 0 0-.02.043.1.1 0 0 0 .027.067.175.175 0 0 0 .078.05.317.317 0 0 0 .103.017c.044 0 .078-.01.103-.028a.128.128 0 0 0 .05-.06.388.388 0 0 0 .006-.094V.118c0-.021 0-.034.002-.04A.023.023 0 0 1 .387.066a.017.017 0 0 1 .01-.004c.01 0 .018.007.027.019L.438.069a.18.18 0 0 0-.05-.053A.11.11 0 0 0 .328 0a.093.093 0 0 0-.06.018.084.084 0 0 0-.027.056m0 .035v.153A.285.285 0 0 1 .153.188a.09.09 0 0 1-.02-.053C.134.12.14.107.15.095A.044.044 0 0 1 .184.082C.2.082.22.092.241.109z"/></symbol><symbol id="k"><path d="M.187.457V.353a.33.33 0 0 0 .08.094.117.117 0 0 0 .065.023.057.057 0 0 0 .043-.017C.387.443.392.426.392.406A.074.074 0 0 0 .376.355.049.049 0 0 0 .338.337a.066.066 0 0 0-.045.017.274.274 0 0 1-.022.018.021.021 0 0 1-.012.003.041.041 0 0 1-.027-.01.101.101 0 0 1-.03-.048.332.332 0 0 1-.015-.105V.08C.187.062.188.05.19.044a.04.04 0 0 1 .018-.02.107.107 0 0 1 .039-.006V0H0v.018c.02.001.033.007.04.016.007.01.01.034.01.073V.36a.19.19 0 0 1-.003.05.04.04 0 0 1-.014.02A.075.075 0 0 1 0 .438v.019h.187z"/></symbol><symbol id="l"><path d="M.382.258h-.25A.236.236 0 0 1 .18.115a.102.102 0 0 1 .08-.04C.28.074.299.08.315.09a.21.21 0 0 1 .051.06L.382.138A.279.279 0 0 0 .3.03.178.178 0 0 0 .196 0a.173.173 0 0 0-.154.078A.276.276 0 0 0 0 .234c0 .077.02.137.062.182a.19.19 0 0 0 .145.068.156.156 0 0 0 .12-.057C.36.389.379.333.382.258m-.12.033a.438.438 0 0 1-.01.108.087.087 0 0 1-.025.044.04.04 0 0 1-.028.01C.182.452.17.442.158.426a.214.214 0 0 1-.03-.119V.291h.134z"/></symbol><use xlink:href="#i" transform="matrix(14.38783 0 0 -14.38783 168.738 20.34)" fill="#333"/><use xlink:href="#c" transform="matrix(14.38783 0 0 -14.38783 174.04 23.22)" fill="#333"/><use xlink:href="#j" transform="matrix(14.38783 0 0 -14.38783 182.412 20.234)" fill="#333"/><use xlink:href="#k" transform="matrix(14.38783 0 0 -14.38783 189.486 20.143)" fill="#333"/><use xlink:href="#i" transform="matrix(14.38783 0 0 -14.38783 195.917 20.34)" fill="#333"/><use xlink:href="#l" transform="matrix(14.38783 0 0 -14.38783 201.5 20.34)" fill="#333"/><path d="M180.928 137.762a14.355 14.355 0 0 1-1.095 5.506 14.354 14.354 0 0 1-3.12 4.668 14.353 14.353 0 0 1-4.667 3.119 14.354 14.354 0 0 1-5.506 1.095 14.354 14.354 0 0 1-5.506-1.095 14.352 14.352 0 0 1-4.668-3.12 14.355 14.355 0 0 1-3.119-4.667 14.353 14.353 0 0 1-1.095-5.506 14.353 14.353 0 0 1 1.095-5.506 14.352 14.352 0 0 1 3.12-4.668 14.353 14.353 0 0 1 4.667-3.119 14.353 14.353 0 0 1 5.506-1.095 14.354 14.354 0 0 1 5.506 1.095 14.354 14.354 0 0 1 4.668 3.12 14.354 14.354 0 0 1 3.119 4.667 14.353 14.353 0 0 1 1.095 5.506z" fill="#fff"/><path fill="none" stroke="#000" d="M180.928 137.762a14.355 14.355 0 0 1-1.095 5.506 14.354 14.354 0 0 1-3.12 4.668 14.353 14.353 0 0 1-4.667 3.119 14.354 14.354 0 0 1-5.506 1.095 14.354 14.354 0 0 1-5.506-1.095 14.352 14.352 0 0 1-4.668-3.12 14.355 14.355 0 0 1-3.119-4.667 14.353 14.353 0 0 1-1.095-5.506 14.353 14.353 0 0 1 1.095-5.506 14.352 14.352 0 0 1 3.12-4.668 14.353 14.353 0 0 1 4.667-3.119 14.353 14.353 0 0 1 5.506-1.095 14.354 14.354 0 0 1 5.506 1.095 14.354 14.354 0 0 1 4.668 3.12 14.354 14.354 0 0 1 3.119 4.667 14.353 14.353 0 0 1 1.095 5.506z" stroke-width=".72017"/><symbol id="m"><path d="m.416.388.182-.27A.426.426 0 0 1 .663.034.094.094 0 0 1 .708.018V0H.386v.018C.41.02.428.024.436.03a.026.026 0 0 1 .01.021.034.034 0 0 1-.003.016.496.496 0 0 1-.034.055L.313.265.21.14C.181.104.166.078.166.065c0-.01.004-.018.012-.026A.068.068 0 0 1 .212.02.188.188 0 0 1 .254.018V0H0v.018a.162.162 0 0 1 .068.024.53.53 0 0 1 .092.093l.131.16-.168.248-.048.068A.09.09 0 0 1 .05.634a.11.11 0 0 1-.035.01v.018h.329V.644H.326C.307.644.294.641.286.634a.027.027 0 0 1-.01-.022c0-.007 0-.013.003-.018L.312.543.396.418l.07.085C.5.547.517.578.517.596A.042.042 0 0 1 .51.62.048.048 0 0 1 .49.638a.114.114 0 0 1-.044.006v.018h.243V.644A.137.137 0 0 1 .642.637.118.118 0 0 1 .604.612 1.122 1.122 0 0 1 .541.54L.416.388z"/></symbol><use xlink:href="#m" transform="matrix(10.79087 0 0 -10.79087 160.105 140.281)"/><symbol id="n"><path d="M.39 0H0v.01C.12.154.192.25.217.299a.31.31 0 0 1 .039.144c0 .034-.01.062-.032.085A.102.102 0 0 1 .146.56C.096.561.057.536.03.486L.012.492a.27.27 0 0 0 .08.139c.036.03.077.045.124.045A.183.183 0 0 0 .308.652.17.17 0 0 0 .373.588.153.153 0 0 0 .396.512.276.276 0 0 0 .36.38 1.251 1.251 0 0 0 .145.128h.143c.035 0 .058.001.068.004.01.003.02.008.026.015A.2.2 0 0 1 .41.191h.018L.39 0z"/></symbol><use xlink:href="#n" transform="matrix(8.9924 0 0 -8.9924 168.051 143.159)"/><path d="M267.255 137.762a14.354 14.354 0 0 1-1.095 5.506 14.355 14.355 0 0 1-3.119 4.668 14.353 14.353 0 0 1-4.668 3.119 14.354 14.354 0 0 1-5.506 1.095 14.355 14.355 0 0 1-5.506-1.095 14.353 14.353 0 0 1-4.667-3.12 14.353 14.353 0 0 1-3.12-4.667 14.35 14.35 0 0 1-1.095-5.506 14.352 14.352 0 0 1 1.096-5.506 14.353 14.353 0 0 1 3.119-4.668 14.353 14.353 0 0 1 4.667-3.119 14.354 14.354 0 0 1 5.506-1.095 14.354 14.354 0 0 1 5.506 1.095 14.354 14.354 0 0 1 4.668 3.12 14.353 14.353 0 0 1 3.119 4.667 14.351 14.351 0 0 1 1.095 5.506z" fill="#fff"/><path fill="none" stroke="#000" d="M267.255 137.762a14.354 14.354 0 0 1-1.095 5.506 14.355 14.355 0 0 1-3.119 4.668 14.353 14.353 0 0 1-4.668 3.119 14.354 14.354 0 0 1-5.506 1.095 14.355 14.355 0 0 1-5.506-1.095 14.353 14.353 0 0 1-4.667-3.12 14.353 14.353 0 0 1-3.12-4.667 14.35 14.35 0 0 1-1.095-5.506 14.352 14.352 0 0 1 1.096-5.506 14.353 14.353 0 0 1 3.119-4.668 14.353 14.353 0 0 1 4.667-3.119 14.354 14.354 0 0 1 5.506-1.095 14.354 14.354 0 0 1 5.506 1.095 14.354 14.354 0 0 1 4.668 3.12 14.353 14.353 0 0 1 3.119 4.667 14.351 14.351 0 0 1 1.095 5.506z" stroke-width=".72017"/><use xlink:href="#m" transform="matrix(10.79087 0 0 -10.79087 246.432 140.281)"/><symbol id="o"><path d="m0 .25.314.426h.06V.25h.06V.148h-.06V0H.24v.148H0V.25m.047 0H.24v.26L.047.25z"/></symbol><use xlink:href="#o" transform="matrix(8.9924 0 0 -8.9924 254.383 143.159)"/><path d="M224.088 195.318a14.355 14.355 0 0 1-1.095 5.506 14.354 14.354 0 0 1-3.12 4.668 14.355 14.355 0 0 1-4.667 3.119 14.355 14.355 0 0 1-5.506 1.095 14.352 14.352 0 0 1-5.506-1.095 14.353 14.353 0 0 1-4.668-3.119 14.355 14.355 0 0 1-3.118-4.668 14.353 14.353 0 0 1-1.096-5.506 14.355 14.355 0 0 1 1.096-5.506 14.353 14.353 0 0 1 3.118-4.667 14.354 14.354 0 0 1 4.668-3.12 14.355 14.355 0 0 1 5.506-1.095 14.354 14.354 0 0 1 5.506 1.096 14.353 14.353 0 0 1 4.668 3.119 14.353 14.353 0 0 1 3.119 4.667 14.35 14.35 0 0 1 1.095 5.506z" fill="#fff"/><path fill="none" stroke="#000" d="M224.088 195.318a14.355 14.355 0 0 1-1.095 5.506 14.354 14.354 0 0 1-3.12 4.668 14.355 14.355 0 0 1-4.667 3.119 14.355 14.355 0 0 1-5.506 1.095 14.352 14.352 0 0 1-5.506-1.095 14.353 14.353 0 0 1-4.668-3.119 14.355 14.355 0 0 1-3.118-4.668 14.353 14.353 0 0 1-1.096-5.506 14.355 14.355 0 0 1 1.096-5.506 14.353 14.353 0 0 1 3.118-4.667 14.354 14.354 0 0 1 4.668-3.12 14.355 14.355 0 0 1 5.506-1.095 14.354 14.354 0 0 1 5.506 1.096 14.353 14.353 0 0 1 4.668 3.119 14.353 14.353 0 0 1 3.119 4.667 14.35 14.35 0 0 1 1.095 5.506z" stroke-width=".72017"/><use xlink:href="#m" transform="matrix(10.79087 0 0 -10.79087 203.268 197.833)"/><symbol id="p"><path d="M.132.346v.017c.037.011.063.021.077.03.014.01.027.024.037.043a.12.12 0 0 1 .016.058c0 .027-.01.05-.03.069a.1.1 0 0 1-.073.03C.113.592.074.567.042.52L.024.526a.294.294 0 0 0 .09.123.2.2 0 0 0 .123.04A.158.158 0 0 0 .35.649.13.13 0 0 0 .374.479a.179.179 0 0 0-.065-.06.228.228 0 0 0 .087-.068.166.166 0 0 0 .03-.102.236.236 0 0 0-.075-.177.276.276 0 0 0-.2-.072C.093 0 .053.01.027.028A.06.06 0 0 0 0 .078c0 .015.005.028.016.038.01.011.023.016.037.016.011 0 .021-.002.03-.007A.61.61 0 0 0 .14.083a.146.146 0 0 1 .089-.04c.024 0 .045.01.062.03.017.018.026.043.026.072a.188.188 0 0 1-.047.123.245.245 0 0 1-.137.078z"/></symbol><use xlink:href="#p" transform="matrix(8.9924 0 0 -8.9924 211.14 200.838)"/><path stroke-miterlimit="10" fill="none" stroke="#000" d="m219.876 185.142 20.424-33.3" stroke-width=".72017"/><path d="m242.274 148.622-.49 5.61-1.484-2.39-2.808-.245 4.782-2.975z"/><path stroke-miterlimit="10" fill="none" stroke="#000" d="m242.274 148.622-.49 5.61-1.484-2.39-2.808-.245 4.782-2.975zM176.716 147.938l22.174 31.788" stroke-width=".72017"/><path d="m201.05 182.823-4.94-2.686 2.78-.41 1.347-2.47.814 5.566z"/><path stroke-miterlimit="10" fill="none" stroke="#000" d="m201.05 182.823-4.94-2.686 2.78-.41 1.347-2.47.814 5.566zM238.478 137.762H185.51" stroke-width=".72017"/><path d="m181.729 137.762 5.04-2.513-1.26 2.513 1.26 2.52-5.04-2.52z"/><path stroke-miterlimit="10" fill="none" stroke="#000" d="m181.729 137.762 5.04-2.513-1.26 2.513 1.26 2.52-5.04-2.52z" stroke-width=".72017"/><path d="M108.99 94.602a14.352 14.352 0 0 1-1.095 5.506 14.354 14.354 0 0 1-3.12 4.668 14.353 14.353 0 0 1-4.667 3.119 14.354 14.354 0 0 1-5.506 1.095 14.352 14.352 0 0 1-5.506-1.095 14.353 14.353 0 0 1-4.668-3.12 14.354 14.354 0 0 1-3.119-4.667 14.353 14.353 0 0 1-1.095-5.506 14.353 14.353 0 0 1 1.095-5.506 14.353 14.353 0 0 1 3.12-4.668 14.354 14.354 0 0 1 4.667-3.119 14.354 14.354 0 0 1 5.506-1.095 14.353 14.353 0 0 1 5.506 1.095 14.353 14.353 0 0 1 4.668 3.12 14.353 14.353 0 0 1 3.119 4.667 14.354 14.354 0 0 1 1.095 5.506z" fill="#f5f5f5"/><path fill="none" stroke="#000" d="M108.99 94.602a14.352 14.352 0 0 1-1.095 5.506 14.354 14.354 0 0 1-3.12 4.668 14.353 14.353 0 0 1-4.667 3.119 14.354 14.354 0 0 1-5.506 1.095 14.352 14.352 0 0 1-5.506-1.095 14.353 14.353 0 0 1-4.668-3.12 14.354 14.354 0 0 1-3.119-4.667 14.353 14.353 0 0 1-1.095-5.506 14.353 14.353 0 0 1 1.095-5.506 14.353 14.353 0 0 1 3.12-4.668 14.354 14.354 0 0 1 4.667-3.119 14.354 14.354 0 0 1 5.506-1.095 14.353 14.353 0 0 1 5.506 1.095 14.353 14.353 0 0 1 4.668 3.12 14.353 14.353 0 0 1 3.119 4.667 14.354 14.354 0 0 1 1.095 5.506z" stroke-width=".72017"/><symbol id="q"><path d="M.613.232.588 0H0v.018h.022c.02 0 .035.003.046.01a.044.044 0 0 1 .02.024.201.201 0 0 1 .005.061V.55a.218.218 0 0 1-.005.063.048.048 0 0 1-.022.022.085.085 0 0 1-.044.01H0v.018h.353V.644H.324a.092.092 0 0 1-.046-.01.047.047 0 0 1-.02-.024A.201.201 0 0 1 .252.55V.127c0-.034.002-.056.006-.065a.04.04 0 0 1 .023-.02.232.232 0 0 1 .06-.005h.055C.43.037.46.043.483.056a.162.162 0 0 1 .06.058.468.468 0 0 1 .05.118h.02z"/></symbol><use xlink:href="#q" transform="matrix(10.79087 0 0 -10.79087 88.584 97.118)"/><use xlink:href="#g" transform="matrix(8.9924 0 0 -8.9924 96.182 99.995)"/><path d="m104.599 84.11 1.895-1.032.344.632-1.895 1.032m3.446-2.696 1.896-1.033.344.633-1.895 1.032m3.446-2.697 1.896-1.032.344.633-1.895 1.032m3.446-2.697 1.895-1.032.345.633-1.896 1.032m3.447-2.697 1.895-1.032.345.632-1.896 1.033m3.447-2.697 1.895-1.032.344.632-1.895 1.032m3.446-2.696 1.896-1.032.344.632-1.895 1.032m3.446-2.696 1.896-1.032.344.632-1.895 1.032m3.446-2.697 1.895-1.032.345.633-1.896 1.032m3.447-2.697 1.895-1.032.345.633-1.896 1.032m3.447-2.697 1.895-1.032.344.633-1.895 1.032m3.446-2.697 1.656-.902.344.633-1.655.901"/><path d="m151.445 59.018-3.219 4.617-.1-2.816-2.305-1.606 5.624-.195z"/><path stroke-miterlimit="10" fill="none" stroke="#000" d="m151.445 59.018-3.219 4.617-.1-2.816-2.305-1.606 5.624-.195z" stroke-width=".72017"/><path d="m104.977 104.475 1.77 1.234-.41.59-1.772-1.233m3.954 1.876 1.77 1.233-.41.591-1.772-1.233m3.954 1.876 1.77 1.233-.41.591-1.772-1.233m3.954 1.875 1.771 1.234-.412.59-1.77-1.233m3.953 1.876 1.771 1.233-.411.591-1.772-1.233m3.954 1.876 1.771 1.233-.411.591-1.771-1.233m3.953 1.875L128 120.51l-.411.59-1.771-1.233m3.953 1.876 1.771 1.233-.411.591-1.771-1.233m3.953 1.876 1.771 1.233-.411.591-1.771-1.233m3.953 1.875 1.772 1.234-.412.59-1.771-1.233m3.954 1.876 1.77 1.233-.41.591-1.772-1.233m3.954 1.876 1.77 1.233-.41.59-1.772-1.232m3.954 1.875 1.116.777-.412.591-1.116-.777"/><path d="m151.488 137.301-5.566-.807 2.47-1.346.403-2.787 2.693 4.94z"/><path stroke-miterlimit="10" fill="none" stroke="#000" d="m151.488 137.301-5.566-.807 2.47-1.346.403-2.787 2.693 4.94z" stroke-width=".72017"/><path d="M267.255 58.63a14.354 14.354 0 0 1-1.095 5.505 14.355 14.355 0 0 1-3.119 4.668 14.353 14.353 0 0 1-4.668 3.119 14.354 14.354 0 0 1-5.506 1.095 14.353 14.353 0 0 1-5.506-1.095 14.354 14.354 0 0 1-4.667-3.119 14.352 14.352 0 0 1-3.12-4.668 14.35 14.35 0 0 1-1.095-5.506 14.351 14.351 0 0 1 1.096-5.506 14.354 14.354 0 0 1 3.119-4.667 14.353 14.353 0 0 1 4.667-3.12 14.353 14.353 0 0 1 5.506-1.095 14.353 14.353 0 0 1 5.506 1.096 14.354 14.354 0 0 1 4.668 3.119 14.352 14.352 0 0 1 3.119 4.667 14.352 14.352 0 0 1 1.095 5.506z" fill="#fff"/><path fill="none" stroke="#000" d="M267.255 58.63a14.354 14.354 0 0 1-1.095 5.505 14.355 14.355 0 0 1-3.119 4.668 14.353 14.353 0 0 1-4.668 3.119 14.354 14.354 0 0 1-5.506 1.095 14.353 14.353 0 0 1-5.506-1.095 14.354 14.354 0 0 1-4.667-3.119 14.352 14.352 0 0 1-3.12-4.668 14.35 14.35 0 0 1-1.095-5.506 14.351 14.351 0 0 1 1.096-5.506 14.354 14.354 0 0 1 3.119-4.667 14.353 14.353 0 0 1 4.667-3.12 14.353 14.353 0 0 1 5.506-1.095 14.353 14.353 0 0 1 5.506 1.096 14.354 14.354 0 0 1 4.668 3.119 14.352 14.352 0 0 1 3.119 4.667 14.352 14.352 0 0 1 1.095 5.506z" stroke-width=".72017"/><use xlink:href="#m" transform="matrix(10.79087 0 0 -10.79087 246.432 61.148)"/><use xlink:href="#f" transform="matrix(8.9924 0 0 -8.9924 254.462 64.149)"/><path stroke-miterlimit="10" fill="none" stroke="#000" d="M252.867 73.018v45.775" stroke-width=".72017"/><path d="m252.867 122.574-2.52-5.034 2.52 1.253 2.52-1.253-2.52 5.034z"/><path stroke-miterlimit="10" fill="none" stroke="#000" d="m252.867 122.574-2.52-5.034 2.52 1.253 2.52-1.253-2.52 5.034z" stroke-width=".72017"/><path d="M180.928 58.63a14.355 14.355 0 0 1-1.095 5.505 14.354 14.354 0 0 1-3.12 4.668 14.353 14.353 0 0 1-4.667 3.119 14.354 14.354 0 0 1-5.506 1.095 14.353 14.353 0 0 1-5.506-1.095 14.352 14.352 0 0 1-4.668-3.119 14.354 14.354 0 0 1-3.119-4.668 14.353 14.353 0 0 1-1.095-5.506 14.353 14.353 0 0 1 1.095-5.506 14.353 14.353 0 0 1 3.12-4.667 14.353 14.353 0 0 1 4.667-3.12 14.353 14.353 0 0 1 5.506-1.095 14.353 14.353 0 0 1 5.506 1.096 14.354 14.354 0 0 1 4.668 3.119 14.353 14.353 0 0 1 3.119 4.667 14.353 14.353 0 0 1 1.095 5.506z" fill="#fff"/><path fill="none" stroke="#000" d="M180.928 58.63a14.355 14.355 0 0 1-1.095 5.505 14.354 14.354 0 0 1-3.12 4.668 14.353 14.353 0 0 1-4.667 3.119 14.354 14.354 0 0 1-5.506 1.095 14.353 14.353 0 0 1-5.506-1.095 14.352 14.352 0 0 1-4.668-3.119 14.354 14.354 0 0 1-3.119-4.668 14.353 14.353 0 0 1-1.095-5.506 14.353 14.353 0 0 1 1.095-5.506 14.353 14.353 0 0 1 3.12-4.667 14.353 14.353 0 0 1 4.667-3.12 14.353 14.353 0 0 1 5.506-1.095 14.353 14.353 0 0 1 5.506 1.096 14.354 14.354 0 0 1 4.668 3.119 14.353 14.353 0 0 1 3.119 4.667 14.353 14.353 0 0 1 1.095 5.506z" stroke-width=".72017"/><use xlink:href="#m" transform="matrix(10.79087 0 0 -10.79087 160.105 61.148)"/><use xlink:href="#g" transform="matrix(8.9924 0 0 -8.9924 168.425 64.026)"/><path d="M165.46 73.018v8.633h-.72v-8.633m.72 17.266v8.632h-.72v-8.632m.72 17.265v8.633h-.72v-8.633M165.1 122.574l-2.514-5.034 2.514 1.253 2.52-1.253-2.52 5.034z"/><path stroke-miterlimit="10" fill="none" stroke="#000" d="m165.1 122.574-2.514-5.034 2.514 1.253 2.52-1.253-2.52 5.034z" stroke-width=".72017"/><path d="M339.093 328.4a13.637 13.637 0 0 1-1.04 5.23 13.634 13.634 0 0 1-2.963 4.434 13.634 13.634 0 0 1-4.435 2.963 13.637 13.637 0 0 1-5.23 1.04 13.638 13.638 0 0 1-5.231-1.04 13.635 13.635 0 0 1-4.434-2.963 13.636 13.636 0 0 1-2.963-4.434 13.636 13.636 0 0 1-1.04-5.23 13.635 13.635 0 0 1 1.04-5.232 13.634 13.634 0 0 1 2.963-4.434 13.633 13.633 0 0 1 4.434-2.963 13.638 13.638 0 0 1 5.23-1.04 13.639 13.639 0 0 1 5.231 1.04 13.638 13.638 0 0 1 4.435 2.963 13.635 13.635 0 0 1 2.963 4.434 13.636 13.636 0 0 1 1.04 5.231z" fill="#f5f5f5"/><path fill="none" stroke="#000" d="M339.093 328.4a13.637 13.637 0 0 1-1.04 5.23 13.634 13.634 0 0 1-2.963 4.434 13.634 13.634 0 0 1-4.435 2.963 13.637 13.637 0 0 1-5.23 1.04 13.638 13.638 0 0 1-5.231-1.04 13.635 13.635 0 0 1-4.434-2.963 13.636 13.636 0 0 1-2.963-4.434 13.636 13.636 0 0 1-1.04-5.23 13.635 13.635 0 0 1 1.04-5.232 13.634 13.634 0 0 1 2.963-4.434 13.633 13.633 0 0 1 4.434-2.963 13.638 13.638 0 0 1 5.23-1.04 13.639 13.639 0 0 1 5.231 1.04 13.638 13.638 0 0 1 4.435 2.963 13.635 13.635 0 0 1 2.963 4.434 13.636 13.636 0 0 1 1.04 5.231z" stroke-width=".72017"/><use xlink:href="#q" transform="matrix(10.79087 0 0 -10.79087 319.509 330.92)"/><use xlink:href="#g" transform="matrix(8.9924 0 0 -8.9924 327.107 333.798)"/><path d="m315.454 318.924-1.134-1.837.613-.378 1.133 1.836m-2.88-3.294-1.134-1.836.613-.379 1.134 1.837m-2.88-3.295-1.135-1.836.613-.378 1.134 1.836m-2.88-3.294-1.135-1.836.613-.379 1.134 1.836m-2.88-3.294-1.134-1.836.612-.378 1.134 1.836m-2.88-3.294-1.134-1.837.612-.378 1.134 1.836m-2.88-3.294-1.134-1.836.613-.379 1.134 1.837m-2.881-3.295-1.134-1.836.613-.378 1.134 1.836m-2.88-3.294-1.135-1.836.613-.379 1.134 1.837"/><path d="m294.357 284.08 4.789 2.96-2.802.252-1.483 2.39-.504-5.602z"/><path stroke-miterlimit="10" fill="none" stroke="#000" d="m294.357 284.08 4.789 2.96-2.802.252-1.483 2.39-.504-5.602z" stroke-width=".72017"/><path d="m316.04 338.298-1.36 1.676-.56-.454 1.36-1.676m-2.16 3.805-1.36 1.676-.56-.454 1.36-1.676m-2.16 3.806-1.36 1.675-.56-.454 1.36-1.675m-2.161 3.805-1.36 1.676-.56-.454 1.36-1.676m-2.16 3.805-1.36 1.676-.56-.454 1.36-1.676m-2.16 3.805-1.36 1.676-.56-.454 1.36-1.675m-2.16 3.805-1.36 1.675-.56-.453 1.36-1.676m-2.16 3.805-1.361 1.676-.56-.454 1.36-1.676m-2.16 3.805-1.36 1.676-.56-.454 1.36-1.675m-2.16 3.805-1.315 1.62-.56-.455 1.315-1.62"/><path d="m287.58 372.783 1.217-5.495 1.166 2.564 2.744.612-5.127 2.32z"/><path stroke-miterlimit="10" fill="none" stroke="#000" d="m287.58 372.783 1.217-5.495 1.166 2.564 2.744.612-5.127 2.32z" stroke-width=".72017"/><path d="M71.578 273.73a13.636 13.636 0 0 1-1.04 5.231 13.636 13.636 0 0 1-2.964 4.435 13.636 13.636 0 0 1-4.434 2.963 13.636 13.636 0 0 1-5.23 1.04 13.635 13.635 0 0 1-5.232-1.04 13.635 13.635 0 0 1-4.434-2.963 13.635 13.635 0 0 1-2.963-4.435 13.635 13.635 0 0 1-1.04-5.23 13.636 13.636 0 0 1 1.04-5.231 13.634 13.634 0 0 1 2.963-4.434 13.637 13.637 0 0 1 4.434-2.963 13.637 13.637 0 0 1 5.231-1.04 13.636 13.636 0 0 1 5.23 1.04 13.636 13.636 0 0 1 4.435 2.963 13.636 13.636 0 0 1 2.963 4.434 13.636 13.636 0 0 1 1.04 5.23z" fill="#fff"/><path fill="none" stroke="#000" d="M71.578 273.73a13.636 13.636 0 0 1-1.04 5.231 13.636 13.636 0 0 1-2.964 4.435 13.636 13.636 0 0 1-4.434 2.963 13.636 13.636 0 0 1-5.23 1.04 13.635 13.635 0 0 1-5.232-1.04 13.635 13.635 0 0 1-4.434-2.963 13.635 13.635 0 0 1-2.963-4.435 13.635 13.635 0 0 1-1.04-5.23 13.636 13.636 0 0 1 1.04-5.231 13.634 13.634 0 0 1 2.963-4.434 13.637 13.637 0 0 1 4.434-2.963 13.637 13.637 0 0 1 5.231-1.04 13.636 13.636 0 0 1 5.23 1.04 13.636 13.636 0 0 1 4.435 2.963 13.636 13.636 0 0 1 2.963 4.434 13.636 13.636 0 0 1 1.04 5.23z" stroke-width=".72017"/><use xlink:href="#m" transform="matrix(10.79087 0 0 -10.79087 51.477 276.246)"/><use xlink:href="#g" transform="matrix(8.9924 0 0 -8.9924 59.796 279.124)"/><path d="M126.455 273.73a13.636 13.636 0 0 1-1.04 5.231 13.636 13.636 0 0 1-2.964 4.435 13.635 13.635 0 0 1-4.434 2.963 13.636 13.636 0 0 1-5.23 1.04 13.635 13.635 0 0 1-5.231-1.04 13.635 13.635 0 0 1-4.435-2.963 13.635 13.635 0 0 1-2.963-4.435 13.636 13.636 0 0 1-1.04-5.23 13.636 13.636 0 0 1 1.04-5.231 13.634 13.634 0 0 1 2.963-4.434 13.636 13.636 0 0 1 4.435-2.963 13.637 13.637 0 0 1 5.23-1.04 13.636 13.636 0 0 1 5.231 1.04 13.637 13.637 0 0 1 4.434 2.963 13.636 13.636 0 0 1 2.963 4.434 13.635 13.635 0 0 1 1.04 5.23z" fill="#fff"/><path fill="none" stroke="#000" d="M126.455 273.73a13.636 13.636 0 0 1-1.04 5.231 13.636 13.636 0 0 1-2.964 4.435 13.635 13.635 0 0 1-4.434 2.963 13.636 13.636 0 0 1-5.23 1.04 13.635 13.635 0 0 1-5.231-1.04 13.635 13.635 0 0 1-4.435-2.963 13.635 13.635 0 0 1-2.963-4.435 13.636 13.636 0 0 1-1.04-5.23 13.636 13.636 0 0 1 1.04-5.231 13.634 13.634 0 0 1 2.963-4.434 13.636 13.636 0 0 1 4.435-2.963 13.637 13.637 0 0 1 5.23-1.04 13.636 13.636 0 0 1 5.231 1.04 13.637 13.637 0 0 1 4.434 2.963 13.636 13.636 0 0 1 2.963 4.434 13.635 13.635 0 0 1 1.04 5.23z" stroke-width=".72017"/><use xlink:href="#m" transform="matrix(10.79087 0 0 -10.79087 106.15 276.246)"/><use xlink:href="#n" transform="matrix(8.9924 0 0 -8.9924 114.097 279.124)"/><path d="M99.016 328.4a13.635 13.635 0 0 1-1.04 5.23 13.636 13.636 0 0 1-2.963 4.434 13.634 13.634 0 0 1-4.435 2.963 13.637 13.637 0 0 1-5.23 1.04 13.638 13.638 0 0 1-5.23-1.04 13.636 13.636 0 0 1-4.435-2.963 13.636 13.636 0 0 1-2.963-4.434 13.636 13.636 0 0 1-1.04-5.23 13.636 13.636 0 0 1 1.04-5.232 13.635 13.635 0 0 1 2.963-4.434 13.634 13.634 0 0 1 4.434-2.963 13.638 13.638 0 0 1 5.23-1.04 13.639 13.639 0 0 1 5.231 1.04 13.637 13.637 0 0 1 4.435 2.963 13.637 13.637 0 0 1 2.963 4.434 13.636 13.636 0 0 1 1.04 5.231z" fill="#fff"/><path fill="none" stroke="#000" d="M99.016 328.4a13.635 13.635 0 0 1-1.04 5.23 13.636 13.636 0 0 1-2.963 4.434 13.634 13.634 0 0 1-4.435 2.963 13.637 13.637 0 0 1-5.23 1.04 13.638 13.638 0 0 1-5.23-1.04 13.636 13.636 0 0 1-4.435-2.963 13.636 13.636 0 0 1-2.963-4.434 13.636 13.636 0 0 1-1.04-5.23 13.636 13.636 0 0 1 1.04-5.232 13.635 13.635 0 0 1 2.963-4.434 13.634 13.634 0 0 1 4.434-2.963 13.638 13.638 0 0 1 5.23-1.04 13.639 13.639 0 0 1 5.231 1.04 13.637 13.637 0 0 1 4.435 2.963 13.637 13.637 0 0 1 2.963 4.434 13.636 13.636 0 0 1 1.04 5.231z" stroke-width=".72017"/><use xlink:href="#m" transform="matrix(10.79087 0 0 -10.79087 78.813 330.92)"/><use xlink:href="#p" transform="matrix(8.9924 0 0 -8.9924 86.685 333.925)"/><path d="M153.893 383.075a13.636 13.636 0 0 1-1.04 5.23 13.637 13.637 0 0 1-2.963 4.435 13.634 13.634 0 0 1-4.434 2.963 13.636 13.636 0 0 1-5.231 1.04 13.632 13.632 0 0 1-5.23-1.04 13.634 13.634 0 0 1-4.435-2.963 13.641 13.641 0 0 1-2.963-4.435 13.636 13.636 0 0 1-1.04-5.23 13.636 13.636 0 0 1 1.04-5.231 13.637 13.637 0 0 1 2.963-4.434 13.64 13.64 0 0 1 4.434-2.963 13.635 13.635 0 0 1 5.231-1.04 13.637 13.637 0 0 1 5.23 1.04 13.639 13.639 0 0 1 4.435 2.963 13.637 13.637 0 0 1 2.963 4.434 13.637 13.637 0 0 1 1.04 5.23z" fill="#fff"/><path fill="none" stroke="#000" d="M153.893 383.075a13.636 13.636 0 0 1-1.04 5.23 13.637 13.637 0 0 1-2.963 4.435 13.634 13.634 0 0 1-4.434 2.963 13.636 13.636 0 0 1-5.231 1.04 13.632 13.632 0 0 1-5.23-1.04 13.634 13.634 0 0 1-4.435-2.963 13.641 13.641 0 0 1-2.963-4.435 13.636 13.636 0 0 1-1.04-5.23 13.636 13.636 0 0 1 1.04-5.231 13.637 13.637 0 0 1 2.963-4.434 13.64 13.64 0 0 1 4.434-2.963 13.635 13.635 0 0 1 5.231-1.04 13.637 13.637 0 0 1 5.23 1.04 13.639 13.639 0 0 1 4.435 2.963 13.637 13.637 0 0 1 2.963 4.434 13.637 13.637 0 0 1 1.04 5.23z" stroke-width=".72017"/><use xlink:href="#m" transform="matrix(10.79087 0 0 -10.79087 133.487 385.594)"/><use xlink:href="#o" transform="matrix(8.9924 0 0 -8.9924 141.438 388.471)"/><path d="M181.332 328.4a13.636 13.636 0 0 1-1.04 5.23 13.636 13.636 0 0 1-2.963 4.434 13.634 13.634 0 0 1-4.435 2.963 13.637 13.637 0 0 1-5.23 1.04 13.638 13.638 0 0 1-5.231-1.04 13.635 13.635 0 0 1-4.434-2.963 13.635 13.635 0 0 1-2.963-4.434 13.636 13.636 0 0 1-1.04-5.23 13.636 13.636 0 0 1 1.04-5.232 13.636 13.636 0 0 1 2.963-4.434 13.634 13.634 0 0 1 4.434-2.963 13.638 13.638 0 0 1 5.23-1.04 13.639 13.639 0 0 1 5.231 1.04 13.637 13.637 0 0 1 4.435 2.963 13.636 13.636 0 0 1 2.963 4.434 13.634 13.634 0 0 1 1.04 5.231z" fill="#fff"/><path fill="none" stroke="#000" d="M181.332 328.4a13.636 13.636 0 0 1-1.04 5.23 13.636 13.636 0 0 1-2.963 4.434 13.634 13.634 0 0 1-4.435 2.963 13.637 13.637 0 0 1-5.23 1.04 13.638 13.638 0 0 1-5.231-1.04 13.635 13.635 0 0 1-4.434-2.963 13.635 13.635 0 0 1-2.963-4.434 13.636 13.636 0 0 1-1.04-5.23 13.636 13.636 0 0 1 1.04-5.232 13.636 13.636 0 0 1 2.963-4.434 13.634 13.634 0 0 1 4.434-2.963 13.638 13.638 0 0 1 5.23-1.04 13.639 13.639 0 0 1 5.231 1.04 13.637 13.637 0 0 1 4.435 2.963 13.636 13.636 0 0 1 2.963 4.434 13.634 13.634 0 0 1 1.04 5.231z" stroke-width=".72017"/><use xlink:href="#m" transform="matrix(10.79087 0 0 -10.79087 161.543 330.92)"/><use xlink:href="#f" transform="matrix(8.9924 0 0 -8.9924 169.574 333.92)"/><path d="M215.627 383.075a13.637 13.637 0 0 1-1.04 5.23 13.636 13.636 0 0 1-2.964 4.435 13.635 13.635 0 0 1-4.434 2.963 13.635 13.635 0 0 1-5.23 1.04 13.631 13.631 0 0 1-5.231-1.04 13.633 13.633 0 0 1-4.435-2.963 13.64 13.64 0 0 1-2.963-4.435 13.636 13.636 0 0 1-1.04-5.23 13.636 13.636 0 0 1 1.04-5.231 13.637 13.637 0 0 1 2.963-4.434 13.64 13.64 0 0 1 4.435-2.963 13.635 13.635 0 0 1 5.23-1.04 13.637 13.637 0 0 1 5.23 1.04 13.638 13.638 0 0 1 4.435 2.963 13.637 13.637 0 0 1 2.963 4.434 13.637 13.637 0 0 1 1.04 5.23z" fill="#fff"/><path fill="none" stroke="#000" d="M215.627 383.075a13.637 13.637 0 0 1-1.04 5.23 13.636 13.636 0 0 1-2.964 4.435 13.635 13.635 0 0 1-4.434 2.963 13.635 13.635 0 0 1-5.23 1.04 13.631 13.631 0 0 1-5.231-1.04 13.633 13.633 0 0 1-4.435-2.963 13.64 13.64 0 0 1-2.963-4.435 13.636 13.636 0 0 1-1.04-5.23 13.636 13.636 0 0 1 1.04-5.231 13.637 13.637 0 0 1 2.963-4.434 13.64 13.64 0 0 1 4.435-2.963 13.635 13.635 0 0 1 5.23-1.04 13.637 13.637 0 0 1 5.23 1.04 13.638 13.638 0 0 1 4.435 2.963 13.637 13.637 0 0 1 2.963 4.434 13.637 13.637 0 0 1 1.04 5.23z" stroke-width=".72017"/><use xlink:href="#m" transform="matrix(10.79087 0 0 -10.79087 195.355 385.594)"/><symbol id="r"><path d="M.433.69V.675A.465.465 0 0 1 .29.618.276.276 0 0 1 .206.532.418.418 0 0 1 .158.407c.015.01.026.016.036.019.021.006.042.01.064.01A.16.16 0 0 0 .38.38a.208.208 0 0 0 .05-.147.269.269 0 0 0-.027-.12A.2.2 0 0 0 .222 0 .205.205 0 0 0 .11.033a.224.224 0 0 0-.081.098.34.34 0 0 0-.029.14.42.42 0 0 0 .053.208.398.398 0 0 0 .152.152.453.453 0 0 0 .228.058M.152.367A1.904 1.904 0 0 1 .148.27C.148.224.152.18.16.139a.198.198 0 0 1 .035-.09.05.05 0 0 1 .038-.017c.015 0 .029.008.04.026.012.017.018.053.018.106 0 .09-.01.152-.033.186a.064.064 0 0 1-.056.033.119.119 0 0 1-.051-.016z"/></symbol><use xlink:href="#r" transform="matrix(8.9924 0 0 -8.9924 203.416 388.594)"/><path d="M256.785 328.4a13.637 13.637 0 0 1-1.04 5.23 13.635 13.635 0 0 1-2.964 4.434 13.636 13.636 0 0 1-4.434 2.963 13.637 13.637 0 0 1-5.23 1.04 13.638 13.638 0 0 1-5.232-1.04 13.636 13.636 0 0 1-4.434-2.963 13.635 13.635 0 0 1-2.963-4.434 13.636 13.636 0 0 1-1.04-5.23 13.634 13.634 0 0 1 1.04-5.232 13.635 13.635 0 0 1 2.963-4.434 13.634 13.634 0 0 1 4.434-2.963 13.638 13.638 0 0 1 5.231-1.04 13.639 13.639 0 0 1 5.23 1.04 13.638 13.638 0 0 1 4.435 2.963 13.636 13.636 0 0 1 2.963 4.434 13.634 13.634 0 0 1 1.04 5.231z" fill="#fff"/><path fill="none" stroke="#000" d="M256.785 328.4a13.637 13.637 0 0 1-1.04 5.23 13.635 13.635 0 0 1-2.964 4.434 13.636 13.636 0 0 1-4.434 2.963 13.637 13.637 0 0 1-5.23 1.04 13.638 13.638 0 0 1-5.232-1.04 13.636 13.636 0 0 1-4.434-2.963 13.635 13.635 0 0 1-2.963-4.434 13.636 13.636 0 0 1-1.04-5.23 13.634 13.634 0 0 1 1.04-5.232 13.635 13.635 0 0 1 2.963-4.434 13.634 13.634 0 0 1 4.434-2.963 13.638 13.638 0 0 1 5.231-1.04 13.639 13.639 0 0 1 5.23 1.04 13.638 13.638 0 0 1 4.435 2.963 13.636 13.636 0 0 1 2.963 4.434 13.634 13.634 0 0 1 1.04 5.231z" stroke-width=".72017"/><use xlink:href="#m" transform="matrix(10.79087 0 0 -10.79087 236.36 330.92)"/><symbol id="s"><path d="m.144 0 .18.546H.187a.272.272 0 0 1-.122-.02A.11.11 0 0 1 .02.47H0l.048.206h.394L.22 0H.144z"/></symbol><use xlink:href="#s" transform="matrix(8.9924 0 0 -8.9924 244.39 333.92)"/><path d="M236.202 273.73a13.635 13.635 0 0 1-1.04 5.231 13.636 13.636 0 0 1-2.963 4.435 13.635 13.635 0 0 1-4.435 2.963 13.636 13.636 0 0 1-5.23 1.04 13.635 13.635 0 0 1-5.231-1.04 13.634 13.634 0 0 1-4.434-2.963 13.636 13.636 0 0 1-2.963-4.435 13.637 13.637 0 0 1-1.04-5.23 13.633 13.633 0 0 1 1.04-5.231 13.635 13.635 0 0 1 2.963-4.434 13.636 13.636 0 0 1 4.434-2.963 13.637 13.637 0 0 1 5.23-1.04 13.636 13.636 0 0 1 5.231 1.04 13.635 13.635 0 0 1 4.435 2.963 13.635 13.635 0 0 1 2.963 4.434 13.637 13.637 0 0 1 1.04 5.23z" fill="#fff"/><path fill="none" stroke="#000" d="M236.202 273.73a13.635 13.635 0 0 1-1.04 5.231 13.636 13.636 0 0 1-2.963 4.435 13.635 13.635 0 0 1-4.435 2.963 13.636 13.636 0 0 1-5.23 1.04 13.635 13.635 0 0 1-5.231-1.04 13.634 13.634 0 0 1-4.434-2.963 13.636 13.636 0 0 1-2.963-4.435 13.637 13.637 0 0 1-1.04-5.23 13.633 13.633 0 0 1 1.04-5.231 13.635 13.635 0 0 1 2.963-4.434 13.636 13.636 0 0 1 4.434-2.963 13.637 13.637 0 0 1 5.23-1.04 13.636 13.636 0 0 1 5.231 1.04 13.635 13.635 0 0 1 4.435 2.963 13.635 13.635 0 0 1 2.963 4.434 13.637 13.637 0 0 1 1.04 5.23z" stroke-width=".72017"/><use xlink:href="#m" transform="matrix(10.79087 0 0 -10.79087 216.217 276.246)"/><symbol id="t"><path d="M0 0v.014c.054.012.1.03.137.054a.279.279 0 0 1 .09.09.354.354 0 0 1 .046.122A.307.307 0 0 0 .22.258.165.165 0 0 0 .177.252.164.164 0 0 0 .05.307a.211.211 0 0 0-.05.148c0 .044.01.084.027.12a.2.2 0 0 0 .078.084A.2.2 0 0 0 .32.656.231.231 0 0 0 .403.56c.02-.042.03-.09.03-.143a.425.425 0 0 0-.05-.2.38.38 0 0 0-.149-.154A.495.495 0 0 0 0 0m.28.321C.284.358.285.39.285.417c0 .06-.007.115-.02.166A.125.125 0 0 1 .23.646a.046.046 0 0 1-.032.01.043.043 0 0 1-.038-.02C.147.615.141.578.141.525c0-.09.01-.153.032-.187A.064.064 0 0 1 .23.306C.243.306.26.31.28.32z"/></symbol><use xlink:href="#t" transform="matrix(8.9924 0 0 -8.9924 224.221 279.247)"/><path d="M297.935 273.73a13.635 13.635 0 0 1-1.04 5.231 13.636 13.636 0 0 1-2.963 4.435 13.634 13.634 0 0 1-4.434 2.963 13.636 13.636 0 0 1-5.231 1.04 13.635 13.635 0 0 1-5.23-1.04 13.634 13.634 0 0 1-4.435-2.963 13.636 13.636 0 0 1-2.963-4.435 13.633 13.633 0 0 1-1.04-5.23 13.633 13.633 0 0 1 1.04-5.231 13.636 13.636 0 0 1 2.963-4.434 13.636 13.636 0 0 1 4.434-2.963 13.637 13.637 0 0 1 5.23-1.04 13.636 13.636 0 0 1 5.232 1.04 13.635 13.635 0 0 1 4.434 2.963 13.635 13.635 0 0 1 2.963 4.434 13.637 13.637 0 0 1 1.04 5.23z" fill="#fff"/><path fill="none" stroke="#000" d="M297.935 273.73a13.635 13.635 0 0 1-1.04 5.231 13.636 13.636 0 0 1-2.963 4.435 13.634 13.634 0 0 1-4.434 2.963 13.636 13.636 0 0 1-5.231 1.04 13.635 13.635 0 0 1-5.23-1.04 13.634 13.634 0 0 1-4.435-2.963 13.636 13.636 0 0 1-2.963-4.435 13.633 13.633 0 0 1-1.04-5.23 13.633 13.633 0 0 1 1.04-5.231 13.636 13.636 0 0 1 2.963-4.434 13.636 13.636 0 0 1 4.434-2.963 13.637 13.637 0 0 1 5.23-1.04 13.636 13.636 0 0 1 5.232 1.04 13.635 13.635 0 0 1 4.434 2.963 13.635 13.635 0 0 1 2.963 4.434 13.637 13.637 0 0 1 1.04 5.23z" stroke-width=".72017"/><use xlink:href="#m" transform="matrix(10.79087 0 0 -10.79087 275.837 276.246)"/><use xlink:href="#g" transform="matrix(8.9924 0 0 -8.9924 284.157 279.124)"/><use xlink:href="#h" transform="matrix(8.9924 0 0 -8.9924 288.385 279.247)"/><path d="M291.08 383.075a13.636 13.636 0 0 1-1.041 5.23 13.636 13.636 0 0 1-2.963 4.435 13.634 13.634 0 0 1-4.435 2.963 13.636 13.636 0 0 1-5.23 1.04 13.632 13.632 0 0 1-5.23-1.04 13.633 13.633 0 0 1-4.435-2.963 13.64 13.64 0 0 1-2.963-4.435 13.638 13.638 0 0 1-1.04-5.23 13.637 13.637 0 0 1 1.04-5.231 13.637 13.637 0 0 1 2.963-4.434 13.64 13.64 0 0 1 4.434-2.963 13.635 13.635 0 0 1 5.23-1.04 13.636 13.636 0 0 1 5.232 1.04 13.638 13.638 0 0 1 4.434 2.963 13.637 13.637 0 0 1 2.963 4.434 13.635 13.635 0 0 1 1.04 5.23z" fill="#fff"/><path fill="none" stroke="#000" d="M291.08 383.075a13.636 13.636 0 0 1-1.041 5.23 13.636 13.636 0 0 1-2.963 4.435 13.634 13.634 0 0 1-4.435 2.963 13.636 13.636 0 0 1-5.23 1.04 13.632 13.632 0 0 1-5.23-1.04 13.633 13.633 0 0 1-4.435-2.963 13.64 13.64 0 0 1-2.963-4.435 13.638 13.638 0 0 1-1.04-5.23 13.637 13.637 0 0 1 1.04-5.231 13.637 13.637 0 0 1 2.963-4.434 13.64 13.64 0 0 1 4.434-2.963 13.635 13.635 0 0 1 5.23-1.04 13.636 13.636 0 0 1 5.232 1.04 13.638 13.638 0 0 1 4.434 2.963 13.637 13.637 0 0 1 2.963 4.434 13.635 13.635 0 0 1 1.04 5.23z" stroke-width=".72017"/><use xlink:href="#m" transform="matrix(10.79087 0 0 -10.79087 270.891 385.594)"/><symbol id="u"><path d="M.306.388A.362.362 0 0 0 .402.292.187.187 0 0 0 .43.191.177.177 0 0 0 .37.055.232.232 0 0 0 .205 0a.22.22 0 0 0-.152.048A.153.153 0 0 0 0 .167C0 .202.01.233.03.26c.022.026.056.05.104.073a.412.412 0 0 0-.1.098A.174.174 0 0 0 .01.52c0 .044.019.083.056.116.038.034.09.051.155.051.063 0 .112-.015.146-.045A.137.137 0 0 0 .39.452.24.24 0 0 0 .306.388M.269.413a.171.171 0 0 1 .026.054c.006.02.01.043.01.067A.15.15 0 0 1 .276.63.068.068 0 0 1 .22.657.074.074 0 0 1 .165.633.08.08 0 0 1 .142.574C.142.55.15.526.167.5A.367.367 0 0 1 .269.413M.17.31A.106.106 0 0 1 .149.285.293.293 0 0 1 .135.09.087.087 0 0 1 .17.044.084.084 0 0 1 .214.03a.08.08 0 0 1 .06.026.102.102 0 0 1 .024.072c0 .063-.042.123-.127.18z"/></symbol><use xlink:href="#u" transform="matrix(8.9924 0 0 -8.9924 278.934 388.594)"/><path stroke-miterlimit="10" fill="none" stroke="#000" d="M158.474 383.075h29.815" stroke-width=".72017"/><path d="m154.693 383.075 5.041-2.514-1.26 2.514 1.26 2.52-5.04-2.52z"/><path stroke-miterlimit="10" fill="none" stroke="#000" d="m154.693 383.075 5.041-2.514-1.26 2.514 1.26 2.52-5.04-2.52zM57.91 287.4l15.512 27.352" stroke-width=".72017"/><path d="m75.287 318.036-4.674-3.133 2.809-.151 1.57-2.334.295 5.618z"/><path stroke-miterlimit="10" fill="none" stroke="#000" d="m75.287 318.036-4.674-3.133 2.809-.151 1.57-2.334.295 5.618zM110.525 291.382l-15.513 27.352" stroke-width=".72017"/><path d="m112.39 288.098-.295 5.625-1.57-2.34-2.809-.145 4.674-3.14z"/><path stroke-miterlimit="10" fill="none" stroke="#000" d="m112.39 288.098-.295 5.625-1.57-2.34-2.809-.145 4.674-3.14zM233.451 338.071l-19.423 31.443" stroke-width=".72017"/><path d="m212.048 372.726.497-5.603 1.483 2.39 2.802.253-4.782 2.96z"/><path stroke-miterlimit="10" fill="none" stroke="#000" d="m212.048 372.726.497-5.603 1.483 2.39 2.802.253-4.782 2.96zM95.012 338.071l29.362 36.65" stroke-width=".72017"/><path d="m126.736 377.666-5.113-2.355 2.751-.59 1.181-2.564 1.181 5.51z"/><path stroke-miterlimit="10" fill="none" stroke="#000" d="m126.736 377.666-5.113-2.355 2.751-.59 1.181-2.564 1.181 5.51zM270.598 273.73h-29.815" stroke-width=".72017"/><path d="m237.01 273.73 5.033-2.52-1.26 2.52 1.26 2.514-5.034-2.513z"/><path stroke-miterlimit="10" fill="none" stroke="#000" d="m237.01 273.73 5.033-2.52-1.26 2.52 1.26 2.514-5.034-2.513zM177.328 338.071l21.8 27.734" stroke-width=".72017"/><path d="m201.461 368.772-5.091-2.398 2.758-.57 1.203-2.541 1.13 5.509z"/><path stroke-miterlimit="10" fill="none" stroke="#000" d="m201.461 368.772-5.091-2.398 2.758-.57 1.203-2.541 1.13 5.509zM140.225 369.406l15.513-27.352" stroke-width=".72017"/><path d="m157.596 338.77-.289 5.617-1.57-2.333-2.815-.152 4.674-3.132z"/><path stroke-miterlimit="10" fill="none" stroke="#000" d="m157.596 338.77-.289 5.617-1.57-2.333-2.815-.152 4.674-3.132zM252.78 338.071l13.18 31.119" stroke-width=".72017"/><path d="m267.43 372.668-4.279-3.651 2.81.173 1.828-2.14-.36 5.618z"/><path stroke-miterlimit="10" fill="none" stroke="#000" d="m267.43 372.668-4.279-3.651 2.81.173 1.828-2.14-.36 5.618zM222.534 287.4l9.405 27.013" stroke-width=".72017"/><path d="m233.185 317.978-4.033-3.925 2.787.36 1.966-2.016-.72 5.581z"/><path stroke-miterlimit="10" fill="none" stroke="#000" d="m233.185 317.978-4.033-3.925 2.787.36 1.966-2.016-.72 5.581z" stroke-width=".72017"/><path d="M188.188 273.73a13.636 13.636 0 0 1-1.04 5.231 13.636 13.636 0 0 1-2.963 4.435 13.636 13.636 0 0 1-4.435 2.963 13.636 13.636 0 0 1-5.23 1.04 13.635 13.635 0 0 1-5.231-1.04 13.635 13.635 0 0 1-4.434-2.963 13.634 13.634 0 0 1-2.963-4.435 13.636 13.636 0 0 1-1.04-5.23 13.637 13.637 0 0 1 1.04-5.231 13.636 13.636 0 0 1 2.963-4.434 13.636 13.636 0 0 1 4.434-2.963 13.637 13.637 0 0 1 5.23-1.04 13.636 13.636 0 0 1 5.231 1.04 13.637 13.637 0 0 1 4.435 2.963 13.635 13.635 0 0 1 2.963 4.434 13.634 13.634 0 0 1 1.04 5.23z" fill="#f5f5f5"/><path fill="none" stroke="#000" d="M188.188 273.73a13.636 13.636 0 0 1-1.04 5.231 13.636 13.636 0 0 1-2.963 4.435 13.636 13.636 0 0 1-4.435 2.963 13.636 13.636 0 0 1-5.23 1.04 13.635 13.635 0 0 1-5.231-1.04 13.635 13.635 0 0 1-4.434-2.963 13.634 13.634 0 0 1-2.963-4.435 13.636 13.636 0 0 1-1.04-5.23 13.637 13.637 0 0 1 1.04-5.231 13.636 13.636 0 0 1 2.963-4.434 13.636 13.636 0 0 1 4.434-2.963 13.637 13.637 0 0 1 5.23-1.04 13.636 13.636 0 0 1 5.231 1.04 13.637 13.637 0 0 1 4.435 2.963 13.635 13.635 0 0 1 2.963 4.434 13.634 13.634 0 0 1 1.04 5.23z" stroke-width=".72017"/><use xlink:href="#q" transform="matrix(10.79087 0 0 -10.79087 168.437 276.246)"/><use xlink:href="#n" transform="matrix(8.9924 0 0 -8.9924 175.661 279.124)"/><path d="m174.869 287.487-.526 2.094-.698-.176.525-2.093m-.352 4.362-.525 2.093-.699-.175.525-2.094m-.352 4.362-.525 2.093-.699-.175.526-2.093m-.353 4.362-.525 2.093-.699-.175.526-2.094m-.353 4.362-.525 2.093-.699-.175.526-2.093m-.353 4.362-.492 1.962-.699-.176.493-1.962"/><path d="m167.858 313.952-1.217-5.494 2.132 1.836 2.75-.612-3.665 4.27z"/><path stroke-miterlimit="10" fill="none" stroke="#000" d="m167.858 313.952-1.217-5.494 2.132 1.836 2.75-.612-3.665 4.27z" stroke-width=".72017"/><path d="M160.85 274.09h-2.157v-.72h2.158m-4.317.72h-2.158v-.72h2.158m-4.316.72h-2.158v-.72h2.158m-4.316.72h-2.158v-.72h2.158m-4.317.72h-2.158v-.72h2.158m-4.316.72h-2.158v-.72h2.158m-4.316.72h-2.159v-.72h2.159M127.262 273.73l5.034-2.52-1.26 2.52 1.26 2.514-5.034-2.513z"/><path stroke-miterlimit="10" fill="none" stroke="#000" d="m127.262 273.73 5.034-2.52-1.26 2.52 1.26 2.514-5.034-2.513z" stroke-width=".72017"/><path d="M346.39 29.858V1.08h316.53v28.778" fill="#f5f5f5"/><path stroke-miterlimit="10" fill="none" stroke="#666" d="M346.39 29.858V1.08h316.53v28.778M346.39 29.858v402.858h316.53V29.858M346.39 29.858h316.53" stroke-width=".72017"/><symbol id="v"><path d="M.439.676V.15c0-.035 0-.056.003-.063A.04.04 0 0 1 .457.063a.08.08 0 0 1 .038-.01V.039L.302 0v.072A.238.238 0 0 0 .24.015.122.122 0 0 0 .18 0 .157.157 0 0 0 .04.078.281.281 0 0 0 0 .234c0 .049.008.093.025.132.017.039.04.068.07.088.03.02.061.03.095.03A.128.128 0 0 0 .248.47.195.195 0 0 0 .302.427v.137a.246.246 0 0 1-.004.063.042.042 0 0 1-.018.021.097.097 0 0 1-.044.007v.02H.44M.302.367C.278.412.25.436.214.436a.045.045 0 0 1-.03-.01.111.111 0 0 1-.03-.053.445.445 0 0 1-.01-.117c0-.058.003-.1.012-.128A.124.124 0 0 1 .19.068a.047.047 0 0 1 .031-.01c.029 0 .056.023.081.068v.24z"/></symbol><symbol id="w"><path d="M.186.457v-.06a.263.263 0 0 0 .067.056.143.143 0 0 0 .07.017.11.11 0 0 0 .073-.025.117.117 0 0 0 .04-.06.473.473 0 0 0 .007-.108V.1c0-.036.003-.058.01-.066C.459.025.473.02.493.018V0H.262v.018c.017.002.03.009.037.021.005.008.008.028.008.06v.204a.332.332 0 0 1-.005.07.041.041 0 0 1-.015.023.036.036 0 0 1-.023.008C.236.404.21.384.186.344V.1c0-.035.003-.056.01-.065C.201.025.213.02.23.018V0H0v.018C.02.02.033.026.041.036.047.043.049.064.049.1v.257C.05.392.046.413.04.422.034.43.02.436 0 .438v.019h.186z"/></symbol><use xlink:href="#v" transform="matrix(14.38783 0 0 -14.38783 487.65 20.34)" fill="#333"/><use xlink:href="#l" transform="matrix(14.38783 0 0 -14.38783 495.65 20.34)" fill="#333"/><use xlink:href="#w" transform="matrix(14.38783 0 0 -14.38783 501.975 20.143)" fill="#333"/><use xlink:href="#i" transform="matrix(14.38783 0 0 -14.38783 510.052 20.34)" fill="#333"/><use xlink:href="#l" transform="matrix(14.38783 0 0 -14.38783 515.635 20.34)" fill="#333"/><path d="M501.06 137.762a14.36 14.36 0 0 1-1.096 5.506 14.353 14.353 0 0 1-3.119 4.668 14.354 14.354 0 0 1-4.667 3.119 14.356 14.356 0 0 1-5.506 1.095 14.354 14.354 0 0 1-5.506-1.095 14.351 14.351 0 0 1-4.668-3.12 14.354 14.354 0 0 1-3.119-4.667 14.353 14.353 0 0 1-1.095-5.506 14.347 14.347 0 0 1 1.095-5.506 14.352 14.352 0 0 1 3.119-4.668 14.352 14.352 0 0 1 4.668-3.119 14.353 14.353 0 0 1 5.506-1.095 14.354 14.354 0 0 1 5.506 1.095 14.353 14.353 0 0 1 4.667 3.12 14.35 14.35 0 0 1 3.12 4.667 14.352 14.352 0 0 1 1.094 5.506z" fill="#fff"/><path fill="none" stroke="#000" d="M501.06 137.762a14.36 14.36 0 0 1-1.096 5.506 14.353 14.353 0 0 1-3.119 4.668 14.354 14.354 0 0 1-4.667 3.119 14.356 14.356 0 0 1-5.506 1.095 14.354 14.354 0 0 1-5.506-1.095 14.351 14.351 0 0 1-4.668-3.12 14.354 14.354 0 0 1-3.119-4.667 14.353 14.353 0 0 1-1.095-5.506 14.347 14.347 0 0 1 1.095-5.506 14.352 14.352 0 0 1 3.119-4.668 14.352 14.352 0 0 1 4.668-3.119 14.353 14.353 0 0 1 5.506-1.095 14.354 14.354 0 0 1 5.506 1.095 14.353 14.353 0 0 1 4.667 3.12 14.35 14.35 0 0 1 3.12 4.667 14.352 14.352 0 0 1 1.094 5.506z" stroke-width=".72017"/><use xlink:href="#m" transform="matrix(10.79087 0 0 -10.79087 480.234 140.281)"/><use xlink:href="#n" transform="matrix(8.9924 0 0 -8.9924 488.18 143.159)"/><path d="M587.387 137.762a14.36 14.36 0 0 1-1.096 5.506 14.354 14.354 0 0 1-3.118 4.668 14.354 14.354 0 0 1-4.668 3.119 14.355 14.355 0 0 1-5.506 1.095 14.355 14.355 0 0 1-5.506-1.095 14.354 14.354 0 0 1-4.668-3.12 14.36 14.36 0 0 1-3.119-4.667 14.352 14.352 0 0 1-1.095-5.506 14.354 14.354 0 0 1 1.095-5.506 14.353 14.353 0 0 1 3.12-4.668 14.353 14.353 0 0 1 4.667-3.119 14.354 14.354 0 0 1 5.506-1.095 14.354 14.354 0 0 1 5.506 1.095 14.356 14.356 0 0 1 4.668 3.12 14.354 14.354 0 0 1 3.118 4.667 14.352 14.352 0 0 1 1.096 5.506z" fill="#fff"/><path fill="none" stroke="#000" d="M587.387 137.762a14.36 14.36 0 0 1-1.096 5.506 14.354 14.354 0 0 1-3.118 4.668 14.354 14.354 0 0 1-4.668 3.119 14.355 14.355 0 0 1-5.506 1.095 14.355 14.355 0 0 1-5.506-1.095 14.354 14.354 0 0 1-4.668-3.12 14.36 14.36 0 0 1-3.119-4.667 14.352 14.352 0 0 1-1.095-5.506 14.354 14.354 0 0 1 1.095-5.506 14.353 14.353 0 0 1 3.12-4.668 14.353 14.353 0 0 1 4.667-3.119 14.354 14.354 0 0 1 5.506-1.095 14.354 14.354 0 0 1 5.506 1.095 14.356 14.356 0 0 1 4.668 3.12 14.354 14.354 0 0 1 3.118 4.667 14.352 14.352 0 0 1 1.096 5.506z" stroke-width=".72017"/><use xlink:href="#m" transform="matrix(10.79087 0 0 -10.79087 566.56 140.281)"/><use xlink:href="#o" transform="matrix(8.9924 0 0 -8.9924 574.512 143.159)"/><path stroke-miterlimit="10" fill="none" stroke="#000" d="M558.61 137.762H505.64" stroke-width=".72017"/><path d="m501.86 137.762 5.034-2.513-1.253 2.513 1.253 2.52-5.034-2.52z"/><path stroke-miterlimit="10" fill="none" stroke="#000" d="m501.86 137.762 5.034-2.513-1.253 2.513 1.253 2.52-5.034-2.52z" stroke-width=".72017"/><path d="M544.22 195.318a14.36 14.36 0 0 1-1.096 5.506 14.351 14.351 0 0 1-3.119 4.668 14.353 14.353 0 0 1-4.667 3.119 14.354 14.354 0 0 1-5.506 1.095 14.352 14.352 0 0 1-5.506-1.095 14.354 14.354 0 0 1-4.668-3.119 14.357 14.357 0 0 1-3.119-4.668 14.356 14.356 0 0 1-1.095-5.506 14.355 14.355 0 0 1 1.095-5.506 14.353 14.353 0 0 1 3.119-4.667 14.354 14.354 0 0 1 4.668-3.12 14.353 14.353 0 0 1 5.506-1.095 14.354 14.354 0 0 1 5.506 1.096 14.353 14.353 0 0 1 4.667 3.119 14.353 14.353 0 0 1 3.12 4.667 14.354 14.354 0 0 1 1.094 5.506z" fill="#fff"/><path fill="none" stroke="#000" d="M544.22 195.318a14.36 14.36 0 0 1-1.096 5.506 14.351 14.351 0 0 1-3.119 4.668 14.353 14.353 0 0 1-4.667 3.119 14.354 14.354 0 0 1-5.506 1.095 14.352 14.352 0 0 1-5.506-1.095 14.354 14.354 0 0 1-4.668-3.119 14.357 14.357 0 0 1-3.119-4.668 14.356 14.356 0 0 1-1.095-5.506 14.355 14.355 0 0 1 1.095-5.506 14.353 14.353 0 0 1 3.119-4.667 14.354 14.354 0 0 1 4.668-3.12 14.353 14.353 0 0 1 5.506-1.095 14.354 14.354 0 0 1 5.506 1.096 14.353 14.353 0 0 1 4.667 3.119 14.353 14.353 0 0 1 3.12 4.667 14.354 14.354 0 0 1 1.094 5.506z" stroke-width=".72017"/><use xlink:href="#m" transform="matrix(10.79087 0 0 -10.79087 523.397 197.833)"/><use xlink:href="#p" transform="matrix(8.9924 0 0 -8.9924 531.27 200.838)"/><path stroke-miterlimit="10" fill="none" stroke="#000" d="m496.84 147.938 20.425 33.3" stroke-width=".72017"/><path d="m519.238 184.458-4.782-2.981 2.809-.238 1.49-2.391.483 5.61z"/><path stroke-miterlimit="10" fill="none" stroke="#000" d="m519.238 184.458-4.782-2.981 2.809-.238 1.49-2.391.483 5.61zM540.008 185.142l20.417-33.3" stroke-width=".72017"/><path d="m562.405 148.622-.49 5.61-1.49-2.39-2.802-.245 4.782-2.975z"/><path stroke-miterlimit="10" fill="none" stroke="#000" d="m562.405 148.622-.49 5.61-1.49-2.39-2.802-.245 4.782-2.975z" stroke-width=".72017"/><path d="M429.114 94.602a14.349 14.349 0 0 1-1.095 5.506 14.353 14.353 0 0 1-3.119 4.668 14.35 14.35 0 0 1-4.668 3.119 14.353 14.353 0 0 1-5.506 1.095 14.352 14.352 0 0 1-5.506-1.095 14.352 14.352 0 0 1-4.667-3.12 14.354 14.354 0 0 1-3.12-4.667 14.349 14.349 0 0 1-1.095-5.506 14.353 14.353 0 0 1 1.096-5.506 14.35 14.35 0 0 1 3.119-4.668 14.352 14.352 0 0 1 4.667-3.119 14.353 14.353 0 0 1 5.506-1.095 14.352 14.352 0 0 1 5.506 1.095 14.351 14.351 0 0 1 4.668 3.12 14.35 14.35 0 0 1 3.119 4.667 14.352 14.352 0 0 1 1.095 5.506z" fill="#f5f5f5"/><path fill="none" stroke="#000" d="M429.114 94.602a14.349 14.349 0 0 1-1.095 5.506 14.353 14.353 0 0 1-3.119 4.668 14.35 14.35 0 0 1-4.668 3.119 14.353 14.353 0 0 1-5.506 1.095 14.352 14.352 0 0 1-5.506-1.095 14.352 14.352 0 0 1-4.667-3.12 14.354 14.354 0 0 1-3.12-4.667 14.349 14.349 0 0 1-1.095-5.506 14.353 14.353 0 0 1 1.096-5.506 14.35 14.35 0 0 1 3.119-4.668 14.352 14.352 0 0 1 4.667-3.119 14.353 14.353 0 0 1 5.506-1.095 14.352 14.352 0 0 1 5.506 1.095 14.351 14.351 0 0 1 4.668 3.12 14.35 14.35 0 0 1 3.119 4.667 14.352 14.352 0 0 1 1.095 5.506z" stroke-width=".72017"/><use xlink:href="#q" transform="matrix(10.79087 0 0 -10.79087 408.713 97.118)"/><use xlink:href="#g" transform="matrix(8.9924 0 0 -8.9924 416.311 99.995)"/><path d="m424.73 84.11 1.896-1.032.344.632-1.895 1.032m3.446-2.696 1.895-1.033.345.633-1.896 1.032m3.447-2.697 1.895-1.032.345.633-1.896 1.032m3.447-2.697 1.895-1.032.344.633-1.895 1.032m3.446-2.697 1.896-1.032.344.632-1.895 1.033m3.446-2.697 1.896-1.032.344.632-1.895 1.032m3.446-2.696 1.895-1.032.345.632-1.896 1.032m3.447-2.696 1.895-1.032.345.632-1.896 1.032m3.447-2.697 1.895-1.032.344.633-1.895 1.032m3.446-2.697 1.896-1.032.344.633-1.895 1.032m3.446-2.697 1.896-1.032.344.633-1.895 1.032m3.446-2.697 1.656-.902.344.633-1.656.901"/><path d="m471.577 59.018-3.22 4.617-.1-2.816-2.312-1.606 5.632-.195z"/><path stroke-miterlimit="10" fill="none" stroke="#000" d="m471.577 59.018-3.22 4.617-.1-2.816-2.312-1.606 5.632-.195z" stroke-width=".72017"/><path d="m425.108 104.475 1.771 1.234-.411.59-1.771-1.233m3.953 1.876 1.771 1.233-.411.591-1.771-1.233m3.953 1.876 1.771 1.233-.411.591L431.78 110m3.953 1.875 1.771 1.234-.411.59-1.771-1.233m3.954 1.876 1.77 1.233-.411.591-1.771-1.233m3.954 1.876 1.77 1.233-.41.591-1.772-1.233m3.954 1.875 1.77 1.234-.41.59-1.772-1.233m3.954 1.876 1.77 1.233-.41.591-1.772-1.233m3.954 1.876 1.771 1.233-.412.591-1.77-1.233m3.953 1.875 1.771 1.234-.411.59-1.771-1.233m3.953 1.876 1.771 1.233-.411.591-1.771-1.233m3.953 1.876 1.771 1.233-.411.59-1.771-1.232m3.953 1.875 1.116.777-.411.591-1.116-.777"/><path d="m471.62 137.301-5.567-.807 2.47-1.346.404-2.787 2.693 4.94z"/><path stroke-miterlimit="10" fill="none" stroke="#000" d="m471.62 137.301-5.567-.807 2.47-1.346.404-2.787 2.693 4.94z" stroke-width=".72017"/><path d="M587.387 58.63a14.36 14.36 0 0 1-1.096 5.505 14.354 14.354 0 0 1-3.118 4.668 14.354 14.354 0 0 1-4.668 3.119 14.355 14.355 0 0 1-5.506 1.095 14.353 14.353 0 0 1-5.506-1.095 14.355 14.355 0 0 1-4.668-3.119 14.358 14.358 0 0 1-3.119-4.668 14.352 14.352 0 0 1-1.095-5.506 14.354 14.354 0 0 1 1.095-5.506 14.354 14.354 0 0 1 3.12-4.667 14.354 14.354 0 0 1 4.667-3.12 14.354 14.354 0 0 1 5.506-1.095 14.353 14.353 0 0 1 5.506 1.096 14.356 14.356 0 0 1 4.668 3.119 14.354 14.354 0 0 1 3.118 4.667 14.353 14.353 0 0 1 1.096 5.506z" fill="#fff"/><path fill="none" stroke="#000" d="M587.387 58.63a14.36 14.36 0 0 1-1.096 5.505 14.354 14.354 0 0 1-3.118 4.668 14.354 14.354 0 0 1-4.668 3.119 14.355 14.355 0 0 1-5.506 1.095 14.353 14.353 0 0 1-5.506-1.095 14.355 14.355 0 0 1-4.668-3.119 14.358 14.358 0 0 1-3.119-4.668 14.352 14.352 0 0 1-1.095-5.506 14.354 14.354 0 0 1 1.095-5.506 14.354 14.354 0 0 1 3.12-4.667 14.354 14.354 0 0 1 4.667-3.12 14.354 14.354 0 0 1 5.506-1.095 14.353 14.353 0 0 1 5.506 1.096 14.356 14.356 0 0 1 4.668 3.119 14.354 14.354 0 0 1 3.118 4.667 14.353 14.353 0 0 1 1.096 5.506z" stroke-width=".72017"/><use xlink:href="#m" transform="matrix(10.79087 0 0 -10.79087 566.56 61.148)"/><use xlink:href="#f" transform="matrix(8.9924 0 0 -8.9924 574.591 64.149)"/><path stroke-miterlimit="10" fill="none" stroke="#000" d="M572.999 73.018v45.775" stroke-width=".72017"/><path d="m572.999 122.574-2.52-5.034 2.52 1.253 2.513-1.253-2.513 5.034z"/><path stroke-miterlimit="10" fill="none" stroke="#000" d="m572.999 122.574-2.52-5.034 2.52 1.253 2.513-1.253-2.513 5.034zM501.054 58.63h52.975" stroke-width=".72017"/><path d="m557.803 58.63-5.034 2.52 1.26-2.52-1.26-2.514 5.034 2.513z"/><path stroke-miterlimit="10" fill="none" stroke="#000" d="m557.803 58.63-5.034 2.52 1.26-2.52-1.26-2.514 5.034 2.513z" stroke-width=".72017"/><path d="M501.06 58.63a14.36 14.36 0 0 1-1.096 5.505 14.353 14.353 0 0 1-3.119 4.668 14.354 14.354 0 0 1-4.667 3.119 14.356 14.356 0 0 1-5.506 1.095 14.353 14.353 0 0 1-5.506-1.095 14.352 14.352 0 0 1-4.668-3.119 14.353 14.353 0 0 1-3.119-4.668 14.353 14.353 0 0 1-1.095-5.506 14.347 14.347 0 0 1 1.095-5.506 14.352 14.352 0 0 1 3.119-4.667 14.352 14.352 0 0 1 4.668-3.12 14.353 14.353 0 0 1 5.506-1.095 14.353 14.353 0 0 1 5.506 1.096 14.353 14.353 0 0 1 4.667 3.119 14.35 14.35 0 0 1 3.12 4.667 14.353 14.353 0 0 1 1.094 5.506z" fill="#fff"/><path fill="none" stroke="#000" d="M501.06 58.63a14.36 14.36 0 0 1-1.096 5.505 14.353 14.353 0 0 1-3.119 4.668 14.354 14.354 0 0 1-4.667 3.119 14.356 14.356 0 0 1-5.506 1.095 14.353 14.353 0 0 1-5.506-1.095 14.352 14.352 0 0 1-4.668-3.119 14.353 14.353 0 0 1-3.119-4.668 14.353 14.353 0 0 1-1.095-5.506 14.347 14.347 0 0 1 1.095-5.506 14.352 14.352 0 0 1 3.119-4.667 14.352 14.352 0 0 1 4.668-3.12 14.353 14.353 0 0 1 5.506-1.095 14.353 14.353 0 0 1 5.506 1.096 14.353 14.353 0 0 1 4.667 3.119 14.35 14.35 0 0 1 3.12 4.667 14.353 14.353 0 0 1 1.094 5.506z" stroke-width=".72017"/><use xlink:href="#m" transform="matrix(10.79087 0 0 -10.79087 480.234 61.148)"/><use xlink:href="#g" transform="matrix(8.9924 0 0 -8.9924 488.554 64.026)"/><path d="M486.312 73.018v8.633h-.72v-8.633m.72 17.266v8.632h-.72v-8.632m.72 17.265v8.633h-.72v-8.633M485.951 122.574l-2.52-5.034 2.52 1.253 2.514-1.253-2.514 5.034z"/><path stroke-miterlimit="10" fill="none" stroke="#000" d="m485.951 122.574-2.52-5.034 2.52 1.253 2.514-1.253-2.514 5.034z" stroke-width=".72017"/><path d="M652.03 332.72a13.639 13.639 0 0 1-1.04 5.23 13.63 13.63 0 0 1-2.963 4.435 13.633 13.633 0 0 1-4.435 2.963 13.638 13.638 0 0 1-5.23 1.04 13.634 13.634 0 0 1-5.23-1.04 13.636 13.636 0 0 1-4.435-2.963 13.63 13.63 0 0 1-2.963-4.434 13.634 13.634 0 0 1-1.04-5.23 13.632 13.632 0 0 1 1.04-5.232 13.634 13.634 0 0 1 2.963-4.434 13.636 13.636 0 0 1 4.434-2.963 13.636 13.636 0 0 1 5.23-1.04 13.635 13.635 0 0 1 5.231 1.04 13.63 13.63 0 0 1 4.435 2.963 13.635 13.635 0 0 1 2.963 4.434 13.64 13.64 0 0 1 1.04 5.231z" fill="#f5f5f5"/><path fill="none" stroke="#000" d="M652.03 332.72a13.639 13.639 0 0 1-1.04 5.23 13.63 13.63 0 0 1-2.963 4.435 13.633 13.633 0 0 1-4.435 2.963 13.638 13.638 0 0 1-5.23 1.04 13.634 13.634 0 0 1-5.23-1.04 13.636 13.636 0 0 1-4.435-2.963 13.63 13.63 0 0 1-2.963-4.434 13.634 13.634 0 0 1-1.04-5.23 13.632 13.632 0 0 1 1.04-5.232 13.634 13.634 0 0 1 2.963-4.434 13.636 13.636 0 0 1 4.434-2.963 13.636 13.636 0 0 1 5.23-1.04 13.635 13.635 0 0 1 5.231 1.04 13.63 13.63 0 0 1 4.435 2.963 13.635 13.635 0 0 1 2.963 4.434 13.64 13.64 0 0 1 1.04 5.231z" stroke-width=".72017"/><use xlink:href="#q" transform="matrix(10.79087 0 0 -10.79087 632.444 335.236)"/><use xlink:href="#g" transform="matrix(8.9924 0 0 -8.9924 640.042 338.114)"/><path d="m628.39 323.245-1.133-1.837.612-.378 1.134 1.836m-2.88-3.294-1.134-1.836.612-.378 1.134 1.836m-2.88-3.294-1.134-1.836.612-.379 1.134 1.836m-2.88-3.294-1.134-1.836.612-.378 1.134 1.836m-2.88-3.294-1.135-1.836.613-.379 1.134 1.836m-2.88-3.294-1.135-1.836.613-.378 1.134 1.836m-2.88-3.294-1.135-1.836.613-.379 1.134 1.837m-2.88-3.294-1.135-1.837.613-.378 1.134 1.836m-2.88-3.294-1.135-1.836.613-.379 1.134 1.837"/><path d="m607.294 288.393 4.789 2.96-2.809.252-1.476 2.399-.504-5.61z"/><path stroke-miterlimit="10" fill="none" stroke="#000" d="m607.294 288.393 4.789 2.96-2.809.252-1.476 2.399-.504-5.61z" stroke-width=".72017"/><path d="m628.977 342.612-1.36 1.675-.56-.453 1.36-1.676m-2.16 3.805-1.36 1.676-.56-.454 1.36-1.676m-2.161 3.805-1.36 1.676-.56-.454 1.36-1.676m-2.16 3.806-1.36 1.675-.56-.454 1.36-1.675m-2.16 3.805-1.36 1.675-.56-.454 1.36-1.675m-2.161 3.805-1.36 1.676-.56-.454 1.36-1.676m-2.16 3.805-1.36 1.676-.56-.454 1.36-1.676m-2.16 3.805-1.36 1.676-.56-.454 1.36-1.675m-2.16 3.805-1.361 1.675-.56-.454 1.361-1.675m-2.161 3.805-1.321 1.627-.56-.454 1.322-1.627"/><path d="m600.517 377.104 1.217-5.494 1.16 2.563 2.75.605-5.127 2.326z"/><path stroke-miterlimit="10" fill="none" stroke="#000" d="m600.517 377.104 1.217-5.494 1.16 2.563 2.75.605-5.127 2.326z" stroke-width=".72017"/><path d="M384.515 278.045a13.642 13.642 0 0 1-1.04 5.23 13.636 13.636 0 0 1-2.964 4.435 13.63 13.63 0 0 1-4.434 2.963 13.637 13.637 0 0 1-5.23 1.04 13.635 13.635 0 0 1-5.232-1.04 13.634 13.634 0 0 1-4.434-2.963 13.637 13.637 0 0 1-2.963-4.435 13.635 13.635 0 0 1-1.04-5.23 13.638 13.638 0 0 1 1.04-5.231 13.636 13.636 0 0 1 2.963-4.435 13.636 13.636 0 0 1 4.434-2.962 13.636 13.636 0 0 1 5.231-1.04 13.636 13.636 0 0 1 5.23 1.04 13.638 13.638 0 0 1 4.435 2.962 13.633 13.633 0 0 1 2.963 4.435 13.638 13.638 0 0 1 1.04 5.23z" fill="#fff"/><path fill="none" stroke="#000" d="M384.515 278.045a13.642 13.642 0 0 1-1.04 5.23 13.636 13.636 0 0 1-2.964 4.435 13.63 13.63 0 0 1-4.434 2.963 13.637 13.637 0 0 1-5.23 1.04 13.635 13.635 0 0 1-5.232-1.04 13.634 13.634 0 0 1-4.434-2.963 13.637 13.637 0 0 1-2.963-4.435 13.635 13.635 0 0 1-1.04-5.23 13.638 13.638 0 0 1 1.04-5.231 13.636 13.636 0 0 1 2.963-4.435 13.636 13.636 0 0 1 4.434-2.962 13.636 13.636 0 0 1 5.231-1.04 13.636 13.636 0 0 1 5.23 1.04 13.638 13.638 0 0 1 4.435 2.962 13.633 13.633 0 0 1 2.963 4.435 13.638 13.638 0 0 1 1.04 5.23z" stroke-width=".72017"/><use xlink:href="#m" transform="matrix(10.79087 0 0 -10.79087 364.412 280.563)"/><use xlink:href="#g" transform="matrix(8.9924 0 0 -8.9924 372.732 283.44)"/><path d="M439.392 278.045a13.637 13.637 0 0 1-1.04 5.23 13.635 13.635 0 0 1-2.964 4.435 13.634 13.634 0 0 1-4.434 2.963 13.636 13.636 0 0 1-5.23 1.04 13.635 13.635 0 0 1-5.231-1.04 13.637 13.637 0 0 1-4.435-2.963 13.632 13.632 0 0 1-2.963-4.435 13.638 13.638 0 0 1-1.04-5.23 13.633 13.633 0 0 1 1.04-5.231 13.635 13.635 0 0 1 2.963-4.435 13.633 13.633 0 0 1 4.435-2.962 13.634 13.634 0 0 1 5.23-1.04 13.635 13.635 0 0 1 5.231 1.04 13.636 13.636 0 0 1 4.434 2.962 13.634 13.634 0 0 1 2.963 4.435 13.636 13.636 0 0 1 1.04 5.23z" fill="#fff"/><path fill="none" stroke="#000" d="M439.392 278.045a13.637 13.637 0 0 1-1.04 5.23 13.635 13.635 0 0 1-2.964 4.435 13.634 13.634 0 0 1-4.434 2.963 13.636 13.636 0 0 1-5.23 1.04 13.635 13.635 0 0 1-5.231-1.04 13.637 13.637 0 0 1-4.435-2.963 13.632 13.632 0 0 1-2.963-4.435 13.638 13.638 0 0 1-1.04-5.23 13.633 13.633 0 0 1 1.04-5.231 13.635 13.635 0 0 1 2.963-4.435 13.633 13.633 0 0 1 4.435-2.962 13.634 13.634 0 0 1 5.23-1.04 13.635 13.635 0 0 1 5.231 1.04 13.636 13.636 0 0 1 4.434 2.962 13.634 13.634 0 0 1 2.963 4.435 13.636 13.636 0 0 1 1.04 5.23z" stroke-width=".72017"/><use xlink:href="#m" transform="matrix(10.79087 0 0 -10.79087 419.086 280.563)"/><use xlink:href="#n" transform="matrix(8.9924 0 0 -8.9924 427.032 283.44)"/><path stroke-miterlimit="10" fill="none" stroke="#000" d="M384.515 278.045h22.96" stroke-width=".72017"/><path d="m411.248 278.045-5.034 2.52 1.26-2.52-1.26-2.521 5.034 2.52z"/><path stroke-miterlimit="10" fill="none" stroke="#000" d="m411.248 278.045-5.034 2.52 1.26-2.52-1.26-2.521 5.034 2.52zM411.954 332.72h50.39" stroke-width=".72017"/><path d="m466.125 332.72-5.041 2.514 1.26-2.514-1.26-2.52 5.041 2.52z"/><path stroke-miterlimit="10" fill="none" stroke="#000" d="m466.125 332.72-5.041 2.514 1.26-2.514-1.26-2.52 5.041 2.52z" stroke-width=".72017"/><path d="M411.953 332.72a13.637 13.637 0 0 1-1.04 5.23 13.639 13.639 0 0 1-2.963 4.435 13.633 13.633 0 0 1-4.435 2.963 13.637 13.637 0 0 1-5.23 1.04 13.634 13.634 0 0 1-5.231-1.04 13.634 13.634 0 0 1-4.434-2.963 13.638 13.638 0 0 1-2.963-4.434 13.636 13.636 0 0 1-1.04-5.23 13.632 13.632 0 0 1 1.04-5.232 13.638 13.638 0 0 1 2.963-4.434 13.635 13.635 0 0 1 4.434-2.963 13.636 13.636 0 0 1 5.23-1.04 13.635 13.635 0 0 1 5.231 1.04 13.632 13.632 0 0 1 4.435 2.963 13.633 13.633 0 0 1 2.963 4.434 13.64 13.64 0 0 1 1.04 5.231z" fill="#fff"/><path fill="none" stroke="#000" d="M411.953 332.72a13.637 13.637 0 0 1-1.04 5.23 13.639 13.639 0 0 1-2.963 4.435 13.633 13.633 0 0 1-4.435 2.963 13.637 13.637 0 0 1-5.23 1.04 13.634 13.634 0 0 1-5.231-1.04 13.634 13.634 0 0 1-4.434-2.963 13.638 13.638 0 0 1-2.963-4.434 13.636 13.636 0 0 1-1.04-5.23 13.632 13.632 0 0 1 1.04-5.232 13.638 13.638 0 0 1 2.963-4.434 13.635 13.635 0 0 1 4.434-2.963 13.636 13.636 0 0 1 5.23-1.04 13.635 13.635 0 0 1 5.231 1.04 13.632 13.632 0 0 1 4.435 2.963 13.633 13.633 0 0 1 2.963 4.434 13.64 13.64 0 0 1 1.04 5.231z" stroke-width=".72017"/><use xlink:href="#m" transform="matrix(10.79087 0 0 -10.79087 391.749 335.236)"/><use xlink:href="#p" transform="matrix(8.9924 0 0 -8.9924 399.62 338.241)"/><path d="M466.83 387.396a13.641 13.641 0 0 1-1.04 5.23 13.639 13.639 0 0 1-2.963 4.435 13.633 13.633 0 0 1-4.434 2.963 13.641 13.641 0 0 1-5.231 1.04 13.637 13.637 0 0 1-5.23-1.04 13.635 13.635 0 0 1-4.435-2.963 13.636 13.636 0 0 1-2.963-4.435 13.633 13.633 0 0 1-1.04-5.23 13.636 13.636 0 0 1 1.04-5.231 13.638 13.638 0 0 1 2.963-4.434 13.64 13.64 0 0 1 4.434-2.963 13.637 13.637 0 0 1 5.231-1.04 13.636 13.636 0 0 1 5.23 1.04 13.636 13.636 0 0 1 4.435 2.963 13.636 13.636 0 0 1 2.963 4.434 13.633 13.633 0 0 1 1.04 5.23z" fill="#fff"/><path fill="none" stroke="#000" d="M466.83 387.396a13.641 13.641 0 0 1-1.04 5.23 13.639 13.639 0 0 1-2.963 4.435 13.633 13.633 0 0 1-4.434 2.963 13.641 13.641 0 0 1-5.231 1.04 13.637 13.637 0 0 1-5.23-1.04 13.635 13.635 0 0 1-4.435-2.963 13.636 13.636 0 0 1-2.963-4.435 13.633 13.633 0 0 1-1.04-5.23 13.636 13.636 0 0 1 1.04-5.231 13.638 13.638 0 0 1 2.963-4.434 13.64 13.64 0 0 1 4.434-2.963 13.637 13.637 0 0 1 5.231-1.04 13.636 13.636 0 0 1 5.23 1.04 13.636 13.636 0 0 1 4.435 2.963 13.636 13.636 0 0 1 2.963 4.434 13.633 13.633 0 0 1 1.04 5.23z" stroke-width=".72017"/><use xlink:href="#m" transform="matrix(10.79087 0 0 -10.79087 446.423 389.91)"/><use xlink:href="#o" transform="matrix(8.9924 0 0 -8.9924 454.374 392.788)"/><path d="M494.262 332.72a13.637 13.637 0 0 1-1.04 5.23 13.634 13.634 0 0 1-2.964 4.435 13.633 13.633 0 0 1-4.434 2.963 13.636 13.636 0 0 1-5.23 1.04 13.635 13.635 0 0 1-5.231-1.04 13.636 13.636 0 0 1-4.435-2.963 13.632 13.632 0 0 1-2.963-4.434 13.633 13.633 0 0 1-1.04-5.23 13.633 13.633 0 0 1 1.04-5.232 13.634 13.634 0 0 1 2.963-4.434 13.632 13.632 0 0 1 4.435-2.963 13.636 13.636 0 0 1 5.23-1.04 13.636 13.636 0 0 1 5.231 1.04 13.633 13.633 0 0 1 4.434 2.963 13.635 13.635 0 0 1 2.963 4.434 13.634 13.634 0 0 1 1.04 5.231z" fill="#fff"/><path fill="none" stroke="#000" d="M494.262 332.72a13.637 13.637 0 0 1-1.04 5.23 13.634 13.634 0 0 1-2.964 4.435 13.633 13.633 0 0 1-4.434 2.963 13.636 13.636 0 0 1-5.23 1.04 13.635 13.635 0 0 1-5.231-1.04 13.636 13.636 0 0 1-4.435-2.963 13.632 13.632 0 0 1-2.963-4.434 13.633 13.633 0 0 1-1.04-5.23 13.633 13.633 0 0 1 1.04-5.232 13.634 13.634 0 0 1 2.963-4.434 13.632 13.632 0 0 1 4.435-2.963 13.636 13.636 0 0 1 5.23-1.04 13.636 13.636 0 0 1 5.231 1.04 13.633 13.633 0 0 1 4.434 2.963 13.635 13.635 0 0 1 2.963 4.434 13.634 13.634 0 0 1 1.04 5.231z" stroke-width=".72017"/><use xlink:href="#m" transform="matrix(10.79087 0 0 -10.79087 474.479 335.236)"/><use xlink:href="#f" transform="matrix(8.9924 0 0 -8.9924 482.509 338.237)"/><path d="M528.564 387.396a13.639 13.639 0 0 1-1.04 5.23 13.64 13.64 0 0 1-2.964 4.435 13.636 13.636 0 0 1-4.434 2.963 13.64 13.64 0 0 1-5.23 1.04 13.637 13.637 0 0 1-5.231-1.04 13.634 13.634 0 0 1-4.435-2.963 13.633 13.633 0 0 1-2.963-4.435 13.634 13.634 0 0 1-1.04-5.23 13.633 13.633 0 0 1 1.04-5.231 13.634 13.634 0 0 1 2.963-4.434 13.64 13.64 0 0 1 4.435-2.963 13.639 13.639 0 0 1 5.23-1.04 13.637 13.637 0 0 1 5.23 1.04 13.636 13.636 0 0 1 4.435 2.963 13.636 13.636 0 0 1 2.963 4.434 13.64 13.64 0 0 1 1.04 5.23z" fill="#fff"/><path fill="none" stroke="#000" d="M528.564 387.396a13.639 13.639 0 0 1-1.04 5.23 13.64 13.64 0 0 1-2.964 4.435 13.636 13.636 0 0 1-4.434 2.963 13.64 13.64 0 0 1-5.23 1.04 13.637 13.637 0 0 1-5.231-1.04 13.634 13.634 0 0 1-4.435-2.963 13.633 13.633 0 0 1-2.963-4.435 13.634 13.634 0 0 1-1.04-5.23 13.633 13.633 0 0 1 1.04-5.231 13.634 13.634 0 0 1 2.963-4.434 13.64 13.64 0 0 1 4.435-2.963 13.639 13.639 0 0 1 5.23-1.04 13.637 13.637 0 0 1 5.23 1.04 13.636 13.636 0 0 1 4.435 2.963 13.636 13.636 0 0 1 2.963 4.434 13.64 13.64 0 0 1 1.04 5.23z" stroke-width=".72017"/><use xlink:href="#m" transform="matrix(10.79087 0 0 -10.79087 508.29 389.91)"/><use xlink:href="#r" transform="matrix(8.9924 0 0 -8.9924 516.351 392.91)"/><path d="M569.714 332.72a13.64 13.64 0 0 1-1.04 5.23 13.635 13.635 0 0 1-2.963 4.435 13.636 13.636 0 0 1-4.434 2.963 13.636 13.636 0 0 1-5.231 1.04 13.636 13.636 0 0 1-5.23-1.04 13.634 13.634 0 0 1-4.435-2.963 13.638 13.638 0 0 1-2.963-4.434 13.634 13.634 0 0 1-1.04-5.23 13.635 13.635 0 0 1 1.04-5.232 13.635 13.635 0 0 1 2.963-4.434 13.636 13.636 0 0 1 4.434-2.963 13.636 13.636 0 0 1 5.231-1.04 13.636 13.636 0 0 1 5.23 1.04 13.631 13.631 0 0 1 4.435 2.963 13.632 13.632 0 0 1 2.963 4.434 13.634 13.634 0 0 1 1.04 5.231z" fill="#fff"/><path fill="none" stroke="#000" d="M569.714 332.72a13.64 13.64 0 0 1-1.04 5.23 13.635 13.635 0 0 1-2.963 4.435 13.636 13.636 0 0 1-4.434 2.963 13.636 13.636 0 0 1-5.231 1.04 13.636 13.636 0 0 1-5.23-1.04 13.634 13.634 0 0 1-4.435-2.963 13.638 13.638 0 0 1-2.963-4.434 13.634 13.634 0 0 1-1.04-5.23 13.635 13.635 0 0 1 1.04-5.232 13.635 13.635 0 0 1 2.963-4.434 13.636 13.636 0 0 1 4.434-2.963 13.636 13.636 0 0 1 5.231-1.04 13.636 13.636 0 0 1 5.23 1.04 13.631 13.631 0 0 1 4.435 2.963 13.632 13.632 0 0 1 2.963 4.434 13.634 13.634 0 0 1 1.04 5.231z" stroke-width=".72017"/><use xlink:href="#m" transform="matrix(10.79087 0 0 -10.79087 549.295 335.236)"/><use xlink:href="#s" transform="matrix(8.9924 0 0 -8.9924 557.326 338.237)"/><path d="M549.14 278.045a13.639 13.639 0 0 1-1.041 5.23 13.636 13.636 0 0 1-2.963 4.435 13.636 13.636 0 0 1-4.435 2.963 13.637 13.637 0 0 1-5.23 1.04 13.635 13.635 0 0 1-5.231-1.04 13.636 13.636 0 0 1-4.434-2.963 13.63 13.63 0 0 1-2.963-4.435 13.638 13.638 0 0 1-1.04-5.23 13.629 13.629 0 0 1 1.04-5.231 13.63 13.63 0 0 1 2.963-4.435 13.632 13.632 0 0 1 4.434-2.962 13.635 13.635 0 0 1 5.23-1.04 13.636 13.636 0 0 1 5.231 1.04 13.636 13.636 0 0 1 4.435 2.962 13.635 13.635 0 0 1 2.963 4.435 13.637 13.637 0 0 1 1.04 5.23z" fill="#fff"/><path fill="none" stroke="#000" d="M549.14 278.045a13.639 13.639 0 0 1-1.041 5.23 13.636 13.636 0 0 1-2.963 4.435 13.636 13.636 0 0 1-4.435 2.963 13.637 13.637 0 0 1-5.23 1.04 13.635 13.635 0 0 1-5.231-1.04 13.636 13.636 0 0 1-4.434-2.963 13.63 13.63 0 0 1-2.963-4.435 13.638 13.638 0 0 1-1.04-5.23 13.629 13.629 0 0 1 1.04-5.231 13.63 13.63 0 0 1 2.963-4.435 13.632 13.632 0 0 1 4.434-2.962 13.635 13.635 0 0 1 5.23-1.04 13.636 13.636 0 0 1 5.231 1.04 13.636 13.636 0 0 1 4.435 2.962 13.635 13.635 0 0 1 2.963 4.435 13.637 13.637 0 0 1 1.04 5.23z" stroke-width=".72017"/><use xlink:href="#m" transform="matrix(10.79087 0 0 -10.79087 529.153 280.563)"/><use xlink:href="#t" transform="matrix(8.9924 0 0 -8.9924 537.156 283.563)"/><path d="M610.872 278.045a13.642 13.642 0 0 1-1.04 5.23 13.642 13.642 0 0 1-2.963 4.435 13.633 13.633 0 0 1-4.435 2.963 13.637 13.637 0 0 1-5.23 1.04 13.636 13.636 0 0 1-5.23-1.04 13.637 13.637 0 0 1-4.435-2.963 13.633 13.633 0 0 1-2.963-4.435 13.631 13.631 0 0 1-1.04-5.23 13.635 13.635 0 0 1 1.04-5.231 13.63 13.63 0 0 1 2.963-4.435 13.636 13.636 0 0 1 4.434-2.962 13.635 13.635 0 0 1 5.23-1.04 13.636 13.636 0 0 1 5.231 1.04 13.638 13.638 0 0 1 4.435 2.962 13.64 13.64 0 0 1 2.963 4.435 13.644 13.644 0 0 1 1.04 5.23z" fill="#fff"/><path fill="none" stroke="#000" d="M610.872 278.045a13.642 13.642 0 0 1-1.04 5.23 13.642 13.642 0 0 1-2.963 4.435 13.633 13.633 0 0 1-4.435 2.963 13.637 13.637 0 0 1-5.23 1.04 13.636 13.636 0 0 1-5.23-1.04 13.637 13.637 0 0 1-4.435-2.963 13.633 13.633 0 0 1-2.963-4.435 13.631 13.631 0 0 1-1.04-5.23 13.635 13.635 0 0 1 1.04-5.231 13.63 13.63 0 0 1 2.963-4.435 13.636 13.636 0 0 1 4.434-2.962 13.635 13.635 0 0 1 5.23-1.04 13.636 13.636 0 0 1 5.231 1.04 13.638 13.638 0 0 1 4.435 2.962 13.64 13.64 0 0 1 2.963 4.435 13.644 13.644 0 0 1 1.04 5.23z" stroke-width=".72017"/><use xlink:href="#m" transform="matrix(10.79087 0 0 -10.79087 588.772 280.563)"/><use xlink:href="#g" transform="matrix(8.9924 0 0 -8.9924 597.092 283.44)"/><use xlink:href="#h" transform="matrix(8.9924 0 0 -8.9924 601.32 283.563)"/><path d="M604.016 387.396a13.64 13.64 0 0 1-1.04 5.23 13.63 13.63 0 0 1-2.963 4.435 13.632 13.632 0 0 1-4.435 2.963 13.64 13.64 0 0 1-5.23 1.04 13.637 13.637 0 0 1-5.23-1.04 13.633 13.633 0 0 1-4.435-2.963 13.639 13.639 0 0 1-2.963-4.435 13.634 13.634 0 0 1-1.04-5.23 13.636 13.636 0 0 1 1.04-5.231 13.635 13.635 0 0 1 2.963-4.434 13.64 13.64 0 0 1 4.434-2.963 13.639 13.639 0 0 1 5.23-1.04 13.636 13.636 0 0 1 5.231 1.04 13.639 13.639 0 0 1 4.435 2.963 13.633 13.633 0 0 1 2.963 4.434 13.636 13.636 0 0 1 1.04 5.23z" fill="#fff"/><path fill="none" stroke="#000" d="M604.016 387.396a13.64 13.64 0 0 1-1.04 5.23 13.63 13.63 0 0 1-2.963 4.435 13.632 13.632 0 0 1-4.435 2.963 13.64 13.64 0 0 1-5.23 1.04 13.637 13.637 0 0 1-5.23-1.04 13.633 13.633 0 0 1-4.435-2.963 13.639 13.639 0 0 1-2.963-4.435 13.634 13.634 0 0 1-1.04-5.23 13.636 13.636 0 0 1 1.04-5.231 13.635 13.635 0 0 1 2.963-4.434 13.64 13.64 0 0 1 4.434-2.963 13.639 13.639 0 0 1 5.23-1.04 13.636 13.636 0 0 1 5.231 1.04 13.639 13.639 0 0 1 4.435 2.963 13.633 13.633 0 0 1 2.963 4.434 13.636 13.636 0 0 1 1.04 5.23z" stroke-width=".72017"/><use xlink:href="#m" transform="matrix(10.79087 0 0 -10.79087 583.826 389.91)"/><use xlink:href="#u" transform="matrix(8.9924 0 0 -8.9924 591.87 392.91)"/><path stroke-miterlimit="10" fill="none" stroke="#000" d="M471.411 387.396h29.815" stroke-width=".72017"/><path d="m467.63 387.396 5.034-2.52-1.253 2.52 1.253 2.513-5.034-2.513z"/><path stroke-miterlimit="10" fill="none" stroke="#000" d="m467.63 387.396 5.034-2.52-1.253 2.52 1.253 2.513-5.034-2.513zM370.846 291.713l15.513 27.353" stroke-width=".72017"/><path d="m388.224 322.357-4.674-3.14 2.809-.151 1.57-2.334.295 5.625z"/><path stroke-miterlimit="10" fill="none" stroke="#000" d="m388.224 322.357-4.674-3.14 2.809-.151 1.57-2.334.295 5.625zM423.462 295.696l-15.513 27.36" stroke-width=".72017"/><path d="m425.327 292.412-.295 5.625-1.57-2.341-2.809-.144 4.674-3.14z"/><path stroke-miterlimit="10" fill="none" stroke="#000" d="m425.327 292.412-.295 5.625-1.57-2.341-2.809-.144 4.674-3.14zM546.381 342.385l-19.416 31.443" stroke-width=".72017"/><path d="m524.978 377.047.504-5.61 1.483 2.39 2.802.253-4.79 2.967z"/><path stroke-miterlimit="10" fill="none" stroke="#000" d="m524.978 377.047.504-5.61 1.483 2.39 2.802.253-4.79 2.967zM407.95 342.385l29.361 36.65" stroke-width=".72017"/><path d="m439.673 381.98-5.113-2.355 2.751-.59 1.174-2.557 1.188 5.502z"/><path stroke-miterlimit="10" fill="none" stroke="#000" d="m439.673 381.98-5.113-2.355 2.751-.59 1.174-2.557 1.188 5.502zM583.535 278.045H553.72" stroke-width=".72017"/><path d="m549.946 278.045 5.034-2.521-1.26 2.52 1.26 2.521-5.034-2.52z"/><path stroke-miterlimit="10" fill="none" stroke="#000" d="m549.946 278.045 5.034-2.521-1.26 2.52 1.26 2.521-5.034-2.52zM490.258 342.385l21.807 27.741" stroke-width=".72017"/><path d="m514.398 373.093-5.091-2.405 2.758-.562 1.195-2.55 1.138 5.517z"/><path stroke-miterlimit="10" fill="none" stroke="#000" d="m514.398 373.093-5.091-2.405 2.758-.562 1.195-2.55 1.138 5.517zM453.162 373.727l15.513-27.36" stroke-width=".72017"/><path d="m470.533 343.083-.296 5.625-1.562-2.34-2.816-.145 4.674-3.14z"/><path stroke-miterlimit="10" fill="none" stroke="#000" d="m470.533 343.083-.296 5.625-1.562-2.34-2.816-.145 4.674-3.14zM565.71 342.385l13.18 31.126" stroke-width=".72017"/><path d="m580.366 376.99-4.285-3.66 2.809.18 1.83-2.145-.354 5.624z"/><path stroke-miterlimit="10" fill="none" stroke="#000" d="m580.366 376.99-4.285-3.66 2.809.18 1.83-2.145-.354 5.624zM535.47 291.713l9.406 27.014" stroke-width=".72017"/><path d="m546.122 322.292-4.04-3.925 2.794.36 1.966-2.016-.72 5.581z"/><path stroke-miterlimit="10" fill="none" stroke="#000" d="m546.122 322.292-4.04-3.925 2.794.36 1.966-2.016-.72 5.581z" stroke-width=".72017"/><path d="M624.693 333.08h-2.158v-.72h2.158m-4.316.72h-2.159v-.72h2.159m-4.317.72h-2.158v-.72h2.158m-4.316.72h-2.158v-.72h2.158m-4.316.72h-2.159v-.72h2.159m-4.317.72h-2.158v-.72h2.158m-4.316.72h-2.158v-.72h2.158m-4.317.72h-2.158v-.72h2.158m-4.316.72h-2.158v-.72h2.158m-4.316.72h-2.158v-.72h2.158m-4.317.72h-2.158v-.72h2.158m-4.316.72h-2.158v-.72h2.158"/><path d="m570.521 332.72 5.034-2.52-1.26 2.52 1.26 2.514-5.034-2.514z"/><path stroke-miterlimit="10" fill="none" stroke="#000" d="m570.521 332.72 5.034-2.52-1.26 2.52 1.26 2.514-5.034-2.514z" stroke-width=".72017"/><path d="M501.125 278.045a13.641 13.641 0 0 1-1.04 5.23 13.638 13.638 0 0 1-2.963 4.435 13.638 13.638 0 0 1-4.435 2.963 13.636 13.636 0 0 1-5.23 1.04 13.636 13.636 0 0 1-5.231-1.04 13.633 13.633 0 0 1-4.434-2.963 13.64 13.64 0 0 1-2.963-4.435 13.636 13.636 0 0 1-1.04-5.23 13.637 13.637 0 0 1 1.04-5.231 13.63 13.63 0 0 1 2.963-4.435 13.633 13.633 0 0 1 4.434-2.962 13.635 13.635 0 0 1 5.23-1.04 13.635 13.635 0 0 1 5.231 1.04 13.634 13.634 0 0 1 4.435 2.962 13.64 13.64 0 0 1 2.963 4.435 13.639 13.639 0 0 1 1.04 5.23z" fill="#f5f5f5"/><path fill="none" stroke="#000" d="M501.125 278.045a13.641 13.641 0 0 1-1.04 5.23 13.638 13.638 0 0 1-2.963 4.435 13.638 13.638 0 0 1-4.435 2.963 13.636 13.636 0 0 1-5.23 1.04 13.636 13.636 0 0 1-5.231-1.04 13.633 13.633 0 0 1-4.434-2.963 13.64 13.64 0 0 1-2.963-4.435 13.636 13.636 0 0 1-1.04-5.23 13.637 13.637 0 0 1 1.04-5.231 13.63 13.63 0 0 1 2.963-4.435 13.633 13.633 0 0 1 4.434-2.962 13.635 13.635 0 0 1 5.23-1.04 13.635 13.635 0 0 1 5.231 1.04 13.634 13.634 0 0 1 4.435 2.962 13.64 13.64 0 0 1 2.963 4.435 13.639 13.639 0 0 1 1.04 5.23z" stroke-width=".72017"/><use xlink:href="#q" transform="matrix(10.79087 0 0 -10.79087 481.372 280.563)"/><use xlink:href="#n" transform="matrix(8.9924 0 0 -8.9924 488.596 283.44)"/><path d="m487.806 291.801-.526 2.093-.698-.175.525-2.093m-.352 4.362-.525 2.093-.699-.175.526-2.094m-.353 4.362-.525 2.093-.699-.175.526-2.093m-.353 4.362-.525 2.093-.699-.176.526-2.093m-.353 4.362-.525 2.093-.699-.175.526-2.093m-.353 4.361-.492 1.962-.699-.175.493-1.962"/><path d="m480.795 318.273-1.217-5.502 2.132 1.837 2.75-.612-3.665 4.277z"/><path stroke-miterlimit="10" fill="none" stroke="#000" d="m480.795 318.273-1.217-5.502 2.132 1.837 2.75-.612-3.665 4.277z" stroke-width=".72017"/><path d="M473.788 278.405h-2.158v-.72h2.158m-4.317.72h-2.158v-.72h2.158m-4.316.72h-2.158v-.72h2.158m-4.316.72h-2.158v-.72h2.158m-4.317.72h-2.158v-.72h2.158m-4.316.72h-2.158v-.72h2.158m-4.316.72h-2.158v-.72h2.158M440.192 278.045l5.04-2.521-1.26 2.52 1.26 2.521-5.04-2.52z"/><path stroke-miterlimit="10" fill="none" stroke="#000" d="m440.192 278.045 5.04-2.521-1.26 2.52 1.26 2.521-5.04-2.52zM587.54 287.71l-19.417 31.45" stroke-width=".72017"/><path d="m566.136 322.371.504-5.61 1.483 2.398 2.802.252-4.79 2.96z"/><path stroke-miterlimit="10" fill="none" stroke="#000" d="m566.136 322.371.504-5.61 1.483 2.398 2.802.252-4.79 2.96z" stroke-width=".72017"/></g></svg>