<svg xmlns="http://www.w3.org/2000/svg" xmlns:xlink="http://www.w3.org/1999/xlink" width="838.72" height="266.56" viewBox="0 0 629.04 199.92"><clipPath id="a"><path transform="scale(.24)" d="M0 0h2620.833v831.582H0z" fill-rule="evenodd"/></clipPath><g clip-path="url(#a)"><path d="M0 0h629v199.58H0z" fill="#fff"/></g><clipPath id="b"><path transform="scale(.24)" d="M0 0h2620.833v825.577H0z" fill-rule="evenodd"/></clipPath><g clip-path="url(#b)"><path stroke-miterlimit="10" fill="none" stroke="#000" d="m28.453 60.148.007 25.232-.007 20.599" stroke-width=".7205"/><path d="m28.453 109.762-2.522-5.044 2.522 1.26 2.521-1.26-2.521 5.044z"/><path stroke-miterlimit="10" fill="none" stroke="#000" d="m28.453 109.762-2.522-5.044 2.522 1.26 2.521-1.26-2.521 5.044z" stroke-width=".7205"/><path d="M129.298 45.738a14.371 14.371 0 0 1-1.097 5.513 14.372 14.372 0 0 1-3.123 4.673 14.372 14.372 0 0 1-4.673 3.123 14.371 14.371 0 0 1-5.513 1.097 14.373 14.373 0 0 1-5.513-1.097 14.372 14.372 0 0 1-4.674-3.123 14.372 14.372 0 0 1-3.123-4.673 14.37 14.37 0 0 1-1.097-5.513 14.371 14.371 0 0 1 1.097-5.513 14.372 14.372 0 0 1 3.123-4.674 14.37 14.37 0 0 1 4.674-3.123 14.371 14.371 0 0 1 5.513-1.097 14.371 14.371 0 0 1 5.513 1.097 14.371 14.371 0 0 1 4.673 3.123 14.371 14.371 0 0 1 3.123 4.674 14.372 14.372 0 0 1 1.097 5.513z" fill="#fff"/><path fill="none" stroke="#000" d="M129.298 45.738a14.371 14.371 0 0 1-1.097 5.513 14.372 14.372 0 0 1-3.123 4.673 14.372 14.372 0 0 1-4.673 3.123 14.371 14.371 0 0 1-5.513 1.097 14.373 14.373 0 0 1-5.513-1.097 14.372 14.372 0 0 1-4.674-3.123 14.372 14.372 0 0 1-3.123-4.673 14.37 14.37 0 0 1-1.097-5.513 14.371 14.371 0 0 1 1.097-5.513 14.372 14.372 0 0 1 3.123-4.674 14.37 14.37 0 0 1 4.674-3.123 14.371 14.371 0 0 1 5.513-1.097 14.371 14.371 0 0 1 5.513 1.097 14.371 14.371 0 0 1 4.673 3.123 14.371 14.371 0 0 1 3.123 4.674 14.372 14.372 0 0 1 1.097 5.513z" stroke-width=".7205"/><symbol id="c"><path d="m.416.388.182-.27A.426.426 0 0 1 .663.034.094.094 0 0 1 .708.018V0H.386v.018C.41.02.428.024.436.03a.026.026 0 0 1 .01.021.034.034 0 0 1-.003.016.496.496 0 0 1-.034.055L.313.265.21.14C.181.104.166.078.166.065c0-.01.004-.018.012-.026A.068.068 0 0 1 .212.02.188.188 0 0 1 .254.018V0H0v.018a.162.162 0 0 1 .068.024.53.53 0 0 1 .092.093l.131.16-.168.248-.048.068A.09.09 0 0 1 .05.634a.11.11 0 0 1-.035.01v.018h.329V.644H.326C.307.644.294.641.286.634a.027.027 0 0 1-.01-.022c0-.007 0-.013.003-.018L.312.543.396.418l.07.085C.5.547.517.578.517.596A.042.042 0 0 1 .51.62.048.048 0 0 1 .49.638a.114.114 0 0 1-.044.006v.018h.243V.644A.137.137 0 0 1 .642.637.118.118 0 0 1 .604.612 1.122 1.122 0 0 1 .541.54L.416.388z"/></symbol><use xlink:href="#c" transform="matrix(11.52488 0 0 -11.52488 108.035 48.26)"/><symbol id="d"><path d="M.119.676h.31L.379.55H.12L.094.484A.413.413 0 0 0 .353.4.201.201 0 0 0 .428.24C.428.2.416.16.393.122a.233.233 0 0 0-.098-.09A.307.307 0 0 0 .157 0a.216.216 0 0 0-.124.03c-.02.015-.03.03-.03.05 0 .013.005.025.015.036.01.011.023.016.037.016A.103.103 0 0 0 .094.125.41.41 0 0 0 .16.083.24.24 0 0 1 .21.055.094.094 0 0 1 .247.05c.027 0 .05.01.068.03.019.02.028.043.028.07 0 .057-.028.104-.086.14A.402.402 0 0 1 .04.342H0l.119.334z"/></symbol><use xlink:href="#d" transform="matrix(9.60167 0 0 -9.60167 116.608 51.408)"/><path stroke-miterlimit="10" fill="none" stroke="#000" d="M114.892 60.148v45.83" stroke-width=".7205"/><path d="m114.892 109.762-2.522-5.044 2.522 1.26 2.521-1.26-2.521 5.044z"/><path stroke-miterlimit="10" fill="none" stroke="#000" d="m114.892 109.762-2.522-5.044 2.522 1.26 2.521-1.26-2.521 5.044z" stroke-width=".7205"/><path d="M42.859 45.738a14.371 14.371 0 0 1-1.097 5.513 14.371 14.371 0 0 1-3.123 4.673 14.372 14.372 0 0 1-4.673 3.123 14.372 14.372 0 0 1-5.513 1.097 14.372 14.372 0 0 1-5.513-1.097 14.372 14.372 0 0 1-4.674-3.123 14.371 14.371 0 0 1-3.123-4.673 14.371 14.371 0 0 1-1.096-5.513 14.372 14.372 0 0 1 1.096-5.513 14.372 14.372 0 0 1 3.123-4.674 14.371 14.371 0 0 1 4.674-3.123 14.371 14.371 0 0 1 5.513-1.097 14.371 14.371 0 0 1 5.513 1.097 14.372 14.372 0 0 1 4.673 3.123 14.371 14.371 0 0 1 3.123 4.674 14.372 14.372 0 0 1 1.097 5.513z" fill="#fff"/><path fill="none" stroke="#000" d="M42.859 45.738a14.371 14.371 0 0 1-1.097 5.513 14.371 14.371 0 0 1-3.123 4.673 14.372 14.372 0 0 1-4.673 3.123 14.372 14.372 0 0 1-5.513 1.097 14.372 14.372 0 0 1-5.513-1.097 14.372 14.372 0 0 1-4.674-3.123 14.371 14.371 0 0 1-3.123-4.673 14.371 14.371 0 0 1-1.096-5.513 14.372 14.372 0 0 1 1.096-5.513 14.372 14.372 0 0 1 3.123-4.674 14.371 14.371 0 0 1 4.674-3.123 14.371 14.371 0 0 1 5.513-1.097 14.371 14.371 0 0 1 5.513 1.097 14.372 14.372 0 0 1 4.673 3.123 14.371 14.371 0 0 1 3.123 4.674 14.372 14.372 0 0 1 1.097 5.513z" stroke-width=".7205"/><use xlink:href="#c" transform="matrix(11.52488 0 0 -11.52488 21.598 48.26)"/><symbol id="e"><path d="M.26.676V.134A.34.34 0 0 1 .265.056.05.05 0 0 1 .288.03a.106.106 0 0 1 .054-.01h.015V0H.01v.018h.017c.029 0 .049.003.06.01a.05.05 0 0 1 .025.027.297.297 0 0 1 .007.08v.343c0 .03-.002.05-.005.057a.04.04 0 0 1-.016.02.046.046 0 0 1-.028.007.157.157 0 0 1-.06-.015L0 .564l.244.112H.26z"/></symbol><use xlink:href="#e" transform="matrix(9.60167 0 0 -9.60167 30.48 51.277)"/><path d="M42.859 124.971a14.371 14.371 0 0 1-1.097 5.513 14.371 14.371 0 0 1-3.123 4.674 14.372 14.372 0 0 1-4.673 3.123 14.372 14.372 0 0 1-5.513 1.097 14.373 14.373 0 0 1-5.513-1.097 14.372 14.372 0 0 1-4.674-3.123 14.371 14.371 0 0 1-3.123-4.674 14.372 14.372 0 0 1-1.096-5.513 14.372 14.372 0 0 1 1.096-5.513 14.371 14.371 0 0 1 3.123-4.673 14.372 14.372 0 0 1 4.674-3.123 14.372 14.372 0 0 1 5.513-1.097 14.372 14.372 0 0 1 5.513 1.097 14.37 14.37 0 0 1 4.673 3.123 14.371 14.371 0 0 1 3.123 4.673 14.372 14.372 0 0 1 1.097 5.513z" fill="#fff"/><path fill="none" stroke="#000" d="M42.859 124.971a14.371 14.371 0 0 1-1.097 5.513 14.371 14.371 0 0 1-3.123 4.674 14.372 14.372 0 0 1-4.673 3.123 14.372 14.372 0 0 1-5.513 1.097 14.373 14.373 0 0 1-5.513-1.097 14.372 14.372 0 0 1-4.674-3.123 14.371 14.371 0 0 1-3.123-4.674 14.372 14.372 0 0 1-1.096-5.513 14.372 14.372 0 0 1 1.096-5.513 14.371 14.371 0 0 1 3.123-4.673 14.372 14.372 0 0 1 4.674-3.123 14.372 14.372 0 0 1 5.513-1.097 14.372 14.372 0 0 1 5.513 1.097 14.37 14.37 0 0 1 4.673 3.123 14.371 14.371 0 0 1 3.123 4.673 14.372 14.372 0 0 1 1.097 5.513z" stroke-width=".7205"/><use xlink:href="#c" transform="matrix(11.52488 0 0 -11.52488 21.598 127.494)"/><symbol id="f"><path d="M.39 0H0v.01C.12.154.192.25.217.299a.31.31 0 0 1 .039.144c0 .034-.01.062-.032.085A.102.102 0 0 1 .146.56C.096.561.057.536.03.486L.012.492a.27.27 0 0 0 .08.139c.036.03.077.045.124.045A.183.183 0 0 0 .308.652.17.17 0 0 0 .373.588.153.153 0 0 0 .396.512.276.276 0 0 0 .36.38 1.251 1.251 0 0 0 .145.128h.143c.035 0 .058.001.068.004.01.003.02.008.026.015A.2.2 0 0 1 .41.191h.018L.39 0z"/></symbol><use xlink:href="#f" transform="matrix(9.60167 0 0 -9.60167 30.082 130.51)"/><path d="M129.298 124.971a14.371 14.371 0 0 1-1.097 5.513 14.372 14.372 0 0 1-3.123 4.674 14.372 14.372 0 0 1-4.673 3.123 14.371 14.371 0 0 1-5.513 1.097 14.373 14.373 0 0 1-5.513-1.097 14.371 14.371 0 0 1-4.674-3.123 14.372 14.372 0 0 1-3.123-4.674 14.371 14.371 0 0 1-1.097-5.513 14.371 14.371 0 0 1 1.097-5.513 14.372 14.372 0 0 1 3.123-4.673 14.371 14.371 0 0 1 4.674-3.123 14.372 14.372 0 0 1 5.513-1.097 14.372 14.372 0 0 1 5.513 1.097 14.37 14.37 0 0 1 4.673 3.123 14.372 14.372 0 0 1 3.123 4.673 14.372 14.372 0 0 1 1.097 5.513z" fill="#fff"/><path fill="none" stroke="#000" d="M129.298 124.971a14.371 14.371 0 0 1-1.097 5.513 14.372 14.372 0 0 1-3.123 4.674 14.372 14.372 0 0 1-4.673 3.123 14.371 14.371 0 0 1-5.513 1.097 14.373 14.373 0 0 1-5.513-1.097 14.371 14.371 0 0 1-4.674-3.123 14.372 14.372 0 0 1-3.123-4.674 14.371 14.371 0 0 1-1.097-5.513 14.371 14.371 0 0 1 1.097-5.513 14.372 14.372 0 0 1 3.123-4.673 14.371 14.371 0 0 1 4.674-3.123 14.372 14.372 0 0 1 5.513-1.097 14.372 14.372 0 0 1 5.513 1.097 14.37 14.37 0 0 1 4.673 3.123 14.372 14.372 0 0 1 3.123 4.673 14.372 14.372 0 0 1 1.097 5.513z" stroke-width=".7205"/><use xlink:href="#c" transform="matrix(11.52488 0 0 -11.52488 108.035 127.494)"/><symbol id="g"><path d="m0 .25.314.426h.06V.25h.06V.148h-.06V0H.24v.148H0V.25m.047 0H.24v.26L.047.25z"/></symbol><use xlink:href="#g" transform="matrix(9.60167 0 0 -9.60167 116.523 130.51)"/><path d="M86.075 182.597a14.372 14.372 0 0 1-1.097 5.513 14.371 14.371 0 0 1-3.123 4.674 14.371 14.371 0 0 1-4.674 3.123 14.372 14.372 0 0 1-5.512 1.096 14.372 14.372 0 0 1-5.513-1.096 14.371 14.371 0 0 1-4.674-3.123 14.372 14.372 0 0 1-3.123-4.674 14.37 14.37 0 0 1-1.097-5.513 14.372 14.372 0 0 1 1.097-5.513 14.372 14.372 0 0 1 3.123-4.673 14.37 14.37 0 0 1 4.674-3.123 14.372 14.372 0 0 1 5.513-1.097 14.372 14.372 0 0 1 5.512 1.097 14.37 14.37 0 0 1 4.674 3.123 14.37 14.37 0 0 1 3.123 4.673 14.37 14.37 0 0 1 1.097 5.513z" fill="#fff"/><path fill="none" stroke="#000" d="M86.075 182.597a14.372 14.372 0 0 1-1.097 5.513 14.371 14.371 0 0 1-3.123 4.674 14.371 14.371 0 0 1-4.674 3.123 14.372 14.372 0 0 1-5.512 1.096 14.372 14.372 0 0 1-5.513-1.096 14.371 14.371 0 0 1-4.674-3.123 14.372 14.372 0 0 1-3.123-4.674 14.37 14.37 0 0 1-1.097-5.513 14.372 14.372 0 0 1 1.097-5.513 14.372 14.372 0 0 1 3.123-4.673 14.37 14.37 0 0 1 4.674-3.123 14.372 14.372 0 0 1 5.513-1.097 14.372 14.372 0 0 1 5.512 1.097 14.37 14.37 0 0 1 4.674 3.123 14.37 14.37 0 0 1 3.123 4.673 14.37 14.37 0 0 1 1.097 5.513z" stroke-width=".7205"/><use xlink:href="#c" transform="matrix(11.52488 0 0 -11.52488 64.816 185.118)"/><symbol id="h"><path d="M.132.346v.017c.037.011.063.021.077.03.014.01.027.024.037.043a.12.12 0 0 1 .016.058c0 .027-.01.05-.03.069a.1.1 0 0 1-.073.03C.113.592.074.567.042.52L.024.526a.294.294 0 0 0 .09.123.2.2 0 0 0 .123.04A.158.158 0 0 0 .35.649.13.13 0 0 0 .374.479a.179.179 0 0 0-.065-.06.228.228 0 0 0 .087-.068.166.166 0 0 0 .03-.102.236.236 0 0 0-.075-.177.276.276 0 0 0-.2-.072C.093 0 .053.01.027.028A.06.06 0 0 0 0 .078c0 .015.005.028.016.038.01.011.023.016.037.016.011 0 .021-.002.03-.007A.61.61 0 0 0 .14.083a.146.146 0 0 1 .089-.04c.024 0 .045.01.062.03.017.018.026.043.026.072a.188.188 0 0 1-.047.123.245.245 0 0 1-.137.078z"/></symbol><use xlink:href="#h" transform="matrix(9.60167 0 0 -9.60167 73.22 188.27)"/><path stroke-miterlimit="10" fill="none" stroke="#000" d="m81.856 172.41 22.848-37.25M38.64 135.16l24.83 35.592M100.481 124.971H42.856M104.704 55.926l-62.641 55.81" stroke-width=".7205"/><path d="m39.239 114.25 2.09-5.238.734 2.724 2.615 1.044-5.44 1.47z"/><path stroke-miterlimit="10" fill="none" stroke="#000" d="m39.239 114.25 2.09-5.238.734 2.724 2.615 1.044-5.44 1.47zM53.03 180.832c-54.802-22.835-66.39-64.47-34.765-124.906" stroke-width=".7205"/><path d="m56.524 182.287-5.628.39 2.133-1.845-.194-2.81 3.689 4.265z"/><path stroke-miterlimit="10" fill="none" stroke="#000" d="m56.524 182.287-5.628.39 2.133-1.845-.194-2.81 3.689 4.265zM359.798 64.73l.022 20.65-.022 20.599" stroke-width=".7205"/><path d="m359.79 60.947 2.53 5.044-2.522-1.26-2.522 1.267 2.515-5.05z"/><path stroke-miterlimit="10" fill="none" stroke="#000" d="m359.79 60.947 2.53 5.044-2.522-1.26-2.522 1.267 2.515-5.05z" stroke-width=".7205"/><path d="m359.79 109.762-2.514-5.044 2.522 1.26 2.522-1.253-2.53 5.037z"/><path stroke-miterlimit="10" fill="none" stroke="#000" d="m359.79 109.762-2.514-5.044 2.522 1.26 2.522-1.253-2.53 5.037z" stroke-width=".7205"/><path d="M460.636 45.738a14.377 14.377 0 0 1-1.097 5.513 14.37 14.37 0 0 1-3.123 4.673 14.375 14.375 0 0 1-4.673 3.123 14.372 14.372 0 0 1-5.513 1.097 14.373 14.373 0 0 1-5.513-1.097 14.372 14.372 0 0 1-4.674-3.123 14.373 14.373 0 0 1-3.123-4.673 14.376 14.376 0 0 1-1.096-5.513 14.373 14.373 0 0 1 1.096-5.513 14.368 14.368 0 0 1 3.123-4.674 14.373 14.373 0 0 1 4.674-3.123 14.373 14.373 0 0 1 5.513-1.097 14.37 14.37 0 0 1 5.513 1.097 14.37 14.37 0 0 1 4.673 3.123 14.369 14.369 0 0 1 3.123 4.674 14.376 14.376 0 0 1 1.097 5.513z" fill="#fff"/><path fill="none" stroke="#000" d="M460.636 45.738a14.377 14.377 0 0 1-1.097 5.513 14.37 14.37 0 0 1-3.123 4.673 14.375 14.375 0 0 1-4.673 3.123 14.372 14.372 0 0 1-5.513 1.097 14.373 14.373 0 0 1-5.513-1.097 14.372 14.372 0 0 1-4.674-3.123 14.373 14.373 0 0 1-3.123-4.673 14.376 14.376 0 0 1-1.096-5.513 14.373 14.373 0 0 1 1.096-5.513 14.368 14.368 0 0 1 3.123-4.674 14.373 14.373 0 0 1 4.674-3.123 14.373 14.373 0 0 1 5.513-1.097 14.37 14.37 0 0 1 5.513 1.097 14.37 14.37 0 0 1 4.673 3.123 14.369 14.369 0 0 1 3.123 4.674 14.376 14.376 0 0 1 1.097 5.513z" stroke-width=".7205"/><use xlink:href="#c" transform="matrix(11.52488 0 0 -11.52488 439.375 48.26)"/><use xlink:href="#d" transform="matrix(9.60167 0 0 -9.60167 447.948 51.408)"/><path stroke-miterlimit="10" fill="none" stroke="#000" d="M446.23 64.73v41.249" stroke-width=".7205"/><path d="m446.23 60.947 2.521 5.044-2.521-1.26-2.522 1.26 2.522-5.044z"/><path stroke-miterlimit="10" fill="none" stroke="#000" d="m446.23 60.947 2.521 5.044-2.521-1.26-2.522 1.26 2.522-5.044z" stroke-width=".7205"/><path d="m446.23 109.762-2.522-5.044 2.522 1.26 2.521-1.26-2.521 5.044z"/><path stroke-miterlimit="10" fill="none" stroke="#000" d="m446.23 109.762-2.522-5.044 2.522 1.26 2.521-1.26-2.521 5.044z" stroke-width=".7205"/><path d="M374.197 45.738a14.375 14.375 0 0 1-1.097 5.513 14.374 14.374 0 0 1-3.123 4.673 14.374 14.374 0 0 1-4.673 3.123 14.372 14.372 0 0 1-5.513 1.097 14.373 14.373 0 0 1-5.513-1.097 14.372 14.372 0 0 1-4.674-3.123 14.371 14.371 0 0 1-3.123-4.673 14.372 14.372 0 0 1-1.096-5.513 14.37 14.37 0 0 1 1.096-5.513 14.373 14.373 0 0 1 3.123-4.674 14.369 14.369 0 0 1 4.674-3.123 14.371 14.371 0 0 1 5.513-1.097 14.371 14.371 0 0 1 5.513 1.097 14.373 14.373 0 0 1 4.673 3.123 14.373 14.373 0 0 1 3.123 4.674 14.377 14.377 0 0 1 1.097 5.513z" fill="#fff"/><path fill="none" stroke="#000" d="M374.197 45.738a14.375 14.375 0 0 1-1.097 5.513 14.374 14.374 0 0 1-3.123 4.673 14.374 14.374 0 0 1-4.673 3.123 14.372 14.372 0 0 1-5.513 1.097 14.373 14.373 0 0 1-5.513-1.097 14.372 14.372 0 0 1-4.674-3.123 14.371 14.371 0 0 1-3.123-4.673 14.372 14.372 0 0 1-1.096-5.513 14.37 14.37 0 0 1 1.096-5.513 14.373 14.373 0 0 1 3.123-4.674 14.369 14.369 0 0 1 4.674-3.123 14.371 14.371 0 0 1 5.513-1.097 14.371 14.371 0 0 1 5.513 1.097 14.373 14.373 0 0 1 4.673 3.123 14.373 14.373 0 0 1 3.123 4.674 14.377 14.377 0 0 1 1.097 5.513z" stroke-width=".7205"/><use xlink:href="#c" transform="matrix(11.52488 0 0 -11.52488 352.938 48.26)"/><use xlink:href="#e" transform="matrix(9.60167 0 0 -9.60167 361.821 51.277)"/><path d="M374.197 124.971a14.375 14.375 0 0 1-1.097 5.513 14.373 14.373 0 0 1-3.123 4.674 14.374 14.374 0 0 1-4.673 3.123 14.372 14.372 0 0 1-5.513 1.097 14.374 14.374 0 0 1-5.513-1.097 14.371 14.371 0 0 1-4.674-3.123 14.371 14.371 0 0 1-3.123-4.674 14.372 14.372 0 0 1-1.096-5.513 14.37 14.37 0 0 1 1.096-5.513 14.373 14.373 0 0 1 3.123-4.673 14.37 14.37 0 0 1 4.674-3.123 14.372 14.372 0 0 1 5.513-1.097 14.372 14.372 0 0 1 5.513 1.097 14.372 14.372 0 0 1 4.673 3.123 14.374 14.374 0 0 1 3.123 4.673 14.378 14.378 0 0 1 1.097 5.513z" fill="#fff"/><path fill="none" stroke="#000" d="M374.197 124.971a14.375 14.375 0 0 1-1.097 5.513 14.373 14.373 0 0 1-3.123 4.674 14.374 14.374 0 0 1-4.673 3.123 14.372 14.372 0 0 1-5.513 1.097 14.374 14.374 0 0 1-5.513-1.097 14.371 14.371 0 0 1-4.674-3.123 14.371 14.371 0 0 1-3.123-4.674 14.372 14.372 0 0 1-1.096-5.513 14.37 14.37 0 0 1 1.096-5.513 14.373 14.373 0 0 1 3.123-4.673 14.37 14.37 0 0 1 4.674-3.123 14.372 14.372 0 0 1 5.513-1.097 14.372 14.372 0 0 1 5.513 1.097 14.372 14.372 0 0 1 4.673 3.123 14.374 14.374 0 0 1 3.123 4.673 14.378 14.378 0 0 1 1.097 5.513z" stroke-width=".7205"/><use xlink:href="#c" transform="matrix(11.52488 0 0 -11.52488 352.938 127.494)"/><use xlink:href="#f" transform="matrix(9.60167 0 0 -9.60167 361.422 130.51)"/><path d="M460.636 124.971a14.377 14.377 0 0 1-1.097 5.513 14.37 14.37 0 0 1-3.123 4.674 14.375 14.375 0 0 1-4.673 3.123 14.372 14.372 0 0 1-5.513 1.097 14.373 14.373 0 0 1-5.513-1.097 14.371 14.371 0 0 1-4.674-3.123 14.374 14.374 0 0 1-3.123-4.674 14.376 14.376 0 0 1-1.096-5.513 14.373 14.373 0 0 1 1.096-5.513 14.368 14.368 0 0 1 3.123-4.673 14.373 14.373 0 0 1 4.674-3.123 14.373 14.373 0 0 1 5.513-1.097 14.372 14.372 0 0 1 5.513 1.097 14.37 14.37 0 0 1 4.673 3.123 14.369 14.369 0 0 1 3.123 4.673 14.376 14.376 0 0 1 1.097 5.513z" fill="#fff"/><path fill="none" stroke="#000" d="M460.636 124.971a14.377 14.377 0 0 1-1.097 5.513 14.37 14.37 0 0 1-3.123 4.674 14.375 14.375 0 0 1-4.673 3.123 14.372 14.372 0 0 1-5.513 1.097 14.373 14.373 0 0 1-5.513-1.097 14.371 14.371 0 0 1-4.674-3.123 14.374 14.374 0 0 1-3.123-4.674 14.376 14.376 0 0 1-1.096-5.513 14.373 14.373 0 0 1 1.096-5.513 14.368 14.368 0 0 1 3.123-4.673 14.373 14.373 0 0 1 4.674-3.123 14.373 14.373 0 0 1 5.513-1.097 14.372 14.372 0 0 1 5.513 1.097 14.37 14.37 0 0 1 4.673 3.123 14.369 14.369 0 0 1 3.123 4.673 14.376 14.376 0 0 1 1.097 5.513z" stroke-width=".7205"/><use xlink:href="#c" transform="matrix(11.52488 0 0 -11.52488 439.375 127.494)"/><use xlink:href="#g" transform="matrix(9.60167 0 0 -9.60167 447.864 130.51)"/><path d="M417.42 182.597a14.372 14.372 0 0 1-1.097 5.513 14.37 14.37 0 0 1-3.123 4.674 14.374 14.374 0 0 1-4.673 3.123 14.373 14.373 0 0 1-5.513 1.096 14.373 14.373 0 0 1-5.513-1.096 14.37 14.37 0 0 1-4.674-3.123 14.372 14.372 0 0 1-3.123-4.674 14.37 14.37 0 0 1-1.096-5.513 14.367 14.367 0 0 1 1.096-5.513 14.37 14.37 0 0 1 3.123-4.673 14.37 14.37 0 0 1 4.674-3.123 14.374 14.374 0 0 1 5.513-1.097 14.373 14.373 0 0 1 5.513 1.097 14.371 14.371 0 0 1 4.673 3.123 14.37 14.37 0 0 1 3.123 4.673 14.365 14.365 0 0 1 1.097 5.513z" fill="#fff"/><path fill="none" stroke="#000" d="M417.42 182.597a14.372 14.372 0 0 1-1.097 5.513 14.37 14.37 0 0 1-3.123 4.674 14.374 14.374 0 0 1-4.673 3.123 14.373 14.373 0 0 1-5.513 1.096 14.373 14.373 0 0 1-5.513-1.096 14.37 14.37 0 0 1-4.674-3.123 14.372 14.372 0 0 1-3.123-4.674 14.37 14.37 0 0 1-1.096-5.513 14.367 14.367 0 0 1 1.096-5.513 14.37 14.37 0 0 1 3.123-4.673 14.37 14.37 0 0 1 4.674-3.123 14.374 14.374 0 0 1 5.513-1.097 14.373 14.373 0 0 1 5.513 1.097 14.371 14.371 0 0 1 4.673 3.123 14.37 14.37 0 0 1 3.123 4.673 14.365 14.365 0 0 1 1.097 5.513z" stroke-width=".7205"/><use xlink:href="#c" transform="matrix(11.52488 0 0 -11.52488 396.157 185.118)"/><use xlink:href="#h" transform="matrix(9.60167 0 0 -9.60167 404.561 188.27)"/><path stroke-miterlimit="10" fill="none" stroke="#000" d="m413.195 172.41 20.447-33.338" stroke-width=".7205"/><path d="m435.624 135.844-.49 5.62-1.492-2.392-2.802-.245 4.784-2.983z"/><path stroke-miterlimit="10" fill="none" stroke="#000" d="m435.624 135.844-.49 5.62-1.492-2.392-2.802-.245 4.784-2.983zM369.979 135.16l22.206 31.831" stroke-width=".7205"/><path d="m394.353 170.09-4.957-2.688 2.789-.41 1.347-2.48.821 5.577z"/><path stroke-miterlimit="10" fill="none" stroke="#000" d="m394.353 170.09-4.957-2.688 2.789-.41 1.347-2.48.821 5.577zM427.237 124.971h-53.036" stroke-width=".7205"/><path d="m431.02 124.971-5.044 2.522 1.261-2.522-1.26-2.521 5.043 2.521z"/><path stroke-miterlimit="10" fill="none" stroke="#000" d="m431.02 124.971-5.044 2.522 1.261-2.522-1.26-2.521 5.043 2.521zM432.62 58.98 373.4 111.736" stroke-width=".7205"/><path d="m435.444 56.459-2.09 5.238-.735-2.717-2.622-1.044 5.447-1.477z"/><path stroke-miterlimit="10" fill="none" stroke="#000" d="m435.444 56.459-2.09 5.238-.735-2.717-2.622-1.044 5.447-1.477z" stroke-width=".7205"/><path d="m370.584 114.25 2.082-5.238.735 2.724 2.623 1.044-5.44 1.47z"/><path stroke-miterlimit="10" fill="none" stroke="#000" d="m370.584 114.25 2.082-5.238.735 2.724 2.623 1.044-5.44 1.47zM194.486 65.191l-.325 40.788" stroke-width=".7205"/><path d="m194.125 109.762-2.478-5.066 2.514 1.283 2.53-1.24-2.566 5.023z"/><path stroke-miterlimit="10" fill="none" stroke="#000" d="m194.125 109.762-2.478-5.066 2.514 1.283 2.53-1.24-2.566 5.023z" stroke-width=".7205"/><path d="M294.963 45.738a14.372 14.372 0 0 1-1.096 5.513 14.37 14.37 0 0 1-3.123 4.673 14.375 14.375 0 0 1-4.674 3.123 14.372 14.372 0 0 1-5.513 1.097 14.372 14.372 0 0 1-5.513-1.097 14.371 14.371 0 0 1-4.674-3.123 14.372 14.372 0 0 1-3.123-4.673 14.371 14.371 0 0 1-1.096-5.513 14.368 14.368 0 0 1 1.096-5.513 14.372 14.372 0 0 1 3.123-4.674 14.37 14.37 0 0 1 4.674-3.123 14.372 14.372 0 0 1 5.513-1.097 14.371 14.371 0 0 1 5.513 1.097 14.371 14.371 0 0 1 4.674 3.123 14.373 14.373 0 0 1 3.123 4.674 14.372 14.372 0 0 1 1.096 5.513z" fill="#fff"/><path fill="none" stroke="#000" d="M294.963 45.738a14.372 14.372 0 0 1-1.096 5.513 14.37 14.37 0 0 1-3.123 4.673 14.375 14.375 0 0 1-4.674 3.123 14.372 14.372 0 0 1-5.513 1.097 14.372 14.372 0 0 1-5.513-1.097 14.371 14.371 0 0 1-4.674-3.123 14.372 14.372 0 0 1-3.123-4.673 14.371 14.371 0 0 1-1.096-5.513 14.368 14.368 0 0 1 1.096-5.513 14.372 14.372 0 0 1 3.123-4.674 14.37 14.37 0 0 1 4.674-3.123 14.372 14.372 0 0 1 5.513-1.097 14.371 14.371 0 0 1 5.513 1.097 14.371 14.371 0 0 1 4.674 3.123 14.373 14.373 0 0 1 3.123 4.674 14.372 14.372 0 0 1 1.096 5.513z" stroke-width=".7205"/><use xlink:href="#c" transform="matrix(11.52488 0 0 -11.52488 273.705 48.26)"/><use xlink:href="#d" transform="matrix(9.60167 0 0 -9.60167 282.278 51.408)"/><path stroke-miterlimit="10" fill="none" stroke="#000" d="M280.557 65.191v40.788" stroke-width=".7205"/><path d="m280.557 109.762-2.522-5.044 2.522 1.26 2.522-1.26-2.522 5.044z"/><path stroke-miterlimit="10" fill="none" stroke="#000" d="m280.557 109.762-2.522-5.044 2.522 1.26 2.522-1.26-2.522 5.044z" stroke-width=".7205"/><path d="M208.531 45.738a14.372 14.372 0 0 1-1.096 5.513 14.371 14.371 0 0 1-3.123 4.673 14.372 14.372 0 0 1-4.674 3.123 14.372 14.372 0 0 1-5.513 1.097 14.372 14.372 0 0 1-5.513-1.097 14.372 14.372 0 0 1-4.673-3.123 14.37 14.37 0 0 1-3.123-4.673 14.37 14.37 0 0 1-1.097-5.513 14.371 14.371 0 0 1 1.097-5.513 14.37 14.37 0 0 1 3.123-4.674 14.37 14.37 0 0 1 4.673-3.123 14.372 14.372 0 0 1 5.513-1.097 14.371 14.371 0 0 1 5.513 1.097 14.371 14.371 0 0 1 4.674 3.123 14.37 14.37 0 0 1 3.123 4.674 14.372 14.372 0 0 1 1.096 5.513z" fill="#fff"/><path fill="none" stroke="#000" d="M208.531 45.738a14.372 14.372 0 0 1-1.096 5.513 14.371 14.371 0 0 1-3.123 4.673 14.372 14.372 0 0 1-4.674 3.123 14.372 14.372 0 0 1-5.513 1.097 14.372 14.372 0 0 1-5.513-1.097 14.372 14.372 0 0 1-4.673-3.123 14.37 14.37 0 0 1-3.123-4.673 14.37 14.37 0 0 1-1.097-5.513 14.371 14.371 0 0 1 1.097-5.513 14.37 14.37 0 0 1 3.123-4.674 14.37 14.37 0 0 1 4.673-3.123 14.372 14.372 0 0 1 5.513-1.097 14.371 14.371 0 0 1 5.513 1.097 14.371 14.371 0 0 1 4.674 3.123 14.37 14.37 0 0 1 3.123 4.674 14.372 14.372 0 0 1 1.096 5.513z" stroke-width=".7205"/><use xlink:href="#c" transform="matrix(11.52488 0 0 -11.52488 187.268 48.26)"/><use xlink:href="#e" transform="matrix(9.60167 0 0 -9.60167 196.15 51.277)"/><path d="M208.531 124.971a14.372 14.372 0 0 1-1.096 5.513 14.371 14.371 0 0 1-3.123 4.674 14.372 14.372 0 0 1-4.674 3.123 14.372 14.372 0 0 1-5.513 1.097 14.373 14.373 0 0 1-5.513-1.097 14.371 14.371 0 0 1-4.673-3.123 14.371 14.371 0 0 1-3.123-4.674 14.371 14.371 0 0 1-1.097-5.513 14.371 14.371 0 0 1 1.097-5.513 14.37 14.37 0 0 1 3.123-4.673 14.371 14.371 0 0 1 4.673-3.123 14.373 14.373 0 0 1 5.513-1.097 14.372 14.372 0 0 1 5.513 1.097 14.37 14.37 0 0 1 4.674 3.123 14.37 14.37 0 0 1 3.123 4.673 14.372 14.372 0 0 1 1.096 5.513z" fill="#fff"/><path fill="none" stroke="#000" d="M208.531 124.971a14.372 14.372 0 0 1-1.096 5.513 14.371 14.371 0 0 1-3.123 4.674 14.372 14.372 0 0 1-4.674 3.123 14.372 14.372 0 0 1-5.513 1.097 14.373 14.373 0 0 1-5.513-1.097 14.371 14.371 0 0 1-4.673-3.123 14.371 14.371 0 0 1-3.123-4.674 14.371 14.371 0 0 1-1.097-5.513 14.371 14.371 0 0 1 1.097-5.513 14.37 14.37 0 0 1 3.123-4.673 14.371 14.371 0 0 1 4.673-3.123 14.373 14.373 0 0 1 5.513-1.097 14.372 14.372 0 0 1 5.513 1.097 14.37 14.37 0 0 1 4.674 3.123 14.37 14.37 0 0 1 3.123 4.673 14.372 14.372 0 0 1 1.096 5.513z" stroke-width=".7205"/><use xlink:href="#c" transform="matrix(11.52488 0 0 -11.52488 187.268 127.494)"/><use xlink:href="#f" transform="matrix(9.60167 0 0 -9.60167 195.752 130.51)"/><path d="M294.963 124.971a14.372 14.372 0 0 1-1.096 5.513 14.37 14.37 0 0 1-3.123 4.674 14.374 14.374 0 0 1-4.674 3.123 14.372 14.372 0 0 1-5.513 1.097 14.373 14.373 0 0 1-5.513-1.097 14.37 14.37 0 0 1-4.674-3.123 14.372 14.372 0 0 1-3.123-4.674 14.372 14.372 0 0 1-1.096-5.513 14.369 14.369 0 0 1 1.096-5.513 14.372 14.372 0 0 1 3.123-4.673 14.371 14.371 0 0 1 4.674-3.123 14.372 14.372 0 0 1 5.513-1.097 14.372 14.372 0 0 1 5.513 1.097 14.37 14.37 0 0 1 4.674 3.123 14.373 14.373 0 0 1 3.123 4.673 14.373 14.373 0 0 1 1.096 5.513z" fill="#fff"/><path fill="none" stroke="#000" d="M294.963 124.971a14.372 14.372 0 0 1-1.096 5.513 14.37 14.37 0 0 1-3.123 4.674 14.374 14.374 0 0 1-4.674 3.123 14.372 14.372 0 0 1-5.513 1.097 14.373 14.373 0 0 1-5.513-1.097 14.37 14.37 0 0 1-4.674-3.123 14.372 14.372 0 0 1-3.123-4.674 14.372 14.372 0 0 1-1.096-5.513 14.369 14.369 0 0 1 1.096-5.513 14.372 14.372 0 0 1 3.123-4.673 14.371 14.371 0 0 1 4.674-3.123 14.372 14.372 0 0 1 5.513-1.097 14.372 14.372 0 0 1 5.513 1.097 14.37 14.37 0 0 1 4.674 3.123 14.373 14.373 0 0 1 3.123 4.673 14.373 14.373 0 0 1 1.096 5.513z" stroke-width=".7205"/><use xlink:href="#c" transform="matrix(11.52488 0 0 -11.52488 273.705 127.494)"/><use xlink:href="#g" transform="matrix(9.60167 0 0 -9.60167 282.194 130.51)"/><path d="M251.747 182.597a14.371 14.371 0 0 1-1.096 5.513 14.373 14.373 0 0 1-3.123 4.674 14.373 14.373 0 0 1-4.674 3.123 14.372 14.372 0 0 1-5.513 1.096 14.372 14.372 0 0 1-5.513-1.096 14.372 14.372 0 0 1-4.673-3.123 14.37 14.37 0 0 1-3.123-4.674 14.373 14.373 0 0 1-1.097-5.513 14.373 14.373 0 0 1 1.097-5.513 14.37 14.37 0 0 1 3.123-4.673 14.371 14.371 0 0 1 4.673-3.123 14.372 14.372 0 0 1 5.513-1.097 14.372 14.372 0 0 1 5.513 1.097 14.37 14.37 0 0 1 4.674 3.123 14.37 14.37 0 0 1 3.123 4.673 14.373 14.373 0 0 1 1.096 5.513z" fill="#fff"/><path fill="none" stroke="#000" d="M251.747 182.597a14.371 14.371 0 0 1-1.096 5.513 14.373 14.373 0 0 1-3.123 4.674 14.373 14.373 0 0 1-4.674 3.123 14.372 14.372 0 0 1-5.513 1.096 14.372 14.372 0 0 1-5.513-1.096 14.372 14.372 0 0 1-4.673-3.123 14.37 14.37 0 0 1-3.123-4.674 14.373 14.373 0 0 1-1.097-5.513 14.373 14.373 0 0 1 1.097-5.513 14.37 14.37 0 0 1 3.123-4.673 14.371 14.371 0 0 1 4.673-3.123 14.372 14.372 0 0 1 5.513-1.097 14.372 14.372 0 0 1 5.513 1.097 14.37 14.37 0 0 1 4.674 3.123 14.37 14.37 0 0 1 3.123 4.673 14.373 14.373 0 0 1 1.096 5.513z" stroke-width=".7205"/><use xlink:href="#c" transform="matrix(11.52488 0 0 -11.52488 230.486 185.118)"/><use xlink:href="#h" transform="matrix(9.60167 0 0 -9.60167 238.89 188.27)"/><path stroke-miterlimit="10" fill="none" stroke="#000" d="m272.617 137.234-2.248-2.075M267.61 60.126l-59.831 51.66" stroke-width=".7205"/><path d="m204.919 114.258 2.168-5.203.692 2.731 2.6 1.088-5.46 1.384z"/><path stroke-miterlimit="10" fill="none" stroke="#000" d="m204.919 114.258 2.168-5.203.692 2.731 2.6 1.088-5.46 1.384z" stroke-width=".7205"/><path d="M271.917 58.346c0 .335-.064.656-.191.965-.128.309-.31.582-.547.818a2.497 2.497 0 0 1-.818.547c-.309.127-.63.191-.965.191-.334 0-.656-.064-.964-.191a2.497 2.497 0 0 1-.818-.547 2.497 2.497 0 0 1-.547-.818 2.497 2.497 0 0 1-.192-.965c0-.334.064-.655.192-.964.128-.31.31-.582.547-.818.236-.237.509-.419.818-.547.308-.128.63-.192.964-.192.335 0 .656.064.965.192.309.128.582.31.818.547.236.236.419.509.547.818.127.309.191.63.191.964z" fill="#fff"/><path fill="none" stroke="#000" d="M271.917 58.346c0 .335-.064.656-.191.965-.128.309-.31.582-.547.818a2.497 2.497 0 0 1-.818.547c-.309.127-.63.191-.965.191-.334 0-.656-.064-.964-.191a2.497 2.497 0 0 1-.818-.547 2.497 2.497 0 0 1-.547-.818 2.497 2.497 0 0 1-.192-.965c0-.334.064-.655.192-.964.128-.31.31-.582.547-.818.236-.237.509-.419.818-.547.308-.128.63-.192.964-.192.335 0 .656.064.965.192.309.128.582.31.818.547.236.236.419.509.547.818.127.309.191.63.191.964z" stroke-width=".7205"/><path d="M197.007 62.67c0 .334-.064.655-.192.964-.128.31-.31.582-.547.818a2.497 2.497 0 0 1-.818.547c-.308.128-.63.191-.964.192-.335 0-.656-.064-.965-.192a2.497 2.497 0 0 1-.818-.547 2.497 2.497 0 0 1-.547-.818 2.496 2.496 0 0 1-.191-.965c0-.334.063-.655.191-.964.128-.31.31-.582.547-.818.236-.237.509-.419.818-.547.309-.128.63-.192.965-.192.334 0 .656.064.964.192.31.128.582.31.818.547.237.236.419.509.547.818.128.309.192.63.192.964z" fill="#fff"/><path fill="none" stroke="#000" d="M197.007 62.67c0 .334-.064.655-.192.964-.128.31-.31.582-.547.818a2.497 2.497 0 0 1-.818.547c-.308.128-.63.191-.964.192-.335 0-.656-.064-.965-.192a2.497 2.497 0 0 1-.818-.547 2.497 2.497 0 0 1-.547-.818 2.496 2.496 0 0 1-.191-.965c0-.334.063-.655.191-.964.128-.31.31-.582.547-.818.236-.237.509-.419.818-.547.309-.128.63-.192.965-.192.334 0 .656.064.964.192.31.128.582.31.818.547.237.236.419.509.547.818.128.309.192.63.192.964z" stroke-width=".7205"/><path stroke-miterlimit="10" fill="none" stroke="#000" d="M261.11 124.971h-47.538" stroke-width=".7205"/><path d="M213.571 124.971c0 .335-.064.656-.192.965-.128.309-.31.582-.546.818a2.497 2.497 0 0 1-.818.547c-.31.127-.63.191-.965.191-.334 0-.656-.064-.965-.191a2.497 2.497 0 0 1-.818-.547 2.497 2.497 0 0 1-.546-.818 2.496 2.496 0 0 1-.192-.965c0-.334.064-.656.192-.964.128-.31.31-.582.546-.818.237-.237.51-.419.818-.547.31-.128.63-.192.965-.192.334 0 .656.064.965.192.309.128.581.31.818.547.236.236.418.509.546.818.128.308.192.63.192.964z" fill="#fff"/><path fill="none" stroke="#000" d="M213.571 124.971c0 .335-.064.656-.192.965-.128.309-.31.582-.546.818a2.497 2.497 0 0 1-.818.547c-.31.127-.63.191-.965.191-.334 0-.656-.064-.965-.191a2.497 2.497 0 0 1-.818-.547 2.497 2.497 0 0 1-.546-.818 2.496 2.496 0 0 1-.192-.965c0-.334.064-.656.192-.964.128-.31.31-.582.546-.818.237-.237.51-.419.818-.547.31-.128.63-.192.965-.192.334 0 .656.064.965.192.309.128.581.31.818.547.236.236.418.509.546.818.128.308.192.63.192.964z" stroke-width=".7205"/><path d="M266.153 124.971c0 .335-.064.656-.191.965-.128.309-.31.582-.547.818-.236.236-.509.419-.818.547-.309.127-.63.191-.965.191-.334 0-.656-.064-.964-.191a2.497 2.497 0 0 1-.818-.547 2.497 2.497 0 0 1-.547-.818 2.497 2.497 0 0 1-.192-.965c0-.334.064-.656.192-.964.128-.31.31-.582.547-.818.236-.237.509-.419.818-.547.308-.128.63-.192.964-.192.335 0 .656.064.965.192.309.128.582.31.818.547.236.236.419.509.547.818.127.308.191.63.191.964z" fill="#fff"/><path fill="none" stroke="#000" d="M266.153 124.971c0 .335-.064.656-.191.965-.128.309-.31.582-.547.818-.236.236-.509.419-.818.547-.309.127-.63.191-.965.191-.334 0-.656-.064-.964-.191a2.497 2.497 0 0 1-.818-.547 2.497 2.497 0 0 1-.547-.818 2.497 2.497 0 0 1-.192-.965c0-.334.064-.656.192-.964.128-.31.31-.582.547-.818.236-.237.509-.419.818-.547.308-.128.63-.192.964-.192.335 0 .656.064.965.192.309.128.582.31.818.547.236.236.419.509.547.818.127.308.191.63.191.964z" stroke-width=".7205"/><path d="M207.087 138.3c0 .335-.064.657-.192.965-.128.31-.31.582-.547.818a2.497 2.497 0 0 1-.818.547c-.309.128-.63.192-.964.192-.335 0-.656-.064-.965-.192a2.497 2.497 0 0 1-.818-.547 2.497 2.497 0 0 1-.547-.818 2.496 2.496 0 0 1-.192-.964c0-.335.064-.656.192-.965.128-.309.31-.582.547-.818.236-.236.509-.419.818-.546.309-.128.63-.192.965-.192.334 0 .655.064.964.192.31.127.582.31.818.546.237.236.419.51.547.818.128.309.192.63.192.965z" fill="#fff"/><path fill="none" stroke="#000" d="M207.087 138.3c0 .335-.064.657-.192.965-.128.31-.31.582-.547.818a2.497 2.497 0 0 1-.818.547c-.309.128-.63.192-.964.192-.335 0-.656-.064-.965-.192a2.497 2.497 0 0 1-.818-.547 2.497 2.497 0 0 1-.547-.818 2.496 2.496 0 0 1-.192-.964c0-.335.064-.656.192-.965.128-.309.31-.582.547-.818.236-.236.509-.419.818-.546.309-.128.63-.192.965-.192.334 0 .655.064.964.192.31.127.582.31.818.546.237.236.419.51.547.818.128.309.192.63.192.965z" stroke-width=".7205"/><path stroke-miterlimit="10" fill="none" stroke="#000" d="M250.289 168.209 269.05 140.8" stroke-width=".7205"/><path d="M273.359 139.021c0 .335-.064.656-.192.965-.128.309-.31.581-.547.818a2.497 2.497 0 0 1-.818.546c-.309.128-.63.192-.965.192-.334 0-.656-.064-.964-.192a2.497 2.497 0 0 1-.818-.546 2.497 2.497 0 0 1-.547-.818 2.497 2.497 0 0 1-.192-.965c0-.334.064-.656.192-.965.128-.308.31-.581.547-.817.236-.237.509-.419.818-.547.308-.128.63-.192.964-.192.335 0 .656.064.965.192.31.128.582.31.818.547.236.236.419.509.547.817.128.31.192.63.192.965z" fill="#fff"/><path fill="none" stroke="#000" d="M273.359 139.021c0 .335-.064.656-.192.965-.128.309-.31.581-.547.818a2.497 2.497 0 0 1-.818.546c-.309.128-.63.192-.965.192-.334 0-.656-.064-.964-.192a2.497 2.497 0 0 1-.818-.546 2.497 2.497 0 0 1-.547-.818 2.497 2.497 0 0 1-.192-.965c0-.334.064-.656.192-.965.128-.308.31-.581.547-.817.236-.237.509-.419.818-.547.308-.128.63-.192.964-.192.335 0 .656.064.965.192.31.128.582.31.818.547.236.236.419.509.547.817.128.31.192.63.192.965z" stroke-width=".7205"/><path stroke-miterlimit="10" fill="none" stroke="#000" d="m206.352 140.08 17.754 27.783" stroke-width=".7205"/><path d="M227.974 169.996c0 .334-.064.656-.192.964-.128.31-.31.582-.546.818-.237.237-.51.419-.818.547-.31.128-.63.192-.965.192-.334 0-.656-.064-.965-.192a2.497 2.497 0 0 1-.818-.547 2.497 2.497 0 0 1-.546-.818 2.497 2.497 0 0 1-.192-.964c0-.335.064-.656.192-.965.128-.309.31-.582.546-.818.237-.236.51-.419.818-.546.309-.128.63-.192.965-.192.334 0 .656.064.965.192.309.127.581.31.818.546.236.236.418.509.546.818.128.309.192.63.192.965z" fill="#fff"/><path fill="none" stroke="#000" d="M227.974 169.996c0 .334-.064.656-.192.964-.128.31-.31.582-.546.818-.237.237-.51.419-.818.547-.31.128-.63.192-.965.192-.334 0-.656-.064-.965-.192a2.497 2.497 0 0 1-.818-.547 2.497 2.497 0 0 1-.546-.818 2.497 2.497 0 0 1-.192-.964c0-.335.064-.656.192-.965.128-.309.31-.582.546-.818.237-.236.51-.419.818-.546.309-.128.63-.192.965-.192.334 0 .656.064.965.192.309.127.581.31.818.546.236.236.418.509.546.818.128.309.192.63.192.965z" stroke-width=".7205"/><path stroke-miterlimit="10" fill="none" stroke="#000" d="m247.53 172.41-.808-.635" stroke-width=".7205"/><path d="M251.023 169.996c0 .334-.064.656-.192.964-.128.31-.31.582-.547.818-.236.237-.509.419-.817.547-.31.128-.63.192-.965.192-.335 0-.656-.064-.965-.192a2.497 2.497 0 0 1-.818-.547 2.497 2.497 0 0 1-.546-.818 2.497 2.497 0 0 1-.192-.964c0-.335.064-.656.192-.965.128-.309.31-.582.546-.818.237-.236.51-.419.818-.546.309-.128.63-.192.965-.192.334 0 .656.064.965.192.308.127.581.31.817.546.237.236.419.509.547.818.128.309.192.63.192.965z" fill="#fff"/><path fill="none" stroke="#000" d="M251.023 169.996c0 .334-.064.656-.192.964-.128.31-.31.582-.547.818-.236.237-.509.419-.817.547-.31.128-.63.192-.965.192-.335 0-.656-.064-.965-.192a2.497 2.497 0 0 1-.818-.547 2.497 2.497 0 0 1-.546-.818 2.497 2.497 0 0 1-.192-.964c0-.335.064-.656.192-.965.128-.309.31-.582.546-.818.237-.236.51-.419.818-.546.309-.128.63-.192.965-.192.334 0 .656.064.965.192.308.127.581.31.817.546.237.236.419.509.547.818.128.309.192.63.192.965z" stroke-width=".7205"/><path stroke-miterlimit="10" fill="none" stroke="#000" d="M218.702 180.832c-54.802-22.835-66.356-64.504-34.664-125.007" stroke-width=".7205"/><path d="m222.189 182.287-5.62.39 2.133-1.845-.195-2.81 3.682 4.265z"/><path stroke-miterlimit="10" fill="none" stroke="#000" d="m222.189 182.287-5.62.39 2.133-1.845-.195-2.81 3.682 4.265z" stroke-width=".7205"/><path d="M283.078 62.67c0 .334-.064.655-.192.964-.128.31-.31.582-.546.818-.237.236-.51.419-.818.547-.31.128-.63.191-.965.192-.334 0-.656-.064-.965-.192a2.497 2.497 0 0 1-.818-.547 2.497 2.497 0 0 1-.546-.818 2.496 2.496 0 0 1-.192-.965c0-.334.064-.655.192-.964.128-.31.31-.582.546-.818.237-.237.51-.419.818-.547.31-.128.63-.192.965-.192.334 0 .656.064.965.192.309.128.581.31.818.547.236.236.418.509.546.818.128.309.192.63.192.964z" fill="#fff"/><path fill="none" stroke="#000" d="M283.078 62.67c0 .334-.064.655-.192.964-.128.31-.31.582-.546.818-.237.236-.51.419-.818.547-.31.128-.63.191-.965.192-.334 0-.656-.064-.965-.192a2.497 2.497 0 0 1-.818-.547 2.497 2.497 0 0 1-.546-.818 2.496 2.496 0 0 1-.192-.965c0-.334.064-.655.192-.964.128-.31.31-.582.546-.818.237-.237.51-.419.818-.547.31-.128.63-.192.965-.192.334 0 .656.064.965.192.309.128.581.31.818.547.236.236.418.509.546.818.128.309.192.63.192.964z" stroke-width=".7205"/><symbol id="i"><path d="M.281.877V.855A.295.295 0 0 1 .207.79.326.326 0 0 1 .155.677.947.947 0 0 1 .13.438c0-.096.007-.17.021-.224A.382.382 0 0 1 .21.084a.225.225 0 0 1 .071-.06V0a.391.391 0 0 0-.2.162.49.49 0 0 0-.081.28.48.48 0 0 0 .082.276c.054.08.12.133.2.16z"/></symbol><symbol id="j"><path d="M.24.074C.186.024.136 0 .09 0A.087.087 0 0 0 0 .09c0 .035.015.066.045.094.03.028.095.065.196.11v.047a.21.21 0 0 1-.006.065.05.05 0 0 1-.021.023.063.063 0 0 1-.035.01.09.09 0 0 1-.053-.014C.118.42.114.413.114.405c0-.007.004-.016.013-.026C.14.365.146.352.146.34A.054.054 0 0 0 .128.298.065.065 0 0 0 .082.28.075.075 0 0 0 .03.3a.057.057 0 0 0-.02.043.1.1 0 0 0 .027.067.175.175 0 0 0 .078.05.317.317 0 0 0 .103.017c.044 0 .078-.01.103-.028a.128.128 0 0 0 .05-.06.388.388 0 0 0 .006-.094V.118c0-.021 0-.034.002-.04A.023.023 0 0 1 .387.066a.017.017 0 0 1 .01-.004c.01 0 .018.007.027.019L.438.069a.18.18 0 0 0-.05-.053A.11.11 0 0 0 .328 0a.093.093 0 0 0-.06.018.084.084 0 0 0-.027.056m0 .035v.153A.285.285 0 0 1 .153.188a.09.09 0 0 1-.02-.053C.134.12.14.107.15.095A.044.044 0 0 1 .184.082C.2.082.22.092.241.109z"/></symbol><symbol id="k"><path d="M0 0v.022a.302.302 0 0 1 .075.066A.34.34 0 0 1 .126.2.953.953 0 0 1 .15.44a.905.905 0 0 1-.022.224.376.376 0 0 1-.057.129.225.225 0 0 1-.071.06v.024A.389.389 0 0 0 .2.716.488.488 0 0 0 .28.436.477.477 0 0 0 .2.16.39.39 0 0 0 0 0z"/></symbol><use xlink:href="#i" transform="matrix(13.6858 0 0 -13.6858 20.66 18.587)"/><use xlink:href="#j" transform="matrix(13.6858 0 0 -13.6858 25.284 15.934)"/><use xlink:href="#k" transform="matrix(13.6858 0 0 -13.6858 31.68 18.587)"/><symbol id="l"><path d="M.19.676V.424c.038.04.08.06.125.06.032 0 .061-.01.089-.028A.182.182 0 0 0 .469.378.277.277 0 0 0 .492.26c0-.05-.01-.095-.03-.136a.225.225 0 0 0-.08-.093.207.207 0 0 0-.179-.02.184.184 0 0 0-.057.038L.071 0H.054v.581A.197.197 0 0 1 .051.63a.036.036 0 0 1-.016.02A.072.072 0 0 1 0 .658v.018h.19m0-.295V.178c0-.042 0-.068.002-.08A.083.083 0 0 1 .216.053.066.066 0 0 1 .263.034c.017 0 .03.005.043.014.012.01.022.028.03.056a.627.627 0 0 1 .012.152C.348.326.338.374.32.4A.059.059 0 0 1 .27.428C.242.428.215.412.19.381z"/></symbol><use xlink:href="#i" transform="matrix(13.6858 0 0 -13.6858 186.657 18.587)"/><use xlink:href="#l" transform="matrix(13.6858 0 0 -13.6858 190.954 16.034)"/><use xlink:href="#k" transform="matrix(13.6858 0 0 -13.6858 198.443 18.587)"/><symbol id="m"><path d="M.368.131.383.12a.229.229 0 0 0-.08-.09A.192.192 0 0 0 .2 0C.14 0 .09.023.055.069A.258.258 0 0 0 0 .234c0 .063.017.117.05.164.04.057.095.086.165.086A.167.167 0 0 0 .328.448C.356.424.37.398.37.368A.06.06 0 0 0 .353.325.06.06 0 0 0 .309.308.065.065 0 0 0 .26.327C.248.339.24.362.238.395.236.415.23.429.224.437A.035.035 0 0 1 .197.45C.182.45.168.44.157.425A.208.208 0 0 1 .132.31c0-.043.007-.085.02-.124A.19.19 0 0 1 .208.099.1.1 0 0 1 .272.078c.016 0 .031.003.045.01a.209.209 0 0 1 .051.043z"/></symbol><use xlink:href="#i" transform="matrix(13.6858 0 0 -13.6858 352.383 18.587)"/><use xlink:href="#m" transform="matrix(13.6858 0 0 -13.6858 356.914 16.034)"/><use xlink:href="#k" transform="matrix(13.6858 0 0 -13.6858 362.636 18.587)"/><path stroke-miterlimit="10" fill="none" stroke="#000" d="M385.088 184.435c-54.802-22.836-67.307-64.303-37.517-124.403" stroke-width=".7205"/><path d="m388.582 185.89-5.627.39 2.133-1.845-.188-2.81 3.682 4.265z"/><path stroke-miterlimit="10" fill="none" stroke="#000" d="m388.582 185.89-5.627.39 2.133-1.845-.188-2.81 3.682 4.265z" stroke-width=".7205"/><path d="m349.25 56.646.021 5.642-1.7-2.256-2.824.015 4.503-3.401z"/><path stroke-miterlimit="10" fill="none" stroke="#000" d="m349.25 56.646.021 5.642-1.7-2.256-2.824.015 4.503-3.401zM526.184 65.191v40.788" stroke-width=".7205"/><path d="m526.184 109.762-2.522-5.044 2.522 1.26 2.522-1.26-2.522 5.044z"/><path stroke-miterlimit="10" fill="none" stroke="#000" d="m526.184 109.762-2.522-5.044 2.522 1.26 2.522-1.26-2.522 5.044z" stroke-width=".7205"/><path d="M627.029 45.738a14.369 14.369 0 0 1-1.097 5.513 14.37 14.37 0 0 1-3.123 4.673 14.374 14.374 0 0 1-4.673 3.123 14.373 14.373 0 0 1-5.513 1.097 14.373 14.373 0 0 1-5.513-1.097 14.373 14.373 0 0 1-4.674-3.123 14.373 14.373 0 0 1-3.123-4.673 14.37 14.37 0 0 1-1.096-5.513 14.373 14.373 0 0 1 1.096-5.513 14.368 14.368 0 0 1 3.123-4.674 14.37 14.37 0 0 1 4.674-3.123 14.37 14.37 0 0 1 5.513-1.097 14.37 14.37 0 0 1 5.513 1.097 14.374 14.374 0 0 1 4.673 3.123 14.375 14.375 0 0 1 3.123 4.674 14.372 14.372 0 0 1 1.097 5.513z" fill="#fff"/><path fill="none" stroke="#000" d="M627.029 45.738a14.369 14.369 0 0 1-1.097 5.513 14.37 14.37 0 0 1-3.123 4.673 14.374 14.374 0 0 1-4.673 3.123 14.373 14.373 0 0 1-5.513 1.097 14.373 14.373 0 0 1-5.513-1.097 14.373 14.373 0 0 1-4.674-3.123 14.373 14.373 0 0 1-3.123-4.673 14.37 14.37 0 0 1-1.096-5.513 14.373 14.373 0 0 1 1.096-5.513 14.368 14.368 0 0 1 3.123-4.674 14.37 14.37 0 0 1 4.674-3.123 14.37 14.37 0 0 1 5.513-1.097 14.37 14.37 0 0 1 5.513 1.097 14.374 14.374 0 0 1 4.673 3.123 14.375 14.375 0 0 1 3.123 4.674 14.372 14.372 0 0 1 1.097 5.513z" stroke-width=".7205"/><use xlink:href="#c" transform="matrix(11.52488 0 0 -11.52488 605.765 48.26)"/><use xlink:href="#d" transform="matrix(9.60167 0 0 -9.60167 614.339 51.408)"/><path stroke-miterlimit="10" fill="none" stroke="#000" d="M612.623 65.191v40.788" stroke-width=".7205"/><path d="m612.623 109.762-2.522-5.044 2.522 1.26 2.514-1.26-2.514 5.044z"/><path stroke-miterlimit="10" fill="none" stroke="#000" d="m612.623 109.762-2.522-5.044 2.522 1.26 2.514-1.26-2.514 5.044z" stroke-width=".7205"/><path d="M540.59 45.738a14.367 14.367 0 0 1-1.097 5.513 14.374 14.374 0 0 1-3.122 4.673 14.375 14.375 0 0 1-4.674 3.123 14.372 14.372 0 0 1-5.513 1.097 14.373 14.373 0 0 1-5.513-1.097 14.375 14.375 0 0 1-4.674-3.123 14.372 14.372 0 0 1-3.123-4.673 14.37 14.37 0 0 1-1.096-5.513 14.364 14.364 0 0 1 1.096-5.513 14.37 14.37 0 0 1 3.123-4.674 14.37 14.37 0 0 1 4.674-3.123 14.371 14.371 0 0 1 5.513-1.097 14.371 14.371 0 0 1 5.513 1.097 14.375 14.375 0 0 1 4.674 3.123 14.372 14.372 0 0 1 3.122 4.674 14.372 14.372 0 0 1 1.097 5.513z" fill="#fff"/><path fill="none" stroke="#000" d="M540.59 45.738a14.367 14.367 0 0 1-1.097 5.513 14.374 14.374 0 0 1-3.122 4.673 14.375 14.375 0 0 1-4.674 3.123 14.372 14.372 0 0 1-5.513 1.097 14.373 14.373 0 0 1-5.513-1.097 14.375 14.375 0 0 1-4.674-3.123 14.372 14.372 0 0 1-3.123-4.673 14.37 14.37 0 0 1-1.096-5.513 14.364 14.364 0 0 1 1.096-5.513 14.37 14.37 0 0 1 3.123-4.674 14.37 14.37 0 0 1 4.674-3.123 14.371 14.371 0 0 1 5.513-1.097 14.371 14.371 0 0 1 5.513 1.097 14.375 14.375 0 0 1 4.674 3.123 14.372 14.372 0 0 1 3.122 4.674 14.372 14.372 0 0 1 1.097 5.513z" stroke-width=".7205"/><use xlink:href="#c" transform="matrix(11.52488 0 0 -11.52488 519.329 48.26)"/><use xlink:href="#e" transform="matrix(9.60167 0 0 -9.60167 528.211 51.277)"/><path d="M540.59 124.971a14.367 14.367 0 0 1-1.097 5.513 14.373 14.373 0 0 1-3.122 4.674 14.375 14.375 0 0 1-4.674 3.123 14.372 14.372 0 0 1-5.513 1.097 14.374 14.374 0 0 1-5.513-1.097 14.374 14.374 0 0 1-4.674-3.123 14.372 14.372 0 0 1-3.123-4.674 14.371 14.371 0 0 1-1.096-5.513 14.364 14.364 0 0 1 1.096-5.513 14.37 14.37 0 0 1 3.123-4.673 14.37 14.37 0 0 1 4.674-3.123 14.372 14.372 0 0 1 5.513-1.097 14.372 14.372 0 0 1 5.513 1.097 14.374 14.374 0 0 1 4.674 3.123 14.372 14.372 0 0 1 3.122 4.673 14.372 14.372 0 0 1 1.097 5.513z" fill="#fff"/><path fill="none" stroke="#000" d="M540.59 124.971a14.367 14.367 0 0 1-1.097 5.513 14.373 14.373 0 0 1-3.122 4.674 14.375 14.375 0 0 1-4.674 3.123 14.372 14.372 0 0 1-5.513 1.097 14.374 14.374 0 0 1-5.513-1.097 14.374 14.374 0 0 1-4.674-3.123 14.372 14.372 0 0 1-3.123-4.674 14.371 14.371 0 0 1-1.096-5.513 14.364 14.364 0 0 1 1.096-5.513 14.37 14.37 0 0 1 3.123-4.673 14.37 14.37 0 0 1 4.674-3.123 14.372 14.372 0 0 1 5.513-1.097 14.372 14.372 0 0 1 5.513 1.097 14.374 14.374 0 0 1 4.674 3.123 14.372 14.372 0 0 1 3.122 4.673 14.372 14.372 0 0 1 1.097 5.513z" stroke-width=".7205"/><use xlink:href="#c" transform="matrix(11.52488 0 0 -11.52488 519.329 127.494)"/><use xlink:href="#f" transform="matrix(9.60167 0 0 -9.60167 527.813 130.51)"/><path d="M627.029 124.971a14.369 14.369 0 0 1-1.097 5.513 14.37 14.37 0 0 1-3.123 4.674 14.374 14.374 0 0 1-4.673 3.123 14.373 14.373 0 0 1-5.513 1.097 14.374 14.374 0 0 1-5.513-1.097 14.372 14.372 0 0 1-4.674-3.123 14.373 14.373 0 0 1-3.123-4.674 14.371 14.371 0 0 1-1.096-5.513 14.373 14.373 0 0 1 1.096-5.513 14.368 14.368 0 0 1 3.123-4.673 14.37 14.37 0 0 1 4.674-3.123 14.372 14.372 0 0 1 5.513-1.097 14.372 14.372 0 0 1 5.513 1.097 14.373 14.373 0 0 1 4.673 3.123 14.375 14.375 0 0 1 3.123 4.673 14.372 14.372 0 0 1 1.097 5.513z" fill="#fff"/><path fill="none" stroke="#000" d="M627.029 124.971a14.369 14.369 0 0 1-1.097 5.513 14.37 14.37 0 0 1-3.123 4.674 14.374 14.374 0 0 1-4.673 3.123 14.373 14.373 0 0 1-5.513 1.097 14.374 14.374 0 0 1-5.513-1.097 14.372 14.372 0 0 1-4.674-3.123 14.373 14.373 0 0 1-3.123-4.674 14.371 14.371 0 0 1-1.096-5.513 14.373 14.373 0 0 1 1.096-5.513 14.368 14.368 0 0 1 3.123-4.673 14.37 14.37 0 0 1 4.674-3.123 14.372 14.372 0 0 1 5.513-1.097 14.372 14.372 0 0 1 5.513 1.097 14.373 14.373 0 0 1 4.673 3.123 14.375 14.375 0 0 1 3.123 4.673 14.372 14.372 0 0 1 1.097 5.513z" stroke-width=".7205"/><use xlink:href="#c" transform="matrix(11.52488 0 0 -11.52488 605.765 127.494)"/><use xlink:href="#g" transform="matrix(9.60167 0 0 -9.60167 614.254 130.51)"/><path d="M583.806 182.597a14.374 14.374 0 0 1-1.097 5.513 14.37 14.37 0 0 1-3.123 4.674 14.369 14.369 0 0 1-4.673 3.123 14.371 14.371 0 0 1-5.513 1.096 14.373 14.373 0 0 1-5.513-1.096 14.37 14.37 0 0 1-4.674-3.123 14.37 14.37 0 0 1-3.123-4.674 14.364 14.364 0 0 1-1.096-5.513 14.373 14.373 0 0 1 1.096-5.513 14.375 14.375 0 0 1 3.123-4.673 14.37 14.37 0 0 1 4.674-3.123 14.372 14.372 0 0 1 5.513-1.097 14.372 14.372 0 0 1 5.513 1.097 14.372 14.372 0 0 1 4.673 3.123 14.372 14.372 0 0 1 3.123 4.673 14.37 14.37 0 0 1 1.097 5.513z" fill="#fff"/><path fill="none" stroke="#000" d="M583.806 182.597a14.374 14.374 0 0 1-1.097 5.513 14.37 14.37 0 0 1-3.123 4.674 14.369 14.369 0 0 1-4.673 3.123 14.371 14.371 0 0 1-5.513 1.096 14.373 14.373 0 0 1-5.513-1.096 14.37 14.37 0 0 1-4.674-3.123 14.37 14.37 0 0 1-3.123-4.674 14.364 14.364 0 0 1-1.096-5.513 14.373 14.373 0 0 1 1.096-5.513 14.375 14.375 0 0 1 3.123-4.673 14.37 14.37 0 0 1 4.674-3.123 14.372 14.372 0 0 1 5.513-1.097 14.372 14.372 0 0 1 5.513 1.097 14.372 14.372 0 0 1 4.673 3.123 14.372 14.372 0 0 1 3.123 4.673 14.37 14.37 0 0 1 1.097 5.513z" stroke-width=".7205"/><use xlink:href="#c" transform="matrix(11.52488 0 0 -11.52488 562.547 185.118)"/><use xlink:href="#h" transform="matrix(9.60167 0 0 -9.60167 570.952 188.27)"/><path stroke-miterlimit="10" fill="none" stroke="#000" d="m579.588 172.41 22.847-37.25M536.372 135.16l24.828 35.592M598.213 124.971h-57.626M598.955 60.126l-59.132 51.646" stroke-width=".7205"/><path d="m536.977 114.258 2.14-5.217.706 2.73 2.608 1.067-5.454 1.42z"/><path stroke-miterlimit="10" fill="none" stroke="#000" d="m536.977 114.258 2.14-5.217.706 2.73 2.608 1.067-5.454 1.42z" stroke-width=".7205"/><path d="M528.705 62.67c0 .334-.064.655-.192.964-.128.31-.31.582-.546.818a2.497 2.497 0 0 1-.818.547c-.31.128-.63.191-.965.192-.334 0-.656-.064-.965-.192a2.496 2.496 0 0 1-.818-.547 2.496 2.496 0 0 1-.546-.818 2.495 2.495 0 0 1-.192-.965c0-.334.064-.655.192-.964.128-.31.31-.582.546-.818.237-.237.51-.419.818-.547.31-.128.63-.192.965-.192.334 0 .656.064.965.192.309.128.581.31.818.547.236.236.418.509.546.818.128.309.192.63.192.964z" fill="#fff"/><path fill="none" stroke="#000" d="M528.705 62.67c0 .334-.064.655-.192.964-.128.31-.31.582-.546.818a2.497 2.497 0 0 1-.818.547c-.31.128-.63.191-.965.192-.334 0-.656-.064-.965-.192a2.496 2.496 0 0 1-.818-.547 2.496 2.496 0 0 1-.546-.818 2.495 2.495 0 0 1-.192-.965c0-.334.064-.655.192-.964.128-.31.31-.582.546-.818.237-.237.51-.419.818-.547.31-.128.63-.192.965-.192.334 0 .656.064.965.192.309.128.581.31.818.547.236.236.418.509.546.818.128.309.192.63.192.964z" stroke-width=".7205"/><path d="M615.144 62.67c0 .334-.064.655-.192.964-.128.31-.31.582-.546.818-.237.236-.51.419-.818.547-.31.128-.63.191-.965.192-.334 0-.656-.064-.965-.192a2.497 2.497 0 0 1-.818-.547 2.497 2.497 0 0 1-.546-.818 2.497 2.497 0 0 1-.192-.965c0-.334.064-.655.192-.964.128-.31.31-.582.546-.818.237-.237.51-.419.818-.547.309-.128.63-.192.965-.192.334 0 .656.064.965.192.308.128.581.31.818.547.236.236.418.509.546.818.128.309.192.63.192.964z" fill="#fff"/><path fill="none" stroke="#000" d="M615.144 62.67c0 .334-.064.655-.192.964-.128.31-.31.582-.546.818-.237.236-.51.419-.818.547-.31.128-.63.191-.965.192-.334 0-.656-.064-.965-.192a2.497 2.497 0 0 1-.818-.547 2.497 2.497 0 0 1-.546-.818 2.497 2.497 0 0 1-.192-.965c0-.334.064-.655.192-.964.128-.31.31-.582.546-.818.237-.237.51-.419.818-.547.309-.128.63-.192.965-.192.334 0 .656.064.965.192.308.128.581.31.818.547.236.236.418.509.546.818.128.309.192.63.192.964z" stroke-width=".7205"/><path d="M603.256 58.346c0 .335-.064.656-.192.965-.128.309-.31.582-.547.818-.236.236-.509.419-.818.547-.309.127-.63.191-.964.191-.335 0-.656-.064-.965-.191a2.497 2.497 0 0 1-.818-.547 2.497 2.497 0 0 1-.547-.818 2.496 2.496 0 0 1-.192-.965c0-.334.064-.655.192-.964.128-.31.31-.582.547-.818.236-.237.509-.419.818-.547.309-.128.63-.192.965-.192.334 0 .655.064.964.192.31.128.582.31.818.547.237.236.419.509.547.818.128.309.192.63.192.964z" fill="#fff"/><path fill="none" stroke="#000" d="M603.256 58.346c0 .335-.064.656-.192.965-.128.309-.31.582-.547.818-.236.236-.509.419-.818.547-.309.127-.63.191-.964.191-.335 0-.656-.064-.965-.191a2.497 2.497 0 0 1-.818-.547 2.497 2.497 0 0 1-.547-.818 2.496 2.496 0 0 1-.192-.965c0-.334.064-.655.192-.964.128-.31.31-.582.547-.818.236-.237.509-.419.818-.547.309-.128.63-.192.965-.192.334 0 .655.064.964.192.31.128.582.31.818.547.237.236.419.509.547.818.128.309.192.63.192.964z" stroke-width=".7205"/><symbol id="n"><path d="M.439.676V.15c0-.035 0-.056.003-.063A.04.04 0 0 1 .457.063a.08.08 0 0 1 .038-.01V.039L.302 0v.072A.238.238 0 0 0 .24.015.122.122 0 0 0 .18 0 .157.157 0 0 0 .04.078.281.281 0 0 0 0 .234c0 .049.008.093.025.132.017.039.04.068.07.088.03.02.061.03.095.03A.128.128 0 0 0 .248.47.195.195 0 0 0 .302.427v.137a.246.246 0 0 1-.004.063.042.042 0 0 1-.018.021.097.097 0 0 1-.044.007v.02H.44M.302.367C.278.412.25.436.214.436a.045.045 0 0 1-.03-.01.111.111 0 0 1-.03-.053.445.445 0 0 1-.01-.117c0-.058.003-.1.012-.128A.124.124 0 0 1 .19.068a.047.047 0 0 1 .031-.01c.029 0 .056.023.081.068v.24z"/></symbol><use xlink:href="#i" transform="matrix(13.6858 0 0 -13.6858 517.997 18.587)"/><use xlink:href="#n" transform="matrix(13.6858 0 0 -13.6858 522.534 16.034)"/><use xlink:href="#k" transform="matrix(13.6858 0 0 -13.6858 529.783 18.587)"/><path stroke-miterlimit="10" fill="none" stroke="#000" d="M551.48 184.435c-54.8-22.836-67.789-64.512-38.964-125.03" stroke-width=".7205"/><path d="m554.975 185.89-5.627.39 2.133-1.845-.195-2.81 3.69 4.265z"/><path stroke-miterlimit="10" fill="none" stroke="#000" d="m554.975 185.89-5.627.39 2.133-1.845-.195-2.81 3.69 4.265z" stroke-width=".7205"/><path d="M516.817 57.626c0 .334-.064.656-.192.965-.128.309-.31.581-.547.818a2.497 2.497 0 0 1-.818.546c-.308.128-.63.192-.964.192-.335 0-.656-.064-.965-.192a2.497 2.497 0 0 1-.818-.546 2.496 2.496 0 0 1-.546-.818 2.495 2.495 0 0 1-.192-.965c0-.334.064-.656.191-.965.128-.309.31-.581.547-.818.236-.236.509-.418.818-.546.309-.128.63-.192.965-.192.334 0 .656.064.964.192.31.128.582.31.818.546.237.237.419.51.547.818.128.309.192.63.192.965z" fill="#fff"/><path fill="none" stroke="#000" d="M516.817 57.626c0 .334-.064.656-.192.965-.128.309-.31.581-.547.818a2.497 2.497 0 0 1-.818.546c-.308.128-.63.192-.964.192-.335 0-.656-.064-.965-.192a2.497 2.497 0 0 1-.818-.546 2.496 2.496 0 0 1-.546-.818 2.495 2.495 0 0 1-.192-.965c0-.334.064-.656.191-.965.128-.309.31-.581.547-.818.236-.236.509-.418.818-.546.309-.128.63-.192.965-.192.334 0 .656.064.964.192.31.128.582.31.818.546.237.237.419.51.547.818.128.309.192.63.192.965z" stroke-width=".7205"/></g></svg>