<svg xmlns="http://www.w3.org/2000/svg" xmlns:xlink="http://www.w3.org/1999/xlink" width="481pt" height="368pt" viewBox="0 0 481 368"><clipPath id="a"><path transform="matrix(1 0 0 -1 0 368)" d="M35.72 252.37h199.75v90.72H35.72z"/></clipPath><g clip-path="url(#a)"><path stroke-width=".53" stroke-linejoin="round" fill="none" stroke="#ebebeb" d="M35.72 99.45h199.75M35.72 82.2h199.75M35.72 64.94h199.75M35.72 47.69h199.75M35.72 30.44h199.75M67.15 115.63V24.91M112.32 115.63V24.91M157.95 115.63V24.91M203.57 115.63V24.91"/><path stroke-width="1.07" stroke-linejoin="round" fill="none" stroke="#ebebeb" d="M35.72 108.08h199.75M35.72 90.82h199.75M35.72 73.57h199.75M35.72 56.32h199.75M35.72 39.06h199.75M44.8 115.63V24.91M89.51 115.63V24.91M135.14 115.63V24.91M180.76 115.63V24.91M226.39 115.63V24.91"/><path stroke-width="1.07" stroke-linejoin="round" fill="none" stroke="red" d="m44.8 52.42 1.82 28.62 6.39 15.63 9.13 1.62 18.25 1.31 18.25-.34 18.25-1.09 18.25.02 45.62.16 45.63-4.09"/><path stroke-width="1.07" stroke-linejoin="round" fill="none" stroke="#00a08a" d="m44.8 42.41 1.82 22.02 6.39 14.16 9.13 4.12 18.25 1.51 18.25 1.98 18.25.71 18.25.24 45.62-1.3 45.63-.51"/><path stroke-width="1.07" stroke-linejoin="round" fill="none" stroke="#f2ad00" d="m44.8 37.74 1.82 22.06 6.39 14.7 9.13 7.28 18.25 2.57 18.25 2.82 18.25 1.2 18.25 1.99 45.62.01 45.63-1.17"/><path d="M43.38 52.42c0-.78.64-1.42 1.42-1.42.78 0 1.42.64 1.42 1.42 0 .78-.64 1.42-1.42 1.42-.78 0-1.42-.64-1.42-1.42" fill="red"/><path stroke-width=".71" stroke-linecap="round" stroke-linejoin="round" fill="none" stroke="red" d="M43.38 52.42c0-.78.64-1.42 1.42-1.42.78 0 1.42.64 1.42 1.42 0 .78-.64 1.42-1.42 1.42-.78 0-1.42-.64-1.42-1.42"/><path d="M45.2 81.04c0-.78.64-1.42 1.42-1.42.78 0 1.42.64 1.42 1.42 0 .78-.64 1.42-1.42 1.42-.78 0-1.42-.64-1.42-1.42" fill="red"/><path stroke-width=".71" stroke-linecap="round" stroke-linejoin="round" fill="none" stroke="red" d="M45.2 81.04c0-.78.64-1.42 1.42-1.42.78 0 1.42.64 1.42 1.42 0 .78-.64 1.42-1.42 1.42-.78 0-1.42-.64-1.42-1.42"/><path d="M51.59 96.67c0-.78.64-1.42 1.42-1.42.78 0 1.42.64 1.42 1.42 0 .78-.64 1.42-1.42 1.42-.78 0-1.42-.64-1.42-1.42" fill="red"/><path stroke-width=".71" stroke-linecap="round" stroke-linejoin="round" fill="none" stroke="red" d="M51.59 96.67c0-.78.64-1.42 1.42-1.42.78 0 1.42.64 1.42 1.42 0 .78-.64 1.42-1.42 1.42-.78 0-1.42-.64-1.42-1.42"/><path d="M60.71 98.29a1.425 1.425 0 1 1 1.43 1.43c-.79 0-1.43-.64-1.43-1.43" fill="red"/><path stroke-width=".71" stroke-linecap="round" stroke-linejoin="round" fill="none" stroke="red" d="M60.71 98.29a1.425 1.425 0 1 1 1.43 1.43c-.79 0-1.43-.64-1.43-1.43"/><path d="M78.96 99.6a1.425 1.425 0 1 1 1.43 1.43c-.79 0-1.43-.64-1.43-1.43" fill="red"/><path stroke-width=".71" stroke-linecap="round" stroke-linejoin="round" fill="none" stroke="red" d="M78.96 99.6a1.425 1.425 0 1 1 1.43 1.43c-.79 0-1.43-.64-1.43-1.43"/><path d="M97.21 99.26a1.425 1.425 0 0 1 2.85 0 1.425 1.425 0 0 1-2.85 0" fill="red"/><path stroke-width=".71" stroke-linecap="round" stroke-linejoin="round" fill="none" stroke="red" d="M97.21 99.26a1.425 1.425 0 0 1 2.85 0 1.425 1.425 0 0 1-2.85 0"/><path d="M115.46 98.17a1.425 1.425 0 0 1 2.85 0 1.425 1.425 0 0 1-2.85 0" fill="red"/><path stroke-width=".71" stroke-linecap="round" stroke-linejoin="round" fill="none" stroke="red" d="M115.46 98.17a1.425 1.425 0 0 1 2.85 0 1.425 1.425 0 0 1-2.85 0"/><path d="M133.71 98.19a1.425 1.425 0 0 1 2.85 0 1.425 1.425 0 0 1-2.85 0" fill="red"/><path stroke-width=".71" stroke-linecap="round" stroke-linejoin="round" fill="none" stroke="red" d="M133.71 98.19a1.425 1.425 0 0 1 2.85 0 1.425 1.425 0 0 1-2.85 0"/><path d="M179.34 98.35c0-.79.64-1.43 1.42-1.43a1.425 1.425 0 0 1 0 2.85c-.78 0-1.42-.64-1.42-1.42" fill="red"/><path stroke-width=".71" stroke-linecap="round" stroke-linejoin="round" fill="none" stroke="red" d="M179.34 98.35c0-.79.64-1.43 1.42-1.43a1.425 1.425 0 0 1 0 2.85c-.78 0-1.42-.64-1.42-1.42"/><path d="M224.96 94.26c0-.79.64-1.42 1.43-1.42a1.419 1.419 0 1 1 0 2.84c-.79 0-1.43-.64-1.43-1.42" fill="red"/><path stroke-width=".71" stroke-linecap="round" stroke-linejoin="round" fill="none" stroke="red" d="M224.96 94.26c0-.79.64-1.42 1.43-1.42a1.419 1.419 0 1 1 0 2.84c-.79 0-1.43-.64-1.43-1.42"/><path d="M43.38 37.74a1.419 1.419 0 1 1 2.838-.002 1.419 1.419 0 0 1-2.838.002" fill="#f2ad00"/><path stroke-width=".71" stroke-linecap="round" stroke-linejoin="round" fill="none" stroke="#f2ad00" d="M43.38 37.74a1.419 1.419 0 1 1 2.838-.002 1.419 1.419 0 0 1-2.838.002"/><path d="M45.2 59.8c0-.78.64-1.42 1.42-1.42.78 0 1.42.64 1.42 1.42 0 .78-.64 1.42-1.42 1.42-.78 0-1.42-.64-1.42-1.42" fill="#f2ad00"/><path stroke-width=".71" stroke-linecap="round" stroke-linejoin="round" fill="none" stroke="#f2ad00" d="M45.2 59.8c0-.78.64-1.42 1.42-1.42.78 0 1.42.64 1.42 1.42 0 .78-.64 1.42-1.42 1.42-.78 0-1.42-.64-1.42-1.42"/><path d="M51.59 74.5c0-.78.64-1.42 1.42-1.42.78 0 1.42.64 1.42 1.42 0 .78-.64 1.42-1.42 1.42-.78 0-1.42-.64-1.42-1.42" fill="#f2ad00"/><path stroke-width=".71" stroke-linecap="round" stroke-linejoin="round" fill="none" stroke="#f2ad00" d="M51.59 74.5c0-.78.64-1.42 1.42-1.42.78 0 1.42.64 1.42 1.42 0 .78-.64 1.42-1.42 1.42-.78 0-1.42-.64-1.42-1.42"/><path d="M60.71 81.78a1.425 1.425 0 0 1 2.85 0 1.425 1.425 0 0 1-2.85 0" fill="#f2ad00"/><path stroke-width=".71" stroke-linecap="round" stroke-linejoin="round" fill="none" stroke="#f2ad00" d="M60.71 81.78a1.425 1.425 0 0 1 2.85 0 1.425 1.425 0 0 1-2.85 0"/><path d="M78.96 84.35a1.425 1.425 0 0 1 2.85 0c0 .79-.64 1.42-1.42 1.42-.79 0-1.43-.63-1.43-1.42" fill="#f2ad00"/><path stroke-width=".71" stroke-linecap="round" stroke-linejoin="round" fill="none" stroke="#f2ad00" d="M78.96 84.35a1.425 1.425 0 0 1 2.85 0c0 .79-.64 1.42-1.42 1.42-.79 0-1.43-.63-1.43-1.42"/><path d="M97.21 87.17c0-.79.64-1.43 1.43-1.43a1.425 1.425 0 1 1-1.43 1.43" fill="#f2ad00"/><path stroke-width=".71" stroke-linecap="round" stroke-linejoin="round" fill="none" stroke="#f2ad00" d="M97.21 87.17c0-.79.64-1.43 1.43-1.43a1.425 1.425 0 1 1-1.43 1.43"/><path d="M115.46 88.37a1.425 1.425 0 0 1 2.85 0c0 .79-.64 1.42-1.42 1.42-.79 0-1.43-.63-1.43-1.42" fill="#f2ad00"/><path stroke-width=".71" stroke-linecap="round" stroke-linejoin="round" fill="none" stroke="#f2ad00" d="M115.46 88.37a1.425 1.425 0 0 1 2.85 0c0 .79-.64 1.42-1.42 1.42-.79 0-1.43-.63-1.43-1.42"/><path d="M133.71 90.36a1.425 1.425 0 0 1 2.85 0 1.425 1.425 0 0 1-2.85 0" fill="#f2ad00"/><path stroke-width=".71" stroke-linecap="round" stroke-linejoin="round" fill="none" stroke="#f2ad00" d="M133.71 90.36a1.425 1.425 0 0 1 2.85 0 1.425 1.425 0 0 1-2.85 0"/><path d="M179.34 90.37c0-.78.64-1.42 1.42-1.42a1.425 1.425 0 0 1 0 2.85c-.78 0-1.42-.64-1.42-1.43" fill="#f2ad00"/><path stroke-width=".71" stroke-linecap="round" stroke-linejoin="round" fill="none" stroke="#f2ad00" d="M179.34 90.37c0-.78.64-1.42 1.42-1.42a1.425 1.425 0 0 1 0 2.85c-.78 0-1.42-.64-1.42-1.43"/><path d="M224.96 89.2a1.425 1.425 0 0 1 2.85 0 1.425 1.425 0 0 1-2.85 0" fill="#f2ad00"/><path stroke-width=".71" stroke-linecap="round" stroke-linejoin="round" fill="none" stroke="#f2ad00" d="M224.96 89.2a1.425 1.425 0 0 1 2.85 0 1.425 1.425 0 0 1-2.85 0"/><path d="M43.38 42.41c0-.78.64-1.42 1.42-1.42.78 0 1.42.64 1.42 1.42 0 .78-.64 1.42-1.42 1.42-.78 0-1.42-.64-1.42-1.42" fill="#00a08a"/><path stroke-width=".71" stroke-linecap="round" stroke-linejoin="round" fill="none" stroke="#00a08a" d="M43.38 42.41c0-.78.64-1.42 1.42-1.42.78 0 1.42.64 1.42 1.42 0 .78-.64 1.42-1.42 1.42-.78 0-1.42-.64-1.42-1.42"/><path d="M45.2 64.43a1.419 1.419 0 1 1 2.838-.002 1.419 1.419 0 0 1-2.838.002" fill="#00a08a"/><path stroke-width=".71" stroke-linecap="round" stroke-linejoin="round" fill="none" stroke="#00a08a" d="M45.2 64.43a1.419 1.419 0 1 1 2.838-.002 1.419 1.419 0 0 1-2.838.002"/><path d="M51.59 78.59c0-.78.64-1.42 1.42-1.42.78 0 1.42.64 1.42 1.42 0 .78-.64 1.42-1.42 1.42-.78 0-1.42-.64-1.42-1.42" fill="#00a08a"/><path stroke-width=".71" stroke-linecap="round" stroke-linejoin="round" fill="none" stroke="#00a08a" d="M51.59 78.59c0-.78.64-1.42 1.42-1.42.78 0 1.42.64 1.42 1.42 0 .78-.64 1.42-1.42 1.42-.78 0-1.42-.64-1.42-1.42"/><path d="M60.71 82.71a1.425 1.425 0 1 1 1.43 1.43c-.79 0-1.43-.64-1.43-1.43" fill="#00a08a"/><path stroke-width=".71" stroke-linecap="round" stroke-linejoin="round" fill="none" stroke="#00a08a" d="M60.71 82.71a1.425 1.425 0 1 1 1.43 1.43c-.79 0-1.43-.64-1.43-1.43"/><path d="M78.96 84.22c0-.79.64-1.43 1.43-1.43a1.425 1.425 0 1 1-1.43 1.43" fill="#00a08a"/><path stroke-width=".71" stroke-linecap="round" stroke-linejoin="round" fill="none" stroke="#00a08a" d="M78.96 84.22c0-.79.64-1.43 1.43-1.43a1.425 1.425 0 1 1-1.43 1.43"/><path d="M97.21 86.2a1.425 1.425 0 0 1 2.85 0 1.425 1.425 0 0 1-2.85 0" fill="#00a08a"/><path stroke-width=".71" stroke-linecap="round" stroke-linejoin="round" fill="none" stroke="#00a08a" d="M97.21 86.2a1.425 1.425 0 0 1 2.85 0 1.425 1.425 0 0 1-2.85 0"/><path d="M115.46 86.91a1.425 1.425 0 0 1 2.85 0 1.425 1.425 0 0 1-2.85 0" fill="#00a08a"/><path stroke-width=".71" stroke-linecap="round" stroke-linejoin="round" fill="none" stroke="#00a08a" d="M115.46 86.91a1.425 1.425 0 0 1 2.85 0 1.425 1.425 0 0 1-2.85 0"/><path d="M133.71 87.15a1.425 1.425 0 0 1 2.85 0 1.425 1.425 0 0 1-2.85 0" fill="#00a08a"/><path stroke-width=".71" stroke-linecap="round" stroke-linejoin="round" fill="none" stroke="#00a08a" d="M133.71 87.15a1.425 1.425 0 0 1 2.85 0 1.425 1.425 0 0 1-2.85 0"/><path d="M179.34 85.85c0-.78.64-1.42 1.42-1.42a1.425 1.425 0 0 1 0 2.85c-.78 0-1.42-.64-1.42-1.43" fill="#00a08a"/><path stroke-width=".71" stroke-linecap="round" stroke-linejoin="round" fill="none" stroke="#00a08a" d="M179.34 85.85c0-.78.64-1.42 1.42-1.42a1.425 1.425 0 0 1 0 2.85c-.78 0-1.42-.64-1.42-1.43"/><path d="M224.96 85.34a1.425 1.425 0 0 1 2.85 0 1.425 1.425 0 0 1-2.85 0" fill="#00a08a"/><path stroke-width=".71" stroke-linecap="round" stroke-linejoin="round" fill="none" stroke="#00a08a" d="M224.96 85.34a1.425 1.425 0 0 1 2.85 0 1.425 1.425 0 0 1-2.85 0"/><path d="m44.8 38.36 1.82 27.74 6.39 17.58 9.13 2.69 18.25 1.33 18.25-.53 18.25-1.75 18.25.62 45.62-.07 45.63-4.48v25.53l-45.63 3.7-45.62-.38-18.25.59-18.25.42-18.25.16-18.25-1.29-9.13-.55-6.39-13.68-1.82-29.51z" fill="red" fill-opacity=".149"/><path d="m44.8 32.77 1.82 20.77 6.39 15.7 9.13 4.41 18.25 1.41 18.25 1.75 18.25.39 18.25.67 45.62-1.15 45.63-.89v19.01l-45.63.15-45.62 1.44-18.25.19-18.25-1.04-18.25-2.21-18.25-1.59-9.13-3.84-6.39-12.62-1.82-23.26z" fill="#00a08a" fill-opacity=".149"/><path d="m44.8 29.04 1.82 19.09 6.39 14.45 9.13 6.92 18.25 2.21 18.25 3.18 18.25 1.85 18.25 1.49 45.62-.2 45.63-.86v24.06l-45.63 1.49-45.62-.24-18.25-2.48-18.25-.56L80.39 97l-18.25-2.93-9.13-7.64-6.39-14.95-1.82-25.05z" fill="#f2ad00" fill-opacity=".149"/><path stroke-width="1.07" stroke-linecap="round" stroke-linejoin="round" fill="none" stroke="#dcdcdc" d="M35.72 115.63h199.75V24.91H35.72z"/></g><symbol id="b"><path d="M.377.024C.287.025.269.041.269.118v.57H.252L0 .579V.553a.162.162 0 0 1 .02.008c.027.01.052.017.065.017C.11.578.121.556.121.509V.124C.122.043.101.025.002.024V0h.375v.024z"/></symbol><symbol id="c"><path d="M.461.211H.437C.408.14.397.134.294.133H.143l.162.154c.079.075.114.142.114.218a.176.176 0 0 1-.185.183.185.185 0 0 1-.133-.056.355.355 0 0 1-.087-.148h.028c.031.063.068.09.122.09A.108.108 0 0 0 .263.519a.156.156 0 0 0 .02-.072.29.29 0 0 0-.051-.148A1.858 1.858 0 0 0 0 .023V0h.416l.045.211z"/></symbol><use xlink:href="#b" transform="matrix(11 0 0 -11 20.505 111.82)" fill="#4d4d4d"/><use xlink:href="#c" transform="matrix(11 0 0 -11 25.477 111.82)" fill="#4d4d4d"/><symbol id="d"><path d="M.393.255v.433h-.08L.254.611A4.6 4.6 0 0 1 0 .257V.144h.248V0h.145v.144h.063v.111H.393m-.143 0H.041L.25.552V.255z"/></symbol><use xlink:href="#b" transform="matrix(11 0 0 -11 20.505 94.57)" fill="#4d4d4d"/><use xlink:href="#d" transform="matrix(11 0 0 -11 25.499 94.57)" fill="#4d4d4d"/><symbol id="e"><path d="M.442.701A.55.55 0 0 1 .171.608.377.377 0 0 1 0 .286C0 .113.091 0 .232 0c.124 0 .215.099.215.235C.447.356.374.434.26.434A.189.189 0 0 1 .176.417c.037.147.12.228.266.258v.026M.205.389c.067 0 .09-.054.09-.213C.295.056.283.027.234.027.21.027.193.037.183.056a.52.52 0 0 0-.027.199.36.36 0 0 0 .013.124c.008.006.021.01.036.01z"/></symbol><use xlink:href="#b" transform="matrix(11 0 0 -11 20.505 77.32)" fill="#4d4d4d"/><use xlink:href="#e" transform="matrix(11 0 0 -11 25.598 77.463)" fill="#4d4d4d"/><symbol id="f"><path d="M.15.337A.234.234 0 0 1 .044.28.148.148 0 0 1 0 .17C0 .068.085 0 .212 0c.139 0 .232.08.232.2 0 .087-.043.149-.15.217C.39.451.43.491.43.556.43.645.355.701.235.701.1.701.011.632.011.526c0-.076.04-.13.139-.189m.12.098C.186.478.14.533.14.589c0 .047.036.083.083.083C.279.672.311.627.311.55.311.502.303.479.27.435M.172.319C.281.246.305.214.305.14.305.073.272.032.218.032.157.032.121.085.121.174c0 .055.011.085.051.145z"/></symbol><use xlink:href="#b" transform="matrix(11 0 0 -11 20.505 60.06)" fill="#4d4d4d"/><use xlink:href="#f" transform="matrix(11 0 0 -11 25.598 60.203)" fill="#4d4d4d"/><symbol id="g"><path d="M.226.701C.161.701.095.657.054.585A.51.51 0 0 1 0 .353C0 .146.094 0 .227 0c.13 0 .225.148.225.35 0 .2-.097.351-.226.351M.294.235A.727.727 0 0 0 .277.071C.266.042.25.028.227.028c-.05 0-.069.058-.069.207v.229c0 .152.018.209.067.209S.294.611.294.464V.235z"/></symbol><use xlink:href="#c" transform="matrix(11 0 0 -11 19.977 42.81)" fill="#4d4d4d"/><use xlink:href="#g" transform="matrix(11 0 0 -11 25.554 42.953)" fill="#4d4d4d"/><symbol id="h"><path d="M.127.557h.278l.043.127H.126L.029.339a.742.742 0 0 0 .18-.027C.298.284.351.228.351.161c0-.056-.044-.1-.1-.1-.023 0-.05.012-.09.042C.118.135.088.148.062.148.026.148 0 .123 0 .088 0 .035.058 0 .147 0c.165 0 .282.1.282.241 0 .104-.064.184-.173.215a.633.633 0 0 1-.151.02l.022.081z"/></symbol><use xlink:href="#h" transform="scale(11 -11) rotate(45 16.205 -1.307)" fill="#4d4d4d"/><use xlink:href="#g" transform="scale(11 -11) rotate(45 15.96 -.699)" fill="#4d4d4d"/><use xlink:href="#c" transform="scale(11 -11) rotate(45 18.83 2.14)" fill="#4d4d4d"/><use xlink:href="#h" transform="scale(11 -11) rotate(45 18.587 2.754)" fill="#4d4d4d"/><use xlink:href="#g" transform="scale(11 -11) rotate(45 18.342 3.362)" fill="#4d4d4d"/><use xlink:href="#g" transform="scale(11 -11) rotate(45 18.092 3.966)" fill="#4d4d4d"/><use xlink:href="#h" transform="scale(11 -11) rotate(45 20.91 7.155)" fill="#4d4d4d"/><use xlink:href="#g" transform="scale(11 -11) rotate(45 20.665 7.764)" fill="#4d4d4d"/><use xlink:href="#g" transform="scale(11 -11) rotate(45 20.415 8.367)" fill="#4d4d4d"/><use xlink:href="#g" transform="scale(11 -11) rotate(45 20.165 8.971)" fill="#4d4d4d"/><symbol id="i"><path d="M.46.676H.044L0 .454h.025C.042.516.071.54.123.539H.33L.13 0h.095L.46.676z"/></symbol><use xlink:href="#i" transform="scale(11 -11) rotate(45 22.976 12.152)" fill="#4d4d4d"/><use xlink:href="#h" transform="scale(11 -11) rotate(45 22.734 12.765)" fill="#4d4d4d"/><use xlink:href="#g" transform="scale(11 -11) rotate(45 22.489 13.374)" fill="#4d4d4d"/><use xlink:href="#g" transform="scale(11 -11) rotate(45 22.239 13.977)" fill="#4d4d4d"/><use xlink:href="#b" transform="scale(11 -11) rotate(45 25.326 16.491)" fill="#4d4d4d"/><use xlink:href="#g" transform="scale(11 -11) rotate(45 25.112 17.052)" fill="#4d4d4d"/><use xlink:href="#g" transform="scale(11 -11) rotate(45 24.862 17.655)" fill="#4d4d4d"/><use xlink:href="#g" transform="scale(11 -11) rotate(45 24.612 18.259)" fill="#4d4d4d"/><use xlink:href="#g" transform="scale(11 -11) rotate(45 24.362 18.862)" fill="#4d4d4d"/><symbol id="j"><path d="M0 .018h.262v.025C.174.051.153.07.152.142v.402L.668 0H.7v.589c0 .057.015.071.09.08v.025H.542V.669C.626.662.65.641.65.57V.265L.247.694H.003V.669C.027.669.046.654.102.597V.123C.1.064.082.051 0 .043V.018z"/></symbol><use xlink:href="#j" transform="matrix(12 0 0 -12 130.812 160.966)"/><symbol id="k"><path d="M.26.862A.428.428 0 0 1 .131.767.493.493 0 0 1 .26 0v.028C.203.065.178.09.157.135a.692.692 0 0 0-.044.291c0 .139.014.239.042.299.02.044.045.07.105.11v.027z"/></symbol><symbol id="l"><path d="m.448.078-.01-.01C.435.065.432.064.427.064.413.064.406.072.406.089V.35C.406.435.33.487.208.487.095.487.019.436.019.361c0-.042.024-.066.065-.066.04 0 .068.024.068.058C.152.367.147.38.134.396.125.406.122.412.122.418c0 .021.027.037.063.037.059 0 .084-.027.084-.088V.294A.724.724 0 0 1 .064.213C.02.183 0 .149 0 .106 0 .045.046 0 .111 0c.057 0 .103.02.158.07C.28.019.302 0 .351 0c.043 0 .074.016.112.057L.448.078m-.18.036C.241.083.221.071.197.071c-.03 0-.051.027-.051.067 0 .058.042.1.122.121V.114z"/></symbol><symbol id="m"><path d="M0 0c.062.033.09.054.129.096A.49.49 0 0 1 0 .862V.834A.233.233 0 0 0 .103.727.692.692 0 0 0 .147.436.77.77 0 0 0 .105.137C.085.093.06.067 0 .027V0z"/></symbol><symbol id="n"><path d="M0 0z"/></symbol><symbol id="o"><path d="M.493.494v.217H.46C.452.684.445.677.425.677a.175.175 0 0 0-.046.01.371.371 0 0 1-.128.023C.1.71.01.633.01.506c0-.087.057-.15.188-.207L.27.267C.368.225.395.199.395.146.395.077.34.033.256.033a.202.202 0 0 0-.16.074.333.333 0 0 0-.064.14H0V0h.032c.006.026.015.034.033.034.009 0 .02-.003.045-.01A.443.443 0 0 1 .253 0c.162 0 .272.085.272.211 0 .075-.05.15-.12.182L.242.466C.153.506.13.531.13.579c0 .062.046.1.12.1C.3.679.347.66.387.623A.266.266 0 0 0 .463.494h.03z"/></symbol><symbol id="p"><path d="M.79.025C.715.033.697.046.696.096V.58C.697.631.72.648.79.651v.025H.426V.651C.5.648.52.632.522.58V.373H.264V.58c.002.051.024.068.097.071v.025H0V.651C.07.646.089.631.091.58V.096C.09.046.073.033 0 .025V0h.36v.025C.286.032.267.045.265.096v.23h.258v-.23C.52.045.502.032.426.025V0H.79v.025z"/></symbol><symbol id="q"><path d="M0 0h.365C.614 0 .78.138.78.345.78.551.62.676.352.676H0V.651C.073.646.095.631.096.584V.091C.096.047.065.025 0 .025V0m.283.607c0 .023.023.035.068.035C.434.642.49.609.53.54A.414.414 0 0 0 .58.33.381.381 0 0 0 .52.104C.48.058.425.035.35.035.299.035.284.048.284.093v.514z"/></symbol><use xlink:href="#k" transform="matrix(15 0 0 -15 108.58 17.71)"/><use xlink:href="#l" transform="matrix(15 0 0 -15 113.26 15.4)"/><use xlink:href="#m" transform="matrix(15 0 0 -15 120.79 17.71)"/><use xlink:href="#n" transform="matrix(15 0 0 -15 125.38 15.19)"/><use xlink:href="#o" transform="matrix(15 0 0 -15 129.707 15.475)"/><use xlink:href="#p" transform="matrix(15 0 0 -15 138.632 15.19)"/><use xlink:href="#q" transform="matrix(15 0 0 -15 151.032 15.19)"/><clipPath id="r"><path transform="matrix(1 0 0 -1 0 368)" d="M279.41 252.37h197v90.72h-197z"/></clipPath><g clip-path="url(#r)"><path stroke-width=".53" stroke-linejoin="round" fill="none" stroke="#ebebeb" d="M279.41 92.82h197M279.41 62.61h197M279.41 32.4h197M310.42 115.63V24.91M354.96 115.63V24.91M399.96 115.63V24.91M444.96 115.63V24.91"/><path stroke-width="1.07" stroke-linejoin="round" fill="none" stroke="#ebebeb" d="M279.41 107.93h197M279.41 77.72h197M279.41 47.5h197M288.37 115.63V24.91M332.46 115.63V24.91M377.46 115.63V24.91M422.46 115.63V24.91M467.46 115.63V24.91"/><path stroke-width="1.07" stroke-linejoin="round" fill="none" stroke="red" d="m288.37 64.4 1.8-15.37 6.3-7.06 9 1.02 18 .21 17.99.49 18 2.23 18-1.27 45 .76 45 5.35"/><path stroke-width="1.07" stroke-linejoin="round" fill="none" stroke="#00a08a" d="m288.37 90.71 1.8-17.12 6.3-13.84 9 .74 18-.44 17.99-3.26 18 2.77 18-1.7 45 2.62 45 3.44"/><path stroke-width="1.07" stroke-linejoin="round" fill="none" stroke="#f2ad00" d="m288.37 101.4 1.8-20.1 6.3-14.86 9-5.26 18-1.33 17.99-3.7 18 2.4 18-1.84 45 1.29 45 4.5"/><path d="M286.95 64.4c0-.79.64-1.43 1.42-1.43a1.425 1.425 0 0 1 0 2.85c-.78 0-1.42-.64-1.42-1.42" fill="red"/><path stroke-width=".71" stroke-linecap="round" stroke-linejoin="round" fill="none" stroke="red" d="M286.95 64.4c0-.79.64-1.43 1.42-1.43a1.425 1.425 0 0 1 0 2.85c-.78 0-1.42-.64-1.42-1.42"/><path d="M288.75 49.03c0-.78.64-1.42 1.42-1.42.78 0 1.42.64 1.42 1.42 0 .78-.64 1.42-1.42 1.42-.78 0-1.42-.64-1.42-1.42" fill="red"/><path stroke-width=".71" stroke-linecap="round" stroke-linejoin="round" fill="none" stroke="red" d="M288.75 49.03c0-.78.64-1.42 1.42-1.42.78 0 1.42.64 1.42 1.42 0 .78-.64 1.42-1.42 1.42-.78 0-1.42-.64-1.42-1.42"/><path d="M295.05 41.97c0-.78.64-1.42 1.42-1.42a1.419 1.419 0 1 1-1.42 1.42" fill="red"/><path stroke-width=".71" stroke-linecap="round" stroke-linejoin="round" fill="none" stroke="red" d="M295.05 41.97c0-.78.64-1.42 1.42-1.42a1.419 1.419 0 1 1-1.42 1.42"/><path d="M304.05 42.99c0-.78.64-1.42 1.42-1.42.78 0 1.42.64 1.42 1.42 0 .78-.64 1.42-1.42 1.42-.78 0-1.42-.64-1.42-1.42" fill="red"/><path stroke-width=".71" stroke-linecap="round" stroke-linejoin="round" fill="none" stroke="red" d="M304.05 42.99c0-.78.64-1.42 1.42-1.42.78 0 1.42.64 1.42 1.42 0 .78-.64 1.42-1.42 1.42-.78 0-1.42-.64-1.42-1.42"/><path d="M322.04 43.2a1.425 1.425 0 0 1 2.85 0c0 .79-.64 1.42-1.42 1.42-.79 0-1.43-.63-1.43-1.42" fill="red"/><path stroke-width=".71" stroke-linecap="round" stroke-linejoin="round" fill="none" stroke="red" d="M322.04 43.2a1.425 1.425 0 0 1 2.85 0c0 .79-.64 1.42-1.42 1.42-.79 0-1.43-.63-1.43-1.42"/><path d="M340.04 43.69a1.425 1.425 0 0 1 2.85 0 1.425 1.425 0 0 1-2.85 0" fill="red"/><path stroke-width=".71" stroke-linecap="round" stroke-linejoin="round" fill="none" stroke="red" d="M340.04 43.69a1.425 1.425 0 0 1 2.85 0 1.425 1.425 0 0 1-2.85 0"/><path d="M358.04 45.92c0-.78.64-1.42 1.42-1.42.78 0 1.42.64 1.42 1.42 0 .78-.64 1.42-1.42 1.42-.78 0-1.42-.64-1.42-1.42" fill="red"/><path stroke-width=".71" stroke-linecap="round" stroke-linejoin="round" fill="none" stroke="red" d="M358.04 45.92c0-.78.64-1.42 1.42-1.42.78 0 1.42.64 1.42 1.42 0 .78-.64 1.42-1.42 1.42-.78 0-1.42-.64-1.42-1.42"/><path d="M376.04 44.65c0-.78.64-1.42 1.42-1.42.78 0 1.42.64 1.42 1.42 0 .78-.64 1.42-1.42 1.42-.78 0-1.42-.64-1.42-1.42" fill="red"/><path stroke-width=".71" stroke-linecap="round" stroke-linejoin="round" fill="none" stroke="red" d="M376.04 44.65c0-.78.64-1.42 1.42-1.42.78 0 1.42.64 1.42 1.42 0 .78-.64 1.42-1.42 1.42-.78 0-1.42-.64-1.42-1.42"/><path d="M421.04 45.41c0-.78.64-1.42 1.42-1.42.78 0 1.42.64 1.42 1.42 0 .78-.64 1.42-1.42 1.42-.78 0-1.42-.64-1.42-1.42" fill="red"/><path stroke-width=".71" stroke-linecap="round" stroke-linejoin="round" fill="none" stroke="red" d="M421.04 45.41c0-.78.64-1.42 1.42-1.42.78 0 1.42.64 1.42 1.42 0 .78-.64 1.42-1.42 1.42-.78 0-1.42-.64-1.42-1.42"/><path d="M466.03 50.76c0-.79.64-1.43 1.43-1.43a1.425 1.425 0 1 1-1.43 1.43" fill="red"/><path stroke-width=".71" stroke-linecap="round" stroke-linejoin="round" fill="none" stroke="red" d="M466.03 50.76c0-.79.64-1.43 1.43-1.43a1.425 1.425 0 1 1-1.43 1.43"/><path d="M286.95 101.4c0-.78.64-1.42 1.42-1.42.78 0 1.42.64 1.42 1.42 0 .78-.64 1.42-1.42 1.42-.78 0-1.42-.64-1.42-1.42" fill="#f2ad00"/><path stroke-width=".71" stroke-linecap="round" stroke-linejoin="round" fill="none" stroke="#f2ad00" d="M286.95 101.4c0-.78.64-1.42 1.42-1.42.78 0 1.42.64 1.42 1.42 0 .78-.64 1.42-1.42 1.42-.78 0-1.42-.64-1.42-1.42"/><path d="M288.75 81.3c0-.78.64-1.42 1.42-1.42.78 0 1.42.64 1.42 1.42 0 .78-.64 1.42-1.42 1.42-.78 0-1.42-.64-1.42-1.42" fill="#f2ad00"/><path stroke-width=".71" stroke-linecap="round" stroke-linejoin="round" fill="none" stroke="#f2ad00" d="M288.75 81.3c0-.78.64-1.42 1.42-1.42.78 0 1.42.64 1.42 1.42 0 .78-.64 1.42-1.42 1.42-.78 0-1.42-.64-1.42-1.42"/><path d="M295.05 66.44c0-.78.64-1.42 1.42-1.42.78 0 1.42.64 1.42 1.42 0 .78-.64 1.42-1.42 1.42-.78 0-1.42-.64-1.42-1.42" fill="#f2ad00"/><path stroke-width=".71" stroke-linecap="round" stroke-linejoin="round" fill="none" stroke="#f2ad00" d="M295.05 66.44c0-.78.64-1.42 1.42-1.42.78 0 1.42.64 1.42 1.42 0 .78-.64 1.42-1.42 1.42-.78 0-1.42-.64-1.42-1.42"/><path d="M304.05 61.18c0-.78.64-1.42 1.42-1.42a1.425 1.425 0 0 1 0 2.85c-.78 0-1.42-.64-1.42-1.43" fill="#f2ad00"/><path stroke-width=".71" stroke-linecap="round" stroke-linejoin="round" fill="none" stroke="#f2ad00" d="M304.05 61.18c0-.78.64-1.42 1.42-1.42a1.425 1.425 0 0 1 0 2.85c-.78 0-1.42-.64-1.42-1.43"/><path d="M322.04 59.85a1.425 1.425 0 0 1 2.85 0 1.425 1.425 0 0 1-2.85 0" fill="#f2ad00"/><path stroke-width=".71" stroke-linecap="round" stroke-linejoin="round" fill="none" stroke="#f2ad00" d="M322.04 59.85a1.425 1.425 0 0 1 2.85 0 1.425 1.425 0 0 1-2.85 0"/><path d="M340.04 56.15a1.425 1.425 0 0 1 2.85 0 1.425 1.425 0 0 1-2.85 0" fill="#f2ad00"/><path stroke-width=".71" stroke-linecap="round" stroke-linejoin="round" fill="none" stroke="#f2ad00" d="M340.04 56.15a1.425 1.425 0 0 1 2.85 0 1.425 1.425 0 0 1-2.85 0"/><path d="M358.04 58.55c0-.78.64-1.42 1.42-1.42.78 0 1.42.64 1.42 1.42 0 .78-.64 1.42-1.42 1.42-.78 0-1.42-.64-1.42-1.42" fill="#f2ad00"/><path stroke-width=".71" stroke-linecap="round" stroke-linejoin="round" fill="none" stroke="#f2ad00" d="M358.04 58.55c0-.78.64-1.42 1.42-1.42.78 0 1.42.64 1.42 1.42 0 .78-.64 1.42-1.42 1.42-.78 0-1.42-.64-1.42-1.42"/><path d="M376.04 56.71c0-.78.64-1.42 1.42-1.42.78 0 1.42.64 1.42 1.42 0 .78-.64 1.42-1.42 1.42-.78 0-1.42-.64-1.42-1.42" fill="#f2ad00"/><path stroke-width=".71" stroke-linecap="round" stroke-linejoin="round" fill="none" stroke="#f2ad00" d="M376.04 56.71c0-.78.64-1.42 1.42-1.42.78 0 1.42.64 1.42 1.42 0 .78-.64 1.42-1.42 1.42-.78 0-1.42-.64-1.42-1.42"/><path d="M421.04 58c0-.78.64-1.42 1.42-1.42a1.425 1.425 0 0 1 0 2.85c-.78 0-1.42-.64-1.42-1.43" fill="#f2ad00"/><path stroke-width=".71" stroke-linecap="round" stroke-linejoin="round" fill="none" stroke="#f2ad00" d="M421.04 58c0-.78.64-1.42 1.42-1.42a1.425 1.425 0 0 1 0 2.85c-.78 0-1.42-.64-1.42-1.43"/><path d="M466.03 62.5c0-.79.64-1.42 1.43-1.42a1.419 1.419 0 1 1 0 2.84c-.79 0-1.43-.64-1.43-1.42" fill="#f2ad00"/><path stroke-width=".71" stroke-linecap="round" stroke-linejoin="round" fill="none" stroke="#f2ad00" d="M466.03 62.5c0-.79.64-1.42 1.43-1.42a1.419 1.419 0 1 1 0 2.84c-.79 0-1.43-.64-1.43-1.42"/><path d="M286.95 90.71c0-.78.64-1.42 1.42-1.42.78 0 1.42.64 1.42 1.42 0 .78-.64 1.42-1.42 1.42-.78 0-1.42-.64-1.42-1.42" fill="#00a08a"/><path stroke-width=".71" stroke-linecap="round" stroke-linejoin="round" fill="none" stroke="#00a08a" d="M286.95 90.71c0-.78.64-1.42 1.42-1.42.78 0 1.42.64 1.42 1.42 0 .78-.64 1.42-1.42 1.42-.78 0-1.42-.64-1.42-1.42"/><path d="M288.75 73.59c0-.78.64-1.42 1.42-1.42.78 0 1.42.64 1.42 1.42 0 .78-.64 1.42-1.42 1.42-.78 0-1.42-.64-1.42-1.42" fill="#00a08a"/><path stroke-width=".71" stroke-linecap="round" stroke-linejoin="round" fill="none" stroke="#00a08a" d="M288.75 73.59c0-.78.64-1.42 1.42-1.42.78 0 1.42.64 1.42 1.42 0 .78-.64 1.42-1.42 1.42-.78 0-1.42-.64-1.42-1.42"/><path d="M295.05 59.75c0-.78.64-1.42 1.42-1.42.78 0 1.42.64 1.42 1.42 0 .78-.64 1.42-1.42 1.42-.78 0-1.42-.64-1.42-1.42" fill="#00a08a"/><path stroke-width=".71" stroke-linecap="round" stroke-linejoin="round" fill="none" stroke="#00a08a" d="M295.05 59.75c0-.78.64-1.42 1.42-1.42.78 0 1.42.64 1.42 1.42 0 .78-.64 1.42-1.42 1.42-.78 0-1.42-.64-1.42-1.42"/><path d="M304.05 60.49c0-.78.64-1.42 1.42-1.42.78 0 1.42.64 1.42 1.42 0 .78-.64 1.42-1.42 1.42-.78 0-1.42-.64-1.42-1.42" fill="#00a08a"/><path stroke-width=".71" stroke-linecap="round" stroke-linejoin="round" fill="none" stroke="#00a08a" d="M304.05 60.49c0-.78.64-1.42 1.42-1.42.78 0 1.42.64 1.42 1.42 0 .78-.64 1.42-1.42 1.42-.78 0-1.42-.64-1.42-1.42"/><path d="M322.04 60.05c0-.79.64-1.42 1.43-1.42a1.419 1.419 0 1 1 0 2.84c-.79 0-1.43-.64-1.43-1.42" fill="#00a08a"/><path stroke-width=".71" stroke-linecap="round" stroke-linejoin="round" fill="none" stroke="#00a08a" d="M322.04 60.05c0-.79.64-1.42 1.43-1.42a1.419 1.419 0 1 1 0 2.84c-.79 0-1.43-.64-1.43-1.42"/><path d="M340.04 56.79c0-.79.64-1.42 1.42-1.42.79 0 1.43.63 1.43 1.42a1.425 1.425 0 0 1-2.85 0" fill="#00a08a"/><path stroke-width=".71" stroke-linecap="round" stroke-linejoin="round" fill="none" stroke="#00a08a" d="M340.04 56.79c0-.79.64-1.42 1.42-1.42.79 0 1.43.63 1.43 1.42a1.425 1.425 0 0 1-2.85 0"/><path d="M358.04 59.56c0-.79.64-1.43 1.42-1.43a1.425 1.425 0 0 1 0 2.85c-.78 0-1.42-.64-1.42-1.42" fill="#00a08a"/><path stroke-width=".71" stroke-linecap="round" stroke-linejoin="round" fill="none" stroke="#00a08a" d="M358.04 59.56c0-.79.64-1.43 1.42-1.43a1.425 1.425 0 0 1 0 2.85c-.78 0-1.42-.64-1.42-1.42"/><path d="M376.04 57.86a1.419 1.419 0 1 1 2.838-.002 1.419 1.419 0 0 1-2.838.002" fill="#00a08a"/><path stroke-width=".71" stroke-linecap="round" stroke-linejoin="round" fill="none" stroke="#00a08a" d="M376.04 57.86a1.419 1.419 0 1 1 2.838-.002 1.419 1.419 0 0 1-2.838.002"/><path d="M421.04 60.48c0-.78.64-1.42 1.42-1.42.78 0 1.42.64 1.42 1.42 0 .78-.64 1.42-1.42 1.42-.78 0-1.42-.64-1.42-1.42" fill="#00a08a"/><path stroke-width=".71" stroke-linecap="round" stroke-linejoin="round" fill="none" stroke="#00a08a" d="M421.04 60.48c0-.78.64-1.42 1.42-1.42.78 0 1.42.64 1.42 1.42 0 .78-.64 1.42-1.42 1.42-.78 0-1.42-.64-1.42-1.42"/><path d="M466.03 63.92c0-.79.64-1.43 1.43-1.43a1.425 1.425 0 1 1-1.43 1.43" fill="#00a08a"/><path stroke-width=".71" stroke-linecap="round" stroke-linejoin="round" fill="none" stroke="#00a08a" d="M466.03 63.92c0-.79.64-1.43 1.43-1.43a1.425 1.425 0 1 1-1.43 1.43"/><path d="m288.37 41.56 1.8-7.49 6.3-3.48 9 .36 18-.5 17.99-.39 18 .36 18-1.38 45 .43 45 2.8v36.97l-45-7.88-45-1.1-18 1.15-18-4.09-17.99-1.36-18-.94-9-1.66-6.3 10.63-1.8 23.24z" fill="red" fill-opacity=".149"/><path d="m288.37 74.77 1.8-19.46 6.3-12.57 9 1.29 18-.57 17.99-2.78 18 2.51 18-1.24 45 2.16 45 3.41v32.79l-45-3.46-45-3.09-18 2.16-18-3.03-17.99 3.75-18 .31-9-.19-6.3 15.11-1.8 14.78z" fill="#00a08a" fill-opacity=".149"/><path d="m288.37 91.29 1.8-27.47 6.3-15.48 9-4.85 18-.98 17.99-3.24 18 3 18-1.56 45 .83 45 4.82v32.27l-45-4.16-45-1.75-18 2.1-18-1.79-17.99 4.15-18 1.7-9 5.65-6.3 14.25-1.8 12.73z" fill="#f2ad00" fill-opacity=".149"/><path stroke-width="1.07" stroke-linecap="round" stroke-linejoin="round" fill="none" stroke="#dcdcdc" d="M279.41 115.63h197V24.91h-197z"/></g><symbol id="s"><path d="M.084.169A.085.085 0 0 1 0 .085C0 .037.036 0 .083 0c.048 0 .086.036.086.083a.085.085 0 0 1-.085.086z"/></symbol><use xlink:href="#g" transform="matrix(11 0 0 -11 260.994 111.813)" fill="#4d4d4d"/><use xlink:href="#s" transform="matrix(11 0 0 -11 266.681 111.813)" fill="#4d4d4d"/><use xlink:href="#c" transform="matrix(11 0 0 -11 269.167 111.67)" fill="#4d4d4d"/><use xlink:href="#g" transform="matrix(11 0 0 -11 260.994 81.603)" fill="#4d4d4d"/><use xlink:href="#s" transform="matrix(11 0 0 -11 266.681 81.603)" fill="#4d4d4d"/><use xlink:href="#d" transform="matrix(11 0 0 -11 269.189 81.46)" fill="#4d4d4d"/><use xlink:href="#g" transform="matrix(11 0 0 -11 260.994 51.393)" fill="#4d4d4d"/><use xlink:href="#s" transform="matrix(11 0 0 -11 266.681 51.393)" fill="#4d4d4d"/><use xlink:href="#e" transform="matrix(11 0 0 -11 269.288 51.393)" fill="#4d4d4d"/><use xlink:href="#h" transform="scale(11 -11) rotate(45 27.274 25.415)" fill="#4d4d4d"/><use xlink:href="#g" transform="scale(11 -11) rotate(45 27.03 26.024)" fill="#4d4d4d"/><use xlink:href="#c" transform="scale(11 -11) rotate(45 29.87 28.795)" fill="#4d4d4d"/><use xlink:href="#h" transform="scale(11 -11) rotate(45 29.627 29.408)" fill="#4d4d4d"/><use xlink:href="#g" transform="scale(11 -11) rotate(45 29.383 30.017)" fill="#4d4d4d"/><use xlink:href="#g" transform="scale(11 -11) rotate(45 29.133 30.62)" fill="#4d4d4d"/><use xlink:href="#h" transform="scale(11 -11) rotate(45 31.922 33.742)" fill="#4d4d4d"/><use xlink:href="#g" transform="scale(11 -11) rotate(45 31.677 34.35)" fill="#4d4d4d"/><use xlink:href="#g" transform="scale(11 -11) rotate(45 31.427 34.954)" fill="#4d4d4d"/><use xlink:href="#g" transform="scale(11 -11) rotate(45 31.177 35.557)" fill="#4d4d4d"/><use xlink:href="#i" transform="scale(11 -11) rotate(45 33.96 38.669)" fill="#4d4d4d"/><use xlink:href="#h" transform="scale(11 -11) rotate(45 33.717 39.282)" fill="#4d4d4d"/><use xlink:href="#g" transform="scale(11 -11) rotate(45 33.472 39.89)" fill="#4d4d4d"/><use xlink:href="#g" transform="scale(11 -11) rotate(45 33.222 40.494)" fill="#4d4d4d"/><use xlink:href="#b" transform="scale(11 -11) rotate(45 36.281 42.94)" fill="#4d4d4d"/><use xlink:href="#g" transform="scale(11 -11) rotate(45 36.068 43.5)" fill="#4d4d4d"/><use xlink:href="#g" transform="scale(11 -11) rotate(45 35.818 44.103)" fill="#4d4d4d"/><use xlink:href="#g" transform="scale(11 -11) rotate(45 35.568 44.707)" fill="#4d4d4d"/><use xlink:href="#g" transform="scale(11 -11) rotate(45 35.318 45.31)" fill="#4d4d4d"/><use xlink:href="#j" transform="matrix(12 0 0 -12 373.132 160.966)"/><symbol id="t"><path d="M0 .666C.05.658.06.649.06.608V.001h.014L.16.057A.206.206 0 0 1 .305 0c.147 0 .249.103.249.253 0 .139-.085.234-.207.234A.177.177 0 0 1 .213.431V.69H0V.666M.213.374c.02.043.04.059.077.059.068 0 .102-.066.102-.198C.392.096.36.032.29.032.243.032.213.063.213.111v.263z"/></symbol><symbol id="u"><path d="M0 0h.334v.025C.256.034.248.043.246.117v.186c.135.001.169.005.213.022.081.031.125.091.125.169C.584.61.489.676.322.676H0V.651C.068.646.082.631.084.559V.117C.083.055.069.033.024.029L0 .025V0m.246.606c0 .023.017.035.05.035.083 0 .116-.044.116-.152C.412.426.4.388.374.365.35.345.317.338.246.338v.268z"/></symbol><symbol id="v"><path d="M.233.024C.18.027.17.04.169.103v.189c0 .052.025.095.054.095C.23.387.237.38.247.364.264.337.277.328.3.328c.032 0 .055.028.055.066 0 .046-.03.079-.071.079C.24.473.207.447.166.379v.082H0V.437C.037.432.046.42.047.378V.084C.047.042.037.031 0 .024V0h.233v.024z"/></symbol><symbol id="w"><path d="M.425.139C.378.09.345.072.296.072a.114.114 0 0 0-.1.053C.176.157.166.19.162.259h.284C.439.343.422.39.386.428a.2.2 0 0 1-.152.059C.094.487 0 .388 0 .242S.092 0 .232 0c.091 0 .146.031.22.125L.425.139M.157.296c.003.12.023.16.078.16.053 0 .07-.034.072-.145V.296h-.15z"/></symbol><symbol id="x"><path d="M.387.123C.35.081.324.067.283.067.196.067.141.154.141.29c0 .103.032.166.084.166.016 0 .031-.008.037-.019C.267.428.267.428.267.386.268.336.285.314.323.314c.042 0 .068.024.068.063 0 .062-.067.11-.155.11C.1.487 0 .381 0 .237 0 .098.089 0 .214 0c.077 0 .133.031.191.105L.387.123z"/></symbol><symbol id="y"><path d="M.286.024C.246.028.23.043.23.081v.38H0V.437C.053.429.062.42.063.378V.084c0-.042-.01-.05-.063-.06V0h.286v.024m-.14.667C.095.691.053.656.053.614c0-.045.04-.078.092-.078.053 0 .093.033.093.077S.198.691.146.691z"/></symbol><symbol id="z"><path d="M.36.34v.145H.334C.328.47.321.465.306.465A.151.151 0 0 0 .27.472a.296.296 0 0 1-.09.015C.078.487.002.425.002.341.002.275.05.229.164.186c.08-.03.11-.055.11-.087C.274.06.24.034.188.034c-.08 0-.132.045-.156.132H0V.001h.029c.012.022.019.028.03.028A.09.09 0 0 0 .083.023.446.446 0 0 1 .208 0c.104 0 .176.062.176.152C.384.223.34.266.226.308.148.337.116.362.116.396c0 .033.032.058.076.058.03 0 .06-.011.085-.032A.17.17 0 0 0 .331.34H.36z"/></symbol><symbol id="A"><path d="M.251.487A.242.242 0 0 1 0 .246C0 .103.105 0 .251 0c.145 0 .25.103.25.243a.24.24 0 0 1-.25.244M.252.456C.317.456.338.401.338.237.338.083.316.031.251.031S.163.082.163.229c0 .175.02.227.09.227z"/></symbol><symbol id="B"><path d="M.57.024C.528.026.513.041.514.081v.251c0 .086-.058.141-.148.141A.18.18 0 0 1 .21.386v.075H0V.437C.048.43.057.421.058.378V.084C.058.041.048.032 0 .024V0h.265v.024C.225.028.21.044.21.081v.267c0 .003.008.014.019.024.024.022.05.034.075.034.039 0 .058-.027.058-.083V.081C.362.043.347.027.31.024V0h.258v.024z"/></symbol><use xlink:href="#k" transform="matrix(15 0 0 -15 335.49 17.71)"/><use xlink:href="#t" transform="matrix(15 0 0 -15 340.075 15.4)"/><use xlink:href="#m" transform="matrix(15 0 0 -15 349.365 17.71)"/><use xlink:href="#n" transform="matrix(15 0 0 -15 353.955 15.19)"/><use xlink:href="#u" transform="matrix(15 0 0 -15 357.945 15.19)"/><use xlink:href="#v" transform="matrix(15 0 0 -15 367.251 15.19)"/><use xlink:href="#w" transform="matrix(15 0 0 -15 373.127 15.4)"/><use xlink:href="#x" transform="matrix(15 0 0 -15 380.58 15.4)"/><use xlink:href="#y" transform="matrix(15 0 0 -15 387.152 15.19)"/><use xlink:href="#z" transform="matrix(15 0 0 -15 392.288 15.4)"/><use xlink:href="#y" transform="matrix(15 0 0 -15 398.807 15.19)"/><use xlink:href="#A" transform="matrix(15 0 0 -15 403.932 15.4)"/><use xlink:href="#B" transform="matrix(15 0 0 -15 412.201 15.19)"/><clipPath id="C"><path transform="matrix(1 0 0 -1 0 368)" d="M38.47 82.23h197v90.72h-197z"/></clipPath><g clip-path="url(#C)"><path stroke-width=".53" stroke-linejoin="round" fill="none" stroke="#ebebeb" d="M38.47 281.27h197M38.47 256.35h197M38.47 231.42h197M38.47 206.5h197M69.47 285.77v-90.72M114.02 285.77v-90.72M159.02 285.77v-90.72M204.01 285.77v-90.72"/><path stroke-width="1.07" stroke-linejoin="round" fill="none" stroke="#ebebeb" d="M38.47 268.81h197M38.47 243.89h197M38.47 218.96h197M47.42 285.77v-90.72M91.52 285.77v-90.72M136.52 285.77v-90.72M181.51 285.77v-90.72M226.51 285.77v-90.72"/><path stroke-width="1.07" stroke-linejoin="round" fill="none" stroke="red" d="m47.42 258.86 1.8-23.2 6.3-14.31 9-1.56 18-.55 18 .7 18 2.86 18-.98 44.99.09 45 8.32"/><path stroke-width="1.07" stroke-linejoin="round" fill="none" stroke="#00a08a" d="m47.42 264.99 1.8-16.74 6.3-11.56 9-2.5 18-.79 18-1.43 18 .96 18-.94 44.99 2.74 45 5.52"/><path stroke-width="1.07" stroke-linejoin="round" fill="none" stroke="#f2ad00" d="m47.42 271.97 1.8-17.46 6.3-12.04 9-5.23 18-1.22 18-2.49 18 .79 18-1.3 44.99 1.34 45 6.7"/><path d="M46 258.86c0-.78.64-1.42 1.42-1.42.78 0 1.42.64 1.42 1.42 0 .78-.64 1.42-1.42 1.42-.78 0-1.42-.64-1.42-1.42" fill="red"/><path stroke-width=".71" stroke-linecap="round" stroke-linejoin="round" fill="none" stroke="red" d="M46 258.86c0-.78.64-1.42 1.42-1.42.78 0 1.42.64 1.42 1.42 0 .78-.64 1.42-1.42 1.42-.78 0-1.42-.64-1.42-1.42"/><path d="M47.8 235.66c0-.78.64-1.42 1.42-1.42.78 0 1.42.64 1.42 1.42 0 .78-.64 1.42-1.42 1.42-.78 0-1.42-.64-1.42-1.42" fill="red"/><path stroke-width=".71" stroke-linecap="round" stroke-linejoin="round" fill="none" stroke="red" d="M47.8 235.66c0-.78.64-1.42 1.42-1.42.78 0 1.42.64 1.42 1.42 0 .78-.64 1.42-1.42 1.42-.78 0-1.42-.64-1.42-1.42"/><path d="M54.1 221.35c0-.78.64-1.42 1.42-1.42a1.425 1.425 0 0 1 0 2.85c-.78 0-1.42-.64-1.42-1.43" fill="red"/><path stroke-width=".71" stroke-linecap="round" stroke-linejoin="round" fill="none" stroke="red" d="M54.1 221.35c0-.78.64-1.42 1.42-1.42a1.425 1.425 0 0 1 0 2.85c-.78 0-1.42-.64-1.42-1.43"/><path d="M63.1 219.79c0-.78.64-1.42 1.42-1.42.78 0 1.42.64 1.42 1.42 0 .78-.64 1.42-1.42 1.42-.78 0-1.42-.64-1.42-1.42" fill="red"/><path stroke-width=".71" stroke-linecap="round" stroke-linejoin="round" fill="none" stroke="red" d="M63.1 219.79c0-.78.64-1.42 1.42-1.42.78 0 1.42.64 1.42 1.42 0 .78-.64 1.42-1.42 1.42-.78 0-1.42-.64-1.42-1.42"/><path d="M81.1 219.24c0-.79.64-1.43 1.42-1.43a1.425 1.425 0 0 1 0 2.85c-.78 0-1.42-.64-1.42-1.42" fill="red"/><path stroke-width=".71" stroke-linecap="round" stroke-linejoin="round" fill="none" stroke="red" d="M81.1 219.24c0-.79.64-1.43 1.42-1.43a1.425 1.425 0 0 1 0 2.85c-.78 0-1.42-.64-1.42-1.42"/><path d="M99.1 219.94c0-.79.64-1.43 1.42-1.43a1.425 1.425 0 0 1 0 2.85c-.78 0-1.42-.64-1.42-1.42" fill="red"/><path stroke-width=".71" stroke-linecap="round" stroke-linejoin="round" fill="none" stroke="red" d="M99.1 219.94c0-.79.64-1.43 1.42-1.43a1.425 1.425 0 0 1 0 2.85c-.78 0-1.42-.64-1.42-1.42"/><path d="M117.1 222.8c0-.78.64-1.42 1.42-1.42.78 0 1.42.64 1.42 1.42 0 .78-.64 1.42-1.42 1.42-.78 0-1.42-.64-1.42-1.42" fill="red"/><path stroke-width=".71" stroke-linecap="round" stroke-linejoin="round" fill="none" stroke="red" d="M117.1 222.8c0-.78.64-1.42 1.42-1.42.78 0 1.42.64 1.42 1.42 0 .78-.64 1.42-1.42 1.42-.78 0-1.42-.64-1.42-1.42"/><path d="M135.1 221.82c0-.78.64-1.42 1.42-1.42.78 0 1.42.64 1.42 1.42 0 .78-.64 1.42-1.42 1.42-.78 0-1.42-.64-1.42-1.42" fill="red"/><path stroke-width=".71" stroke-linecap="round" stroke-linejoin="round" fill="none" stroke="red" d="M135.1 221.82c0-.78.64-1.42 1.42-1.42.78 0 1.42.64 1.42 1.42 0 .78-.64 1.42-1.42 1.42-.78 0-1.42-.64-1.42-1.42"/><path d="M180.09 221.91a1.425 1.425 0 0 1 2.85 0c0 .79-.64 1.42-1.43 1.42-.78 0-1.42-.63-1.42-1.42" fill="red"/><path stroke-width=".71" stroke-linecap="round" stroke-linejoin="round" fill="none" stroke="red" d="M180.09 221.91a1.425 1.425 0 0 1 2.85 0c0 .79-.64 1.42-1.43 1.42-.78 0-1.42-.63-1.42-1.42"/><path d="M225.09 230.23c0-.79.64-1.43 1.42-1.43a1.425 1.425 0 0 1 0 2.85c-.78 0-1.42-.64-1.42-1.42" fill="red"/><path stroke-width=".71" stroke-linecap="round" stroke-linejoin="round" fill="none" stroke="red" d="M225.09 230.23c0-.79.64-1.43 1.42-1.43a1.425 1.425 0 0 1 0 2.85c-.78 0-1.42-.64-1.42-1.42"/><path d="M46 271.97c0-.79.64-1.43 1.42-1.43a1.425 1.425 0 0 1 0 2.85c-.78 0-1.42-.64-1.42-1.42" fill="#f2ad00"/><path stroke-width=".71" stroke-linecap="round" stroke-linejoin="round" fill="none" stroke="#f2ad00" d="M46 271.97c0-.79.64-1.43 1.42-1.43a1.425 1.425 0 0 1 0 2.85c-.78 0-1.42-.64-1.42-1.42"/><path d="M47.8 254.51c0-.78.64-1.42 1.42-1.42.78 0 1.42.64 1.42 1.42 0 .78-.64 1.42-1.42 1.42-.78 0-1.42-.64-1.42-1.42" fill="#f2ad00"/><path stroke-width=".71" stroke-linecap="round" stroke-linejoin="round" fill="none" stroke="#f2ad00" d="M47.8 254.51c0-.78.64-1.42 1.42-1.42.78 0 1.42.64 1.42 1.42 0 .78-.64 1.42-1.42 1.42-.78 0-1.42-.64-1.42-1.42"/><path d="M54.1 242.47c0-.78.64-1.42 1.42-1.42.78 0 1.42.64 1.42 1.42 0 .78-.64 1.42-1.42 1.42-.78 0-1.42-.64-1.42-1.42" fill="#f2ad00"/><path stroke-width=".71" stroke-linecap="round" stroke-linejoin="round" fill="none" stroke="#f2ad00" d="M54.1 242.47c0-.78.64-1.42 1.42-1.42.78 0 1.42.64 1.42 1.42 0 .78-.64 1.42-1.42 1.42-.78 0-1.42-.64-1.42-1.42"/><path d="M63.1 237.24c0-.78.64-1.42 1.42-1.42.78 0 1.42.64 1.42 1.42 0 .78-.64 1.42-1.42 1.42-.78 0-1.42-.64-1.42-1.42" fill="#f2ad00"/><path stroke-width=".71" stroke-linecap="round" stroke-linejoin="round" fill="none" stroke="#f2ad00" d="M63.1 237.24c0-.78.64-1.42 1.42-1.42.78 0 1.42.64 1.42 1.42 0 .78-.64 1.42-1.42 1.42-.78 0-1.42-.64-1.42-1.42"/><path d="M81.1 236.02c0-.78.64-1.42 1.42-1.42.78 0 1.42.64 1.42 1.42 0 .78-.64 1.42-1.42 1.42-.78 0-1.42-.64-1.42-1.42" fill="#f2ad00"/><path stroke-width=".71" stroke-linecap="round" stroke-linejoin="round" fill="none" stroke="#f2ad00" d="M81.1 236.02c0-.78.64-1.42 1.42-1.42.78 0 1.42.64 1.42 1.42 0 .78-.64 1.42-1.42 1.42-.78 0-1.42-.64-1.42-1.42"/><path d="M99.1 233.53c0-.78.64-1.42 1.42-1.42.78 0 1.42.64 1.42 1.42 0 .78-.64 1.42-1.42 1.42-.78 0-1.42-.64-1.42-1.42" fill="#f2ad00"/><path stroke-width=".71" stroke-linecap="round" stroke-linejoin="round" fill="none" stroke="#f2ad00" d="M99.1 233.53c0-.78.64-1.42 1.42-1.42.78 0 1.42.64 1.42 1.42 0 .78-.64 1.42-1.42 1.42-.78 0-1.42-.64-1.42-1.42"/><path d="M117.1 234.32c0-.78.64-1.42 1.42-1.42.78 0 1.42.64 1.42 1.42 0 .78-.64 1.42-1.42 1.42-.78 0-1.42-.64-1.42-1.42" fill="#f2ad00"/><path stroke-width=".71" stroke-linecap="round" stroke-linejoin="round" fill="none" stroke="#f2ad00" d="M117.1 234.32c0-.78.64-1.42 1.42-1.42.78 0 1.42.64 1.42 1.42 0 .78-.64 1.42-1.42 1.42-.78 0-1.42-.64-1.42-1.42"/><path d="M135.1 233.02c0-.78.64-1.42 1.42-1.42.78 0 1.42.64 1.42 1.42 0 .78-.64 1.42-1.42 1.42-.78 0-1.42-.64-1.42-1.42" fill="#f2ad00"/><path stroke-width=".71" stroke-linecap="round" stroke-linejoin="round" fill="none" stroke="#f2ad00" d="M135.1 233.02c0-.78.64-1.42 1.42-1.42.78 0 1.42.64 1.42 1.42 0 .78-.64 1.42-1.42 1.42-.78 0-1.42-.64-1.42-1.42"/><path d="M180.09 234.36a1.425 1.425 0 0 1 2.85 0c0 .79-.64 1.43-1.43 1.43-.78 0-1.42-.64-1.42-1.43" fill="#f2ad00"/><path stroke-width=".71" stroke-linecap="round" stroke-linejoin="round" fill="none" stroke="#f2ad00" d="M180.09 234.36a1.425 1.425 0 0 1 2.85 0c0 .79-.64 1.43-1.43 1.43-.78 0-1.42-.64-1.42-1.43"/><path d="M225.09 241.06c0-.78.64-1.42 1.42-1.42a1.419 1.419 0 1 1-1.42 1.42" fill="#f2ad00"/><path stroke-width=".71" stroke-linecap="round" stroke-linejoin="round" fill="none" stroke="#f2ad00" d="M225.09 241.06c0-.78.64-1.42 1.42-1.42a1.419 1.419 0 1 1-1.42 1.42"/><path d="M46 264.99c0-.78.64-1.42 1.42-1.42.78 0 1.42.64 1.42 1.42 0 .78-.64 1.42-1.42 1.42-.78 0-1.42-.64-1.42-1.42" fill="#00a08a"/><path stroke-width=".71" stroke-linecap="round" stroke-linejoin="round" fill="none" stroke="#00a08a" d="M46 264.99c0-.78.64-1.42 1.42-1.42.78 0 1.42.64 1.42 1.42 0 .78-.64 1.42-1.42 1.42-.78 0-1.42-.64-1.42-1.42"/><path d="M47.8 248.25c0-.78.64-1.42 1.42-1.42.78 0 1.42.64 1.42 1.42 0 .78-.64 1.42-1.42 1.42-.78 0-1.42-.64-1.42-1.42" fill="#00a08a"/><path stroke-width=".71" stroke-linecap="round" stroke-linejoin="round" fill="none" stroke="#00a08a" d="M47.8 248.25c0-.78.64-1.42 1.42-1.42.78 0 1.42.64 1.42 1.42 0 .78-.64 1.42-1.42 1.42-.78 0-1.42-.64-1.42-1.42"/><path d="M54.1 236.69c0-.78.64-1.42 1.42-1.42.78 0 1.42.64 1.42 1.42 0 .78-.64 1.42-1.42 1.42-.78 0-1.42-.64-1.42-1.42" fill="#00a08a"/><path stroke-width=".71" stroke-linecap="round" stroke-linejoin="round" fill="none" stroke="#00a08a" d="M54.1 236.69c0-.78.64-1.42 1.42-1.42.78 0 1.42.64 1.42 1.42 0 .78-.64 1.42-1.42 1.42-.78 0-1.42-.64-1.42-1.42"/><path d="M63.1 234.19c0-.79.64-1.43 1.42-1.43a1.425 1.425 0 0 1 0 2.85c-.78 0-1.42-.64-1.42-1.42" fill="#00a08a"/><path stroke-width=".71" stroke-linecap="round" stroke-linejoin="round" fill="none" stroke="#00a08a" d="M63.1 234.19c0-.79.64-1.43 1.42-1.43a1.425 1.425 0 0 1 0 2.85c-.78 0-1.42-.64-1.42-1.42"/><path d="M81.1 233.4a1.419 1.419 0 1 1 2.838-.002 1.419 1.419 0 0 1-2.838.002" fill="#00a08a"/><path stroke-width=".71" stroke-linecap="round" stroke-linejoin="round" fill="none" stroke="#00a08a" d="M81.1 233.4a1.419 1.419 0 1 1 2.838-.002 1.419 1.419 0 0 1-2.838.002"/><path d="M99.1 231.97c0-.79.64-1.43 1.42-1.43a1.425 1.425 0 0 1 0 2.85c-.78 0-1.42-.64-1.42-1.42" fill="#00a08a"/><path stroke-width=".71" stroke-linecap="round" stroke-linejoin="round" fill="none" stroke="#00a08a" d="M99.1 231.97c0-.79.64-1.43 1.42-1.43a1.425 1.425 0 0 1 0 2.85c-.78 0-1.42-.64-1.42-1.42"/><path d="M117.1 232.93c0-.78.64-1.42 1.42-1.42.78 0 1.42.64 1.42 1.42 0 .78-.64 1.42-1.42 1.42-.78 0-1.42-.64-1.42-1.42" fill="#00a08a"/><path stroke-width=".71" stroke-linecap="round" stroke-linejoin="round" fill="none" stroke="#00a08a" d="M117.1 232.93c0-.78.64-1.42 1.42-1.42.78 0 1.42.64 1.42 1.42 0 .78-.64 1.42-1.42 1.42-.78 0-1.42-.64-1.42-1.42"/><path d="M135.1 231.99c0-.79.64-1.43 1.42-1.43a1.425 1.425 0 0 1 0 2.85c-.78 0-1.42-.64-1.42-1.42" fill="#00a08a"/><path stroke-width=".71" stroke-linecap="round" stroke-linejoin="round" fill="none" stroke="#00a08a" d="M135.1 231.99c0-.79.64-1.43 1.42-1.43a1.425 1.425 0 0 1 0 2.85c-.78 0-1.42-.64-1.42-1.42"/><path d="M180.09 234.73a1.425 1.425 0 0 1 2.85 0 1.425 1.425 0 0 1-2.85 0" fill="#00a08a"/><path stroke-width=".71" stroke-linecap="round" stroke-linejoin="round" fill="none" stroke="#00a08a" d="M180.09 234.73a1.425 1.425 0 0 1 2.85 0 1.425 1.425 0 0 1-2.85 0"/><path d="M225.09 240.25c0-.78.64-1.42 1.42-1.42.78 0 1.42.64 1.42 1.42 0 .78-.64 1.42-1.42 1.42-.78 0-1.42-.64-1.42-1.42" fill="#00a08a"/><path stroke-width=".71" stroke-linecap="round" stroke-linejoin="round" fill="none" stroke="#00a08a" d="M225.09 240.25c0-.78.64-1.42 1.42-1.42.78 0 1.42.64 1.42 1.42 0 .78-.64 1.42-1.42 1.42-.78 0-1.42-.64-1.42-1.42"/><path d="m47.42 244.33 1.8-24.28 6.3-13.3 9-2.17 18-2.45 18-.74 18-.68 18-.32 44.99-1.22 45 5.14v51.83l-45-11.48-44.99-1.42-18 1.65-18-6.41-18-2.14-18-1.34-9 .96-6.3 15.31-1.8 22.12z" fill="red" fill-opacity=".149"/><path d="m47.42 254.27 1.8-17.72 6.3-9.67 9-2.75 18-2.28 18-1.99 18-1.66 18-.33 44.99.93 45 2.61v37.68l-45-8.44-44.99-4.55-18 1.55-18-3.57-18 .86-18-.69-9 2.24-6.3 13.45-1.8 15.77z" fill="#00a08a" fill-opacity=".149"/><path d="m47.42 262.29 1.8-20.5 6.3-12.09 9-6.62 18-2.03 18-3.39 18-.02 18-1.61 44.99-.39 45 4.93v40.99l-45-8.47-44.99-3.08-18 1-18-1.61-18 1.6-18 .4-9 3.83-6.3 12-1.8 14.41z" fill="#f2ad00" fill-opacity=".149"/><path stroke-width="1.07" stroke-linecap="round" stroke-linejoin="round" fill="none" stroke="#dcdcdc" d="M38.47 285.77h197v-90.72h-197z"/></g><use xlink:href="#g" transform="matrix(11 0 0 -11 20.054 272.703)" fill="#4d4d4d"/><use xlink:href="#s" transform="matrix(11 0 0 -11 25.741 272.703)" fill="#4d4d4d"/><use xlink:href="#d" transform="matrix(11 0 0 -11 28.249 272.56)" fill="#4d4d4d"/><use xlink:href="#g" transform="matrix(11 0 0 -11 20.054 247.773)" fill="#4d4d4d"/><use xlink:href="#s" transform="matrix(11 0 0 -11 25.741 247.773)" fill="#4d4d4d"/><use xlink:href="#h" transform="matrix(11 0 0 -11 28.282 247.718)" fill="#4d4d4d"/><use xlink:href="#g" transform="matrix(11 0 0 -11 20.054 222.853)" fill="#4d4d4d"/><use xlink:href="#s" transform="matrix(11 0 0 -11 25.741 222.853)" fill="#4d4d4d"/><use xlink:href="#e" transform="matrix(11 0 0 -11 28.348 222.853)" fill="#4d4d4d"/><use xlink:href="#h" transform="scale(11 -11) rotate(45 34.99 -8.75)" fill="#4d4d4d"/><use xlink:href="#g" transform="scale(11 -11) rotate(45 34.745 -8.142)" fill="#4d4d4d"/><use xlink:href="#c" transform="scale(11 -11) rotate(45 37.587 -5.37)" fill="#4d4d4d"/><use xlink:href="#h" transform="scale(11 -11) rotate(45 37.344 -4.757)" fill="#4d4d4d"/><use xlink:href="#g" transform="scale(11 -11) rotate(45 37.1 -4.149)" fill="#4d4d4d"/><use xlink:href="#g" transform="scale(11 -11) rotate(45 36.85 -3.545)" fill="#4d4d4d"/><use xlink:href="#h" transform="scale(11 -11) rotate(45 39.64 -.424)" fill="#4d4d4d"/><use xlink:href="#g" transform="scale(11 -11) rotate(45 39.395 .185)" fill="#4d4d4d"/><use xlink:href="#g" transform="scale(11 -11) rotate(45 39.144 .788)" fill="#4d4d4d"/><use xlink:href="#g" transform="scale(11 -11) rotate(45 38.894 1.392)" fill="#4d4d4d"/><use xlink:href="#i" transform="scale(11 -11) rotate(45 41.677 4.502)" fill="#4d4d4d"/><use xlink:href="#h" transform="scale(11 -11) rotate(45 41.434 5.116)" fill="#4d4d4d"/><use xlink:href="#g" transform="scale(11 -11) rotate(45 41.189 5.724)" fill="#4d4d4d"/><use xlink:href="#g" transform="scale(11 -11) rotate(45 40.939 6.328)" fill="#4d4d4d"/><use xlink:href="#b" transform="scale(11 -11) rotate(45 43.997 8.773)" fill="#4d4d4d"/><use xlink:href="#g" transform="scale(11 -11) rotate(45 43.783 9.333)" fill="#4d4d4d"/><use xlink:href="#g" transform="scale(11 -11) rotate(45 43.533 9.937)" fill="#4d4d4d"/><use xlink:href="#g" transform="scale(11 -11) rotate(45 43.283 10.54)" fill="#4d4d4d"/><use xlink:href="#g" transform="scale(11 -11) rotate(45 43.033 11.144)" fill="#4d4d4d"/><use xlink:href="#j" transform="matrix(12 0 0 -12 132.192 331.106)"/><symbol id="D"><path d="M.689.025C.671.025.658.03.648.044L.447.329a.258.258 0 0 1 .112.057.15.15 0 0 1 .045.112c0 .116-.099.178-.282.178H0V.651C.072.647.086.633.088.559V.117C.086.043.077.033 0 .025V0h.338v.025C.262.034.252.045.25.117v.196h.027L.484 0h.205v.025M.25.6a.09.09 0 0 0 .007.027c.006.01.022.015.047.015.092 0 .129-.043.129-.148C.433.43.418.391.386.37.36.353.326.346.25.345V.6z"/></symbol><symbol id="E"><path d="M.286.024c-.038 0-.057.02-.058.06v.592H0V.652C.04.651.06.632.061.594v-.51C.06.046.038.025 0 .024V0h.286v.024z"/></symbol><use xlink:href="#k" transform="matrix(15 0 0 -15 106.22 187.84)"/><use xlink:href="#x" transform="matrix(15 0 0 -15 110.9 185.53)"/><use xlink:href="#m" transform="matrix(15 0 0 -15 117.59 187.84)"/><use xlink:href="#n" transform="matrix(15 0 0 -15 122.18 185.32)"/><use xlink:href="#D" transform="matrix(15 0 0 -15 126.32 185.32)"/><use xlink:href="#w" transform="matrix(15 0 0 -15 137.182 185.53)"/><use xlink:href="#x" transform="matrix(15 0 0 -15 144.635 185.53)"/><use xlink:href="#l" transform="matrix(15 0 0 -15 151.295 185.53)"/><use xlink:href="#E" transform="matrix(15 0 0 -15 158.707 185.32)"/><use xlink:href="#E" transform="matrix(15 0 0 -15 163.702 185.32)"/><clipPath id="F"><path transform="matrix(1 0 0 -1 0 368)" d="M279.41 82.23h197v90.72h-197z"/></clipPath><g clip-path="url(#F)"><path stroke-width=".53" stroke-linejoin="round" fill="none" stroke="#ebebeb" d="M279.41 280.66h197M279.41 264.9h197M279.41 249.14h197M279.41 233.37h197M279.41 217.61h197M279.41 201.85h197M310.42 285.77v-90.72M354.96 285.77v-90.72M399.96 285.77v-90.72M444.96 285.77v-90.72"/><path stroke-width="1.07" stroke-linejoin="round" fill="none" stroke="#ebebeb" d="M279.41 272.78h197M279.41 257.02h197M279.41 241.26h197M279.41 225.49h197M279.41 209.73h197M288.37 285.77v-90.72M332.46 285.77v-90.72M377.46 285.77v-90.72M422.46 285.77v-90.72M467.46 285.77v-90.72"/><path stroke-width="1.07" stroke-linejoin="round" fill="none" stroke="red" d="m288.37 264.27 1.8 3.61 6.3-.62 9-5.8 18-3.62 17.99-4.01 18-8.6 18-1.74 45-2.27 45-13.44"/><path stroke-width="1.07" stroke-linejoin="round" fill="none" stroke="#00a08a" d="m288.37 266.6 1.8 1.99 6.3 2.55 9-3.12 18-4.1 17.99-2 18-7.76 18-1.92 45-5.17 45-12.86"/><path stroke-width="1.07" stroke-linejoin="round" fill="none" stroke="#f2ad00" d="m288.37 254.29 1.8 2.22 6.3 3.82 9 2.3 18-1.28 17.99-.55 18-4.43 18 1.54 45-4.44 45-11.28"/><path d="M286.95 264.27c0-.78.64-1.42 1.42-1.42.78 0 1.42.64 1.42 1.42 0 .78-.64 1.42-1.42 1.42-.78 0-1.42-.64-1.42-1.42" fill="red"/><path stroke-width=".71" stroke-linecap="round" stroke-linejoin="round" fill="none" stroke="red" d="M286.95 264.27c0-.78.64-1.42 1.42-1.42.78 0 1.42.64 1.42 1.42 0 .78-.64 1.42-1.42 1.42-.78 0-1.42-.64-1.42-1.42"/><path d="M288.75 267.88c0-.79.64-1.43 1.42-1.43a1.425 1.425 0 0 1 0 2.85c-.78 0-1.42-.64-1.42-1.42" fill="red"/><path stroke-width=".71" stroke-linecap="round" stroke-linejoin="round" fill="none" stroke="red" d="M288.75 267.88c0-.79.64-1.43 1.42-1.43a1.425 1.425 0 0 1 0 2.85c-.78 0-1.42-.64-1.42-1.42"/><path d="M295.05 267.26c0-.78.64-1.42 1.42-1.42.78 0 1.42.64 1.42 1.42 0 .78-.64 1.42-1.42 1.42-.78 0-1.42-.64-1.42-1.42" fill="red"/><path stroke-width=".71" stroke-linecap="round" stroke-linejoin="round" fill="none" stroke="red" d="M295.05 267.26c0-.78.64-1.42 1.42-1.42.78 0 1.42.64 1.42 1.42 0 .78-.64 1.42-1.42 1.42-.78 0-1.42-.64-1.42-1.42"/><path d="M304.05 261.46c0-.78.64-1.42 1.42-1.42.78 0 1.42.64 1.42 1.42 0 .78-.64 1.42-1.42 1.42-.78 0-1.42-.64-1.42-1.42" fill="red"/><path stroke-width=".71" stroke-linecap="round" stroke-linejoin="round" fill="none" stroke="red" d="M304.05 261.46c0-.78.64-1.42 1.42-1.42.78 0 1.42.64 1.42 1.42 0 .78-.64 1.42-1.42 1.42-.78 0-1.42-.64-1.42-1.42"/><path d="M322.04 257.84c0-.79.64-1.43 1.43-1.43a1.425 1.425 0 1 1-1.43 1.43" fill="red"/><path stroke-width=".71" stroke-linecap="round" stroke-linejoin="round" fill="none" stroke="red" d="M322.04 257.84c0-.79.64-1.43 1.43-1.43a1.425 1.425 0 1 1-1.43 1.43"/><path d="M340.04 253.83a1.425 1.425 0 0 1 2.85 0 1.425 1.425 0 0 1-2.85 0" fill="red"/><path stroke-width=".71" stroke-linecap="round" stroke-linejoin="round" fill="none" stroke="red" d="M340.04 253.83a1.425 1.425 0 0 1 2.85 0 1.425 1.425 0 0 1-2.85 0"/><path d="M358.04 245.23c0-.78.64-1.42 1.42-1.42.78 0 1.42.64 1.42 1.42 0 .78-.64 1.42-1.42 1.42-.78 0-1.42-.64-1.42-1.42" fill="red"/><path stroke-width=".71" stroke-linecap="round" stroke-linejoin="round" fill="none" stroke="red" d="M358.04 245.23c0-.78.64-1.42 1.42-1.42.78 0 1.42.64 1.42 1.42 0 .78-.64 1.42-1.42 1.42-.78 0-1.42-.64-1.42-1.42"/><path d="M376.04 243.49c0-.78.64-1.42 1.42-1.42a1.419 1.419 0 1 1-1.42 1.42" fill="red"/><path stroke-width=".71" stroke-linecap="round" stroke-linejoin="round" fill="none" stroke="red" d="M376.04 243.49c0-.78.64-1.42 1.42-1.42a1.419 1.419 0 1 1-1.42 1.42"/><path d="M421.04 241.22c0-.78.64-1.42 1.42-1.42a1.425 1.425 0 0 1 0 2.85c-.78 0-1.42-.64-1.42-1.43" fill="red"/><path stroke-width=".71" stroke-linecap="round" stroke-linejoin="round" fill="none" stroke="red" d="M421.04 241.22c0-.78.64-1.42 1.42-1.42a1.425 1.425 0 0 1 0 2.85c-.78 0-1.42-.64-1.42-1.43"/><path d="M466.03 227.78a1.425 1.425 0 0 1 2.85 0 1.425 1.425 0 0 1-2.85 0" fill="red"/><path stroke-width=".71" stroke-linecap="round" stroke-linejoin="round" fill="none" stroke="red" d="M466.03 227.78a1.425 1.425 0 0 1 2.85 0 1.425 1.425 0 0 1-2.85 0"/><path d="M286.95 254.29c0-.78.64-1.42 1.42-1.42.78 0 1.42.64 1.42 1.42 0 .78-.64 1.42-1.42 1.42-.78 0-1.42-.64-1.42-1.42" fill="#f2ad00"/><path stroke-width=".71" stroke-linecap="round" stroke-linejoin="round" fill="none" stroke="#f2ad00" d="M286.95 254.29c0-.78.64-1.42 1.42-1.42.78 0 1.42.64 1.42 1.42 0 .78-.64 1.42-1.42 1.42-.78 0-1.42-.64-1.42-1.42"/><path d="M288.75 256.51c0-.78.64-1.42 1.42-1.42.78 0 1.42.64 1.42 1.42 0 .78-.64 1.42-1.42 1.42-.78 0-1.42-.64-1.42-1.42" fill="#f2ad00"/><path stroke-width=".71" stroke-linecap="round" stroke-linejoin="round" fill="none" stroke="#f2ad00" d="M288.75 256.51c0-.78.64-1.42 1.42-1.42.78 0 1.42.64 1.42 1.42 0 .78-.64 1.42-1.42 1.42-.78 0-1.42-.64-1.42-1.42"/><path d="M295.05 260.33a1.419 1.419 0 1 1 2.838-.002 1.419 1.419 0 0 1-2.838.002" fill="#f2ad00"/><path stroke-width=".71" stroke-linecap="round" stroke-linejoin="round" fill="none" stroke="#f2ad00" d="M295.05 260.33a1.419 1.419 0 1 1 2.838-.002 1.419 1.419 0 0 1-2.838.002"/><path d="M304.05 262.63c0-.78.64-1.42 1.42-1.42.78 0 1.42.64 1.42 1.42 0 .78-.64 1.42-1.42 1.42-.78 0-1.42-.64-1.42-1.42" fill="#f2ad00"/><path stroke-width=".71" stroke-linecap="round" stroke-linejoin="round" fill="none" stroke="#f2ad00" d="M304.05 262.63c0-.78.64-1.42 1.42-1.42.78 0 1.42.64 1.42 1.42 0 .78-.64 1.42-1.42 1.42-.78 0-1.42-.64-1.42-1.42"/><path d="M322.04 261.35a1.425 1.425 0 0 1 2.85 0 1.425 1.425 0 0 1-2.85 0" fill="#f2ad00"/><path stroke-width=".71" stroke-linecap="round" stroke-linejoin="round" fill="none" stroke="#f2ad00" d="M322.04 261.35a1.425 1.425 0 0 1 2.85 0 1.425 1.425 0 0 1-2.85 0"/><path d="M340.04 260.8a1.425 1.425 0 0 1 2.85 0 1.425 1.425 0 0 1-2.85 0" fill="#f2ad00"/><path stroke-width=".71" stroke-linecap="round" stroke-linejoin="round" fill="none" stroke="#f2ad00" d="M340.04 260.8a1.425 1.425 0 0 1 2.85 0 1.425 1.425 0 0 1-2.85 0"/><path d="M358.04 256.37c0-.78.64-1.42 1.42-1.42.78 0 1.42.64 1.42 1.42 0 .78-.64 1.42-1.42 1.42-.78 0-1.42-.64-1.42-1.42" fill="#f2ad00"/><path stroke-width=".71" stroke-linecap="round" stroke-linejoin="round" fill="none" stroke="#f2ad00" d="M358.04 256.37c0-.78.64-1.42 1.42-1.42.78 0 1.42.64 1.42 1.42 0 .78-.64 1.42-1.42 1.42-.78 0-1.42-.64-1.42-1.42"/><path d="M376.04 257.91c0-.78.64-1.42 1.42-1.42a1.425 1.425 0 0 1 0 2.85c-.78 0-1.42-.64-1.42-1.43" fill="#f2ad00"/><path stroke-width=".71" stroke-linecap="round" stroke-linejoin="round" fill="none" stroke="#f2ad00" d="M376.04 257.91c0-.78.64-1.42 1.42-1.42a1.425 1.425 0 0 1 0 2.85c-.78 0-1.42-.64-1.42-1.43"/><path d="M421.04 253.47c0-.78.64-1.42 1.42-1.42.78 0 1.42.64 1.42 1.42 0 .78-.64 1.42-1.42 1.42-.78 0-1.42-.64-1.42-1.42" fill="#f2ad00"/><path stroke-width=".71" stroke-linecap="round" stroke-linejoin="round" fill="none" stroke="#f2ad00" d="M421.04 253.47c0-.78.64-1.42 1.42-1.42.78 0 1.42.64 1.42 1.42 0 .78-.64 1.42-1.42 1.42-.78 0-1.42-.64-1.42-1.42"/><path d="M466.03 242.19c0-.79.64-1.43 1.43-1.43a1.425 1.425 0 1 1-1.43 1.43" fill="#f2ad00"/><path stroke-width=".71" stroke-linecap="round" stroke-linejoin="round" fill="none" stroke="#f2ad00" d="M466.03 242.19c0-.79.64-1.43 1.43-1.43a1.425 1.425 0 1 1-1.43 1.43"/><path d="M286.95 266.6c0-.78.64-1.42 1.42-1.42.78 0 1.42.64 1.42 1.42 0 .78-.64 1.42-1.42 1.42-.78 0-1.42-.64-1.42-1.42" fill="#00a08a"/><path stroke-width=".71" stroke-linecap="round" stroke-linejoin="round" fill="none" stroke="#00a08a" d="M286.95 266.6c0-.78.64-1.42 1.42-1.42.78 0 1.42.64 1.42 1.42 0 .78-.64 1.42-1.42 1.42-.78 0-1.42-.64-1.42-1.42"/><path d="M288.75 268.59c0-.79.64-1.43 1.42-1.43a1.425 1.425 0 0 1 0 2.85c-.78 0-1.42-.64-1.42-1.42" fill="#00a08a"/><path stroke-width=".71" stroke-linecap="round" stroke-linejoin="round" fill="none" stroke="#00a08a" d="M288.75 268.59c0-.79.64-1.43 1.42-1.43a1.425 1.425 0 0 1 0 2.85c-.78 0-1.42-.64-1.42-1.42"/><path d="M295.05 271.14c0-.78.64-1.42 1.42-1.42.78 0 1.42.64 1.42 1.42 0 .78-.64 1.42-1.42 1.42-.78 0-1.42-.64-1.42-1.42" fill="#00a08a"/><path stroke-width=".71" stroke-linecap="round" stroke-linejoin="round" fill="none" stroke="#00a08a" d="M295.05 271.14c0-.78.64-1.42 1.42-1.42.78 0 1.42.64 1.42 1.42 0 .78-.64 1.42-1.42 1.42-.78 0-1.42-.64-1.42-1.42"/><path d="M304.05 268.02c0-.78.64-1.42 1.42-1.42.78 0 1.42.64 1.42 1.42 0 .78-.64 1.42-1.42 1.42-.78 0-1.42-.64-1.42-1.42" fill="#00a08a"/><path stroke-width=".71" stroke-linecap="round" stroke-linejoin="round" fill="none" stroke="#00a08a" d="M304.05 268.02c0-.78.64-1.42 1.42-1.42.78 0 1.42.64 1.42 1.42 0 .78-.64 1.42-1.42 1.42-.78 0-1.42-.64-1.42-1.42"/><path d="M322.04 263.92a1.425 1.425 0 0 1 2.85 0 1.425 1.425 0 0 1-2.85 0" fill="#00a08a"/><path stroke-width=".71" stroke-linecap="round" stroke-linejoin="round" fill="none" stroke="#00a08a" d="M322.04 263.92a1.425 1.425 0 0 1 2.85 0 1.425 1.425 0 0 1-2.85 0"/><path d="M340.04 261.92a1.425 1.425 0 0 1 2.85 0 1.425 1.425 0 0 1-2.85 0" fill="#00a08a"/><path stroke-width=".71" stroke-linecap="round" stroke-linejoin="round" fill="none" stroke="#00a08a" d="M340.04 261.92a1.425 1.425 0 0 1 2.85 0 1.425 1.425 0 0 1-2.85 0"/><path d="M358.04 254.16c0-.78.64-1.42 1.42-1.42a1.425 1.425 0 0 1 0 2.85c-.78 0-1.42-.64-1.42-1.43" fill="#00a08a"/><path stroke-width=".71" stroke-linecap="round" stroke-linejoin="round" fill="none" stroke="#00a08a" d="M358.04 254.16c0-.78.64-1.42 1.42-1.42a1.425 1.425 0 0 1 0 2.85c-.78 0-1.42-.64-1.42-1.43"/><path d="M376.04 252.24c0-.78.64-1.42 1.42-1.42.78 0 1.42.64 1.42 1.42 0 .78-.64 1.42-1.42 1.42-.78 0-1.42-.64-1.42-1.42" fill="#00a08a"/><path stroke-width=".71" stroke-linecap="round" stroke-linejoin="round" fill="none" stroke="#00a08a" d="M376.04 252.24c0-.78.64-1.42 1.42-1.42.78 0 1.42.64 1.42 1.42 0 .78-.64 1.42-1.42 1.42-.78 0-1.42-.64-1.42-1.42"/><path d="M421.04 247.07c0-.78.64-1.42 1.42-1.42.78 0 1.42.64 1.42 1.42 0 .78-.64 1.42-1.42 1.42-.78 0-1.42-.64-1.42-1.42" fill="#00a08a"/><path stroke-width=".71" stroke-linecap="round" stroke-linejoin="round" fill="none" stroke="#00a08a" d="M421.04 247.07c0-.78.64-1.42 1.42-1.42.78 0 1.42.64 1.42 1.42 0 .78-.64 1.42-1.42 1.42-.78 0-1.42-.64-1.42-1.42"/><path d="M466.03 234.21a1.425 1.425 0 0 1 2.85 0 1.425 1.425 0 0 1-2.85 0" fill="#00a08a"/><path stroke-width=".71" stroke-linecap="round" stroke-linejoin="round" fill="none" stroke="#00a08a" d="M466.03 234.21a1.425 1.425 0 0 1 2.85 0 1.425 1.425 0 0 1-2.85 0"/><path d="m288.37 253.26 1.8 3.37 6.3-.6 9-9.67 18-6.49 17.99-4.76 18-13.2 18-2.57 45-3.07 45-17.1v57.22l-45 9.79-45 1.47-18 .9-18 4-17.99 3.26-18 .75-9 1.93-6.3.64-1.8-3.86z" fill="red" fill-opacity=".149"/><path d="m288.37 257.39 1.8 1.24 6.3 2.01 9-5.76 18-7.3 17.99-3.53 18-12.01 18-1.66 45-7.96 45-16.98v57.54l-45 8.74-45 2.39-18 2.17-18 3.5-17.99.48-18 .89-9 .49-6.3-3.1-1.8-2.73z" fill="#00a08a" fill-opacity=".149"/><path d="m288.37 245.47 1.8-.53 6.3 3.43 9 .48 18-3.78 17.99-.68 18-8.5 18 .83 45-7.47 45-17.71v61.29l-45 4.86-45 1.42-18-2.26-18 .35-17.99.44-18-1.23-9-4.13-6.3-4.2-1.8-4.97z" fill="#f2ad00" fill-opacity=".149"/><path stroke-width="1.07" stroke-linecap="round" stroke-linejoin="round" fill="none" stroke="#dcdcdc" d="M279.41 285.77h197v-90.72h-197z"/></g><use xlink:href="#g" transform="matrix(11 0 0 -11 260.994 276.663)" fill="#4d4d4d"/><use xlink:href="#s" transform="matrix(11 0 0 -11 266.681 276.663)" fill="#4d4d4d"/><use xlink:href="#b" transform="matrix(11 0 0 -11 269.695 276.52)" fill="#4d4d4d"/><use xlink:href="#g" transform="matrix(11 0 0 -11 260.994 260.903)" fill="#4d4d4d"/><use xlink:href="#s" transform="matrix(11 0 0 -11 266.681 260.903)" fill="#4d4d4d"/><use xlink:href="#c" transform="matrix(11 0 0 -11 269.167 260.76)" fill="#4d4d4d"/><symbol id="G"><path d="M.042.537C.08.598.113.621.165.621.228.621.267.582.267.518.267.452.232.417.137.387V.37A.368.368 0 0 0 .289.29.167.167 0 0 0 .338.168C.338.096.3.05.24.05.216.05.197.061.164.093.125.132.096.148.065.148.027.148 0 .124 0 .09 0 .036.06 0 .152 0c.168 0 .3.114.3.26A.183.183 0 0 1 .33.438c.064.039.083.068.083.127C.413.651.352.702.25.702.151.702.076.652.021.549L.042.537z"/></symbol><use xlink:href="#g" transform="matrix(11 0 0 -11 260.994 245.143)" fill="#4d4d4d"/><use xlink:href="#s" transform="matrix(11 0 0 -11 266.681 245.143)" fill="#4d4d4d"/><use xlink:href="#G" transform="matrix(11 0 0 -11 269.156 245.154)" fill="#4d4d4d"/><use xlink:href="#g" transform="matrix(11 0 0 -11 260.994 229.383)" fill="#4d4d4d"/><use xlink:href="#s" transform="matrix(11 0 0 -11 266.681 229.383)" fill="#4d4d4d"/><use xlink:href="#d" transform="matrix(11 0 0 -11 269.189 229.24)" fill="#4d4d4d"/><use xlink:href="#g" transform="matrix(11 0 0 -11 260.994 213.623)" fill="#4d4d4d"/><use xlink:href="#s" transform="matrix(11 0 0 -11 266.681 213.623)" fill="#4d4d4d"/><use xlink:href="#h" transform="matrix(11 0 0 -11 269.222 213.568)" fill="#4d4d4d"/><use xlink:href="#h" transform="scale(11 -11) rotate(45 45.94 17.684)" fill="#4d4d4d"/><use xlink:href="#g" transform="scale(11 -11) rotate(45 45.694 18.292)" fill="#4d4d4d"/><use xlink:href="#c" transform="scale(11 -11) rotate(45 48.537 21.063)" fill="#4d4d4d"/><use xlink:href="#h" transform="scale(11 -11) rotate(45 48.294 21.676)" fill="#4d4d4d"/><use xlink:href="#g" transform="scale(11 -11) rotate(45 48.049 22.285)" fill="#4d4d4d"/><use xlink:href="#g" transform="scale(11 -11) rotate(45 47.799 22.888)" fill="#4d4d4d"/><use xlink:href="#h" transform="scale(11 -11) rotate(45 50.589 26.01)" fill="#4d4d4d"/><use xlink:href="#g" transform="scale(11 -11) rotate(45 50.344 26.618)" fill="#4d4d4d"/><use xlink:href="#g" transform="scale(11 -11) rotate(45 50.094 27.222)" fill="#4d4d4d"/><use xlink:href="#g" transform="scale(11 -11) rotate(45 49.844 27.825)" fill="#4d4d4d"/><use xlink:href="#i" transform="scale(11 -11) rotate(45 52.627 30.937)" fill="#4d4d4d"/><use xlink:href="#h" transform="scale(11 -11) rotate(45 52.384 31.55)" fill="#4d4d4d"/><use xlink:href="#g" transform="scale(11 -11) rotate(45 52.139 32.159)" fill="#4d4d4d"/><use xlink:href="#g" transform="scale(11 -11) rotate(45 51.889 32.763)" fill="#4d4d4d"/><use xlink:href="#b" transform="scale(11 -11) rotate(45 54.947 35.208)" fill="#4d4d4d"/><use xlink:href="#g" transform="scale(11 -11) rotate(45 54.733 35.768)" fill="#4d4d4d"/><use xlink:href="#g" transform="scale(11 -11) rotate(45 54.483 36.372)" fill="#4d4d4d"/><use xlink:href="#g" transform="scale(11 -11) rotate(45 54.233 36.975)" fill="#4d4d4d"/><use xlink:href="#g" transform="scale(11 -11) rotate(45 53.983 37.579)" fill="#4d4d4d"/><use xlink:href="#j" transform="matrix(12 0 0 -12 373.132 331.106)"/><symbol id="H"><path d="M.56.057C.51.06.494.073.494.115V.69H.258V.666C.33.662.341.655.342.608V.425C.295.471.262.487.21.487.091.487 0 .38 0 .235 0 .098.084 0 .199 0c.058 0 .094.016.146.066V.001c.05.013.078.018.146.025L.56.034v.023M.342.126C.342.12.33.103.318.09.296.067.273.056.248.056.19.056.163.115.163.243c0 .129.03.188.093.188.036 0 .07-.024.086-.062V.126z"/></symbol><symbol id="I"><path d="M.738.695H.501V.67C.584.665.607.644.607.571V.266C.607.118.547.049.418.049.308.049.26.108.26.244v.334c.002.077.017.09.104.092v.025H0V.67C.074.664.086.651.088.578V.244c0-.098.023-.147.089-.191A.354.354 0 0 1 .377 0c.079 0 .154.022.2.059.05.038.077.114.077.207v.319C.655.645.67.661.738.67v.025z"/></symbol><symbol id="J"><path d="M.285.473H.191v.169H.166A.878.878 0 0 0 0 .456V.429h.052V.105C.052.04.095 0 .164 0c.067 0 .107.03.148.112L.287.123C.267.085.251.071.23.071.202.071.191.088.191.128v.301h.094v.044z"/></symbol><symbol id="K"><path d="M.516.666H.348V.642C.396.64.41.633.41.609A.114.114 0 0 0 .397.564L.321.372l-.08.185C.22.608.22.608.22.616c0 .015.013.022.041.025l.018.001v.024H0V.642C.026.639.032.636.039.627.042.626.093.528.11.487L.245.192.225.139C.205.089.178.057.15.057c-.01 0-.019.008-.019.017L.133.08l.003.014C.136.123.11.143.07.143.03.143 0 .117 0 .079 0 .032.044 0 .108 0 .146 0 .178.011.2.033A.49.49 0 0 1 .286.19L.45.587c.02.042.03.052.065.055v.024z"/></symbol><use xlink:href="#k" transform="matrix(15 0 0 -15 326.74 187.84)"/><use xlink:href="#H" transform="matrix(15 0 0 -15 331.457 185.53)"/><use xlink:href="#m" transform="matrix(15 0 0 -15 340.615 187.84)"/><use xlink:href="#n" transform="matrix(15 0 0 -15 345.205 185.32)"/><use xlink:href="#I" transform="matrix(15 0 0 -15 349.214 185.605)"/><use xlink:href="#B" transform="matrix(15 0 0 -15 360.971 185.32)"/><use xlink:href="#x" transform="matrix(15 0 0 -15 370.165 185.53)"/><use xlink:href="#w" transform="matrix(15 0 0 -15 376.872 185.53)"/><use xlink:href="#v" transform="matrix(15 0 0 -15 384.331 185.32)"/><use xlink:href="#J" transform="matrix(15 0 0 -15 390.085 185.5)"/><use xlink:href="#l" transform="matrix(15 0 0 -15 395.155 185.53)"/><use xlink:href="#y" transform="matrix(15 0 0 -15 402.567 185.32)"/><use xlink:href="#B" transform="matrix(15 0 0 -15 407.621 185.32)"/><use xlink:href="#J" transform="matrix(15 0 0 -15 416.74 185.5)"/><use xlink:href="#K" transform="matrix(15 0 0 -15 421.702 188.395)"/><path stroke-width="1.07" stroke-linejoin="round" fill="none" stroke="red" d="M171.13 353.88h13.83"/><path d="M176.62 353.88a1.425 1.425 0 0 1 2.85 0 1.425 1.425 0 0 1-2.85 0" fill="red"/><path stroke-width=".71" stroke-linecap="round" stroke-linejoin="round" fill="none" stroke="red" d="M176.62 353.88a1.425 1.425 0 0 1 2.85 0 1.425 1.425 0 0 1-2.85 0"/><path d="M170.11 361.81h15.86v-15.86h-15.86z" fill="red" fill-opacity=".149"/><path stroke-width="1.07" stroke-linejoin="round" fill="none" stroke="#00a08a" d="M226.69 353.88h13.83"/><path d="M232.19 353.88c0-.78.64-1.42 1.42-1.42.78 0 1.42.64 1.42 1.42 0 .78-.64 1.42-1.42 1.42-.78 0-1.42-.64-1.42-1.42" fill="#00a08a"/><path stroke-width=".71" stroke-linecap="round" stroke-linejoin="round" fill="none" stroke="#00a08a" d="M232.19 353.88c0-.78.64-1.42 1.42-1.42.78 0 1.42.64 1.42 1.42 0 .78-.64 1.42-1.42 1.42-.78 0-1.42-.64-1.42-1.42"/><path d="M225.68 361.81h15.86v-15.86h-15.86z" fill="#00a08a" fill-opacity=".149"/><path stroke-width="1.07" stroke-linejoin="round" fill="none" stroke="#f2ad00" d="M276.93 353.88h13.82"/><path d="M282.42 353.88c0-.78.64-1.42 1.42-1.42.78 0 1.42.64 1.42 1.42 0 .78-.64 1.42-1.42 1.42-.78 0-1.42-.64-1.42-1.42" fill="#f2ad00"/><path stroke-width=".71" stroke-linecap="round" stroke-linejoin="round" fill="none" stroke="#f2ad00" d="M282.42 353.88c0-.78.64-1.42 1.42-1.42.78 0 1.42.64 1.42 1.42 0 .78-.64 1.42-1.42 1.42-.78 0-1.42-.64-1.42-1.42"/><path d="M275.91 361.81h15.86v-15.86h-15.86z" fill="#f2ad00" fill-opacity=".149"/><symbol id="L"><path d="M.608.171a.357.357 0 0 0-.14-.105.245.245 0 0 0-.09-.018.183.183 0 0 0-.158.087.465.465 0 0 0-.043.225c0 .207.064.317.184.317A.198.198 0 0 0 .494.621.38.38 0 0 0 .595.473H.62v.234H.593C.578.671.569.661.548.661a.124.124 0 0 0-.045.014.39.39 0 0 1-.154.035A.345.345 0 0 1 0 .352C0 .145.146 0 .354 0c.115 0 .183.035.284.146l-.03.025z"/></symbol><use xlink:href="#L" transform="matrix(12 0 0 -12 192.748 358.198)"/><use xlink:href="#L" transform="matrix(12 0 0 -12 201.412 358.198)"/><use xlink:href="#q" transform="matrix(12 0 0 -12 209.682 357.97)"/><symbol id="M"><path d="M.35.025C.276.029.256.043.255.096V.58C.256.633.278.649.35.651v.025H0V.651C.07.648.091.632.093.58V.096C.091.045.073.03 0 .025V0h.35v.025z"/></symbol><use xlink:href="#L" transform="matrix(12 0 0 -12 248.318 358.198)"/><use xlink:href="#L" transform="matrix(12 0 0 -12 256.982 358.198)"/><use xlink:href="#M" transform="matrix(12 0 0 -12 265.298 357.97)"/><symbol id="N"><path d="M0 .651C.061.648.08.633.08.58V.096C.078.043.066.031 0 .025V0h.328v.025C.247.028.229.04.228.096v.233C.32.327.353.29.366.174h.022v.338H.367C.35.398.318.363.227.363v.232c0 .038.012.047.059.047C.369.642.424.625.45.59.471.565.481.538.494.475h.022v.201H0V.651z"/></symbol><use xlink:href="#N" transform="matrix(12 0 0 -12 298.135 357.97)"/><use xlink:href="#L" transform="matrix(12 0 0 -12 305.22 358.198)"/><use xlink:href="#M" transform="matrix(12 0 0 -12 313.536 357.97)"/></svg>