<svg xmlns="http://www.w3.org/2000/svg" xmlns:xlink="http://www.w3.org/1999/xlink" width="1362.56" height="314.56" viewBox="0 0 1021.92 235.92"><clipPath id="a"><path transform="scale(.24)" d="M0 0h4258.333v982.923H0z" fill-rule="evenodd"/></clipPath><g clip-path="url(#a)"><path d="M0 0h1022v235.901H0z" fill="#fff"/></g><clipPath id="b"><path transform="scale(.24)" d="M0 0h4258.333v976.93H0z" fill-rule="evenodd"/></clipPath><g clip-path="url(#b)"><path stroke-width="2.15763" stroke-miterlimit="10" fill="none" stroke="#000" d="m337.217 173.963 66.994-71.31M309.513 118.986v41.7"/><symbol id="c"><path d="M.281.877V.855A.295.295 0 0 1 .207.79.326.326 0 0 1 .155.677.947.947 0 0 1 .13.438c0-.096.007-.17.021-.224A.382.382 0 0 1 .21.084a.225.225 0 0 1 .071-.06V0a.391.391 0 0 0-.2.162.49.49 0 0 0-.081.28.48.48 0 0 0 .082.276c.054.08.12.133.2.16z"/></symbol><symbol id="d"><path d="M.19.676V.424c.038.04.08.06.125.06.032 0 .061-.01.089-.028A.182.182 0 0 0 .469.378.277.277 0 0 0 .492.26c0-.05-.01-.095-.03-.136a.225.225 0 0 0-.08-.093.207.207 0 0 0-.179-.02.184.184 0 0 0-.057.038L.071 0H.054v.581A.197.197 0 0 1 .051.63a.036.036 0 0 1-.016.02A.072.072 0 0 1 0 .658v.018h.19m0-.295V.178c0-.042 0-.068.002-.08A.083.083 0 0 1 .216.053.066.066 0 0 1 .263.034c.017 0 .03.005.043.014.012.01.022.028.03.056a.627.627 0 0 1 .012.152C.348.326.338.374.32.4A.059.059 0 0 1 .27.428C.242.428.215.412.19.381z"/></symbol><symbol id="e"><path d="M0 0v.022a.302.302 0 0 1 .075.066A.34.34 0 0 1 .126.2.953.953 0 0 1 .15.44a.905.905 0 0 1-.022.224.376.376 0 0 1-.057.129.225.225 0 0 1-.071.06v.024A.389.389 0 0 0 .2.716.488.488 0 0 0 .28.436.477.477 0 0 0 .2.16.39.39 0 0 0 0 0z"/></symbol><symbol id="f"><path d="M0 0z"/></symbol><use xlink:href="#c" transform="matrix(21.56876 0 0 -21.56876 287.312 30.92)"/><use xlink:href="#d" transform="matrix(21.56876 0 0 -21.56876 294.084 26.896)"/><use xlink:href="#e" transform="matrix(21.56876 0 0 -21.56876 305.887 30.92)"/><use xlink:href="#f" transform="matrix(21.56876 0 0 -21.56876 312.806 26.601)"/><path d="M337.912 81.961a28.728 28.728 0 0 1-2.19 11.006 28.721 28.721 0 0 1-6.234 9.33 28.747 28.747 0 0 1-17.516 8.284 28.74 28.74 0 0 1-16.375-3.257 28.738 28.738 0 0 1-10.356-9.385 28.74 28.74 0 0 1-4.846-15.978 28.757 28.757 0 0 1 55.327-11.005 28.745 28.745 0 0 1 2.19 11.005z" fill="#fff"/><path stroke-width="1.43842" fill="none" stroke="#000" d="M337.912 81.961a28.728 28.728 0 0 1-2.19 11.006 28.721 28.721 0 0 1-6.234 9.33 28.747 28.747 0 0 1-17.516 8.284 28.74 28.74 0 0 1-16.375-3.257 28.738 28.738 0 0 1-10.356-9.385 28.74 28.74 0 0 1-4.846-15.978 28.757 28.757 0 0 1 55.327-11.005 28.745 28.745 0 0 1 2.19 11.005z"/><symbol id="g"><path d="m.416.388.182-.27A.426.426 0 0 1 .663.034.094.094 0 0 1 .708.018V0H.386v.018C.41.02.428.024.436.03a.026.026 0 0 1 .01.021.034.034 0 0 1-.003.016.496.496 0 0 1-.034.055L.313.265.21.14C.181.104.166.078.166.065c0-.01.004-.018.012-.026A.068.068 0 0 1 .212.02.188.188 0 0 1 .254.018V0H0v.018a.162.162 0 0 1 .068.024.53.53 0 0 1 .092.093l.131.16-.168.248-.048.068A.09.09 0 0 1 .05.634a.11.11 0 0 1-.035.01v.018h.329V.644H.326C.307.644.294.641.286.634a.027.027 0 0 1-.01-.022c0-.007 0-.013.003-.018L.312.543.396.418l.07.085C.5.547.517.578.517.596A.042.042 0 0 1 .51.62.048.048 0 0 1 .49.638a.114.114 0 0 1-.044.006v.018h.243V.644A.137.137 0 0 1 .642.637.118.118 0 0 1 .604.612 1.122 1.122 0 0 1 .541.54L.416.388z"/></symbol><use xlink:href="#g" transform="matrix(17.97396 0 0 -17.97396 299.03 86.275)"/><symbol id="h"><path d="M.26.676V.134A.34.34 0 0 1 .265.056.05.05 0 0 1 .288.03a.106.106 0 0 1 .054-.01h.015V0H.01v.018h.017c.029 0 .049.003.06.01a.05.05 0 0 1 .025.027.297.297 0 0 1 .007.08v.343c0 .03-.002.05-.005.057a.04.04 0 0 1-.016.02.046.046 0 0 1-.028.007.157.157 0 0 1-.06-.015L0 .564l.244.112H.26z"/></symbol><use xlink:href="#h" transform="matrix(14.9759 0 0 -14.9759 312.88 90.589)"/><path d="M337.912 196.992a28.728 28.728 0 0 1-2.19 11.005 28.725 28.725 0 0 1-6.234 9.33 28.744 28.744 0 0 1-14.724 7.87 28.738 28.738 0 0 1-13.959-.685 28.74 28.74 0 0 1-11.987-7.185 28.742 28.742 0 0 1-7.87-14.724 28.748 28.748 0 0 1 2.843-19.167 28.739 28.739 0 0 1 9.385-10.356 28.746 28.746 0 0 1 15.977-4.846 28.745 28.745 0 0 1 15.977 4.846 28.744 28.744 0 0 1 10.592 12.907 28.744 28.744 0 0 1 2.19 11.005z" fill="#fff"/><path stroke-width="1.43842" fill="none" stroke="#000" d="M337.912 196.992a28.728 28.728 0 0 1-2.19 11.005 28.725 28.725 0 0 1-6.234 9.33 28.744 28.744 0 0 1-14.724 7.87 28.738 28.738 0 0 1-13.959-.685 28.74 28.74 0 0 1-11.987-7.185 28.742 28.742 0 0 1-7.87-14.724 28.748 28.748 0 0 1 2.843-19.167 28.739 28.739 0 0 1 9.385-10.356 28.746 28.746 0 0 1 15.977-4.846 28.745 28.745 0 0 1 15.977 4.846 28.744 28.744 0 0 1 10.592 12.907 28.744 28.744 0 0 1 2.19 11.005z"/><use xlink:href="#g" transform="matrix(17.97396 0 0 -17.97396 299.659 202.027)"/><symbol id="i"><path d="M.39 0H0v.01C.12.154.192.25.217.299a.31.31 0 0 1 .039.144c0 .034-.01.062-.032.085A.102.102 0 0 1 .146.56C.096.561.057.536.03.486L.012.492a.27.27 0 0 0 .08.139c.036.03.077.045.124.045A.183.183 0 0 0 .308.652.17.17 0 0 0 .373.588.153.153 0 0 0 .396.512.276.276 0 0 0 .36.38 1.251 1.251 0 0 0 .145.128h.143c.035 0 .058.001.068.004.01.003.02.008.026.015A.2.2 0 0 1 .41.191h.018L.39 0z"/></symbol><use xlink:href="#i" transform="matrix(12.48112 0 0 -12.48112 312.827 205.734)"/><path d="M452.942 196.992a28.746 28.746 0 0 1-6.528 18.244 28.709 28.709 0 0 1-6.253 5.668 28.732 28.732 0 0 1-13.158 4.708 28.742 28.742 0 0 1-16.376-3.257 28.736 28.736 0 0 1-10.355-9.386 28.728 28.728 0 0 1-4.294-10.366 28.766 28.766 0 0 1 4.294-21.588 28.727 28.727 0 0 1 7.935-7.935 28.75 28.75 0 0 1 21.587-4.294 28.74 28.74 0 0 1 12.634 5.976 28.748 28.748 0 0 1 9.962 16.62 28.738 28.738 0 0 1 .552 5.61z" fill="#fff"/><path stroke-width="1.43842" fill="none" stroke="#000" d="M452.942 196.992a28.746 28.746 0 0 1-6.528 18.244 28.709 28.709 0 0 1-6.253 5.668 28.732 28.732 0 0 1-13.158 4.708 28.742 28.742 0 0 1-16.376-3.257 28.736 28.736 0 0 1-10.355-9.386 28.728 28.728 0 0 1-4.294-10.366 28.766 28.766 0 0 1 4.294-21.588 28.727 28.727 0 0 1 7.935-7.935 28.75 28.75 0 0 1 21.587-4.294 28.74 28.74 0 0 1 12.634 5.976 28.748 28.748 0 0 1 9.962 16.62 28.738 28.738 0 0 1 .552 5.61z"/><use xlink:href="#g" transform="matrix(17.97396 0 0 -17.97396 414.063 201.308)"/><symbol id="j"><path d="M.132.346v.017c.037.011.063.021.077.03.014.01.027.024.037.043a.12.12 0 0 1 .016.058c0 .027-.01.05-.03.069a.1.1 0 0 1-.073.03C.113.592.074.567.042.52L.024.526a.294.294 0 0 0 .09.123.2.2 0 0 0 .123.04A.158.158 0 0 0 .35.649.13.13 0 0 0 .374.479a.179.179 0 0 0-.065-.06.228.228 0 0 0 .087-.068.166.166 0 0 0 .03-.102.236.236 0 0 0-.075-.177.276.276 0 0 0-.2-.072C.093 0 .053.01.027.028A.06.06 0 0 0 0 .078c0 .015.005.028.016.038.01.011.023.016.037.016.011 0 .021-.002.03-.007A.61.61 0 0 0 .14.083a.146.146 0 0 1 .089-.04c.024 0 .045.01.062.03.017.018.026.043.026.072a.188.188 0 0 1-.047.123.245.245 0 0 1-.137.078z"/></symbol><use xlink:href="#j" transform="matrix(14.9759 0 0 -14.9759 427.168 205.834)"/><path stroke-width="2.15763" stroke-miterlimit="10" fill="none" stroke="#000" d="M338.267 197.352h57.522"/><path d="M452.942 81.961a28.746 28.746 0 0 1-6.528 18.244 28.713 28.713 0 0 1-6.253 5.668 28.726 28.726 0 0 1-10.367 4.294 28.74 28.74 0 0 1-16.615-1.636 28.752 28.752 0 0 1-16.515-18.222 28.76 28.76 0 1 1 56.278-8.348z" fill="#fff"/><path stroke-width="1.43842" fill="none" stroke="#000" d="M452.942 81.961a28.746 28.746 0 0 1-6.528 18.244 28.713 28.713 0 0 1-6.253 5.668 28.726 28.726 0 0 1-10.367 4.294 28.74 28.74 0 0 1-16.615-1.636 28.752 28.752 0 0 1-16.515-18.222 28.76 28.76 0 1 1 56.278-8.348z"/><use xlink:href="#g" transform="matrix(17.97396 0 0 -17.97396 414.063 86.275)"/><symbol id="k"><path d="m0 .25.314.426h.06V.25h.06V.148h-.06V0H.24v.148H0V.25m.047 0H.24v.26L.047.25z"/></symbol><use xlink:href="#k" transform="matrix(14.9759 0 0 -14.9759 427.3 90.589)"/><path d="M313.108 115.39c0 .477-.092.936-.274 1.376-.182.44-.442.83-.78 1.166a3.561 3.561 0 0 1-1.166.78 3.56 3.56 0 0 1-1.375.273c-.477 0-.935-.091-1.376-.274a3.56 3.56 0 0 1-1.166-.779 3.56 3.56 0 0 1-.78-1.166 3.56 3.56 0 0 1-.273-1.376c0-.476.091-.935.274-1.375.182-.44.442-.83.779-1.167a3.56 3.56 0 0 1 1.166-.779 3.56 3.56 0 0 1 1.376-.273c.477 0 .935.09 1.375.273.44.183.83.442 1.167.78.337.337.597.725.779 1.166.182.44.274.899.274 1.375z" fill="#fff"/><path stroke-width="2.15763" fill="none" stroke="#000" d="M313.108 115.39c0 .477-.092.936-.274 1.376-.182.44-.442.83-.78 1.166a3.561 3.561 0 0 1-1.166.78 3.56 3.56 0 0 1-1.375.273c-.477 0-.935-.091-1.376-.274a3.56 3.56 0 0 1-1.166-.779 3.56 3.56 0 0 1-.78-1.166 3.56 3.56 0 0 1-.273-1.376c0-.476.091-.935.274-1.375.182-.44.442-.83.779-1.167a3.56 3.56 0 0 1 1.166-.779 3.56 3.56 0 0 1 1.376-.273c.477 0 .935.09 1.375.273.44.183.83.442 1.167.78.337.337.597.725.779 1.166.182.44.274.899.274 1.375z"/><path d="M313.108 164.282c0 .477-.092.936-.274 1.376-.182.44-.442.83-.78 1.166a3.56 3.56 0 0 1-1.166.78 3.56 3.56 0 0 1-1.375.273c-.477 0-.935-.091-1.376-.274a3.56 3.56 0 0 1-1.166-.779 3.56 3.56 0 0 1-.78-1.166 3.56 3.56 0 0 1-.273-1.376c0-.476.091-.935.274-1.375.182-.44.442-.83.779-1.167a3.56 3.56 0 0 1 1.166-.779 3.56 3.56 0 0 1 1.376-.273c.477 0 .935.09 1.375.273.44.183.83.442 1.167.78.337.337.597.725.779 1.166.182.44.274.899.274 1.375z" fill="#fff"/><path stroke-width="2.15763" fill="none" stroke="#000" d="M313.108 164.282c0 .477-.092.936-.274 1.376-.182.44-.442.83-.78 1.166a3.56 3.56 0 0 1-1.166.78 3.56 3.56 0 0 1-1.375.273c-.477 0-.935-.091-1.376-.274a3.56 3.56 0 0 1-1.166-.779 3.56 3.56 0 0 1-.78-1.166 3.56 3.56 0 0 1-.273-1.376c0-.476.091-.935.274-1.375.182-.44.442-.83.779-1.167a3.56 3.56 0 0 1 1.166-.779 3.56 3.56 0 0 1 1.376-.273c.477 0 .935.09 1.375.273.44.183.83.442 1.167.78.337.337.597.725.779 1.166.182.44.274.899.274 1.375z"/><path d="M346.177 197.352c0 .476-.091.935-.274 1.375a3.56 3.56 0 0 1-.779 1.167 3.56 3.56 0 0 1-1.166.779 3.56 3.56 0 0 1-1.376.274c-.477 0-.935-.092-1.376-.274a3.56 3.56 0 0 1-1.166-.78 3.56 3.56 0 0 1-.779-1.166 3.56 3.56 0 0 1-.274-1.375c0-.477.092-.936.274-1.376.182-.44.442-.83.78-1.166a3.56 3.56 0 0 1 1.165-.78c.44-.182.9-.273 1.376-.273.477 0 .935.091 1.376.274.44.182.829.442 1.166.779.337.337.597.726.78 1.166.182.44.273.899.273 1.376z" fill="#fff"/><path stroke-width="2.15763" fill="none" stroke="#000" d="M346.177 197.352c0 .476-.091.935-.274 1.375a3.56 3.56 0 0 1-.779 1.167 3.56 3.56 0 0 1-1.166.779 3.56 3.56 0 0 1-1.376.274c-.477 0-.935-.092-1.376-.274a3.56 3.56 0 0 1-1.166-.78 3.56 3.56 0 0 1-.779-1.166 3.56 3.56 0 0 1-.274-1.375c0-.477.092-.936.274-1.376.182-.44.442-.83.78-1.166a3.56 3.56 0 0 1 1.165-.78c.44-.182.9-.273 1.376-.273.477 0 .935.091 1.376.274.44.182.829.442 1.166.779.337.337.597.726.78 1.166.182.44.273.899.273 1.376z"/><path d="M395.069 197.352c0 .476-.091.935-.274 1.375a3.56 3.56 0 0 1-.779 1.167 3.561 3.561 0 0 1-1.166.779 3.56 3.56 0 0 1-1.376.274c-.477 0-.935-.092-1.376-.274a3.56 3.56 0 0 1-1.166-.78 3.56 3.56 0 0 1-.779-1.166 3.56 3.56 0 0 1-.274-1.375c0-.477.092-.936.274-1.376.182-.44.442-.83.78-1.166a3.56 3.56 0 0 1 1.165-.78c.44-.182.9-.273 1.376-.273.477 0 .935.091 1.376.274.44.182.829.442 1.166.779.337.337.597.726.78 1.166.182.44.273.899.273 1.376z" fill="#fff"/><path stroke-width="2.15763" fill="none" stroke="#000" d="M395.069 197.352c0 .476-.091.935-.274 1.375a3.56 3.56 0 0 1-.779 1.167 3.561 3.561 0 0 1-1.166.779 3.56 3.56 0 0 1-1.376.274c-.477 0-.935-.092-1.376-.274a3.56 3.56 0 0 1-1.166-.78 3.56 3.56 0 0 1-.779-1.166 3.56 3.56 0 0 1-.274-1.375c0-.477.092-.936.274-1.376.182-.44.442-.83.78-1.166a3.56 3.56 0 0 1 1.165-.78c.44-.182.9-.273 1.376-.273.477 0 .935.091 1.376.274.44.182.829.442 1.166.779.337.337.597.726.78 1.166.182.44.273.899.273 1.376z"/><path d="M428.138 115.39c0 .477-.091.936-.273 1.376a3.56 3.56 0 0 1-.78 1.166 3.562 3.562 0 0 1-1.166.78 3.56 3.56 0 0 1-1.375.273c-.477 0-.936-.091-1.376-.274a3.561 3.561 0 0 1-1.166-.779 3.56 3.56 0 0 1-.78-1.166 3.56 3.56 0 0 1-.273-1.376c0-.476.09-.935.273-1.375.183-.44.442-.83.78-1.167a3.56 3.56 0 0 1 1.166-.779 3.56 3.56 0 0 1 1.376-.273c.476 0 .935.09 1.375.273.44.183.83.442 1.166.78.337.337.597.725.78 1.166.182.44.273.899.273 1.375z" fill="#fff"/><path stroke-width="2.15763" fill="none" stroke="#000" d="M428.138 115.39c0 .477-.091.936-.273 1.376a3.56 3.56 0 0 1-.78 1.166 3.562 3.562 0 0 1-1.166.78 3.56 3.56 0 0 1-1.375.273c-.477 0-.936-.091-1.376-.274a3.561 3.561 0 0 1-1.166-.779 3.56 3.56 0 0 1-.78-1.166 3.56 3.56 0 0 1-.273-1.376c0-.476.09-.935.273-1.375.183-.44.442-.83.78-1.167a3.56 3.56 0 0 1 1.166-.779 3.56 3.56 0 0 1 1.376-.273c.476 0 .935.09 1.375.273.44.183.83.442 1.166.78.337.337.597.725.78 1.166.182.44.273.899.273 1.375z"/><path d="M428.138 164.282c0 .477-.091.936-.273 1.376a3.56 3.56 0 0 1-.78 1.166 3.562 3.562 0 0 1-1.166.78 3.56 3.56 0 0 1-1.375.273c-.477 0-.936-.091-1.376-.274a3.56 3.56 0 0 1-1.166-.779 3.56 3.56 0 0 1-.78-1.166 3.56 3.56 0 0 1-.273-1.376c0-.476.09-.935.273-1.375.183-.44.442-.83.78-1.167a3.56 3.56 0 0 1 1.166-.779c.44-.182.899-.273 1.376-.273.476 0 .935.09 1.375.273.44.183.83.442 1.166.78.337.337.597.725.78 1.166.182.44.273.899.273 1.375z" fill="#fff"/><path stroke-width="2.15763" fill="none" stroke="#000" d="M428.138 164.282c0 .477-.091.936-.273 1.376a3.56 3.56 0 0 1-.78 1.166 3.562 3.562 0 0 1-1.166.78 3.56 3.56 0 0 1-1.375.273c-.477 0-.936-.091-1.376-.274a3.56 3.56 0 0 1-1.166-.779 3.56 3.56 0 0 1-.78-1.166 3.56 3.56 0 0 1-.273-1.376c0-.476.09-.935.273-1.375.183-.44.442-.83.78-1.167a3.56 3.56 0 0 1 1.166-.779c.44-.182.899-.273 1.376-.273.476 0 .935.09 1.375.273.44.183.83.442 1.166.78.337.337.597.725.78 1.166.182.44.273.899.273 1.375z"/><path d="M336.115 105.329c0 .476-.091.935-.273 1.375a3.56 3.56 0 0 1-.78 1.166 3.56 3.56 0 0 1-1.166.78 3.56 3.56 0 0 1-1.376.273 3.56 3.56 0 0 1-1.375-.273 3.56 3.56 0 0 1-1.167-.78 3.56 3.56 0 0 1-.779-1.166 3.56 3.56 0 0 1-.273-1.375c0-.477.09-.936.273-1.376.183-.44.442-.83.78-1.166a3.56 3.56 0 0 1 1.166-.78 3.56 3.56 0 0 1 1.375-.273c.477 0 .936.091 1.376.273.44.183.83.443 1.166.78.337.337.597.725.78 1.166.182.44.273.899.273 1.376z" fill="#fff"/><path stroke-width="2.15763" fill="none" stroke="#000" d="M336.115 105.329c0 .476-.091.935-.273 1.375a3.56 3.56 0 0 1-.78 1.166 3.56 3.56 0 0 1-1.166.78 3.56 3.56 0 0 1-1.376.273 3.56 3.56 0 0 1-1.375-.273 3.56 3.56 0 0 1-1.167-.78 3.56 3.56 0 0 1-.779-1.166 3.56 3.56 0 0 1-.273-1.375c0-.477.09-.936.273-1.376.183-.44.442-.83.78-1.166a3.56 3.56 0 0 1 1.166-.78 3.56 3.56 0 0 1 1.375-.273c.477 0 .936.091 1.376.273.44.183.83.443 1.166.78.337.337.597.725.78 1.166.182.44.273.899.273 1.376z"/><path d="M402.973 175.783c0 .476-.091.935-.274 1.375-.182.44-.442.83-.779 1.166a3.56 3.56 0 0 1-1.166.78 3.56 3.56 0 0 1-1.376.273c-.476 0-.935-.09-1.375-.273a3.56 3.56 0 0 1-1.167-.78 3.562 3.562 0 0 1-.779-1.166 3.56 3.56 0 0 1-.273-1.375c0-.477.09-.936.273-1.376.183-.44.442-.83.78-1.166a3.56 3.56 0 0 1 1.166-.78c.44-.182.899-.273 1.375-.273.477 0 .936.091 1.376.273.44.183.83.443 1.166.78.337.337.597.725.78 1.166.182.44.273.899.273 1.376z" fill="#fff"/><path stroke-width="2.15763" fill="none" stroke="#000" d="M402.973 175.783c0 .476-.091.935-.274 1.375-.182.44-.442.83-.779 1.166a3.56 3.56 0 0 1-1.166.78 3.56 3.56 0 0 1-1.376.273c-.476 0-.935-.09-1.375-.273a3.56 3.56 0 0 1-1.167-.78 3.562 3.562 0 0 1-.779-1.166 3.56 3.56 0 0 1-.273-1.375c0-.477.09-.936.273-1.376.183-.44.442-.83.78-1.166a3.56 3.56 0 0 1 1.166-.78c.44-.182.899-.273 1.375-.273.477 0 .936.091 1.376.273.44.183.83.443 1.166.78.337.337.597.725.78 1.166.182.44.273.899.273 1.376z"/><path d="M338.273 176.502c0 .476-.091.935-.274 1.375a3.56 3.56 0 0 1-.78 1.167 3.56 3.56 0 0 1-1.165.779 3.56 3.56 0 0 1-1.376.274 3.56 3.56 0 0 1-1.376-.274 3.56 3.56 0 0 1-1.166-.78 3.561 3.561 0 0 1-.78-1.166 3.56 3.56 0 0 1-.273-1.375c0-.477.091-.936.274-1.376.182-.44.442-.83.78-1.166a3.56 3.56 0 0 1 1.165-.78c.44-.182.9-.273 1.376-.273.477 0 .935.091 1.376.274.44.182.829.442 1.166.779.337.337.597.726.78 1.166.182.44.273.9.273 1.376z" fill="#fff"/><path stroke-width="2.15763" fill="none" stroke="#000" d="M338.273 176.502c0 .476-.091.935-.274 1.375a3.56 3.56 0 0 1-.78 1.167 3.56 3.56 0 0 1-1.165.779 3.56 3.56 0 0 1-1.376.274 3.56 3.56 0 0 1-1.376-.274 3.56 3.56 0 0 1-1.166-.78 3.561 3.561 0 0 1-.78-1.166 3.56 3.56 0 0 1-.273-1.375c0-.477.091-.936.274-1.376.182-.44.442-.83.78-1.166a3.56 3.56 0 0 1 1.165-.78c.44-.182.9-.273 1.376-.273.477 0 .935.091 1.376.274.44.182.829.442 1.166.779.337.337.597.726.78 1.166.182.44.273.9.273 1.376z"/><path d="M404.411 105.329c0 .476-.09.935-.273 1.375a3.56 3.56 0 0 1-.78 1.166 3.56 3.56 0 0 1-1.166.78 3.56 3.56 0 0 1-1.375.273c-.477 0-.936-.09-1.376-.273a3.56 3.56 0 0 1-1.166-.78 3.561 3.561 0 0 1-.78-1.166 3.56 3.56 0 0 1-.273-1.375c0-.477.091-.936.273-1.376.183-.44.443-.83.78-1.166a3.56 3.56 0 0 1 1.166-.78 3.56 3.56 0 0 1 1.376-.273c.476 0 .935.091 1.375.273.44.183.83.443 1.167.78.337.337.596.725.779 1.166.182.44.273.899.273 1.376z" fill="#fff"/><path stroke-width="2.15763" fill="none" stroke="#000" d="M404.411 105.329c0 .476-.09.935-.273 1.375a3.56 3.56 0 0 1-.78 1.166 3.56 3.56 0 0 1-1.166.78 3.56 3.56 0 0 1-1.375.273c-.477 0-.936-.09-1.376-.273a3.56 3.56 0 0 1-1.166-.78 3.561 3.561 0 0 1-.78-1.166 3.56 3.56 0 0 1-.273-1.375c0-.477.091-.936.273-1.376.183-.44.443-.83.78-1.166a3.56 3.56 0 0 1 1.166-.78 3.56 3.56 0 0 1 1.376-.273c.476 0 .935.091 1.375.273.44.183.83.443 1.167.78.337.337.596.725.779 1.166.182.44.273.899.273 1.376z"/><path stroke-width="2.15763" stroke-miterlimit="10" fill="none" stroke="#000" d="m335.06 107.867 61.78 65.377M424.544 118.986v41.7M704.223 103.89v57.444"/><path d="m704.223 166.181-3.236-6.466 3.236 1.619 3.23-1.619-3.23 6.466z"/><path stroke-width="2.15763" stroke-miterlimit="10" fill="none" stroke="#000" d="m704.223 166.181-3.236-6.466 3.236 1.619 3.23-1.619-3.23 6.466zM589.185 103.89v57.444"/><path d="m589.185 166.181-3.236-6.466 3.236 1.619 3.237-1.619-3.237 6.466z"/><path stroke-width="2.15763" stroke-miterlimit="10" fill="none" stroke="#000" d="m589.185 166.181-3.236-6.466 3.236 1.619 3.237-1.619-3.237 6.466z"/><path d="M617.584 81.961a28.704 28.704 0 0 1-1.238 8.348 28.746 28.746 0 0 1-9.276 13.883 28.736 28.736 0 0 1-12.634 5.975 28.742 28.742 0 0 1-16.616-1.636 28.745 28.745 0 0 1-12.906-10.592 28.746 28.746 0 0 1-4.708-18.796 28.738 28.738 0 0 1 6.39-15.426 28.726 28.726 0 0 1 8.673-7.118 28.743 28.743 0 0 1 16.376-3.257 28.735 28.735 0 0 1 13.158 4.708 28.746 28.746 0 0 1 11.543 15.563 28.727 28.727 0 0 1 1.238 8.348z" fill="#fff"/><path stroke-width="1.43842" fill="none" stroke="#000" d="M617.584 81.961a28.704 28.704 0 0 1-1.238 8.348 28.746 28.746 0 0 1-9.276 13.883 28.736 28.736 0 0 1-12.634 5.975 28.742 28.742 0 0 1-16.616-1.636 28.745 28.745 0 0 1-12.906-10.592 28.746 28.746 0 0 1-4.708-18.796 28.738 28.738 0 0 1 6.39-15.426 28.726 28.726 0 0 1 8.673-7.118 28.743 28.743 0 0 1 16.376-3.257 28.735 28.735 0 0 1 13.158 4.708 28.746 28.746 0 0 1 11.543 15.563 28.727 28.727 0 0 1 1.238 8.348z"/><use xlink:href="#g" transform="matrix(17.97396 0 0 -17.97396 578.705 86.275)"/><use xlink:href="#h" transform="matrix(14.9759 0 0 -14.9759 592.555 90.589)"/><path d="M617.584 196.992a28.703 28.703 0 0 1-1.238 8.348 28.744 28.744 0 0 1-7.185 11.987 28.726 28.726 0 0 1-9.33 6.234 28.738 28.738 0 0 1-13.824 2.051 28.74 28.74 0 0 1-13.158-4.708 28.748 28.748 0 0 1-11.543-15.564 28.733 28.733 0 0 1-.686-13.958 28.733 28.733 0 0 1 5.975-12.634 28.729 28.729 0 0 1 8.674-7.119 28.74 28.74 0 0 1 13.557-3.395 28.746 28.746 0 0 1 18.244 6.528 28.73 28.73 0 0 1 7.118 8.674 28.728 28.728 0 0 1 3.258 10.737c.092.938.138 1.877.138 2.82z" fill="#fff"/><path stroke-width="1.43842" fill="none" stroke="#000" d="M617.584 196.992a28.703 28.703 0 0 1-1.238 8.348 28.744 28.744 0 0 1-7.185 11.987 28.726 28.726 0 0 1-9.33 6.234 28.738 28.738 0 0 1-13.824 2.051 28.74 28.74 0 0 1-13.158-4.708 28.748 28.748 0 0 1-11.543-15.564 28.733 28.733 0 0 1-.686-13.958 28.733 28.733 0 0 1 5.975-12.634 28.729 28.729 0 0 1 8.674-7.119 28.74 28.74 0 0 1 13.557-3.395 28.746 28.746 0 0 1 18.244 6.528 28.73 28.73 0 0 1 7.118 8.674 28.728 28.728 0 0 1 3.258 10.737c.092.938.138 1.877.138 2.82z"/><use xlink:href="#g" transform="matrix(17.97396 0 0 -17.97396 579.334 202.027)"/><use xlink:href="#i" transform="matrix(12.48112 0 0 -12.48112 592.502 205.734)"/><path stroke-width="2.15763" stroke-miterlimit="10" fill="none" stroke="#000" d="M589.185 111.082v50.252"/><path d="m589.185 166.181-3.236-6.466 3.236 1.619 3.237-1.619-3.237 6.466z"/><path stroke-width="2.15763" stroke-miterlimit="10" fill="none" stroke="#000" d="m589.185 166.181-3.236-6.466 3.236 1.619 3.237-1.619-3.237 6.466z"/><path d="M732.622 196.992a28.752 28.752 0 0 1-10.514 22.23 28.752 28.752 0 0 1-23.855 5.976 28.739 28.739 0 0 1-12.633-5.975 28.739 28.739 0 0 1-8.326-11.226 28.75 28.75 0 0 1-.95-19.353 28.745 28.745 0 0 1 9.276-13.882 28.725 28.725 0 0 1 9.896-5.29 28.743 28.743 0 0 1 16.696 0 28.74 28.74 0 0 1 11.987 7.185 28.718 28.718 0 0 1 6.234 9.33 28.721 28.721 0 0 1 2.19 11.005z" fill="#fff"/><path stroke-width="1.43842" fill="none" stroke="#000" d="M732.622 196.992a28.752 28.752 0 0 1-10.514 22.23 28.752 28.752 0 0 1-23.855 5.976 28.739 28.739 0 0 1-12.633-5.975 28.739 28.739 0 0 1-8.326-11.226 28.75 28.75 0 0 1-.95-19.353 28.745 28.745 0 0 1 9.276-13.882 28.725 28.725 0 0 1 9.896-5.29 28.743 28.743 0 0 1 16.696 0 28.74 28.74 0 0 1 11.987 7.185 28.718 28.718 0 0 1 6.234 9.33 28.721 28.721 0 0 1 2.19 11.005z"/><use xlink:href="#g" transform="matrix(17.97396 0 0 -17.97396 693.738 201.308)"/><use xlink:href="#j" transform="matrix(14.9759 0 0 -14.9759 706.843 205.834)"/><path d="M732.622 81.961a28.753 28.753 0 0 1-12.781 23.912 28.741 28.741 0 0 1-15.977 4.847 28.743 28.743 0 0 1-15.978-4.847 28.721 28.721 0 0 1-7.934-7.934 28.734 28.734 0 0 1-4.708-13.159 28.755 28.755 0 0 1 17.614-29.388 28.746 28.746 0 0 1 16.616-1.636 28.738 28.738 0 0 1 12.634 5.975 28.741 28.741 0 0 1 8.325 11.225 28.722 28.722 0 0 1 2.19 11.005z" fill="#fff"/><path stroke-width="1.43842" fill="none" stroke="#000" d="M732.622 81.961a28.753 28.753 0 0 1-12.781 23.912 28.741 28.741 0 0 1-15.977 4.847 28.743 28.743 0 0 1-15.978-4.847 28.721 28.721 0 0 1-7.934-7.934 28.734 28.734 0 0 1-4.708-13.159 28.755 28.755 0 0 1 17.614-29.388 28.746 28.746 0 0 1 16.616-1.636 28.738 28.738 0 0 1 12.634 5.975 28.741 28.741 0 0 1 8.325 11.225 28.722 28.722 0 0 1 2.19 11.005z"/><use xlink:href="#g" transform="matrix(17.97396 0 0 -17.97396 693.738 86.275)"/><use xlink:href="#k" transform="matrix(14.9759 0 0 -14.9759 706.974 90.589)"/><path stroke-width="2.15763" stroke-miterlimit="10" fill="none" stroke="#000" d="m609.525 102.653 69.224 69.231"/><path d="m682.18 175.315-6.862-2.287 3.43-1.144 1.144-3.43 2.288 6.861z"/><path stroke-width="2.15763" stroke-miterlimit="10" fill="none" stroke="#000" d="m682.18 175.315-6.862-2.287 3.43-1.144 1.144-3.43 2.288 6.861zM682.654 103.89l-67.994 67.994"/><path d="m611.23 175.315 2.286-6.861 1.144 3.43 3.43 1.144-6.86 2.287z"/><path stroke-width="2.15763" stroke-miterlimit="10" fill="none" stroke="#000" d="m611.23 175.315 2.286-6.861 1.144 3.43 3.43 1.144-6.86 2.287z"/><path d="M625.857 197.352c0 .476-.091.935-.274 1.375a3.56 3.56 0 0 1-.78 1.167 3.56 3.56 0 0 1-1.165.779 3.56 3.56 0 0 1-1.376.274c-.477 0-.935-.092-1.376-.274a3.56 3.56 0 0 1-1.166-.78 3.56 3.56 0 0 1-.78-1.166 3.56 3.56 0 0 1-.273-1.375c0-.477.091-.936.274-1.376.182-.44.442-.83.78-1.166a3.56 3.56 0 0 1 1.165-.78 3.56 3.56 0 0 1 1.376-.273c.477 0 .935.091 1.376.274.44.182.829.442 1.166.779.337.337.597.726.78 1.166.182.44.273.899.273 1.376z" fill="#fff"/><path stroke-width="2.15763" fill="none" stroke="#000" d="M625.857 197.352c0 .476-.091.935-.274 1.375a3.56 3.56 0 0 1-.78 1.167 3.56 3.56 0 0 1-1.165.779 3.56 3.56 0 0 1-1.376.274c-.477 0-.935-.092-1.376-.274a3.56 3.56 0 0 1-1.166-.78 3.56 3.56 0 0 1-.78-1.166 3.56 3.56 0 0 1-.273-1.375c0-.477.091-.936.274-1.376.182-.44.442-.83.78-1.166a3.56 3.56 0 0 1 1.165-.78 3.56 3.56 0 0 1 1.376-.273c.477 0 .935.091 1.376.274.44.182.829.442 1.166.779.337.337.597.726.78 1.166.182.44.273.899.273 1.376z"/><path stroke-width="2.15763" stroke-miterlimit="10" fill="none" stroke="#000" d="m609.525 102.653.848.849"/><path d="M674.742 197.352c0 .476-.092.935-.274 1.375a3.56 3.56 0 0 1-.78 1.167 3.56 3.56 0 0 1-1.166.779 3.56 3.56 0 0 1-1.375.274c-.477 0-.935-.092-1.376-.274a3.56 3.56 0 0 1-1.166-.78 3.562 3.562 0 0 1-.78-1.166 3.56 3.56 0 0 1-.273-1.375c0-.477.091-.936.274-1.376.182-.44.442-.83.779-1.166a3.56 3.56 0 0 1 1.166-.78c.44-.182.9-.273 1.376-.273.476 0 .935.091 1.375.274.44.182.83.442 1.167.779.337.337.596.726.779 1.166.182.44.274.899.274 1.376z" fill="#fff"/><path stroke-width="2.15763" fill="none" stroke="#000" d="M674.742 197.352c0 .476-.092.935-.274 1.375a3.56 3.56 0 0 1-.78 1.167 3.56 3.56 0 0 1-1.166.779 3.56 3.56 0 0 1-1.375.274c-.477 0-.935-.092-1.376-.274a3.56 3.56 0 0 1-1.166-.78 3.562 3.562 0 0 1-.78-1.166 3.56 3.56 0 0 1-.273-1.375c0-.477.091-.936.274-1.376.182-.44.442-.83.779-1.166a3.56 3.56 0 0 1 1.166-.78c.44-.182.9-.273 1.376-.273.476 0 .935.091 1.375.274.44.182.83.442 1.167.779.337.337.596.726.779 1.166.182.44.274.899.274 1.376z"/><path stroke-width="2.15763" stroke-miterlimit="10" fill="none" stroke="#000" d="M625.85 197.352h41.7"/><symbol id="l"><path d="M.368.131.383.12a.229.229 0 0 0-.08-.09A.192.192 0 0 0 .2 0C.14 0 .09.023.055.069A.258.258 0 0 0 0 .234c0 .063.017.117.05.164.04.057.095.086.165.086A.167.167 0 0 0 .328.448C.356.424.37.398.37.368A.06.06 0 0 0 .353.325.06.06 0 0 0 .309.308.065.065 0 0 0 .26.327C.248.339.24.362.238.395.236.415.23.429.224.437A.035.035 0 0 1 .197.45C.182.45.168.44.157.425A.208.208 0 0 1 .132.31c0-.043.007-.085.02-.124A.19.19 0 0 1 .208.099.1.1 0 0 1 .272.078c.016 0 .031.003.045.01a.209.209 0 0 1 .051.043z"/></symbol><use xlink:href="#c" transform="matrix(20.8498 0 0 -20.8498 568.655 30.057)"/><use xlink:href="#l" transform="matrix(20.8498 0 0 -20.8498 575.557 26.168)"/><use xlink:href="#e" transform="matrix(20.8498 0 0 -20.8498 584.275 30.057)"/><use xlink:href="#f" transform="matrix(20.8498 0 0 -20.8498 590.963 25.883)"/><path d="M592.78 115.39c0 .477-.091.936-.273 1.376-.183.44-.443.83-.78 1.166a3.56 3.56 0 0 1-1.166.78 3.56 3.56 0 0 1-1.376.273 3.56 3.56 0 0 1-1.375-.274 3.56 3.56 0 0 1-1.166-.779 3.56 3.56 0 0 1-.78-1.166 3.56 3.56 0 0 1-.273-1.376c0-.476.09-.935.273-1.375.183-.44.443-.83.78-1.167a3.56 3.56 0 0 1 1.166-.779c.44-.182.899-.273 1.375-.273.477 0 .936.09 1.376.273.44.183.83.442 1.166.78.337.337.597.725.78 1.166.182.44.273.899.273 1.375z" fill="#fff"/><path stroke-width="2.15763" fill="none" stroke="#000" d="M592.78 115.39c0 .477-.091.936-.273 1.376-.183.44-.443.83-.78 1.166a3.56 3.56 0 0 1-1.166.78 3.56 3.56 0 0 1-1.376.273 3.56 3.56 0 0 1-1.375-.274 3.56 3.56 0 0 1-1.166-.779 3.56 3.56 0 0 1-.78-1.166 3.56 3.56 0 0 1-.273-1.376c0-.476.09-.935.273-1.375.183-.44.443-.83.78-1.167a3.56 3.56 0 0 1 1.166-.779c.44-.182.899-.273 1.375-.273.477 0 .936.09 1.376.273.44.183.83.442 1.166.78.337.337.597.725.78 1.166.182.44.273.899.273 1.375z"/><path d="M616.507 105.329c0 .476-.091.935-.274 1.375a3.56 3.56 0 0 1-.779 1.166 3.56 3.56 0 0 1-1.166.78 3.56 3.56 0 0 1-1.376.273c-.476 0-.935-.09-1.376-.273a3.56 3.56 0 0 1-1.166-.78 3.561 3.561 0 0 1-.779-1.166 3.56 3.56 0 0 1-.273-1.375c0-.477.09-.936.273-1.376.182-.44.442-.83.78-1.166a3.56 3.56 0 0 1 1.166-.78 3.56 3.56 0 0 1 1.375-.273c.477 0 .935.091 1.376.273.44.183.829.443 1.166.78.337.337.597.725.78 1.166.182.44.273.899.273 1.376z" fill="#fff"/><path stroke-width="2.15763" fill="none" stroke="#000" d="M616.507 105.329c0 .476-.091.935-.274 1.375a3.56 3.56 0 0 1-.779 1.166 3.56 3.56 0 0 1-1.166.78 3.56 3.56 0 0 1-1.376.273c-.476 0-.935-.09-1.376-.273a3.56 3.56 0 0 1-1.166-.78 3.561 3.561 0 0 1-.779-1.166 3.56 3.56 0 0 1-.273-1.375c0-.477.09-.936.273-1.376.182-.44.442-.83.78-1.166a3.56 3.56 0 0 1 1.166-.78 3.56 3.56 0 0 1 1.375-.273c.477 0 .935.091 1.376.273.44.183.829.443 1.166.78.337.337.597.725.78 1.166.182.44.273.899.273 1.376z"/><path d="M684.091 105.329c0 .476-.091.935-.273 1.375a3.56 3.56 0 0 1-.78 1.166 3.561 3.561 0 0 1-1.166.78 3.56 3.56 0 0 1-1.375.273c-.477 0-.936-.09-1.376-.273a3.56 3.56 0 0 1-1.166-.78 3.56 3.56 0 0 1-.78-1.166 3.559 3.559 0 0 1-.273-1.375c0-.477.091-.936.273-1.376.183-.44.443-.83.78-1.166a3.56 3.56 0 0 1 1.166-.78c.44-.182.899-.273 1.376-.273.476 0 .935.091 1.375.273.44.183.83.443 1.166.78.338.337.597.725.78 1.166.182.44.273.899.273 1.376z" fill="#fff"/><path stroke-width="2.15763" fill="none" stroke="#000" d="M684.091 105.329c0 .476-.091.935-.273 1.375a3.56 3.56 0 0 1-.78 1.166 3.561 3.561 0 0 1-1.166.78 3.56 3.56 0 0 1-1.375.273c-.477 0-.936-.09-1.376-.273a3.56 3.56 0 0 1-1.166-.78 3.56 3.56 0 0 1-.78-1.166 3.559 3.559 0 0 1-.273-1.375c0-.477.091-.936.273-1.376.183-.44.443-.83.78-1.166a3.56 3.56 0 0 1 1.166-.78c.44-.182.899-.273 1.376-.273.476 0 .935.091 1.375.273.44.183.83.443 1.166.78.338.337.597.725.78 1.166.182.44.273.899.273 1.376z"/><path d="M707.818 115.39c0 .477-.091.936-.274 1.376a3.56 3.56 0 0 1-.779 1.166 3.56 3.56 0 0 1-1.166.78 3.56 3.56 0 0 1-1.376.273 3.56 3.56 0 0 1-1.375-.274 3.56 3.56 0 0 1-1.167-.779 3.56 3.56 0 0 1-.779-1.166 3.56 3.56 0 0 1-.273-1.376c0-.476.09-.935.273-1.375.183-.44.442-.83.78-1.167a3.56 3.56 0 0 1 1.166-.779 3.56 3.56 0 0 1 1.375-.273c.477 0 .936.09 1.376.273.44.183.83.442 1.166.78.337.337.597.725.78 1.166.182.44.273.899.273 1.375z" fill="#fff"/><path stroke-width="2.15763" fill="none" stroke="#000" d="M707.818 115.39c0 .477-.091.936-.274 1.376a3.56 3.56 0 0 1-.779 1.166 3.56 3.56 0 0 1-1.166.78 3.56 3.56 0 0 1-1.376.273 3.56 3.56 0 0 1-1.375-.274 3.56 3.56 0 0 1-1.167-.779 3.56 3.56 0 0 1-.779-1.166 3.56 3.56 0 0 1-.273-1.376c0-.476.09-.935.273-1.375.183-.44.442-.83.78-1.167a3.56 3.56 0 0 1 1.166-.779 3.56 3.56 0 0 1 1.375-.273c.477 0 .936.09 1.376.273.44.183.83.442 1.166.78.337.337.597.725.78 1.166.182.44.273.899.273 1.375z"/><path stroke-width="2.15763" stroke-miterlimit="10" fill="none" stroke="#000" d="M985.335 104.61v57.443"/><path d="m985.335 166.9-3.237-6.465 3.237 1.618 3.236-1.618-3.236 6.465z"/><path stroke-width="2.15763" stroke-miterlimit="10" fill="none" stroke="#000" d="m985.335 166.9-3.237-6.465 3.237 1.618 3.236-1.618-3.236 6.465zM870.297 104.61v57.443"/><path d="m870.297 166.9-3.23-6.465 3.23 1.618 3.236-1.618-3.236 6.465z"/><path stroke-width="2.15763" stroke-miterlimit="10" fill="none" stroke="#000" d="m870.297 166.9-3.23-6.465 3.23 1.618 3.236-1.618-3.236 6.465z"/><path d="M898.695 82.68a28.755 28.755 0 0 1-23.148 28.206 28.738 28.738 0 0 1-13.958-.685 28.741 28.741 0 0 1-13.883-9.276 28.746 28.746 0 0 1-6.389-21.063 28.725 28.725 0 0 1 3.257-10.738 28.728 28.728 0 0 1 7.119-8.674 28.764 28.764 0 0 1 23.854-5.975 28.743 28.743 0 0 1 14.725 7.87 28.763 28.763 0 0 1 8.423 20.336z" fill="#fff"/><path stroke-width="1.43842" fill="none" stroke="#000" d="M898.695 82.68a28.755 28.755 0 0 1-23.148 28.206 28.738 28.738 0 0 1-13.958-.685 28.741 28.741 0 0 1-13.883-9.276 28.746 28.746 0 0 1-6.389-21.063 28.725 28.725 0 0 1 3.257-10.738 28.728 28.728 0 0 1 7.119-8.674 28.764 28.764 0 0 1 23.854-5.975 28.743 28.743 0 0 1 14.725 7.87 28.763 28.763 0 0 1 8.423 20.336z"/><use xlink:href="#g" transform="matrix(17.97396 0 0 -17.97396 859.818 86.994)"/><use xlink:href="#h" transform="matrix(14.9759 0 0 -14.9759 873.668 91.308)"/><path d="M898.695 197.711a28.755 28.755 0 0 1-20.41 27.52 28.734 28.734 0 0 1-13.959.686 28.751 28.751 0 0 1-19.752-14.65 28.75 28.75 0 0 1-2.157-21.904 28.741 28.741 0 0 1 9.276-13.882 28.762 28.762 0 0 1 29.25-4.339 28.746 28.746 0 0 1 12.905 10.592 28.728 28.728 0 0 1 4.295 10.367 28.723 28.723 0 0 1 .552 5.61z" fill="#fff"/><path stroke-width="1.43842" fill="none" stroke="#000" d="M898.695 197.711a28.755 28.755 0 0 1-20.41 27.52 28.734 28.734 0 0 1-13.959.686 28.751 28.751 0 0 1-19.752-14.65 28.75 28.75 0 0 1-2.157-21.904 28.741 28.741 0 0 1 9.276-13.882 28.762 28.762 0 0 1 29.25-4.339 28.746 28.746 0 0 1 12.905 10.592 28.728 28.728 0 0 1 4.295 10.367 28.723 28.723 0 0 1 .552 5.61z"/><use xlink:href="#g" transform="matrix(17.97396 0 0 -17.97396 860.447 202.746)"/><use xlink:href="#i" transform="matrix(12.48112 0 0 -12.48112 873.615 206.453)"/><path stroke-width="2.15763" stroke-miterlimit="10" fill="none" stroke="#000" d="M870.297 111.801v50.252"/><path d="m870.297 166.9-3.23-6.465 3.23 1.618 3.236-1.618-3.236 6.465z"/><path stroke-width="2.15763" stroke-miterlimit="10" fill="none" stroke="#000" d="m870.297 166.9-3.23-6.465 3.23 1.618 3.236-1.618-3.236 6.465z"/><path d="M1013.733 197.711a28.71 28.71 0 0 1-2.189 11.006 28.729 28.729 0 0 1-8.325 11.225 28.739 28.739 0 0 1-12.634 5.975 28.731 28.731 0 0 1-13.958-.686 28.751 28.751 0 0 1-18.221-16.514 28.741 28.741 0 0 1-2.051-13.824 28.723 28.723 0 0 1 3.257-10.738 28.747 28.747 0 0 1 17.015-13.964 28.739 28.739 0 0 1 13.958-.685 28.724 28.724 0 0 1 10.367 4.294 28.739 28.739 0 0 1 10.592 12.906 28.721 28.721 0 0 1 2.19 11.005z" fill="#fff"/><path stroke-width="1.43842" fill="none" stroke="#000" d="M1013.733 197.711a28.71 28.71 0 0 1-2.189 11.006 28.729 28.729 0 0 1-8.325 11.225 28.739 28.739 0 0 1-12.634 5.975 28.731 28.731 0 0 1-13.958-.686 28.751 28.751 0 0 1-18.221-16.514 28.741 28.741 0 0 1-2.051-13.824 28.723 28.723 0 0 1 3.257-10.738 28.747 28.747 0 0 1 17.015-13.964 28.739 28.739 0 0 1 13.958-.685 28.724 28.724 0 0 1 10.367 4.294 28.739 28.739 0 0 1 10.592 12.906 28.721 28.721 0 0 1 2.19 11.005z"/><use xlink:href="#g" transform="matrix(17.97396 0 0 -17.97396 974.851 202.027)"/><use xlink:href="#j" transform="matrix(14.9759 0 0 -14.9759 987.956 206.553)"/><path d="M1013.733 82.68a28.71 28.71 0 0 1-2.189 11.006 28.732 28.732 0 0 1-8.325 11.225 28.734 28.734 0 0 1-12.634 5.975 28.731 28.731 0 0 1-13.958-.685 28.757 28.757 0 1 1 37.106-27.52z" fill="#fff"/><path stroke-width="1.43842" fill="none" stroke="#000" d="M1013.733 82.68a28.71 28.71 0 0 1-2.189 11.006 28.732 28.732 0 0 1-8.325 11.225 28.734 28.734 0 0 1-12.634 5.975 28.731 28.731 0 0 1-13.958-.685 28.757 28.757 0 1 1 37.106-27.52z"/><use xlink:href="#g" transform="matrix(17.97396 0 0 -17.97396 974.851 86.994)"/><use xlink:href="#k" transform="matrix(14.9759 0 0 -14.9759 988.087 91.308)"/><path stroke-width="2.15763" stroke-miterlimit="10" fill="none" stroke="#000" d="m890.636 103.372 69.224 69.232"/><path d="m963.29 176.034-6.86-2.287 3.43-1.143 1.144-3.431 2.287 6.861z"/><path stroke-width="2.15763" stroke-miterlimit="10" fill="none" stroke="#000" d="m963.29 176.034-6.86-2.287 3.43-1.143 1.144-3.431 2.287 6.861zM963.765 104.61l-67.994 67.994"/><path d="m892.34 176.034 2.288-6.861 1.143 3.43 3.43 1.144-6.86 2.287z"/><path stroke-width="2.15763" stroke-miterlimit="10" fill="none" stroke="#000" d="m892.34 176.034 2.288-6.861 1.143 3.43 3.43 1.144-6.86 2.287zM890.636 103.372l.849.849M899.058 198.07h57.515"/><path d="M873.891 116.11c0 .476-.091.935-.273 1.375a3.56 3.56 0 0 1-.78 1.166 3.561 3.561 0 0 1-1.166.78c-.44.182-.899.273-1.376.273a3.56 3.56 0 0 1-1.375-.273 3.56 3.56 0 0 1-1.166-.78 3.558 3.558 0 0 1-.78-1.166 3.556 3.556 0 0 1-.273-1.375c0-.477.09-.936.273-1.376.183-.44.442-.83.78-1.166a3.56 3.56 0 0 1 1.166-.78 3.56 3.56 0 0 1 1.375-.273c.477 0 .936.091 1.376.273.44.183.83.443 1.166.78.337.337.597.725.78 1.166.182.44.273.899.273 1.376z" fill="#fff"/><path stroke-width="2.15763" fill="none" stroke="#000" d="M873.891 116.11c0 .476-.091.935-.273 1.375a3.56 3.56 0 0 1-.78 1.166 3.561 3.561 0 0 1-1.166.78c-.44.182-.899.273-1.376.273a3.56 3.56 0 0 1-1.375-.273 3.56 3.56 0 0 1-1.166-.78 3.558 3.558 0 0 1-.78-1.166 3.556 3.556 0 0 1-.273-1.375c0-.477.09-.936.273-1.376.183-.44.442-.83.78-1.166a3.56 3.56 0 0 1 1.166-.78 3.56 3.56 0 0 1 1.375-.273c.477 0 .936.091 1.376.273.44.183.83.443 1.166.78.337.337.597.725.78 1.166.182.44.273.899.273 1.376z"/><path d="M897.618 106.048c0 .476-.091.935-.274 1.375-.182.44-.442.83-.779 1.167a3.561 3.561 0 0 1-1.166.779c-.44.182-.899.274-1.376.274a3.56 3.56 0 0 1-1.375-.274 3.56 3.56 0 0 1-1.166-.78 3.56 3.56 0 0 1-.78-1.166 3.562 3.562 0 0 1-.273-1.375c0-.477.09-.936.273-1.376.183-.44.442-.83.78-1.166a3.56 3.56 0 0 1 1.166-.78 3.56 3.56 0 0 1 1.375-.273c.477 0 .936.091 1.376.274.44.182.83.442 1.166.779.337.337.597.726.78 1.166.182.44.273.9.273 1.376z" fill="#fff"/><path stroke-width="2.15763" fill="none" stroke="#000" d="M897.618 106.048c0 .476-.091.935-.274 1.375-.182.44-.442.83-.779 1.167a3.561 3.561 0 0 1-1.166.779c-.44.182-.899.274-1.376.274a3.56 3.56 0 0 1-1.375-.274 3.56 3.56 0 0 1-1.166-.78 3.56 3.56 0 0 1-.78-1.166 3.562 3.562 0 0 1-.273-1.375c0-.477.09-.936.273-1.376.183-.44.442-.83.78-1.166a3.56 3.56 0 0 1 1.166-.78 3.56 3.56 0 0 1 1.375-.273c.477 0 .936.091 1.376.274.44.182.83.442 1.166.779.337.337.597.726.78 1.166.182.44.273.9.273 1.376z"/><path d="M965.202 106.048c0 .476-.09.935-.273 1.375-.183.44-.442.83-.78 1.167a3.561 3.561 0 0 1-1.166.779 3.56 3.56 0 0 1-1.375.274c-.477 0-.936-.092-1.376-.274a3.56 3.56 0 0 1-1.166-.78 3.561 3.561 0 0 1-.78-1.166 3.561 3.561 0 0 1-.273-1.375c0-.477.091-.936.273-1.376.183-.44.443-.83.78-1.166a3.56 3.56 0 0 1 1.166-.78c.44-.182.899-.273 1.376-.273.476 0 .935.091 1.375.274.44.182.83.442 1.167.779.337.337.596.726.779 1.166.182.44.273.9.273 1.376z" fill="#fff"/><path stroke-width="2.15763" fill="none" stroke="#000" d="M965.202 106.048c0 .476-.09.935-.273 1.375-.183.44-.442.83-.78 1.167a3.561 3.561 0 0 1-1.166.779 3.56 3.56 0 0 1-1.375.274c-.477 0-.936-.092-1.376-.274a3.56 3.56 0 0 1-1.166-.78 3.561 3.561 0 0 1-.78-1.166 3.561 3.561 0 0 1-.273-1.375c0-.477.091-.936.273-1.376.183-.44.443-.83.78-1.166a3.56 3.56 0 0 1 1.166-.78c.44-.182.899-.273 1.376-.273.476 0 .935.091 1.375.274.44.182.83.442 1.167.779.337.337.596.726.779 1.166.182.44.273.9.273 1.376z"/><path d="M988.93 116.11c0 .476-.092.935-.274 1.375-.183.44-.443.83-.78 1.166a3.56 3.56 0 0 1-1.166.78 3.56 3.56 0 0 1-1.375.273c-.477 0-.936-.09-1.376-.273a3.56 3.56 0 0 1-1.167-.78 3.562 3.562 0 0 1-.779-1.166 3.558 3.558 0 0 1-.273-1.375c0-.477.09-.936.273-1.376.183-.44.442-.83.78-1.166a3.56 3.56 0 0 1 1.166-.78c.44-.182.899-.273 1.376-.273.476 0 .935.091 1.375.273.44.183.83.443 1.166.78.337.337.597.725.78 1.166.182.44.273.899.273 1.376z" fill="#fff"/><path stroke-width="2.15763" fill="none" stroke="#000" d="M988.93 116.11c0 .476-.092.935-.274 1.375-.183.44-.443.83-.78 1.166a3.56 3.56 0 0 1-1.166.78 3.56 3.56 0 0 1-1.375.273c-.477 0-.936-.09-1.376-.273a3.56 3.56 0 0 1-1.167-.78 3.562 3.562 0 0 1-.779-1.166 3.558 3.558 0 0 1-.273-1.375c0-.477.09-.936.273-1.376.183-.44.442-.83.78-1.166a3.56 3.56 0 0 1 1.166-.78c.44-.182.899-.273 1.376-.273.476 0 .935.091 1.375.273.44.183.83.443 1.166.78.337.337.597.725.78 1.166.182.44.273.899.273 1.376z"/><symbol id="m"><path d="M.439.676V.15c0-.035 0-.056.003-.063A.04.04 0 0 1 .457.063a.08.08 0 0 1 .038-.01V.039L.302 0v.072A.238.238 0 0 0 .24.015.122.122 0 0 0 .18 0 .157.157 0 0 0 .04.078.281.281 0 0 0 0 .234c0 .049.008.093.025.132.017.039.04.068.07.088.03.02.061.03.095.03A.128.128 0 0 0 .248.47.195.195 0 0 0 .302.427v.137a.246.246 0 0 1-.004.063.042.042 0 0 1-.018.021.097.097 0 0 1-.044.007v.02H.44M.302.367C.278.412.25.436.214.436a.045.045 0 0 1-.03-.01.111.111 0 0 1-.03-.053.445.445 0 0 1-.01-.117c0-.058.003-.1.012-.128A.124.124 0 0 1 .19.068a.047.047 0 0 1 .031-.01c.029 0 .056.023.081.068v.24z"/></symbol><use xlink:href="#c" transform="matrix(20.8498 0 0 -20.8498 855.07 30.057)"/><use xlink:href="#m" transform="matrix(20.8498 0 0 -20.8498 861.982 26.168)"/><use xlink:href="#e" transform="matrix(20.8498 0 0 -20.8498 873.025 30.057)"/><use xlink:href="#f" transform="matrix(20.8498 0 0 -20.8498 879.714 25.883)"/><path stroke-width="2.15763" stroke-miterlimit="10" fill="none" stroke="#000" d="m57.544 173.963 66.988-71.31M30.56 118.986l-.72 41.7"/><symbol id="n"><path d="M.24.074C.186.024.136 0 .09 0A.087.087 0 0 0 0 .09c0 .035.015.066.045.094.03.028.095.065.196.11v.047a.21.21 0 0 1-.006.065.05.05 0 0 1-.021.023.063.063 0 0 1-.035.01.09.09 0 0 1-.053-.014C.118.42.114.413.114.405c0-.007.004-.016.013-.026C.14.365.146.352.146.34A.054.054 0 0 0 .128.298.065.065 0 0 0 .082.28.075.075 0 0 0 .03.3a.057.057 0 0 0-.02.043.1.1 0 0 0 .027.067.175.175 0 0 0 .078.05.317.317 0 0 0 .103.017c.044 0 .078-.01.103-.028a.128.128 0 0 0 .05-.06.388.388 0 0 0 .006-.094V.118c0-.021 0-.034.002-.04A.023.023 0 0 1 .387.066a.017.017 0 0 1 .01-.004c.01 0 .018.007.027.019L.438.069a.18.18 0 0 0-.05-.053A.11.11 0 0 0 .328 0a.093.093 0 0 0-.06.018.084.084 0 0 0-.027.056m0 .035v.153A.285.285 0 0 1 .153.188a.09.09 0 0 1-.02-.053C.134.12.14.107.15.095A.044.044 0 0 1 .184.082C.2.082.22.092.241.109z"/></symbol><use xlink:href="#c" transform="matrix(20.8498 0 0 -20.8498 8.72 30.057)"/><use xlink:href="#n" transform="matrix(20.8498 0 0 -20.8498 15.766 26.015)"/><use xlink:href="#e" transform="matrix(20.8498 0 0 -20.8498 25.508 30.057)"/><use xlink:href="#f" transform="matrix(20.8498 0 0 -20.8498 32.197 25.883)"/><path d="M58.239 81.961a28.74 28.74 0 0 1-3.396 13.557 28.74 28.74 0 0 1-9.385 10.355 28.735 28.735 0 0 1-13.159 4.708 28.742 28.742 0 0 1-16.375-3.257 28.736 28.736 0 0 1-10.355-9.385A28.74 28.74 0 0 1 .86 84.78a28.74 28.74 0 0 1 3.257-16.375 28.742 28.742 0 0 1 11.806-11.806 28.742 28.742 0 0 1 16.375-3.257 28.74 28.74 0 0 1 13.159 4.708A28.741 28.741 0 0 1 56.05 70.956a28.74 28.74 0 0 1 2.189 11.005z" fill="#fff"/><path stroke-width="1.43842" fill="none" stroke="#000" d="M58.239 81.961a28.74 28.74 0 0 1-3.396 13.557 28.74 28.74 0 0 1-9.385 10.355 28.735 28.735 0 0 1-13.159 4.708 28.742 28.742 0 0 1-16.375-3.257 28.736 28.736 0 0 1-10.355-9.385A28.74 28.74 0 0 1 .86 84.78a28.74 28.74 0 0 1 3.257-16.375 28.742 28.742 0 0 1 11.806-11.806 28.742 28.742 0 0 1 16.375-3.257 28.74 28.74 0 0 1 13.159 4.708A28.741 28.741 0 0 1 56.05 70.956a28.74 28.74 0 0 1 2.189 11.005z"/><use xlink:href="#g" transform="matrix(17.97396 0 0 -17.97396 19.355 86.275)"/><use xlink:href="#h" transform="matrix(14.9759 0 0 -14.9759 33.206 90.589)"/><path d="M58.239 196.992a28.739 28.739 0 0 1-3.396 13.557 28.741 28.741 0 0 1-9.385 10.355 28.74 28.74 0 0 1-15.978 4.846 28.741 28.741 0 0 1-15.977-4.846 28.74 28.74 0 0 1-9.385-10.355A28.744 28.744 0 0 1 .86 194.173a28.743 28.743 0 0 1 6.389-15.425 28.745 28.745 0 0 1 13.882-9.276 28.744 28.744 0 0 1 16.697 0 28.74 28.74 0 0 1 11.987 7.185 28.744 28.744 0 0 1 7.87 14.725 28.745 28.745 0 0 1 .553 5.61z" fill="#fff"/><path stroke-width="1.43842" fill="none" stroke="#000" d="M58.239 196.992a28.739 28.739 0 0 1-3.396 13.557 28.741 28.741 0 0 1-9.385 10.355 28.74 28.74 0 0 1-15.978 4.846 28.741 28.741 0 0 1-15.977-4.846 28.74 28.74 0 0 1-9.385-10.355A28.744 28.744 0 0 1 .86 194.173a28.743 28.743 0 0 1 6.389-15.425 28.745 28.745 0 0 1 13.882-9.276 28.744 28.744 0 0 1 16.697 0 28.74 28.74 0 0 1 11.987 7.185 28.744 28.744 0 0 1 7.87 14.725 28.745 28.745 0 0 1 .553 5.61z"/><use xlink:href="#g" transform="matrix(17.97396 0 0 -17.97396 19.984 202.027)"/><use xlink:href="#i" transform="matrix(12.48112 0 0 -12.48112 33.152 205.734)"/><path d="M173.27 196.992a28.741 28.741 0 0 1-4.847 15.977 28.733 28.733 0 0 1-10.355 9.386 28.74 28.74 0 0 1-13.557 3.395 28.741 28.741 0 0 1-15.977-4.846 28.738 28.738 0 0 1-9.385-10.355 28.748 28.748 0 0 1-2.844-19.167 28.742 28.742 0 0 1 7.871-14.725 28.741 28.741 0 0 1 11.987-7.185 28.745 28.745 0 0 1 16.696 0 28.737 28.737 0 0 1 11.987 7.185 28.741 28.741 0 0 1 7.871 14.725 28.74 28.74 0 0 1 .553 5.61z" fill="#fff"/><path stroke-width="1.43842" fill="none" stroke="#000" d="M173.27 196.992a28.741 28.741 0 0 1-4.847 15.977 28.733 28.733 0 0 1-10.355 9.386 28.74 28.74 0 0 1-13.557 3.395 28.741 28.741 0 0 1-15.977-4.846 28.738 28.738 0 0 1-9.385-10.355 28.748 28.748 0 0 1-2.844-19.167 28.742 28.742 0 0 1 7.871-14.725 28.741 28.741 0 0 1 11.987-7.185 28.745 28.745 0 0 1 16.696 0 28.737 28.737 0 0 1 11.987 7.185 28.741 28.741 0 0 1 7.871 14.725 28.74 28.74 0 0 1 .553 5.61z"/><use xlink:href="#g" transform="matrix(17.97396 0 0 -17.97396 134.388 201.308)"/><use xlink:href="#j" transform="matrix(14.9759 0 0 -14.9759 147.493 205.834)"/><path stroke-width="2.15763" stroke-miterlimit="10" fill="none" stroke="#000" d="M58.594 197.352h57.516"/><path d="M173.27 81.961a28.742 28.742 0 0 1-4.847 15.978 28.738 28.738 0 0 1-10.355 9.385 28.743 28.743 0 0 1-16.376 3.257 28.742 28.742 0 0 1-15.425-6.39 28.741 28.741 0 0 1-9.276-13.882 28.742 28.742 0 0 1 0-16.696 28.738 28.738 0 0 1 7.185-11.987 28.741 28.741 0 0 1 14.725-7.87 28.738 28.738 0 0 1 13.958.685 28.737 28.737 0 0 1 11.987 7.185 28.738 28.738 0 0 1 7.185 11.987 28.736 28.736 0 0 1 1.239 8.348z" fill="#fff"/><path stroke-width="1.43842" fill="none" stroke="#000" d="M173.27 81.961a28.742 28.742 0 0 1-4.847 15.978 28.738 28.738 0 0 1-10.355 9.385 28.743 28.743 0 0 1-16.376 3.257 28.742 28.742 0 0 1-15.425-6.39 28.741 28.741 0 0 1-9.276-13.882 28.742 28.742 0 0 1 0-16.696 28.738 28.738 0 0 1 7.185-11.987 28.741 28.741 0 0 1 14.725-7.87 28.738 28.738 0 0 1 13.958.685 28.737 28.737 0 0 1 11.987 7.185 28.738 28.738 0 0 1 7.185 11.987 28.736 28.736 0 0 1 1.239 8.348z"/><use xlink:href="#g" transform="matrix(17.97396 0 0 -17.97396 134.388 86.275)"/><use xlink:href="#k" transform="matrix(14.9759 0 0 -14.9759 147.625 90.589)"/><path d="M34.154 115.39c0 .477-.091.936-.274 1.376a3.56 3.56 0 0 1-.779 1.166 3.56 3.56 0 0 1-1.166.78 3.56 3.56 0 0 1-1.376.273 3.56 3.56 0 0 1-1.375-.274 3.56 3.56 0 0 1-1.167-.779 3.56 3.56 0 0 1-.779-1.166 3.56 3.56 0 0 1-.273-1.376c0-.476.09-.935.273-1.375.183-.44.442-.83.78-1.167a3.56 3.56 0 0 1 1.166-.779 3.56 3.56 0 0 1 1.375-.273c.477 0 .936.09 1.376.273.44.183.83.442 1.166.78.337.337.597.725.78 1.166.182.44.273.899.273 1.375z" fill="#fff"/><path stroke-width="2.15763" fill="none" stroke="#000" d="M34.154 115.39c0 .477-.091.936-.274 1.376a3.56 3.56 0 0 1-.779 1.166 3.56 3.56 0 0 1-1.166.78 3.56 3.56 0 0 1-1.376.273 3.56 3.56 0 0 1-1.375-.274 3.56 3.56 0 0 1-1.167-.779 3.56 3.56 0 0 1-.779-1.166 3.56 3.56 0 0 1-.273-1.376c0-.476.09-.935.273-1.375.183-.44.442-.83.78-1.167a3.56 3.56 0 0 1 1.166-.779 3.56 3.56 0 0 1 1.375-.273c.477 0 .936.09 1.376.273.44.183.83.442 1.166.78.337.337.597.725.78 1.166.182.44.273.899.273 1.375z"/><path d="M33.435 164.282c0 .477-.091.936-.274 1.376a3.56 3.56 0 0 1-.779 1.166 3.56 3.56 0 0 1-1.166.78 3.56 3.56 0 0 1-1.376.273 3.56 3.56 0 0 1-1.376-.274 3.56 3.56 0 0 1-1.166-.779 3.56 3.56 0 0 1-.78-1.166 3.56 3.56 0 0 1-.273-1.376c0-.476.092-.935.274-1.375.182-.44.442-.83.78-1.167a3.56 3.56 0 0 1 1.165-.779 3.56 3.56 0 0 1 1.376-.273c.477 0 .935.09 1.376.273.44.183.829.442 1.166.78.337.337.597.725.78 1.166.182.44.273.899.273 1.375z" fill="#fff"/><path stroke-width="2.15763" fill="none" stroke="#000" d="M33.435 164.282c0 .477-.091.936-.274 1.376a3.56 3.56 0 0 1-.779 1.166 3.56 3.56 0 0 1-1.166.78 3.56 3.56 0 0 1-1.376.273 3.56 3.56 0 0 1-1.376-.274 3.56 3.56 0 0 1-1.166-.779 3.56 3.56 0 0 1-.78-1.166 3.56 3.56 0 0 1-.273-1.376c0-.476.092-.935.274-1.375.182-.44.442-.83.78-1.167a3.56 3.56 0 0 1 1.165-.779 3.56 3.56 0 0 1 1.376-.273c.477 0 .935.09 1.376.273.44.183.829.442 1.166.78.337.337.597.725.78 1.166.182.44.273.899.273 1.375z"/><path d="M66.504 82.321c0 .477-.091.935-.273 1.376a3.56 3.56 0 0 1-.78 1.166 3.56 3.56 0 0 1-1.166.78 3.56 3.56 0 0 1-1.376.273 3.56 3.56 0 0 1-1.375-.274 3.56 3.56 0 0 1-1.166-.78 3.56 3.56 0 0 1-.78-1.165 3.56 3.56 0 0 1-.273-1.376c0-.477.09-.935.273-1.376.183-.44.442-.829.78-1.166a3.56 3.56 0 0 1 1.166-.78 3.56 3.56 0 0 1 1.375-.273c.477 0 .936.091 1.376.274.44.182.83.442 1.166.78.337.336.597.725.78 1.165.182.44.273.9.273 1.376z" fill="#fff"/><path stroke-width="2.15763" fill="none" stroke="#000" d="M66.504 82.321c0 .477-.091.935-.273 1.376a3.56 3.56 0 0 1-.78 1.166 3.56 3.56 0 0 1-1.166.78 3.56 3.56 0 0 1-1.376.273 3.56 3.56 0 0 1-1.375-.274 3.56 3.56 0 0 1-1.166-.78 3.56 3.56 0 0 1-.78-1.165 3.56 3.56 0 0 1-.273-1.376c0-.477.09-.935.273-1.376.183-.44.442-.829.78-1.166a3.56 3.56 0 0 1 1.166-.78 3.56 3.56 0 0 1 1.375-.273c.477 0 .936.091 1.376.274.44.182.83.442 1.166.78.337.336.597.725.78 1.165.182.44.273.9.273 1.376z"/><path d="M115.396 82.321c0 .477-.091.935-.273 1.376a3.56 3.56 0 0 1-.78 1.166 3.56 3.56 0 0 1-1.166.78 3.56 3.56 0 0 1-1.376.273 3.56 3.56 0 0 1-1.375-.274 3.56 3.56 0 0 1-1.166-.78 3.56 3.56 0 0 1-.78-1.165 3.56 3.56 0 0 1-.273-1.376c0-.477.09-.935.273-1.376.183-.44.442-.829.78-1.166a3.56 3.56 0 0 1 1.166-.78 3.56 3.56 0 0 1 1.375-.273c.477 0 .936.091 1.376.274.44.182.83.442 1.166.78.337.336.597.725.78 1.165.182.44.273.9.273 1.376z" fill="#fff"/><path stroke-width="2.15763" fill="none" stroke="#000" d="M115.396 82.321c0 .477-.091.935-.273 1.376a3.56 3.56 0 0 1-.78 1.166 3.56 3.56 0 0 1-1.166.78 3.56 3.56 0 0 1-1.376.273 3.56 3.56 0 0 1-1.375-.274 3.56 3.56 0 0 1-1.166-.78 3.56 3.56 0 0 1-.78-1.165 3.56 3.56 0 0 1-.273-1.376c0-.477.09-.935.273-1.376.183-.44.442-.829.78-1.166a3.56 3.56 0 0 1 1.166-.78 3.56 3.56 0 0 1 1.375-.273c.477 0 .936.091 1.376.274.44.182.83.442 1.166.78.337.336.597.725.78 1.165.182.44.273.9.273 1.376z"/><path d="M66.504 197.352c0 .476-.091.935-.273 1.375a3.56 3.56 0 0 1-.78 1.167 3.56 3.56 0 0 1-1.166.779 3.56 3.56 0 0 1-1.376.274c-.476 0-.935-.092-1.375-.274a3.561 3.561 0 0 1-1.166-.78 3.56 3.56 0 0 1-.78-1.166 3.56 3.56 0 0 1-.273-1.375c0-.477.09-.936.273-1.376.183-.44.442-.83.78-1.166a3.56 3.56 0 0 1 1.166-.78 3.56 3.56 0 0 1 1.375-.273c.477 0 .936.091 1.376.274.44.182.83.442 1.166.779.337.337.597.726.78 1.166.182.44.273.899.273 1.376z" fill="#fff"/><path stroke-width="2.15763" fill="none" stroke="#000" d="M66.504 197.352c0 .476-.091.935-.273 1.375a3.56 3.56 0 0 1-.78 1.167 3.56 3.56 0 0 1-1.166.779 3.56 3.56 0 0 1-1.376.274c-.476 0-.935-.092-1.375-.274a3.561 3.561 0 0 1-1.166-.78 3.56 3.56 0 0 1-.78-1.166 3.56 3.56 0 0 1-.273-1.375c0-.477.09-.936.273-1.376.183-.44.442-.83.78-1.166a3.56 3.56 0 0 1 1.166-.78 3.56 3.56 0 0 1 1.375-.273c.477 0 .936.091 1.376.274.44.182.83.442 1.166.779.337.337.597.726.78 1.166.182.44.273.899.273 1.376z"/><path d="M115.396 197.352c0 .476-.091.935-.273 1.375a3.56 3.56 0 0 1-.78 1.167 3.56 3.56 0 0 1-1.166.779 3.56 3.56 0 0 1-1.376.274c-.476 0-.935-.092-1.375-.274a3.56 3.56 0 0 1-1.166-.78 3.56 3.56 0 0 1-.78-1.166 3.56 3.56 0 0 1-.273-1.375c0-.477.09-.936.273-1.376.183-.44.442-.83.78-1.166a3.56 3.56 0 0 1 1.166-.78 3.56 3.56 0 0 1 1.375-.273c.477 0 .936.091 1.376.274.44.182.83.442 1.166.779.337.337.597.726.78 1.166.182.44.273.899.273 1.376z" fill="#fff"/><path stroke-width="2.15763" fill="none" stroke="#000" d="M115.396 197.352c0 .476-.091.935-.273 1.375a3.56 3.56 0 0 1-.78 1.167 3.56 3.56 0 0 1-1.166.779 3.56 3.56 0 0 1-1.376.274c-.476 0-.935-.092-1.375-.274a3.56 3.56 0 0 1-1.166-.78 3.56 3.56 0 0 1-.78-1.166 3.56 3.56 0 0 1-.273-1.375c0-.477.09-.936.273-1.376.183-.44.442-.83.78-1.166a3.56 3.56 0 0 1 1.166-.78 3.56 3.56 0 0 1 1.375-.273c.477 0 .936.091 1.376.274.44.182.83.442 1.166.779.337.337.597.726.78 1.166.182.44.273.899.273 1.376z"/><path d="M148.466 115.39c0 .477-.092.936-.274 1.376a3.56 3.56 0 0 1-.78 1.166 3.56 3.56 0 0 1-1.166.78 3.56 3.56 0 0 1-1.375.273 3.56 3.56 0 0 1-1.376-.274 3.56 3.56 0 0 1-1.166-.779 3.56 3.56 0 0 1-.78-1.166 3.56 3.56 0 0 1-.273-1.376c0-.476.091-.935.274-1.375.182-.44.442-.83.779-1.167a3.56 3.56 0 0 1 1.166-.779 3.56 3.56 0 0 1 1.376-.273c.477 0 .935.09 1.375.273.44.183.83.442 1.167.78.337.337.597.725.779 1.166.182.44.274.899.274 1.375z" fill="#fff"/><path stroke-width="2.15763" fill="none" stroke="#000" d="M148.466 115.39c0 .477-.092.936-.274 1.376a3.56 3.56 0 0 1-.78 1.166 3.56 3.56 0 0 1-1.166.78 3.56 3.56 0 0 1-1.375.273 3.56 3.56 0 0 1-1.376-.274 3.56 3.56 0 0 1-1.166-.779 3.56 3.56 0 0 1-.78-1.166 3.56 3.56 0 0 1-.273-1.376c0-.476.091-.935.274-1.375.182-.44.442-.83.779-1.167a3.56 3.56 0 0 1 1.166-.779 3.56 3.56 0 0 1 1.376-.273c.477 0 .935.09 1.375.273.44.183.83.442 1.167.78.337.337.597.725.779 1.166.182.44.274.899.274 1.375z"/><path d="M148.466 164.282c0 .477-.092.936-.274 1.376a3.56 3.56 0 0 1-.78 1.166 3.56 3.56 0 0 1-1.166.78 3.56 3.56 0 0 1-1.375.273 3.56 3.56 0 0 1-1.376-.274 3.56 3.56 0 0 1-1.166-.779 3.56 3.56 0 0 1-.78-1.166 3.56 3.56 0 0 1-.273-1.376c0-.476.091-.935.274-1.375.182-.44.442-.83.779-1.167a3.56 3.56 0 0 1 1.166-.779 3.56 3.56 0 0 1 1.376-.273c.477 0 .935.09 1.375.273.44.183.83.442 1.167.78.337.337.597.725.779 1.166.182.44.274.899.274 1.375z" fill="#fff"/><path stroke-width="2.15763" fill="none" stroke="#000" d="M148.466 164.282c0 .477-.092.936-.274 1.376a3.56 3.56 0 0 1-.78 1.166 3.56 3.56 0 0 1-1.166.78 3.56 3.56 0 0 1-1.375.273 3.56 3.56 0 0 1-1.376-.274 3.56 3.56 0 0 1-1.166-.779 3.56 3.56 0 0 1-.78-1.166 3.56 3.56 0 0 1-.273-1.376c0-.476.091-.935.274-1.375.182-.44.442-.83.779-1.167a3.56 3.56 0 0 1 1.166-.779 3.56 3.56 0 0 1 1.376-.273c.477 0 .935.09 1.375.273.44.183.83.442 1.167.78.337.337.597.725.779 1.166.182.44.274.899.274 1.375z"/><path stroke-width="2.15763" stroke-miterlimit="10" fill="none" stroke="#000" d="M66.506 82.321h41.7"/><path d="M57.155 105.329c0 .476-.092.935-.274 1.375-.183.44-.442.83-.78 1.166a3.56 3.56 0 0 1-1.166.78 3.56 3.56 0 0 1-1.375.273 3.56 3.56 0 0 1-1.376-.273 3.56 3.56 0 0 1-1.166-.78 3.56 3.56 0 0 1-.78-1.166 3.56 3.56 0 0 1-.273-1.375c0-.477.091-.936.274-1.376.182-.44.442-.83.779-1.166a3.56 3.56 0 0 1 1.166-.78 3.56 3.56 0 0 1 1.376-.273c.476 0 .935.091 1.375.273.44.183.83.443 1.167.78.337.337.596.725.779 1.166.182.44.273.899.274 1.376z" fill="#fff"/><path stroke-width="2.15763" fill="none" stroke="#000" d="M57.155 105.329c0 .476-.092.935-.274 1.375-.183.44-.442.83-.78 1.166a3.56 3.56 0 0 1-1.166.78 3.56 3.56 0 0 1-1.375.273 3.56 3.56 0 0 1-1.376-.273 3.56 3.56 0 0 1-1.166-.78 3.56 3.56 0 0 1-.78-1.166 3.56 3.56 0 0 1-.273-1.375c0-.477.091-.936.274-1.376.182-.44.442-.83.779-1.166a3.56 3.56 0 0 1 1.166-.78 3.56 3.56 0 0 1 1.376-.273c.476 0 .935.091 1.375.273.44.183.83.443 1.167.78.337.337.596.725.779 1.166.182.44.273.899.274 1.376z"/><path d="M122.581 176.502c0 .476-.091.935-.273 1.375a3.56 3.56 0 0 1-.78 1.167 3.56 3.56 0 0 1-1.166.779 3.56 3.56 0 0 1-1.376.274c-.476 0-.935-.092-1.375-.274a3.56 3.56 0 0 1-1.167-.78 3.56 3.56 0 0 1-.779-1.166 3.56 3.56 0 0 1-.273-1.375c0-.477.09-.936.273-1.376.183-.44.442-.83.78-1.166a3.56 3.56 0 0 1 1.166-.78c.44-.182.899-.273 1.375-.273.477 0 .936.091 1.376.274.44.182.83.442 1.166.779.337.337.597.726.78 1.166.182.44.273.9.273 1.376z" fill="#fff"/><path stroke-width="2.15763" fill="none" stroke="#000" d="M122.581 176.502c0 .476-.091.935-.273 1.375a3.56 3.56 0 0 1-.78 1.167 3.56 3.56 0 0 1-1.166.779 3.56 3.56 0 0 1-1.376.274c-.476 0-.935-.092-1.375-.274a3.56 3.56 0 0 1-1.167-.78 3.56 3.56 0 0 1-.779-1.166 3.56 3.56 0 0 1-.273-1.375c0-.477.09-.936.273-1.376.183-.44.442-.83.78-1.166a3.56 3.56 0 0 1 1.166-.78c.44-.182.899-.273 1.375-.273.477 0 .936.091 1.376.274.44.182.83.442 1.166.779.337.337.597.726.78 1.166.182.44.273.9.273 1.376z"/><path d="M58.593 176.502c0 .476-.091.935-.274 1.375a3.56 3.56 0 0 1-.779 1.167 3.56 3.56 0 0 1-1.166.779 3.56 3.56 0 0 1-1.376.274c-.477 0-.935-.092-1.376-.274a3.56 3.56 0 0 1-1.166-.78 3.56 3.56 0 0 1-.779-1.166 3.56 3.56 0 0 1-.274-1.375c0-.477.092-.936.274-1.376.182-.44.442-.83.78-1.166a3.56 3.56 0 0 1 1.165-.78c.44-.182.9-.273 1.376-.273.477 0 .935.091 1.376.274.44.182.829.442 1.166.779.337.337.597.726.78 1.166.182.44.273.9.273 1.376z" fill="#fff"/><path stroke-width="2.15763" fill="none" stroke="#000" d="M58.593 176.502c0 .476-.091.935-.274 1.375a3.56 3.56 0 0 1-.779 1.167 3.56 3.56 0 0 1-1.166.779 3.56 3.56 0 0 1-1.376.274c-.477 0-.935-.092-1.376-.274a3.56 3.56 0 0 1-1.166-.78 3.56 3.56 0 0 1-.779-1.166 3.56 3.56 0 0 1-.274-1.375c0-.477.092-.936.274-1.376.182-.44.442-.83.78-1.166a3.56 3.56 0 0 1 1.165-.78c.44-.182.9-.273 1.376-.273.477 0 .935.091 1.376.274.44.182.829.442 1.166.779.337.337.597.726.78 1.166.182.44.273.9.273 1.376z"/><path d="M124.739 105.329c0 .476-.091.935-.274 1.375-.182.44-.442.83-.78 1.166a3.56 3.56 0 0 1-1.165.78 3.56 3.56 0 0 1-1.376.273 3.56 3.56 0 0 1-1.376-.273 3.56 3.56 0 0 1-1.166-.78 3.56 3.56 0 0 1-.78-1.166 3.56 3.56 0 0 1-.273-1.375c0-.477.091-.936.274-1.376.182-.44.442-.83.78-1.166a3.56 3.56 0 0 1 1.165-.78 3.56 3.56 0 0 1 1.376-.273c.477 0 .935.091 1.376.273.44.183.829.443 1.166.78.337.337.597.725.78 1.166.182.44.273.899.273 1.376z" fill="#fff"/><path stroke-width="2.15763" fill="none" stroke="#000" d="M124.739 105.329c0 .476-.091.935-.274 1.375-.182.44-.442.83-.78 1.166a3.56 3.56 0 0 1-1.165.78 3.56 3.56 0 0 1-1.376.273 3.56 3.56 0 0 1-1.376-.273 3.56 3.56 0 0 1-1.166-.78 3.56 3.56 0 0 1-.78-1.166 3.56 3.56 0 0 1-.273-1.375c0-.477.091-.936.274-1.376.182-.44.442-.83.78-1.166a3.56 3.56 0 0 1 1.165-.78 3.56 3.56 0 0 1 1.376-.273c.477 0 .935.091 1.376.273.44.183.829.443 1.166.78.337.337.597.725.78 1.166.182.44.273.899.273 1.376z"/><path stroke-width="2.15763" stroke-miterlimit="10" fill="none" stroke="#000" d="m56.106 107.867 60.342 66.096M144.87 118.986v41.7"/></g></svg>