<svg xmlns="http://www.w3.org/2000/svg" xmlns:xlink="http://www.w3.org/1999/xlink" width="1173.44" height="792" viewBox="0 0 880.08 594"><clipPath id="a"><path transform="scale(.24)" d="M0 0h3666.667v2467.43H0z" fill-rule="evenodd"/></clipPath><g clip-path="url(#a)"><path d="M152.183 239.967v-27.702c0-15.11-7.555-22.666-22.665-22.666H23.745c-15.11 0-22.666 7.556-22.666 22.666v27.702" fill="#fff"/><path stroke-miterlimit="10" fill="none" stroke="#000" d="M152.183 239.967v-27.702c0-15.11-7.555-22.666-22.665-22.666H23.745c-15.11 0-22.666 7.556-22.666 22.666v27.702M1.08 239.967v142.83c0 15.11 7.555 22.665 22.665 22.665h105.773c15.11 0 22.665-7.555 22.665-22.666V239.967M1.08 239.967h151.103" stroke-width=".71954"/><symbol id="b"><path d="M.396.692V.463H.378a.282.282 0 0 1-.032.105.179.179 0 0 1-.151.085.118.118 0 0 1-.084-.03.094.094 0 0 1-.033-.071c0-.02.007-.039.02-.055A.54.54 0 0 1 .244.399.951.951 0 0 0 .369.322.18.18 0 0 0 .44.184C.44.134.42.091.382.054A.211.211 0 0 0 .231 0a.318.318 0 0 0-.117.022.275.275 0 0 1-.06.016.026.026 0 0 1-.02-.008C.03.025.028.015.025 0H.006v.227h.018A.324.324 0 0 1 .06.12.165.165 0 0 1 .124.062.205.205 0 0 1 .221.038c.04 0 .073.01.096.032a.1.1 0 0 1 .036.076.102.102 0 0 1-.014.05.144.144 0 0 1-.041.046C.285.252.25.272.194.304A1.047 1.047 0 0 0 .073.38a.206.206 0 0 0-.054.063.162.162 0 0 0 .036.198.194.194 0 0 0 .139.051.28.28 0 0 0 .112-.025.115.115 0 0 1 .038-.013c.009 0 .016.003.02.008.006.005.01.015.014.03h.018z"/></symbol><symbol id="c"><path d="M.151.602V.455h.105V.42H.15V.13c0-.029.004-.048.013-.058A.04.04 0 0 1 .196.057c.01 0 .021.003.031.01.01.006.018.016.023.03h.02A.155.155 0 0 0 .22.023.105.105 0 0 0 .157 0a.088.088 0 0 0-.044.012.077.077 0 0 0-.032.036.19.19 0 0 0-.01.072v.3H0v.017c.018.007.036.019.055.036a.29.29 0 0 1 .081.129h.015z"/></symbol><symbol id="d"><path d="M.249.074A.737.737 0 0 0 .163.012.132.132 0 0 0 .106 0C.076 0 .05.01.03.032A.117.117 0 0 0 0 .115c0 .022.005.04.015.057a.194.194 0 0 0 .069.062c.033.02.088.044.165.072v.017c0 .045-.007.075-.021.092C.214.432.193.44.166.44A.07.07 0 0 1 .117.423.05.05 0 0 1 .1.385V.357C.1.342.097.33.089.322A.039.039 0 0 0 .058.31a.039.039 0 0 0-.03.013.05.05 0 0 0-.01.034c0 .028.013.054.042.078A.186.186 0 0 0 .18.47.21.21 0 0 0 .279.45.092.092 0 0 0 .321.402.267.267 0 0 0 .33.316V.165c0-.043 0-.07.002-.08C.334.077.336.07.34.068A.02.02 0 0 1 .353.062c.005 0 .01.001.014.003l.04.036V.074C.37.024.334 0 .301 0a.047.047 0 0 0-.038.017C.254.028.249.047.249.074m0 .031v.17a.964.964 0 0 1-.095-.04.164.164 0 0 1-.055-.046.087.087 0 0 1-.017-.05c0-.024.007-.044.021-.06A.064.064 0 0 1 .151.058C.176.057.21.073.25.105z"/></symbol><symbol id="e"><path d="M.116.694A.046.046 0 0 0 .15.68.046.046 0 0 0 .165.645.048.048 0 0 0 .15.61.046.046 0 0 0 .116.595.048.048 0 0 0 .08.61a.048.048 0 0 0-.015.035C.066.659.07.67.08.68c.01.01.022.014.036.014M.156.46V.101c0-.028.002-.047.006-.056A.045.045 0 0 1 .18.025.098.098 0 0 1 .224.017V0H.007v.018C.029.018.043.02.05.024a.042.042 0 0 1 .017.02c.005.01.007.03.007.057v.172a.61.61 0 0 1-.004.095C.069.378.065.385.06.389A.03.03 0 0 1 .04.396.098.098 0 0 1 .007.388L0 .406.135.46h.021z"/></symbol><symbol id="f"><path d="M.271.474V.322H.255C.243.37.227.402.208.419a.106.106 0 0 1-.074.026.082.082 0 0 1-.055-.018C.065.415.058.402.058.387.058.37.063.353.073.34A.174.174 0 0 1 .135.298L.206.263c.066-.032.1-.075.1-.127A.12.12 0 0 0 .258.037.16.16 0 0 0 .156 0a.355.355 0 0 0-.094.015.095.095 0 0 1-.026.005C.028.02.022.015.018.007H.002v.16h.016A.182.182 0 0 1 .07.063.126.126 0 0 1 .157.03c.022 0 .04.006.054.02.015.013.022.029.022.047a.075.075 0 0 1-.024.057.407.407 0 0 1-.094.058.28.28 0 0 0-.093.063.11.11 0 0 0-.022.07c0 .038.013.068.038.093a.135.135 0 0 0 .098.037A.23.23 0 0 0 .2.463.151.151 0 0 1 .233.456a.02.02 0 0 1 .012.003.047.047 0 0 1 .01.015h.016z"/></symbol><symbol id="g"><path d="M.377.184a.244.244 0 0 0-.07-.137A.17.17 0 0 0 .188 0a.172.172 0 0 0-.132.064A.251.251 0 0 0 0 .237c0 .07.02.127.063.171a.201.201 0 0 0 .15.066C.257.474.293.462.322.44.35.416.364.392.364.367a.04.04 0 0 0-.012-.03A.046.046 0 0 0 .32.324c-.02 0-.034.006-.044.019C.27.35.266.364.265.383a.063.063 0 0 1-.02.044.07.07 0 0 1-.048.014A.097.097 0 0 1 .12.405.192.192 0 0 1 .079.28c0-.054.013-.1.04-.142a.121.121 0 0 1 .106-.06c.032 0 .06.01.086.032A.22.22 0 0 1 .363.19L.377.184z"/></symbol><symbol id="h"><path d="M.155.694V.101c0-.028.002-.046.006-.056a.046.046 0 0 1 .02-.02.112.112 0 0 1 .047-.007V0h-.22v.018c.02 0 .035.002.042.006a.042.042 0 0 1 .018.02c.004.01.006.03.006.057v.406c0 .05 0 .082-.003.093C.069.612.065.62.06.624A.028.028 0 0 1 .04.63.091.091 0 0 1 .009.623L0 .64l.133.054h.022z"/></symbol><use xlink:href="#b" transform="matrix(18.7081 0 0 -18.7081 40.542 209.67)"/><use xlink:href="#c" transform="matrix(18.7081 0 0 -18.7081 49.957 209.524)"/><use xlink:href="#d" transform="matrix(18.7081 0 0 -18.7081 55.642 209.56)"/><use xlink:href="#c" transform="matrix(18.7081 0 0 -18.7081 63.464 209.524)"/><use xlink:href="#e" transform="matrix(18.7081 0 0 -18.7081 69.03 209.387)"/><use xlink:href="#f" transform="matrix(18.7081 0 0 -18.7081 74.597 209.643)"/><use xlink:href="#c" transform="matrix(18.7081 0 0 -18.7081 81.143 209.524)"/><use xlink:href="#e" transform="matrix(18.7081 0 0 -18.7081 86.71 209.387)"/><use xlink:href="#g" transform="matrix(18.7081 0 0 -18.7081 92.002 209.643)"/><use xlink:href="#d" transform="matrix(18.7081 0 0 -18.7081 100.335 209.56)"/><use xlink:href="#h" transform="matrix(18.7081 0 0 -18.7081 108.532 209.387)"/><symbol id="i"><path d="M.156.366C.208.429.258.46.306.46A.107.107 0 0 0 .369.442.121.121 0 0 0 .41.382c.007-.02.01-.05.01-.09v-.19A.16.16 0 0 1 .428.042.04.04 0 0 1 .445.024.1.1 0 0 1 .49.018V0H.269v.018h.009c.02 0 .035.003.043.009A.05.05 0 0 1 .34.055C.34.06.34.075.34.101v.183c0 .04-.006.07-.016.089C.315.39.297.4.27.4.233.4.194.38.156.337V.1c0-.03.002-.049.005-.056A.047.047 0 0 1 .18.024.122.122 0 0 1 .229.018V0H.007v.018h.01c.023 0 .038.005.046.017C.071.046.075.069.075.1v.166a.677.677 0 0 1-.004.098C.07.377.065.385.061.39A.03.03 0 0 1 .04.396.094.094 0 0 1 .007.388L0 .406.135.46h.02V.366z"/></symbol><symbol id="j"><path d="M.314.064A.23.23 0 0 0 .25.014.157.157 0 0 0 .183 0a.167.167 0 0 0-.128.061A.229.229 0 0 0 0 .219C0 .283.02.34.06.395c.04.053.093.08.156.08.04 0 .072-.013.098-.038V.52A.633.633 0 0 1 .31.614C.308.625.304.634.3.638a.03.03 0 0 1-.02.006.103.103 0 0 1-.033-.008L.239.653l.134.055h.022V.191c0-.052 0-.085.003-.096C.4.083.404.075.41.07A.03.03 0 0 1 .429.064c.009 0 .02.003.035.008L.469.055.336 0H.314v.064m0 .034v.23A.156.156 0 0 1 .296.39.1.1 0 0 1 .257.43.092.092 0 0 1 .21.444.1.1 0 0 1 .134.406C.104.372.089.322.089.257.09.192.104.141.132.106.161.071.192.054.228.054c.03 0 .058.015.086.044z"/></symbol><symbol id="k"><path d="M.07.292A.23.23 0 0 1 .117.136.147.147 0 0 1 .232.08c.03 0 .055.008.077.024a.18.18 0 0 1 .054.083l.015-.01a.234.234 0 0 0-.06-.122A.16.16 0 0 0 .196 0c-.053 0-.1.02-.138.063A.242.242 0 0 0 0 .23c0 .077.02.137.059.18.039.042.088.064.148.064.05 0 .09-.017.123-.05A.18.18 0 0 0 .378.292H.07m0 .029h.207a.191.191 0 0 1-.01.06.096.096 0 0 1-.037.043.09.09 0 0 1-.05.016.101.101 0 0 1-.073-.032A.136.136 0 0 1 .07.321z"/></symbol><symbol id="l"><path d="M.002.617.14.672H.16V.568c.023.04.046.067.069.082a.13.13 0 0 0 .074.024.142.142 0 0 0 .112-.052A.25.25 0 0 0 .47.454.28.28 0 0 0 .403.262.176.176 0 0 0 .265.2a.172.172 0 0 0-.062.01.146.146 0 0 0-.044.03V.104c0-.031.001-.05.005-.059a.043.043 0 0 1 .02-.02.122.122 0 0 1 .05-.007V0H0v.018h.012c.018 0 .033.003.046.01.006.004.011.01.014.018a.196.196 0 0 1 .006.06V.53a.23.23 0 0 1-.004.055.033.033 0 0 1-.013.018.04.04 0 0 1-.023.006A.088.088 0 0 1 .008.6L.002.617M.16.539V.372c0-.036.001-.06.004-.071A.092.092 0 0 1 .196.25.104.104 0 0 1 .264.229c.032 0 .059.013.079.039a.22.22 0 0 1 .04.14c0 .068-.016.12-.046.157a.093.093 0 0 1-.12.027.272.272 0 0 1-.058-.053z"/></symbol><use xlink:href="#e" transform="matrix(18.7081 0 0 -18.7081 19.155 232.412)"/><use xlink:href="#i" transform="matrix(18.7081 0 0 -18.7081 23.917 232.412)"/><use xlink:href="#j" transform="matrix(18.7081 0 0 -18.7081 33.783 232.668)"/><use xlink:href="#k" transform="matrix(18.7081 0 0 -18.7081 43.21 232.668)"/><use xlink:href="#l" transform="matrix(18.7081 0 0 -18.7081 50.758 236.413)"/><use xlink:href="#k" transform="matrix(18.7081 0 0 -18.7081 60.87 232.668)"/><use xlink:href="#i" transform="matrix(18.7081 0 0 -18.7081 68.592 232.412)"/><use xlink:href="#j" transform="matrix(18.7081 0 0 -18.7081 78.458 232.668)"/><use xlink:href="#k" transform="matrix(18.7081 0 0 -18.7081 87.885 232.668)"/><use xlink:href="#i" transform="matrix(18.7081 0 0 -18.7081 95.607 232.412)"/><use xlink:href="#g" transform="matrix(18.7081 0 0 -18.7081 105.49 232.668)"/><use xlink:href="#e" transform="matrix(18.7081 0 0 -18.7081 113.706 232.412)"/><use xlink:href="#k" transform="matrix(18.7081 0 0 -18.7081 119.053 232.668)"/><use xlink:href="#f" transform="matrix(18.7081 0 0 -18.7081 127.578 232.668)"/><path stroke-width="2.15862" stroke-miterlimit="10" fill="none" stroke="#000" d="M152.183 321.276h151.032"/><path d="m308.072 321.276-6.476 3.237 1.619-3.237-1.619-3.238 6.476 3.238z"/><path stroke-width="2.15862" stroke-miterlimit="10" fill="none" stroke="#000" d="m308.072 321.276-6.476 3.237 1.619-3.237-1.619-3.238 6.476 3.238zM513.393 317.678 674.37 114.709"/><path d="m677.391 110.903-1.49 7.087-1.532-3.28-3.54-.749 6.562-3.058z"/><path stroke-width="2.15862" stroke-miterlimit="10" fill="none" stroke="#000" d="m677.391 110.903-1.49 7.087-1.532-3.28-3.54-.749 6.562-3.058z"/><symbol id="m"><path d="M.566.692.58.467H.566a.283.283 0 0 1-.087.146.21.21 0 0 1-.134.044.218.218 0 0 1-.12-.033.221.221 0 0 1-.083-.107.479.479 0 0 1-.03-.182C.111.275.12.223.14.179a.216.216 0 0 1 .087-.1.25.25 0 0 1 .132-.036c.043 0 .08.01.114.027A.379.379 0 0 1 .58.18L.596.17A.348.348 0 0 0 .48.041.294.294 0 0 0 .322 0C.212 0 .128.04.067.122A.349.349 0 0 0 0 .336a.38.38 0 0 0 .044.182.33.33 0 0 0 .292.174A.312.312 0 0 0 .48.657a.077.077 0 0 1 .029-.01C.517.646.524.65.53.655a.076.076 0 0 1 .018.036h.017z"/></symbol><symbol id="n"><path d="M.284.018V0H0v.018h.023c.028 0 .048.008.06.024.008.01.012.035.012.075v.428A.22.22 0 0 1 .088.61a.044.044 0 0 1-.02.021.093.093 0 0 1-.045.012H0v.018h.284V.644H.26C.233.644.213.636.2.62.194.61.189.585.189.545V.117A.22.22 0 0 1 .195.051.044.044 0 0 1 .215.03.09.09 0 0 1 .26.018h.024z"/></symbol><use xlink:href="#m" transform="matrix(18.7081 0 0 -18.7081 212.098 309.686)"/><use xlink:href="#m" transform="matrix(18.7081 0 0 -18.7081 224.576 309.686)"/><use xlink:href="#n" transform="matrix(18.7081 0 0 -18.7081 236.844 309.403)"/><symbol id="o"><path d="M.156.46v-.1c.037.067.076.1.115.1A.062.062 0 0 0 .315.444.05.05 0 0 0 .333.406.045.045 0 0 0 .32.374.04.04 0 0 0 .29.361C.279.36.266.366.251.377.237.39.227.395.221.395.213.395.207.39.2.385A.235.235 0 0 1 .156.319V.104C.156.08.159.061.165.048A.05.05 0 0 1 .187.026.099.099 0 0 1 .234.018V0h-.23v.018c.024 0 .04.003.052.01a.042.042 0 0 1 .017.025.251.251 0 0 1 .002.048v.173a.663.663 0 0 1-.003.093.035.035 0 0 1-.012.022.032.032 0 0 1-.02.007.097.097 0 0 1-.035-.008L0 .406.135.46h.02z"/></symbol><use xlink:href="#o" transform="matrix(18.7081 0 0 -18.7081 574.887 294.293)"/><use xlink:href="#k" transform="matrix(18.7081 0 0 -18.7081 581.692 294.548)"/><use xlink:href="#l" transform="matrix(18.7081 0 0 -18.7081 589.24 298.294)"/><use xlink:href="#o" transform="matrix(18.7081 0 0 -18.7081 598.777 294.293)"/><use xlink:href="#k" transform="matrix(18.7081 0 0 -18.7081 605.582 294.548)"/><use xlink:href="#f" transform="matrix(18.7081 0 0 -18.7081 614.108 294.548)"/><use xlink:href="#k" transform="matrix(18.7081 0 0 -18.7081 621.166 294.548)"/><use xlink:href="#i" transform="matrix(18.7081 0 0 -18.7081 628.888 294.293)"/><use xlink:href="#c" transform="matrix(18.7081 0 0 -18.7081 638.315 294.43)"/><use xlink:href="#f" transform="matrix(18.7081 0 0 -18.7081 644.247 294.548)"/><symbol id="p"><path d="M.167.412V.118C.167.076.172.05.181.04A.06.06 0 0 1 .23.018H.27V0H.003v.018h.02c.013 0 .025.003.036.01A.05.05 0 0 1 .08.053a.213.213 0 0 1 .006.064v.294H0v.035h.087v.03c0 .044.007.082.021.113a.18.18 0 0 0 .165.104A.15.15 0 0 0 .368.66C.387.646.396.63.396.61A.04.04 0 0 0 .383.584.038.038 0 0 0 .356.57a.046.046 0 0 0-.024.008.138.138 0 0 0-.03.035.122.122 0 0 1-.033.036.063.063 0 0 1-.034.01.06.06 0 0 1-.038-.013.066.066 0 0 1-.023-.037.692.692 0 0 1-.007-.13V.447h.116V.412H.167z"/></symbol><symbol id="q"><path d="M.422.46V.19c0-.052.002-.084.004-.095C.428.083.432.075.438.07A.03.03 0 0 1 .457.064c.01 0 .021.003.034.008L.498.055.364 0H.342v.095A.407.407 0 0 0 .254.016.134.134 0 0 0 .19 0a.104.104 0 0 0-.065.021.114.114 0 0 0-.039.057.338.338 0 0 0-.01.096v.2a.098.098 0 0 1-.007.044.044.044 0 0 1-.02.019A.113.113 0 0 1 0 .443V.46h.157v-.3C.157.12.164.094.178.08A.077.077 0 0 1 .231.06c.014 0 .03.004.047.013.018.009.04.026.064.05v.254c0 .025-.005.042-.014.051C.318.438.299.442.27.443V.46h.152z"/></symbol><use xlink:href="#p" transform="matrix(18.7081 0 0 -18.7081 583.81 316.598)"/><use xlink:href="#k" transform="matrix(18.7081 0 0 -18.7081 590.012 316.854)"/><use xlink:href="#d" transform="matrix(18.7081 0 0 -18.7081 598.29 316.772)"/><use xlink:href="#c" transform="matrix(18.7081 0 0 -18.7081 606.113 316.736)"/><use xlink:href="#q" transform="matrix(18.7081 0 0 -18.7081 611.15 316.854)"/><use xlink:href="#o" transform="matrix(18.7081 0 0 -18.7081 620.604 316.598)"/><use xlink:href="#k" transform="matrix(18.7081 0 0 -18.7081 627.41 316.854)"/><use xlink:href="#f" transform="matrix(18.7081 0 0 -18.7081 635.935 316.854)"/><symbol id="r"><path d="M.216.474A.198.198 0 0 0 .38.397.237.237 0 0 0 .432.246c0-.04-.01-.081-.03-.122A.21.21 0 0 0 .324.031.208.208 0 0 0 .211 0a.19.19 0 0 0-.16.08A.25.25 0 0 0 0 .234c0 .04.01.082.03.122a.208.208 0 0 0 .186.12M.201.441A.102.102 0 0 1 .15.427.107.107 0 0 1 .107.373a.26.26 0 0 1-.016-.1C.09.21.104.154.129.106.155.058.19.035.232.035.264.035.29.048.31.074.33.1.34.144.34.208.34.288.325.35.29.396A.106.106 0 0 1 .2.442z"/></symbol><symbol id="s"><path d="M.156.365c.032.033.052.052.057.056.015.013.03.022.048.03.017.006.033.01.05.01A.112.112 0 0 0 .383.435a.12.12 0 0 0 .04-.07C.458.403.487.43.51.441A.15.15 0 0 0 .58.46.11.11 0 0 0 .643.442a.12.12 0 0 0 .044-.06.27.27 0 0 0 .01-.089V.101C.698.073.7.054.705.043A.043.043 0 0 1 .722.025.093.093 0 0 1 .765.018V0h-.22v.018h.009c.019 0 .034.003.045.01a.044.044 0 0 1 .016.026A.313.313 0 0 1 .617.1v.192a.163.163 0 0 1-.013.078C.59.39.57.4.542.4A.116.116 0 0 1 .49.39.278.278 0 0 1 .427.34V.1c0-.03.002-.05.005-.057a.044.044 0 0 1 .02-.02A.114.114 0 0 1 .5.019V0H.274v.018c.025 0 .042.003.05.008.01.006.017.015.02.027A.26.26 0 0 1 .347.1v.192C.347.33.34.356.33.373a.069.069 0 0 1-.06.03A.108.108 0 0 1 .218.39.201.201 0 0 1 .156.341V.1c0-.03.002-.048.006-.057A.045.045 0 0 1 .18.024.122.122 0 0 1 .229.018V0H.007v.018c.02 0 .035.002.043.006a.044.044 0 0 1 .019.02c.004.01.006.03.006.057v.171a.62.62 0 0 1-.004.095C.069.377.065.385.06.39A.03.03 0 0 1 .04.396.094.094 0 0 1 .007.388L0 .406.135.46h.02V.365z"/></symbol><symbol id="t"><path d="M0 0z"/></symbol><use xlink:href="#g" transform="matrix(18.7081 0 0 -18.7081 570.978 339.16)"/><use xlink:href="#r" transform="matrix(18.7081 0 0 -18.7081 579.275 339.16)"/><use xlink:href="#s" transform="matrix(18.7081 0 0 -18.7081 588.154 338.904)"/><use xlink:href="#s" transform="matrix(18.7081 0 0 -18.7081 602.709 338.904)"/><use xlink:href="#r" transform="matrix(18.7081 0 0 -18.7081 617.739 339.16)"/><use xlink:href="#i" transform="matrix(18.7081 0 0 -18.7081 626.572 338.904)"/><use xlink:href="#t" transform="matrix(18.7081 0 0 -18.7081 635.817 338.904)"/><use xlink:href="#c" transform="matrix(18.7081 0 0 -18.7081 640.676 339.041)"/><use xlink:href="#r" transform="matrix(18.7081 0 0 -18.7081 646.325 339.16)"/><path stroke-width="1.43908" stroke-miterlimit="10" fill="none" stroke="#000" d="m467.825 283.348-.44 55.866"/><path d="m467.357 343.53-2.835-5.777 2.864 1.46 2.892-1.417-2.921 5.735z"/><path stroke-width="1.43908" stroke-miterlimit="10" fill="none" stroke="#000" d="m467.357 343.53-2.835-5.777 2.864 1.46 2.892-1.417-2.921 5.735zM356.051 283.348l-.432 55.866"/><path d="m355.583 343.53-2.828-5.777 2.864 1.46 2.893-1.417-2.929 5.735z"/><path stroke-width="1.43908" stroke-miterlimit="10" fill="none" stroke="#000" d="m355.583 343.53-2.828-5.777 2.864 1.46 2.893-1.417-2.929 5.735z"/><path d="M383.039 262.755a27.487 27.487 0 0 1-3.243 12.946 27.44 27.44 0 0 1-8.963 9.888 27.436 27.436 0 0 1-12.565 4.496 27.444 27.444 0 0 1-13.201-1.958 27.444 27.444 0 0 1-12.325-10.114 27.447 27.447 0 0 1-4.628-15.258 27.454 27.454 0 0 1 8.043-19.419 27.447 27.447 0 0 1 14.061-7.516 27.443 27.443 0 0 1 13.33.655 27.452 27.452 0 0 1 14.862 11.023 27.443 27.443 0 0 1 4.496 12.565c.088.895.133 1.793.133 2.692z" fill="#fff"/><path stroke-width="1.43908" fill="none" stroke="#000" d="M383.039 262.755a27.487 27.487 0 0 1-3.243 12.946 27.44 27.44 0 0 1-8.963 9.888 27.436 27.436 0 0 1-12.565 4.496 27.444 27.444 0 0 1-13.201-1.958 27.444 27.444 0 0 1-12.325-10.114 27.447 27.447 0 0 1-4.628-15.258 27.454 27.454 0 0 1 8.043-19.419 27.447 27.447 0 0 1 14.061-7.516 27.443 27.443 0 0 1 13.33.655 27.452 27.452 0 0 1 14.862 11.023 27.443 27.443 0 0 1 4.496 12.565c.088.895.133 1.793.133 2.692z"/><symbol id="u"><path d="m.416.388.182-.27A.426.426 0 0 1 .663.034.094.094 0 0 1 .708.018V0H.386v.018C.41.02.428.024.436.03a.026.026 0 0 1 .01.021.034.034 0 0 1-.003.016.496.496 0 0 1-.034.055L.313.265.21.14C.181.104.166.078.166.065c0-.01.004-.018.012-.026A.068.068 0 0 1 .212.02.188.188 0 0 1 .254.018V0H0v.018a.162.162 0 0 1 .068.024.53.53 0 0 1 .092.093l.131.16-.168.248-.048.068A.09.09 0 0 1 .05.634a.11.11 0 0 1-.035.01v.018h.329V.644H.326C.307.644.294.641.286.634a.027.027 0 0 1-.01-.022c0-.007 0-.013.003-.018L.312.543.396.418l.07.085C.5.547.517.578.517.596A.042.042 0 0 1 .51.62.048.048 0 0 1 .49.638a.114.114 0 0 1-.044.006v.018h.243V.644A.137.137 0 0 1 .642.637.118.118 0 0 1 .604.612 1.122 1.122 0 0 1 .541.54L.416.388z"/></symbol><use xlink:href="#u" transform="matrix(17.98855 0 0 -17.98855 345.323 266.95)"/><symbol id="v"><path d="M.26.676V.134A.34.34 0 0 1 .265.056.05.05 0 0 1 .288.03a.106.106 0 0 1 .054-.01h.015V0H.01v.018h.017c.029 0 .049.003.06.01a.05.05 0 0 1 .025.027.297.297 0 0 1 .007.08v.343c0 .03-.002.05-.005.057a.04.04 0 0 1-.016.02.046.046 0 0 1-.028.007.157.157 0 0 1-.06-.015L0 .564l.244.112H.26z"/></symbol><use xlink:href="#v" transform="matrix(14.98806 0 0 -14.98806 359.185 271.267)"/><path d="M383.039 372.6a27.489 27.489 0 0 1-3.243 12.946 27.455 27.455 0 0 1-16.248 13.334 27.445 27.445 0 0 1-13.33.655 27.444 27.444 0 0 1-14.06-7.516 27.46 27.46 0 0 1-1.81-36.84 27.46 27.46 0 0 1 34.174-6.798 27.441 27.441 0 0 1 9.888 8.962 27.451 27.451 0 0 1 4.629 15.257z" fill="#fff"/><path stroke-width="1.43908" fill="none" stroke="#000" d="M383.039 372.6a27.489 27.489 0 0 1-3.243 12.946 27.455 27.455 0 0 1-16.248 13.334 27.445 27.445 0 0 1-13.33.655 27.444 27.444 0 0 1-14.06-7.516 27.46 27.46 0 0 1-1.81-36.84 27.46 27.46 0 0 1 34.174-6.798 27.441 27.441 0 0 1 9.888 8.962 27.451 27.451 0 0 1 4.629 15.257z"/><use xlink:href="#u" transform="matrix(17.98855 0 0 -17.98855 345.953 377.76)"/><symbol id="w"><path d="M.39 0H0v.01C.12.154.192.25.217.299a.31.31 0 0 1 .039.144c0 .034-.01.062-.032.085A.102.102 0 0 1 .146.56C.096.561.057.536.03.486L.012.492a.27.27 0 0 0 .08.139c.036.03.077.045.124.045A.183.183 0 0 0 .308.652.17.17 0 0 0 .373.588.153.153 0 0 0 .396.512.276.276 0 0 0 .36.38 1.251 1.251 0 0 0 .145.128h.143c.035 0 .058.001.068.004.01.003.02.008.026.015A.2.2 0 0 1 .41.191h.018L.39 0z"/></symbol><use xlink:href="#w" transform="matrix(12.49125 0 0 -12.49125 359.132 381.47)"/><path d="M494.805 372.6a27.43 27.43 0 0 1-2.09 10.51 27.43 27.43 0 0 1-5.954 8.91 27.422 27.422 0 0 1-8.91 5.952 27.447 27.447 0 0 1-15.866 1.563 27.442 27.442 0 0 1-12.065-5.706 27.476 27.476 0 0 1-8.857-13.257 27.445 27.445 0 0 1 0-15.943 27.45 27.45 0 0 1 11.022-14.863 27.45 27.45 0 0 1 15.258-4.628 27.443 27.443 0 0 1 12.945 3.243 27.453 27.453 0 0 1 13.335 16.247 27.432 27.432 0 0 1 1.182 7.972z" fill="#fff"/><path stroke-width="1.43908" fill="none" stroke="#000" d="M494.805 372.6a27.43 27.43 0 0 1-2.09 10.51 27.43 27.43 0 0 1-5.954 8.91 27.422 27.422 0 0 1-8.91 5.952 27.447 27.447 0 0 1-15.866 1.563 27.442 27.442 0 0 1-12.065-5.706 27.476 27.476 0 0 1-8.857-13.257 27.445 27.445 0 0 1 0-15.943 27.45 27.45 0 0 1 11.022-14.863 27.45 27.45 0 0 1 15.258-4.628 27.443 27.443 0 0 1 12.945 3.243 27.453 27.453 0 0 1 13.335 16.247 27.432 27.432 0 0 1 1.182 7.972z"/><use xlink:href="#u" transform="matrix(17.98855 0 0 -17.98855 456.852 377.04)"/><symbol id="x"><path d="M.132.346v.017c.037.011.063.021.077.03.014.01.027.024.037.043a.12.12 0 0 1 .016.058c0 .027-.01.05-.03.069a.1.1 0 0 1-.073.03C.113.592.074.567.042.52L.024.526a.294.294 0 0 0 .09.123.2.2 0 0 0 .123.04A.158.158 0 0 0 .35.649.13.13 0 0 0 .374.479a.179.179 0 0 0-.065-.06.228.228 0 0 0 .087-.068.166.166 0 0 0 .03-.102.236.236 0 0 0-.075-.177.276.276 0 0 0-.2-.072C.093 0 .053.01.027.028A.06.06 0 0 0 0 .078c0 .015.005.028.016.038.01.011.023.016.037.016.011 0 .021-.002.03-.007A.61.61 0 0 0 .14.083a.146.146 0 0 1 .089-.04c.024 0 .045.01.062.03.017.018.026.043.026.072a.188.188 0 0 1-.047.123.245.245 0 0 1-.137.078z"/></symbol><use xlink:href="#x" transform="matrix(14.98806 0 0 -14.98806 469.968 381.57)"/><path d="M494.805 262.755a27.428 27.428 0 0 1-2.09 10.51 27.441 27.441 0 0 1-7.95 10.719 27.439 27.439 0 0 1-12.065 5.706 27.44 27.44 0 0 1-13.33-.655 27.438 27.438 0 0 1-11.446-6.86 27.473 27.473 0 0 1-7.912-16.728 27.473 27.473 0 0 1 4.496-17.95 27.464 27.464 0 0 1 50.297 15.258z" fill="#fff"/><path stroke-width="1.43908" fill="none" stroke="#000" d="M494.805 262.755a27.428 27.428 0 0 1-2.09 10.51 27.441 27.441 0 0 1-7.95 10.719 27.439 27.439 0 0 1-12.065 5.706 27.44 27.44 0 0 1-13.33-.655 27.438 27.438 0 0 1-11.446-6.86 27.473 27.473 0 0 1-7.912-16.728 27.473 27.473 0 0 1 4.496-17.95 27.464 27.464 0 0 1 50.297 15.258z"/><use xlink:href="#u" transform="matrix(17.98855 0 0 -17.98855 456.852 266.95)"/><symbol id="y"><path d="m0 .25.314.426h.06V.25h.06V.148h-.06V0H.24v.148H0V.25m.047 0H.24v.26L.047.25z"/></symbol><use xlink:href="#y" transform="matrix(14.98806 0 0 -14.98806 470.1 271.267)"/><path stroke-width="2.15862" stroke-miterlimit="10" fill="none" stroke="#000" d="M439.424 372.96h.813"/><path stroke-width="1.43908" stroke-miterlimit="10" fill="none" stroke="#000" d="m381.472 286.5 62.27 62.485"/><path d="M446.785 352.043 440.683 350l3.059-1.015 1.021-3.05 2.022 6.108z"/><path stroke-width="1.43908" stroke-miterlimit="10" fill="none" stroke="#000" d="M446.785 352.043 440.683 350l3.059-1.015 1.021-3.05 2.022 6.108zM446.864 283.348l-67.622 65.709"/><path d="m376.148 352.065 2.122-6.08.972 3.072 3.036 1.058-6.13 1.95z"/><path stroke-width="1.43908" stroke-miterlimit="10" fill="none" stroke="#000" d="m376.148 352.065 2.122-6.08.972 3.072 3.036 1.058-6.13 1.95z"/><path stroke-width="2.15862" stroke-miterlimit="10" fill="none" stroke="#000" d="m442.62 287.507 5.676-4.85M375.35 282.528l1.647.813"/><path stroke-width="1.43908" stroke-miterlimit="10" fill="none" stroke="#000" d="M383.034 372.6h56.844"/><path d="M359.786 294.724a3.4 3.4 0 0 1-.261 1.314 3.4 3.4 0 0 1-.744 1.114 3.4 3.4 0 0 1-1.114.744 3.4 3.4 0 0 1-1.314.261 3.4 3.4 0 0 1-1.314-.261 3.4 3.4 0 0 1-1.113-.744 3.4 3.4 0 0 1-.744-1.114 3.4 3.4 0 0 1-.262-1.314 3.4 3.4 0 0 1 .262-1.313 3.4 3.4 0 0 1 .744-1.114 3.4 3.4 0 0 1 1.113-.744 3.4 3.4 0 0 1 1.314-.261 3.4 3.4 0 0 1 1.314.26 3.4 3.4 0 0 1 1.114.745 3.4 3.4 0 0 1 .744 1.114 3.4 3.4 0 0 1 .261 1.313z" fill="#fff"/><path stroke-width="2.15862" fill="none" stroke="#000" d="M359.786 294.724a3.4 3.4 0 0 1-.261 1.314 3.4 3.4 0 0 1-.744 1.114 3.4 3.4 0 0 1-1.114.744 3.4 3.4 0 0 1-1.314.261 3.4 3.4 0 0 1-1.314-.261 3.4 3.4 0 0 1-1.113-.744 3.4 3.4 0 0 1-.744-1.114 3.4 3.4 0 0 1-.262-1.314 3.4 3.4 0 0 1 .262-1.313 3.4 3.4 0 0 1 .744-1.114 3.4 3.4 0 0 1 1.113-.744 3.4 3.4 0 0 1 1.314-.261 3.4 3.4 0 0 1 1.314.26 3.4 3.4 0 0 1 1.114.745 3.4 3.4 0 0 1 .744 1.114 3.4 3.4 0 0 1 .261 1.313z"/><path d="M382.84 284.428a3.4 3.4 0 0 1-.261 1.313c-.174.421-.422.792-.744 1.114a3.4 3.4 0 0 1-1.114.744 3.4 3.4 0 0 1-1.314.262 3.4 3.4 0 0 1-1.313-.262 3.4 3.4 0 0 1-1.114-.744 3.4 3.4 0 0 1-.744-1.114 3.398 3.398 0 0 1-.261-1.313c0-.455.087-.893.26-1.314a3.4 3.4 0 0 1 .745-1.114 3.4 3.4 0 0 1 1.114-.744 3.4 3.4 0 0 1 1.313-.261 3.4 3.4 0 0 1 1.314.261 3.4 3.4 0 0 1 1.114.744c.322.322.57.693.744 1.114.174.42.261.859.261 1.314z" fill="#fff"/><path stroke-width="2.15862" fill="none" stroke="#000" d="M382.84 284.428a3.4 3.4 0 0 1-.261 1.313c-.174.421-.422.792-.744 1.114a3.4 3.4 0 0 1-1.114.744 3.4 3.4 0 0 1-1.314.262 3.4 3.4 0 0 1-1.313-.262 3.4 3.4 0 0 1-1.114-.744 3.4 3.4 0 0 1-.744-1.114 3.398 3.398 0 0 1-.261-1.313c0-.455.087-.893.26-1.314a3.4 3.4 0 0 1 .745-1.114 3.4 3.4 0 0 1 1.114-.744 3.4 3.4 0 0 1 1.313-.261 3.4 3.4 0 0 1 1.314.261 3.4 3.4 0 0 1 1.114.744c.322.322.57.693.744 1.114.174.42.261.859.261 1.314z"/><path stroke-width="2.15862" stroke-miterlimit="10" fill="none" stroke="#000" d="m375.35 282.528.87.626"/><path d="M448.484 285.083c0 .455-.087.893-.261 1.313-.175.42-.423.792-.745 1.114a3.4 3.4 0 0 1-1.113.744 3.4 3.4 0 0 1-1.314.261c-.455 0-.893-.087-1.314-.261a3.4 3.4 0 0 1-1.113-.744 3.4 3.4 0 0 1-.744-1.114 3.4 3.4 0 0 1-.262-1.313 3.4 3.4 0 0 1 .262-1.314c.174-.42.422-.792.744-1.114a3.4 3.4 0 0 1 1.113-.744 3.4 3.4 0 0 1 1.314-.261 3.4 3.4 0 0 1 1.314.261 3.4 3.4 0 0 1 1.113.744 3.4 3.4 0 0 1 .745 1.114 3.4 3.4 0 0 1 .261 1.314z" fill="#fff"/><path stroke-width="2.15862" fill="none" stroke="#000" d="M448.484 285.083c0 .455-.087.893-.261 1.313-.175.42-.423.792-.745 1.114a3.4 3.4 0 0 1-1.113.744 3.4 3.4 0 0 1-1.314.261c-.455 0-.893-.087-1.314-.261a3.4 3.4 0 0 1-1.113-.744 3.4 3.4 0 0 1-.744-1.114 3.4 3.4 0 0 1-.262-1.313 3.4 3.4 0 0 1 .262-1.314c.174-.42.422-.792.744-1.114a3.4 3.4 0 0 1 1.113-.744 3.4 3.4 0 0 1 1.314-.261 3.4 3.4 0 0 1 1.314.261 3.4 3.4 0 0 1 1.113.744 3.4 3.4 0 0 1 .745 1.114 3.4 3.4 0 0 1 .261 1.314z"/><path stroke-width="2.15862" stroke-miterlimit="10" fill="none" stroke="#000" d="m448.282 282.528-.806.13"/><path d="M471.552 294.724c0 .456-.087.893-.26 1.314-.175.42-.423.792-.745 1.114a3.4 3.4 0 0 1-1.114.744c-.42.174-.858.261-1.313.261-.455 0-.893-.087-1.314-.261a3.4 3.4 0 0 1-1.114-.744 3.4 3.4 0 0 1-.744-1.114 3.4 3.4 0 0 1-.261-1.314 3.4 3.4 0 0 1 .261-1.313 3.4 3.4 0 0 1 .744-1.114 3.4 3.4 0 0 1 1.114-.744 3.4 3.4 0 0 1 1.314-.261 3.4 3.4 0 0 1 1.313.26 3.4 3.4 0 0 1 1.114.745c.322.322.57.693.744 1.114.174.42.261.858.261 1.313z" fill="#fff"/><path stroke-width="2.15862" fill="none" stroke="#000" d="M471.552 294.724c0 .456-.087.893-.26 1.314-.175.42-.423.792-.745 1.114a3.4 3.4 0 0 1-1.114.744c-.42.174-.858.261-1.313.261-.455 0-.893-.087-1.314-.261a3.4 3.4 0 0 1-1.114-.744 3.4 3.4 0 0 1-.744-1.114 3.4 3.4 0 0 1-.261-1.314 3.4 3.4 0 0 1 .261-1.313 3.4 3.4 0 0 1 .744-1.114 3.4 3.4 0 0 1 1.114-.744 3.4 3.4 0 0 1 1.314-.261 3.4 3.4 0 0 1 1.313.26 3.4 3.4 0 0 1 1.114.745c.322.322.57.693.744 1.114.174.42.261.858.261 1.313z"/><path d="M878.92 58.643V30.437c0-19.572-9.785-29.358-29.357-29.358H706.806c-19.571 0-29.357 9.786-29.357 29.358v28.206" fill="#fff"/><path stroke-miterlimit="10" fill="none" stroke="#000" d="M878.92 58.643V30.437c0-19.572-9.785-29.358-29.357-29.358H706.806c-19.571 0-29.357 9.786-29.357 29.358v28.206M677.449 58.643v503.103c0 19.572 9.786 29.358 29.357 29.358h142.757c19.572 0 29.358-9.786 29.358-29.358V58.643M677.449 58.643H878.92" stroke-width=".71954"/><symbol id="z"><path d="M.393 0 .137.557V.115C.137.075.14.049.15.039.162.025.18.019.207.019H.23V0H0v.018h.023c.028 0 .048.009.06.025.007.01.01.035.01.072v.432c0 .03-.003.05-.009.064a.053.053 0 0 1-.025.023.13.13 0 0 1-.059.01v.018h.188l.24-.518.236.518h.188V.644H.829C.8.644.78.636.769.619.76.609.758.584.758.547V.115c0-.04.004-.066.013-.076C.784.025.803.019.83.019h.023V0H.57v.018h.024c.028 0 .048.009.06.025.006.01.01.035.01.072v.442L.41 0H.393z"/></symbol><symbol id="A"><path d="M.155.694V.25L.27.353a.381.381 0 0 1 .042.042.021.021 0 0 1 .004.012.02.02 0 0 1-.008.016C.3.428.293.431.28.432v.015h.195V.432A.186.186 0 0 1 .408.419.217.217 0 0 1 .35.38L.235.273.35.128A1.02 1.02 0 0 1 .414.052a.133.133 0 0 1 .041-.03.128.128 0 0 1 .043-.004V0H.28v.018C.293.018.3.02.305.023a.018.018 0 0 1 .007.015c0 .007-.006.02-.02.036L.155.249V.101c0-.03.002-.048.006-.058A.04.04 0 0 1 .18.023.13.13 0 0 1 .228.019V0H0v.018c.023 0 .04.002.051.008.007.003.012.009.016.016.005.011.007.03.007.056v.407A.722.722 0 0 1 .071.6C.069.612.065.62.06.624a.03.03 0 0 1-.02.007.092.092 0 0 1-.032-.008L0 .64l.133.054h.022z"/></symbol><symbol id="B"><path d="M0 .46h.21V.444H.197C.184.443.174.44.167.433A.033.033 0 0 1 .157.41c0-.012.004-.025.011-.04L.272.12l.104.256A.122.122 0 0 1 .388.42.016.016 0 0 1 .384.43.026.026 0 0 1 .37.44a.123.123 0 0 1-.034.003V.46h.146V.443C.465.442.454.438.447.433a.125.125 0 0 1-.03-.05L.257 0h-.02L.079.377a.14.14 0 0 1-.02.038.08.08 0 0 1-.025.02A.122.122 0 0 1 0 .443V.46z"/></symbol><use xlink:href="#z" transform="matrix(18.7081 0 0 -18.7081 701.516 24.464)"/><use xlink:href="#d" transform="matrix(18.7081 0 0 -18.7081 718.503 24.638)"/><use xlink:href="#o" transform="matrix(18.7081 0 0 -18.7081 726.262 24.464)"/><use xlink:href="#A" transform="matrix(18.7081 0 0 -18.7081 732.528 24.464)"/><use xlink:href="#r" transform="matrix(18.7081 0 0 -18.7081 742.357 24.72)"/><use xlink:href="#B" transform="matrix(18.7081 0 0 -18.7081 751.236 24.72)"/><use xlink:href="#t" transform="matrix(18.7081 0 0 -18.7081 760.435 24.464)"/><use xlink:href="#k" transform="matrix(18.7081 0 0 -18.7081 765.806 24.72)"/><symbol id="C"><path d="M.394.674V.1C.394.07.396.052.4.044a.043.043 0 0 1 .018-.02.117.117 0 0 1 .049-.006V0H.24v.018h.01c.018 0 .032.003.041.008.007.003.012.01.016.02a.16.16 0 0 1 .005.053v.193A.333.333 0 0 0 .236.219.137.137 0 0 0 .167.2a.151.151 0 0 0-.116.06A.234.234 0 0 0 0 .416c0 .076.022.138.067.186a.215.215 0 0 0 .214.064.127.127 0 0 0 .042-.024c.02.01.037.02.054.031h.017M.314.322v.21a.14.14 0 0 1-.01.058.08.08 0 0 1-.034.035.105.105 0 0 1-.055.015A.119.119 0 0 1 .12.594C.095.563.082.516.082.454c0-.061.013-.107.04-.138A.122.122 0 0 1 .218.269c.019 0 .036.004.051.012.015.009.03.022.044.041z"/></symbol><use xlink:href="#C" transform="matrix(18.7081 0 0 -18.7081 774.039 28.465)"/><use xlink:href="#q" transform="matrix(18.7081 0 0 -18.7081 782.79 24.72)"/><use xlink:href="#e" transform="matrix(18.7081 0 0 -18.7081 792.674 24.464)"/><use xlink:href="#B" transform="matrix(18.7081 0 0 -18.7081 797.482 24.72)"/><use xlink:href="#d" transform="matrix(18.7081 0 0 -18.7081 807.348 24.638)"/><use xlink:href="#h" transform="matrix(18.7081 0 0 -18.7081 815.544 24.464)"/><use xlink:href="#k" transform="matrix(18.7081 0 0 -18.7081 820.882 24.72)"/><use xlink:href="#i" transform="matrix(18.7081 0 0 -18.7081 828.604 24.464)"/><use xlink:href="#g" transform="matrix(18.7081 0 0 -18.7081 838.488 24.72)"/><use xlink:href="#k" transform="matrix(18.7081 0 0 -18.7081 846.849 24.72)"/><symbol id="D"><path d="M0 0v.018h.025c.028 0 .048.009.06.027.007.01.01.035.01.072v.428c0 .041-.004.067-.013.078C.069.637.05.644.025.644H0v.018h.27A.587.587 0 0 0 .495.628.267.267 0 0 0 .62.516.345.345 0 0 0 .667.334a.331.331 0 0 0-.084-.23C.52.034.424 0 .296 0H0m.189.048A.499.499 0 0 1 .293.034c.075 0 .138.027.188.08.05.053.075.125.075.216A.302.302 0 0 1 .48.546a.252.252 0 0 1-.192.079.415.415 0 0 1-.1-.014V.048z"/></symbol><symbol id="E"><path d="M.579.692.596.483H.579a.286.286 0 0 1-.067.118.21.21 0 0 1-.152.057.216.216 0 0 1-.193-.1.36.36 0 0 1-.055-.201c0-.063.013-.12.037-.173A.26.26 0 0 1 .245.07.233.233 0 0 1 .438.042.282.282 0 0 1 .502.07V.26a.17.17 0 0 1-.007.065.048.048 0 0 1-.024.024.13.13 0 0 1-.055.008v.018h.256V.358H.66C.635.358.618.349.608.333A.171.171 0 0 1 .598.26V.06A.485.485 0 0 0 .367 0C.238 0 .141.041.075.123A.329.329 0 0 0 0 .336C0 .394.014.45.042.503A.359.359 0 0 0 .179.65.335.335 0 0 0 .35.692.335.335 0 0 0 .416.687.595.595 0 0 0 .5.66.135.135 0 0 1 .537.65c.006 0 .011.002.015.008.005.006.008.017.009.033h.018z"/></symbol><use xlink:href="#g" transform="matrix(18.7081 0 0 -18.7081 722.34 47.746)"/><use xlink:href="#h" transform="matrix(18.7081 0 0 -18.7081 730.564 47.49)"/><use xlink:href="#d" transform="matrix(18.7081 0 0 -18.7081 735.875 47.663)"/><use xlink:href="#f" transform="matrix(18.7081 0 0 -18.7081 744.428 47.746)"/><use xlink:href="#f" transform="matrix(18.7081 0 0 -18.7081 751.705 47.746)"/><use xlink:href="#t" transform="matrix(18.7081 0 0 -18.7081 758.07 47.49)"/><use xlink:href="#r" transform="matrix(18.7081 0 0 -18.7081 763.377 47.746)"/><use xlink:href="#p" transform="matrix(18.7081 0 0 -18.7081 772.822 47.49)"/><use xlink:href="#t" transform="matrix(18.7081 0 0 -18.7081 778.33 47.49)"/><use xlink:href="#D" transform="matrix(18.7081 0 0 -18.7081 783.327 47.49)"/><use xlink:href="#z" transform="matrix(18.7081 0 0 -18.7081 796.825 47.49)"/><use xlink:href="#E" transform="matrix(18.7081 0 0 -18.7081 813.803 47.773)"/><use xlink:href="#f" transform="matrix(18.7081 0 0 -18.7081 827.566 47.746)"/><path d="M776.386 569.158v-2.878h2.878v2.878m-2.878-11.513v-2.878h2.878v2.878m-2.878-11.513v-2.878h2.878v2.878"/><path d="M748.31 103.247a17.614 17.614 0 0 1-6.443 13.622 17.63 17.63 0 0 1-14.617 3.66 17.613 17.613 0 0 1-11.214-7.492 17.611 17.611 0 0 1-2.885-11.517 17.604 17.604 0 0 1 3.915-9.452 17.623 17.623 0 0 1 24.8-2.442 17.62 17.62 0 0 1 6.443 13.621z" fill="#fff"/><path stroke-width="1.43908" fill="none" stroke="#000" d="M748.31 103.247a17.614 17.614 0 0 1-6.443 13.622 17.63 17.63 0 0 1-14.617 3.66 17.613 17.613 0 0 1-11.214-7.492 17.611 17.611 0 0 1-2.885-11.517 17.604 17.604 0 0 1 3.915-9.452 17.623 17.623 0 0 1 24.8-2.442 17.62 17.62 0 0 1 6.443 13.621z"/><use xlink:href="#u" transform="matrix(14.39084 0 0 -14.39084 722.586 106.492)"/><use xlink:href="#v" transform="matrix(11.98757 0 0 -11.98757 733.678 110.09)"/><path d="M748.31 189.045a17.614 17.614 0 0 1-6.443 13.622 17.628 17.628 0 0 1-17.923 2.658 17.604 17.604 0 0 1-7.908-6.49 17.614 17.614 0 0 1-2.631-13.228 17.62 17.62 0 0 1 34.904 3.438z" fill="#fff"/><path stroke-width="1.43908" fill="none" stroke="#000" d="M748.31 189.045a17.614 17.614 0 0 1-6.443 13.622 17.628 17.628 0 0 1-17.923 2.658 17.604 17.604 0 0 1-7.908-6.49 17.614 17.614 0 0 1-2.631-13.228 17.62 17.62 0 0 1 34.904 3.438z"/><use xlink:href="#u" transform="matrix(14.39084 0 0 -14.39084 722.586 192.837)"/><use xlink:href="#w" transform="matrix(11.98757 0 0 -11.98757 733.18 196.435)"/><path stroke-width="1.43908" stroke-miterlimit="10" fill="none" stroke="#000" d="M730.688 126.798v38.704"/><path d="m730.688 122.48 2.878 5.757-2.878-1.44-2.878 1.44 2.878-5.757z"/><path stroke-width="1.43908" stroke-miterlimit="10" fill="none" stroke="#000" d="m730.688 122.48 2.878 5.757-2.878-1.44-2.878 1.44 2.878-5.757z"/><path d="m730.688 169.82-2.878-5.757 2.878 1.439 2.878-1.44-2.878 5.757z"/><path stroke-width="1.43908" stroke-miterlimit="10" fill="none" stroke="#000" d="m730.688 169.82-2.878-5.757 2.878 1.439 2.878-1.44-2.878 5.757z"/><path d="M842.879 103.247a17.57 17.57 0 0 1-.76 5.115 17.57 17.57 0 0 1-2.21 4.675 17.613 17.613 0 0 1-12.924 7.747 17.613 17.613 0 0 1-12.907-3.915 17.618 17.618 0 0 1-5.684-18.737 17.59 17.59 0 0 1 4.403-7.345 17.621 17.621 0 0 1 30.082 12.46z" fill="#fff"/><path stroke-width="1.43908" fill="none" stroke="#000" d="M842.879 103.247a17.57 17.57 0 0 1-.76 5.115 17.57 17.57 0 0 1-2.21 4.675 17.613 17.613 0 0 1-12.924 7.747 17.613 17.613 0 0 1-12.907-3.915 17.618 17.618 0 0 1-5.684-18.737 17.59 17.59 0 0 1 4.403-7.345 17.621 17.621 0 0 1 30.082 12.46z"/><use xlink:href="#u" transform="matrix(14.39084 0 0 -14.39084 816.846 106.492)"/><use xlink:href="#y" transform="matrix(11.98757 0 0 -11.98757 827.446 110.09)"/><path d="M842.879 189.045a17.57 17.57 0 0 1-.76 5.115 17.568 17.568 0 0 1-2.21 4.675 17.615 17.615 0 0 1-16.379 7.747 17.619 17.619 0 0 1-15.81-15.81 17.659 17.659 0 0 1 .674-6.842 17.591 17.591 0 0 1 4.403-7.345 17.623 17.623 0 0 1 29.323 7.345 17.601 17.601 0 0 1 .759 5.115z" fill="#fff"/><path stroke-width="1.43908" fill="none" stroke="#000" d="M842.879 189.045a17.57 17.57 0 0 1-.76 5.115 17.568 17.568 0 0 1-2.21 4.675 17.615 17.615 0 0 1-16.379 7.747 17.619 17.619 0 0 1-15.81-15.81 17.659 17.659 0 0 1 .674-6.842 17.591 17.591 0 0 1 4.403-7.345 17.623 17.623 0 0 1 29.323 7.345 17.601 17.601 0 0 1 .759 5.115z"/><use xlink:href="#u" transform="matrix(14.39084 0 0 -14.39084 816.846 192.837)"/><use xlink:href="#x" transform="matrix(11.98757 0 0 -11.98757 827.34 196.605)"/><path stroke-width="1.43908" stroke-miterlimit="10" fill="none" stroke="#000" d="M825.257 120.869v44.633"/><path d="m825.257 169.82-2.878-5.757 2.878 1.439 2.878-1.44-2.878 5.757z"/><path stroke-width="1.43908" stroke-miterlimit="10" fill="none" stroke="#000" d="m825.257 169.82-2.878-5.757 2.878 1.439 2.878-1.44-2.878 5.757zM751.929 116.012l60.722 53.073"/><path d="m748.676 113.17 6.231 1.619-2.978 1.223-.813 3.108-2.44-5.95z"/><path stroke-width="1.43908" stroke-miterlimit="10" fill="none" stroke="#000" d="m748.676 113.17 6.231 1.619-2.978 1.223-.813 3.108-2.44-5.95z"/><path d="m815.903 171.927-6.231-1.619 2.979-1.223.813-3.108 2.44 5.95z"/><path stroke-width="1.43908" stroke-miterlimit="10" fill="none" stroke="#000" d="m815.903 171.927-6.231-1.619 2.979-1.223.813-3.108 2.44 5.95z"/><path d="M750.007 256.999a18.078 18.078 0 0 1-1.378 6.93 18.062 18.062 0 0 1-2.733 4.56 18.057 18.057 0 0 1-3.938 3.568 18.082 18.082 0 0 1-6.528 2.705 18.088 18.088 0 0 1-8.79-.432 18.108 18.108 0 0 1-12.075-22.588 18.105 18.105 0 0 1 13.798-12.506 18.103 18.103 0 0 1 13.595 2.704 18.095 18.095 0 0 1 6.67 8.128 18.095 18.095 0 0 1 1.38 6.93z" fill="#fff"/><path stroke-width="1.43908" fill="none" stroke="#000" d="M750.007 256.999a18.078 18.078 0 0 1-1.378 6.93 18.062 18.062 0 0 1-2.733 4.56 18.057 18.057 0 0 1-3.938 3.568 18.082 18.082 0 0 1-6.528 2.705 18.088 18.088 0 0 1-8.79-.432 18.108 18.108 0 0 1-12.075-22.588 18.105 18.105 0 0 1 13.798-12.506 18.103 18.103 0 0 1 13.595 2.704 18.095 18.095 0 0 1 6.67 8.128 18.095 18.095 0 0 1 1.38 6.93z"/><use xlink:href="#u" transform="matrix(14.39084 0 0 -14.39084 723.665 260.474)"/><use xlink:href="#v" transform="matrix(11.98757 0 0 -11.98757 734.757 264.072)"/><path d="M750.007 343.236a18.077 18.077 0 0 1-1.378 6.93 18.064 18.064 0 0 1-2.733 4.56 18.054 18.054 0 0 1-3.938 3.569 18.092 18.092 0 0 1-8.286 2.965 18.102 18.102 0 0 1-13.265-4.024 18.083 18.083 0 0 1-4.483-5.463 18.092 18.092 0 0 1-2.138-8.537 18.097 18.097 0 0 1 3.052-10.062 18.098 18.098 0 0 1 8.128-6.67 18.112 18.112 0 0 1 25.041 16.732z" fill="#fff"/><path stroke-width="1.43908" fill="none" stroke="#000" d="M750.007 343.236a18.077 18.077 0 0 1-1.378 6.93 18.064 18.064 0 0 1-2.733 4.56 18.054 18.054 0 0 1-3.938 3.569 18.092 18.092 0 0 1-8.286 2.965 18.102 18.102 0 0 1-13.265-4.024 18.083 18.083 0 0 1-4.483-5.463 18.092 18.092 0 0 1-2.138-8.537 18.097 18.097 0 0 1 3.052-10.062 18.098 18.098 0 0 1 8.128-6.67 18.112 18.112 0 0 1 25.041 16.732z"/><use xlink:href="#u" transform="matrix(14.39084 0 0 -14.39084 723.665 346.82)"/><use xlink:href="#w" transform="matrix(11.98757 0 0 -11.98757 734.26 350.417)"/><path stroke-width="1.43908" stroke-miterlimit="10" fill="none" stroke="#000" d="M731.897 275.11v44.093"/><path d="m731.897 323.52-2.879-5.756 2.879 1.44 2.878-1.44-2.878 5.756z"/><path stroke-width="1.43908" stroke-miterlimit="10" fill="none" stroke="#000" d="m731.897 323.52-2.879-5.756 2.879 1.44 2.878-1.44-2.878 5.756z"/><path d="M845.088 256.999a18.122 18.122 0 0 1-3.053 10.062 18.113 18.113 0 0 1-23.596 5.91 18.083 18.083 0 0 1-5.462-4.483 18.116 18.116 0 0 1-4.111-11.49 18.101 18.101 0 0 1 4.111-11.489 18.107 18.107 0 0 1 24.062-3.569A18.11 18.11 0 0 1 845.088 257z" fill="#fff"/><path stroke-width="1.43908" fill="none" stroke="#000" d="M845.088 256.999a18.122 18.122 0 0 1-3.053 10.062 18.113 18.113 0 0 1-23.596 5.91 18.083 18.083 0 0 1-5.462-4.483 18.116 18.116 0 0 1-4.111-11.49 18.101 18.101 0 0 1 4.111-11.489 18.107 18.107 0 0 1 24.062-3.569A18.11 18.11 0 0 1 845.088 257z"/><use xlink:href="#u" transform="matrix(14.39084 0 0 -14.39084 818.645 260.474)"/><use xlink:href="#y" transform="matrix(11.98757 0 0 -11.98757 829.245 264.072)"/><path d="M845.088 343.236a18.122 18.122 0 0 1-3.053 10.062 18.112 18.112 0 0 1-32.821-6.529 18.06 18.06 0 0 1-.26-5.308 18.128 18.128 0 0 1 2.964-8.287 18.15 18.15 0 0 1 4.997-4.997 18.085 18.085 0 0 1 6.529-2.704 18.107 18.107 0 0 1 18.591 7.701 18.085 18.085 0 0 1 2.705 6.529 18.086 18.086 0 0 1 .348 3.533z" fill="#fff"/><path stroke-width="1.43908" fill="none" stroke="#000" d="M845.088 343.236a18.122 18.122 0 0 1-3.053 10.062 18.112 18.112 0 0 1-32.821-6.529 18.06 18.06 0 0 1-.26-5.308 18.128 18.128 0 0 1 2.964-8.287 18.15 18.15 0 0 1 4.997-4.997 18.085 18.085 0 0 1 6.529-2.704 18.107 18.107 0 0 1 18.591 7.701 18.085 18.085 0 0 1 2.705 6.529 18.086 18.086 0 0 1 .348 3.533z"/><use xlink:href="#u" transform="matrix(14.39084 0 0 -14.39084 818.645 346.82)"/><use xlink:href="#x" transform="matrix(11.98757 0 0 -11.98757 829.14 350.587)"/><path stroke-width="1.43908" stroke-miterlimit="10" fill="none" stroke="#000" d="M826.977 275.11v44.093"/><path d="m826.977 323.52-2.878-5.756 2.878 1.44 2.878-1.44-2.878 5.756z"/><path stroke-width="1.43908" stroke-miterlimit="10" fill="none" stroke="#000" d="m826.977 323.52-2.878-5.756 2.878 1.44 2.878-1.44-2.878 5.756zM744.704 330.435c23.76-10.352 45.12-11.177 64.083-2.475"/><path d="m812.708 329.759-6.432.216 2.51-2.015-.107-3.216 4.03 5.015z"/><path stroke-width="1.43908" stroke-miterlimit="10" fill="none" stroke="#000" d="m812.708 329.759-6.432.216 2.51-2.015-.107-3.216 4.03 5.015zM814.169 356.044c-18.838 13.518-40.22 14.39-64.147 2.619"/><path d="m746.143 356.756 6.44-.043-2.561 1.95.021 3.216-3.9-5.123z"/><path stroke-width="1.43908" stroke-miterlimit="10" fill="none" stroke="#000" d="m746.143 356.756 6.44-.043-2.561 1.95.021 3.216-3.9-5.123zM743.15 176.59c23.117-11.714 44.566-12.602 64.349-2.662"/><path d="m811.356 175.863-6.433-.014 2.576-1.921.007-3.217 3.85 5.152z"/><path stroke-width="1.43908" stroke-miterlimit="10" fill="none" stroke="#000" d="m811.356 175.863-6.433-.014 2.576-1.921.007-3.217 3.85 5.152z"/><path stroke-width="2.15862" stroke-miterlimit="10" fill="none" stroke="#000" d="M513.393 317.678 674.37 520.646"/><path d="m677.391 524.453-6.562-3.058 3.54-.749 1.533-3.28 1.49 7.087z"/><path stroke-width="2.15862" stroke-miterlimit="10" fill="none" stroke="#000" d="m677.391 524.453-6.562-3.058 3.54-.749 1.533-3.28 1.49 7.087z"/><path d="M511.954 216.942v-15.866c0-11.009-5.504-16.513-16.513-16.513H326.996c-11.01 0-16.514 5.504-16.514 16.513v15.866" fill="#fff"/><path stroke-miterlimit="10" fill="none" stroke="#000" d="M511.954 216.942v-15.866c0-11.009-5.504-16.513-16.513-16.513H326.996c-11.01 0-16.514 5.504-16.514 16.513v15.866M310.482 216.942v188.556c0 11.009 5.505 16.513 16.514 16.513H495.44c11.009 0 16.513-5.504 16.513-16.513V216.942M310.482 216.942h201.472" stroke-width=".71954"/><symbol id="F"><path d="M.188.31V.117C.188.076.193.05.202.04.215.025.233.018.258.018h.026V0H0v.018h.025c.028 0 .048.01.06.027.006.01.01.034.01.072v.428C.095.587.09.612.082.623.069.637.05.644.025.644H0v.018h.243c.059 0 .106-.006.14-.018A.191.191 0 0 0 .469.582.159.159 0 0 0 .504.479.173.173 0 0 0 .451.347C.415.313.365.297.3.297A.426.426 0 0 0 .188.31m0 .028a.723.723 0 0 1 .08-.01c.034 0 .064.013.088.04.025.026.037.06.037.101a.182.182 0 0 1-.018.08.12.12 0 0 1-.05.055.144.144 0 0 1-.073.019.289.289 0 0 1-.064-.01V.338z"/></symbol><symbol id="G"><path d="M.45.222H.193L.148.117A.165.165 0 0 1 .132.06c0-.01.005-.02.014-.027C.156.025.176.02.208.018V0H0v.018c.028.005.046.011.054.02a.3.3 0 0 1 .055.094l.233.545h.017l.23-.55A.258.258 0 0 1 .64.04.105.105 0 0 1 .704.018V0H.442v.018C.468.02.486.024.495.031.505.04.51.048.51.06a.202.202 0 0 1-.02.067L.45.222M.437.258.324.525.208.258h.228z"/></symbol><use xlink:href="#F" transform="matrix(18.7081 0 0 -18.7081 393.304 207.228)"/><use xlink:href="#G" transform="matrix(18.7081 0 0 -18.7081 401.827 207.228)"/><use xlink:href="#E" transform="matrix(18.7081 0 0 -18.7081 415.846 207.511)"/><path stroke-width="1.43908" stroke-miterlimit="10" fill="none" stroke="#000" d="M812.363 202.191c-19.073 13.432-40.563 14.3-64.471 2.605"/><path d="m744.014 202.896 6.432-.057-2.554 1.957.029 3.216-3.907-5.116z"/><path stroke-width="1.43908" stroke-miterlimit="10" fill="none" stroke="#000" d="m744.014 202.896 6.432-.057-2.554 1.957.029 3.216-3.907-5.116z"/><path d="M750.468 413.974a17.524 17.524 0 0 1-.339 3.438 17.576 17.576 0 0 1-2.631 6.352 17.588 17.588 0 0 1-4.862 4.862 17.618 17.618 0 0 1-24.441-4.862 17.627 17.627 0 0 1-1.629-16.533 17.622 17.622 0 0 1 33.902 6.743z" fill="#fff"/><path stroke-width="1.43908" fill="none" stroke="#000" d="M750.468 413.974a17.524 17.524 0 0 1-.339 3.438 17.576 17.576 0 0 1-2.631 6.352 17.588 17.588 0 0 1-4.862 4.862 17.618 17.618 0 0 1-24.441-4.862 17.627 17.627 0 0 1-1.629-16.533 17.622 17.622 0 0 1 33.902 6.743z"/><use xlink:href="#u" transform="matrix(14.39084 0 0 -14.39084 724.745 417.334)"/><use xlink:href="#v" transform="matrix(11.98757 0 0 -11.98757 735.836 420.932)"/><path d="M750.468 499.772a17.525 17.525 0 0 1-.339 3.438 17.577 17.577 0 0 1-2.631 6.352 17.614 17.614 0 0 1-12.924 7.747 17.615 17.615 0 0 1-14.188-5.076 17.6 17.6 0 0 1-4.402-7.346 17.622 17.622 0 1 1 34.484-5.115z" fill="#fff"/><path stroke-width="1.43908" fill="none" stroke="#000" d="M750.468 499.772a17.525 17.525 0 0 1-.339 3.438 17.577 17.577 0 0 1-2.631 6.352 17.614 17.614 0 0 1-12.924 7.747 17.615 17.615 0 0 1-14.188-5.076 17.6 17.6 0 0 1-4.402-7.346 17.622 17.622 0 1 1 34.484-5.115z"/><use xlink:href="#u" transform="matrix(14.39084 0 0 -14.39084 724.745 503.68)"/><use xlink:href="#w" transform="matrix(11.98757 0 0 -11.98757 735.339 507.277)"/><path stroke-width="1.43908" stroke-miterlimit="10" fill="none" stroke="#000" d="M732.846 437.525v38.704"/><path d="m732.846 433.207 2.878 5.757-2.878-1.44-2.878 1.44 2.878-5.757z"/><path stroke-width="1.43908" stroke-miterlimit="10" fill="none" stroke="#000" d="m732.846 433.207 2.878 5.757-2.878-1.44-2.878 1.44 2.878-5.757z"/><path d="m732.846 480.546-2.878-5.756 2.878 1.439 2.878-1.44-2.878 5.757z"/><path stroke-width="1.43908" stroke-miterlimit="10" fill="none" stroke="#000" d="m732.846 480.546-2.878-5.756 2.878 1.439 2.878-1.44-2.878 5.757z"/><path d="M845.037 413.974a17.635 17.635 0 0 1-2.08 8.307 17.606 17.606 0 0 1-5.751 6.345 17.607 17.607 0 0 1-9.79 2.97 17.634 17.634 0 0 1-9.79-2.97 17.621 17.621 0 1 1 27.411-14.652z" fill="#fff"/><path stroke-width="1.43908" fill="none" stroke="#000" d="M845.037 413.974a17.635 17.635 0 0 1-2.08 8.307 17.606 17.606 0 0 1-5.751 6.345 17.607 17.607 0 0 1-9.79 2.97 17.634 17.634 0 0 1-9.79-2.97 17.621 17.621 0 1 1 27.411-14.652z"/><use xlink:href="#u" transform="matrix(14.39084 0 0 -14.39084 819.005 417.334)"/><use xlink:href="#y" transform="matrix(11.98757 0 0 -11.98757 829.604 420.932)"/><path d="M845.037 499.772a17.636 17.636 0 0 1-2.08 8.307 17.62 17.62 0 0 1-23.848 7.234 17.604 17.604 0 0 1-7.234-7.234 17.658 17.658 0 0 1-1.996-6.58 17.66 17.66 0 0 1 .674-6.842 17.63 17.63 0 0 1 5.684-8.506 17.609 17.609 0 0 1 11.179-4 17.633 17.633 0 0 1 11.179 4 17.582 17.582 0 0 1 4.361 5.315 17.621 17.621 0 0 1 2.081 8.306z" fill="#fff"/><path stroke-width="1.43908" fill="none" stroke="#000" d="M845.037 499.772a17.636 17.636 0 0 1-2.08 8.307 17.62 17.62 0 0 1-23.848 7.234 17.604 17.604 0 0 1-7.234-7.234 17.658 17.658 0 0 1-1.996-6.58 17.66 17.66 0 0 1 .674-6.842 17.63 17.63 0 0 1 5.684-8.506 17.609 17.609 0 0 1 11.179-4 17.633 17.633 0 0 1 11.179 4 17.582 17.582 0 0 1 4.361 5.315 17.621 17.621 0 0 1 2.081 8.306z"/><use xlink:href="#u" transform="matrix(14.39084 0 0 -14.39084 819.005 503.68)"/><use xlink:href="#x" transform="matrix(11.98757 0 0 -11.98757 829.5 507.447)"/><path stroke-width="1.43908" stroke-miterlimit="10" fill="none" stroke="#000" d="M827.416 437.525v38.704"/><path d="m827.416 433.207 2.878 5.757-2.878-1.44-2.878 1.44 2.878-5.757z"/><path stroke-width="1.43908" stroke-miterlimit="10" fill="none" stroke="#000" d="m827.416 433.207 2.878 5.757-2.878-1.44-2.878 1.44 2.878-5.757z"/><path d="m827.416 480.546-2.878-5.756 2.878 1.439 2.878-1.44-2.878 5.757z"/><path stroke-width="1.43908" stroke-miterlimit="10" fill="none" stroke="#000" d="m827.416 480.546-2.878-5.756 2.878 1.439 2.878-1.44-2.878 5.757zM756.397 499.772h47.468"/><path d="m752.08 499.772 5.756-2.878-1.44 2.878 1.44 2.878-5.756-2.878z"/><path stroke-width="1.43908" stroke-miterlimit="10" fill="none" stroke="#000" d="m752.08 499.772 5.756-2.878-1.44 2.878 1.44 2.878-5.756-2.878z"/><path d="m808.182 499.772-5.756 2.878 1.44-2.878-1.44-2.878 5.756 2.878z"/><path stroke-width="1.43908" stroke-miterlimit="10" fill="none" stroke="#000" d="m808.182 499.772-5.756 2.878 1.44-2.878-1.44-2.878 5.756 2.878zM749.77 430.336l60.722 53.074"/><path d="m746.518 427.494 6.23 1.62-2.978 1.222-.813 3.109-2.44-5.95z"/><path stroke-width="1.43908" stroke-miterlimit="10" fill="none" stroke="#000" d="m746.518 427.494 6.23 1.62-2.978 1.222-.813 3.109-2.44-5.95z"/><path d="m813.744 486.252-6.23-1.619 2.978-1.223.813-3.109 2.44 5.951z"/><path stroke-width="1.43908" stroke-miterlimit="10" fill="none" stroke="#000" d="m813.744 486.252-6.23-1.619 2.978-1.223.813-3.109 2.44 5.951zM810.492 430.336 749.77 483.41"/><path d="m813.744 427.494-2.439 5.95-.813-3.108-2.979-1.223 6.231-1.619z"/><path stroke-width="1.43908" stroke-miterlimit="10" fill="none" stroke="#000" d="m813.744 427.494-2.439 5.95-.813-3.108-2.979-1.223 6.231-1.619z"/><path d="m746.518 486.252 2.439-5.95.813 3.108 2.979 1.223-6.231 1.62z"/><path stroke-width="1.43908" stroke-miterlimit="10" fill="none" stroke="#000" d="m746.518 486.252 2.439-5.95.813 3.108 2.979 1.223-6.231 1.62z"/><symbol id="H"><path d="M.4.367.544.155A.605.605 0 0 1 .63.043.125.125 0 0 1 .703.018V0H.42v.018C.438.018.452.02.46.024a.039.039 0 0 1 .017.013.031.031 0 0 1 .006.019.061.061 0 0 1-.004.022.383.383 0 0 1-.027.043l-.112.17L.202.113A.256.256 0 0 1 .176.075.045.045 0 0 1 .17.055c0-.01.005-.018.014-.025C.193.023.21.019.235.018V0H0v.018c.017.002.03.005.043.01.02.009.04.02.058.035.018.014.039.036.062.065L.32.326l-.13.19a.38.38 0 0 1-.09.102.161.161 0 0 1-.086.026v.018H.32V.644C.293.644.275.639.266.631.256.624.25.616.25.606c0-.012.008-.03.024-.052L.376.402.494.55C.508.568.516.58.52.587a.044.044 0 0 1 .005.02.03.03 0 0 1-.006.018A.038.038 0 0 1 .5.639a.16.16 0 0 1-.047.005v.018h.235V.644A.139.139 0 0 1 .594.605a.546.546 0 0 1-.062-.07L.401.367z"/></symbol><use xlink:href="#H" transform="matrix(17.98855 0 0 -17.98855 8.047 264.072)"/><symbol id="I"><path d="m0 .597.161.079h.016v-.56C.177.08.18.057.182.048a.037.037 0 0 1 .02-.02A.164.164 0 0 1 .26.017V0H.01v.018c.032 0 .052.003.061.008.01.005.016.011.02.019a.262.262 0 0 1 .005.072v.357c0 .048-.002.08-.005.093A.038.038 0 0 1 .079.59a.032.032 0 0 1-.021.007.13.13 0 0 1-.05-.015L0 .597z"/></symbol><use xlink:href="#I" transform="matrix(14.98806 0 0 -14.98806 22.668 268.39)"/><symbol id="J"><path d="M.398.622V.065h.144V0H0v.065h.144v.558h.07V.065h.115v.557H.4z"/></symbol><use xlink:href="#J" transform="matrix(21.58626 0 0 -21.58626 34.215 264.072)" fill="#333"/><use xlink:href="#H" transform="matrix(17.98855 0 0 -17.98855 51.86 264.072)"/><symbol id="K"><path d="M.45.244v-.07H.36V0H.28v.175H0v.062l.307.439h.054V.244H.45m-.17 0v.329L.048.244H.28z"/></symbol><use xlink:href="#K" transform="matrix(14.98806 0 0 -14.98806 64.96 268.39)"/><use xlink:href="#H" transform="matrix(17.98855 0 0 -17.98855 8.047 300.769)"/><use xlink:href="#I" transform="matrix(14.98806 0 0 -14.98806 22.668 305.086)"/><use xlink:href="#J" transform="matrix(21.58626 0 0 -21.58626 33.473 300.769)" fill="#333"/><use xlink:href="#H" transform="matrix(17.98855 0 0 -17.98855 51.118 300.769)"/><use xlink:href="#K" transform="matrix(14.98806 0 0 -14.98806 64.217 305.086)"/><use xlink:href="#t" transform="matrix(14.98806 0 0 -14.98806 71.477 305.086)"/><symbol id="L"><path d="M.04.91V0H0v.91h.04z"/></symbol><use xlink:href="#L" transform="matrix(17.98855 0 0 -17.98855 76.64 304.65)"/><use xlink:href="#t" transform="matrix(17.98855 0 0 -17.98855 78.824 300.769)"/><use xlink:href="#H" transform="matrix(17.98855 0 0 -17.98855 83.464 300.769)"/><symbol id="M"><path d="M.437.127.391 0H0v.018c.115.105.196.19.243.257.047.066.07.127.07.182a.144.144 0 0 1-.039.104.123.123 0 0 1-.092.04.144.144 0 0 1-.088-.029A.165.165 0 0 1 .037.49H.02c.008.06.029.106.063.138a.176.176 0 0 0 .126.049.186.186 0 0 0 .134-.052.163.163 0 0 0 .054-.122.236.236 0 0 0-.023-.1.663.663 0 0 0-.117-.168 3.477 3.477 0 0 0-.152-.16h.173c.035 0 .06.001.074.004a.099.099 0 0 1 .038.015c.012.008.021.02.03.034h.018z"/></symbol><use xlink:href="#M" transform="matrix(14.98806 0 0 -14.98806 96.65 305.086)"/><use xlink:href="#H" transform="matrix(17.98855 0 0 -17.98855 8.047 337.465)"/><use xlink:href="#I" transform="matrix(14.98806 0 0 -14.98806 22.668 341.782)"/><use xlink:href="#J" transform="matrix(21.58626 0 0 -21.58626 33.473 337.465)" fill="#333"/><use xlink:href="#H" transform="matrix(17.98855 0 0 -17.98855 51.118 337.465)"/><use xlink:href="#K" transform="matrix(14.98806 0 0 -14.98806 64.217 341.782)"/><use xlink:href="#t" transform="matrix(14.98806 0 0 -14.98806 71.477 341.782)"/><use xlink:href="#L" transform="matrix(17.98855 0 0 -17.98855 76.64 341.348)"/><use xlink:href="#t" transform="matrix(17.98855 0 0 -17.98855 78.824 337.465)"/><use xlink:href="#H" transform="matrix(17.98855 0 0 -17.98855 83.464 337.465)"/><symbol id="N"><path d="M.01.548A.268.268 0 0 0 .082.65a.162.162 0 0 0 .107.036.149.149 0 0 0 .123-.051.127.127 0 0 0 .032-.083c0-.048-.03-.098-.091-.15A.197.197 0 0 0 .345.336.177.177 0 0 0 .376.231.22.22 0 0 0 .322.082C.274.027.205 0 .115 0 .071 0 .04.006.024.017.008.027 0 .04 0 .052c0 .01.004.018.011.025a.04.04 0 0 0 .028.01.084.084 0 0 0 .025-.003.285.285 0 0 0 .038-.018.245.245 0 0 1 .04-.018.135.135 0 0 1 .039-.006c.033 0 .062.013.086.04a.127.127 0 0 1 .037.09A.176.176 0 0 1 .26.29a.199.199 0 0 1-.057.035.184.184 0 0 1-.075.016H.111v.015a.2.2 0 0 1 .077.028.147.147 0 0 1 .057.055.145.145 0 0 1 .018.07.108.108 0 0 1-.11.113C.103.621.06.594.026.54L.01.548z"/></symbol><use xlink:href="#N" transform="matrix(14.98806 0 0 -14.98806 96.936 341.958)"/><use xlink:href="#H" transform="matrix(17.98855 0 0 -17.98855 8.047 374.162)"/><use xlink:href="#I" transform="matrix(14.98806 0 0 -14.98806 22.668 378.48)"/><use xlink:href="#J" transform="matrix(21.58626 0 0 -21.58626 33.473 374.162)" fill="#333"/><use xlink:href="#H" transform="matrix(17.98855 0 0 -17.98855 51.118 374.162)"/><use xlink:href="#K" transform="matrix(14.98806 0 0 -14.98806 64.217 378.48)"/><use xlink:href="#t" transform="matrix(14.98806 0 0 -14.98806 71.477 378.48)"/><symbol id="O"><path d="M.272.017V0A.215.215 0 0 0 .14.066a.175.175 0 0 0-.051.122c0 .023.004.05.011.082a.336.336 0 0 1 .011.072c0 .024-.01.046-.03.066A.132.132 0 0 1 0 .445v.02a.134.134 0 0 1 .082.037c.02.02.03.043.03.066A.33.33 0 0 1 .1.641.354.354 0 0 0 .09.723c0 .044.017.084.05.121A.213.213 0 0 0 .273.91V.893A.155.155 0 0 1 .188.848.102.102 0 0 1 .162.78c0-.019.004-.044.01-.076a.353.353 0 0 0 .012-.08.154.154 0 0 0-.036-.096A.23.23 0 0 0 .04.457.232.232 0 0 0 .147.383.156.156 0 0 0 .184.287a.353.353 0 0 0-.011-.08.363.363 0 0 1-.01-.077C.162.106.17.083.187.062A.157.157 0 0 1 .272.018z"/></symbol><use xlink:href="#L" transform="matrix(17.98855 0 0 -17.98855 76.64 378.044)"/><use xlink:href="#t" transform="matrix(17.98855 0 0 -17.98855 78.824 374.162)"/><use xlink:href="#O" transform="matrix(17.98855 0 0 -17.98855 85.806 378.044)"/><use xlink:href="#H" transform="matrix(17.98855 0 0 -17.98855 92.098 374.162)"/><symbol id="P"><path d="M0 0v.021C.034.033.06.05.078.073a.116.116 0 0 1 .027.074.027.027 0 0 1-.004.016C.1.166.097.167.094.167a.071.071 0 0 1-.023-.01.04.04 0 0 0-.019-.004.051.051 0 0 0-.038.014.053.053 0 0 0-.014.04c0 .015.006.029.018.04a.064.064 0 0 0 .045.017c.021 0 .04-.01.057-.028A.106.106 0 0 0 .146.162.144.144 0 0 0 .11.068.228.228 0 0 0 0 0z"/></symbol><use xlink:href="#M" transform="matrix(14.98806 0 0 -14.98806 105.285 378.48)"/><use xlink:href="#P" transform="matrix(14.98806 0 0 -14.98806 113.262 380.975)"/><use xlink:href="#t" transform="matrix(14.98806 0 0 -14.98806 116.204 378.48)"/><use xlink:href="#H" transform="matrix(17.98855 0 0 -17.98855 120.093 374.162)"/><use xlink:href="#N" transform="matrix(14.98806 0 0 -14.98806 133.565 378.655)"/><symbol id="Q"><path d="M0 .893V.91A.21.21 0 0 0 .132.844.174.174 0 0 0 .184.722.352.352 0 0 0 .172.641a.33.33 0 0 1-.01-.073C.161.545.17.523.19.502A.136.136 0 0 1 .272.465v-.02A.134.134 0 0 1 .19.408.093.093 0 0 1 .161.342C.161.325.165.301.172.27A.352.352 0 0 0 .184.188.175.175 0 0 0 .132.066.213.213 0 0 0 0 0v.017c.038.01.066.025.083.045C.101.082.11.105.11.13.11.15.107.175.1.207a.351.351 0 0 0-.012.08C.088.318.1.35.124.381c.024.031.06.055.108.072a.236.236 0 0 0-.107.073.156.156 0 0 0-.037.097c0 .022.004.049.011.08A.348.348 0 0 1 .11.78a.1.1 0 0 1-.027.068A.152.152 0 0 1 0 .893z"/></symbol><use xlink:href="#Q" transform="matrix(17.98855 0 0 -17.98855 142.012 378.044)"/><path stroke-width="1.43908" stroke-miterlimit="10" fill="none" stroke="#333" d="m43.173 287.817-7.196 14.39M43.173 324.513l-7.196 14.391"/><path d="M64.399 389.992h2.159v2.158h-2.159m8.635-2.158h2.158v2.158h-2.158m8.634-2.158h2.159v2.158h-2.159"/></g></svg>