<svg xmlns="http://www.w3.org/2000/svg" xmlns:xlink="http://www.w3.org/1999/xlink" width="834.176" height="554.28" viewBox="0 0 625.632 415.71"><clipPath id="a"><path transform="matrix(.24 0 0 .24 -1.337 -3.772)" d="M0 0h2812.5v1957.956H0z" fill-rule="evenodd"/></clipPath><g clip-path="url(#a)"><path stroke-miterlimit="10" fill="none" stroke="#000" d="M196.866 241.51c104.618-23.197 125.986 18.697 64.104 125.68" stroke-width=".71962"/><path fill="none" stroke="#000" d="M196.917 241.977c0 .286-.055.562-.165.826-.11.264-.265.498-.468.7a2.138 2.138 0 0 1-.7.468 2.139 2.139 0 0 1-1.652 0 2.138 2.138 0 0 1-.7-.468 2.139 2.139 0 0 1-.469-.7 2.138 2.138 0 0 1-.164-.826c0-.286.055-.562.164-.826.11-.265.266-.498.468-.7a2.138 2.138 0 0 1 1.527-.632 2.139 2.139 0 0 1 1.527.632c.202.202.358.435.467.7.11.264.165.54.165.826z" stroke-width=".71962"/><path d="M30.5 257.715a14.265 14.265 0 0 1-1.09 5.472 14.265 14.265 0 0 1-3.1 4.64 14.267 14.267 0 0 1-4.638 3.099 14.266 14.266 0 0 1-5.472 1.088 14.266 14.266 0 0 1-5.473-1.088 14.268 14.268 0 0 1-4.639-3.1 14.265 14.265 0 0 1-3.1-4.639 14.265 14.265 0 0 1-1.088-5.472 14.265 14.265 0 0 1 1.089-5.472 14.264 14.264 0 0 1 3.1-4.64 14.263 14.263 0 0 1 4.638-3.1 14.266 14.266 0 0 1 5.473-1.088 14.267 14.267 0 0 1 5.472 1.089 14.264 14.264 0 0 1 4.639 3.1 14.265 14.265 0 0 1 3.1 4.639 14.265 14.265 0 0 1 1.088 5.472z" fill="#fff"/><path fill="none" stroke="#000" d="M30.5 257.715a14.265 14.265 0 0 1-1.09 5.472 14.265 14.265 0 0 1-3.1 4.64 14.267 14.267 0 0 1-4.638 3.099 14.266 14.266 0 0 1-5.472 1.088 14.266 14.266 0 0 1-5.473-1.088 14.268 14.268 0 0 1-4.639-3.1 14.265 14.265 0 0 1-3.1-4.639 14.265 14.265 0 0 1-1.088-5.472 14.265 14.265 0 0 1 1.089-5.472 14.264 14.264 0 0 1 3.1-4.64 14.263 14.263 0 0 1 4.638-3.1 14.266 14.266 0 0 1 5.473-1.088 14.267 14.267 0 0 1 5.472 1.089 14.264 14.264 0 0 1 4.639 3.1 14.265 14.265 0 0 1 3.1 4.639 14.265 14.265 0 0 1 1.088 5.472z" stroke-width=".71962"/><symbol id="b"><path d="m.416.388.182-.27A.426.426 0 0 1 .663.034.094.094 0 0 1 .708.018V0H.386v.018C.41.02.428.024.436.03a.026.026 0 0 1 .01.021.034.034 0 0 1-.003.016.496.496 0 0 1-.034.055L.313.265.21.14C.181.104.166.078.166.065c0-.01.004-.018.012-.026A.068.068 0 0 1 .212.02.188.188 0 0 1 .254.018V0H0v.018a.162.162 0 0 1 .068.024.53.53 0 0 1 .092.093l.131.16-.168.248-.048.068A.09.09 0 0 1 .05.634a.11.11 0 0 1-.035.01v.018h.329V.644H.326C.307.644.294.641.286.634a.027.027 0 0 1-.01-.022c0-.007 0-.013.003-.018L.312.543.396.418l.07.085C.5.547.517.578.517.596A.042.042 0 0 1 .51.62.048.048 0 0 1 .49.638a.114.114 0 0 1-.044.006v.018h.243V.644A.137.137 0 0 1 .642.637.118.118 0 0 1 .604.612 1.122 1.122 0 0 1 .541.54L.416.388z"/></symbol><use xlink:href="#b" transform="matrix(11.51386 0 0 -11.51386 9.446 260.327)"/><symbol id="c"><path d="M.26.676V.134A.34.34 0 0 1 .265.056.05.05 0 0 1 .288.03a.106.106 0 0 1 .054-.01h.015V0H.01v.018h.017c.029 0 .049.003.06.01a.05.05 0 0 1 .025.027.297.297 0 0 1 .007.08v.343c0 .03-.002.05-.005.057a.04.04 0 0 1-.016.02.046.046 0 0 1-.028.007.157.157 0 0 1-.06-.015L0 .564l.244.112H.26z"/></symbol><use xlink:href="#c" transform="matrix(9.59248 0 0 -9.59248 18.32 263.34)"/><path d="M89.508 257.715a14.266 14.266 0 0 1-1.089 5.472 14.265 14.265 0 0 1-3.1 4.64 14.268 14.268 0 0 1-4.639 3.099 14.266 14.266 0 0 1-5.472 1.088 14.266 14.266 0 0 1-5.472-1.088 14.267 14.267 0 0 1-4.64-3.1 14.265 14.265 0 0 1-3.099-4.639 14.265 14.265 0 0 1-1.088-5.472 14.265 14.265 0 0 1 1.088-5.472 14.264 14.264 0 0 1 3.1-4.64 14.263 14.263 0 0 1 4.639-3.1 14.266 14.266 0 0 1 5.472-1.088 14.267 14.267 0 0 1 5.472 1.089 14.265 14.265 0 0 1 4.64 3.1 14.266 14.266 0 0 1 3.1 4.639 14.265 14.265 0 0 1 1.088 5.472z" fill="#fff"/><path fill="none" stroke="#000" d="M89.508 257.715a14.266 14.266 0 0 1-1.089 5.472 14.265 14.265 0 0 1-3.1 4.64 14.268 14.268 0 0 1-4.639 3.099 14.266 14.266 0 0 1-5.472 1.088 14.266 14.266 0 0 1-5.472-1.088 14.267 14.267 0 0 1-4.64-3.1 14.265 14.265 0 0 1-3.099-4.639 14.265 14.265 0 0 1-1.088-5.472 14.265 14.265 0 0 1 1.088-5.472 14.264 14.264 0 0 1 3.1-4.64 14.263 14.263 0 0 1 4.639-3.1 14.266 14.266 0 0 1 5.472-1.088 14.267 14.267 0 0 1 5.472 1.089 14.265 14.265 0 0 1 4.64 3.1 14.266 14.266 0 0 1 3.1 4.639 14.265 14.265 0 0 1 1.088 5.472z" stroke-width=".71962"/><use xlink:href="#b" transform="matrix(11.51386 0 0 -11.51386 68.454 260.327)"/><symbol id="d"><path d="M.39 0H0v.01C.12.154.192.25.217.299a.31.31 0 0 1 .039.144c0 .034-.01.062-.032.085A.102.102 0 0 1 .146.56C.096.561.057.536.03.486L.012.492a.27.27 0 0 0 .08.139c.036.03.077.045.124.045A.183.183 0 0 0 .308.652.17.17 0 0 0 .373.588.153.153 0 0 0 .396.512.276.276 0 0 0 .36.38 1.251 1.251 0 0 0 .145.128h.143c.035 0 .058.001.068.004.01.003.02.008.026.015A.2.2 0 0 1 .41.191h.018L.39 0z"/></symbol><use xlink:href="#d" transform="matrix(9.59248 0 0 -9.59248 76.93 263.34)"/><path stroke-miterlimit="10" fill="none" stroke="#000" d="M35.003 257.715h21.589" stroke-width=".71962"/><path fill="none" stroke="#000" d="M35.003 257.715c0 .286-.055.561-.164.826-.11.264-.266.498-.468.7a2.139 2.139 0 0 1-.7.468c-.265.11-.54.165-.827.165-.286 0-.561-.055-.826-.165a2.139 2.139 0 0 1-.7-.468 2.139 2.139 0 0 1-.468-.7 2.138 2.138 0 0 1-.165-.826c0-.286.055-.562.165-.826.11-.265.265-.498.468-.7a2.139 2.139 0 0 1 1.527-.632 2.139 2.139 0 0 1 1.527.632c.201.202.357.435.467.7.11.264.164.54.164.826zM60.91 257.715c0 .286-.055.561-.165.826-.11.264-.266.498-.468.7a2.139 2.139 0 0 1-.7.468c-.265.11-.54.165-.827.165-.286 0-.561-.055-.826-.165a2.139 2.139 0 0 1-.7-.468 2.138 2.138 0 0 1-.468-.7 2.138 2.138 0 0 1-.164-.826c0-.286.054-.562.164-.826.11-.265.266-.498.468-.7a2.139 2.139 0 0 1 1.527-.632 2.139 2.139 0 0 1 1.527.632c.201.202.357.435.467.7.11.264.164.54.164.826z" stroke-width=".71962"/><path d="M60.003 322.063a14.265 14.265 0 0 1-1.088 5.472 14.265 14.265 0 0 1-3.1 4.64 14.266 14.266 0 0 1-4.639 3.099 14.265 14.265 0 0 1-5.472 1.088 14.262 14.262 0 0 1-5.472-1.088 14.264 14.264 0 0 1-4.64-3.1 14.264 14.264 0 0 1-3.1-4.639 14.265 14.265 0 0 1-1.088-5.472 14.265 14.265 0 0 1 1.089-5.472 14.265 14.265 0 0 1 3.1-4.64 14.265 14.265 0 0 1 4.639-3.1 14.266 14.266 0 0 1 5.472-1.088 14.265 14.265 0 0 1 5.472 1.089 14.264 14.264 0 0 1 4.64 3.1 14.265 14.265 0 0 1 3.099 4.639 14.265 14.265 0 0 1 1.088 5.472z" fill="#fff"/><path fill="none" stroke="#000" d="M60.003 322.063a14.265 14.265 0 0 1-1.088 5.472 14.265 14.265 0 0 1-3.1 4.64 14.266 14.266 0 0 1-4.639 3.099 14.265 14.265 0 0 1-5.472 1.088 14.262 14.262 0 0 1-5.472-1.088 14.264 14.264 0 0 1-4.64-3.1 14.264 14.264 0 0 1-3.1-4.639 14.265 14.265 0 0 1-1.088-5.472 14.265 14.265 0 0 1 1.089-5.472 14.265 14.265 0 0 1 3.1-4.64 14.265 14.265 0 0 1 4.639-3.1 14.266 14.266 0 0 1 5.472-1.088 14.265 14.265 0 0 1 5.472 1.089 14.264 14.264 0 0 1 4.64 3.1 14.265 14.265 0 0 1 3.099 4.639 14.265 14.265 0 0 1 1.088 5.472z" stroke-width=".71962"/><use xlink:href="#b" transform="matrix(11.51386 0 0 -11.51386 38.95 324.373)"/><symbol id="e"><path d="M.132.346v.017c.037.011.063.021.077.03.014.01.027.024.037.043a.12.12 0 0 1 .016.058c0 .027-.01.05-.03.069a.1.1 0 0 1-.073.03C.113.592.074.567.042.52L.024.526a.294.294 0 0 0 .09.123.2.2 0 0 0 .123.04A.158.158 0 0 0 .35.649.13.13 0 0 0 .374.479a.179.179 0 0 0-.065-.06.228.228 0 0 0 .087-.068.166.166 0 0 0 .03-.102.236.236 0 0 0-.075-.177.276.276 0 0 0-.2-.072C.093 0 .053.01.027.028A.06.06 0 0 0 0 .078c0 .015.005.028.016.038.01.011.023.016.037.016.011 0 .021-.002.03-.007A.61.61 0 0 0 .14.083a.146.146 0 0 1 .089-.04c.024 0 .045.01.062.03.017.018.026.043.026.072a.188.188 0 0 1-.047.123.245.245 0 0 1-.137.078z"/></symbol><use xlink:href="#e" transform="matrix(9.59248 0 0 -9.59248 47.346 327.522)"/><path d="M116.853 372.112a14.265 14.265 0 0 1-1.088 5.472 14.266 14.266 0 0 1-3.1 4.64 14.27 14.27 0 0 1-4.64 3.1 14.268 14.268 0 0 1-5.471 1.088 14.263 14.263 0 0 1-5.473-1.089 14.265 14.265 0 0 1-4.639-3.1 14.264 14.264 0 0 1-3.1-4.639 14.266 14.266 0 0 1-1.088-5.472 14.267 14.267 0 0 1 1.089-5.472 14.267 14.267 0 0 1 3.1-4.639 14.265 14.265 0 0 1 4.638-3.1 14.264 14.264 0 0 1 5.473-1.088 14.268 14.268 0 0 1 5.472 1.088 14.265 14.265 0 0 1 4.639 3.1 14.264 14.264 0 0 1 3.1 4.64 14.264 14.264 0 0 1 1.088 5.471z" fill="#fff"/><path fill="none" stroke="#000" d="M116.853 372.112a14.265 14.265 0 0 1-1.088 5.472 14.266 14.266 0 0 1-3.1 4.64 14.27 14.27 0 0 1-4.64 3.1 14.268 14.268 0 0 1-5.471 1.088 14.263 14.263 0 0 1-5.473-1.089 14.265 14.265 0 0 1-4.639-3.1 14.264 14.264 0 0 1-3.1-4.639 14.266 14.266 0 0 1-1.088-5.472 14.267 14.267 0 0 1 1.089-5.472 14.267 14.267 0 0 1 3.1-4.639 14.265 14.265 0 0 1 4.638-3.1 14.264 14.264 0 0 1 5.473-1.088 14.268 14.268 0 0 1 5.472 1.088 14.265 14.265 0 0 1 4.639 3.1 14.264 14.264 0 0 1 3.1 4.64 14.264 14.264 0 0 1 1.088 5.471z" stroke-width=".71962"/><use xlink:href="#b" transform="matrix(11.51386 0 0 -11.51386 95.8 374.746)"/><symbol id="f"><path d="m0 .25.314.426h.06V.25h.06V.148h-.06V0H.24v.148H0V.25m.047 0H.24v.26L.047.25z"/></symbol><use xlink:href="#f" transform="matrix(9.59248 0 0 -9.59248 104.28 377.76)"/><path d="M145.638 314.91a14.266 14.266 0 0 1-1.089 5.472 14.267 14.267 0 0 1-3.1 4.64 14.266 14.266 0 0 1-4.639 3.099 14.265 14.265 0 0 1-5.472 1.088 14.265 14.265 0 0 1-5.472-1.088 14.264 14.264 0 0 1-4.64-3.1 14.266 14.266 0 0 1-3.099-4.639 14.265 14.265 0 0 1-1.088-5.472 14.265 14.265 0 0 1 1.088-5.472 14.265 14.265 0 0 1 3.1-4.64 14.266 14.266 0 0 1 4.639-3.1 14.267 14.267 0 0 1 5.472-1.087 14.265 14.265 0 0 1 5.472 1.088 14.266 14.266 0 0 1 4.64 3.1 14.266 14.266 0 0 1 3.1 4.639 14.265 14.265 0 0 1 1.088 5.472z" fill="#fff"/><path fill="none" stroke="#000" d="M145.638 314.91a14.266 14.266 0 0 1-1.089 5.472 14.267 14.267 0 0 1-3.1 4.64 14.266 14.266 0 0 1-4.639 3.099 14.265 14.265 0 0 1-5.472 1.088 14.265 14.265 0 0 1-5.472-1.088 14.264 14.264 0 0 1-4.64-3.1 14.266 14.266 0 0 1-3.099-4.639 14.265 14.265 0 0 1-1.088-5.472 14.265 14.265 0 0 1 1.088-5.472 14.265 14.265 0 0 1 3.1-4.64 14.266 14.266 0 0 1 4.639-3.1 14.267 14.267 0 0 1 5.472-1.087 14.265 14.265 0 0 1 5.472 1.088 14.266 14.266 0 0 1 4.64 3.1 14.266 14.266 0 0 1 3.1 4.639 14.265 14.265 0 0 1 1.088 5.472z" stroke-width=".71962"/><use xlink:href="#b" transform="matrix(11.51386 0 0 -11.51386 124.584 317.177)"/><symbol id="g"><path d="M.119.676h.31L.379.55H.12L.094.484A.413.413 0 0 0 .353.4.201.201 0 0 0 .428.24C.428.2.416.16.393.122a.233.233 0 0 0-.098-.09A.307.307 0 0 0 .157 0a.216.216 0 0 0-.124.03c-.02.015-.03.03-.03.05 0 .013.005.025.015.036.01.011.023.016.037.016A.103.103 0 0 0 .094.125.41.41 0 0 0 .16.083.24.24 0 0 1 .21.055.094.094 0 0 1 .247.05c.027 0 .05.01.068.03.019.02.028.043.028.07 0 .057-.028.104-.086.14A.402.402 0 0 1 .04.342H0l.119.334z"/></symbol><use xlink:href="#g" transform="matrix(9.59248 0 0 -9.59248 133.15 320.321)"/><path d="M179.46 372.112a14.266 14.266 0 0 1-1.089 5.472 14.265 14.265 0 0 1-3.1 4.64 14.27 14.27 0 0 1-4.639 3.1 14.268 14.268 0 0 1-5.472 1.088 14.263 14.263 0 0 1-5.472-1.089 14.265 14.265 0 0 1-4.64-3.1 14.264 14.264 0 0 1-3.099-4.639 14.266 14.266 0 0 1-1.088-5.472 14.267 14.267 0 0 1 1.088-5.472 14.267 14.267 0 0 1 3.1-4.639 14.265 14.265 0 0 1 4.639-3.1 14.264 14.264 0 0 1 5.472-1.088 14.268 14.268 0 0 1 5.472 1.088 14.265 14.265 0 0 1 4.64 3.1 14.265 14.265 0 0 1 3.1 4.64 14.265 14.265 0 0 1 1.088 5.471z" fill="#fff"/><path fill="none" stroke="#000" d="M179.46 372.112a14.266 14.266 0 0 1-1.089 5.472 14.265 14.265 0 0 1-3.1 4.64 14.27 14.27 0 0 1-4.639 3.1 14.268 14.268 0 0 1-5.472 1.088 14.263 14.263 0 0 1-5.472-1.089 14.265 14.265 0 0 1-4.64-3.1 14.264 14.264 0 0 1-3.099-4.639 14.266 14.266 0 0 1-1.088-5.472 14.267 14.267 0 0 1 1.088-5.472 14.267 14.267 0 0 1 3.1-4.639 14.265 14.265 0 0 1 4.639-3.1 14.264 14.264 0 0 1 5.472-1.088 14.268 14.268 0 0 1 5.472 1.088 14.265 14.265 0 0 1 4.64 3.1 14.265 14.265 0 0 1 3.1 4.64 14.265 14.265 0 0 1 1.088 5.471z" stroke-width=".71962"/><use xlink:href="#b" transform="matrix(11.51386 0 0 -11.51386 158.406 374.746)"/><symbol id="h"><path d="M.433.69V.675A.465.465 0 0 1 .29.618.276.276 0 0 1 .206.532.418.418 0 0 1 .158.407c.015.01.026.016.036.019.021.006.042.01.064.01A.16.16 0 0 0 .38.38a.208.208 0 0 0 .05-.147.269.269 0 0 0-.027-.12A.2.2 0 0 0 .222 0 .205.205 0 0 0 .11.033a.224.224 0 0 0-.081.098.34.34 0 0 0-.029.14.42.42 0 0 0 .053.208.398.398 0 0 0 .152.152.453.453 0 0 0 .228.058M.152.367A1.904 1.904 0 0 1 .148.27C.148.224.152.18.16.139a.198.198 0 0 1 .035-.09.05.05 0 0 1 .038-.017c.015 0 .029.008.04.026.012.017.018.053.018.106 0 .09-.01.152-.033.186a.064.064 0 0 1-.056.033.119.119 0 0 1-.051-.016z"/></symbol><use xlink:href="#h" transform="matrix(9.59248 0 0 -9.59248 167.004 377.89)"/><path d="M224.795 312.053a14.265 14.265 0 0 1-1.088 5.472 14.267 14.267 0 0 1-3.1 4.64 14.264 14.264 0 0 1-4.639 3.099 14.265 14.265 0 0 1-5.472 1.089 14.262 14.262 0 0 1-5.472-1.089 14.265 14.265 0 0 1-4.64-3.1 14.265 14.265 0 0 1-3.099-4.639 14.265 14.265 0 0 1-1.089-5.472 14.265 14.265 0 0 1 1.089-5.472 14.265 14.265 0 0 1 3.1-4.64 14.265 14.265 0 0 1 4.639-3.099 14.268 14.268 0 0 1 5.472-1.088 14.265 14.265 0 0 1 5.472 1.088 14.266 14.266 0 0 1 4.64 3.1 14.267 14.267 0 0 1 3.099 4.639 14.265 14.265 0 0 1 1.088 5.472z" fill="#fff"/><path fill="none" stroke="#000" d="M224.795 312.053a14.265 14.265 0 0 1-1.088 5.472 14.267 14.267 0 0 1-3.1 4.64 14.264 14.264 0 0 1-4.639 3.099 14.265 14.265 0 0 1-5.472 1.089 14.262 14.262 0 0 1-5.472-1.089 14.265 14.265 0 0 1-4.64-3.1 14.265 14.265 0 0 1-3.099-4.639 14.265 14.265 0 0 1-1.089-5.472 14.265 14.265 0 0 1 1.089-5.472 14.265 14.265 0 0 1 3.1-4.64 14.265 14.265 0 0 1 4.639-3.099 14.268 14.268 0 0 1 5.472-1.088 14.265 14.265 0 0 1 5.472 1.088 14.266 14.266 0 0 1 4.64 3.1 14.267 14.267 0 0 1 3.099 4.639 14.265 14.265 0 0 1 1.088 5.472z" stroke-width=".71962"/><use xlink:href="#b" transform="matrix(11.51386 0 0 -11.51386 203.742 314.298)"/><symbol id="i"><path d="m.144 0 .18.546H.187a.272.272 0 0 1-.122-.02A.11.11 0 0 1 .02.47H0l.048.206h.394L.22 0H.144z"/></symbol><use xlink:href="#i" transform="matrix(9.59248 0 0 -9.59248 212.307 317.443)"/><path d="M203.207 257.715a14.266 14.266 0 0 1-1.089 5.472 14.265 14.265 0 0 1-3.1 4.64 14.266 14.266 0 0 1-4.638 3.099 14.266 14.266 0 0 1-5.473 1.088 14.266 14.266 0 0 1-5.472-1.088 14.267 14.267 0 0 1-4.639-3.1 14.264 14.264 0 0 1-3.1-4.639 14.264 14.264 0 0 1-1.088-5.472 14.264 14.264 0 0 1 1.088-5.472 14.263 14.263 0 0 1 3.1-4.64 14.262 14.262 0 0 1 4.64-3.1 14.265 14.265 0 0 1 5.471-1.088 14.267 14.267 0 0 1 5.473 1.089 14.265 14.265 0 0 1 4.639 3.1 14.264 14.264 0 0 1 3.1 4.639 14.265 14.265 0 0 1 1.088 5.472z" fill="#fff"/><path fill="none" stroke="#000" d="M203.207 257.715a14.266 14.266 0 0 1-1.089 5.472 14.265 14.265 0 0 1-3.1 4.64 14.266 14.266 0 0 1-4.638 3.099 14.266 14.266 0 0 1-5.473 1.088 14.266 14.266 0 0 1-5.472-1.088 14.267 14.267 0 0 1-4.639-3.1 14.264 14.264 0 0 1-3.1-4.639 14.264 14.264 0 0 1-1.088-5.472 14.264 14.264 0 0 1 1.088-5.472 14.263 14.263 0 0 1 3.1-4.64 14.262 14.262 0 0 1 4.64-3.1 14.265 14.265 0 0 1 5.471-1.088 14.267 14.267 0 0 1 5.473 1.089 14.265 14.265 0 0 1 4.639 3.1 14.264 14.264 0 0 1 3.1 4.639 14.265 14.265 0 0 1 1.088 5.472z" stroke-width=".71962"/><use xlink:href="#b" transform="matrix(11.51386 0 0 -11.51386 182.153 260.327)"/><symbol id="j"><path d="M0 0v.014c.054.012.1.03.137.054a.279.279 0 0 1 .09.09.354.354 0 0 1 .046.122A.307.307 0 0 0 .22.258.165.165 0 0 0 .177.252.164.164 0 0 0 .05.307a.211.211 0 0 0-.05.148c0 .044.01.084.027.12a.2.2 0 0 0 .078.084A.2.2 0 0 0 .32.656.231.231 0 0 0 .403.56c.02-.042.03-.09.03-.143a.425.425 0 0 0-.05-.2.38.38 0 0 0-.149-.154A.495.495 0 0 0 0 0m.28.321C.284.358.285.39.285.417c0 .06-.007.115-.02.166A.125.125 0 0 1 .23.646a.046.046 0 0 1-.032.01.043.043 0 0 1-.038-.02C.147.615.141.578.141.525c0-.09.01-.153.032-.187A.064.064 0 0 1 .23.306C.243.306.26.31.28.32z"/></symbol><use xlink:href="#j" transform="matrix(9.59248 0 0 -9.59248 190.69 263.472)"/><path d="M265.814 258.427a14.266 14.266 0 0 1-1.089 5.472 14.268 14.268 0 0 1-3.1 4.64 14.266 14.266 0 0 1-4.639 3.1 14.265 14.265 0 0 1-5.472 1.088 14.264 14.264 0 0 1-5.472-1.089 14.266 14.266 0 0 1-4.64-3.1 14.265 14.265 0 0 1-3.099-4.639 14.266 14.266 0 0 1-1.088-5.472 14.263 14.263 0 0 1 1.088-5.472 14.265 14.265 0 0 1 3.1-4.639 14.262 14.262 0 0 1 4.639-3.1 14.266 14.266 0 0 1 5.472-1.088 14.264 14.264 0 0 1 5.472 1.088 14.262 14.262 0 0 1 4.64 3.1 14.266 14.266 0 0 1 3.1 4.64 14.265 14.265 0 0 1 1.088 5.471z" fill="#fff"/><path fill="none" stroke="#000" d="M265.814 258.427a14.266 14.266 0 0 1-1.089 5.472 14.268 14.268 0 0 1-3.1 4.64 14.266 14.266 0 0 1-4.639 3.1 14.265 14.265 0 0 1-5.472 1.088 14.264 14.264 0 0 1-5.472-1.089 14.266 14.266 0 0 1-4.64-3.1 14.265 14.265 0 0 1-3.099-4.639 14.266 14.266 0 0 1-1.088-5.472 14.263 14.263 0 0 1 1.088-5.472 14.265 14.265 0 0 1 3.1-4.639 14.262 14.262 0 0 1 4.639-3.1 14.266 14.266 0 0 1 5.472-1.088 14.264 14.264 0 0 1 5.472 1.088 14.262 14.262 0 0 1 4.64 3.1 14.266 14.266 0 0 1 3.1 4.64 14.265 14.265 0 0 1 1.088 5.471z" stroke-width=".71962"/><use xlink:href="#b" transform="matrix(11.51386 0 0 -11.51386 242.365 261.047)"/><symbol id="k"><path d="M.427.345A.597.597 0 0 0 .4.16.249.249 0 0 0 .354.073.225.225 0 0 0 .291.02.159.159 0 0 0 .213 0a.158.158 0 0 0-.086.024.23.23 0 0 0-.068.07.34.34 0 0 0-.038.089.62.62 0 0 0 .01.353c.016.049.041.087.075.113a.17.17 0 0 0 .107.04.17.17 0 0 0 .108-.04.224.224 0 0 0 .074-.105.588.588 0 0 0 .032-.2m-.15.002c0 .116 0 .183-.002.202C.272.594.264.624.25.64.243.65.231.656.211.656A.046.046 0 0 1 .18.644C.167.633.159.612.154.584a3.642 3.642 0 0 1 .004-.49C.163.07.17.055.178.047A.054.054 0 0 1 .216.036C.23.036.243.04.25.05a.155.155 0 0 1 .024.085l.002.21z"/></symbol><use xlink:href="#c" transform="matrix(9.59248 0 0 -9.59248 251.24 264.06)"/><use xlink:href="#k" transform="matrix(9.59248 0 0 -9.59248 255.75 264.191)"/><path d="M261.496 372.112a14.266 14.266 0 0 1-1.089 5.472 14.269 14.269 0 0 1-3.1 4.64 14.27 14.27 0 0 1-4.638 3.1 14.268 14.268 0 0 1-5.473 1.088 14.263 14.263 0 0 1-5.472-1.089 14.265 14.265 0 0 1-4.639-3.1 14.265 14.265 0 0 1-3.1-4.639 14.268 14.268 0 0 1-1.088-5.472 14.268 14.268 0 0 1 1.088-5.472 14.268 14.268 0 0 1 3.1-4.639 14.264 14.264 0 0 1 4.64-3.1 14.263 14.263 0 0 1 5.471-1.088 14.268 14.268 0 0 1 5.473 1.088 14.266 14.266 0 0 1 4.639 3.1 14.263 14.263 0 0 1 3.1 4.64 14.264 14.264 0 0 1 1.088 5.471z" fill="#fff"/><path fill="none" stroke="#000" d="M261.496 372.112a14.266 14.266 0 0 1-1.089 5.472 14.269 14.269 0 0 1-3.1 4.64 14.27 14.27 0 0 1-4.638 3.1 14.268 14.268 0 0 1-5.473 1.088 14.263 14.263 0 0 1-5.472-1.089 14.265 14.265 0 0 1-4.639-3.1 14.265 14.265 0 0 1-3.1-4.639 14.268 14.268 0 0 1-1.088-5.472 14.268 14.268 0 0 1 1.088-5.472 14.268 14.268 0 0 1 3.1-4.639 14.264 14.264 0 0 1 4.64-3.1 14.263 14.263 0 0 1 5.471-1.088 14.268 14.268 0 0 1 5.473 1.088 14.266 14.266 0 0 1 4.639 3.1 14.263 14.263 0 0 1 3.1 4.64 14.264 14.264 0 0 1 1.088 5.471z" stroke-width=".71962"/><use xlink:href="#b" transform="matrix(11.51386 0 0 -11.51386 240.442 374.746)"/><symbol id="l"><path d="M.306.388A.362.362 0 0 0 .402.292.187.187 0 0 0 .43.191.177.177 0 0 0 .37.055.232.232 0 0 0 .205 0a.22.22 0 0 0-.152.048A.153.153 0 0 0 0 .167C0 .202.01.233.03.26c.022.026.056.05.104.073a.412.412 0 0 0-.1.098A.174.174 0 0 0 .01.52c0 .044.019.083.056.116.038.034.09.051.155.051.063 0 .112-.015.146-.045A.137.137 0 0 0 .39.452.24.24 0 0 0 .306.388M.269.413a.171.171 0 0 1 .026.054c.006.02.01.043.01.067A.15.15 0 0 1 .276.63.068.068 0 0 1 .22.657.074.074 0 0 1 .165.633.08.08 0 0 1 .142.574C.142.55.15.526.167.5A.367.367 0 0 1 .269.413M.17.31A.106.106 0 0 1 .149.285.293.293 0 0 1 .135.09.087.087 0 0 1 .17.044.084.084 0 0 1 .214.03a.08.08 0 0 1 .06.026.102.102 0 0 1 .024.072c0 .063-.042.123-.127.18z"/></symbol><use xlink:href="#l" transform="matrix(9.59248 0 0 -9.59248 249.021 377.89)"/><path stroke-miterlimit="10" fill="none" stroke="#000" d="m119.558 372.076 26.626.007" stroke-width=".71962"/><path fill="none" stroke="#000" d="M150.502 372.076c0 .287-.055.562-.165.826-.11.265-.265.498-.468.7a2.139 2.139 0 0 1-.7.469 2.14 2.14 0 0 1-.826.164 2.14 2.14 0 0 1-.826-.164 2.139 2.139 0 0 1-.7-.468 2.138 2.138 0 0 1-.469-.7 2.138 2.138 0 0 1-.164-.827c0-.286.055-.561.164-.826.11-.264.266-.498.468-.7.203-.203.436-.359.7-.468.265-.11.54-.165.827-.165.286 0 .561.055.826.165.264.11.498.265.7.468.203.202.359.436.468.7.11.265.165.54.165.826z" stroke-width=".71962"/><path stroke-miterlimit="10" fill="none" stroke="#000" d="m19.891 276.339 12.119 33.584" stroke-width=".71962"/><path fill="none" stroke="#000" d="M34.902 311.952c0 .287-.054.562-.164.826-.11.265-.265.498-.468.7a2.139 2.139 0 0 1-.7.469c-.265.11-.54.164-.826.164-.287 0-.562-.055-.827-.164a2.139 2.139 0 0 1-.7-.468 2.139 2.139 0 0 1-.468-.7 2.138 2.138 0 0 1-.164-.827c0-.286.054-.561.164-.826.11-.264.266-.498.468-.7.202-.203.436-.359.7-.468.265-.11.54-.165.827-.165.286 0 .561.055.826.165.264.11.498.265.7.468.203.202.359.436.468.7.11.265.164.54.164.826z" stroke-width=".71962"/><path stroke-miterlimit="10" fill="none" stroke="#000" d="m68.825 275.54-9.477 33.85M200.414 325.74l-24.467 31.088" stroke-width=".71962"/><path fill="none" stroke="#000" d="M176.768 358.526c0 .286-.055.562-.165.826-.11.265-.265.498-.468.7a2.14 2.14 0 0 1-.7.468 2.139 2.139 0 0 1-1.652 0 2.139 2.139 0 0 1-.7-.468 2.139 2.139 0 0 1-.469-.7 2.138 2.138 0 0 1-.164-.826c0-.286.055-.562.164-.826.11-.265.266-.498.468-.7a2.139 2.139 0 0 1 1.527-.632 2.138 2.138 0 0 1 1.527.632c.202.202.358.435.467.7.11.264.165.54.165.826z" stroke-width=".71962"/><path stroke-miterlimit="10" fill="none" stroke="#000" d="m59.19 335.167 25.567 32.39" stroke-width=".71962"/><path fill="none" stroke="#000" d="M88.255 369.248c0 .286-.055.562-.165.826-.11.265-.265.498-.468.7a2.139 2.139 0 0 1-.7.469 2.14 2.14 0 0 1-.826.164 2.14 2.14 0 0 1-.826-.164 2.138 2.138 0 0 1-.7-.468 2.139 2.139 0 0 1-.469-.7 2.138 2.138 0 0 1-.164-.827c0-.286.055-.562.164-.826.11-.264.266-.498.468-.7.203-.203.436-.359.7-.468.265-.11.54-.165.827-.165.286 0 .562.055.826.165.265.11.498.265.7.468.203.202.359.436.468.7.11.264.165.54.165.826z" stroke-width=".71962"/><path stroke-miterlimit="10" fill="none" stroke="#000" d="M232.898 258.427h-26.626" stroke-width=".71962"/><path fill="none" stroke="#000" d="M237.215 258.427c0 .287-.054.562-.164.826-.11.265-.266.498-.468.7a2.138 2.138 0 0 1-.7.469c-.265.11-.54.164-.827.164a2.14 2.14 0 0 1-.826-.164 2.138 2.138 0 0 1-.7-.468 2.139 2.139 0 0 1-.468-.7 2.138 2.138 0 0 1-.164-.827c0-.286.054-.561.164-.826.11-.264.265-.498.468-.7.202-.203.436-.359.7-.468a2.139 2.139 0 0 1 1.652 0c.265.11.499.265.701.468.202.202.358.436.468.7.11.265.164.54.164.826z" stroke-width=".71962"/><path stroke-miterlimit="10" fill="none" stroke="#000" d="m143.528 329.504 20.286 26.877" stroke-width=".71962"/><path fill="none" stroke="#000" d="M144.385 327.784c0 .286-.055.562-.165.826-.11.265-.265.498-.468.7a2.139 2.139 0 0 1-.7.468 2.139 2.139 0 0 1-1.652 0 2.139 2.139 0 0 1-.7-.468 2.139 2.139 0 0 1-.469-.7 2.138 2.138 0 0 1-.164-.826c0-.286.055-.562.164-.826.11-.265.266-.498.468-.7a2.138 2.138 0 0 1 1.527-.632 2.138 2.138 0 0 1 1.527.632c.202.202.358.435.467.7.11.264.165.54.165.826z" stroke-width=".71962"/><path stroke-miterlimit="10" fill="none" stroke="#000" d="m107.217 353.74 13.42-26.669" stroke-width=".71962"/><path fill="none" stroke="#000" d="M108.404 355.669c0 .286-.055.562-.164.826-.11.265-.266.498-.468.7a2.139 2.139 0 0 1-.7.468c-.265.11-.54.165-.827.165-.286 0-.562-.055-.826-.165a2.138 2.138 0 0 1-.7-.467 2.138 2.138 0 0 1-.468-.7 2.138 2.138 0 0 1-.165-.827c0-.286.055-.562.165-.826.11-.265.265-.498.468-.7a2.139 2.139 0 0 1 1.527-.632 2.138 2.138 0 0 1 1.527.632c.201.202.357.435.467.7.11.264.164.54.164.826z" stroke-width=".71962"/><path stroke-miterlimit="10" fill="none" stroke="#000" d="m195.492 275.475 7.081 19.646" stroke-width=".71962"/><path fill="none" stroke="#000" d="M196.917 273.446c0 .286-.055.561-.165.826-.11.264-.265.498-.468.7a2.139 2.139 0 0 1-.7.468 2.139 2.139 0 0 1-1.652 0 2.139 2.139 0 0 1-.7-.468 2.139 2.139 0 0 1-.469-.7 2.138 2.138 0 0 1-.164-.826c0-.287.055-.562.164-.827.11-.264.266-.497.468-.7.203-.202.436-.358.7-.468.265-.11.54-.164.827-.164.286 0 .562.055.826.164.265.11.498.266.7.468.203.203.359.436.468.7.11.265.165.54.165.827zM205.466 297.157c0 .286-.055.562-.165.826a2.138 2.138 0 0 1-1.168 1.168 2.139 2.139 0 0 1-1.652 0 2.138 2.138 0 0 1-.7-.467 2.138 2.138 0 0 1-.469-.7 2.138 2.138 0 0 1-.164-.827c0-.286.055-.562.164-.826.11-.265.266-.498.468-.7a2.139 2.139 0 0 1 1.527-.632 2.138 2.138 0 0 1 1.527.632c.202.202.358.435.467.7.11.264.165.54.165.826z" stroke-width=".71962"/><path stroke-miterlimit="10" fill="none" stroke="#000" d="m242.051 355.892-20.156-29.094" stroke-width=".71962"/><path fill="none" stroke="#000" d="M222.823 325.02c0 .287-.055.562-.164.827-.11.264-.266.498-.468.7a2.139 2.139 0 0 1-.7.468c-.265.11-.54.164-.827.164-.286 0-.562-.054-.826-.164a2.138 2.138 0 0 1-.7-.468 2.139 2.139 0 0 1-.468-.7 2.138 2.138 0 0 1-.165-.826c0-.287.055-.562.165-.827.11-.264.265-.498.468-.7.202-.202.435-.358.7-.468.264-.11.54-.164.826-.164.286 0 .562.054.826.164.265.11.498.266.7.468a2.138 2.138 0 0 1 .632 1.527z" stroke-width=".71962"/><path stroke-miterlimit="10" fill="none" stroke="#000" d="m82.9 271.697 12.55 86.116M91.241 267.797l31.469 30.59" stroke-width=".71962"/><path fill="none" stroke="#000" d="M91.853 266.293c0 .286-.055.561-.165.826a2.139 2.139 0 0 1-1.168 1.168 2.138 2.138 0 0 1-1.652 0 2.139 2.139 0 0 1-.7-.468 2.139 2.139 0 0 1-.469-.7 2.138 2.138 0 0 1-.164-.826c0-.287.055-.562.164-.826.11-.265.266-.498.468-.7a2.138 2.138 0 0 1 1.527-.632 2.137 2.137 0 0 1 1.527.632c.202.202.358.435.467.7.11.264.165.54.165.826z" stroke-width=".71962"/><path stroke-miterlimit="10" fill="none" stroke="#000" d="M44.797 340.622c13.62 65.322 52.65 81.626 117.089 48.912" stroke-width=".71962"/><path fill="none" stroke="#000" d="M46.517 338.506c0 .286-.055.562-.164.826-.11.265-.266.498-.468.7a2.139 2.139 0 0 1-.7.469c-.265.11-.54.164-.827.164-.286 0-.562-.055-.826-.164a2.139 2.139 0 0 1-.7-.468 2.138 2.138 0 0 1-.468-.7 2.138 2.138 0 0 1-.165-.827c0-.286.055-.561.165-.826.11-.264.265-.498.468-.7.202-.203.436-.359.7-.468a2.139 2.139 0 0 1 1.652 0c.265.11.498.265.7.468a2.139 2.139 0 0 1 .632 1.527zM165.973 388.555c0 .287-.054.562-.164.827-.11.264-.266.498-.468.7a2.139 2.139 0 0 1-.7.468c-.265.11-.54.164-.827.164-.286 0-.561-.054-.826-.164a2.139 2.139 0 0 1-.7-.468 2.139 2.139 0 0 1-.468-.7 2.138 2.138 0 0 1-.164-.827c0-.286.054-.561.164-.826.11-.264.265-.498.468-.7.202-.202.436-.358.7-.468.265-.11.54-.164.826-.164.287 0 .562.054.827.164.264.11.498.266.7.468.202.202.358.436.468.7.11.265.164.54.164.826z" stroke-width=".71962"/><path stroke-miterlimit="10" fill="none" stroke="#000" d="m191.477 313.399-42.774.079" stroke-width=".71962"/><path fill="none" stroke="#000" d="M195.794 313.392c0 .286-.055.561-.164.826-.11.264-.266.498-.468.7a2.138 2.138 0 0 1-.7.468c-.265.11-.54.164-.827.164-.286 0-.561-.054-.826-.164a2.139 2.139 0 0 1-.7-.468 2.138 2.138 0 0 1-.468-.7 2.138 2.138 0 0 1-.164-.826c0-.287.054-.562.164-.827.11-.264.265-.498.468-.7.202-.202.436-.358.7-.468.265-.11.54-.164.826-.164.287 0 .562.054.826.164.265.11.498.266.7.468a2.138 2.138 0 0 1 .632 1.527z" stroke-width=".71962"/><path stroke-miterlimit="10" fill="none" stroke="#000" d="M253.047 357.094v-80.057" stroke-width=".71962"/><path fill="none" stroke="#000" d="M255.206 274.878c0 .286-.055.561-.165.826a2.14 2.14 0 0 1-.468.7 2.138 2.138 0 0 1-.7.468 2.138 2.138 0 0 1-1.652 0 2.138 2.138 0 0 1-.7-.468 2.139 2.139 0 0 1-.469-.7 2.138 2.138 0 0 1-.164-.826c0-.287.055-.562.164-.826.11-.265.266-.498.468-.7a2.138 2.138 0 0 1 1.527-.632 2.139 2.139 0 0 1 1.527.632c.202.202.358.435.467.7.11.264.165.54.165.826z" stroke-width=".71962"/><path stroke-miterlimit="10" fill="none" stroke="#000" d="m239.374 271.301-15.407 28.036" stroke-width=".71962"/><path fill="none" stroke="#000" d="M225.083 301.23c0 .286-.055.562-.165.826-.11.265-.265.498-.468.7a2.139 2.139 0 0 1-.7.469c-.265.11-.54.164-.826.164-.287 0-.562-.055-.826-.164a2.138 2.138 0 0 1-.7-.468 2.138 2.138 0 0 1-.469-.7 2.138 2.138 0 0 1-.164-.827c0-.286.055-.562.164-.826.11-.265.266-.498.468-.7.203-.203.436-.359.7-.468.265-.11.54-.165.827-.165.286 0 .561.055.826.165.264.11.498.265.7.468.203.202.359.435.468.7.11.264.165.54.165.826z" stroke-width=".71962"/><path d="M71.704 273.46c0 .286-.055.562-.165.826-.11.265-.265.498-.468.7a2.138 2.138 0 0 1-.7.469c-.265.11-.54.164-.826.164-.287 0-.562-.055-.826-.164a2.138 2.138 0 0 1-.7-.468 2.138 2.138 0 0 1-.469-.7 2.138 2.138 0 0 1-.164-.827c0-.286.055-.562.164-.826.11-.265.266-.498.468-.7.203-.203.436-.359.7-.468.265-.11.54-.165.827-.165.286 0 .561.055.826.165.264.11.498.265.7.468.203.202.359.435.468.7.11.264.165.54.165.826z" fill="#fff"/><path fill="none" stroke="#000" d="M71.704 273.46c0 .286-.055.562-.165.826-.11.265-.265.498-.468.7a2.138 2.138 0 0 1-.7.469c-.265.11-.54.164-.826.164-.287 0-.562-.055-.826-.164a2.138 2.138 0 0 1-.7-.468 2.138 2.138 0 0 1-.469-.7 2.138 2.138 0 0 1-.164-.827c0-.286.055-.562.164-.826.11-.265.266-.498.468-.7.203-.203.436-.359.7-.468.265-.11.54-.165.827-.165.286 0 .561.055.826.165.264.11.498.265.7.468.203.202.359.435.468.7.11.264.165.54.165.826z" stroke-width=".71962"/><path d="M84.657 272.733c0 .286-.055.562-.165.826-.11.265-.265.498-.468.7a2.139 2.139 0 0 1-.7.469c-.265.11-.54.164-.826.164-.286 0-.562-.055-.826-.164a2.14 2.14 0 0 1-.7-.468 2.138 2.138 0 0 1-.469-.7 2.138 2.138 0 0 1-.164-.827c0-.286.055-.561.164-.826.11-.264.266-.498.468-.7.203-.203.436-.359.7-.468.265-.11.54-.165.827-.165.286 0 .561.055.826.165.264.11.498.265.7.468.203.202.359.436.468.7.11.265.165.54.165.826z" fill="#fff"/><path fill="none" stroke="#000" d="M84.657 272.733c0 .286-.055.562-.165.826-.11.265-.265.498-.468.7a2.139 2.139 0 0 1-.7.469c-.265.11-.54.164-.826.164-.286 0-.562-.055-.826-.164a2.14 2.14 0 0 1-.7-.468 2.138 2.138 0 0 1-.469-.7 2.138 2.138 0 0 1-.164-.827c0-.286.055-.561.164-.826.11-.264.266-.498.468-.7.203-.203.436-.359.7-.468.265-.11.54-.165.827-.165.286 0 .561.055.826.165.264.11.498.265.7.468.203.202.359.436.468.7.11.265.165.54.165.826z" stroke-width=".71962"/><path d="M22.05 274.18c0 .286-.055.561-.164.826-.11.264-.266.498-.468.7a2.138 2.138 0 0 1-.7.468c-.265.11-.54.165-.827.165-.286 0-.561-.055-.826-.165a2.138 2.138 0 0 1-.7-.468 2.139 2.139 0 0 1-.468-.7 2.138 2.138 0 0 1-.165-.826c0-.287.055-.562.165-.826.11-.265.265-.498.468-.7a2.139 2.139 0 0 1 1.527-.632 2.138 2.138 0 0 1 1.527.632c.201.202.357.435.467.7.11.264.164.54.164.826z" fill="#fff"/><path fill="none" stroke="#000" d="M22.05 274.18c0 .286-.055.561-.164.826-.11.264-.266.498-.468.7a2.138 2.138 0 0 1-.7.468c-.265.11-.54.165-.827.165-.286 0-.561-.055-.826-.165a2.138 2.138 0 0 1-.7-.468 2.139 2.139 0 0 1-.468-.7 2.138 2.138 0 0 1-.165-.826c0-.287.055-.562.165-.826.11-.265.265-.498.468-.7a2.139 2.139 0 0 1 1.527-.632 2.138 2.138 0 0 1 1.527.632c.201.202.357.435.467.7.11.264.164.54.164.826z" stroke-width=".71962"/><path d="M60.003 333.483c0 .287-.055.562-.165.826-.11.265-.265.498-.468.7a2.139 2.139 0 0 1-.7.469c-.265.11-.54.164-.826.164-.287 0-.562-.055-.826-.164a2.139 2.139 0 0 1-.7-.468 2.139 2.139 0 0 1-.469-.7 2.138 2.138 0 0 1-.164-.827c0-.286.055-.561.164-.826.11-.264.266-.498.468-.7.203-.203.436-.359.7-.468.265-.11.54-.165.827-.165.286 0 .561.055.826.165.264.11.498.265.7.468.203.202.359.436.468.7.11.265.165.54.165.826z" fill="#fff"/><path fill="none" stroke="#000" d="M60.003 333.483c0 .287-.055.562-.165.826-.11.265-.265.498-.468.7a2.139 2.139 0 0 1-.7.469c-.265.11-.54.164-.826.164-.287 0-.562-.055-.826-.164a2.139 2.139 0 0 1-.7-.468 2.139 2.139 0 0 1-.469-.7 2.138 2.138 0 0 1-.164-.827c0-.286.055-.561.164-.826.11-.264.266-.498.468-.7.203-.203.436-.359.7-.468.265-.11.54-.165.827-.165.286 0 .561.055.826.165.264.11.498.265.7.468.203.202.359.436.468.7.11.265.165.54.165.826z" stroke-width=".71962"/><path d="M97.516 357.115c0 .287-.055.562-.164.827-.11.264-.266.498-.468.7a2.139 2.139 0 0 1-.7.468c-.265.11-.54.164-.827.164-.286 0-.561-.054-.826-.164a2.138 2.138 0 0 1-.7-.468 2.138 2.138 0 0 1-.468-.7 2.138 2.138 0 0 1-.164-.827c0-.286.054-.561.164-.826.11-.264.265-.498.468-.7.202-.203.436-.359.7-.468.265-.11.54-.164.826-.164.287 0 .562.054.827.164.264.11.497.265.7.468.202.202.358.436.468.7.11.265.164.54.164.826z" fill="#fff"/><path fill="none" stroke="#000" d="M97.516 357.115c0 .287-.055.562-.164.827-.11.264-.266.498-.468.7a2.139 2.139 0 0 1-.7.468c-.265.11-.54.164-.827.164-.286 0-.561-.054-.826-.164a2.138 2.138 0 0 1-.7-.468 2.138 2.138 0 0 1-.468-.7 2.138 2.138 0 0 1-.164-.827c0-.286.054-.561.164-.826.11-.264.265-.498.468-.7.202-.203.436-.359.7-.468.265-.11.54-.164.826-.164.287 0 .562.054.827.164.264.11.497.265.7.468.202.202.358.436.468.7.11.265.164.54.164.826z" stroke-width=".71962"/><path d="M121.357 372.112c0 .287-.055.562-.164.826a2.14 2.14 0 0 1-.468.7 2.138 2.138 0 0 1-.7.469c-.265.11-.54.164-.827.164-.286 0-.561-.055-.826-.164a2.138 2.138 0 0 1-.7-.468 2.14 2.14 0 0 1-.468-.7 2.138 2.138 0 0 1-.165-.827c0-.286.055-.561.165-.826.11-.264.265-.498.468-.7.202-.203.436-.359.7-.468a2.139 2.139 0 0 1 1.652 0c.265.11.498.265.7.468a2.138 2.138 0 0 1 .632 1.527z" fill="#fff"/><path fill="none" stroke="#000" d="M121.357 372.112c0 .287-.055.562-.164.826a2.14 2.14 0 0 1-.468.7 2.138 2.138 0 0 1-.7.469c-.265.11-.54.164-.827.164-.286 0-.561-.055-.826-.164a2.138 2.138 0 0 1-.7-.468 2.14 2.14 0 0 1-.468-.7 2.138 2.138 0 0 1-.165-.827c0-.286.055-.561.165-.826.11-.264.265-.498.468-.7.202-.203.436-.359.7-.468a2.139 2.139 0 0 1 1.652 0c.265.11.498.265.7.468a2.138 2.138 0 0 1 .632 1.527z" stroke-width=".71962"/><path d="M122.796 327.791c0 .286-.054.562-.164.826-.11.265-.266.498-.468.7a2.139 2.139 0 0 1-.7.469c-.265.11-.54.164-.827.164-.286 0-.561-.055-.826-.164a2.138 2.138 0 0 1-.7-.468 2.139 2.139 0 0 1-.468-.7 2.138 2.138 0 0 1-.164-.827c0-.286.054-.562.164-.826.11-.265.266-.498.468-.7.202-.203.436-.359.7-.468a2.138 2.138 0 0 1 1.652 0c.265.11.499.265.701.468.202.202.358.435.468.7.11.264.164.54.164.826z" fill="#fff"/><path fill="none" stroke="#000" d="M122.796 327.791c0 .286-.054.562-.164.826-.11.265-.266.498-.468.7a2.139 2.139 0 0 1-.7.469c-.265.11-.54.164-.827.164-.286 0-.561-.055-.826-.164a2.138 2.138 0 0 1-.7-.468 2.139 2.139 0 0 1-.468-.7 2.138 2.138 0 0 1-.164-.827c0-.286.054-.562.164-.826.11-.265.266-.498.468-.7.202-.203.436-.359.7-.468a2.138 2.138 0 0 1 1.652 0c.265.11.499.265.701.468.202.202.358.435.468.7.11.264.164.54.164.826z" stroke-width=".71962"/><path d="M126.394 299.913c0 .286-.054.562-.164.826-.11.265-.265.498-.468.7a2.139 2.139 0 0 1-.7.469c-.265.11-.54.164-.826.164-.287 0-.562-.055-.827-.164a2.139 2.139 0 0 1-.7-.468 2.138 2.138 0 0 1-.468-.7 2.138 2.138 0 0 1-.164-.827c0-.286.054-.562.164-.826.11-.265.266-.498.468-.7.202-.203.436-.359.7-.468.265-.11.54-.165.827-.165.286 0 .561.055.826.165.264.11.498.265.7.468.203.202.359.435.468.7.11.264.164.54.164.826z" fill="#fff"/><path fill="none" stroke="#000" d="M126.394 299.913c0 .286-.054.562-.164.826-.11.265-.265.498-.468.7a2.139 2.139 0 0 1-.7.469c-.265.11-.54.164-.826.164-.287 0-.562-.055-.827-.164a2.139 2.139 0 0 1-.7-.468 2.138 2.138 0 0 1-.468-.7 2.138 2.138 0 0 1-.164-.827c0-.286.054-.562.164-.826.11-.265.266-.498.468-.7.202-.203.436-.359.7-.468.265-.11.54-.165.827-.165.286 0 .561.055.826.165.264.11.498.265.7.468.203.202.359.435.468.7.11.264.164.54.164.826z" stroke-width=".71962"/><path d="M149.955 313.478c0 .286-.055.562-.165.826-.11.265-.265.498-.468.7a2.14 2.14 0 0 1-.7.468 2.139 2.139 0 0 1-1.652 0 2.139 2.139 0 0 1-.7-.468 2.139 2.139 0 0 1-.469-.7 2.138 2.138 0 0 1-.164-.826c0-.286.055-.562.164-.826.11-.265.266-.498.468-.7a2.139 2.139 0 0 1 1.527-.632 2.138 2.138 0 0 1 1.527.632c.202.202.358.435.467.7.11.264.165.54.165.826z" fill="#fff"/><path fill="none" stroke="#000" d="M149.955 313.478c0 .286-.055.562-.165.826-.11.265-.265.498-.468.7a2.14 2.14 0 0 1-.7.468 2.139 2.139 0 0 1-1.652 0 2.139 2.139 0 0 1-.7-.468 2.139 2.139 0 0 1-.469-.7 2.138 2.138 0 0 1-.164-.826c0-.286.055-.562.164-.826.11-.265.266-.498.468-.7a2.139 2.139 0 0 1 1.527-.632 2.138 2.138 0 0 1 1.527.632c.202.202.358.435.467.7.11.264.165.54.165.826z" stroke-width=".71962"/><path d="M165.88 355.676c0 .286-.055.562-.165.826-.11.265-.265.498-.468.7a2.139 2.139 0 0 1-.7.469c-.264.11-.54.164-.826.164-.286 0-.562-.055-.826-.164a2.139 2.139 0 0 1-.7-.468 2.138 2.138 0 0 1-.469-.7 2.138 2.138 0 0 1-.164-.827c0-.286.055-.561.164-.826.11-.264.266-.498.468-.7.203-.203.436-.359.7-.468.265-.11.54-.165.827-.165.286 0 .562.055.826.165.265.11.498.265.7.468.203.202.359.436.468.7.11.265.165.54.165.826z" fill="#fff"/><path fill="none" stroke="#000" d="M165.88 355.676c0 .286-.055.562-.165.826-.11.265-.265.498-.468.7a2.139 2.139 0 0 1-.7.469c-.264.11-.54.164-.826.164-.286 0-.562-.055-.826-.164a2.139 2.139 0 0 1-.7-.468 2.138 2.138 0 0 1-.469-.7 2.138 2.138 0 0 1-.164-.827c0-.286.055-.561.164-.826.11-.264.266-.498.468-.7.203-.203.436-.359.7-.468.265-.11.54-.165.827-.165.286 0 .562.055.826.165.265.11.498.265.7.468.203.202.359.436.468.7.11.265.165.54.165.826z" stroke-width=".71962"/><path d="M207.618 258.434c0 .287-.055.562-.165.827-.11.264-.265.498-.468.7a2.138 2.138 0 0 1-.7.468c-.265.11-.54.164-.826.164-.287 0-.562-.054-.827-.164a2.138 2.138 0 0 1-.7-.468 2.138 2.138 0 0 1-.468-.7 2.138 2.138 0 0 1-.164-.827c0-.286.055-.561.164-.826.11-.264.266-.498.468-.7.203-.203.436-.359.7-.468.265-.11.54-.164.827-.164.286 0 .561.054.826.164.264.11.498.265.7.468.203.202.359.436.468.7.11.265.164.54.165.826z" fill="#fff"/><path fill="none" stroke="#000" d="M207.618 258.434c0 .287-.055.562-.165.827-.11.264-.265.498-.468.7a2.138 2.138 0 0 1-.7.468c-.265.11-.54.164-.826.164-.287 0-.562-.054-.827-.164a2.138 2.138 0 0 1-.7-.468 2.138 2.138 0 0 1-.468-.7 2.138 2.138 0 0 1-.164-.827c0-.286.055-.561.164-.826.11-.264.266-.498.468-.7.203-.203.436-.359.7-.468.265-.11.54-.164.827-.164.286 0 .561.054.826.164.264.11.498.265.7.468.203.202.359.436.468.7.11.265.164.54.165.826z" stroke-width=".71962"/><path d="M242.253 270.574c0 .287-.055.562-.165.827-.11.264-.265.497-.468.7a2.139 2.139 0 0 1-.7.468c-.265.11-.54.164-.826.164-.287 0-.562-.055-.826-.164a2.138 2.138 0 0 1-.7-.468 2.139 2.139 0 0 1-.469-.7 2.138 2.138 0 0 1-.164-.827c0-.286.055-.561.164-.826.11-.264.266-.498.468-.7.203-.203.436-.359.7-.468.265-.11.54-.164.827-.164.286 0 .561.054.826.164.264.11.498.265.7.468.203.202.359.436.468.7.11.265.165.54.165.826z" fill="#fff"/><path fill="none" stroke="#000" d="M242.253 270.574c0 .287-.055.562-.165.827-.11.264-.265.497-.468.7a2.139 2.139 0 0 1-.7.468c-.265.11-.54.164-.826.164-.287 0-.562-.055-.826-.164a2.138 2.138 0 0 1-.7-.468 2.139 2.139 0 0 1-.469-.7 2.138 2.138 0 0 1-.164-.827c0-.286.055-.561.164-.826.11-.264.266-.498.468-.7.203-.203.436-.359.7-.468.265-.11.54-.164.827-.164.286 0 .561.054.826.164.264.11.498.265.7.468.203.202.359.436.468.7.11.265.165.54.165.826z" stroke-width=".71962"/><path d="M244.411 356.396c0 .286-.054.561-.164.826-.11.264-.265.498-.468.7a2.139 2.139 0 0 1-.7.468 2.139 2.139 0 0 1-1.652 0 2.138 2.138 0 0 1-.7-.468 2.139 2.139 0 0 1-.469-.7 2.138 2.138 0 0 1-.164-.826c0-.286.055-.562.164-.826.11-.265.266-.498.468-.7a2.138 2.138 0 0 1 1.527-.632 2.138 2.138 0 0 1 1.527.632c.202.202.358.435.467.7.11.264.164.54.164.826z" fill="#fff"/><path fill="none" stroke="#000" d="M244.411 356.396c0 .286-.054.561-.164.826-.11.264-.265.498-.468.7a2.139 2.139 0 0 1-.7.468 2.139 2.139 0 0 1-1.652 0 2.138 2.138 0 0 1-.7-.468 2.139 2.139 0 0 1-.469-.7 2.138 2.138 0 0 1-.164-.826c0-.286.055-.562.164-.826.11-.265.266-.498.468-.7a2.138 2.138 0 0 1 1.527-.632 2.138 2.138 0 0 1 1.527.632c.202.202.358.435.467.7.11.264.164.54.164.826z" stroke-width=".71962"/><path d="M255.112 356.396c0 .286-.055.561-.164.826a2.14 2.14 0 0 1-.468.7 2.139 2.139 0 0 1-.7.468c-.265.11-.54.165-.827.165-.286 0-.561-.055-.826-.165a2.138 2.138 0 0 1-.7-.468 2.139 2.139 0 0 1-.468-.7 2.138 2.138 0 0 1-.165-.826c0-.286.055-.562.165-.826.11-.265.265-.498.468-.7a2.138 2.138 0 0 1 1.527-.632 2.138 2.138 0 0 1 1.527.632c.201.202.357.435.467.7.11.264.164.54.164.826z" fill="#fff"/><path fill="none" stroke="#000" d="M255.112 356.396c0 .286-.055.561-.164.826a2.14 2.14 0 0 1-.468.7 2.139 2.139 0 0 1-.7.468c-.265.11-.54.165-.827.165-.286 0-.561-.055-.826-.165a2.138 2.138 0 0 1-.7-.468 2.139 2.139 0 0 1-.468-.7 2.138 2.138 0 0 1-.165-.826c0-.286.055-.562.165-.826.11-.265.265-.498.468-.7a2.138 2.138 0 0 1 1.527-.632 2.138 2.138 0 0 1 1.527.632c.201.202.357.435.467.7.11.264.164.54.164.826z" stroke-width=".71962"/><path d="M202.674 325.632c0 .287-.055.562-.165.826-.11.265-.265.498-.468.7a2.139 2.139 0 0 1-.7.469c-.264.11-.54.164-.826.164-.286 0-.562-.055-.826-.164a2.138 2.138 0 0 1-.7-.468 2.139 2.139 0 0 1-.469-.7 2.138 2.138 0 0 1-.164-.827c0-.286.055-.561.164-.826.11-.264.266-.498.468-.7.203-.203.436-.359.7-.468.265-.11.54-.165.827-.165.286 0 .562.055.826.165.265.11.498.265.7.468.203.202.359.436.468.7.11.265.165.54.165.826z" fill="#fff"/><path fill="none" stroke="#000" d="M202.674 325.632c0 .287-.055.562-.165.826-.11.265-.265.498-.468.7a2.139 2.139 0 0 1-.7.469c-.264.11-.54.164-.826.164-.286 0-.562-.055-.826-.164a2.138 2.138 0 0 1-.7-.468 2.139 2.139 0 0 1-.469-.7 2.138 2.138 0 0 1-.164-.827c0-.286.055-.561.164-.826.11-.264.266-.498.468-.7.203-.203.436-.359.7-.468.265-.11.54-.165.827-.165.286 0 .562.055.826.165.265.11.498.265.7.468.203.202.359.436.468.7.11.265.165.54.165.826z" stroke-width=".71962"/><path d="M60.722 311.333c0 .287-.055.562-.164.827-.11.264-.266.498-.468.7a2.138 2.138 0 0 1-.7.468c-.265.11-.54.164-.827.164-.286 0-.561-.054-.826-.164a2.138 2.138 0 0 1-.7-.468 2.138 2.138 0 0 1-.468-.7 2.138 2.138 0 0 1-.164-.827c0-.286.054-.561.164-.826.11-.264.265-.498.468-.7.202-.202.436-.358.7-.468.265-.11.54-.164.826-.164.287 0 .562.054.827.164.264.11.497.266.7.468.202.202.358.436.468.7.11.265.164.54.164.826z" fill="#fff"/><path fill="none" stroke="#000" d="M60.722 311.333c0 .287-.055.562-.164.827-.11.264-.266.498-.468.7a2.138 2.138 0 0 1-.7.468c-.265.11-.54.164-.827.164-.286 0-.561-.054-.826-.164a2.138 2.138 0 0 1-.7-.468 2.138 2.138 0 0 1-.468-.7 2.138 2.138 0 0 1-.164-.827c0-.286.054-.561.164-.826.11-.264.265-.498.468-.7.202-.202.436-.358.7-.468.265-.11.54-.164.826-.164.287 0 .562.054.827.164.264.11.497.266.7.468.202.202.358.436.468.7.11.265.164.54.164.826z" stroke-width=".71962"/><symbol id="m"><path d="M.281.877V.855A.295.295 0 0 1 .207.79.326.326 0 0 1 .155.677.947.947 0 0 1 .13.438c0-.096.007-.17.021-.224A.382.382 0 0 1 .21.084a.225.225 0 0 1 .071-.06V0a.391.391 0 0 0-.2.162.49.49 0 0 0-.081.28.48.48 0 0 0 .082.276c.054.08.12.133.2.16z"/></symbol><symbol id="n"><path d="M.19.676V.424c.038.04.08.06.125.06.032 0 .061-.01.089-.028A.182.182 0 0 0 .469.378.277.277 0 0 0 .492.26c0-.05-.01-.095-.03-.136a.225.225 0 0 0-.08-.093.207.207 0 0 0-.179-.02.184.184 0 0 0-.057.038L.071 0H.054v.581A.197.197 0 0 1 .051.63a.036.036 0 0 1-.016.02A.072.072 0 0 1 0 .658v.018h.19m0-.295V.178c0-.042 0-.068.002-.08A.083.083 0 0 1 .216.053.066.066 0 0 1 .263.034c.017 0 .03.005.043.014.012.01.022.028.03.056a.627.627 0 0 1 .012.152C.348.326.338.374.32.4A.059.059 0 0 1 .27.428C.242.428.215.412.19.381z"/></symbol><symbol id="o"><path d="M0 0v.022a.302.302 0 0 1 .075.066A.34.34 0 0 1 .126.2.953.953 0 0 1 .15.44a.905.905 0 0 1-.022.224.376.376 0 0 1-.057.129.225.225 0 0 1-.071.06v.024A.389.389 0 0 0 .2.716.488.488 0 0 0 .28.436.477.477 0 0 0 .2.16.39.39 0 0 0 0 0z"/></symbol><use xlink:href="#m" transform="matrix(13.6727 0 0 -13.6727 9.926 219.887)"/><use xlink:href="#n" transform="matrix(13.6727 0 0 -13.6727 14.218 217.337)"/><use xlink:href="#o" transform="matrix(13.6727 0 0 -13.6727 21.7 219.887)"/><path d="M363.148 259.248a14.357 14.357 0 0 1-1.095 5.507 14.36 14.36 0 0 1-3.12 4.67 14.36 14.36 0 0 1-4.67 3.12 14.359 14.359 0 0 1-5.507 1.095 14.36 14.36 0 0 1-5.508-1.096 14.358 14.358 0 0 1-4.67-3.12 14.361 14.361 0 0 1-3.119-4.669 14.358 14.358 0 0 1-1.095-5.507 14.357 14.357 0 0 1 1.095-5.508 14.357 14.357 0 0 1 3.12-4.67 14.357 14.357 0 0 1 4.67-3.12 14.36 14.36 0 0 1 5.507-1.095 14.36 14.36 0 0 1 5.508 1.096 14.359 14.359 0 0 1 4.669 3.12 14.356 14.356 0 0 1 3.12 4.669 14.358 14.358 0 0 1 1.095 5.508z" fill="#fff"/><path fill="none" stroke="#000" d="M363.148 259.248a14.357 14.357 0 0 1-1.095 5.507 14.36 14.36 0 0 1-3.12 4.67 14.36 14.36 0 0 1-4.67 3.12 14.359 14.359 0 0 1-5.507 1.095 14.36 14.36 0 0 1-5.508-1.096 14.358 14.358 0 0 1-4.67-3.12 14.361 14.361 0 0 1-3.119-4.669 14.358 14.358 0 0 1-1.095-5.507 14.357 14.357 0 0 1 1.095-5.508 14.357 14.357 0 0 1 3.12-4.67 14.357 14.357 0 0 1 4.67-3.12 14.36 14.36 0 0 1 5.507-1.095 14.36 14.36 0 0 1 5.508 1.096 14.359 14.359 0 0 1 4.669 3.12 14.356 14.356 0 0 1 3.12 4.669 14.358 14.358 0 0 1 1.095 5.508z" stroke-width=".71962"/><use xlink:href="#b" transform="matrix(11.51386 0 0 -11.51386 341.908 261.766)"/><use xlink:href="#c" transform="matrix(9.59248 0 0 -9.59248 350.782 264.78)"/><path d="M422.157 259.248a14.357 14.357 0 0 1-1.096 5.507 14.362 14.362 0 0 1-3.12 4.67 14.357 14.357 0 0 1-4.669 3.12 14.357 14.357 0 0 1-5.508 1.095 14.358 14.358 0 0 1-5.507-1.096 14.355 14.355 0 0 1-4.67-3.12 14.36 14.36 0 0 1-3.12-4.669 14.358 14.358 0 0 1-1.095-5.507 14.36 14.36 0 0 1 1.096-5.508 14.357 14.357 0 0 1 3.12-4.67 14.358 14.358 0 0 1 4.669-3.12 14.357 14.357 0 0 1 5.507-1.095 14.36 14.36 0 0 1 5.508 1.096 14.355 14.355 0 0 1 4.67 3.12 14.363 14.363 0 0 1 3.12 4.669 14.358 14.358 0 0 1 1.095 5.508z" fill="#fff"/><path fill="none" stroke="#000" d="M422.157 259.248a14.357 14.357 0 0 1-1.096 5.507 14.362 14.362 0 0 1-3.12 4.67 14.357 14.357 0 0 1-4.669 3.12 14.357 14.357 0 0 1-5.508 1.095 14.358 14.358 0 0 1-5.507-1.096 14.355 14.355 0 0 1-4.67-3.12 14.36 14.36 0 0 1-3.12-4.669 14.358 14.358 0 0 1-1.095-5.507 14.36 14.36 0 0 1 1.096-5.508 14.357 14.357 0 0 1 3.12-4.67 14.358 14.358 0 0 1 4.669-3.12 14.357 14.357 0 0 1 5.507-1.095 14.36 14.36 0 0 1 5.508 1.096 14.355 14.355 0 0 1 4.67 3.12 14.363 14.363 0 0 1 3.12 4.669 14.358 14.358 0 0 1 1.095 5.508z" stroke-width=".71962"/><use xlink:href="#b" transform="matrix(11.51386 0 0 -11.51386 400.917 261.766)"/><use xlink:href="#d" transform="matrix(9.59248 0 0 -9.59248 409.393 264.78)"/><path stroke-miterlimit="10" fill="none" stroke="#000" d="M363.148 259.248h25.64" stroke-width=".71962"/><path d="m392.566 259.248-5.037 2.518 1.26-2.518-1.26-2.519 5.037 2.519z"/><path stroke-miterlimit="10" fill="none" stroke="#000" d="m392.566 259.248-5.037 2.518 1.26-2.518-1.26-2.519 5.037 2.519z" stroke-width=".71962"/><path d="M392.652 324.013a14.364 14.364 0 0 1-1.095 5.508 14.361 14.361 0 0 1-3.12 4.669 14.357 14.357 0 0 1-4.67 3.12 14.357 14.357 0 0 1-5.507 1.095 14.359 14.359 0 0 1-5.508-1.095 14.354 14.354 0 0 1-4.669-3.12 14.36 14.36 0 0 1-3.12-4.67 14.358 14.358 0 0 1-1.095-5.507 14.358 14.358 0 0 1 1.095-5.508 14.358 14.358 0 0 1 3.12-4.669 14.355 14.355 0 0 1 4.67-3.12 14.359 14.359 0 0 1 5.507-1.095 14.357 14.357 0 0 1 5.508 1.095 14.351 14.351 0 0 1 4.669 3.12 14.355 14.355 0 0 1 3.12 4.67 14.362 14.362 0 0 1 1.095 5.507z" fill="#fff"/><path fill="none" stroke="#000" d="M392.652 324.013a14.364 14.364 0 0 1-1.095 5.508 14.361 14.361 0 0 1-3.12 4.669 14.357 14.357 0 0 1-4.67 3.12 14.357 14.357 0 0 1-5.507 1.095 14.359 14.359 0 0 1-5.508-1.095 14.354 14.354 0 0 1-4.669-3.12 14.36 14.36 0 0 1-3.12-4.67 14.358 14.358 0 0 1-1.095-5.507 14.358 14.358 0 0 1 1.095-5.508 14.358 14.358 0 0 1 3.12-4.669 14.355 14.355 0 0 1 4.67-3.12 14.359 14.359 0 0 1 5.507-1.095 14.357 14.357 0 0 1 5.508 1.095 14.351 14.351 0 0 1 4.669 3.12 14.355 14.355 0 0 1 3.12 4.67 14.362 14.362 0 0 1 1.095 5.507z" stroke-width=".71962"/><use xlink:href="#b" transform="matrix(11.51386 0 0 -11.51386 371.413 326.532)"/><use xlink:href="#e" transform="matrix(9.59248 0 0 -9.59248 379.809 329.681)"/><path d="M449.502 374.386a14.348 14.348 0 0 1-1.095 5.508 14.36 14.36 0 0 1-3.12 4.67 14.36 14.36 0 0 1-4.67 3.119 14.357 14.357 0 0 1-5.507 1.096 14.357 14.357 0 0 1-5.508-1.096 14.362 14.362 0 0 1-4.67-3.12 14.353 14.353 0 0 1-3.119-4.67 14.356 14.356 0 0 1-1.096-5.507 14.355 14.355 0 0 1 1.096-5.507 14.36 14.36 0 0 1 3.12-4.67 14.358 14.358 0 0 1 4.67-3.12 14.357 14.357 0 0 1 5.507-1.095 14.357 14.357 0 0 1 5.507 1.095 14.353 14.353 0 0 1 4.67 3.12 14.357 14.357 0 0 1 3.12 4.67 14.347 14.347 0 0 1 1.095 5.507z" fill="#fff"/><path fill="none" stroke="#000" d="M449.502 374.386a14.348 14.348 0 0 1-1.095 5.508 14.36 14.36 0 0 1-3.12 4.67 14.36 14.36 0 0 1-4.67 3.119 14.357 14.357 0 0 1-5.507 1.096 14.357 14.357 0 0 1-5.508-1.096 14.362 14.362 0 0 1-4.67-3.12 14.353 14.353 0 0 1-3.119-4.67 14.356 14.356 0 0 1-1.096-5.507 14.355 14.355 0 0 1 1.096-5.507 14.36 14.36 0 0 1 3.12-4.67 14.358 14.358 0 0 1 4.67-3.12 14.357 14.357 0 0 1 5.507-1.095 14.357 14.357 0 0 1 5.507 1.095 14.353 14.353 0 0 1 4.67 3.12 14.357 14.357 0 0 1 3.12 4.67 14.347 14.347 0 0 1 1.095 5.507z" stroke-width=".71962"/><use xlink:href="#b" transform="matrix(11.51386 0 0 -11.51386 428.262 376.905)"/><use xlink:href="#f" transform="matrix(9.59248 0 0 -9.59248 436.743 379.918)"/><path d="M478.287 316.817a14.36 14.36 0 0 1-1.096 5.508 14.355 14.355 0 0 1-3.12 4.669 14.355 14.355 0 0 1-4.669 3.12 14.357 14.357 0 0 1-5.508 1.095 14.359 14.359 0 0 1-5.507-1.095 14.357 14.357 0 0 1-4.67-3.12 14.355 14.355 0 0 1-3.12-4.67 14.36 14.36 0 0 1-1.095-5.507 14.363 14.363 0 0 1 1.096-5.508 14.356 14.356 0 0 1 3.12-4.669 14.353 14.353 0 0 1 4.669-3.12 14.358 14.358 0 0 1 5.507-1.095 14.358 14.358 0 0 1 5.508 1.095 14.356 14.356 0 0 1 4.67 3.12 14.36 14.36 0 0 1 3.12 4.67 14.354 14.354 0 0 1 1.095 5.507z" fill="#fff"/><path fill="none" stroke="#000" d="M478.287 316.817a14.36 14.36 0 0 1-1.096 5.508 14.355 14.355 0 0 1-3.12 4.669 14.355 14.355 0 0 1-4.669 3.12 14.357 14.357 0 0 1-5.508 1.095 14.359 14.359 0 0 1-5.507-1.095 14.357 14.357 0 0 1-4.67-3.12 14.355 14.355 0 0 1-3.12-4.67 14.36 14.36 0 0 1-1.095-5.507 14.363 14.363 0 0 1 1.096-5.508 14.356 14.356 0 0 1 3.12-4.669 14.353 14.353 0 0 1 4.669-3.12 14.358 14.358 0 0 1 5.507-1.095 14.358 14.358 0 0 1 5.508 1.095 14.356 14.356 0 0 1 4.67 3.12 14.36 14.36 0 0 1 3.12 4.67 14.354 14.354 0 0 1 1.095 5.507z" stroke-width=".71962"/><use xlink:href="#b" transform="matrix(11.51386 0 0 -11.51386 457.047 319.336)"/><use xlink:href="#g" transform="matrix(9.59248 0 0 -9.59248 465.612 322.48)"/><path d="M512.109 374.386a14.36 14.36 0 0 1-1.096 5.508 14.354 14.354 0 0 1-3.12 4.67 14.36 14.36 0 0 1-4.669 3.119 14.36 14.36 0 0 1-5.508 1.096 14.357 14.357 0 0 1-5.507-1.096 14.363 14.363 0 0 1-4.67-3.12 14.356 14.356 0 0 1-3.12-4.67 14.363 14.363 0 0 1-1.095-5.507 14.361 14.361 0 0 1 1.096-5.507 14.36 14.36 0 0 1 3.12-4.67 14.356 14.356 0 0 1 4.669-3.12 14.358 14.358 0 0 1 5.507-1.095 14.357 14.357 0 0 1 5.508 1.095 14.358 14.358 0 0 1 4.67 3.12 14.363 14.363 0 0 1 3.12 4.67 14.351 14.351 0 0 1 1.095 5.507z" fill="#fff"/><path fill="none" stroke="#000" d="M512.109 374.386a14.36 14.36 0 0 1-1.096 5.508 14.354 14.354 0 0 1-3.12 4.67 14.36 14.36 0 0 1-4.669 3.119 14.36 14.36 0 0 1-5.508 1.096 14.357 14.357 0 0 1-5.507-1.096 14.363 14.363 0 0 1-4.67-3.12 14.356 14.356 0 0 1-3.12-4.67 14.363 14.363 0 0 1-1.095-5.507 14.361 14.361 0 0 1 1.096-5.507 14.36 14.36 0 0 1 3.12-4.67 14.356 14.356 0 0 1 4.669-3.12 14.358 14.358 0 0 1 5.507-1.095 14.357 14.357 0 0 1 5.508 1.095 14.358 14.358 0 0 1 4.67 3.12 14.363 14.363 0 0 1 3.12 4.67 14.351 14.351 0 0 1 1.095 5.507z" stroke-width=".71962"/><use xlink:href="#b" transform="matrix(11.51386 0 0 -11.51386 490.869 376.905)"/><use xlink:href="#h" transform="matrix(9.59248 0 0 -9.59248 499.467 380.05)"/><path d="M557.445 313.938a14.357 14.357 0 0 1-1.096 5.508 14.367 14.367 0 0 1-3.12 4.67 14.36 14.36 0 0 1-4.67 3.12 14.357 14.357 0 0 1-5.507 1.095 14.359 14.359 0 0 1-5.507-1.096 14.355 14.355 0 0 1-4.67-3.12 14.36 14.36 0 0 1-3.12-4.669 14.355 14.355 0 0 1-1.095-5.508 14.354 14.354 0 0 1 1.095-5.507 14.365 14.365 0 0 1 3.12-4.67 14.36 14.36 0 0 1 4.67-3.12 14.357 14.357 0 0 1 5.507-1.095 14.357 14.357 0 0 1 5.508 1.096 14.36 14.36 0 0 1 4.67 3.12 14.36 14.36 0 0 1 3.119 4.669 14.353 14.353 0 0 1 1.096 5.507z" fill="#fff"/><path fill="none" stroke="#000" d="M557.445 313.938a14.357 14.357 0 0 1-1.096 5.508 14.367 14.367 0 0 1-3.12 4.67 14.36 14.36 0 0 1-4.67 3.12 14.357 14.357 0 0 1-5.507 1.095 14.359 14.359 0 0 1-5.507-1.096 14.355 14.355 0 0 1-4.67-3.12 14.36 14.36 0 0 1-3.12-4.669 14.355 14.355 0 0 1-1.095-5.508 14.354 14.354 0 0 1 1.095-5.507 14.365 14.365 0 0 1 3.12-4.67 14.36 14.36 0 0 1 4.67-3.12 14.357 14.357 0 0 1 5.507-1.095 14.357 14.357 0 0 1 5.508 1.096 14.36 14.36 0 0 1 4.67 3.12 14.36 14.36 0 0 1 3.119 4.669 14.353 14.353 0 0 1 1.096 5.507z" stroke-width=".71962"/><use xlink:href="#b" transform="matrix(11.51386 0 0 -11.51386 536.205 316.457)"/><use xlink:href="#i" transform="matrix(9.59248 0 0 -9.59248 544.77 319.602)"/><path d="M535.856 259.248a14.364 14.364 0 0 1-1.096 5.507 14.359 14.359 0 0 1-3.12 4.67 14.36 14.36 0 0 1-4.669 3.12 14.357 14.357 0 0 1-5.507 1.095 14.359 14.359 0 0 1-5.508-1.096 14.354 14.354 0 0 1-4.67-3.12 14.356 14.356 0 0 1-3.12-4.669 14.36 14.36 0 0 1-1.095-5.507 14.354 14.354 0 0 1 1.096-5.508 14.35 14.35 0 0 1 3.12-4.67 14.355 14.355 0 0 1 4.669-3.12 14.36 14.36 0 0 1 5.508-1.095 14.36 14.36 0 0 1 5.507 1.096 14.361 14.361 0 0 1 4.67 3.12 14.355 14.355 0 0 1 3.12 4.669 14.359 14.359 0 0 1 1.095 5.508z" fill="#fff"/><path fill="none" stroke="#000" d="M535.856 259.248a14.364 14.364 0 0 1-1.096 5.507 14.359 14.359 0 0 1-3.12 4.67 14.36 14.36 0 0 1-4.669 3.12 14.357 14.357 0 0 1-5.507 1.095 14.359 14.359 0 0 1-5.508-1.096 14.354 14.354 0 0 1-4.67-3.12 14.356 14.356 0 0 1-3.12-4.669 14.36 14.36 0 0 1-1.095-5.507 14.354 14.354 0 0 1 1.096-5.508 14.35 14.35 0 0 1 3.12-4.67 14.355 14.355 0 0 1 4.669-3.12 14.36 14.36 0 0 1 5.508-1.095 14.36 14.36 0 0 1 5.507 1.096 14.361 14.361 0 0 1 4.67 3.12 14.355 14.355 0 0 1 3.12 4.669 14.359 14.359 0 0 1 1.095 5.508z" stroke-width=".71962"/><use xlink:href="#b" transform="matrix(11.51386 0 0 -11.51386 514.616 261.766)"/><use xlink:href="#j" transform="matrix(9.59248 0 0 -9.59248 523.153 264.91)"/><path d="M598.463 259.967a14.357 14.357 0 0 1-1.096 5.508 14.36 14.36 0 0 1-3.12 4.67 14.363 14.363 0 0 1-4.669 3.119 14.36 14.36 0 0 1-5.508 1.096 14.358 14.358 0 0 1-5.507-1.096 14.357 14.357 0 0 1-4.67-3.12 14.361 14.361 0 0 1-3.12-4.67 14.356 14.356 0 0 1-1.095-5.507 14.36 14.36 0 0 1 1.095-5.507 14.359 14.359 0 0 1 3.12-4.67 14.359 14.359 0 0 1 4.67-3.12 14.358 14.358 0 0 1 5.507-1.095 14.359 14.359 0 0 1 5.508 1.095 14.36 14.36 0 0 1 4.67 3.12 14.36 14.36 0 0 1 3.12 4.67 14.358 14.358 0 0 1 1.095 5.507z" fill="#fff"/><path fill="none" stroke="#000" d="M598.463 259.967a14.357 14.357 0 0 1-1.096 5.508 14.36 14.36 0 0 1-3.12 4.67 14.363 14.363 0 0 1-4.669 3.119 14.36 14.36 0 0 1-5.508 1.096 14.358 14.358 0 0 1-5.507-1.096 14.357 14.357 0 0 1-4.67-3.12 14.361 14.361 0 0 1-3.12-4.67 14.356 14.356 0 0 1-1.095-5.507 14.36 14.36 0 0 1 1.095-5.507 14.359 14.359 0 0 1 3.12-4.67 14.359 14.359 0 0 1 4.67-3.12 14.358 14.358 0 0 1 5.507-1.095 14.359 14.359 0 0 1 5.508 1.095 14.36 14.36 0 0 1 4.67 3.12 14.36 14.36 0 0 1 3.12 4.67 14.358 14.358 0 0 1 1.095 5.507z" stroke-width=".71962"/><use xlink:href="#b" transform="matrix(11.51386 0 0 -11.51386 574.828 262.486)"/><use xlink:href="#c" transform="matrix(9.59248 0 0 -9.59248 583.702 265.5)"/><use xlink:href="#k" transform="matrix(9.59248 0 0 -9.59248 588.212 265.63)"/><path d="M594.145 374.386a14.364 14.364 0 0 1-1.096 5.508 14.357 14.357 0 0 1-3.12 4.67 14.364 14.364 0 0 1-4.669 3.119 14.359 14.359 0 0 1-5.507 1.096 14.357 14.357 0 0 1-5.508-1.096 14.364 14.364 0 0 1-4.67-3.12 14.357 14.357 0 0 1-3.12-4.67 14.354 14.354 0 0 1-1.095-5.507 14.354 14.354 0 0 1 1.096-5.507 14.352 14.352 0 0 1 3.12-4.67 14.354 14.354 0 0 1 4.669-3.12 14.357 14.357 0 0 1 5.508-1.095 14.357 14.357 0 0 1 5.507 1.095 14.359 14.359 0 0 1 4.67 3.12 14.366 14.366 0 0 1 3.12 4.67 14.356 14.356 0 0 1 1.095 5.507z" fill="#fff"/><path fill="none" stroke="#000" d="M594.145 374.386a14.364 14.364 0 0 1-1.096 5.508 14.357 14.357 0 0 1-3.12 4.67 14.364 14.364 0 0 1-4.669 3.119 14.359 14.359 0 0 1-5.507 1.096 14.357 14.357 0 0 1-5.508-1.096 14.364 14.364 0 0 1-4.67-3.12 14.357 14.357 0 0 1-3.12-4.67 14.354 14.354 0 0 1-1.095-5.507 14.354 14.354 0 0 1 1.096-5.507 14.352 14.352 0 0 1 3.12-4.67 14.354 14.354 0 0 1 4.669-3.12 14.357 14.357 0 0 1 5.508-1.095 14.357 14.357 0 0 1 5.507 1.095 14.359 14.359 0 0 1 4.67 3.12 14.366 14.366 0 0 1 3.12 4.67 14.356 14.356 0 0 1 1.095 5.507z" stroke-width=".71962"/><use xlink:href="#b" transform="matrix(11.51386 0 0 -11.51386 572.905 376.905)"/><use xlink:href="#l" transform="matrix(9.59248 0 0 -9.59248 581.484 380.05)"/><path stroke-miterlimit="10" fill="none" stroke="#000" d="m348.756 273.64 17.343 36.067" stroke-width=".71962"/><path d="m367.732 313.11-4.447-3.446 2.814.043 1.72-2.23-.087 5.634z"/><path stroke-miterlimit="10" fill="none" stroke="#000" d="m367.732 313.11-4.447-3.446 2.814.043 1.72-2.23-.087 5.634zM405.778 277.77l-17.343 36.068" stroke-width=".71962"/><path d="m407.419 274.367.086 5.627-1.727-2.223-2.813.043 4.454-3.447z"/><path stroke-miterlimit="10" fill="none" stroke="#000" d="m407.419 274.367.086 5.627-1.727-2.223-2.813.043 4.454-3.447zM532.877 324.114l-22.56 36.204" stroke-width=".71962"/><path d="m508.316 363.527.526-5.606 1.475 2.397 2.806.266-4.807 2.943z"/><path stroke-miterlimit="10" fill="none" stroke="#000" d="m508.316 363.527.526-5.606 1.475 2.397 2.806.266-4.807 2.943zM388.435 334.188l29.411 36.622" stroke-width=".71962"/><path d="m420.214 373.76-5.117-2.353 2.75-.597 1.18-2.555 1.187 5.505z"/><path stroke-miterlimit="10" fill="none" stroke="#000" d="m420.214 373.76-5.117-2.353 2.75-.597 1.18-2.555 1.187 5.505zM569.678 259.967H540.44" stroke-width=".71962"/><path d="m536.662 259.967 5.037-2.518-1.259 2.518 1.26 2.519-5.038-2.519z"/><path stroke-miterlimit="10" fill="none" stroke="#000" d="m536.662 259.967 5.037-2.518-1.259 2.518 1.26 2.519-5.038-2.519zM474.07 327.712l18.61 33.002M438.708 359.994l15.011-33.002M521.464 273.64l9.787 25.834" stroke-width=".71962"/><path d="m532.589 303.008-4.138-3.814 2.8.28 1.907-2.065-.569 5.599z"/><path stroke-miterlimit="10" fill="none" stroke="#000" d="m532.589 303.008-4.138-3.814 2.8.28 1.907-2.065-.569 5.599zM572.362 356.065l-19.134-31.951" stroke-width=".71962"/><path d="m574.305 359.303-4.75-3.03 2.807-.208 1.511-2.375.432 5.613z"/><path stroke-miterlimit="10" fill="none" stroke="#000" d="m574.305 359.303-4.75-3.03 2.807-.208 1.511-2.375.432 5.613zM414.047 276.44l17.89 79.085" stroke-width=".71962"/><path d="m413.212 272.755 3.57 4.36-2.735-.676-2.18 1.785 1.345-5.47z"/><path stroke-miterlimit="10" fill="none" stroke="#000" d="m413.212 272.755 3.57 4.36-2.735-.676-2.18 1.785 1.345-5.47z" stroke-width=".71962"/><path d="m432.771 359.21-3.57-4.361 2.735.676 2.18-1.785-1.345 5.47z"/><path stroke-miterlimit="10" fill="none" stroke="#000" d="m432.771 359.21-3.57-4.361 2.735.676 2.18-1.785-1.345 5.47zM449.502 374.386h33.822M421.12 272.726l29.418 30.613" stroke-width=".71962"/><path d="m418.501 270.006 5.304 1.885-2.685.835-.95 2.655-1.669-5.375z"/><path stroke-miterlimit="10" fill="none" stroke="#000" d="m418.501 270.006 5.304 1.885-2.685.835-.95 2.655-1.669-5.375z" stroke-width=".71962"/><path d="m453.158 306.059-5.304-1.886 2.684-.834.95-2.656 1.67 5.376z"/><path stroke-miterlimit="10" fill="none" stroke="#000" d="m453.158 306.059-5.304-1.886 2.684-.834.95-2.656 1.67 5.376zM378.26 338.405c12.953 68.604 49.757 86.134 110.41 52.59" stroke-width=".71962"/><path d="m491.974 389.167-3.188 4.642-.115-2.814-2.325-1.59 5.628-.238z"/><path stroke-miterlimit="10" fill="none" stroke="#000" d="m491.974 389.167-3.188 4.642-.115-2.814-2.325-1.59 5.628-.238zM528.66 316.097h-45.79" stroke-width=".71962"/><path d="m479.093 316.097 5.037-2.518-1.26 2.518 1.26 2.519-5.037-2.519z"/><path stroke-miterlimit="10" fill="none" stroke="#000" d="m479.093 316.097 5.037-2.518-1.26 2.518 1.26 2.519-5.037-2.519zM582.027 355.41l2.043-81.05" stroke-width=".71962"/><path d="m581.933 359.188-2.389-5.095 2.483 1.317 2.547-1.195-2.64 4.973z"/><path stroke-miterlimit="10" fill="none" stroke="#000" d="m581.933 359.188-2.389-5.095 2.483 1.317 2.547-1.195-2.64 4.973zM573.895 270.143l-18.264 29.713" stroke-width=".71962"/><path d="m553.652 303.08.49-5.614 1.49 2.39 2.806.244-4.786 2.98z"/><path stroke-miterlimit="10" fill="none" stroke="#000" d="m553.652 303.08.49-5.614 1.49 2.39 2.806.244-4.786 2.98zM531.64 249.072c93.962-31.596 115.217 6.4 63.764 113.987" stroke-width=".71962"/><path d="m593.77 366.463-.093-5.627 1.727 2.223 2.814-.05-4.447 3.454z"/><path stroke-miterlimit="10" fill="none" stroke="#000" d="m593.77 366.463-.093-5.627 1.727 2.223 2.814-.05-4.447 3.454z" stroke-width=".71962"/><symbol id="p"><path d="M.368.131.383.12a.229.229 0 0 0-.08-.09A.192.192 0 0 0 .2 0C.14 0 .09.023.055.069A.258.258 0 0 0 0 .234c0 .063.017.117.05.164.04.057.095.086.165.086A.167.167 0 0 0 .328.448C.356.424.37.398.37.368A.06.06 0 0 0 .353.325.06.06 0 0 0 .309.308.065.065 0 0 0 .26.327C.248.339.24.362.238.395.236.415.23.429.224.437A.035.035 0 0 1 .197.45C.182.45.168.44.157.425A.208.208 0 0 1 .132.31c0-.043.007-.085.02-.124A.19.19 0 0 1 .208.099.1.1 0 0 1 .272.078c.016 0 .031.003.045.01a.209.209 0 0 1 .051.043z"/></symbol><use xlink:href="#m" transform="matrix(13.6727 0 0 -13.6727 341.714 219.887)"/><use xlink:href="#p" transform="matrix(13.6727 0 0 -13.6727 346.24 217.337)"/><use xlink:href="#o" transform="matrix(13.6727 0 0 -13.6727 351.957 219.887)"/><path d="M445.904 112.446a14.357 14.357 0 0 1-1.096 5.508 14.364 14.364 0 0 1-3.12 4.669 14.357 14.357 0 0 1-4.669 3.12 14.357 14.357 0 0 1-5.507 1.095 14.357 14.357 0 0 1-5.508-1.095 14.356 14.356 0 0 1-4.67-3.12 14.358 14.358 0 0 1-3.12-4.67 14.352 14.352 0 0 1-1.095-5.507 14.36 14.36 0 0 1 1.096-5.508 14.358 14.358 0 0 1 3.12-4.669 14.36 14.36 0 0 1 4.669-3.12 14.356 14.356 0 0 1 5.508-1.095 14.359 14.359 0 0 1 5.507 1.095 14.352 14.352 0 0 1 4.67 3.12 14.358 14.358 0 0 1 3.12 4.67 14.355 14.355 0 0 1 1.095 5.507z" fill="#f5f5f5"/><path fill="none" stroke="#000" d="M445.904 112.446a14.357 14.357 0 0 1-1.096 5.508 14.364 14.364 0 0 1-3.12 4.669 14.357 14.357 0 0 1-4.669 3.12 14.357 14.357 0 0 1-5.507 1.095 14.357 14.357 0 0 1-5.508-1.095 14.356 14.356 0 0 1-4.67-3.12 14.358 14.358 0 0 1-3.12-4.67 14.352 14.352 0 0 1-1.095-5.507 14.36 14.36 0 0 1 1.096-5.508 14.358 14.358 0 0 1 3.12-4.669 14.36 14.36 0 0 1 4.669-3.12 14.356 14.356 0 0 1 5.508-1.095 14.359 14.359 0 0 1 5.507 1.095 14.352 14.352 0 0 1 4.67 3.12 14.358 14.358 0 0 1 3.12 4.67 14.355 14.355 0 0 1 1.095 5.507z" stroke-width=".71962"/><symbol id="q"><path d="M.613.232.588 0H0v.018h.022c.02 0 .035.003.046.01a.044.044 0 0 1 .02.024.201.201 0 0 1 .005.061V.55a.218.218 0 0 1-.005.063.048.048 0 0 1-.022.022.085.085 0 0 1-.044.01H0v.018h.353V.644H.324a.092.092 0 0 1-.046-.01.047.047 0 0 1-.02-.024A.201.201 0 0 1 .252.55V.127c0-.034.002-.056.006-.065a.04.04 0 0 1 .023-.02.232.232 0 0 1 .06-.005h.055C.43.037.46.043.483.056a.162.162 0 0 1 .06.058.468.468 0 0 1 .05.118h.02z"/></symbol><use xlink:href="#q" transform="matrix(11.51386 0 0 -11.51386 425.125 114.965)"/><use xlink:href="#c" transform="matrix(9.59248 0 0 -9.59248 433.223 117.978)"/><path d="m421.03 102.459-1.129-1.84.613-.377 1.129 1.84m-2.87-3.304-1.13-1.84.614-.376 1.129 1.84m-2.871-3.305-1.129-1.84.614-.376 1.128 1.84m-2.87-3.304-1.13-1.84.614-.377 1.129 1.84m-2.87-3.304-1.13-1.84.614-.376 1.129 1.84m-2.871-3.304-1.129-1.84.614-.377 1.128 1.84m-2.87-3.304-1.13-1.84.614-.377 1.129 1.84m-2.87-3.304-1.13-1.84.614-.376 1.129 1.84m-2.871-3.304-1.129-1.84.614-.377 1.128 1.84m-2.87-3.304-.114-.185.613-.377.114.186"/><path d="m398.935 65.743 4.778 2.972-2.807.245-1.49 2.389-.481-5.606z"/><path stroke-miterlimit="10" fill="none" stroke="#000" d="m398.935 65.743 4.778 2.972-2.807.245-1.49 2.389-.481-5.606z" stroke-width=".71962"/><path d="m421.616 122.847-1.355 1.68-.56-.451 1.355-1.68m-2.15 3.812-1.356 1.68-.56-.452 1.355-1.68m-2.15 3.812-1.356 1.68-.56-.451 1.355-1.68m-2.15 3.812-1.356 1.68-.56-.452 1.356-1.68m-2.151 3.813-1.356 1.68-.56-.452 1.356-1.68m-2.151 3.812-1.356 1.68-.56-.451 1.356-1.68m-2.151 3.812-1.355 1.68-.56-.452 1.355-1.68m-2.15 3.812-1.356 1.68-.56-.451 1.355-1.68m-2.15 3.812-1.356 1.68-.56-.452 1.355-1.68m-2.15 3.813-1.356 1.68-.56-.452 1.355-1.68m-2.15 3.812-.036.043-.56-.451.035-.044"/><path d="m391.818 159.214 1.201-5.505 1.173 2.562 2.75.604-5.124 2.339z"/><path stroke-miterlimit="10" fill="none" stroke="#000" d="m391.818 159.214 1.201-5.505 1.173 2.562 2.75.604-5.124 2.339z" stroke-width=".71962"/><path d="M165.254 54.877a14.357 14.357 0 0 1-1.096 5.507 14.358 14.358 0 0 1-3.12 4.67 14.358 14.358 0 0 1-4.669 3.12 14.358 14.358 0 0 1-5.508 1.095 14.358 14.358 0 0 1-5.507-1.096 14.357 14.357 0 0 1-4.67-3.12 14.358 14.358 0 0 1-3.12-4.669 14.359 14.359 0 0 1-1.095-5.507 14.358 14.358 0 0 1 1.096-5.508 14.357 14.357 0 0 1 3.12-4.67 14.356 14.356 0 0 1 4.669-3.12 14.358 14.358 0 0 1 5.507-1.095 14.357 14.357 0 0 1 5.508 1.096 14.358 14.358 0 0 1 4.67 3.12 14.358 14.358 0 0 1 3.12 4.669 14.358 14.358 0 0 1 1.095 5.508z" fill="#fff"/><path fill="none" stroke="#000" d="M165.254 54.877a14.357 14.357 0 0 1-1.096 5.507 14.358 14.358 0 0 1-3.12 4.67 14.358 14.358 0 0 1-4.669 3.12 14.358 14.358 0 0 1-5.508 1.095 14.358 14.358 0 0 1-5.507-1.096 14.357 14.357 0 0 1-4.67-3.12 14.358 14.358 0 0 1-3.12-4.669 14.359 14.359 0 0 1-1.095-5.507 14.358 14.358 0 0 1 1.096-5.508 14.357 14.357 0 0 1 3.12-4.67 14.356 14.356 0 0 1 4.669-3.12 14.358 14.358 0 0 1 5.507-1.095 14.357 14.357 0 0 1 5.508 1.096 14.358 14.358 0 0 1 4.67 3.12 14.358 14.358 0 0 1 3.12 4.669 14.358 14.358 0 0 1 1.095 5.508z" stroke-width=".71962"/><use xlink:href="#b" transform="matrix(11.51386 0 0 -11.51386 144.014 57.395)"/><use xlink:href="#c" transform="matrix(9.59248 0 0 -9.59248 152.888 60.409)"/><path d="M222.823 54.877a14.359 14.359 0 0 1-1.096 5.507 14.36 14.36 0 0 1-3.12 4.67 14.36 14.36 0 0 1-4.669 3.12 14.357 14.357 0 0 1-5.507 1.095 14.358 14.358 0 0 1-5.508-1.096 14.357 14.357 0 0 1-4.67-3.12 14.359 14.359 0 0 1-3.12-4.669 14.357 14.357 0 0 1-1.095-5.507 14.357 14.357 0 0 1 1.096-5.508 14.358 14.358 0 0 1 3.12-4.67 14.355 14.355 0 0 1 4.669-3.12 14.358 14.358 0 0 1 5.508-1.095 14.358 14.358 0 0 1 5.507 1.096 14.358 14.358 0 0 1 4.67 3.12 14.358 14.358 0 0 1 3.12 4.669 14.358 14.358 0 0 1 1.095 5.508z" fill="#fff"/><path fill="none" stroke="#000" d="M222.823 54.877a14.359 14.359 0 0 1-1.096 5.507 14.36 14.36 0 0 1-3.12 4.67 14.36 14.36 0 0 1-4.669 3.12 14.357 14.357 0 0 1-5.507 1.095 14.358 14.358 0 0 1-5.508-1.096 14.357 14.357 0 0 1-4.67-3.12 14.359 14.359 0 0 1-3.12-4.669 14.357 14.357 0 0 1-1.095-5.507 14.357 14.357 0 0 1 1.096-5.508 14.358 14.358 0 0 1 3.12-4.67 14.355 14.355 0 0 1 4.669-3.12 14.358 14.358 0 0 1 5.508-1.095 14.358 14.358 0 0 1 5.507 1.096 14.358 14.358 0 0 1 4.67 3.12 14.358 14.358 0 0 1 3.12 4.669 14.358 14.358 0 0 1 1.095 5.508z" stroke-width=".71962"/><use xlink:href="#b" transform="matrix(11.51386 0 0 -11.51386 201.583 57.395)"/><use xlink:href="#d" transform="matrix(9.59248 0 0 -9.59248 210.06 60.409)"/><path stroke-miterlimit="10" fill="none" stroke="#000" d="M165.254 54.877h24.2" stroke-width=".71962"/><path d="m193.232 54.877-5.037 2.518 1.26-2.518-1.26-2.519 5.037 2.519z"/><path stroke-miterlimit="10" fill="none" stroke="#000" d="m193.232 54.877-5.037 2.518 1.26-2.518-1.26-2.519 5.037 2.519z" stroke-width=".71962"/><path d="M194.038 119.642a14.359 14.359 0 0 1-1.095 5.508 14.358 14.358 0 0 1-3.12 4.669 14.358 14.358 0 0 1-4.67 3.12 14.359 14.359 0 0 1-5.507 1.095 14.358 14.358 0 0 1-5.508-1.095 14.358 14.358 0 0 1-4.669-3.12 14.357 14.357 0 0 1-3.12-4.67 14.358 14.358 0 0 1-1.095-5.507 14.358 14.358 0 0 1 1.095-5.508 14.358 14.358 0 0 1 3.12-4.669 14.357 14.357 0 0 1 4.67-3.12 14.357 14.357 0 0 1 5.507-1.095 14.357 14.357 0 0 1 5.508 1.095 14.358 14.358 0 0 1 4.669 3.12 14.357 14.357 0 0 1 3.12 4.67 14.358 14.358 0 0 1 1.095 5.507z" fill="#fff"/><path fill="none" stroke="#000" d="M194.038 119.642a14.359 14.359 0 0 1-1.095 5.508 14.358 14.358 0 0 1-3.12 4.669 14.358 14.358 0 0 1-4.67 3.12 14.359 14.359 0 0 1-5.507 1.095 14.358 14.358 0 0 1-5.508-1.095 14.358 14.358 0 0 1-4.669-3.12 14.357 14.357 0 0 1-3.12-4.67 14.358 14.358 0 0 1-1.095-5.507 14.358 14.358 0 0 1 1.095-5.508 14.358 14.358 0 0 1 3.12-4.669 14.357 14.357 0 0 1 4.67-3.12 14.357 14.357 0 0 1 5.507-1.095 14.357 14.357 0 0 1 5.508 1.095 14.358 14.358 0 0 1 4.669 3.12 14.357 14.357 0 0 1 3.12 4.67 14.358 14.358 0 0 1 1.095 5.507z" stroke-width=".71962"/><use xlink:href="#b" transform="matrix(11.51386 0 0 -11.51386 172.798 122.16)"/><use xlink:href="#e" transform="matrix(9.59248 0 0 -9.59248 181.195 125.31)"/><path d="M251.608 170.015a14.359 14.359 0 0 1-1.096 5.508 14.36 14.36 0 0 1-3.12 4.67 14.36 14.36 0 0 1-4.669 3.119 14.36 14.36 0 0 1-5.508 1.096 14.359 14.359 0 0 1-5.507-1.096 14.356 14.356 0 0 1-4.67-3.12 14.36 14.36 0 0 1-3.12-4.67 14.359 14.359 0 0 1-1.095-5.507 14.357 14.357 0 0 1 1.096-5.507 14.36 14.36 0 0 1 3.12-4.67 14.358 14.358 0 0 1 4.669-3.12 14.357 14.357 0 0 1 5.507-1.095 14.359 14.359 0 0 1 5.508 1.095 14.357 14.357 0 0 1 4.67 3.12 14.357 14.357 0 0 1 3.12 4.67 14.358 14.358 0 0 1 1.095 5.507z" fill="#fff"/><path fill="none" stroke="#000" d="M251.608 170.015a14.359 14.359 0 0 1-1.096 5.508 14.36 14.36 0 0 1-3.12 4.67 14.36 14.36 0 0 1-4.669 3.119 14.36 14.36 0 0 1-5.508 1.096 14.359 14.359 0 0 1-5.507-1.096 14.356 14.356 0 0 1-4.67-3.12 14.36 14.36 0 0 1-3.12-4.67 14.359 14.359 0 0 1-1.095-5.507 14.357 14.357 0 0 1 1.096-5.507 14.36 14.36 0 0 1 3.12-4.67 14.358 14.358 0 0 1 4.669-3.12 14.357 14.357 0 0 1 5.507-1.095 14.359 14.359 0 0 1 5.508 1.095 14.357 14.357 0 0 1 4.67 3.12 14.357 14.357 0 0 1 3.12 4.67 14.358 14.358 0 0 1 1.095 5.507z" stroke-width=".71962"/><use xlink:href="#b" transform="matrix(11.51386 0 0 -11.51386 230.368 172.534)"/><use xlink:href="#f" transform="matrix(9.59248 0 0 -9.59248 238.848 175.547)"/><path d="M280.392 112.446a14.357 14.357 0 0 1-1.095 5.508 14.358 14.358 0 0 1-3.12 4.669 14.36 14.36 0 0 1-4.67 3.12 14.358 14.358 0 0 1-5.507 1.095 14.359 14.359 0 0 1-5.508-1.095 14.358 14.358 0 0 1-4.669-3.12 14.358 14.358 0 0 1-3.12-4.67 14.356 14.356 0 0 1-1.095-5.507 14.357 14.357 0 0 1 1.095-5.508 14.356 14.356 0 0 1 3.12-4.669 14.358 14.358 0 0 1 4.67-3.12A14.358 14.358 0 0 1 266 98.054a14.359 14.359 0 0 1 5.508 1.095 14.357 14.357 0 0 1 4.669 3.12 14.359 14.359 0 0 1 3.12 4.67 14.358 14.358 0 0 1 1.095 5.507z" fill="#fff"/><path fill="none" stroke="#000" d="M280.392 112.446a14.357 14.357 0 0 1-1.095 5.508 14.358 14.358 0 0 1-3.12 4.669 14.36 14.36 0 0 1-4.67 3.12 14.358 14.358 0 0 1-5.507 1.095 14.359 14.359 0 0 1-5.508-1.095 14.358 14.358 0 0 1-4.669-3.12 14.358 14.358 0 0 1-3.12-4.67 14.356 14.356 0 0 1-1.095-5.507 14.357 14.357 0 0 1 1.095-5.508 14.356 14.356 0 0 1 3.12-4.669 14.358 14.358 0 0 1 4.67-3.12A14.358 14.358 0 0 1 266 98.054a14.359 14.359 0 0 1 5.508 1.095 14.357 14.357 0 0 1 4.669 3.12 14.359 14.359 0 0 1 3.12 4.67 14.358 14.358 0 0 1 1.095 5.507z" stroke-width=".71962"/><use xlink:href="#b" transform="matrix(11.51386 0 0 -11.51386 259.152 114.965)"/><use xlink:href="#g" transform="matrix(9.59248 0 0 -9.59248 267.717 118.11)"/><path d="M316.373 170.015a14.359 14.359 0 0 1-1.095 5.508 14.358 14.358 0 0 1-3.12 4.67 14.359 14.359 0 0 1-4.67 3.119 14.36 14.36 0 0 1-5.507 1.096 14.36 14.36 0 0 1-5.508-1.096 14.356 14.356 0 0 1-4.67-3.12 14.358 14.358 0 0 1-3.119-4.67 14.358 14.358 0 0 1-1.096-5.507 14.358 14.358 0 0 1 1.096-5.507 14.356 14.356 0 0 1 3.12-4.67 14.357 14.357 0 0 1 4.67-3.12 14.357 14.357 0 0 1 5.507-1.095 14.358 14.358 0 0 1 5.507 1.095 14.357 14.357 0 0 1 4.67 3.12 14.358 14.358 0 0 1 3.12 4.67 14.358 14.358 0 0 1 1.095 5.507z" fill="#fff"/><path fill="none" stroke="#000" d="M316.373 170.015a14.359 14.359 0 0 1-1.095 5.508 14.358 14.358 0 0 1-3.12 4.67 14.359 14.359 0 0 1-4.67 3.119 14.36 14.36 0 0 1-5.507 1.096 14.36 14.36 0 0 1-5.508-1.096 14.356 14.356 0 0 1-4.67-3.12 14.358 14.358 0 0 1-3.119-4.67 14.358 14.358 0 0 1-1.096-5.507 14.358 14.358 0 0 1 1.096-5.507 14.356 14.356 0 0 1 3.12-4.67 14.357 14.357 0 0 1 4.67-3.12 14.357 14.357 0 0 1 5.507-1.095 14.358 14.358 0 0 1 5.507 1.095 14.357 14.357 0 0 1 4.67 3.12 14.358 14.358 0 0 1 3.12 4.67 14.358 14.358 0 0 1 1.095 5.507z" stroke-width=".71962"/><use xlink:href="#b" transform="matrix(11.51386 0 0 -11.51386 295.133 172.534)"/><use xlink:href="#h" transform="matrix(9.59248 0 0 -9.59248 303.731 175.678)"/><path stroke-miterlimit="10" fill="none" stroke="#000" d="M330.765 112.446h-45.789" stroke-width=".71962"/><path d="m281.198 112.446 5.038-2.519-1.26 2.519 1.26 2.519-5.038-2.52z"/><path stroke-miterlimit="10" fill="none" stroke="#000" d="m281.198 112.446 5.038-2.519-1.26 2.519 1.26 2.519-5.038-2.52z" stroke-width=".71962"/><path d="M359.55 112.446a14.359 14.359 0 0 1-1.095 5.508 14.358 14.358 0 0 1-3.12 4.669 14.358 14.358 0 0 1-4.67 3.12 14.358 14.358 0 0 1-5.507 1.095 14.358 14.358 0 0 1-5.508-1.095 14.358 14.358 0 0 1-4.67-3.12 14.358 14.358 0 0 1-3.12-4.67 14.357 14.357 0 0 1-1.095-5.507 14.357 14.357 0 0 1 1.096-5.508 14.36 14.36 0 0 1 3.12-4.669 14.358 14.358 0 0 1 4.669-3.12 14.358 14.358 0 0 1 5.508-1.095 14.359 14.359 0 0 1 5.507 1.095 14.357 14.357 0 0 1 4.67 3.12 14.359 14.359 0 0 1 3.12 4.67 14.358 14.358 0 0 1 1.095 5.507z" fill="#fff"/><path fill="none" stroke="#000" d="M359.55 112.446a14.359 14.359 0 0 1-1.095 5.508 14.358 14.358 0 0 1-3.12 4.669 14.358 14.358 0 0 1-4.67 3.12 14.358 14.358 0 0 1-5.507 1.095 14.358 14.358 0 0 1-5.508-1.095 14.358 14.358 0 0 1-4.67-3.12 14.358 14.358 0 0 1-3.12-4.67 14.357 14.357 0 0 1-1.095-5.507 14.357 14.357 0 0 1 1.096-5.508 14.36 14.36 0 0 1 3.12-4.669 14.358 14.358 0 0 1 4.669-3.12 14.358 14.358 0 0 1 5.508-1.095 14.359 14.359 0 0 1 5.507 1.095 14.357 14.357 0 0 1 4.67 3.12 14.359 14.359 0 0 1 3.12 4.67 14.358 14.358 0 0 1 1.095 5.507z" stroke-width=".71962"/><use xlink:href="#b" transform="matrix(11.51386 0 0 -11.51386 338.31 114.965)"/><use xlink:href="#i" transform="matrix(9.59248 0 0 -9.59248 346.875 118.11)"/><path d="M337.962 54.877a14.359 14.359 0 0 1-1.096 5.507 14.356 14.356 0 0 1-3.12 4.67 14.36 14.36 0 0 1-4.669 3.12 14.358 14.358 0 0 1-5.508 1.095 14.358 14.358 0 0 1-5.507-1.096 14.358 14.358 0 0 1-4.67-3.12 14.358 14.358 0 0 1-3.12-4.669 14.355 14.355 0 0 1-1.095-5.507 14.358 14.358 0 0 1 1.095-5.508 14.355 14.355 0 0 1 3.12-4.67 14.355 14.355 0 0 1 4.67-3.12 14.358 14.358 0 0 1 5.507-1.095 14.357 14.357 0 0 1 5.508 1.096 14.359 14.359 0 0 1 4.67 3.12 14.358 14.358 0 0 1 3.119 4.669 14.358 14.358 0 0 1 1.096 5.508z" fill="#fff"/><path fill="none" stroke="#000" d="M337.962 54.877a14.359 14.359 0 0 1-1.096 5.507 14.356 14.356 0 0 1-3.12 4.67 14.36 14.36 0 0 1-4.669 3.12 14.358 14.358 0 0 1-5.508 1.095 14.358 14.358 0 0 1-5.507-1.096 14.358 14.358 0 0 1-4.67-3.12 14.358 14.358 0 0 1-3.12-4.669 14.355 14.355 0 0 1-1.095-5.507 14.358 14.358 0 0 1 1.095-5.508 14.355 14.355 0 0 1 3.12-4.67 14.355 14.355 0 0 1 4.67-3.12 14.358 14.358 0 0 1 5.507-1.095 14.357 14.357 0 0 1 5.508 1.096 14.359 14.359 0 0 1 4.67 3.12 14.358 14.358 0 0 1 3.119 4.669 14.358 14.358 0 0 1 1.096 5.508z" stroke-width=".71962"/><use xlink:href="#b" transform="matrix(11.51386 0 0 -11.51386 316.722 57.395)"/><use xlink:href="#j" transform="matrix(9.59248 0 0 -9.59248 325.259 60.54)"/><path d="M402.727 54.877a14.365 14.365 0 0 1-1.096 5.507 14.361 14.361 0 0 1-3.12 4.67 14.36 14.36 0 0 1-4.669 3.12 14.358 14.358 0 0 1-5.507 1.095 14.358 14.358 0 0 1-5.508-1.096 14.355 14.355 0 0 1-4.67-3.12 14.359 14.359 0 0 1-3.12-4.669 14.364 14.364 0 0 1-1.095-5.507 14.36 14.36 0 0 1 1.096-5.508 14.355 14.355 0 0 1 3.12-4.67 14.354 14.354 0 0 1 4.669-3.12 14.36 14.36 0 0 1 5.508-1.095 14.357 14.357 0 0 1 5.507 1.096 14.36 14.36 0 0 1 4.67 3.12 14.364 14.364 0 0 1 3.12 4.669 14.362 14.362 0 0 1 1.095 5.508z" fill="#fff"/><path fill="none" stroke="#000" d="M402.727 54.877a14.365 14.365 0 0 1-1.096 5.507 14.361 14.361 0 0 1-3.12 4.67 14.36 14.36 0 0 1-4.669 3.12 14.358 14.358 0 0 1-5.507 1.095 14.358 14.358 0 0 1-5.508-1.096 14.355 14.355 0 0 1-4.67-3.12 14.359 14.359 0 0 1-3.12-4.669 14.364 14.364 0 0 1-1.095-5.507 14.36 14.36 0 0 1 1.096-5.508 14.355 14.355 0 0 1 3.12-4.67 14.354 14.354 0 0 1 4.669-3.12 14.36 14.36 0 0 1 5.508-1.095 14.357 14.357 0 0 1 5.507 1.096 14.36 14.36 0 0 1 4.67 3.12 14.364 14.364 0 0 1 3.12 4.669 14.362 14.362 0 0 1 1.095 5.508z" stroke-width=".71962"/><use xlink:href="#b" transform="matrix(11.51386 0 0 -11.51386 379.092 57.395)"/><use xlink:href="#c" transform="matrix(9.59248 0 0 -9.59248 387.966 60.409)"/><use xlink:href="#k" transform="matrix(9.59248 0 0 -9.59248 392.477 60.54)"/><path d="M395.53 170.015a14.365 14.365 0 0 1-1.095 5.508 14.36 14.36 0 0 1-3.12 4.67 14.356 14.356 0 0 1-4.669 3.119 14.36 14.36 0 0 1-5.507 1.096 14.359 14.359 0 0 1-5.508-1.096 14.358 14.358 0 0 1-4.67-3.12 14.36 14.36 0 0 1-3.12-4.67 14.36 14.36 0 0 1-1.095-5.507 14.358 14.358 0 0 1 1.096-5.507 14.358 14.358 0 0 1 3.12-4.67 14.355 14.355 0 0 1 4.669-3.12 14.358 14.358 0 0 1 5.508-1.095 14.358 14.358 0 0 1 5.507 1.095 14.358 14.358 0 0 1 4.67 3.12 14.364 14.364 0 0 1 3.12 4.67 14.361 14.361 0 0 1 1.095 5.507z" fill="#fff"/><path fill="none" stroke="#000" d="M395.53 170.015a14.365 14.365 0 0 1-1.095 5.508 14.36 14.36 0 0 1-3.12 4.67 14.356 14.356 0 0 1-4.669 3.119 14.36 14.36 0 0 1-5.507 1.096 14.359 14.359 0 0 1-5.508-1.096 14.358 14.358 0 0 1-4.67-3.12 14.36 14.36 0 0 1-3.12-4.67 14.36 14.36 0 0 1-1.095-5.507 14.358 14.358 0 0 1 1.096-5.507 14.358 14.358 0 0 1 3.12-4.67 14.355 14.355 0 0 1 4.669-3.12 14.358 14.358 0 0 1 5.508-1.095 14.358 14.358 0 0 1 5.507 1.095 14.358 14.358 0 0 1 4.67 3.12 14.364 14.364 0 0 1 3.12 4.67 14.361 14.361 0 0 1 1.095 5.507z" stroke-width=".71962"/><use xlink:href="#b" transform="matrix(11.51386 0 0 -11.51386 374.291 172.534)"/><use xlink:href="#l" transform="matrix(9.59248 0 0 -9.59248 382.87 175.678)"/><path stroke-miterlimit="10" fill="none" stroke="#000" d="M256.192 170.015h31.396" stroke-width=".71962"/><path d="m252.414 170.015 5.037-2.518-1.26 2.518 1.26 2.519-5.037-2.519z"/><path stroke-miterlimit="10" fill="none" stroke="#000" d="m252.414 170.015 5.037-2.518-1.26 2.518 1.26 2.519-5.037-2.519zM150.861 69.269l16.681 36.038" stroke-width=".71962"/><path d="m169.132 108.733-4.404-3.512 2.814.086 1.756-2.202-.166 5.628z"/><path stroke-miterlimit="10" fill="none" stroke="#000" d="m169.132 108.733-4.404-3.512 2.814.086 1.756-2.202-.166 5.628zM206.502 73.428l-16.68 36.039" stroke-width=".71962"/><path d="m208.092 69.996.173 5.634-1.763-2.202-2.814.087 4.404-3.52z"/><path stroke-miterlimit="10" fill="none" stroke="#000" d="m208.092 69.996.173 5.634-1.763-2.202-2.814.087 4.404-3.52zM334.982 122.621l-20.43 33.311" stroke-width=".71962"/><path d="m312.58 159.149.483-5.606 1.49 2.39 2.806.244-4.778 2.972z"/><path stroke-miterlimit="10" fill="none" stroke="#000" d="m312.58 159.149.483-5.606 1.49 2.39 2.806.244-4.778 2.972zM189.821 129.817l30.095 36.658" stroke-width=".71962"/><path d="m222.312 169.396-5.145-2.295 2.749-.626 1.144-2.577 1.252 5.498z"/><path stroke-miterlimit="10" fill="none" stroke="#000" d="m222.312 169.396-5.145-2.295 2.749-.626 1.144-2.577 1.252 5.498zM373.942 54.877h-31.396" stroke-width=".71962"/><path d="m338.768 54.877 5.037-2.519-1.26 2.519 1.26 2.518-5.037-2.518z"/><path stroke-miterlimit="10" fill="none" stroke="#000" d="m338.768 54.877 5.037-2.519-1.26 2.519 1.26 2.518-5.037-2.518zM276.175 122.621l22.985 29.39" stroke-width=".71962"/><path d="m301.484 154.99-5.087-2.418 2.763-.562 1.209-2.54 1.115 5.52z"/><path stroke-miterlimit="10" fill="none" stroke="#000" d="m301.484 154.99-5.087-2.418 2.763-.562 1.209-2.54 1.115 5.52zM237.215 155.623l16.357-29.008" stroke-width=".71962"/><path d="m255.429 123.327-.28 5.62-1.577-2.332-2.813-.144 4.67-3.144z"/><path stroke-miterlimit="10" fill="none" stroke="#000" d="m255.429 123.327-.28 5.62-1.577-2.332-2.813-.144 4.67-3.144zM355.333 122.621l13.853 32.995" stroke-width=".71962"/><path d="m370.654 159.099-4.275-3.67 2.807.187 1.835-2.138-.367 5.62z"/><path stroke-miterlimit="10" fill="none" stroke="#000" d="m370.654 159.099-4.275-3.67 2.807.187 1.835-2.138-.367 5.62zM323.57 69.269l9.916 28.67" stroke-width=".71962"/><path d="m334.716 101.508-4.023-3.937 2.793.367 1.964-2.014-.734 5.584z"/><path stroke-miterlimit="10" fill="none" stroke="#000" d="m334.716 101.508-4.023-3.937 2.793.367 1.964-2.014-.734 5.584z" stroke-width=".71962"/><path d="M417.12 112.806h-2.16v-.72h2.16m-4.318.72h-2.16v-.72h2.16m-4.318.72h-2.159v-.72h2.159m-4.318.72h-2.159v-.72h2.16m-4.318.72h-2.16v-.72h2.16m-4.318.72h-2.159v-.72h2.159m-4.318.72h-2.159v-.72h2.16m-4.318.72h-2.16v-.72h2.16m-4.318.72h-2.159v-.72h2.159m-4.318.72h-2.159v-.72h2.16m-4.319.72h-2.158v-.72h2.158m-4.317.72h-2.16v-.72h2.16m-4.318.72h-1.173v-.72h1.173"/><path d="m360.356 112.446 5.037-2.519-1.259 2.519 1.26 2.519-5.038-2.52z"/><path stroke-miterlimit="10" fill="none" stroke="#000" d="m360.356 112.446 5.037-2.519-1.259 2.519 1.26 2.519-5.038-2.52z" stroke-width=".71962"/><path d="M287.588 54.877a14.357 14.357 0 0 1-1.095 5.507 14.358 14.358 0 0 1-3.12 4.67 14.36 14.36 0 0 1-4.67 3.12 14.358 14.358 0 0 1-5.507 1.095 14.358 14.358 0 0 1-5.508-1.096 14.357 14.357 0 0 1-4.669-3.12 14.357 14.357 0 0 1-3.12-4.669 14.36 14.36 0 0 1-1.095-5.507 14.358 14.358 0 0 1 1.095-5.508 14.357 14.357 0 0 1 3.12-4.67 14.355 14.355 0 0 1 4.67-3.12 14.358 14.358 0 0 1 5.507-1.095 14.357 14.357 0 0 1 5.508 1.096 14.36 14.36 0 0 1 4.669 3.12 14.357 14.357 0 0 1 3.12 4.669 14.358 14.358 0 0 1 1.095 5.508z" fill="#f5f5f5"/><path fill="none" stroke="#000" d="M287.588 54.877a14.357 14.357 0 0 1-1.095 5.507 14.358 14.358 0 0 1-3.12 4.67 14.36 14.36 0 0 1-4.67 3.12 14.358 14.358 0 0 1-5.507 1.095 14.358 14.358 0 0 1-5.508-1.096 14.357 14.357 0 0 1-4.669-3.12 14.357 14.357 0 0 1-3.12-4.669 14.36 14.36 0 0 1-1.095-5.507 14.358 14.358 0 0 1 1.095-5.508 14.357 14.357 0 0 1 3.12-4.67 14.355 14.355 0 0 1 4.67-3.12 14.358 14.358 0 0 1 5.507-1.095 14.357 14.357 0 0 1 5.508 1.096 14.36 14.36 0 0 1 4.669 3.12 14.357 14.357 0 0 1 3.12 4.669 14.358 14.358 0 0 1 1.095 5.508z" stroke-width=".71962"/><use xlink:href="#q" transform="matrix(11.51386 0 0 -11.51386 266.81 57.395)"/><use xlink:href="#d" transform="matrix(9.59248 0 0 -9.59248 274.51 60.409)"/><path d="m273.545 69.356-.524 2.095-.698-.175.524-2.094m-.35 4.363-.523 2.094-.699-.174.524-2.095m-.35 4.364-.523 2.094-.698-.175.524-2.094m-.35 4.363-.524 2.094-.698-.174.524-2.094m-.35 4.363-.524 2.094-.698-.174.524-2.095m-.35 4.363-.524 2.095-.698-.175.524-2.094M266.194 97.276l-1.223-5.497 2.137 1.827 2.75-.611-3.664 4.281z"/><path stroke-miterlimit="10" fill="none" stroke="#000" d="m266.194 97.276-1.223-5.497 2.137 1.827 2.75-.611-3.664 4.281z" stroke-width=".71962"/><path d="M258.804 55.236h-2.159v-.72h2.159m-4.318.72h-2.159v-.72h2.16m-4.319.72h-2.158v-.72h2.158m-4.317.72h-2.16v-.72h2.16m-4.318.72h-2.159v-.72h2.159m-4.318.72h-2.159v-.72h2.16m-4.318.72h-2.16v-.72h2.16m-4.318.72h-1.173v-.72h1.173"/><path d="m223.629 54.877 5.037-2.519-1.259 2.519 1.26 2.518-5.038-2.518z"/><path stroke-miterlimit="10" fill="none" stroke="#000" d="m223.629 54.877 5.037-2.519-1.259 2.519 1.26 2.518-5.038-2.518z" stroke-width=".71962"/><symbol id="r"><path d="M.24.074C.186.024.136 0 .09 0A.087.087 0 0 0 0 .09c0 .035.015.066.045.094.03.028.095.065.196.11v.047a.21.21 0 0 1-.006.065.05.05 0 0 1-.021.023.063.063 0 0 1-.035.01.09.09 0 0 1-.053-.014C.118.42.114.413.114.405c0-.007.004-.016.013-.026C.14.365.146.352.146.34A.054.054 0 0 0 .128.298.065.065 0 0 0 .082.28.075.075 0 0 0 .03.3a.057.057 0 0 0-.02.043.1.1 0 0 0 .027.067.175.175 0 0 0 .078.05.317.317 0 0 0 .103.017c.044 0 .078-.01.103-.028a.128.128 0 0 0 .05-.06.388.388 0 0 0 .006-.094V.118c0-.021 0-.034.002-.04A.023.023 0 0 1 .387.066a.017.017 0 0 1 .01-.004c.01 0 .018.007.027.019L.438.069a.18.18 0 0 0-.05-.053A.11.11 0 0 0 .328 0a.093.093 0 0 0-.06.018.084.084 0 0 0-.027.056m0 .035v.153A.285.285 0 0 1 .153.188a.09.09 0 0 1-.02-.053C.134.12.14.107.15.095A.044.044 0 0 1 .184.082C.2.082.22.092.241.109z"/></symbol><use xlink:href="#m" transform="matrix(13.6727 0 0 -13.6727 143.437 18.395)"/><use xlink:href="#r" transform="matrix(13.6727 0 0 -13.6727 148.057 15.744)"/><use xlink:href="#o" transform="matrix(13.6727 0 0 -13.6727 154.446 18.395)"/><path d="M264.56 365.75c0 .287-.054.563-.164.827-.11.264-.265.498-.468.7a2.14 2.14 0 0 1-.7.468 2.14 2.14 0 0 1-.826.165 2.14 2.14 0 0 1-.826-.165 2.139 2.139 0 0 1-.7-.468 2.139 2.139 0 0 1-.469-.7 2.138 2.138 0 0 1-.164-.826c0-.286.055-.562.164-.826.11-.265.266-.498.468-.7a2.138 2.138 0 0 1 1.527-.632 2.14 2.14 0 0 1 1.527.632c.202.202.358.435.467.7.11.264.165.54.165.826z" fill="#fff"/><path fill="none" stroke="#000" d="M264.56 365.75c0 .287-.054.563-.164.827-.11.264-.265.498-.468.7a2.14 2.14 0 0 1-.7.468 2.14 2.14 0 0 1-.826.165 2.14 2.14 0 0 1-.826-.165 2.139 2.139 0 0 1-.7-.468 2.139 2.139 0 0 1-.469-.7 2.138 2.138 0 0 1-.164-.826c0-.286.055-.562.164-.826.11-.265.266-.498.468-.7a2.138 2.138 0 0 1 1.527-.632 2.14 2.14 0 0 1 1.527.632c.202.202.358.435.467.7.11.264.165.54.165.826z" stroke-width=".71962"/></g></svg>