<svg xmlns="http://www.w3.org/2000/svg" xmlns:xlink="http://www.w3.org/1999/xlink" width="566pt" height="368pt" viewBox="0 0 566 368"><clipPath id="a"><path transform="matrix(1 0 0 -1 0 368)" d="M38.47 285.21h126.64v57.35H38.47z"/></clipPath><g clip-path="url(#a)"><path stroke-width=".53" stroke-linejoin="round" fill="none" stroke="#ebebeb" d="M38.47 74.47H165.1M38.47 63.03H165.1M38.47 51.59H165.1M38.47 40.16H165.1M38.47 28.72H165.1M67.25 82.79V25.44M101.79 82.79V25.44M136.32 82.79V25.44"/><path stroke-width="1.07" stroke-linejoin="round" fill="none" stroke="#ebebeb" d="M38.47 80.18H165.1M38.47 68.75H165.1M38.47 57.31H165.1M38.47 45.88H165.1M38.47 34.44H165.1M49.98 82.79V25.44M84.52 82.79V25.44M119.06 82.79V25.44M153.59 82.79V25.44"/><path d="M44.22 80.18h11.51V61.34H44.22zM78.76 80.18h11.51V48.56H78.76zM113.3 80.18h11.51v-10.6H113.3zM147.84 80.18h11.51v-7.57h-11.51z" fill="#595959"/><path stroke-width="1.07" stroke-linejoin="round" fill="none" stroke="#000" d="m49.98 73.2.2-.01.21-.01.2-.01.2-.01.2-.01.21-.01h.2l.2-.01.21-.01H52.41l.21-.01h.2l.2.01h.81l.21.01h.2l.2.01h.2l.21.01.2.01h.2l.21.01.2.01.2.01.2.01.21.01h.2l.2.01.2.01.21.01.2.01.2.01.21.01h.2l.2.01.2.01.21.01.2.01h.2l.21.01.2.01h.2l.2.01H60.12l.2.01h1.22l.2-.01h.2l.21-.01h.2l.2-.01.2-.01.21-.01.2-.01.2-.01.21-.01.2-.02.2-.02.2-.01.21-.02.2-.02.2-.02.21-.02.2-.03.2-.02.2-.03.21-.03.2-.03.2-.03.2-.03.21-.03.2-.04.2-.04.21-.03.2-.04.2-.04.2-.05.21-.04.2-.04.2-.05.21-.05.2-.05.2-.04.2-.06.21-.05.2-.05.2-.05.2-.06.21-.06.2-.05.2-.06.21-.06.2-.06.2-.06.2-.06.21-.06.2-.07.2-.06.2-.07.21-.06.2-.06.2-.07.21-.07.2-.06.2-.07.2-.07.21-.06.2-.07.2-.07.21-.06.2-.07.2-.07.2-.06.21-.07.2-.07.2-.06.2-.07.21-.06.2-.06.2-.07.21-.06.2-.06.2-.06.2-.06.21-.06.2-.06.2-.06.2-.05.21-.06.2-.05.2-.05.21-.05.2-.05.2-.05.2-.04.21-.05.2-.04.2-.04.21-.04.2-.04.2-.04.2-.03.21-.03.2-.03.2-.03.2-.03.21-.02.2-.02.2-.02.21-.02.2-.02.2-.01.2-.01.21-.01.2-.01h.2l.2-.01H84.45l.2.01h.21l.2.01.2.01.2.02.21.01.2.02.2.02.21.02.2.02.2.03.2.03.21.03.2.03.2.04.2.03.21.04.2.04.2.05.21.04.2.05.2.05.2.05.21.05.2.06.2.05.2.06.21.06.2.06.2.06.21.06.2.07.2.07.2.06.21.07.2.07.2.08.21.07.2.07.2.08.2.07.21.08.2.08.2.08.2.07.21.08.2.08.2.09.21.08.2.08.2.08.2.08.21.09.2.08.2.08.21.08.2.09.2.08.2.08.21.09.2.08.2.08.2.08.21.08.2.09.2.08.21.08.2.08.2.08.2.07.21.08.2.08.2.08.2.07.21.08.2.07.2.07.21.08.2.07.2.07.2.07.21.06.2.07.2.07.21.06.2.07.2.06.2.06.21.06.2.06.2.06.2.05.21.06.2.05.2.06.21.05.2.05.2.05.2.04.21.05.2.05.2.04.2.04.21.04.2.04.2.04.21.04.2.04.2.03.2.04.21.03.2.03.2.03.21.03.2.03.2.03.2.03.21.02.2.03.2.02.2.02.21.02.2.02.2.02.21.02.2.02.2.02.2.02.21.01.2.02.2.01.2.02.21.01.2.01.2.01.21.02.2.01.2.01.2.01.21.01.2.01.2.01.21.01h.2l.2.01.2.01.21.01.2.01h.2l.2.01.21.01.2.01h.2l.21.01.2.01.2.01h.2l.21.01.2.01.2.01.2.01h.21l.2.01.2.01.21.01.2.01.2.01.2.01.21.01.2.01.2.01.21.01.2.01.2.01.2.01.21.01.2.02.2.01.2.01.21.02.2.01.2.01.21.02.2.01.2.02.2.01.21.02.2.02.2.01.21.02.2.02.2.01.2.02.21.02.2.02.2.02.2.02.21.02.2.02.2.02.21.02.2.02.2.02.2.02.21.02.2.02.2.02.2.02.21.02.2.03.2.02.21.02.2.02.2.02.2.03.21.02.2.02.2.02.21.02.2.02.2.03.2.02.21.02.2.02.2.02.2.02.21.02.2.02.2.02.21.02.2.02.2.02.2.02.21.02.2.02.2.02.2.02.21.02.2.01.2.02.21.02.2.01.2.02.2.01.21.02.2.01.2.02.21.01.2.01.2.02.2.01.21.01.2.01.2.01.2.01.21.01.2.01.2.01.21.01h.2l.2.01.2.01h.21l.2.01h.2l.2.01h.21l.2.01H139.4l.2.01h1.42l.2-.01H141.83l.2-.01H142.44l.2-.01h.21l.2-.01h.2l.2-.01h.21l.2-.01h.2l.2-.01h.21l.2-.01h.2l.21-.01.2-.01h.2l.2-.01.21-.01h.2l.2-.01h.21l.2-.01.2-.01h.2l.21-.01h.2l.2-.01.2-.01h.21l.2-.01h.2l.21-.01h.4l.2-.01h.21l.2-.01H150.35l.2-.01H152.38l.2.01h.61l.2.01h.2"/><path stroke-width="1.07" stroke-linecap="round" stroke-linejoin="round" fill="none" stroke="#dcdcdc" d="M38.47 82.79h126.64V25.44H38.47z"/></g><clipPath id="b"><path transform="matrix(1 0 0 -1 0 368)" d="M38.47 201.91h126.64v57.35H38.47z"/></clipPath><g clip-path="url(#b)"><path stroke-width=".53" stroke-linejoin="round" fill="none" stroke="#ebebeb" d="M38.47 157.76H165.1M38.47 146.33H165.1M38.47 134.89H165.1M38.47 123.45H165.1M38.47 112.02H165.1M67.25 166.09v-57.35M101.79 166.09v-57.35M136.32 166.09v-57.35"/><path stroke-width="1.07" stroke-linejoin="round" fill="none" stroke="#ebebeb" d="M38.47 163.48H165.1M38.47 152.04H165.1M38.47 140.61H165.1M38.47 129.17H165.1M38.47 117.74H165.1M49.98 166.09v-57.35M84.52 166.09v-57.35M119.06 166.09v-57.35M153.59 166.09v-57.35"/><path d="M44.22 163.48h11.51v-14.8H44.22zM78.76 163.48h11.51v-24.89H78.76zM113.3 163.48h11.51V143.3H113.3zM147.84 163.48h11.51v-8.75h-11.51z" fill="#595959"/><path stroke-width="1.07" stroke-linejoin="round" fill="none" stroke="#000" d="M49.98 156.93H50.59l.2.01.2.01.21.01.2.01.2.01.21.02.2.01.2.02.2.02.21.03.2.02.2.03.21.03.2.03.2.03.2.04.21.03.2.04.2.04.2.04.21.04.2.04.2.05.21.04.2.04.2.05.2.05.21.05.2.04.2.05.2.05.21.05.2.05.2.05.21.05.2.05.2.05.2.05.21.05.2.05.2.05.21.05.2.05.2.04.2.05.21.05.2.04.2.04.2.05.21.04.2.04.2.03.21.04.2.03.2.04.2.03.21.03.2.02.2.03.2.02.21.02.2.02.2.02.21.01.2.02.2.01h.2l.21.01h.61l.2-.01.2-.01.2-.01.21-.02.2-.01.2-.02.2-.02.21-.03.2-.03.2-.03.21-.04.2-.03.2-.04.2-.05.21-.04.2-.05.2-.05.21-.06.2-.05.2-.06.2-.07.21-.06.2-.07.2-.07.2-.07.21-.08.2-.08.2-.08.21-.08.2-.08.2-.09.2-.09.21-.09.2-.09.2-.1.2-.09.21-.1.2-.1.2-.1.21-.11.2-.1.2-.1.2-.11.21-.11.2-.1.2-.11.21-.11.2-.11.2-.11.2-.11.21-.11.2-.11.2-.11.2-.11.21-.11.2-.11.2-.11.21-.11.2-.1.2-.11.2-.1.21-.11.2-.1.2-.1.2-.1.21-.1.2-.09.2-.1.21-.09.2-.09.2-.08.2-.09.21-.08.2-.08.2-.08.21-.07.2-.07.2-.07.2-.06.21-.07.2-.05.2-.06.2-.05.21-.05.2-.05.2-.04.21-.03.2-.04.2-.03.2-.03.21-.02.2-.02.2-.01.2-.02h.21l.2-.01h.2l.21.01.2.01.2.01.2.01.21.02.2.02.2.03.21.03.2.04.2.03.2.04.21.05.2.05.2.05.2.05.21.06.2.06.2.07.21.06.2.07.2.07.2.08.21.08.2.08.2.08.2.09.21.08.2.09.2.09.21.1.2.09.2.1.2.09.21.1.2.1.2.1.21.11.2.1.2.1.2.1.21.11.2.1.2.11.2.1.21.11.2.1.2.1.21.11.2.1.2.1.2.1.21.1.2.1.2.1.21.09.2.1.2.09.2.09.21.09.2.09.2.09.2.08.21.08.2.08.2.08.21.07.2.07.2.07.2.07.21.06.2.06.2.06.2.05.21.06.2.04.2.05.21.04.2.04.2.04.2.03.21.03.2.03.2.02.21.02.2.02.2.01.2.01.21.01.2.01h.2l.2-.01h.21l.2-.01.2-.01.21-.02.2-.02.2-.02.2-.02.21-.03.2-.03.2-.03.2-.04.21-.04.2-.04.2-.04.21-.05.2-.05.2-.05.2-.05.21-.05.2-.06.2-.06.21-.06.2-.06.2-.07.2-.06.21-.07.2-.07.2-.07.2-.07.21-.07.2-.08.2-.07.21-.08.2-.07.2-.08.2-.07.21-.08.2-.08.2-.07.2-.08.21-.08.2-.07.2-.08.21-.07.2-.08.2-.07.2-.07.21-.07.2-.07.2-.07.21-.07.2-.07.2-.06.2-.06.21-.06.2-.06.2-.06.2-.06.21-.05.2-.05.2-.05.21-.05.2-.04.2-.04.2-.04.21-.04.2-.03.2-.03.2-.03.21-.03.2-.02.2-.02.21-.02.2-.01.2-.01.2-.01h.21l.2-.01h.2l.21.01.2.01.2.01.2.01.21.02.2.02.2.02.2.03.21.03.2.03.2.03.21.04.2.04.2.04.2.05.21.05.2.05.2.06.21.05.2.06.2.06.2.07.21.06.2.07.2.07.2.07.21.08.2.07.2.08.21.08.2.08.2.08.2.09.21.08.2.09.2.09.2.08.21.09.2.09.2.09.21.1.2.09.2.09.2.09.21.1.2.09.2.09.21.09.2.1.2.09.2.09.21.09.2.1.2.09.2.09.21.09.2.09.2.08.21.09.2.09.2.08.2.08.21.08.2.09.2.07.2.08.21.08.2.07.2.08.21.07.2.07.2.06.2.07.21.06.2.07.2.06.21.05.2.06.2.06.2.05.21.05.2.05.2.04.2.05.21.04.2.04.2.04.21.03.2.03.2.04.2.02.21.03.2.03.2.02.2.02.21.02.2.02.2.01.21.02.2.01.2.01h.2l.21.01h.2l.2.01h.21l.2-.01h.4l.21-.01.2-.01h.2l.2-.01.21-.02.2-.01.2-.01.21-.02.2-.01.2-.02.2-.02.21-.02.2-.02.2-.02.2-.02.21-.02.2-.03.2-.02.21-.02.2-.03.2-.02.2-.03.21-.02.2-.03.2-.02.21-.03.2-.02.2-.03.2-.02.21-.03.2-.02.2-.03.2-.02.21-.03.2-.02.2-.02.21-.03.2-.02.2-.02.2-.02.21-.02.2-.02.2-.02.21-.02.2-.01.2-.02.2-.01.21-.02.2-.01.2-.01.2-.01.21-.01.2-.01.2-.01h.21l.2-.01h1.01"/><path stroke-width="1.07" stroke-linecap="round" stroke-linejoin="round" fill="none" stroke="#dcdcdc" d="M38.47 166.09h126.64v-57.35H38.47z"/></g><clipPath id="c"><path transform="matrix(1 0 0 -1 0 368)" d="M38.47 118.62h126.64v57.35H38.47z"/></clipPath><g clip-path="url(#c)"><path stroke-width=".53" stroke-linejoin="round" fill="none" stroke="#ebebeb" d="M38.47 241.06H165.1M38.47 229.62H165.1M38.47 218.18H165.1M38.47 206.75H165.1M38.47 195.31H165.1M67.25 249.38v-57.35M101.79 249.38v-57.35M136.32 249.38v-57.35"/><path stroke-width="1.07" stroke-linejoin="round" fill="none" stroke="#ebebeb" d="M38.47 246.78H165.1M38.47 235.34H165.1M38.47 223.9H165.1M38.47 212.47H165.1M38.47 201.03H165.1M49.98 249.38v-57.35M84.52 249.38v-57.35M119.06 249.38v-57.35M153.59 249.38v-57.35"/><path d="M44.22 246.78h11.51v-39.02H44.22zM78.76 246.78h11.51v-11.6H78.76zM113.3 246.78h11.51v-10.09H113.3zM147.84 246.78h11.51v-7.9h-11.51z" fill="#595959"/><path stroke-width="1.07" stroke-linejoin="round" fill="none" stroke="#000" d="M49.98 234.56h.2l.21-.01h.81l.2.01h.2l.21.01.2.01.2.01.2.02.21.01.2.02.2.02.21.03.2.02.2.03.2.02.21.03.2.03.2.03.2.04.21.03.2.04.2.04.21.04.2.04.2.04.2.05.21.05.2.04.2.05.2.05.21.05.2.06.2.05.21.05.2.06.2.06.2.05.21.06.2.06.2.07.21.06.2.06.2.06.2.07.21.06.2.07.2.07.2.06.21.07.2.07.2.07.21.07.2.07.2.07.2.07.21.07.2.07.2.07.2.07.21.07.2.07.2.07.21.08.2.07.2.07.2.07.21.07.2.07.2.08.21.07.2.07.2.07.2.07.21.07.2.07.2.07.2.07.21.07.2.06.2.07.21.07.2.07.2.06.2.07.21.06.2.07.2.06.21.07.2.06.2.06.2.06.21.06.2.07.2.05.2.06.21.06.2.06.2.06.21.05.2.06.2.05.2.06.21.05.2.05.2.05.2.05.21.05.2.05.2.05.21.05.2.05.2.04.2.05.21.04.2.05.2.04.21.04.2.04.2.05.2.04.21.04.2.03.2.04.2.04.21.04.2.03.2.04.21.03.2.04.2.03.2.04.21.03.2.03.2.03.2.03.21.03.2.03.2.03.21.03.2.03.2.03.2.02.21.03.2.03.2.02.21.03.2.02.2.03.2.02.21.03.2.02.2.02.2.03.21.02.2.02.2.02.21.03.2.02.2.02.2.02.21.02.2.02.2.02.2.02.21.02.2.02.2.02.21.02.2.02.2.02.2.02.21.01.2.02.2.02.21.02.2.02.2.01.2.02.21.02.2.02.2.02.2.01.21.02.2.02.2.01.21.02.2.02.2.02.2.01.21.02.2.02.2.01.2.02.21.01.2.02.2.02.21.01.2.02.2.01.2.02.21.02.2.01.2.02.21.01.2.02.2.01.2.02.21.01.2.02.2.01.2.01.21.02.2.01.2.02.21.01.2.01.2.02.2.01.21.01.2.02.2.01.21.01.2.01.2.02.2.01.21.01.2.01.2.01.2.01.21.01.2.01.2.01.21.01.2.01.2.01.2.01.21.01.2.01.2.01.2.01.21.01h.2l.2.01.21.01h.2l.2.01.2.01h.21l.2.01h.2l.21.01h.2l.2.01h.2l.21.01h.4l.2.01H103.51l.2.01h1.22l.2.01h1.02l.2-.01h1.42l.2-.01H108.58l.2-.01H109.39l.2-.01H110.2l.2-.01H110.81l.2-.01H111.42l.2-.01H112.03l.2-.01h.61l.2-.01H113.65l.2-.01h.81l.2-.01H118.51l.21.01h.61l.2.01h.4l.21.01h.4l.2.01h.21l.2.01h.2l.21.01h.2l.2.01.2.01h.21l.2.01h.2l.21.01.2.01.2.01h.2l.21.01.2.01.2.01h.2l.21.01.2.01.2.01.21.01.2.01.2.01h.2l.21.01.2.01.2.01.2.01.21.01.2.01.2.01.21.01.2.01.2.01.2.01.21.01.2.01.2.01.21.01.2.01.2.01.2.01.21.01.2.01.2.01.2.01.21.01.2.01.2.01.21.01.2.01.2.01.2.01.21.01.2.01h.2l.2.01.21.01.2.01.2.01.21.01.2.01h.2l.2.01.21.01.2.01.2.01h.21l.2.01.2.01h.2l.21.01.2.01h.2l.2.01h.21l.2.01.2.01h.21l.2.01h.2l.2.01H137.98l.2.01h.2l.21.01h.4l.21.01h.4l.2.01H140.41l.21.01h1.01l.2.01H144.67l.2.01H148.12l.2.01h1.01l.21.01h.61l.2.01h.4l.21.01h.4l.2.01h.21l.2.01h.2l.21.01h.2l.2.01h.2l.21.01.2.01h.2"/><path stroke-width="1.07" stroke-linecap="round" stroke-linejoin="round" fill="none" stroke="#dcdcdc" d="M38.47 249.38h126.64v-57.35H38.47z"/></g><clipPath id="d"><path transform="matrix(1 0 0 -1 0 368)" d="M38.47 35.32h126.64v57.35H38.47z"/></clipPath><g clip-path="url(#d)"><path stroke-width=".53" stroke-linejoin="round" fill="none" stroke="#ebebeb" d="M38.47 324.35H165.1M38.47 312.92H165.1M38.47 301.48H165.1M38.47 290.04H165.1M38.47 278.61H165.1M67.25 332.68v-57.35M101.79 332.68v-57.35M136.32 332.68v-57.35"/><path stroke-width="1.07" stroke-linejoin="round" fill="none" stroke="#ebebeb" d="M38.47 330.07H165.1M38.47 318.63H165.1M38.47 307.2H165.1M38.47 295.76H165.1M38.47 284.33H165.1M49.98 332.68v-57.35M84.52 332.68v-57.35M119.06 332.68v-57.35M153.59 332.68v-57.35"/><path d="M44.22 330.07h11.51v-9.75H44.22zM78.76 330.07h11.51v-23.38H78.76zM113.3 330.07h11.51v-23.21H113.3zM147.84 330.07h11.51v-12.28h-11.51z" fill="#595959"/><path stroke-width="1.07" stroke-linejoin="round" fill="none" stroke="#000" d="M49.98 325.74h.81l.2.01h.21l.2.01h.2l.21.01.2.01.2.02.2.01.21.01.2.02.2.01.21.02.2.02.2.02.2.02.21.02.2.02.2.02.2.03.21.02.2.03.2.02.21.03.2.02.2.03.2.03.21.02.2.03.2.03.2.03.21.03.2.02.2.03.21.03.2.03.2.02.2.03.21.03.2.02.2.03.21.02.2.02.2.03.2.02.21.02.2.02.2.02.2.02.21.01.2.02.2.01.21.02.2.01.2.01.2.01h.21l.2.01h1.01l.21-.01.2-.01.2-.01.2-.01.21-.02.2-.01.2-.02.21-.02.2-.03.2-.02.2-.03.21-.03.2-.04.2-.03.2-.04.21-.04.2-.04.2-.05.21-.04.2-.05.2-.06.2-.05.21-.06.2-.06.2-.06.21-.06.2-.07.2-.07.2-.07.21-.07.2-.08.2-.07.2-.08.21-.09.2-.08.2-.08.21-.09.2-.09.2-.09.2-.09.21-.1.2-.09.2-.1.2-.1.21-.1.2-.1.2-.1.21-.11.2-.1.2-.1.2-.11.21-.11.2-.1.2-.11.21-.11.2-.11.2-.11.2-.1.21-.11.2-.11.2-.11.2-.1.21-.11.2-.11.2-.1.21-.11.2-.1.2-.1.2-.11.21-.1.2-.09.2-.1.2-.1.21-.09.2-.09.2-.09.21-.09.2-.09.2-.08.2-.08.21-.08.2-.08.2-.07.21-.07.2-.07.2-.07.2-.06.21-.06.2-.06.2-.05.2-.05.21-.04.2-.05.2-.04.21-.04.2-.03.2-.03.2-.02.21-.03.2-.02.2-.01.2-.01.21-.01.2-.01h.2l.21.01h.2l.2.01.2.01.21.02.2.02.2.03.21.02.2.03.2.04.2.03.21.05.2.04.2.05.2.05.21.05.2.05.2.06.21.06.2.07.2.07.2.06.21.08.2.07.2.07.2.08.21.08.2.08.2.09.21.08.2.09.2.08.2.09.21.09.2.09.2.09.21.1.2.09.2.09.2.1.21.09.2.09.2.1.2.09.21.09.2.1.2.09.21.09.2.09.2.09.2.09.21.09.2.09.2.08.21.08.2.09.2.08.2.07.21.08.2.08.2.07.2.07.21.06.2.07.2.06.21.06.2.06.2.05.2.06.21.04.2.05.2.04.2.04.21.04.2.03.2.04.21.02.2.03.2.02.2.02.21.01.2.01.2.01H102.09l.2-.01.21-.01.2-.01.2-.02.2-.01.21-.03.2-.02.2-.03.21-.04.2-.03.2-.04.2-.04.21-.05.2-.04.2-.06.2-.05.21-.06.2-.05.2-.07.21-.06.2-.07.2-.07.2-.07.21-.07.2-.07.2-.08.21-.08.2-.08.2-.08.2-.09.21-.08.2-.09.2-.09.2-.09.21-.09.2-.09.2-.09.21-.09.2-.09.2-.09.2-.1.21-.09.2-.09.2-.1.2-.09.21-.09.2-.09.2-.09.21-.09.2-.09.2-.09.2-.09.21-.08.2-.08.2-.09.21-.08.2-.08.2-.07.2-.08.21-.07.2-.07.2-.07.2-.07.21-.06.2-.06.2-.06.21-.05.2-.06.2-.05.2-.04.21-.05.2-.04.2-.03.2-.04.21-.03.2-.02.2-.03.21-.02.2-.02.2-.01.2-.01.21-.01h.4l.21.01h.2l.2.02.2.01.21.02.2.02.2.03.2.03.21.03.2.03.2.04.21.05.2.04.2.05.2.05.21.06.2.06.2.06.21.06.2.07.2.07.2.07.21.08.2.07.2.08.2.08.21.09.2.08.2.09.21.09.2.09.2.1.2.09.21.1.2.1.2.1.2.1.21.1.2.1.2.1.21.1.2.11.2.1.2.11.21.1.2.1.2.11.21.1.2.11.2.1.2.1.21.11.2.1.2.1.2.1.21.1.2.1.2.09.21.1.2.09.2.1.2.09.21.09.2.09.2.08.2.09.21.08.2.08.2.08.21.07.2.08.2.07.2.07.21.07.2.06.2.07.21.06.2.05.2.06.2.05.21.05.2.05.2.05.2.04.21.04.2.04.2.03.21.03.2.03.2.03.2.03.21.02.2.02.2.02.2.01.21.01.2.01.2.01h.21l.2.01h.4l.21-.01h.2l.2-.01.21-.01.2-.01.2-.02.2-.01.21-.02.2-.02.2-.02.2-.03.21-.02.2-.03.2-.02.21-.03.2-.03.2-.03.2-.04.21-.03.2-.03.2-.04.2-.04.21-.03.2-.04.2-.04.21-.04.2-.04.2-.03.2-.04.21-.04.2-.04.2-.04.21-.04.2-.04.2-.04.2-.04.21-.04.2-.04.2-.03.2-.04.21-.04.2-.03.2-.04.21-.03.2-.04.2-.03.2-.03.21-.03.2-.03.2-.02.21-.03.2-.03.2-.02.2-.02.21-.02.2-.02.2-.02.2-.01.21-.02.2-.01.2-.01.21-.01.2-.01h.2l.2-.01H153.59"/><path stroke-width="1.07" stroke-linecap="round" stroke-linejoin="round" fill="none" stroke="#dcdcdc" d="M38.47 332.68h126.64v-57.35H38.47z"/></g><clipPath id="e"><path transform="matrix(1 0 0 -1 0 368)" d="M170.58 285.21h126.64v57.35H170.58z"/></clipPath><g clip-path="url(#e)"><path stroke-width=".53" stroke-linejoin="round" fill="none" stroke="#ebebeb" d="M170.58 74.47h126.64M170.58 63.03h126.64M170.58 51.59h126.64M170.58 40.16h126.64M170.58 28.72h126.64M199.36 82.79V25.44M233.9 82.79V25.44M268.44 82.79V25.44"/><path stroke-width="1.07" stroke-linejoin="round" fill="none" stroke="#ebebeb" d="M170.58 80.18h126.64M170.58 68.75h126.64M170.58 57.31h126.64M170.58 45.88h126.64M170.58 34.44h126.64M182.1 82.79V25.44M216.63 82.79V25.44M251.17 82.79V25.44M285.71 82.79V25.44"/><path d="M176.34 80.18h11.51V60.67h-11.51zM210.88 80.18h11.51V57.64h-11.51zM245.41 80.18h11.51V65.21h-11.51zM279.95 80.18h11.51v-11.6h-11.51z" fill="#595959"/><path stroke-width="1.07" stroke-linejoin="round" fill="none" stroke="#000" d="m182.1 73.65.2-.01.2-.01.2-.02.21-.01.2-.01.2-.01.21-.01.2-.01.2-.01.2-.01h.21l.2-.01h.2l.2-.01h.21l.2-.01H185.75l.2-.01H187.77l.21.01H188.58l.21.01h.4l.21.01h.2l.2.01h.2l.21.01h.4l.2.01h.21l.2.01h.2l.21.01h.2l.2.01h.2l.21.01h.2l.2.01H193.25l.2.01H193.86l.2.01h.61l.2.01H196.49l.2-.01H197.3l.21-.01h.2l.2-.01h.2l.21-.01h.2l.2-.01h.21l.2-.01.2-.01.2-.01.21-.01.2-.01.2-.01.2-.01.21-.01.2-.01.2-.01.21-.01.2-.01.2-.02.2-.01.21-.01.2-.02.2-.01.21-.02.2-.01.2-.02.2-.01.21-.02.2-.02.2-.01.2-.02.21-.02.2-.02.2-.01.21-.02.2-.02.2-.02.2-.02.21-.01.2-.02.2-.02.2-.02.21-.02.2-.02.2-.02.21-.02.2-.02.2-.02.2-.01.21-.02.2-.02.2-.02.21-.02.2-.02.2-.02.2-.01.21-.02.2-.02.2-.02.2-.01.21-.02.2-.02.2-.01.21-.02.2-.01.2-.02.2-.01.21-.01.2-.02.2-.01.2-.01.21-.01.2-.01.2-.01.21-.01.2-.01.2-.01.2-.01.21-.01h.2l.2-.01.21-.01h.4l.2-.01H216.77l.2.01h.2l.21.01h.2l.2.01.2.01.21.01h.2l.2.01.21.01.2.02.2.01.2.01.21.01.2.02.2.01.21.02.2.01.2.02.2.02.21.01.2.02.2.02.2.02.21.02.2.02.2.02.21.02.2.02.2.03.2.02.21.02.2.03.2.02.2.03.21.02.2.03.2.02.21.03.2.02.2.03.2.03.21.02.2.03.2.03.21.03.2.02.2.03.2.03.21.03.2.02.2.03.2.03.21.03.2.03.2.02.21.03.2.03.2.03.2.02.21.03.2.03.2.03.21.02.2.03.2.02.2.03.21.03.2.02.2.03.2.02.21.03.2.02.2.02.21.03.2.02.2.02.2.03.21.02.2.02.2.02.2.02.21.02.2.02.2.02.21.02.2.02.2.02.2.01.21.02.2.02.2.01.21.02.2.01.2.02.2.01.21.02.2.01.2.01.2.02.21.01.2.01.2.01.21.01.2.01.2.01.2.01.21.01.2.01h.2l.2.01.21.01.2.01h.2l.21.01h.2l.2.01h.2l.21.01h.2l.2.01h.21l.2.01h.4l.21.01H242.92l.21.01h.81l.2.01h.81l.2.01h1.02l.2.01H246.98l.2.01H247.79l.2.01H248.4l.2.01H249.01l.2.01h.2l.21.01h.2l.2.01h.2l.21.01.2.01h.2l.2.01.21.01h.2l.2.01.21.01.2.01.2.01.2.01h.21l.2.01.2.01.21.01.2.01.2.02.2.01.21.01.2.01.2.01.2.01.21.02.2.01.2.01.21.01.2.02.2.01.2.02.21.01.2.01.2.02.21.01.2.02.2.01.2.02.21.02.2.01.2.02.2.01.21.02.2.02.2.01.21.02.2.02.2.01.2.02.21.02.2.01.2.02.2.02.21.01.2.02.2.02.21.01.2.02.2.02.2.01.21.02.2.02.2.01.21.02.2.02.2.01.2.02.21.01.2.02.2.01.2.02.21.01.2.02.2.01.21.02.2.01.2.01.2.02.21.01.2.01.2.02.2.01.21.01.2.01.2.01.21.02.2.01.2.01.2.01.21.01.2.01.2.01.21.01h.2l.2.01.2.01.21.01.2.01h.2l.2.01.21.01h.2l.2.01h.21l.2.01h.2l.2.01h.21l.2.01h.4l.21.01h.61l.2.01h1.01l.21.01H281.04l.21.01H281.85l.21.01h.4l.21.01h.2l.2.01h.2l.21.01h.2l.2.01h.21l.2.01.2.01.2.01h.21l.2.01.2.01.2.01.21.01"/><path stroke-width="1.07" stroke-linecap="round" stroke-linejoin="round" fill="none" stroke="#dcdcdc" d="M170.58 82.79h126.64V25.44H170.58z"/></g><clipPath id="f"><path transform="matrix(1 0 0 -1 0 368)" d="M170.58 201.91h126.64v57.35H170.58z"/></clipPath><g clip-path="url(#f)"><path stroke-width=".53" stroke-linejoin="round" fill="none" stroke="#ebebeb" d="M170.58 157.76h126.64M170.58 146.33h126.64M170.58 134.89h126.64M170.58 123.45h126.64M170.58 112.02h126.64M199.36 166.09v-57.35M233.9 166.09v-57.35M268.44 166.09v-57.35"/><path stroke-width="1.07" stroke-linejoin="round" fill="none" stroke="#ebebeb" d="M170.58 163.48h126.64M170.58 152.04h126.64M170.58 140.61h126.64M170.58 129.17h126.64M170.58 117.74h126.64M182.1 166.09v-57.35M216.63 166.09v-57.35M251.17 166.09v-57.35M285.71 166.09v-57.35"/><path d="M176.34 163.48h11.51V147h-11.51zM210.88 163.48h11.51v-19.34h-11.51zM245.41 163.48h11.51v-10.6h-11.51zM279.95 163.48h11.51v-22.2h-11.51z" fill="#595959"/><path stroke-width="1.07" stroke-linejoin="round" fill="none" stroke="#000" d="m182.1 158.28.2-.02.2-.01.2-.02.21-.01.2-.01.2-.02.21-.01.2-.01.2-.02.2-.01.21-.01.2-.01.2-.01.2-.01.21-.01.2-.01.2-.01.21-.01.2-.01.2-.01.2-.01.21-.01h.2l.2-.01.21-.01.2-.01h.2l.2-.01.21-.01h.2l.2-.01.2-.01h.21l.2-.01h.2l.21-.01h.2l.2-.01h.2l.21-.01h.2l.2-.01h.2l.21-.01h.2l.2-.01H191.83l.2-.01h.2l.21-.01h.2l.2-.01H193.25l.2-.01h.2l.21-.01h.2l.2-.01H194.67l.2-.01h.2l.21-.01h.2l.2-.01h.2l.21-.01h.2l.2-.01h.2l.21-.01h.2l.2-.01h.21l.2-.01.2-.01h.2l.21-.01h.2l.2-.01.21-.01h.2l.2-.01.2-.01h.21l.2-.01.2-.01.2-.01h.21l.2-.01.2-.01.21-.01h.2l.2-.01.2-.01.21-.01.2-.01h.2l.21-.01.2-.01.2-.01.2-.01.21-.01h.2l.2-.01.2-.01.21-.01.2-.01.2-.01.21-.01h.2l.2-.01.2-.01.21-.01.2-.01.2-.01.2-.01h.21l.2-.01.2-.01.21-.01.2-.01.2-.01h.2l.21-.01.2-.01.2-.01h.21l.2-.01.2-.01h.2l.21-.01.2-.01h.2l.2-.01.21-.01h.2l.2-.01h.21l.2-.01h.2l.2-.01h.21l.2-.01h.4l.21-.01h.81l.2-.01H214.94l.21.01H215.75l.21.01h.4l.21.01h.2l.2.01h.2l.21.01.2.01h.2l.2.01.21.01.2.01h.2l.21.01.2.01.2.01.2.01.21.01.2.01.2.01.21.01.2.01.2.02.2.01.21.01.2.01.2.02.2.01.21.01.2.02.2.01.21.02.2.01.2.02.2.01.21.02.2.02.2.01.2.02.21.02.2.01.2.02.21.02.2.01.2.02.2.02.21.02.2.02.2.02.21.02.2.01.2.02.2.02.21.02.2.02.2.02.2.02.21.02.2.02.2.02.21.02.2.02.2.02.2.02.21.02.2.02.2.02.21.02.2.02.2.02.2.02.21.02.2.02.2.02.2.02.21.02.2.02.2.02.21.02.2.01.2.02.2.02.21.02.2.02.2.02.2.02.21.01.2.02.2.02.21.02.2.02.2.01.2.02.21.02.2.01.2.02.21.02.2.01.2.02.2.01.21.02.2.01.2.02.2.01.21.02.2.01.2.01.21.02.2.01.2.01.2.02.21.01.2.01.2.01.2.02.21.01.2.01.2.01.21.01.2.01.2.01.2.01.21.01.2.01.2.01.21.01.2.01.2.01h.2l.21.01.2.01.2.01h.2l.21.01.2.01h.2l.21.01.2.01h.2l.2.01h.21l.2.01h.2l.2.01h.21l.2.01H245.97l.2.01h.61l.2.01h1.01l.21.01H250.02l.2-.01h1.02l.2-.01H251.85l.2-.01h.4l.21-.01h.4l.21-.01h.2l.2-.01h.2l.21-.01h.2l.2-.01.2-.01h.21l.2-.01.2-.01h.21l.2-.01.2-.01h.2l.21-.01.2-.01.2-.01.21-.01.2-.01.2-.01.2-.01.21-.01.2-.01.2-.01.2-.01.21-.01.2-.01.2-.01.21-.01.2-.01.2-.01.2-.02.21-.01.2-.01.2-.02.2-.01.21-.01.2-.02.2-.01.21-.02.2-.01.2-.02.2-.01.21-.02.2-.01.2-.02.21-.02.2-.01.2-.02.2-.02.21-.01.2-.02.2-.02.2-.02.21-.02.2-.02.2-.01.21-.02.2-.02.2-.02.2-.02.21-.02.2-.02.2-.02.2-.03.21-.02.2-.02.2-.02.21-.02.2-.02.2-.03.2-.02.21-.02.2-.02.2-.02.21-.03.2-.02.2-.02.2-.03.21-.02.2-.02.2-.03.2-.02.21-.02.2-.03.2-.02.21-.02.2-.03.2-.02.2-.02.21-.03.2-.02.2-.03.2-.02.21-.02.2-.03.2-.02.21-.02.2-.02.2-.03.2-.02.21-.02.2-.02.2-.03.21-.02.2-.02.2-.02.2-.02.21-.02.2-.02.2-.02.2-.02.21-.02.2-.02.2-.02.21-.02.2-.02.2-.02.2-.02.21-.01.2-.02.2-.02.2-.01.21-.02.2-.01.2-.02.21-.01.2-.01.2-.02.2-.01.21-.01.2-.01.2-.01.21-.01.2-.01.2-.01.2-.01.21-.01h.2l.2-.01.2-.01H282.26l.2-.01H282.87l.2-.01H283.68l.2.01H284.49l.2.01h.21l.2.01.2.01h.2l.21.01"/><path stroke-width="1.07" stroke-linecap="round" stroke-linejoin="round" fill="none" stroke="#dcdcdc" d="M170.58 166.09h126.64v-57.35H170.58z"/></g><clipPath id="g"><path transform="matrix(1 0 0 -1 0 368)" d="M170.58 118.62h126.64v57.35H170.58z"/></clipPath><g clip-path="url(#g)"><path stroke-width=".53" stroke-linejoin="round" fill="none" stroke="#ebebeb" d="M170.58 241.06h126.64M170.58 229.62h126.64M170.58 218.18h126.64M170.58 206.75h126.64M170.58 195.31h126.64M199.36 249.38v-57.35M233.9 249.38v-57.35M268.44 249.38v-57.35"/><path stroke-width="1.07" stroke-linejoin="round" fill="none" stroke="#ebebeb" d="M170.58 246.78h126.64M170.58 235.34h126.64M170.58 223.9h126.64M170.58 212.47h126.64M170.58 201.03h126.64M182.1 249.38v-57.35M216.63 249.38v-57.35M251.17 249.38v-57.35M285.71 249.38v-57.35"/><path d="M176.34 246.78h11.51v-19h-11.51zM210.88 246.78h11.51V234.5h-11.51zM245.41 246.78h11.51v-25.73h-11.51zM279.95 246.78h11.51v-11.6h-11.51z" fill="#595959"/><path stroke-width="1.07" stroke-linejoin="round" fill="none" stroke="#000" d="m182.1 240.68.2-.01.2-.01h.2l.21-.01h.4l.21-.01h1.21l.2.01H185.34l.2.01h.21l.2.01.2.01.2.01h.21l.2.01.2.01.21.01.2.01.2.02.2.01.21.01.2.01.2.02.2.01.21.02.2.01.2.02.21.01.2.02.2.02.2.01.21.02.2.02.2.02.2.02.21.02.2.01.2.02.21.02.2.02.2.02.2.02.21.02.2.02.2.02.21.03.2.02.2.02.2.02.21.02.2.02.2.02.2.02.21.02.2.02.2.02.21.02.2.02.2.02.2.02.21.02.2.02.2.02.2.02.21.02.2.02.2.02.21.02.2.02.2.02.2.01.21.02.2.02.2.01.21.02.2.02.2.01.2.02.21.01.2.02.2.01.2.02.21.01.2.01.2.02.21.01.2.01.2.01.2.02.21.01.2.01.2.01.21.01.2.01.2.01.2.01h.21l.2.01.2.01.2.01h.21l.2.01.2.01h.21l.2.01h.2l.2.01h.21l.2.01h.4l.21.01h.61l.2.01H210.48l.21-.01h.81l.2-.01h.61l.2-.01H212.92l.2-.01h.4l.21-.01h.4l.21-.01h.2l.2-.01H215.15l.2-.01h.2l.2-.01H216.16l.2-.01h.21l.2-.01h.2l.2-.01h.21l.2-.01h.2l.2-.01h.21l.2-.01h.2l.21-.01h.2l.2-.01h.2l.21-.01.2-.01h.2l.21-.01.2-.01h.2l.2-.01.21-.01h.2l.2-.01.2-.01.21-.01h.2l.2-.01.21-.01.2-.01.2-.01.2-.01.21-.01.2-.01.2-.01.2-.01.21-.01.2-.01.2-.01.21-.01.2-.02.2-.01.2-.01.21-.01.2-.02.2-.01.21-.02.2-.01.2-.02.2-.01.21-.02.2-.01.2-.02.2-.02.21-.02.2-.02.2-.01.21-.02.2-.02.2-.02.2-.03.21-.02.2-.02.2-.02.21-.02.2-.03.2-.02.2-.03.21-.02.2-.03.2-.02.2-.03.21-.02.2-.03.2-.03.21-.03.2-.03.2-.03.2-.03.21-.03.2-.03.2-.03.2-.03.21-.03.2-.03.2-.04.21-.03.2-.03.2-.04.2-.03.21-.04.2-.03.2-.04.21-.03.2-.04.2-.04.2-.03.21-.04.2-.04.2-.03.2-.04.21-.04.2-.04.2-.04.21-.03.2-.04.2-.04.2-.04.21-.04.2-.03.2-.04.2-.04.21-.04.2-.04.2-.04.21-.03.2-.04.2-.04.2-.04.21-.03.2-.04.2-.04.21-.03.2-.04.2-.04.2-.03.21-.04.2-.03.2-.04.2-.03.21-.03.2-.04.2-.03.21-.03.2-.03.2-.03.2-.03.21-.03.2-.03.2-.03.2-.03.21-.02.2-.03.2-.02.21-.03.2-.02.2-.03.2-.02.21-.02.2-.02.2-.02.21-.02.2-.01.2-.02.2-.02.21-.01.2-.02.2-.01.2-.01.21-.01.2-.01.2-.01.21-.01h.2l.2-.01.2-.01h1.63l.2.01h.2l.2.01.21.01h.2l.2.01.21.02.2.01.2.01.2.01.21.02.2.01.2.02.2.02.21.02.2.01.2.02.21.03.2.02.2.02.2.02.21.03.2.02.2.03.21.03.2.02.2.03.2.03.21.03.2.03.2.03.2.03.21.04.2.03.2.03.21.04.2.03.2.04.2.03.21.04.2.03.2.04.2.04.21.03.2.04.2.04.21.04.2.04.2.04.2.04.21.03.2.04.2.04.21.04.2.04.2.04.2.04.21.04.2.04.2.04.2.04.21.04.2.04.2.04.21.04.2.04.2.04.2.04.21.04.2.04.2.04.2.04.21.03.2.04.2.04.21.04.2.04.2.03.2.04.21.03.2.04.2.04.21.03.2.04.2.03.2.03.21.04.2.03.2.03.2.03.21.04.2.03.2.03.21.03.2.03.2.03.2.03.21.03.2.02.2.03.2.03.21.03.2.02.2.03.21.02.2.03.2.02.2.03.21.02.2.02.2.03.21.02.2.02.2.02.2.02.21.02.2.03.2.02.2.02.21.01.2.02.2.02.21.02.2.02.2.02.2.02.21.01.2.02.2.02.2.01.21.02.2.02.2.01.21.02.2.01.2.02.2.02.21.01.2.02.2.01.21.02.2.01.2.02.2.01.21.02.2.01.2.02.2.01.21.02.2.01.2.02.21.01.2.02.2.01.2.02.21.01.2.02.2.01.21.02.2.01.2.02.2.02.21.01.2.02.2.02.2.01.21.02"/><path stroke-width="1.07" stroke-linecap="round" stroke-linejoin="round" fill="none" stroke="#dcdcdc" d="M170.58 249.38h126.64v-57.35H170.58z"/></g><clipPath id="h"><path transform="matrix(1 0 0 -1 0 368)" d="M170.58 35.32h126.64v57.35H170.58z"/></clipPath><g clip-path="url(#h)"><path stroke-width=".53" stroke-linejoin="round" fill="none" stroke="#ebebeb" d="M170.58 324.35h126.64M170.58 312.92h126.64M170.58 301.48h126.64M170.58 290.04h126.64M170.58 278.61h126.64M199.36 332.68v-57.35M233.9 332.68v-57.35M268.44 332.68v-57.35"/><path stroke-width="1.07" stroke-linejoin="round" fill="none" stroke="#ebebeb" d="M170.58 330.07h126.64M170.58 318.63h126.64M170.58 307.2h126.64M170.58 295.76h126.64M170.58 284.33h126.64M182.1 332.68v-57.35M216.63 332.68v-57.35M251.17 332.68v-57.35M285.71 332.68v-57.35"/><path d="M176.34 330.07h11.51v-37.34h-11.51zM210.88 330.07h11.51v-21.86h-11.51zM245.41 330.07h11.51v-6.56h-11.51zM279.95 330.07h11.51v-2.86h-11.51z" fill="#595959"/><path stroke-width="1.07" stroke-linejoin="round" fill="none" stroke="#000" d="M182.1 313.63h.2l.2.01.2.01.21.02.2.02.2.03.21.04.2.04.2.05.2.05.21.06.2.06.2.07.2.08.21.08.2.08.2.09.21.1.2.1.2.1.2.11.21.11.2.12.2.12.21.12.2.13.2.14.2.13.21.14.2.14.2.15.2.14.21.15.2.16.2.15.21.16.2.16.2.16.2.16.21.16.2.16.2.17.2.16.21.17.2.16.2.17.21.16.2.17.2.16.2.17.21.16.2.16.2.16.21.16.2.16.2.16.2.15.21.16.2.15.2.15.2.14.21.15.2.14.2.13.21.14.2.13.2.13.2.13.21.12.2.12.2.11.2.12.21.1.2.11.2.1.21.09.2.09.2.09.2.09.21.08.2.07.2.07.21.07.2.06.2.06.2.06.21.05.2.04.2.04.2.04.21.03.2.03.2.03.21.02.2.01.2.01.2.01.21.01h.2l.2-.01.21-.01.2-.01.2-.01.2-.02.21-.02.2-.03.2-.03.2-.03.21-.04.2-.03.2-.05.21-.04.2-.05.2-.05.2-.05.21-.05.2-.06.2-.06.2-.06.21-.06.2-.06.2-.07.21-.07.2-.07.2-.06.2-.08.21-.07.2-.07.2-.07.21-.07.2-.08.2-.07.2-.08.21-.07.2-.07.2-.08.2-.07.21-.07.2-.07.2-.07.21-.07.2-.07.2-.07.2-.07.21-.06.2-.06.2-.07.2-.06.21-.05.2-.06.2-.05.21-.05.2-.05.2-.05.2-.04.21-.04.2-.04.2-.04.21-.03.2-.03.2-.03.2-.02.21-.02.2-.02.2-.02.2-.01.21-.01h.2l.2-.01.21.01h.2l.2.01.2.01.21.01.2.02.2.02.2.02.21.03.2.03.2.04.21.03.2.04.2.05.2.04.21.05.2.05.2.06.21.06.2.06.2.06.2.07.21.07.2.07.2.07.2.08.21.08.2.08.2.08.21.08.2.09.2.09.2.09.21.09.2.09.2.1.2.1.21.09.2.1.2.1.21.1.2.1.2.11.2.1.21.1.2.1.2.11.21.1.2.11.2.1.2.11.21.1.2.1.2.11.2.1.21.1.2.11.2.1.21.1.2.1.2.1.2.09.21.1.2.1.2.09.21.09.2.09.2.09.2.09.21.09.2.09.2.08.2.08.21.08.2.08.2.08.21.07.2.08.2.07.2.07.21.06.2.07.2.06.2.06.21.06.2.06.2.06.21.05.2.05.2.05.2.05.21.04.2.04.2.04.21.04.2.04.2.03.2.04.21.03.2.03.2.02.2.03.21.02.2.02.2.02.21.02.2.01.2.02.2.01.21.01.2.01.2.01h.2l.21.01h.4l.21.01.2-.01h.61l.2-.01h.2l.21-.01.2-.01.2-.01.2-.01.21-.01.2-.01.2-.01.2-.01.21-.01.2-.02.2-.01.21-.01.2-.02.2-.01.2-.02.21-.01.2-.02.2-.01.2-.02.21-.01.2-.02.2-.01.21-.02.2-.01.2-.01.2-.02.21-.01.2-.01.2-.02.21-.01.2-.01.2-.01.2-.01.21-.01.2-.01.2-.01.2-.01h.21l.2-.01h.2l.21-.01h.2l.2-.01h1.22l.2.01h.2l.21.01h.2l.2.01.2.01h.21l.2.01.2.01.21.02.2.01.2.01.2.02.21.01.2.02.2.01.2.02.21.02.2.02.2.02.21.02.2.02.2.02.2.02.21.03.2.02.2.02.21.03.2.02.2.03.2.03.21.02.2.03.2.03.2.03.21.03.2.02.2.03.21.03.2.03.2.03.2.03.21.03.2.03.2.03.2.03.21.03.2.03.2.03.21.03.2.03.2.03.2.03.21.03.2.03.2.03.21.03.2.03.2.03.2.03.21.02.2.03.2.03.2.02.21.03.2.02.2.03.21.02.2.03.2.02.2.02.21.02.2.02.2.03.2.02.21.02.2.01.2.02.21.02.2.02.2.01.2.02.21.01.2.02.2.01.21.01.2.02.2.01.2.01.21.01.2.01.2.01.2.01h.21l.2.01.2.01h.21l.2.01h.4l.21.01h2.02l.21-.01h.4l.21-.01h.2l.2-.01h.2l.21-.01.2-.01h.2l.2-.01.21-.01h.2l.2-.01.21-.01h.2l.2-.01.2-.01.21-.01.2-.01h.2l.2-.01.21-.01.2-.01.2-.01.21-.01.2-.01h.2l.2-.01.21-.01.2-.01.2-.01h.21l.2-.01.2-.01.2-.01h.21l.2-.01.2-.01h.2l.21-.01h.2l.2-.01h.21l.2-.01h.2l.2-.01H283.68l.2-.01H284.49l.2-.01h1.02"/><path stroke-width="1.07" stroke-linecap="round" stroke-linejoin="round" fill="none" stroke="#dcdcdc" d="M170.58 332.68h126.64v-57.35H170.58z"/></g><clipPath id="i"><path transform="matrix(1 0 0 -1 0 368)" d="M302.7 285.21h126.64v57.35H302.7z"/></clipPath><g clip-path="url(#i)"><path stroke-width=".53" stroke-linejoin="round" fill="none" stroke="#ebebeb" d="M302.7 74.47h126.63M302.7 63.03h126.63M302.7 51.59h126.63M302.7 40.16h126.63M302.7 28.72h126.63M331.48 82.79V25.44M366.02 82.79V25.44M400.55 82.79V25.44"/><path stroke-width="1.07" stroke-linejoin="round" fill="none" stroke="#ebebeb" d="M302.7 80.18h126.63M302.7 68.75h126.63M302.7 57.31h126.63M302.7 45.88h126.63M302.7 34.44h126.63M314.21 82.79V25.44M348.75 82.79V25.44M383.29 82.79V25.44M417.82 82.79V25.44"/><path d="M308.46 80.18h11.51V71.1h-11.51zM342.99 80.18h11.51V54.79h-11.51zM377.53 80.18h11.51V54.11h-11.51zM412.07 80.18h11.51v-8.07h-11.51z" fill="#595959"/><path stroke-width="1.07" stroke-linejoin="round" fill="none" stroke="#000" d="M314.21 76.15h.2l.21-.01h.2l.2.01H315.43l.2.01h.2l.21.01.2.01.2.01.2.01.21.01.2.02.2.01.21.02.2.01.2.02.2.02.21.01.2.02.2.02.2.02.21.02.2.03.2.02.21.02.2.02.2.03.2.02.21.02.2.03.2.02.21.02.2.03.2.02.2.02.21.02.2.03.2.02.2.02.21.02.2.02.2.02.21.02.2.02.2.02.2.01.21.02.2.01.2.01.2.02.21.01.2.01h.2l.21.01h.2l.2.01H326.58l.2-.01h.21l.2-.01.2-.01.2-.02.21-.01.2-.02.2-.01.2-.02.21-.03.2-.02.2-.03.21-.03.2-.03.2-.04.2-.03.21-.04.2-.05.2-.04.2-.05.21-.05.2-.05.2-.05.21-.06.2-.06.2-.06.2-.07.21-.06.2-.07.2-.07.21-.08.2-.08.2-.07.2-.09.21-.08.2-.09.2-.08.2-.09.21-.1.2-.09.2-.1.21-.1.2-.1.2-.1.2-.1.21-.11.2-.1.2-.11.2-.11.21-.11.2-.12.2-.11.21-.11.2-.12.2-.12.2-.11.21-.12.2-.12.2-.12.21-.12.2-.12.2-.12.2-.12.21-.11.2-.12.2-.12.2-.12.21-.12.2-.12.2-.11.21-.12.2-.11.2-.11.2-.11.21-.11.2-.11.2-.11.21-.1.2-.11.2-.1.2-.1.21-.09.2-.1.2-.09.2-.09.21-.08.2-.09.2-.08.21-.08.2-.07.2-.07.2-.07.21-.07.2-.06.2-.06.2-.05.21-.05.2-.05.2-.04.21-.04.2-.04.2-.03.2-.03.21-.03.2-.02.2-.01.21-.02.2-.01h.81l.2.02.2.01.21.02.2.02.2.03.21.02.2.04.2.03.2.04.21.05.2.04.2.06.2.05.21.06.2.06.2.06.21.07.2.07.2.07.2.07.21.08.2.08.2.08.21.08.2.09.2.09.2.09.21.09.2.09.2.1.2.09.21.1.2.1.2.1.21.1.2.1.2.1.2.1.21.1.2.1.2.1.2.1.21.1.2.1.2.1.21.1.2.1.2.09.2.1.21.09.2.1.2.09.21.09.2.08.2.09.2.08.21.08.2.08.2.08.2.07.21.08.2.06.2.07.21.06.2.06.2.06.2.06.21.05.2.05.2.04.2.04.21.04.2.03.2.03.21.03.2.02.2.02.2.02.21.01.2.01.2.01h.21l.2-.01h.2l.2-.01.21-.02.2-.01.2-.02.2-.03.21-.03.2-.03.2-.03.21-.04.2-.04.2-.05.2-.05.21-.05.2-.06.2-.06.21-.06.2-.07.2-.06.2-.07.21-.08.2-.07.2-.08.2-.08.21-.09.2-.08.2-.09.21-.09.2-.09.2-.1.2-.09.21-.1.2-.1.2-.1.2-.1.21-.1.2-.1.2-.11.21-.1.2-.11.2-.1.2-.11.21-.1.2-.11.2-.1.21-.11.2-.1.2-.1.2-.11.21-.1.2-.1.2-.1.2-.09.21-.1.2-.1.2-.09.21-.09.2-.09.2-.08.2-.09.21-.08.2-.08.2-.08.2-.07.21-.07.2-.07.2-.07.21-.06.2-.06.2-.05.2-.06.21-.04.2-.05.2-.04.21-.04.2-.03.2-.03.2-.03.21-.02.2-.02.2-.02.2-.01h.21l.2-.01h.2l.21.01.2.01.2.01.2.02.21.02.2.03.2.03.2.03.21.04.2.04.2.05.21.05.2.05.2.06.2.05.21.07.2.07.2.07.21.07.2.08.2.08.2.08.21.09.2.09.2.09.2.09.21.1.2.1.2.1.21.11.2.1.2.11.2.11.21.11.2.12.2.11.2.12.21.12.2.12.2.12.21.12.2.12.2.12.2.12.21.13.2.12.2.13.21.12.2.12.2.13.2.12.21.12.2.13.2.12.2.12.21.12.2.12.2.12.21.12.2.11.2.12.2.11.21.12.2.11.2.11.21.1.2.11.2.1.2.11.21.09.2.1.2.1.2.09.21.09.2.09.2.09.21.09.2.08.2.08.2.08.21.07.2.07.2.08.2.06.21.07.2.06.2.06.21.06.2.06.2.05.2.05.21.05.2.04.2.05.21.04.2.04.2.03.2.04.21.03.2.03.2.02.2.03.21.02.2.02.2.02.21.02.2.01.2.01.2.01.21.01.2.01h.2l.2.01H407.08l.2-.01h.2l.2-.01.21-.01.2-.01.2-.01.21-.01.2-.01.2-.01.2-.02.21-.01.2-.02.2-.01.2-.02.21-.02.2-.02.2-.01.21-.02.2-.02.2-.02.2-.02.21-.02.2-.01.2-.02.2-.02.21-.02.2-.02.2-.02.21-.01.2-.02.2-.02.2-.01.21-.02.2-.01.2-.02.21-.01.2-.02.2-.01.2-.01.21-.01.2-.01.2-.01.2-.01h.21l.2-.01.2-.01h1.42"/><path stroke-width="1.07" stroke-linecap="round" stroke-linejoin="round" fill="none" stroke="#dcdcdc" d="M302.7 82.79h126.64V25.44H302.7z"/></g><clipPath id="j"><path transform="matrix(1 0 0 -1 0 368)" d="M302.7 201.91h126.64v57.35H302.7z"/></clipPath><g clip-path="url(#j)"><path stroke-width=".53" stroke-linejoin="round" fill="none" stroke="#ebebeb" d="M302.7 157.76h126.63M302.7 146.33h126.63M302.7 134.89h126.63M302.7 123.45h126.63M302.7 112.02h126.63M331.48 166.09v-57.35M366.02 166.09v-57.35M400.55 166.09v-57.35"/><path stroke-width="1.07" stroke-linejoin="round" fill="none" stroke="#ebebeb" d="M302.7 163.48h126.63M302.7 152.04h126.63M302.7 140.61h126.63M302.7 129.17h126.63M302.7 117.74h126.63M314.21 166.09v-57.35M348.75 166.09v-57.35M383.29 166.09v-57.35M417.82 166.09v-57.35"/><path d="M308.46 163.48h11.51v-26.24h-11.51zM342.99 163.48h11.51v-22.2h-11.51zM377.53 163.48h11.51v-13.29h-11.51zM412.07 163.48h11.51v-6.9h-11.51z" fill="#595959"/><path stroke-width="1.07" stroke-linejoin="round" fill="none" stroke="#000" d="m314.21 154.46.2-.01.21-.01.2-.01.2-.01h.21l.2-.01h.81l.2.01H316.85l.2.01.2.01.21.01.2.01.2.01.2.01.21.02.2.01.2.02.2.01.21.02.2.02.2.02.21.02.2.02.2.03.2.02.21.02.2.03.2.02.21.03.2.02.2.03.2.03.21.03.2.03.2.02.2.03.21.03.2.03.2.03.21.03.2.03.2.03.2.03.21.03.2.04.2.03.2.03.21.03.2.03.2.03.21.03.2.03.2.03.2.02.21.03.2.03.2.03.21.03.2.02.2.03.2.03.21.02.2.03.2.02.2.02.21.03.2.02.2.02.21.02.2.02.2.02.2.02.21.01.2.02.2.02.2.01.21.02.2.01.2.01.21.01.2.01.2.01.2.01.21.01.2.01h.2l.21.01h.2l.2.01H334.89l.21-.01h.2l.2-.01h.2l.21-.01.2-.01h.2l.2-.01.21-.01.2-.01.2-.01.21-.01.2-.01.2-.01.2-.02.21-.01.2-.01.2-.02.21-.01.2-.01.2-.02.2-.01.21-.02.2-.01.2-.02.2-.01.21-.02.2-.01.2-.02.21-.01.2-.02.2-.01.2-.02.21-.01.2-.02.2-.01.21-.01.2-.02.2-.01.2-.01.21-.02.2-.01.2-.01.2-.01.21-.01.2-.01.2-.01.21-.01.2-.01.2-.01.2-.01h.21l.2-.01h.2l.2-.01h.21l.2-.01h1.22l.2.01H348.28l.2.01.2.01h.2l.21.01.2.01.2.01.2.01.21.01.2.02.2.01.21.01.2.02.2.02.2.01.21.02.2.02.2.02.2.02.21.02.2.02.2.03.21.02.2.03.2.02.2.03.21.03.2.02.2.03.21.03.2.03.2.03.2.03.21.04.2.03.2.03.2.03.21.04.2.03.2.04.21.03.2.04.2.03.2.04.21.04.2.03.2.04.2.04.21.04.2.03.2.04.21.04.2.04.2.04.2.03.21.04.2.04.2.04.21.04.2.04.2.03.2.04.21.04.2.04.2.03.2.04.21.04.2.03.2.04.21.03.2.04.2.03.2.04.21.03.2.03.2.04.2.03.21.03.2.03.2.03.21.03.2.03.2.03.2.03.21.03.2.02.2.03.21.02.2.03.2.02.2.03.21.02.2.02.2.02.2.03.21.02.2.02.2.01.21.02.2.02.2.02.2.01.21.02.2.01.2.02.21.01.2.01.2.02.2.01.21.01.2.01.2.01.2.01.21.01.2.01h.2l.21.01.2.01h.2l.2.01h.21l.2.01h.2l.2.01H373.62l.2.01H374.43l.2.01H378.89l.2.01h1.02l.2.01H380.72l.2.01H381.33l.2.01h.2l.2.01h.21l.2.01.2.01h.2l.21.01.2.01.2.01.21.01.2.01.2.01.2.01.21.01.2.01.2.01.2.01.21.01.2.02.2.01.21.01.2.02.2.01.2.02.21.01.2.02.2.02.21.01.2.02.2.02.2.02.21.02.2.02.2.02.2.02.21.02.2.02.2.02.21.02.2.02.2.02.2.03.21.02.2.02.2.02.2.03.21.02.2.03.2.02.21.02.2.03.2.02.2.03.21.02.2.03.2.02.21.03.2.02.2.03.2.03.21.02.2.03.2.02.2.03.21.02.2.03.2.02.21.03.2.02.2.03.2.02.21.03.2.02.2.02.21.03.2.02.2.03.2.02.21.02.2.03.2.02.2.02.21.02.2.02.2.03.21.02.2.02.2.02.2.02.21.02.2.02.2.02.2.01.21.02.2.02.2.02.21.01.2.02.2.02.2.01.21.02.2.01.2.02.21.01.2.02.2.01.2.01.21.02.2.01.2.01.2.01.21.01.2.01.2.01.21.01.2.01.2.01.2.01.21.01.2.01.2.01.2.01h.21l.2.01.2.01h.21l.2.01h.2l.2.01.21.01h.2l.2.01h.21l.2.01h.4l.21.01h.2l.2.01H410.12l.2.01H410.93l.2.01H411.54l.2.01h.4l.21.01h.61l.2.01h.4l.21.01h.4l.21.01h.2l.2.01H415.19l.2.01h.2l.2.01h.21l.2.01h.2l.21.01h.2l.2.01.2.01h.21l.2.01.2.01"/><path stroke-width="1.07" stroke-linecap="round" stroke-linejoin="round" fill="none" stroke="#dcdcdc" d="M302.7 166.09h126.64v-57.35H302.7z"/></g><clipPath id="k"><path transform="matrix(1 0 0 -1 0 368)" d="M302.7 118.62h126.64v57.35H302.7z"/></clipPath><g clip-path="url(#k)"><path stroke-width=".53" stroke-linejoin="round" fill="none" stroke="#ebebeb" d="M302.7 241.06h126.63M302.7 229.62h126.63M302.7 218.18h126.63M302.7 206.75h126.63M302.7 195.31h126.63M331.48 249.38v-57.35M366.02 249.38v-57.35M400.55 249.38v-57.35"/><path stroke-width="1.07" stroke-linejoin="round" fill="none" stroke="#ebebeb" d="M302.7 246.78h126.63M302.7 235.34h126.63M302.7 223.9h126.63M302.7 212.47h126.63M302.7 201.03h126.63M314.21 249.38v-57.35M348.75 249.38v-57.35M383.29 249.38v-57.35M417.82 249.38v-57.35"/><path d="M308.46 246.78h11.51v-23.04h-11.51zM342.99 246.78h11.51v-18.84h-11.51zM377.53 246.78h11.51V230.3h-11.51zM412.07 246.78h11.51v-10.26h-11.51z" fill="#595959"/><path stroke-width="1.07" stroke-linejoin="round" fill="none" stroke="#000" d="m314.21 239.29.2-.01.21-.02.2-.01.2-.01h.21l.2-.01.2-.01h.2l.21-.01h.4l.2-.01H317.25l.21.01h.4l.2.01h.21l.2.01h.2l.2.01.21.01h.2l.2.01.21.01.2.01.2.01.2.02.21.01.2.01.2.01.21.02.2.01.2.01.2.02.21.01.2.02.2.01.2.02.21.02.2.01.2.02.21.02.2.01.2.02.2.02.21.02.2.01.2.02.2.02.21.02.2.02.2.01.21.02.2.02.2.02.2.02.21.01.2.02.2.02.21.02.2.01.2.02.2.02.21.01.2.02.2.01.2.02.21.02.2.01.2.02.21.01.2.01.2.02.2.01.21.01.2.02.2.01.2.01.21.01.2.01.2.01.21.01.2.01.2.01.2.01.21.01.2.01h.2l.21.01.2.01h.2l.2.01.21.01h.4l.2.01H334.69l.2.01h1.02l.2.01h.4l.21-.01h1.01l.2-.01H338.54l.21-.01h.2l.2-.01H339.56l.2-.01h.2l.2-.01H340.57l.2-.01h.21l.2-.01h.2l.2-.01h.21l.2-.01h.2l.21-.01h.4l.2-.01h.21l.2-.01h.4l.21-.01h.61l.2-.01h1.01l.2-.01H346.65l.21.01h1.01l.2.01H348.48l.2.01h.2l.21.01h.2l.2.01h.2l.21.01.2.01h.2l.21.01.2.01.2.01.2.01.21.01.2.01.2.01.2.01.21.01.2.01.2.01.21.01.2.01.2.01.2.02.21.01.2.01.2.02.21.01.2.01.2.02.2.01.21.02.2.01.2.02.2.01.21.02.2.01.2.02.21.01.2.02.2.02.2.01.21.02.2.01.2.02.2.02.21.01.2.02.2.01.21.02.2.02.2.01.2.02.21.01.2.02.2.02.21.01.2.02.2.01.2.02.21.01.2.02.2.01.2.01.21.02.2.01.2.01.21.02.2.01.2.01.2.01.21.02.2.01.2.01.2.01.21.01.2.01.2.01.21.01.2.01.2.01h.2l.21.01.2.01.2.01h.21l.2.01.2.01h.2l.21.01h.2l.2.01H367.54l.2.01h.81l.2.01h1.42l.21-.01h.81l.2-.01H371.8l.2-.01h.4l.21-.01h.2l.2-.01h.2l.21-.01h.2l.2-.01h.21l.2-.01h.2l.2-.01h.21l.2-.01h.2l.21-.01h.2l.2-.01h.2l.21-.01h.2l.2-.01H377.07l.2-.01h.2l.21-.01h.4l.2-.01H378.89l.2-.01h2.64l.2.01H382.34l.2.01h.2l.21.01h.2l.2.01h.21l.2.01.2.01h.2l.21.01.2.01.2.01.2.01.21.01.2.01.2.01.21.01.2.01.2.01.2.02.21.01.2.01.2.01.21.02.2.01.2.02.2.01.21.02.2.01.2.02.2.02.21.01.2.02.2.02.21.02.2.01.2.02.2.02.21.02.2.02.2.02.2.02.21.02.2.02.2.02.21.02.2.02.2.02.2.02.21.02.2.02.2.02.21.02.2.02.2.03.2.02.21.02.2.02.2.02.2.02.21.02.2.03.2.02.21.02.2.02.2.02.2.02.21.02.2.02.2.02.21.02.2.02.2.02.2.02.21.02.2.02.2.02.2.02.21.02.2.02.2.02.21.02.2.02.2.01.2.02.21.02.2.01.2.02.2.02.21.01.2.02.2.02.21.01.2.02.2.01.2.01.21.02.2.01.2.02.21.01.2.01.2.01.2.02.21.01.2.01.2.01.2.01.21.01.2.01.2.01.21.01.2.01.2.01.2.01.21.01.2.01.2.01.2.01h.21l.2.01.2.01.21.01h.2l.2.01.2.01h.21l.2.01.2.01h.21l.2.01.2.01h.2l.21.01h.2l.2.01h.2l.21.01h.2l.2.01.21.01h.2l.2.01h.2l.21.01h.2l.2.01h.2l.21.01h.2l.2.01.21.01h.2l.2.01h.2l.21.01.2.01h.2l.21.01.2.01h.2l.2.01.21.01.2.01h.2l.2.01.21.01.2.01.2.01.21.01.2.01.2.01.2.01.21.01.2.01.2.01"/><path stroke-width="1.07" stroke-linecap="round" stroke-linejoin="round" fill="none" stroke="#dcdcdc" d="M302.7 249.38h126.64v-57.35H302.7z"/></g><clipPath id="l"><path transform="matrix(1 0 0 -1 0 368)" d="M302.7 35.32h126.64v57.35H302.7z"/></clipPath><g clip-path="url(#l)"><path stroke-width=".53" stroke-linejoin="round" fill="none" stroke="#ebebeb" d="M302.7 324.35h126.63M302.7 312.92h126.63M302.7 301.48h126.63M302.7 290.04h126.63M302.7 278.61h126.63M331.48 332.68v-57.35M366.02 332.68v-57.35M400.55 332.68v-57.35"/><path stroke-width="1.07" stroke-linejoin="round" fill="none" stroke="#ebebeb" d="M302.7 330.07h126.63M302.7 318.63h126.63M302.7 307.2h126.63M302.7 295.76h126.63M302.7 284.33h126.63M314.21 332.68v-57.35M348.75 332.68v-57.35M383.29 332.68v-57.35M417.82 332.68v-57.35"/><path d="M308.46 330.07h11.51v-44.74h-11.51zM342.99 330.07h11.51v-8.75h-11.51zM377.53 330.07h11.51V322h-11.51zM412.07 330.07h11.51v-7.06h-11.51z" fill="#595959"/><path stroke-width="1.07" stroke-linejoin="round" fill="none" stroke="#000" d="M314.21 310.41h.2l.21.01.2.02.2.02.21.03.2.04.2.05.2.05.21.06.2.07.2.07.2.08.21.09.2.09.2.11.21.1.2.12.2.11.2.13.21.13.2.14.2.14.2.14.21.16.2.15.2.17.21.16.2.18.2.17.2.18.21.18.2.19.2.19.21.2.2.19.2.2.2.21.21.2.2.21.2.21.2.21.21.21.2.22.2.21.21.22.2.22.2.22.2.22.21.22.2.21.2.22.2.22.21.22.2.22.2.21.21.22.2.21.2.22.2.21.21.21.2.21.2.2.21.21.2.2.2.2.2.19.21.2.2.19.2.19.2.18.21.19.2.18.2.17.21.17.2.17.2.17.2.16.21.16.2.15.2.15.2.15.21.15.2.14.2.13.21.13.2.13.2.13.2.12.21.11.2.12.2.1.21.11.2.1.2.1.2.09.21.09.2.09.2.08.2.08.21.07.2.07.2.07.21.06.2.06.2.06.2.06.21.05.2.04.2.05.2.04.21.04.2.03.2.04.21.03.2.02.2.03.2.02.21.02.2.02.2.01.21.02.2.01.2.01h.2l.21.01h.2l.2.01H340.37l.2-.01H340.98l.2-.01.2-.01h.2l.21-.01.2-.01.2-.01.21-.01.2-.01.2-.01.2-.01.21-.01.2-.02.2-.01.2-.01.21-.01.2-.01.2-.01.21-.02.2-.01.2-.01.2-.01.21-.01.2-.01h.2l.2-.01.21-.01.2-.01h.2l.21-.01h.2l.2-.01h1.02l.2.01h.4l.21.01.2.01h.2l.2.01.21.01.2.01.2.02.21.01.2.01.2.02.2.02.21.01.2.02.2.02.2.02.21.03.2.02.2.02.21.03.2.02.2.03.2.03.21.02.2.03.2.03.21.03.2.03.2.03.2.04.21.03.2.03.2.04.2.03.21.04.2.03.2.04.21.03.2.04.2.03.2.04.21.03.2.04.2.04.2.03.21.04.2.03.2.04.21.03.2.04.2.03.2.04.21.03.2.04.2.03.21.03.2.03.2.03.2.03.21.03.2.03.2.03.2.03.21.02.2.03.2.03.21.02.2.02.2.02.2.03.21.01.2.02.2.02.2.02.21.01.2.02.2.01.21.01.2.01.2.01.2.01.21.01.2.01H365.92l.2.01h.61l.2-.01h.4l.21-.01.2-.01.2-.01.21-.01.2-.01.2-.01.2-.01.21-.02.2-.01.2-.02.21-.01.2-.02.2-.02.2-.02.21-.02.2-.02.2-.03.2-.02.21-.02.2-.03.2-.02.21-.03.2-.03.2-.03.2-.02.21-.03.2-.03.2-.03.2-.03.21-.03.2-.03.2-.03.21-.04.2-.03.2-.03.2-.03.21-.03.2-.03.2-.04.21-.03.2-.03.2-.03.2-.03.21-.03.2-.03.2-.03.2-.03.21-.03.2-.03.2-.03.21-.03.2-.02.2-.03.2-.03.21-.02.2-.03.2-.02.2-.02.21-.02.2-.03.2-.02.21-.01.2-.02.2-.02.2-.02.21-.01.2-.02.2-.01.21-.01.2-.01.2-.01.2-.01.21-.01h.2l.2-.01h1.42l.2.01h.21l.2.01.2.01.2.01.21.01.2.01.2.02.21.01.2.01.2.02.2.02.21.02.2.02.2.02.21.02.2.02.2.02.2.03.21.02.2.03.2.02.2.03.21.03.2.03.2.03.21.03.2.03.2.03.2.03.21.03.2.03.2.04.2.03.21.03.2.03.2.04.21.03.2.03.2.04.2.03.21.03.2.04.2.03.21.03.2.04.2.03.2.03.21.03.2.03.2.03.2.03.21.03.2.03.2.03.21.03.2.03.2.03.2.02.21.03.2.02.2.03.21.02.2.02.2.02.2.02.21.02.2.02.2.02.2.02.21.01.2.02.2.01.21.01.2.02.2.01.2.01h.21l.2.01.2.01h.2l.21.01h1.21l.21-.01h.2l.2-.01h.21l.2-.01.2-.01.2-.01.21-.01.2-.01.2-.02.2-.01.21-.01.2-.02.2-.02.21-.01.2-.02.2-.02.2-.02.21-.02.2-.02.2-.02.2-.02.21-.03.2-.02.2-.02.21-.03.2-.02.2-.03.2-.02.21-.03.2-.03.2-.02.21-.03.2-.03.2-.02.2-.03.21-.03.2-.03.2-.02.2-.03.21-.03.2-.03.2-.02.21-.03.2-.03.2-.02.2-.03.21-.02.2-.03.2-.02.2-.03.21-.02.2-.02.2-.03.21-.02.2-.02.2-.02.2-.02.21-.02.2-.02.2-.01.21-.02.2-.02.2-.01.2-.02.21-.01.2-.01.2-.01.2-.01.21-.01.2-.01.2-.01h.21l.2-.01h.4l.21-.01h.4"/><path stroke-width="1.07" stroke-linecap="round" stroke-linejoin="round" fill="none" stroke="#dcdcdc" d="M302.7 332.68h126.64v-57.35H302.7z"/></g><clipPath id="m"><path transform="matrix(1 0 0 -1 0 368)" d="M434.81 285.21h126.64v57.35H434.81z"/></clipPath><g clip-path="url(#m)"><path stroke-width=".53" stroke-linejoin="round" fill="none" stroke="#ebebeb" d="M434.81 74.47h126.64M434.81 63.03h126.64M434.81 51.59h126.64M434.81 40.16h126.64M434.81 28.72h126.64M463.59 82.79V25.44M498.13 82.79V25.44M532.67 82.79V25.44"/><path stroke-width="1.07" stroke-linejoin="round" fill="none" stroke="#ebebeb" d="M434.81 80.18h126.64M434.81 68.75h126.64M434.81 57.31h126.64M434.81 45.88h126.64M434.81 34.44h126.64M446.33 82.79V25.44M480.86 82.79V25.44M515.4 82.79V25.44M549.94 82.79V25.44"/><path d="M440.57 80.18h11.51V37.13h-11.51zM475.11 80.18h11.51V61.01h-11.51zM509.64 80.18h11.51V75.3h-11.51zM544.18 80.18h11.51v-1.51h-11.51z" fill="#595959"/><path stroke-width="1.07" stroke-linejoin="round" fill="none" stroke="#000" d="M446.33 60.7h.2l.2.01.2.01.21.03.2.03.2.04.21.05.2.05.2.07.2.06.21.08.2.08.2.09.21.1.2.1.2.11.2.12.21.12.2.13.2.14.2.13.21.15.2.15.2.16.21.16.2.16.2.17.2.18.21.18.2.18.2.18.2.19.21.2.2.19.2.2.21.2.2.21.2.2.2.21.21.21.2.21.2.21.21.21.2.22.2.21.2.21.21.22.2.21.2.21.2.22.21.21.2.21.2.21.21.2.2.21.2.2.2.21.21.2.2.19.2.2.2.19.21.19.2.18.2.19.21.17.2.18.2.17.2.17.21.16.2.16.2.16.21.15.2.15.2.14.2.14.21.13.2.13.2.12.2.12.21.12.2.11.2.1.21.1.2.09.2.1.2.08.21.08.2.07.2.07.2.07.21.06.2.05.2.05.21.05.2.04.2.04.2.03.21.02.2.03.2.01.21.02.2.01h.61l.2-.01.2-.01.2-.02.21-.02.2-.02.2-.02.21-.03.2-.03.2-.04.2-.04.21-.04.2-.04.2-.05.2-.05.21-.05.2-.05.2-.05.21-.06.2-.06.2-.06.2-.06.21-.06.2-.07.2-.06.21-.07.2-.06.2-.07.2-.06.21-.07.2-.07.2-.07.2-.06.21-.07.2-.06.2-.07.21-.06.2-.07.2-.06.2-.06.21-.06.2-.06.2-.06.21-.06.2-.05.2-.05.2-.05.21-.05.2-.05.2-.04.2-.04.21-.04.2-.04.2-.03.21-.03.2-.03.2-.03.2-.02.21-.02.2-.02.2-.01.2-.02h.21l.2-.01H481l.2.01.2.01.21.02.2.01.2.02.21.03.2.02.2.03.2.03.21.04.2.04.2.04.2.04.21.05.2.05.2.05.21.06.2.06.2.06.2.06.21.07.2.07.2.07.2.07.21.08.2.08.2.07.21.09.2.08.2.08.2.09.21.09.2.09.2.09.21.09.2.09.2.1.2.09.21.1.2.1.2.09.2.1.21.1.2.1.2.1.21.1.2.09.2.1.2.1.21.1.2.1.2.1.2.1.21.09.2.1.2.1.21.09.2.1.2.09.2.09.21.09.2.09.2.09.21.09.2.09.2.08.2.08.21.09.2.08.2.08.2.07.21.08.2.07.2.07.21.08.2.06.2.07.2.07.21.06.2.06.2.06.2.06.21.05.2.06.2.05.21.05.2.05.2.04.2.05.21.04.2.04.2.04.21.03.2.04.2.03.2.03.21.03.2.03.2.02.2.03.21.02.2.02.2.02.21.02.2.01.2.02.2.01.21.01.2.01.2.01h.21l.2.01h.2l.2.01h1.02l.2-.01H505.74l.2-.01.2-.01h.2l.21-.01.2-.01.2-.01.2-.01.21-.01.2-.01.2-.01.21-.01.2-.01.2-.02.2-.01.21-.01.2-.01.2-.01.21-.02.2-.01.2-.01.2-.01.21-.02.2-.01.2-.01.2-.01.21-.01.2-.01.2-.01.21-.01.2-.01.2-.01.2-.01.21-.01.2-.01h.2l.2-.01.21-.01h.2l.2-.01H514.05l.2-.01h1.42l.2.01h.21l.2.01h.2l.2.01h.21l.2.01.2.01.21.01.2.01.2.01.2.01.21.01.2.02.2.01.2.01.21.02.2.01.2.02.21.02.2.01.2.02.2.02.21.02.2.02.2.02.21.02.2.02.2.02.2.02.21.03.2.02.2.02.2.02.21.03.2.02.2.03.21.02.2.02.2.03.2.02.21.03.2.02.2.03.2.02.21.03.2.02.2.03.21.02.2.03.2.02.2.03.21.02.2.03.2.02.21.02.2.03.2.02.2.02.21.03.2.02.2.02.2.02.21.02.2.03.2.02.21.02.2.02.2.02.2.01.21.02.2.02.2.02.21.02.2.01.2.02.2.02.21.01.2.02.2.01.2.01.21.02.2.01.2.01.21.01.2.02.2.01.2.01.21.01.2.01.2.01h.2l.21.01.2.01.2.01h.21l.2.01h.2l.2.01h.21l.2.01H536.56l.2.01H539.6l.2-.01h.61l.2-.01H541.02l.2-.01h.4l.21-.01h.2l.2-.01h.21l.2-.01h.4l.21-.01h.2l.2-.01h.2l.21-.01h.4l.21-.01h.2l.2-.01H545.48l.2-.01h.2l.2-.01H546.69l.21-.01h.4l.2-.01h1.22l.2-.01h1.02"/><path stroke-width="1.07" stroke-linecap="round" stroke-linejoin="round" fill="none" stroke="#dcdcdc" d="M434.81 82.79h126.64V25.44H434.81z"/></g><clipPath id="n"><path transform="matrix(1 0 0 -1 0 368)" d="M434.81 201.91h126.64v57.35H434.81z"/></clipPath><g clip-path="url(#n)"><path stroke-width=".53" stroke-linejoin="round" fill="none" stroke="#ebebeb" d="M434.81 157.76h126.64M434.81 146.33h126.64M434.81 134.89h126.64M434.81 123.45h126.64M434.81 112.02h126.64M463.59 166.09v-57.35M498.13 166.09v-57.35M532.67 166.09v-57.35"/><path stroke-width="1.07" stroke-linejoin="round" fill="none" stroke="#ebebeb" d="M434.81 163.48h126.64M434.81 152.04h126.64M434.81 140.61h126.64M434.81 129.17h126.64M434.81 117.74h126.64M446.33 166.09v-57.35M480.86 166.09v-57.35M515.4 166.09v-57.35M549.94 166.09v-57.35"/><path d="M440.57 163.48h11.51v-52.14h-11.51zM475.11 163.48h11.51v-7.06h-11.51zM509.64 163.48h11.51v-5.38h-11.51zM544.18 163.48h11.51v-4.04h-11.51z" fill="#595959"/><path stroke-width="1.07" stroke-linejoin="round" fill="none" stroke="#000" d="M446.33 143.8h.2l.2.01.2.01.21.01.2.03.2.02.21.03.2.04.2.04.2.05.21.05.2.06.2.06.21.07.2.07.2.08.2.08.21.09.2.09.2.09.2.1.21.11.2.11.2.11.21.12.2.12.2.12.2.13.21.13.2.13.2.14.2.14.21.15.2.15.2.15.21.15.2.16.2.16.2.16.21.16.2.17.2.16.21.17.2.17.2.18.2.17.21.18.2.17.2.18.2.18.21.18.2.18.2.18.21.19.2.18.2.18.2.19.21.18.2.18.2.18.2.19.21.18.2.18.2.18.21.18.2.18.2.18.2.18.21.17.2.18.2.17.21.17.2.17.2.18.2.16.21.17.2.16.2.17.2.16.21.15.2.16.2.16.21.15.2.15.2.15.2.14.21.15.2.14.2.14.2.13.21.14.2.13.2.13.21.12.2.13.2.12.2.12.21.12.2.11.2.11.21.11.2.11.2.1.2.1.21.1.2.1.2.09.2.09.21.09.2.09.2.08.21.08.2.08.2.08.2.08.21.07.2.07.2.07.2.06.21.07.2.06.2.06.21.06.2.05.2.06.2.05.21.05.2.05.2.05.21.04.2.04.2.05.2.04.21.04.2.03.2.04.2.04.21.03.2.03.2.03.21.03.2.03.2.03.2.03.21.02.2.03.2.02.21.03.2.02.2.02.2.02.21.02.2.02.2.02.2.02.21.02.2.02.2.02.21.01.2.02.2.02.2.01.21.02.2.02.2.01.2.02.21.01.2.02.2.01.21.02.2.01.2.02.2.01.21.02.2.01.2.02.21.02.2.01.2.02.2.01.21.02.2.01.2.02.2.02.21.01.2.02.2.01.21.02.2.02.2.01.2.02.21.02.2.02.2.01.2.02.21.02.2.02.2.02.21.01.2.02.2.02.2.02.21.02.2.02.2.02.21.02.2.01.2.02.2.02.21.02.2.02.2.02.2.02.21.02.2.02.2.02.21.01.2.02.2.02.2.02.21.02.2.02.2.01.2.02.21.02.2.02.2.01.21.02.2.02.2.01.2.02.21.02.2.01.2.02.21.01.2.02.2.01.2.01.21.02.2.01.2.01.2.01.21.02.2.01.2.01.21.01.2.01.2.01.2.01.21.01h.2l.2.01.2.01h.21l.2.01.2.01h.21l.2.01h.4l.21.01h.61l.2.01h.81l.2-.01h.81l.21-.01h.4l.2-.01h.21l.2-.01h.2l.21-.01h.2l.2-.01.2-.01h.21l.2-.01.2-.01.2-.01h.21l.2-.01.2-.01.21-.01.2-.01h.2l.2-.01.21-.01.2-.01.2-.01.2-.01.21-.01.2-.01.2-.01h.21l.2-.01.2-.01.2-.01.21-.01.2-.01.2-.01h.21l.2-.01.2-.01.2-.01.21-.01h.2l.2-.01.2-.01.21-.01h.2l.2-.01h.21l.2-.01h.2l.2-.01h.21l.2-.01h.2l.2-.01H513.44l.2-.01h2.44l.2.01h.4l.21.01h.4l.21.01h.2l.2.01.2.01h.21l.2.01.2.01h.2l.21.01.2.01.2.01.21.01.2.01.2.01.2.01.21.01.2.01.2.01.21.01.2.01.2.01.2.01.21.02.2.01.2.01.2.01.21.02.2.01.2.01.21.01.2.02.2.01.2.01.21.02.2.01.2.01.2.02.21.01.2.01.2.02.21.01.2.01.2.02.2.01.21.01.2.01.2.02.21.01.2.01.2.01.2.01.21.02.2.01.2.01.2.01.21.01.2.01.2.01.21.01.2.01.2.01.2.01.21.01.2.01.2.01h.21l.2.01.2.01.2.01h.21l.2.01.2.01h.2l.21.01h.2l.2.01H533.11l.2.01H533.72l.2.01h2.43l.21-.01H537.16l.21-.01h.4l.2-.01h.21l.2-.01h.2l.21-.01h.2l.2-.01h.2l.21-.01h.2l.2-.01h.2l.21-.01.2-.01h.2l.21-.01h.2l.2-.01.2-.01h.21l.2-.01.2-.01h.21l.2-.01.2-.01h.2l.21-.01h.2l.2-.01.2-.01h.21l.2-.01h.2l.21-.01h.2l.2-.01h.2l.21-.01h.2l.2-.01h.2l.21-.01h.4l.21-.01H547.5l.21-.01h2.23"/><path stroke-width="1.07" stroke-linecap="round" stroke-linejoin="round" fill="none" stroke="#dcdcdc" d="M434.81 166.09h126.64v-57.35H434.81z"/></g><clipPath id="o"><path transform="matrix(1 0 0 -1 0 368)" d="M434.81 118.62h126.64v57.35H434.81z"/></clipPath><g clip-path="url(#o)"><path stroke-width=".53" stroke-linejoin="round" fill="none" stroke="#ebebeb" d="M434.81 241.06h126.64M434.81 229.62h126.64M434.81 218.18h126.64M434.81 206.75h126.64M434.81 195.31h126.64M463.59 249.38v-57.35M498.13 249.38v-57.35M532.67 249.38v-57.35"/><path stroke-width="1.07" stroke-linejoin="round" fill="none" stroke="#ebebeb" d="M434.81 246.78h126.64M434.81 235.34h126.64M434.81 223.9h126.64M434.81 212.47h126.64M434.81 201.03h126.64M446.33 249.38v-57.35M480.86 249.38v-57.35M515.4 249.38v-57.35M549.94 249.38v-57.35"/><path d="M440.57 246.78h11.51v-36.33h-11.51zM475.11 246.78h11.51v-21.36h-11.51zM509.64 246.78h11.51v-8.91h-11.51zM544.18 246.78h11.51v-2.02h-11.51z" fill="#595959"/><path stroke-width="1.07" stroke-linejoin="round" fill="none" stroke="#000" d="M446.33 230.78h.2l.2.01.2.01.21.02.2.02.2.03.21.03.2.05.2.04.2.05.21.06.2.06.2.07.21.07.2.08.2.08.2.09.21.09.2.1.2.1.2.11.21.11.2.11.2.12.21.12.2.12.2.13.2.13.21.14.2.14.2.14.2.14.21.15.2.14.2.16.21.15.2.15.2.16.2.15.21.16.2.16.2.16.21.16.2.16.2.16.2.16.21.16.2.16.2.16.2.16.21.16.2.16.2.16.21.15.2.16.2.15.2.15.21.15.2.14.2.15.2.14.21.14.2.14.2.13.21.13.2.13.2.13.2.12.21.12.2.11.2.11.21.11.2.11.2.1.2.1.21.09.2.09.2.08.2.09.21.07.2.08.2.06.21.07.2.06.2.06.2.05.21.05.2.04.2.04.2.04.21.03.2.03.2.02.21.02.2.01.2.02h.2l.21.01h.2l.2-.01.21-.01.2-.01.2-.01.2-.02.21-.02.2-.03.2-.03.2-.03.21-.03.2-.04.2-.04.21-.05.2-.04.2-.05.2-.05.21-.06.2-.05.2-.06.2-.06.21-.06.2-.06.2-.07.21-.06.2-.07.2-.07.2-.06.21-.07.2-.08.2-.07.21-.07.2-.07.2-.07.2-.08.21-.07.2-.07.2-.07.2-.07.21-.07.2-.07.2-.07.21-.07.2-.07.2-.06.2-.07.21-.06.2-.06.2-.06.21-.06.2-.06.2-.05.2-.05.21-.05.2-.05.2-.05.2-.04.21-.04.2-.04.2-.03.21-.04.2-.03.2-.02.2-.03.21-.02.2-.02.2-.01.2-.02h.21l.2-.01H481l.2.01.2.01.21.01.2.02.2.02.21.02.2.03.2.03.2.03.21.04.2.04.2.04.2.04.21.05.2.05.2.05.21.06.2.06.2.06.2.06.21.07.2.07.2.07.2.07.21.08.2.07.2.08.21.09.2.08.2.08.2.09.21.09.2.09.2.09.21.09.2.09.2.1.2.09.21.1.2.1.2.09.2.1.21.1.2.1.2.1.21.1.2.1.2.09.2.1.21.1.2.1.2.1.2.09.21.1.2.1.2.09.21.1.2.09.2.09.2.09.21.09.2.09.2.09.21.08.2.09.2.08.2.08.21.08.2.08.2.07.2.08.21.07.2.07.2.06.21.07.2.07.2.06.2.06.21.05.2.06.2.05.2.06.21.04.2.05.2.05.21.04.2.04.2.04.2.03.21.04.2.03.2.03.21.03.2.02.2.02.2.03.21.01.2.02.2.02.2.01.21.01.2.01h.2l.21.01h.4l.2.01.21-.01h.2l.2-.01h.21l.2-.01.2-.01.2-.01.21-.01.2-.02.2-.01.2-.02.21-.01.2-.02.2-.02.21-.02.2-.02.2-.02.2-.02.21-.03.2-.02.2-.02.2-.03.21-.02.2-.03.2-.02.21-.03.2-.02.2-.03.2-.02.21-.03.2-.02.2-.03.21-.02.2-.03.2-.02.2-.03.21-.02.2-.02.2-.03.2-.02.21-.02.2-.02.2-.02.21-.02.2-.02.2-.01.2-.02.21-.02.2-.01.2-.01.2-.02.21-.01.2-.01.2-.01h.21l.2-.01.2-.01H514.66l.2-.01h.2l.21.01h.4l.2.01h.21l.2.01.2.01.2.01.21.01.2.01.2.02.21.01.2.02.2.02.2.01.21.02.2.03.2.02.2.02.21.03.2.02.2.03.21.03.2.03.2.03.2.03.21.03.2.03.2.04.21.03.2.04.2.03.2.04.21.04.2.04.2.04.2.04.21.04.2.04.2.04.21.04.2.04.2.04.2.05.21.04.2.04.2.04.2.05.21.04.2.04.2.05.21.04.2.04.2.05.2.04.21.04.2.05.2.04.21.04.2.04.2.04.2.05.21.04.2.04.2.04.2.04.21.04.2.03.2.04.21.04.2.04.2.03.2.04.21.03.2.04.2.03.21.03.2.03.2.04.2.03.21.03.2.02.2.03.2.03.21.03.2.02.2.03.21.02.2.03.2.02.2.02.21.02.2.02.2.02.2.02.21.02.2.01.2.02.21.02.2.01.2.02.2.01.21.01.2.01.2.02.21.01.2.01h.2l.2.01.21.01.2.01h.2l.2.01.21.01h.2l.2.01H538.99l.2.01h2.64l.2-.01H542.64l.2-.01H543.45l.2-.01H544.06l.2-.01H544.67l.2-.01h.4l.21-.01h.4l.2-.01H546.69l.21-.01h.81l.2-.01h2.03"/><path stroke-width="1.07" stroke-linecap="round" stroke-linejoin="round" fill="none" stroke="#dcdcdc" d="M434.81 249.38h126.64v-57.35H434.81z"/></g><clipPath id="p"><path transform="matrix(1 0 0 -1 0 368)" d="M434.81 35.32h126.64v57.35H434.81z"/></clipPath><g clip-path="url(#p)"><path stroke-width=".53" stroke-linejoin="round" fill="none" stroke="#ebebeb" d="M434.81 324.35h126.64M434.81 312.92h126.64M434.81 301.48h126.64M434.81 290.04h126.64M434.81 278.61h126.64M463.59 332.68v-57.35M498.13 332.68v-57.35M532.67 332.68v-57.35"/><path stroke-width="1.07" stroke-linejoin="round" fill="none" stroke="#ebebeb" d="M434.81 330.07h126.64M434.81 318.63h126.64M434.81 307.2h126.64M434.81 295.76h126.64M434.81 284.33h126.64M446.33 332.68v-57.35M480.86 332.68v-57.35M515.4 332.68v-57.35M549.94 332.68v-57.35"/><path d="M440.57 330.07h11.51v-50.45h-11.51zM475.11 330.07h11.51v-7.06h-11.51zM509.64 330.07h11.51v-5.89h-11.51zM544.18 330.07h11.51v-5.21h-11.51z" fill="#595959"/><path stroke-width="1.07" stroke-linejoin="round" fill="none" stroke="#000" d="M446.33 307.9h.2l.2.02.2.01.21.03.2.04.2.04.21.05.2.07.2.06.2.08.21.08.2.1.2.1.21.1.2.12.2.12.2.13.21.13.2.14.2.15.2.16.21.16.2.16.2.18.21.17.2.19.2.19.2.19.21.2.2.21.2.21.2.21.21.22.2.22.2.22.21.23.2.23.2.23.2.24.21.24.2.24.2.24.21.25.2.25.2.24.2.25.21.25.2.25.2.25.2.25.21.25.2.25.2.25.21.25.2.25.2.25.2.25.21.24.2.24.2.25.2.24.21.23.2.24.2.23.21.23.2.23.2.23.2.22.21.22.2.21.2.22.21.21.2.2.2.2.2.2.21.2.2.19.2.19.2.18.21.18.2.18.2.17.21.16.2.17.2.16.2.15.21.15.2.15.2.14.2.14.21.13.2.13.2.13.21.12.2.11.2.12.2.11.21.1.2.1.2.1.21.09.2.09.2.09.2.08.21.08.2.07.2.07.2.07.21.06.2.06.2.06.21.06.2.05.2.04.2.05.21.04.2.04.2.04.2.03.21.03.2.03.2.03.21.03.2.02.2.02.2.02.21.01.2.02.2.01.21.01.2.01.2.01.2.01h.21l.2.01h.2l.2.01h1.02l.2-.01H475.93l.2-.01H476.54l.2-.01h.2l.21-.01h.4l.2-.01H478.36l.21-.01h1.21l.2.01H480.39l.2.01h.21l.2.01h.2l.2.01.21.01.2.01.2.01.21.01.2.01.2.01.2.01.21.02.2.01.2.02.2.01.21.02.2.02.2.01.21.02.2.02.2.02.2.03.21.02.2.02.2.02.2.03.21.02.2.03.2.02.21.03.2.03.2.02.2.03.21.03.2.03.2.02.21.03.2.03.2.03.2.03.21.03.2.03.2.03.2.03.21.03.2.03.2.03.21.03.2.03.2.03.2.03.21.03.2.02.2.03.2.03.21.03.2.02.2.03.21.03.2.02.2.03.2.02.21.03.2.02.2.02.21.03.2.02.2.02.2.02.21.02.2.02.2.01.2.02.21.02.2.01.2.02.21.01.2.01.2.01.2.01.21.01.2.01.2.01.2.01h.21l.2.01h.2l.21.01h1.21l.21-.01h.2l.2-.01h.2l.21-.01.2-.01h.2l.2-.01.21-.01.2-.01.2-.02.21-.01.2-.01.2-.02.2-.01.21-.02.2-.01.2-.02.21-.01.2-.02.2-.02.2-.02.21-.02.2-.02.2-.02.2-.02.21-.02.2-.02.2-.02.21-.02.2-.02.2-.03.2-.02.21-.02.2-.02.2-.03.2-.02.21-.02.2-.02.2-.03.21-.02.2-.02.2-.02.2-.02.21-.03.2-.02.2-.02.21-.02.2-.02.2-.02.2-.02.21-.02.2-.02.2-.01.2-.02.21-.02.2-.01.2-.02.21-.01.2-.02.2-.01.2-.02.21-.01.2-.01.2-.01.2-.01.21-.01.2-.01.2-.01h.21l.2-.01h.2l.2-.01h.21l.2-.01h.81l.2.01H516.28l.2.01h.2l.21.01h.2l.2.01.21.01.2.01.2.01.2.01.21.01.2.02.2.01.2.01.21.02.2.02.2.01.21.02.2.02.2.01.2.02.21.02.2.02.2.02.21.02.2.02.2.03.2.02.21.02.2.02.2.03.2.02.21.02.2.03.2.02.21.02.2.03.2.02.2.03.21.02.2.03.2.02.2.02.21.03.2.02.2.03.21.02.2.02.2.03.2.02.21.02.2.02.2.02.21.03.2.02.2.02.2.02.21.02.2.02.2.01.2.02.21.02.2.02.2.01.21.02.2.01.2.02.2.01.21.01.2.02.2.01.21.01.2.01.2.01h.2l.21.01.2.01h.2l.2.01h.21l.2.01H534.12l.2-.01h.21l.2-.01h.2l.21-.01.2-.01.2-.01h.2l.21-.01.2-.01.2-.01.21-.02.2-.01.2-.01.2-.01.21-.02.2-.01.2-.02.2-.01.21-.02.2-.02.2-.01.21-.02.2-.02.2-.02.2-.02.21-.01.2-.02.2-.02.2-.02.21-.02.2-.02.2-.02.21-.02.2-.02.2-.02.2-.02.21-.02.2-.02.2-.02.21-.02.2-.02.2-.02.2-.02.21-.02.2-.02.2-.02.2-.02.21-.02.2-.01.2-.02.21-.02.2-.02.2-.01.2-.02.21-.01.2-.02.2-.01.2-.01.21-.02.2-.01.2-.01.21-.01.2-.01.2-.01.2-.01.21-.01.2-.01h.2l.21-.01.2-.01h.4l.21-.01h.81"/><path stroke-width="1.07" stroke-linecap="round" stroke-linejoin="round" fill="none" stroke="#dcdcdc" d="M434.81 332.68h126.64v-57.35H434.81z"/></g><clipPath id="q"><path transform="matrix(1 0 0 -1 0 368)" d="M38.47 92.67h126.64v20.47H38.47z"/></clipPath><g clip-path="url(#q)"><path d="M38.47 275.33h126.64v-20.47H38.47z" fill="#f0f0f0"/><path stroke-width="1.07" stroke-linecap="round" stroke-linejoin="round" fill="none" stroke="#bebebe" d="M38.47 275.33h126.64v-20.47H38.47z"/><symbol id="r"><path d="M.288.324.283.461H.271C.266.453.261.45.254.45a.083.083 0 0 0-.03.007.249.249 0 0 1-.076.013C.062.47 0 .418 0 .346 0 .29.035.25.128.202L.19.169C.229.149.247.125.247.094.247.05.213.022.157.022.082.022.044.06.019.162H0V.006h.014c.008.01.012.012.025.012A.214.214 0 0 0 .09.01.427.427 0 0 1 .17 0c.085 0 .154.058.154.128 0 .05-.026.083-.092.119L.114.311C.084.328.068.352.068.379.068.42.1.447.152.447c.062 0 .094-.033.12-.123h.016z"/></symbol><symbol id="s"><path d="M.456.076C.436.062.423.057.406.057.382.057.374.071.374.115V.31C.373.362.367.391.35.415.325.451.277.47.21.47.106.47.022.421.022.358.021.335.043.315.07.315c.027 0 .05.02.05.042 0 .004 0 .009-.002.016a.1.1 0 0 0-.003.024c0 .027.036.049.08.049.056 0 .087-.029.087-.083V.302C.109.241.089.232.04.194A.115.115 0 0 1 0 .107C0 .044.05 0 .118 0c.05 0 .096.021.165.073C.288.02.309 0 .355 0c.038 0 .062.012.101.05v.026M.282.133C.282.103.276.092.252.08A.197.197 0 0 0 .17.058C.13.058.1.092.1.135v.004c0 .06.05.098.182.139V.133z"/></symbol><symbol id="t"><path d="M.567.068.539.067C.496.067.485.078.485.124v.567L.48.693a2.484 2.484 0 0 0-.18-.044V.633l.027.001c.045 0 .056-.01.056-.051V.427A.202.202 0 0 1 .254.47.254.254 0 0 1 0 .215C0 .087.09 0 .226 0a.19.19 0 0 1 .156.067V.003L.387 0l.18.052v.016M.382.112c0-.007-.008-.019-.02-.03a.126.126 0 0 0-.088-.03C.17.052.105.132.105.256c0 .112.06.186.153.186.066 0 .124-.047.124-.1v-.23z"/></symbol><use xlink:href="#r" transform="matrix(12 0 0 -12 93.247 269.37)" fill="#1a1a1a"/><use xlink:href="#s" transform="matrix(12 0 0 -12 98.168 269.37)" fill="#1a1a1a"/><use xlink:href="#t" transform="matrix(12 0 0 -12 104.064 269.37)" fill="#1a1a1a"/></g><clipPath id="u"><path transform="matrix(1 0 0 -1 0 368)" d="M170.58 92.67h126.64v20.47H170.58z"/></clipPath><g clip-path="url(#u)"><path d="M170.58 275.33h126.64v-20.47H170.58z" fill="#f0f0f0"/><path stroke-width="1.07" stroke-linecap="round" stroke-linejoin="round" fill="none" stroke="#bebebe" d="M170.58 275.33h126.64v-20.47H170.58z"/><symbol id="v"><path d="M.567.06H.56C.5.062.493.07.492.117V.46h-.19V.443C.376.44.39.43.39.38V.145C.39.117.385.103.368.092A.192.192 0 0 0 .262.058C.215.058.176.092.176.134V.46H0V.446C.057.444.074.43.075.382V.13C.075.051.133 0 .22 0c.044 0 .091.016.124.043l.052.043V.003L.402.001c.06.02.103.031.165.045V.06z"/></symbol><symbol id="w"><path d="M0 0h.248v.015C.18.02.172.029.171.102v.355L.166.46.004.405V.39l.009.001a.234.234 0 0 0 .035.003c.025 0 .035-.016.035-.06V.102C.08.028.07.018 0 .015V0m.117.683A.052.052 0 0 1 .065.632.05.05 0 0 1 .117.581c.032 0 .055.022.055.051 0 .029-.024.051-.055.051z"/></symbol><symbol id="x"><path d="M.373.166C.325.096.289.072.232.072.14.072.077.152.077.267c0 .104.055.174.136.174.036 0 .049-.01.059-.048L.278.371C.286.342.304.325.326.325c.026 0 .047.019.047.042C.373.423.303.47.219.47.17.47.119.45.078.414A.25.25 0 0 1 0 .222C0 .093.079 0 .19 0a.18.18 0 0 1 .121.047.324.324 0 0 1 .076.11L.373.166z"/></symbol><symbol id="y"><path d="M.413.174C.361.098.315.069.246.069a.15.15 0 0 0-.14.086.277.277 0 0 0-.028.132H.41C.401.352.39.381.364.413A.183.183 0 0 1 .225.47.226.226 0 0 1 .08.418.246.246 0 0 1 0 .224C0 .086.078 0 .202 0 .304 0 .385.059.43.167L.413.174M.08.319c.012.078.048.115.114.115S.286.406.3.319H.08z"/></symbol><use xlink:href="#r" transform="matrix(12 0 0 -12 215.707 269.37)" fill="#1a1a1a"/><use xlink:href="#v" transform="matrix(12 0 0 -12 220.258 269.37)" fill="#1a1a1a"/><use xlink:href="#w" transform="matrix(12 0 0 -12 227.565 269.25)" fill="#1a1a1a"/><use xlink:href="#x" transform="matrix(12 0 0 -12 231.156 269.37)" fill="#1a1a1a"/><use xlink:href="#w" transform="matrix(12 0 0 -12 236.385 269.25)" fill="#1a1a1a"/><use xlink:href="#t" transform="matrix(12 0 0 -12 240.072 269.37)" fill="#1a1a1a"/><use xlink:href="#y" transform="matrix(12 0 0 -12 247.332 269.37)" fill="#1a1a1a"/></g><clipPath id="z"><path transform="matrix(1 0 0 -1 0 368)" d="M302.7 92.67h126.64v20.47H302.7z"/></clipPath><g clip-path="url(#z)"><path d="M302.7 275.33h126.64v-20.47H302.7z" fill="#f0f0f0"/><path stroke-width="1.07" stroke-linecap="round" stroke-linejoin="round" fill="none" stroke="#bebebe" d="M302.7 275.33h126.64v-20.47H302.7z"/><symbol id="A"><path d="M.635.464V.449C.675.442.686.435.686.418a.177.177 0 0 0-.02-.066L.564.13.466.354C.446.4.446.4.446.413c0 .022.013.029.067.036v.015H.278V.449C.321.445.335.433.358.38L.381.324.276.125.162.386a.071.071 0 0 0-.007.03c0 .021.012.029.053.033v.015H0V.449C.027.447.036.437.061.386L.217.044C.231.013.24 0 .247 0c.006 0 .015.012.03.039l.128.24.106-.236C.528.005.53 0 .538 0c.008 0 .014.009.033.049L.73.395c.02.042.024.047.047.054v.015H.635z"/></symbol><symbol id="B"><path d="M.492.606v.039H.406a.182.182 0 0 0-.061.01L.32.663a.277.277 0 0 1-.089.015C.128.678.046.607.046.515c0-.063.029-.101.103-.134L.12.357C.097.337.083.326.08.322.057.3.05.289.05.272.05.25.062.239.109.219.029.167 0 .134 0 .097 0 .044.086 0 .192 0c.084 0 .17.026.228.068.043.031.061.063.061.101C.481.231.43.272.347.276L.203.282C.143.284.117.293.117.309c0 .02.036.055.066.063L.247.367a.2.2 0 0 1 .12.042.13.13 0 0 1 .053.113.176.176 0 0 1-.02.084h.092m-.36-.39C.17.209.257.203.314.203.414.203.45.19.45.154.45.096.366.057.24.057.141.057.078.086.078.13c0 .023.01.038.054.086m.006.34C.138.615.169.65.22.65A.092.092 0 0 0 .301.603a.242.242 0 0 0 .034-.12C.335.427.304.392.252.392.183.392.138.457.138.553v.003z"/></symbol><symbol id="C"><path d="M.556.015C.494.024.488.031.486.102v.199C.487.406.44.46.344.46.275.46.226.436.173.376V.68L.165.683C.126.671.096.663.033.647L0 .639V.623a.056.056 0 0 0 .014.001c.05 0 .06-.008.06-.051V.102C.071.03.065.022 0 .015V0h.251v.015C.184.02.175.031.172.102v.241c.05.046.084.063.13.063C.36.406.39.37.39.3V.102C.386.031.376.02.309.015V0h.247v.015z"/></symbol><symbol id="D"><path d="M.284.46H.165v.116c0 .01-.002.013-.008.013A.482.482 0 0 0 .02.454C.007.447 0 .441 0 .435 0 .432.001.43.005.428h.062V.127C.067.043.102 0 .17 0c.058 0 .102.024.14.076L.298.087C.27.061.252.052.227.052c-.044 0-.062.027-.062.09v.286h.119V.46z"/></symbol><symbol id="E"><path d="M.002 0H.25v.015C.191.018.172.031.172.067v.281c.056.045.082.057.12.057C.35.405.377.374.377.308V.099C.375.034.361.018.304.015V0h.242v.015C.489.02.476.032.475.081V.31c0 .094-.051.15-.137.15C.284.46.248.443.168.379v.079L.162.46C.1.441.06.43 0 .415V.398a.094.094 0 0 0 .031.004C.064.402.074.387.074.338V.09C.074.031.061.018.002.015V0z"/></symbol><use xlink:href="#A" transform="matrix(12 0 0 -12 336.321 269.418)" fill="#1a1a1a"/><use xlink:href="#y" transform="matrix(12 0 0 -12 346.362 269.37)" fill="#1a1a1a"/><use xlink:href="#w" transform="matrix(12 0 0 -12 351.987 269.25)" fill="#1a1a1a"/><use xlink:href="#B" transform="matrix(12 0 0 -12 355.652 271.866)" fill="#1a1a1a"/><use xlink:href="#C" transform="matrix(12 0 0 -12 362.076 269.25)" fill="#1a1a1a"/><use xlink:href="#D" transform="matrix(12 0 0 -12 369.117 269.37)" fill="#1a1a1a"/><use xlink:href="#B" transform="matrix(12 0 0 -12 373.22 271.866)" fill="#1a1a1a"/><use xlink:href="#s" transform="matrix(12 0 0 -12 380.018 269.37)" fill="#1a1a1a"/><use xlink:href="#w" transform="matrix(12 0 0 -12 385.719 269.25)" fill="#1a1a1a"/><use xlink:href="#E" transform="matrix(12 0 0 -12 389.233 269.25)" fill="#1a1a1a"/></g><clipPath id="F"><path transform="matrix(1 0 0 -1 0 368)" d="M434.81 92.67h126.64v20.47H434.81z"/></clipPath><g clip-path="url(#F)"><path d="M434.81 275.33h126.64v-20.47H434.81z" fill="#f0f0f0"/><path stroke-width="1.07" stroke-linecap="round" stroke-linejoin="round" fill="none" stroke="#bebebe" d="M434.81 275.33h126.64v-20.47H434.81z"/><symbol id="G"><path d="M.002 0H.25v.015C.183.018.172.028.171.084v.597L.166.683A2.236 2.236 0 0 0 0 .639V.623h.006A.435.435 0 0 0 .04.625C.072.625.083.611.083.564V.087C.082.033.067.019.003.015V0z"/></symbol><symbol id="H"><path d="M.241.47C.098.47 0 .374 0 .236A.23.23 0 0 1 .24 0c.137 0 .242.105.242.244 0 .132-.1.226-.24.226M.226.442C.32.442.383.346.383.209.383.095.334.028.253.028a.123.123 0 0 0-.107.064.39.39 0 0 0-.048.193c0 .095.05.157.13.157z"/></symbol><use xlink:href="#A" transform="matrix(12 0 0 -12 469.901 269.418)" fill="#1a1a1a"/><use xlink:href="#y" transform="matrix(12 0 0 -12 479.942 269.37)" fill="#1a1a1a"/><use xlink:href="#w" transform="matrix(12 0 0 -12 485.567 269.25)" fill="#1a1a1a"/><use xlink:href="#B" transform="matrix(12 0 0 -12 489.232 271.866)" fill="#1a1a1a"/><use xlink:href="#C" transform="matrix(12 0 0 -12 495.656 269.25)" fill="#1a1a1a"/><use xlink:href="#D" transform="matrix(12 0 0 -12 502.697 269.37)" fill="#1a1a1a"/><use xlink:href="#G" transform="matrix(12 0 0 -12 506.665 269.25)" fill="#1a1a1a"/><use xlink:href="#H" transform="matrix(12 0 0 -12 510.298 269.37)" fill="#1a1a1a"/><use xlink:href="#r" transform="matrix(12 0 0 -12 517.137 269.37)" fill="#1a1a1a"/><use xlink:href="#r" transform="matrix(12 0 0 -12 522.225 269.37)" fill="#1a1a1a"/></g><clipPath id="I"><path transform="matrix(1 0 0 -1 0 368)" d="M38.47 175.97h126.64v20.47H38.47z"/></clipPath><g clip-path="url(#I)"><path d="M38.47 192.03h126.64v-20.47H38.47z" fill="#f0f0f0"/><path stroke-width="1.07" stroke-linecap="round" stroke-linejoin="round" fill="none" stroke="#bebebe" d="M38.47 192.03h126.64v-20.47H38.47z"/><use xlink:href="#G" transform="matrix(12 0 0 -12 92.449 185.95)" fill="#1a1a1a"/><use xlink:href="#s" transform="matrix(12 0 0 -12 96.202 186.07)" fill="#1a1a1a"/><use xlink:href="#D" transform="matrix(12 0 0 -12 101.885 186.07)" fill="#1a1a1a"/><use xlink:href="#y" transform="matrix(12 0 0 -12 105.938 186.07)" fill="#1a1a1a"/></g><clipPath id="J"><path transform="matrix(1 0 0 -1 0 368)" d="M170.58 175.97h126.64v20.47H170.58z"/></clipPath><g clip-path="url(#J)"><path d="M170.58 192.03h126.64v-20.47H170.58z" fill="#f0f0f0"/><path stroke-width="1.07" stroke-linecap="round" stroke-linejoin="round" fill="none" stroke="#bebebe" d="M170.58 192.03h126.64v-20.47H170.58z"/><symbol id="K"><path d="M0 0h.252v.015C.194.016.176.027.175.067v.282c0 .002.009.012.017.019.028.023.077.04.117.04.05 0 .075-.035.075-.105V.086C.38.029.37.018.306.015V0h.255v.015c-.064 0-.08.016-.082.08v.252c.034.043.07.061.124.061.064 0 .085-.027.085-.11V.087C.686.028.678.021.613.015V0H.86v.015l-.03.002C.797.022.784.037.784.076v.206C.783.4.74.46.651.46.586.46.528.434.466.376.446.433.407.46.346.46.296.46.264.447.17.383v.075L.162.46A2.363 2.363 0 0 0 .003.415V.398A.156.156 0 0 0 .04.402C.07.402.08.386.08.338V.085C.076.029.061.015 0 .015V0z"/></symbol><use xlink:href="#K" transform="matrix(12 0 0 -12 215.128 185.95)" fill="#1a1a1a"/><use xlink:href="#w" transform="matrix(12 0 0 -12 225.707 185.95)" fill="#1a1a1a"/><use xlink:href="#t" transform="matrix(12 0 0 -12 229.394 186.07)" fill="#1a1a1a"/><use xlink:href="#t" transform="matrix(12 0 0 -12 236.726 186.07)" fill="#1a1a1a"/><use xlink:href="#G" transform="matrix(12 0 0 -12 243.9 185.95)" fill="#1a1a1a"/><use xlink:href="#y" transform="matrix(12 0 0 -12 247.478 186.07)" fill="#1a1a1a"/></g><clipPath id="L"><path transform="matrix(1 0 0 -1 0 368)" d="M302.7 175.97h126.64v20.47H302.7z"/></clipPath><g clip-path="url(#L)"><path d="M302.7 192.03h126.64v-20.47H302.7z" fill="#f0f0f0"/><path stroke-width="1.07" stroke-linecap="round" stroke-linejoin="round" fill="none" stroke="#bebebe" d="M302.7 192.03h126.64v-20.47H302.7z"/><use xlink:href="#H" transform="matrix(12 0 0 -12 352.25 186.07)" fill="#1a1a1a"/><use xlink:href="#E" transform="matrix(12 0 0 -12 358.645 185.95)" fill="#1a1a1a"/><use xlink:href="#r" transform="matrix(12 0 0 -12 366.073 186.07)" fill="#1a1a1a"/><use xlink:href="#y" transform="matrix(12 0 0 -12 370.818 186.07)" fill="#1a1a1a"/><use xlink:href="#D" transform="matrix(12 0 0 -12 376.425 186.07)" fill="#1a1a1a"/></g><clipPath id="M"><path transform="matrix(1 0 0 -1 0 368)" d="M434.81 175.97h126.64v20.47H434.81z"/></clipPath><g clip-path="url(#M)"><path d="M434.81 192.03h126.64v-20.47H434.81z" fill="#f0f0f0"/><path stroke-width="1.07" stroke-linecap="round" stroke-linejoin="round" fill="none" stroke="#bebebe" d="M434.81 192.03h126.64v-20.47H434.81z"/><symbol id="N"><path d="M0 0h.285v.015C.205.017.186.031.184.09v.225c0 .032.05.082.083.082.007 0 .018-.005.03-.015C.317.367.33.362.346.362c.029 0 .046.017.046.045C.391.44.367.46.326.46.276.46.243.438.184.366v.092L.178.46A2.942 2.942 0 0 0 .002.406V.39a.21.21 0 0 0 .042.004c.03 0 .04-.016.04-.06v-.25C.082.032.074.026 0 .015V0z"/></symbol><use xlink:href="#N" transform="matrix(12 0 0 -12 482.181 185.95)" fill="#1a1a1a"/><use xlink:href="#y" transform="matrix(12 0 0 -12 486.958 186.07)" fill="#1a1a1a"/><use xlink:href="#D" transform="matrix(12 0 0 -12 492.565 186.07)" fill="#1a1a1a"/><use xlink:href="#s" transform="matrix(12 0 0 -12 496.794 186.07)" fill="#1a1a1a"/><use xlink:href="#N" transform="matrix(12 0 0 -12 502.365 185.95)" fill="#1a1a1a"/><use xlink:href="#t" transform="matrix(12 0 0 -12 507.214 186.07)" fill="#1a1a1a"/></g><clipPath id="O"><path transform="matrix(1 0 0 -1 0 368)" d="M38.47 259.26h126.64v20.47H38.47z"/></clipPath><g clip-path="url(#O)"><path d="M38.47 108.74h126.64V88.27H38.47z" fill="#f0f0f0"/><path stroke-width="1.07" stroke-linecap="round" stroke-linejoin="round" fill="none" stroke="#bebebe" d="M38.47 108.74h126.64V88.27H38.47z"/><symbol id="P"><path d="M.289.45H.166v.116c0 .059.019.089.057.089.022 0 .035-.01.053-.039C.292.59.304.58.321.58a.04.04 0 0 1 .042.041c0 .036-.044.062-.104.062C.196.683.144.656.118.611.092.566.084.53.083.45H.001V.418h.082V.104C.081.029.071.018 0 .015V0h.26v.015C.178.018.167.029.167.104v.314h.122V.45z"/></symbol><use xlink:href="#P" transform="matrix(12 0 0 -12 83.5 102.66)" fill="#1a1a1a"/><use xlink:href="#s" transform="matrix(12 0 0 -12 87.756 102.78)" fill="#1a1a1a"/><use xlink:href="#D" transform="matrix(12 0 0 -12 93.439 102.78)" fill="#1a1a1a"/><use xlink:href="#w" transform="matrix(12 0 0 -12 97.369 102.66)" fill="#1a1a1a"/><use xlink:href="#B" transform="matrix(12 0 0 -12 101.034 105.276)" fill="#1a1a1a"/><use xlink:href="#v" transform="matrix(12 0 0 -12 107.462 102.78)" fill="#1a1a1a"/><use xlink:href="#y" transform="matrix(12 0 0 -12 114.892 102.78)" fill="#1a1a1a"/></g><clipPath id="Q"><path transform="matrix(1 0 0 -1 0 368)" d="M170.58 259.26h126.64v20.47H170.58z"/></clipPath><g clip-path="url(#Q)"><path d="M170.58 108.74h126.64V88.27H170.58z" fill="#f0f0f0"/><path stroke-width="1.07" stroke-linecap="round" stroke-linejoin="round" fill="none" stroke="#bebebe" d="M170.58 108.74h126.64V88.27H170.58z"/><use xlink:href="#B" transform="matrix(12 0 0 -12 221.874 105.276)" fill="#1a1a1a"/><use xlink:href="#v" transform="matrix(12 0 0 -12 228.302 102.78)" fill="#1a1a1a"/><use xlink:href="#w" transform="matrix(12 0 0 -12 235.609 102.66)" fill="#1a1a1a"/><use xlink:href="#G" transform="matrix(12 0 0 -12 239.139 102.66)" fill="#1a1a1a"/><use xlink:href="#D" transform="matrix(12 0 0 -12 242.575 102.78)" fill="#1a1a1a"/></g><clipPath id="R"><path transform="matrix(1 0 0 -1 0 368)" d="M302.7 259.26h126.64v20.47H302.7z"/></clipPath><g clip-path="url(#R)"><path d="M302.7 108.74h126.64V88.27H302.7z" fill="#f0f0f0"/><path stroke-width="1.07" stroke-linecap="round" stroke-linejoin="round" fill="none" stroke="#bebebe" d="M302.7 108.74h126.64V88.27H302.7z"/><symbol id="S"><path d="M.513.668h-.15V.653C.398.653.416.644.416.628A.041.041 0 0 0 .41.611L.304.335.176.588a.099.099 0 0 0-.011.038c0 .018.016.025.064.027v.015H0V.654C.029.65.048.639.057.622L.183.376l.02-.038a.303.303 0 0 0 .05-.102.382.382 0 0 0-.045-.108C.19.103.168.084.152.084a.081.081 0 0 0-.029.007.18.18 0 0 1-.057.011C.039.102.018.083.018.058.018.025.052 0 .1 0c.076 0 .127.055.188.2l.171.408C.474.64.486.65.513.653v.015z"/></symbol><symbol id="T"><path d="M0 0h.29v.018C.2.019.187.029.186.093V.25A.171.171 0 0 1 .307.207a.25.25 0 0 1 .252.257c0 .124-.084.213-.2.213A.226.226 0 0 1 .184.598v.077L.178.677A2.6 2.6 0 0 0 .005.626V.61a.29.29 0 0 0 .03.001c.04 0 .05-.01.05-.057V.086C.084.033.07.023 0 .017V0m.185.551c0 .03.067.066.123.066.089 0 .148-.076.148-.193C.456.314.396.239.31.239.254.239.185.275.185.305v.246z"/></symbol><use xlink:href="#C" transform="matrix(12 0 0 -12 339.346 102.66)" fill="#1a1a1a"/><use xlink:href="#S" transform="matrix(12 0 0 -12 346.39 105.276)" fill="#1a1a1a"/><use xlink:href="#T" transform="matrix(12 0 0 -12 352.948 105.264)" fill="#1a1a1a"/><use xlink:href="#y" transform="matrix(12 0 0 -12 360.412 102.78)" fill="#1a1a1a"/><use xlink:href="#N" transform="matrix(12 0 0 -12 365.907 102.66)" fill="#1a1a1a"/><use xlink:href="#r" transform="matrix(12 0 0 -12 371.243 102.78)" fill="#1a1a1a"/><use xlink:href="#H" transform="matrix(12 0 0 -12 376.044 102.78)" fill="#1a1a1a"/><use xlink:href="#K" transform="matrix(12 0 0 -12 382.434 102.66)" fill="#1a1a1a"/></g><clipPath id="U"><path transform="matrix(1 0 0 -1 0 368)" d="M434.81 259.26h126.64v20.47H434.81z"/></clipPath><g clip-path="url(#U)"><path d="M434.81 108.74h126.64V88.27H434.81z" fill="#f0f0f0"/><path stroke-width="1.07" stroke-linecap="round" stroke-linejoin="round" fill="none" stroke="#bebebe" d="M434.81 108.74h126.64V88.27H434.81z"/><use xlink:href="#w" transform="matrix(12 0 0 -12 468.811 102.66)" fill="#1a1a1a"/><use xlink:href="#E" transform="matrix(12 0 0 -12 472.325 102.66)" fill="#1a1a1a"/><use xlink:href="#x" transform="matrix(12 0 0 -12 479.386 102.78)" fill="#1a1a1a"/><use xlink:href="#s" transform="matrix(12 0 0 -12 484.914 102.78)" fill="#1a1a1a"/><use xlink:href="#T" transform="matrix(12 0 0 -12 490.486 105.264)" fill="#1a1a1a"/><use xlink:href="#T" transform="matrix(12 0 0 -12 497.698 105.264)" fill="#1a1a1a"/><use xlink:href="#y" transform="matrix(12 0 0 -12 505.162 102.78)" fill="#1a1a1a"/><use xlink:href="#D" transform="matrix(12 0 0 -12 510.769 102.78)" fill="#1a1a1a"/><use xlink:href="#w" transform="matrix(12 0 0 -12 514.699 102.66)" fill="#1a1a1a"/><use xlink:href="#D" transform="matrix(12 0 0 -12 518.173 102.78)" fill="#1a1a1a"/><use xlink:href="#y" transform="matrix(12 0 0 -12 522.226 102.78)" fill="#1a1a1a"/></g><clipPath id="V"><path transform="matrix(1 0 0 -1 0 368)" d="M38.47 342.56h126.64v20.47H38.47z"/></clipPath><g clip-path="url(#V)"><path d="M38.47 25.44h126.64V4.97H38.47z" fill="#f0f0f0"/><path stroke-width="1.07" stroke-linecap="round" stroke-linejoin="round" fill="none" stroke="#bebebe" d="M38.47 25.44h126.64V4.97H38.47z"/><use xlink:href="#s" transform="matrix(12 0 0 -12 78.78 19.48)" fill="#1a1a1a"/><use xlink:href="#B" transform="matrix(12 0 0 -12 84.654 21.976)" fill="#1a1a1a"/><use xlink:href="#w" transform="matrix(12 0 0 -12 91.153 19.36)" fill="#1a1a1a"/><use xlink:href="#D" transform="matrix(12 0 0 -12 94.627 19.48)" fill="#1a1a1a"/><use xlink:href="#s" transform="matrix(12 0 0 -12 98.856 19.48)" fill="#1a1a1a"/><use xlink:href="#D" transform="matrix(12 0 0 -12 104.539 19.48)" fill="#1a1a1a"/><use xlink:href="#w" transform="matrix(12 0 0 -12 108.469 19.36)" fill="#1a1a1a"/><use xlink:href="#H" transform="matrix(12 0 0 -12 112.14 19.48)" fill="#1a1a1a"/><use xlink:href="#E" transform="matrix(12 0 0 -12 118.535 19.36)" fill="#1a1a1a"/></g><clipPath id="W"><path transform="matrix(1 0 0 -1 0 368)" d="M170.58 342.56h126.64v20.47H170.58z"/></clipPath><g clip-path="url(#W)"><path d="M170.58 25.44h126.64V4.97H170.58z" fill="#f0f0f0"/><path stroke-width="1.07" stroke-linecap="round" stroke-linejoin="round" fill="none" stroke="#bebebe" d="M170.58 25.44h126.64V4.97H170.58z"/><use xlink:href="#s" transform="matrix(12 0 0 -12 206.36 19.48)" fill="#1a1a1a"/><use xlink:href="#E" transform="matrix(12 0 0 -12 212.083 19.36)" fill="#1a1a1a"/><use xlink:href="#C" transform="matrix(12 0 0 -12 218.97 19.36)" fill="#1a1a1a"/><use xlink:href="#y" transform="matrix(12 0 0 -12 226.152 19.48)" fill="#1a1a1a"/><use xlink:href="#t" transform="matrix(12 0 0 -12 231.972 19.48)" fill="#1a1a1a"/><use xlink:href="#H" transform="matrix(12 0 0 -12 239.288 19.48)" fill="#1a1a1a"/><use xlink:href="#E" transform="matrix(12 0 0 -12 245.683 19.36)" fill="#1a1a1a"/><use xlink:href="#w" transform="matrix(12 0 0 -12 252.645 19.36)" fill="#1a1a1a"/><use xlink:href="#s" transform="matrix(12 0 0 -12 256.436 19.48)" fill="#1a1a1a"/></g><clipPath id="X"><path transform="matrix(1 0 0 -1 0 368)" d="M302.7 342.56h126.64v20.47H302.7z"/></clipPath><g clip-path="url(#X)"><path d="M302.7 25.44h126.64V4.97H302.7z" fill="#f0f0f0"/><path stroke-width="1.07" stroke-linecap="round" stroke-linejoin="round" fill="none" stroke="#bebebe" d="M302.7 25.44h126.64V4.97H302.7z"/><use xlink:href="#x" transform="matrix(12 0 0 -12 347.85 19.48)" fill="#1a1a1a"/><use xlink:href="#H" transform="matrix(12 0 0 -12 353.258 19.48)" fill="#1a1a1a"/><use xlink:href="#E" transform="matrix(12 0 0 -12 359.653 19.36)" fill="#1a1a1a"/><use xlink:href="#x" transform="matrix(12 0 0 -12 366.714 19.48)" fill="#1a1a1a"/><use xlink:href="#y" transform="matrix(12 0 0 -12 372.066 19.48)" fill="#1a1a1a"/><use xlink:href="#E" transform="matrix(12 0 0 -12 377.713 19.36)" fill="#1a1a1a"/></g><clipPath id="Y"><path transform="matrix(1 0 0 -1 0 368)" d="M434.81 342.56h126.64v20.47H434.81z"/></clipPath><g clip-path="url(#Y)"><path d="M434.81 25.44h126.64V4.97H434.81z" fill="#f0f0f0"/><path stroke-width="1.07" stroke-linecap="round" stroke-linejoin="round" fill="none" stroke="#bebebe" d="M434.81 25.44h126.64V4.97H434.81z"/><use xlink:href="#t" transform="matrix(12 0 0 -12 467.706 19.48)" fill="#1a1a1a"/><use xlink:href="#y" transform="matrix(12 0 0 -12 474.966 19.48)" fill="#1a1a1a"/><use xlink:href="#x" transform="matrix(12 0 0 -12 480.69 19.48)" fill="#1a1a1a"/><use xlink:href="#s" transform="matrix(12 0 0 -12 486.218 19.48)" fill="#1a1a1a"/><use xlink:href="#T" transform="matrix(12 0 0 -12 491.79 21.964)" fill="#1a1a1a"/><use xlink:href="#T" transform="matrix(12 0 0 -12 499.002 21.964)" fill="#1a1a1a"/><use xlink:href="#y" transform="matrix(12 0 0 -12 506.466 19.48)" fill="#1a1a1a"/><use xlink:href="#D" transform="matrix(12 0 0 -12 512.073 19.48)" fill="#1a1a1a"/><use xlink:href="#w" transform="matrix(12 0 0 -12 516.003 19.36)" fill="#1a1a1a"/><use xlink:href="#D" transform="matrix(12 0 0 -12 519.477 19.48)" fill="#1a1a1a"/><use xlink:href="#y" transform="matrix(12 0 0 -12 523.53 19.48)" fill="#1a1a1a"/></g><symbol id="Z"><path d="M.226.701C.161.701.095.657.054.585A.51.51 0 0 1 0 .353C0 .146.094 0 .227 0c.13 0 .225.148.225.35 0 .2-.097.351-.226.351M.294.235A.727.727 0 0 0 .277.071C.266.042.25.028.227.028c-.05 0-.069.058-.069.207v.229c0 .152.018.209.067.209S.294.611.294.464V.235z"/></symbol><use xlink:href="#Z" transform="matrix(11 0 0 -11 47.494 345.243)" fill="#4d4d4d"/><symbol id="aa"><path d="M.377.024C.287.025.269.041.269.118v.57H.252L0 .579V.553a.162.162 0 0 1 .02.008c.027.01.052.017.065.017C.11.578.121.556.121.509V.124C.122.043.101.025.002.024V0h.375v.024z"/></symbol><use xlink:href="#aa" transform="matrix(11 0 0 -11 82.485 345.1)" fill="#4d4d4d"/><symbol id="ab"><path d="M.461.211H.437C.408.14.397.134.294.133H.143l.162.154c.079.075.114.142.114.218a.176.176 0 0 1-.185.183.185.185 0 0 1-.133-.056.355.355 0 0 1-.087-.148h.028c.031.063.068.09.122.09A.108.108 0 0 0 .263.519a.156.156 0 0 0 .02-.072.29.29 0 0 0-.051-.148A1.858 1.858 0 0 0 0 .023V0h.416l.045.211z"/></symbol><use xlink:href="#ab" transform="matrix(11 0 0 -11 116.497 345.1)" fill="#4d4d4d"/><symbol id="ac"><path d="M.042.537C.08.598.113.621.165.621.228.621.267.582.267.518.267.452.232.417.137.387V.37A.368.368 0 0 0 .289.29.167.167 0 0 0 .338.168C.338.096.3.05.24.05.216.05.197.061.164.093.125.132.096.148.065.148.027.148 0 .124 0 .09 0 .036.06 0 .152 0c.168 0 .3.114.3.26A.183.183 0 0 1 .33.438c.064.039.083.068.083.127C.413.651.352.702.25.702.151.702.076.652.021.549L.042.537z"/></symbol><use xlink:href="#ac" transform="matrix(11 0 0 -11 151.016 345.254)" fill="#4d4d4d"/><use xlink:href="#Z" transform="matrix(11 0 0 -11 179.614 345.243)" fill="#4d4d4d"/><use xlink:href="#aa" transform="matrix(11 0 0 -11 214.595 345.1)" fill="#4d4d4d"/><use xlink:href="#ab" transform="matrix(11 0 0 -11 248.607 345.1)" fill="#4d4d4d"/><use xlink:href="#ac" transform="matrix(11 0 0 -11 283.136 345.254)" fill="#4d4d4d"/><use xlink:href="#Z" transform="matrix(11 0 0 -11 311.724 345.243)" fill="#4d4d4d"/><use xlink:href="#aa" transform="matrix(11 0 0 -11 346.715 345.1)" fill="#4d4d4d"/><use xlink:href="#ab" transform="matrix(11 0 0 -11 380.727 345.1)" fill="#4d4d4d"/><use xlink:href="#ac" transform="matrix(11 0 0 -11 415.246 345.254)" fill="#4d4d4d"/><use xlink:href="#Z" transform="matrix(11 0 0 -11 443.844 345.243)" fill="#4d4d4d"/><use xlink:href="#aa" transform="matrix(11 0 0 -11 478.825 345.1)" fill="#4d4d4d"/><use xlink:href="#ab" transform="matrix(11 0 0 -11 512.837 345.1)" fill="#4d4d4d"/><use xlink:href="#ac" transform="matrix(11 0 0 -11 547.366 345.254)" fill="#4d4d4d"/><symbol id="ad"><path d="M.084.169A.085.085 0 0 1 0 .085C0 .037.036 0 .083 0c.048 0 .086.036.086.083a.085.085 0 0 1-.085.086z"/></symbol><use xlink:href="#Z" transform="matrix(11 0 0 -11 20.054 84.073)" fill="#4d4d4d"/><use xlink:href="#ad" transform="matrix(11 0 0 -11 25.741 84.073)" fill="#4d4d4d"/><use xlink:href="#Z" transform="matrix(11 0 0 -11 28.304 84.073)" fill="#4d4d4d"/><symbol id="ae"><path d="M.127.557h.278l.043.127H.126L.029.339a.742.742 0 0 0 .18-.027C.298.284.351.228.351.161c0-.056-.044-.1-.1-.1-.023 0-.05.012-.09.042C.118.135.088.148.062.148.026.148 0 .123 0 .088 0 .035.058 0 .147 0c.165 0 .282.1.282.241 0 .104-.064.184-.173.215a.633.633 0 0 1-.151.02l.022.081z"/></symbol><use xlink:href="#Z" transform="matrix(11 0 0 -11 20.054 72.633)" fill="#4d4d4d"/><use xlink:href="#ad" transform="matrix(11 0 0 -11 25.741 72.633)" fill="#4d4d4d"/><use xlink:href="#ae" transform="matrix(11 0 0 -11 28.282 72.578)" fill="#4d4d4d"/><use xlink:href="#aa" transform="matrix(11 0 0 -11 20.505 61.06)" fill="#4d4d4d"/><use xlink:href="#ad" transform="matrix(11 0 0 -11 25.741 61.203)" fill="#4d4d4d"/><use xlink:href="#Z" transform="matrix(11 0 0 -11 28.304 61.203)" fill="#4d4d4d"/><use xlink:href="#aa" transform="matrix(11 0 0 -11 20.505 49.62)" fill="#4d4d4d"/><use xlink:href="#ad" transform="matrix(11 0 0 -11 25.741 49.763)" fill="#4d4d4d"/><use xlink:href="#ae" transform="matrix(11 0 0 -11 28.282 49.708)" fill="#4d4d4d"/><use xlink:href="#ab" transform="matrix(11 0 0 -11 19.977 38.19)" fill="#4d4d4d"/><use xlink:href="#ad" transform="matrix(11 0 0 -11 25.741 38.333)" fill="#4d4d4d"/><use xlink:href="#Z" transform="matrix(11 0 0 -11 28.304 38.333)" fill="#4d4d4d"/><use xlink:href="#Z" transform="matrix(11 0 0 -11 20.054 167.373)" fill="#4d4d4d"/><use xlink:href="#ad" transform="matrix(11 0 0 -11 25.741 167.373)" fill="#4d4d4d"/><use xlink:href="#Z" transform="matrix(11 0 0 -11 28.304 167.373)" fill="#4d4d4d"/><use xlink:href="#Z" transform="matrix(11 0 0 -11 20.054 155.933)" fill="#4d4d4d"/><use xlink:href="#ad" transform="matrix(11 0 0 -11 25.741 155.933)" fill="#4d4d4d"/><use xlink:href="#ae" transform="matrix(11 0 0 -11 28.282 155.878)" fill="#4d4d4d"/><use xlink:href="#aa" transform="matrix(11 0 0 -11 20.505 144.35)" fill="#4d4d4d"/><use xlink:href="#ad" transform="matrix(11 0 0 -11 25.741 144.493)" fill="#4d4d4d"/><use xlink:href="#Z" transform="matrix(11 0 0 -11 28.304 144.493)" fill="#4d4d4d"/><use xlink:href="#aa" transform="matrix(11 0 0 -11 20.505 132.92)" fill="#4d4d4d"/><use xlink:href="#ad" transform="matrix(11 0 0 -11 25.741 133.063)" fill="#4d4d4d"/><use xlink:href="#ae" transform="matrix(11 0 0 -11 28.282 133.008)" fill="#4d4d4d"/><use xlink:href="#ab" transform="matrix(11 0 0 -11 19.977 121.48)" fill="#4d4d4d"/><use xlink:href="#ad" transform="matrix(11 0 0 -11 25.741 121.623)" fill="#4d4d4d"/><use xlink:href="#Z" transform="matrix(11 0 0 -11 28.304 121.623)" fill="#4d4d4d"/><use xlink:href="#Z" transform="matrix(11 0 0 -11 20.054 250.663)" fill="#4d4d4d"/><use xlink:href="#ad" transform="matrix(11 0 0 -11 25.741 250.663)" fill="#4d4d4d"/><use xlink:href="#Z" transform="matrix(11 0 0 -11 28.304 250.663)" fill="#4d4d4d"/><use xlink:href="#Z" transform="matrix(11 0 0 -11 20.054 239.223)" fill="#4d4d4d"/><use xlink:href="#ad" transform="matrix(11 0 0 -11 25.741 239.223)" fill="#4d4d4d"/><use xlink:href="#ae" transform="matrix(11 0 0 -11 28.282 239.168)" fill="#4d4d4d"/><use xlink:href="#aa" transform="matrix(11 0 0 -11 20.505 227.65)" fill="#4d4d4d"/><use xlink:href="#ad" transform="matrix(11 0 0 -11 25.741 227.793)" fill="#4d4d4d"/><use xlink:href="#Z" transform="matrix(11 0 0 -11 28.304 227.793)" fill="#4d4d4d"/><use xlink:href="#aa" transform="matrix(11 0 0 -11 20.505 216.21)" fill="#4d4d4d"/><use xlink:href="#ad" transform="matrix(11 0 0 -11 25.741 216.353)" fill="#4d4d4d"/><use xlink:href="#ae" transform="matrix(11 0 0 -11 28.282 216.298)" fill="#4d4d4d"/><use xlink:href="#ab" transform="matrix(11 0 0 -11 19.977 204.78)" fill="#4d4d4d"/><use xlink:href="#ad" transform="matrix(11 0 0 -11 25.741 204.923)" fill="#4d4d4d"/><use xlink:href="#Z" transform="matrix(11 0 0 -11 28.304 204.923)" fill="#4d4d4d"/><use xlink:href="#Z" transform="matrix(11 0 0 -11 20.054 333.963)" fill="#4d4d4d"/><use xlink:href="#ad" transform="matrix(11 0 0 -11 25.741 333.963)" fill="#4d4d4d"/><use xlink:href="#Z" transform="matrix(11 0 0 -11 28.304 333.963)" fill="#4d4d4d"/><use xlink:href="#Z" transform="matrix(11 0 0 -11 20.054 322.523)" fill="#4d4d4d"/><use xlink:href="#ad" transform="matrix(11 0 0 -11 25.741 322.523)" fill="#4d4d4d"/><use xlink:href="#ae" transform="matrix(11 0 0 -11 28.282 322.468)" fill="#4d4d4d"/><use xlink:href="#aa" transform="matrix(11 0 0 -11 20.505 310.94)" fill="#4d4d4d"/><use xlink:href="#ad" transform="matrix(11 0 0 -11 25.741 311.083)" fill="#4d4d4d"/><use xlink:href="#Z" transform="matrix(11 0 0 -11 28.304 311.083)" fill="#4d4d4d"/><use xlink:href="#aa" transform="matrix(11 0 0 -11 20.505 299.51)" fill="#4d4d4d"/><use xlink:href="#ad" transform="matrix(11 0 0 -11 25.741 299.653)" fill="#4d4d4d"/><use xlink:href="#ae" transform="matrix(11 0 0 -11 28.282 299.598)" fill="#4d4d4d"/><use xlink:href="#ab" transform="matrix(11 0 0 -11 19.977 288.07)" fill="#4d4d4d"/><use xlink:href="#ad" transform="matrix(11 0 0 -11 25.741 288.213)" fill="#4d4d4d"/><use xlink:href="#Z" transform="matrix(11 0 0 -11 28.304 288.213)" fill="#4d4d4d"/><symbol id="af"><path d="M.516.475H.348V.451C.396.449.41.442.41.418A.106.106 0 0 0 .397.373L.317.191.229.394C.22.414.22.418.22.425.22.44.23.447.258.449l.02.002v.024H0V.451C.026.448.032.445.039.436c.003 0 .054-.1.072-.14L.245 0h.029L.45.396c.022.044.03.052.065.055v.024z"/></symbol><symbol id="ag"><path d="m.448.078-.01-.01C.435.065.432.064.427.064.413.064.406.072.406.089V.35C.406.435.33.487.208.487.095.487.019.436.019.361c0-.042.024-.066.065-.066.04 0 .068.024.068.058C.152.367.147.38.134.396.125.406.122.412.122.418c0 .021.027.037.063.037.059 0 .084-.027.084-.088V.294A.724.724 0 0 1 .064.213C.02.183 0 .149 0 .106 0 .045.046 0 .111 0c.057 0 .103.02.158.07C.28.019.302 0 .351 0c.043 0 .074.016.112.057L.448.078m-.18.036C.241.083.221.071.197.071c-.03 0-.051.027-.051.067 0 .058.042.1.122.121V.114z"/></symbol><symbol id="ah"><path d="M.286.024c-.038 0-.057.02-.058.06v.592H0V.652C.04.651.06.632.061.594v-.51C.06.046.038.025 0 .024V0h.286v.024z"/></symbol><symbol id="ai"><path d="M.573.057C.525.059.513.072.51.115v.36h-.22V.451C.343.448.356.436.357.392V.109C.322.076.3.065.268.065c-.045 0-.061.02-.061.071v.339H0V.451C.045.443.053.434.054.392V.14C.054.052.109 0 .2 0c.057 0 .096.016.16.066V.001a.59.59 0 0 0 .144.026l.069.007v.023z"/></symbol><symbol id="aj"><path d="M.425.139C.378.09.345.072.296.072a.114.114 0 0 0-.1.053C.176.157.166.19.162.259h.284C.439.343.422.39.386.428a.2.2 0 0 1-.152.059C.094.487 0 .388 0 .242S.092 0 .232 0c.091 0 .146.031.22.125L.425.139M.157.296c.003.12.023.16.078.16.053 0 .07-.034.072-.145V.296h-.15z"/></symbol><use xlink:href="#af" transform="matrix(12 0 0 -12 285.24 359.288)"/><use xlink:href="#ag" transform="matrix(12 0 0 -12 291.932 359.288)"/><use xlink:href="#ah" transform="matrix(12 0 0 -12 297.862 359.12)"/><use xlink:href="#ai" transform="matrix(12 0 0 -12 301.839 359.288)"/><use xlink:href="#aj" transform="matrix(12 0 0 -12 309.298 359.288)"/><symbol id="ak"><path d="M.56.057C.51.06.494.073.494.115V.69H.258V.666C.33.662.341.655.342.608V.425C.295.471.262.487.21.487.091.487 0 .38 0 .235 0 .098.084 0 .199 0c.058 0 .094.016.146.066V.001c.05.013.078.018.146.025L.56.034v.023M.342.126C.342.12.33.103.318.09.296.067.273.056.248.056.19.056.163.115.163.243c0 .129.03.188.093.188.036 0 .07-.024.086-.062V.126z"/></symbol><symbol id="al"><path d="M.57.024C.528.026.513.041.514.081v.251c0 .086-.058.141-.148.141A.18.18 0 0 1 .21.386v.075H0V.437C.048.43.057.421.058.378V.084C.058.041.048.032 0 .024V0h.265v.024C.225.028.21.044.21.081v.267c0 .003.008.014.019.024.024.022.05.034.075.034.039 0 .058-.027.058-.083V.081C.362.043.347.027.31.024V0h.258v.024z"/></symbol><symbol id="am"><path d="M.36.34v.145H.334C.328.47.321.465.306.465A.151.151 0 0 0 .27.472a.296.296 0 0 1-.09.015C.078.487.002.425.002.341.002.275.05.229.164.186c.08-.03.11-.055.11-.087C.274.06.24.034.188.034c-.08 0-.132.045-.156.132H0V.001h.029c.012.022.019.028.03.028A.09.09 0 0 0 .083.023.446.446 0 0 1 .208 0c.104 0 .176.062.176.152C.384.223.34.266.226.308.148.337.116.362.116.396c0 .033.032.058.076.058.03 0 .06-.011.085-.032A.17.17 0 0 0 .331.34H.36z"/></symbol><symbol id="an"><path d="M.286.024C.246.028.23.043.23.081v.38H0V.437C.053.429.062.42.063.378V.084c0-.042-.01-.05-.063-.06V0h.286v.024m-.14.667C.095.691.053.656.053.614c0-.045.04-.078.092-.078.053 0 .093.033.093.077S.198.691.146.691z"/></symbol><symbol id="ao"><path d="M.285.473H.191v.169H.166A.878.878 0 0 0 0 .456V.429h.052V.105C.052.04.095 0 .164 0c.067 0 .107.03.148.112L.287.123C.267.085.251.071.23.071.202.071.191.088.191.128v.301h.094v.044z"/></symbol><symbol id="ap"><path d="M.516.666H.348V.642C.396.64.41.633.41.609A.114.114 0 0 0 .397.564L.321.372l-.08.185C.22.608.22.608.22.616c0 .015.013.022.041.025l.018.001v.024H0V.642C.026.639.032.636.039.627.042.626.093.528.11.487L.245.192.225.139C.205.089.178.057.15.057c-.01 0-.019.008-.019.017L.133.08l.003.014C.136.123.11.143.07.143.03.143 0 .117 0 .079 0 .032.044 0 .108 0 .146 0 .178.011.2.033A.49.49 0 0 1 .286.19L.45.587c.02.042.03.052.065.055v.024z"/></symbol><use xlink:href="#ak" transform="matrix(0 -12 -12 0 13.818 199.06)"/><use xlink:href="#aj" transform="matrix(0 -12 -12 0 13.818 191.72)"/><use xlink:href="#al" transform="matrix(0 -12 -12 0 13.65 185.781)"/><use xlink:href="#am" transform="matrix(0 -12 -12 0 13.818 178.384)"/><use xlink:href="#an" transform="matrix(0 -12 -12 0 13.65 173.168)"/><use xlink:href="#ao" transform="matrix(0 -12 -12 0 13.794 169.162)"/><use xlink:href="#ap" transform="matrix(0 -12 -12 0 16.11 165.192)"/></svg>